<svg xmlns="http://www.w3.org/2000/svg" xmlns:xlink="http://www.w3.org/1999/xlink" width="627" height="246" viewBox="0 0 627 246">
  <defs>
    <clipPath id="clip-jade_-_jdkbd">
      <rect width="627" height="246"/>
    </clipPath>
  </defs>
  <g id="jade_-_jdkbd" data-name="jade - jdkbd" clip-path="url(#clip-jade_-_jdkbd)">
    <rect id="Rectangle_1" data-name="Rectangle 1" width="79" height="79" transform="translate(37 35)" fill="#39ba8e"/>
    <rect id="Rectangle_3" data-name="Rectangle 3" width="79" height="79" transform="translate(37 126)" fill="#39ba8e"/>
    <rect id="Rectangle_10" data-name="Rectangle 10" width="79" height="79" transform="translate(128 35)" fill="#39ba8e"/>
    <rect id="Rectangle_12" data-name="Rectangle 12" width="79" height="79" transform="translate(128 126)" fill="#39ba8e"/>
    <path id="Path_4" data-name="Path 4" d="M24.24-52H3.52v2.24c6.48.48,7.12,1.04,7.12,7.76v27.28c0,6.72-.16,11.36-.88,15.2A13.777,13.777,0,0,1,2.08,10.96L3.12,13.2a21.544,21.544,0,0,0,7.44-4.64c5.28-4.88,6.88-10.4,6.88-20.64V-42c0-6.72.64-7.28,6.8-7.76Z" transform="translate(64 98)" fill="#fff"/>
    <path id="Path_3" data-name="Path 3" d="M34.64-3.12l-.8-2.08a6.071,6.071,0,0,1-2.88.88c-1.36,0-2.8-1.2-2.8-4.8V-24c0-4.16-.8-7.44-3.6-9.76A10.432,10.432,0,0,0,18-35.92c-4.56.88-9.76,4-12,5.6-1.52,1.12-2.56,2-2.56,3.2a3.908,3.908,0,0,0,3.52,3.44A2.227,2.227,0,0,0,9.28-25.6c.64-2.4,1.36-4.16,2.4-5.2a4.512,4.512,0,0,1,3.6-1.6c4,0,6.72,3.28,6.72,9.04v1.44c-1.76,1.44-7.6,3.6-12.4,5.2-4.4,1.52-6.48,4-6.48,7.92A9.657,9.657,0,0,0,12.72.96c2.4,0,6.24-2.96,9.44-5.12a8.313,8.313,0,0,0,1.92,3.6A6.525,6.525,0,0,0,27.84.96ZM22-6.72a11.444,11.444,0,0,1-6.4,2.88A5.857,5.857,0,0,1,9.92-10c0-2.88,1.76-4.4,4.88-5.84,1.68-.8,5.52-2.48,7.2-3.36Z" transform="translate(150 98)" fill="#fff"/>
    <path id="Path_5" data-name="Path 5" d="M41.36-4.08,38.8-4.32c-2.96-.32-3.52-.72-3.52-4.88V-56.96a74.438,74.438,0,0,1-12.48,2.8v1.92c5.76.4,6.16.64,6.16,5.92v11.28a18.476,18.476,0,0,0-5.28-.88C12.8-35.92,3.04-27.2,3.04-16.08,3.04-4.88,11.44.96,17.84.96c.96,0,3.12-.48,6.24-2.32l4.88-2.88V.96a82.8,82.8,0,0,1,12.4-3.04ZM28.96-6.8a13.483,13.483,0,0,1-7.68,2.72c-5.12,0-10.96-4.64-10.96-14.16,0-11.6,6.72-14.72,10.4-14.72a9.935,9.935,0,0,1,8.24,4.08Z" transform="translate(56 190)" fill="#fff"/>
    <path id="Path_6" data-name="Path 6" d="M30.32-8.48a13.069,13.069,0,0,1-9.12,4c-5.6,0-11.84-4.48-11.92-15.36,9.52-.32,19.52-1.12,20.88-1.36,1.44-.32,1.84-.96,1.84-2.56C32-30,26.64-35.92,20-35.92h-.08c-4.08,0-8.4,2.16-11.68,5.84a20.6,20.6,0,0,0-5.28,14C2.96-7.04,8.72.96,18.56.96c2.48,0,8-1.44,13.04-7.76ZM18.08-32.96c4.4,0,7.12,3.84,7.04,8,0,1.12-.48,1.6-1.92,1.6-4.64.16-9.04.24-13.52.24,1.2-6.48,4.72-9.84,8.32-9.84Z" transform="translate(150 186)" fill="#fff"/>
    <path id="Path_1" data-name="Path 1" d="M4.816-52.488h7.137v23.344L34.137-52.488h8.332L22.043-31.043,43.066,0H34.488L17.367-26.3l-5.414,5.766V0H4.816ZM82.723-22.922v3.164H54.7v.211Q54.422-11.5,57.779-7.98t9.475,3.516a23.089,23.089,0,0,0,6.469-.984A39.684,39.684,0,0,0,80.93-8.437V-2A43.635,43.635,0,0,1,73.811.264a30.751,30.751,0,0,1-6.627.756q-9.176,0-14.344-5.5t-5.168-15.17q0-9.422,5.063-15.047t13.5-5.625q7.523,0,11.865,5.1A19.576,19.576,0,0,1,82.723-22.922Zm-6.469-1.9a12.537,12.537,0,0,0-2.971-7.049q-2.549-2.971-7.33-2.971a10.3,10.3,0,0,0-7.7,3.094,10.911,10.911,0,0,0-3.3,6.961Zm40.605,12.164q-1.617,4.113-4.113,10.828a104.053,104.053,0,0,1-4.676,11.32,11,11,0,0,1-4.043,4.113,11.309,11.309,0,0,1-5.66,1.371h-5.2V9.563H97a5.961,5.961,0,0,0,4.465-1.652q1.617-1.652,4.113-8.543L90.352-39.375h6.855l11.672,30.8,11.5-30.8h6.855Zm45.457-7q0-7.523-2.391-11.355a7.8,7.8,0,0,0-7.066-3.832,7.908,7.908,0,0,0-7.137,3.85q-2.426,3.85-2.426,11.338,0,7.453,2.426,11.32a7.9,7.9,0,0,0,7.137,3.867A7.8,7.8,0,0,0,159.926-8.3Q162.316-12.129,162.316-19.652Zm-19.02-14.7a10.887,10.887,0,0,1,4.271-4.43,12.56,12.56,0,0,1,6.311-1.547,13.189,13.189,0,0,1,11.18,5.467q4.078,5.467,4.078,15.064,0,9.738-4.1,15.275A13.212,13.212,0,0,1,153.809,1.02,12.333,12.333,0,0,1,147.6-.51,11.249,11.249,0,0,1,143.3-4.957V0h-6.469V-54.7H143.3Zm51.75-.492a8.361,8.361,0,0,0-7.453,3.832q-2.531,3.832-2.531,11.355,0,7.488,2.531,11.338a8.35,8.35,0,0,0,7.453,3.85,8.383,8.383,0,0,0,7.488-3.85q2.531-3.85,2.531-11.338,0-7.523-2.531-11.355A8.394,8.394,0,0,0,195.047-34.84Zm0-5.484q8.191,0,12.533,5.309t4.342,15.363q0,10.09-4.324,15.381T195.047,1.02q-8.191,0-12.516-5.291t-4.324-15.381q0-10.055,4.324-15.363T195.047-40.324Zm46.371,20.531h-2.145q-5.66,0-8.525,1.986a6.734,6.734,0,0,0-2.865,5.924,7.117,7.117,0,0,0,2.145,5.52,8.456,8.456,0,0,0,5.941,1.969,10.3,10.3,0,0,0,8.4-3.709q3.059-3.709,3.094-10.248v-1.441Zm12.551-2.672V0h-6.5V-5.836A13.351,13.351,0,0,1,242.244-.65,16.131,16.131,0,0,1,234.6,1.02q-6.012,0-9.6-3.393a11.919,11.919,0,0,1-3.586-9.088q0-6.574,4.412-9.984t12.955-3.41h8.684v-1.02q-.035-4.711-2.391-6.838t-7.523-2.127a24.586,24.586,0,0,0-6.68.949,29.11,29.11,0,0,0-6.574,2.777v-6.469a45.081,45.081,0,0,1,6.873-2.057,31.225,31.225,0,0,1,6.381-.686,21.7,21.7,0,0,1,8.35,1.441,13.122,13.122,0,0,1,5.607,4.324,10.906,10.906,0,0,1,1.9,4.342A39.4,39.4,0,0,1,253.969-22.465Zm46.723-8.789a14.64,14.64,0,0,0-4.219-2.355,14.391,14.391,0,0,0-4.711-.738q-6.047,0-9.246,3.8t-3.2,10.969V0h-6.5V-39.375h6.5v7.7a13.13,13.13,0,0,1,4.975-6.416,14.046,14.046,0,0,1,7.963-2.232,16.063,16.063,0,0,1,4.465.6,14.252,14.252,0,0,1,3.973,1.863ZM333.6-34.348V-54.7h6.469V0H333.6V-4.957A11.249,11.249,0,0,1,329.291-.51a12.333,12.333,0,0,1-6.205,1.529,13.212,13.212,0,0,1-11.232-5.537q-4.1-5.537-4.1-15.275,0-9.6,4.113-15.064a13.282,13.282,0,0,1,11.215-5.467,12.5,12.5,0,0,1,6.258,1.529A10.753,10.753,0,0,1,333.6-34.348Zm-19.02,14.7q0,7.523,2.391,11.355a7.8,7.8,0,0,0,7.066,3.832,7.91,7.91,0,0,0,7.119-3.867Q333.6-12.2,333.6-19.652q0-7.488-2.443-11.338a7.918,7.918,0,0,0-7.119-3.85,7.8,7.8,0,0,0-7.066,3.832Q314.578-27.176,314.578-19.652Z" transform="translate(222 100)"/>
    <path id="Path_2" data-name="Path 2" d="M14.344-8.734a9.658,9.658,0,0,0-1.062-5.047,3.468,3.468,0,0,0-3.141-1.7,3.515,3.515,0,0,0-3.172,1.711A9.549,9.549,0,0,0,5.891-8.734,9.556,9.556,0,0,0,6.969-3.7a3.511,3.511,0,0,0,3.172,1.719,3.468,3.468,0,0,0,3.141-1.7A9.658,9.658,0,0,0,14.344-8.734ZM5.891-15.266a4.839,4.839,0,0,1,1.9-1.969,5.582,5.582,0,0,1,2.8-.687,5.862,5.862,0,0,1,4.969,2.43,10.98,10.98,0,0,1,1.813,6.7,11.205,11.205,0,0,1-1.82,6.789A5.872,5.872,0,0,1,10.563.453,5.482,5.482,0,0,1,7.8-.227,5,5,0,0,1,5.891-2.2V0H3.016V-24.312H5.891ZM30.234-8.8h-.953a6.665,6.665,0,0,0-3.789.883,2.993,2.993,0,0,0-1.273,2.633,3.163,3.163,0,0,0,.953,2.453,3.758,3.758,0,0,0,2.641.875A4.579,4.579,0,0,0,31.547-3.6a7.018,7.018,0,0,0,1.375-4.555V-8.8Zm5.578-1.187V0H32.922V-2.594a5.934,5.934,0,0,1-2.32,2.3,7.17,7.17,0,0,1-3.4.742,5.952,5.952,0,0,1-4.266-1.508,5.3,5.3,0,0,1-1.594-4.039A5.266,5.266,0,0,1,23.3-9.531a9.293,9.293,0,0,1,5.758-1.516h3.859V-11.5a3.954,3.954,0,0,0-1.062-3.039,4.9,4.9,0,0,0-3.344-.945,10.927,10.927,0,0,0-2.969.422,12.938,12.938,0,0,0-2.922,1.234V-16.7a20.036,20.036,0,0,1,3.055-.914,13.878,13.878,0,0,1,2.836-.3,9.644,9.644,0,0,1,3.711.641,5.832,5.832,0,0,1,2.492,1.922,4.847,4.847,0,0,1,.844,1.93A17.512,17.512,0,0,1,35.813-9.984Zm17.922-6.906v2.813a10.954,10.954,0,0,0-2.484-1.078,9.173,9.173,0,0,0-2.547-.359,5.366,5.366,0,0,0-2.914.633,2.152,2.152,0,0,0-.961,1.93,2.111,2.111,0,0,0,.719,1.75,9.8,9.8,0,0,0,3.578,1.125l1.156.219a5.634,5.634,0,0,1,3.242,1.625,4.549,4.549,0,0,1,1.1,3.172,4.884,4.884,0,0,1-1.844,4.055A8.055,8.055,0,0,1,47.656.453,14.4,14.4,0,0,1,44.938.18a24.86,24.86,0,0,1-3.078-.82V-3.609a16.637,16.637,0,0,0,3.078,1.242,10.261,10.261,0,0,0,2.781.414,4.895,4.895,0,0,0,2.953-.773,2.536,2.536,0,0,0,1.047-2.164q0-2-3.828-2.766l-.125-.031-1.078-.219a6.88,6.88,0,0,1-3.625-1.633,4.25,4.25,0,0,1-1.141-3.133,4.693,4.693,0,0,1,1.7-3.883,7.593,7.593,0,0,1,4.859-1.367,13.836,13.836,0,0,1,2.7.258A13.641,13.641,0,0,1,53.734-16.891Zm21.563,6.7v1.406H62.844v.094q-.125,3.578,1.367,5.141a5.547,5.547,0,0,0,4.211,1.563A10.262,10.262,0,0,0,71.3-2.422,17.637,17.637,0,0,0,74.5-3.75V-.891A19.393,19.393,0,0,1,71.336.117a13.667,13.667,0,0,1-2.945.336,8.321,8.321,0,0,1-6.375-2.445,9.457,9.457,0,0,1-2.3-6.742,9.621,9.621,0,0,1,2.25-6.687,7.677,7.677,0,0,1,6-2.5,6.562,6.562,0,0,1,5.273,2.266A8.7,8.7,0,0,1,75.3-10.187Zm-2.875-.844a5.572,5.572,0,0,0-1.32-3.133,4.057,4.057,0,0,0-3.258-1.32,4.58,4.58,0,0,0-3.422,1.375,4.849,4.849,0,0,0-1.469,3.094Zm18.047-4.234v-9.047h2.875V0H90.469V-2.2A5,5,0,0,1,88.555-.227,5.482,5.482,0,0,1,85.8.453,5.872,5.872,0,0,1,80.8-2.008,11.205,11.205,0,0,1,78.984-8.8a10.911,10.911,0,0,1,1.828-6.7,5.9,5.9,0,0,1,4.984-2.43,5.557,5.557,0,0,1,2.781.68A4.779,4.779,0,0,1,90.469-15.266ZM82.016-8.734a9.658,9.658,0,0,0,1.063,5.047,3.468,3.468,0,0,0,3.141,1.7A3.515,3.515,0,0,0,89.383-3.7a9.5,9.5,0,0,0,1.086-5.031,9.493,9.493,0,0,0-1.086-5.039,3.519,3.519,0,0,0-3.164-1.711,3.468,3.468,0,0,0-3.141,1.7A9.658,9.658,0,0,0,82.016-8.734Zm43.2-6.75a3.716,3.716,0,0,0-3.312,1.7,9.218,9.218,0,0,0-1.125,5.047A9.224,9.224,0,0,0,121.906-3.7a3.711,3.711,0,0,0,3.313,1.711A3.726,3.726,0,0,0,128.547-3.7a9.224,9.224,0,0,0,1.125-5.039,9.218,9.218,0,0,0-1.125-5.047A3.731,3.731,0,0,0,125.219-15.484Zm0-2.437a6.781,6.781,0,0,1,5.57,2.359q1.93,2.359,1.93,6.828,0,4.484-1.922,6.836A6.787,6.787,0,0,1,125.219.453,6.769,6.769,0,0,1,119.656-1.9q-1.922-2.352-1.922-6.836,0-4.469,1.922-6.828A6.758,6.758,0,0,1,125.219-17.922Zm26.063,7.078V0h-2.891V-10.844a5.826,5.826,0,0,0-.828-3.469,3.025,3.025,0,0,0-2.594-1.109,3.663,3.663,0,0,0-3.1,1.43,6.678,6.678,0,0,0-1.086,4.1V0h-2.875V-17.5h2.875v2.625a5.415,5.415,0,0,1,2.078-2.273,6.015,6.015,0,0,1,3.109-.773,4.673,4.673,0,0,1,3.992,1.758A8.827,8.827,0,0,1,151.281-10.844ZM189.969-.891A9.978,9.978,0,0,1,187.586.117a9.451,9.451,0,0,1-2.508.336,8.29,8.29,0,0,1-6.352-2.437,9.471,9.471,0,0,1-2.289-6.75,9.471,9.471,0,0,1,2.289-6.75,8.29,8.29,0,0,1,6.352-2.437,9.34,9.34,0,0,1,2.469.328,10.63,10.63,0,0,1,2.422,1.016v3.016a7.78,7.78,0,0,0-2.289-1.469,7.042,7.042,0,0,0-2.6-.453,5.1,5.1,0,0,0-4.156,1.75,7.63,7.63,0,0,0-1.453,5,7.608,7.608,0,0,0,1.461,4.992,5.092,5.092,0,0,0,4.148,1.758,7.381,7.381,0,0,0,2.688-.461,6.7,6.7,0,0,0,2.2-1.43Zm20.734-13a6.507,6.507,0,0,0-1.875-1.047,6.4,6.4,0,0,0-2.094-.328,5.072,5.072,0,0,0-4.109,1.688A7.375,7.375,0,0,0,201.2-8.7V0h-2.891V-17.5H201.2v3.422a5.836,5.836,0,0,1,2.211-2.852,6.243,6.243,0,0,1,3.539-.992,7.139,7.139,0,0,1,1.984.266,6.334,6.334,0,0,1,1.766.828Zm4.906-10.422h2.969v14.078l7.547-7.266h3.5l-6.891,6.594L230.7,0h-3.516l-6.469-9.031-2.141,2.016V0h-2.969ZM245.531-8.734a9.658,9.658,0,0,0-1.062-5.047,3.468,3.468,0,0,0-3.141-1.7,3.515,3.515,0,0,0-3.172,1.711,9.549,9.549,0,0,0-1.078,5.039A9.556,9.556,0,0,0,238.156-3.7a3.511,3.511,0,0,0,3.172,1.719,3.468,3.468,0,0,0,3.141-1.7A9.658,9.658,0,0,0,245.531-8.734Zm-8.453-6.531a4.839,4.839,0,0,1,1.9-1.969,5.582,5.582,0,0,1,2.8-.687,5.862,5.862,0,0,1,4.969,2.43,10.98,10.98,0,0,1,1.813,6.7,11.205,11.205,0,0,1-1.82,6.789A5.872,5.872,0,0,1,241.75.453a5.482,5.482,0,0,1-2.758-.68A5,5,0,0,1,237.078-2.2V0H234.2V-24.312h2.875Zm26.781,0v-9.047h2.875V0h-2.875V-2.2a5,5,0,0,1-1.914,1.977,5.482,5.482,0,0,1-2.758.68A5.872,5.872,0,0,1,254.2-2.008a11.205,11.205,0,0,1-1.82-6.789,10.911,10.911,0,0,1,1.828-6.7,5.9,5.9,0,0,1,4.984-2.43,5.557,5.557,0,0,1,2.781.68A4.779,4.779,0,0,1,263.859-15.266Zm-8.453,6.531a9.658,9.658,0,0,0,1.063,5.047,3.468,3.468,0,0,0,3.141,1.7A3.516,3.516,0,0,0,262.773-3.7a9.5,9.5,0,0,0,1.086-5.031,9.493,9.493,0,0,0-1.086-5.039,3.519,3.519,0,0,0-3.164-1.711,3.468,3.468,0,0,0-3.141,1.7A9.658,9.658,0,0,0,255.406-8.734Z" transform="translate(251 153)"/>
  </g>
</svg>
