%TF.GenerationSoftware,KiCad,Pcbnew,(5.1.6-0-10_14)*%
%TF.CreationDate,2020-10-01T11:44:37+02:00*%
%TF.ProjectId,bottom-plate,626f7474-6f6d-42d7-906c-6174652e6b69,rev?*%
%TF.SameCoordinates,Original*%
%TF.FileFunction,Profile,NP*%
%FSLAX46Y46*%
G04 Gerber Fmt 4.6, Leading zero omitted, Abs format (unit mm)*
G04 Created by KiCad (PCBNEW (5.1.6-0-10_14)) date 2020-10-01 11:44:37*
%MOMM*%
%LPD*%
G01*
G04 APERTURE LIST*
%TA.AperFunction,Profile*%
%ADD10C,0.200000*%
%TD*%
G04 APERTURE END LIST*
D10*
X52316830Y-30715301D02*
X52316592Y-30715301D01*
X52816713Y-30215179D02*
X52767456Y-30431960D01*
X52767456Y-30431960D02*
X52634849Y-30601046D01*
X52634849Y-30601046D02*
X52441784Y-30699528D01*
X52441784Y-30699528D02*
X52316830Y-30715301D01*
X32567595Y-30713525D02*
X52316592Y-30715301D01*
X52818995Y-28963466D02*
X52816713Y-30215179D01*
X32067216Y-31213904D02*
X32067216Y-90687945D01*
X32066700Y-31215174D02*
X32116025Y-30998480D01*
X32116025Y-30998480D02*
X32248643Y-30829482D01*
X32248643Y-30829482D02*
X32441668Y-30731061D01*
X32441668Y-30731061D02*
X32566583Y-30715301D01*
X53318859Y-28463345D02*
X72332527Y-28465121D01*
X114554000Y-101219000D02*
X98806000Y-101219000D01*
X124460000Y-106045000D02*
X114554000Y-101219000D01*
X124714000Y-106045000D02*
X124460000Y-106045000D01*
X143256000Y-106045000D02*
X124714000Y-106045000D01*
X150368000Y-106045000D02*
X143256000Y-106045000D01*
X58166000Y-113919000D02*
X51054000Y-101727000D01*
X67564000Y-130429000D02*
X58166000Y-113919000D01*
X68326000Y-130429000D02*
X67564000Y-130429000D01*
X84328000Y-121031000D02*
X68326000Y-130429000D01*
X84582000Y-120015000D02*
X84328000Y-121031000D01*
X78994000Y-110363000D02*
X84582000Y-120015000D01*
X79248000Y-108839000D02*
X78994000Y-110363000D01*
X84582000Y-105791000D02*
X79248000Y-108839000D01*
X92456000Y-101219000D02*
X84582000Y-105791000D01*
X98806000Y-101219000D02*
X92456000Y-101219000D01*
X165168000Y-87444000D02*
G75*
G03*
X165168000Y-87444000I-576000J0D01*
G01*
X72839000Y-37211000D02*
G75*
G03*
X72839000Y-37211000I-576000J0D01*
G01*
X165168000Y-49149000D02*
G75*
G03*
X165168000Y-49149000I-576000J0D01*
G01*
X72834177Y-27962707D02*
X72834177Y-26464109D01*
X73334556Y-25963729D02*
X84295500Y-25965252D01*
X91833358Y-25463350D02*
X91833358Y-24213671D01*
X92333737Y-23713292D02*
X109333940Y-23713292D01*
X129032000Y-30607000D02*
X166878000Y-30608776D01*
X166878000Y-31369000D02*
X166879776Y-106045000D01*
X72832649Y-27965247D02*
X72783289Y-28182004D01*
X72783289Y-28182004D02*
X72650601Y-28351024D01*
X72650601Y-28351024D02*
X72457489Y-28449410D01*
X72457489Y-28449410D02*
X72332527Y-28465121D01*
X72832649Y-26465126D02*
X72881976Y-26248433D01*
X72881976Y-26248433D02*
X73014589Y-26079436D01*
X73014589Y-26079436D02*
X73207608Y-25981014D01*
X73207608Y-25981014D02*
X73332522Y-25965252D01*
X91332720Y-25965252D02*
X91332472Y-25965252D01*
X91832594Y-25465126D02*
X91783343Y-25681908D01*
X91783343Y-25681908D02*
X91650738Y-25850995D01*
X91650738Y-25850995D02*
X91457674Y-25949479D01*
X91457674Y-25949479D02*
X91332720Y-25965252D01*
X91832594Y-24215194D02*
X91881843Y-23998411D01*
X91881843Y-23998411D02*
X92014448Y-23829324D01*
X92014448Y-23829324D02*
X92207512Y-23730840D01*
X92207512Y-23730840D02*
X92332467Y-23715068D01*
X109332670Y-23715068D02*
X109549429Y-23764427D01*
X109549429Y-23764427D02*
X109718449Y-23897116D01*
X109718449Y-23897116D02*
X109816834Y-24090228D01*
X109816834Y-24090228D02*
X109832544Y-24215189D01*
X109832544Y-25465379D02*
X109832544Y-25465126D01*
X110332665Y-25965252D02*
X110115881Y-25916001D01*
X110115881Y-25916001D02*
X109946796Y-25783395D01*
X109946796Y-25783395D02*
X109848316Y-25590331D01*
X109848316Y-25590331D02*
X109832544Y-25465379D01*
X110334699Y-25963729D02*
X122205500Y-25965252D01*
X52818995Y-28963466D02*
X52868247Y-28746687D01*
X52868247Y-28746687D02*
X53000847Y-28577603D01*
X53000847Y-28577603D02*
X53193905Y-28479119D01*
X53193905Y-28479119D02*
X53318859Y-28463345D01*
X166878000Y-106045000D02*
X150368000Y-106045000D01*
X129032000Y-25965252D02*
X122205500Y-25965252D01*
X129032000Y-26035000D02*
X129032000Y-25965252D01*
X129032000Y-30607000D02*
X129032000Y-26035000D01*
X166878000Y-30861000D02*
X166878000Y-30607000D01*
X166878000Y-31369000D02*
X166878000Y-30861000D01*
X91332472Y-25965252D02*
X84295500Y-25965252D01*
X51054000Y-101727000D02*
X45720000Y-92837000D01*
X45720000Y-92837000D02*
X32258000Y-91440000D01*
X32067216Y-90687945D02*
X32258000Y-91440000D01*
X44391000Y-87122000D02*
G75*
G03*
X44391000Y-87122000I-576000J0D01*
G01*
X109832544Y-25465126D02*
X109832544Y-24215189D01*
M02*
