%TF.GenerationSoftware,KiCad,Pcbnew,(5.1.6-0-10_14)*%
%TF.CreationDate,2020-10-04T18:03:32+02:00*%
%TF.ProjectId,bottom-plate,626f7474-6f6d-42d7-906c-6174652e6b69,rev?*%
%TF.SameCoordinates,Original*%
%TF.FileFunction,Profile,NP*%
%FSLAX46Y46*%
G04 Gerber Fmt 4.6, Leading zero omitted, Abs format (unit mm)*
G04 Created by KiCad (PCBNEW (5.1.6-0-10_14)) date 2020-10-04 18:03:32*
%MOMM*%
%LPD*%
G01*
G04 APERTURE LIST*
%TA.AperFunction,Profile*%
%ADD10C,0.200000*%
%TD*%
G04 APERTURE END LIST*
D10*
X52564995Y-28575000D02*
X52578000Y-30715301D01*
X51054000Y-101727000D02*
X45720000Y-92837000D01*
X45720000Y-92837000D02*
X33274000Y-91567000D01*
X32258000Y-91440000D02*
X33274000Y-91567000D01*
X129413000Y-30099000D02*
X129413000Y-25527000D01*
X90951720Y-25519126D02*
X84276028Y-25527000D01*
X110588699Y-25525477D02*
X110392890Y-25482415D01*
X110392890Y-25482415D02*
X110216725Y-25355834D01*
X110216725Y-25355834D02*
X110109072Y-25167721D01*
X110109072Y-25167721D02*
X110086544Y-25019000D01*
X110588699Y-25525477D02*
X122205500Y-25527000D01*
X52564995Y-28575000D02*
X52593425Y-28351004D01*
X52593425Y-28351004D02*
X52694980Y-28176968D01*
X52694980Y-28176968D02*
X52874438Y-28054997D01*
X52874438Y-28054997D02*
X53046151Y-28024081D01*
X167259000Y-106426000D02*
X150368000Y-106426000D01*
X129413000Y-25527000D02*
X122205500Y-25527000D01*
X72307211Y-26025351D02*
X72356538Y-25808658D01*
X72356538Y-25808658D02*
X72489151Y-25639661D01*
X72489151Y-25639661D02*
X72682170Y-25541239D01*
X72682170Y-25541239D02*
X72807084Y-25525477D01*
X91451594Y-24998684D02*
X91412350Y-25205060D01*
X91412350Y-25205060D02*
X91287877Y-25387057D01*
X91287877Y-25387057D02*
X91100400Y-25496475D01*
X91100400Y-25496475D02*
X90951720Y-25519126D01*
X91451594Y-23749005D02*
X91500843Y-23532222D01*
X91500843Y-23532222D02*
X91633448Y-23363135D01*
X91633448Y-23363135D02*
X91826512Y-23264651D01*
X91826512Y-23264651D02*
X91951467Y-23248879D01*
X109586670Y-23248879D02*
X109803429Y-23298238D01*
X109803429Y-23298238D02*
X109972449Y-23430927D01*
X109972449Y-23430927D02*
X110070834Y-23624039D01*
X110070834Y-23624039D02*
X110086544Y-23749000D01*
X91451594Y-24998684D02*
X91451594Y-23749005D01*
X91951467Y-23248879D02*
X109586670Y-23248879D01*
X129413000Y-30099000D02*
X167259000Y-30099000D01*
X167259000Y-30099000D02*
X167259000Y-106426000D01*
X53046151Y-28024081D02*
X71807089Y-28023823D01*
X72307211Y-27523949D02*
X72257851Y-27740706D01*
X72257851Y-27740706D02*
X72125163Y-27909726D01*
X72125163Y-27909726D02*
X71932051Y-28008112D01*
X71932051Y-28008112D02*
X71807089Y-28023823D01*
X97663000Y-101854000D02*
X91313000Y-101854000D01*
X72307211Y-27523949D02*
X72307211Y-26025351D01*
X72807084Y-25525477D02*
X84276028Y-25527000D01*
X84455000Y-120904000D02*
X68326000Y-130429000D01*
X84836000Y-119888000D02*
X84455000Y-120904000D01*
X79248000Y-110236000D02*
X84836000Y-119888000D01*
X79502000Y-108712000D02*
X79248000Y-110236000D01*
X84582000Y-105791000D02*
X79502000Y-108712000D01*
X91313000Y-101854000D02*
X84582000Y-105791000D01*
X58166000Y-113919000D02*
X51054000Y-101727000D01*
X67564000Y-130429000D02*
X58166000Y-113919000D01*
X68326000Y-130429000D02*
X67564000Y-130429000D01*
X124714000Y-106426000D02*
X115824000Y-101854000D01*
X143256000Y-106426000D02*
X124714000Y-106426000D01*
X150368000Y-106426000D02*
X143256000Y-106426000D01*
X115824000Y-101854000D02*
X97663000Y-101854000D01*
X110086544Y-25019000D02*
X110086544Y-23749000D01*
X32567595Y-30713525D02*
X52578000Y-30715301D01*
X32067216Y-31213904D02*
X32067216Y-90687945D01*
X32066700Y-31215174D02*
X32116025Y-30998480D01*
X32116025Y-30998480D02*
X32248643Y-30829482D01*
X32248643Y-30829482D02*
X32441668Y-30731061D01*
X32441668Y-30731061D02*
X32566583Y-30715301D01*
X165168000Y-87444000D02*
G75*
G03*
X165168000Y-87444000I-576000J0D01*
G01*
X72839000Y-37211000D02*
G75*
G03*
X72839000Y-37211000I-576000J0D01*
G01*
X165168000Y-49149000D02*
G75*
G03*
X165168000Y-49149000I-576000J0D01*
G01*
X32067216Y-90687945D02*
X32258000Y-91440000D01*
X44391000Y-87122000D02*
G75*
G03*
X44391000Y-87122000I-576000J0D01*
G01*
M02*
