%TF.GenerationSoftware,KiCad,Pcbnew,(5.1.6-0-10_14)*%
%TF.CreationDate,2020-09-29T15:02:50+02:00*%
%TF.ProjectId,bottom-plate,626f7474-6f6d-42d7-906c-6174652e6b69,rev?*%
%TF.SameCoordinates,Original*%
%TF.FileFunction,Legend,Top*%
%TF.FilePolarity,Positive*%
%FSLAX46Y46*%
G04 Gerber Fmt 4.6, Leading zero omitted, Abs format (unit mm)*
G04 Created by KiCad (PCBNEW (5.1.6-0-10_14)) date 2020-09-29 15:02:50*
%MOMM*%
%LPD*%
G01*
G04 APERTURE LIST*
%ADD10C,0.150000*%
G04 APERTURE END LIST*
D10*
X272994761Y-25598380D02*
X272899523Y-25550761D01*
X272851904Y-25455523D01*
X272851904Y-24598380D01*
X273756666Y-25550761D02*
X273661428Y-25598380D01*
X273470952Y-25598380D01*
X273375714Y-25550761D01*
X273328095Y-25455523D01*
X273328095Y-25074571D01*
X273375714Y-24979333D01*
X273470952Y-24931714D01*
X273661428Y-24931714D01*
X273756666Y-24979333D01*
X273804285Y-25074571D01*
X273804285Y-25169809D01*
X273328095Y-25265047D01*
X274090000Y-24931714D02*
X274470952Y-24931714D01*
X274232857Y-25598380D02*
X274232857Y-24741238D01*
X274280476Y-24646000D01*
X274375714Y-24598380D01*
X274470952Y-24598380D01*
X274661428Y-24931714D02*
X275042380Y-24931714D01*
X274804285Y-24598380D02*
X274804285Y-25455523D01*
X274851904Y-25550761D01*
X274947142Y-25598380D01*
X275042380Y-25598380D01*
X276137619Y-24931714D02*
X276137619Y-25931714D01*
X276137619Y-24979333D02*
X276232857Y-24931714D01*
X276423333Y-24931714D01*
X276518571Y-24979333D01*
X276566190Y-25026952D01*
X276613809Y-25122190D01*
X276613809Y-25407904D01*
X276566190Y-25503142D01*
X276518571Y-25550761D01*
X276423333Y-25598380D01*
X276232857Y-25598380D01*
X276137619Y-25550761D01*
X277470952Y-25550761D02*
X277375714Y-25598380D01*
X277185238Y-25598380D01*
X277090000Y-25550761D01*
X277042380Y-25503142D01*
X276994761Y-25407904D01*
X276994761Y-25122190D01*
X277042380Y-25026952D01*
X277090000Y-24979333D01*
X277185238Y-24931714D01*
X277375714Y-24931714D01*
X277470952Y-24979333D01*
X277899523Y-25598380D02*
X277899523Y-24598380D01*
X277899523Y-24979333D02*
X277994761Y-24931714D01*
X278185238Y-24931714D01*
X278280476Y-24979333D01*
X278328095Y-25026952D01*
X278375714Y-25122190D01*
X278375714Y-25407904D01*
X278328095Y-25503142D01*
X278280476Y-25550761D01*
X278185238Y-25598380D01*
X277994761Y-25598380D01*
X277899523Y-25550761D01*
X16851714Y-25852380D02*
X16851714Y-25185714D01*
X16851714Y-25376190D02*
X16899333Y-25280952D01*
X16946952Y-25233333D01*
X17042190Y-25185714D01*
X17137428Y-25185714D01*
X17470761Y-25852380D02*
X17470761Y-25185714D01*
X17470761Y-24852380D02*
X17423142Y-24900000D01*
X17470761Y-24947619D01*
X17518380Y-24900000D01*
X17470761Y-24852380D01*
X17470761Y-24947619D01*
X18375523Y-25185714D02*
X18375523Y-25995238D01*
X18327904Y-26090476D01*
X18280285Y-26138095D01*
X18185047Y-26185714D01*
X18042190Y-26185714D01*
X17946952Y-26138095D01*
X18375523Y-25804761D02*
X18280285Y-25852380D01*
X18089809Y-25852380D01*
X17994571Y-25804761D01*
X17946952Y-25757142D01*
X17899333Y-25661904D01*
X17899333Y-25376190D01*
X17946952Y-25280952D01*
X17994571Y-25233333D01*
X18089809Y-25185714D01*
X18280285Y-25185714D01*
X18375523Y-25233333D01*
X18851714Y-25852380D02*
X18851714Y-24852380D01*
X19280285Y-25852380D02*
X19280285Y-25328571D01*
X19232666Y-25233333D01*
X19137428Y-25185714D01*
X18994571Y-25185714D01*
X18899333Y-25233333D01*
X18851714Y-25280952D01*
X19613619Y-25185714D02*
X19994571Y-25185714D01*
X19756476Y-24852380D02*
X19756476Y-25709523D01*
X19804095Y-25804761D01*
X19899333Y-25852380D01*
X19994571Y-25852380D01*
X21089809Y-25185714D02*
X21089809Y-26185714D01*
X21089809Y-25233333D02*
X21185047Y-25185714D01*
X21375523Y-25185714D01*
X21470761Y-25233333D01*
X21518380Y-25280952D01*
X21566000Y-25376190D01*
X21566000Y-25661904D01*
X21518380Y-25757142D01*
X21470761Y-25804761D01*
X21375523Y-25852380D01*
X21185047Y-25852380D01*
X21089809Y-25804761D01*
X22423142Y-25804761D02*
X22327904Y-25852380D01*
X22137428Y-25852380D01*
X22042190Y-25804761D01*
X21994571Y-25757142D01*
X21946952Y-25661904D01*
X21946952Y-25376190D01*
X21994571Y-25280952D01*
X22042190Y-25233333D01*
X22137428Y-25185714D01*
X22327904Y-25185714D01*
X22423142Y-25233333D01*
X22851714Y-25852380D02*
X22851714Y-24852380D01*
X22851714Y-25233333D02*
X22946952Y-25185714D01*
X23137428Y-25185714D01*
X23232666Y-25233333D01*
X23280285Y-25280952D01*
X23327904Y-25376190D01*
X23327904Y-25661904D01*
X23280285Y-25757142D01*
X23232666Y-25804761D01*
X23137428Y-25852380D01*
X22946952Y-25852380D01*
X22851714Y-25804761D01*
M02*
