%TF.GenerationSoftware,KiCad,Pcbnew,(5.1.6-0-10_14)*%
%TF.CreationDate,2020-10-01T11:44:37+02:00*%
%TF.ProjectId,bottom-plate,626f7474-6f6d-42d7-906c-6174652e6b69,rev?*%
%TF.SameCoordinates,Original*%
%TF.FileFunction,Copper,L2,Bot*%
%TF.FilePolarity,Positive*%
%FSLAX46Y46*%
G04 Gerber Fmt 4.6, Leading zero omitted, Abs format (unit mm)*
G04 Created by KiCad (PCBNEW (5.1.6-0-10_14)) date 2020-10-01 11:44:37*
%MOMM*%
%LPD*%
G01*
G04 APERTURE LIST*
%TA.AperFunction,ComponentPad*%
%ADD10C,4.200000*%
%TD*%
%TA.AperFunction,NonConductor*%
%ADD11C,0.254000*%
%TD*%
G04 APERTURE END LIST*
D10*
%TO.P,Ref\u002A\u002A,*%
%TO.N,*%
X38354000Y-86741000D03*
%TD*%
%TO.P,Ref\u002A\u002A,*%
%TO.N,*%
X148082000Y-49202500D03*
%TD*%
%TO.P,Ref\u002A\u002A,*%
%TO.N,*%
X72224500Y-45702500D03*
%TD*%
%TO.P,Ref\u002A\u002A,*%
%TO.N,*%
X119592500Y-88385000D03*
%TD*%
%TO.P,Ref\u002A\u002A,*%
%TO.N,*%
X70358000Y-87757000D03*
%TD*%
%TO.P,Ref\u002A\u002A,*%
%TO.N,*%
X149393500Y-86367000D03*
%TD*%
D11*
G36*
X109097544Y-25501230D02*
G01*
X109108179Y-25609210D01*
X109111069Y-25618739D01*
X109119102Y-25682375D01*
X109130223Y-25731347D01*
X109138446Y-25780881D01*
X109146073Y-25801144D01*
X109150868Y-25822260D01*
X109171289Y-25868138D01*
X109188977Y-25915133D01*
X109193576Y-25924307D01*
X109292056Y-26117371D01*
X109297847Y-26126417D01*
X109302060Y-26136297D01*
X109336475Y-26186758D01*
X109369395Y-26238183D01*
X109376830Y-26245929D01*
X109382884Y-26254806D01*
X109426451Y-26297627D01*
X109468727Y-26341673D01*
X109477527Y-26347829D01*
X109485188Y-26355359D01*
X109493219Y-26361748D01*
X109662304Y-26494355D01*
X109673734Y-26501639D01*
X109683862Y-26510630D01*
X109734116Y-26540114D01*
X109783278Y-26571440D01*
X109795901Y-26576363D01*
X109807587Y-26583219D01*
X109862631Y-26602387D01*
X109916922Y-26623560D01*
X109930259Y-26625937D01*
X109943055Y-26630393D01*
X109953046Y-26632737D01*
X110169830Y-26681988D01*
X110170918Y-26682125D01*
X110190522Y-26688075D01*
X110298500Y-26698724D01*
X110302325Y-26698724D01*
X110312146Y-26699965D01*
X110329835Y-26698728D01*
X122169342Y-26700247D01*
X122169395Y-26700252D01*
X122210327Y-26700252D01*
X122241510Y-26700256D01*
X122241551Y-26700252D01*
X128297001Y-26700252D01*
X128297000Y-30570886D01*
X128293445Y-30606966D01*
X128297000Y-30643079D01*
X128297000Y-30643104D01*
X128301290Y-30686657D01*
X128307629Y-30751051D01*
X128307633Y-30751064D01*
X128307635Y-30751084D01*
X128328976Y-30821435D01*
X128349650Y-30889600D01*
X128349658Y-30889614D01*
X128349663Y-30889632D01*
X128377847Y-30942360D01*
X128417894Y-31017291D01*
X128417906Y-31017305D01*
X128417913Y-31017319D01*
X128455119Y-31062654D01*
X128509738Y-31129213D01*
X128509751Y-31129224D01*
X128509762Y-31129237D01*
X128575869Y-31183490D01*
X128621652Y-31221067D01*
X128621662Y-31221073D01*
X128621680Y-31221087D01*
X128700629Y-31263286D01*
X128749335Y-31289323D01*
X128749348Y-31289327D01*
X128749367Y-31289337D01*
X128830773Y-31314031D01*
X128887882Y-31331358D01*
X128887897Y-31331359D01*
X128887915Y-31331365D01*
X128967320Y-31339186D01*
X128995861Y-31341998D01*
X128995875Y-31341998D01*
X129032000Y-31345556D01*
X129068091Y-31342001D01*
X166143000Y-31343741D01*
X166143000Y-31405104D01*
X166143002Y-31405121D01*
X166144759Y-105310000D01*
X124629515Y-105310000D01*
X114888320Y-100564290D01*
X114836633Y-100536663D01*
X114788679Y-100522116D01*
X114741718Y-100504699D01*
X114719565Y-100501151D01*
X114698085Y-100494635D01*
X114648216Y-100489723D01*
X114598758Y-100481802D01*
X114540226Y-100484000D01*
X92515353Y-100484000D01*
X92502485Y-100481908D01*
X92443074Y-100484000D01*
X92419895Y-100484000D01*
X92406996Y-100485270D01*
X92357792Y-100487003D01*
X92335111Y-100492350D01*
X92311915Y-100494635D01*
X92264796Y-100508928D01*
X92216873Y-100520227D01*
X92195668Y-100529898D01*
X92173367Y-100536663D01*
X92129940Y-100559875D01*
X92118153Y-100565251D01*
X92098115Y-100576886D01*
X92045680Y-100604913D01*
X92035602Y-100613184D01*
X84215172Y-105154079D01*
X78945249Y-108165464D01*
X78944219Y-108165812D01*
X78882389Y-108201384D01*
X78851990Y-108218755D01*
X78851110Y-108219379D01*
X78818724Y-108238012D01*
X78792218Y-108261186D01*
X78763514Y-108281562D01*
X78737854Y-108308715D01*
X78709725Y-108333308D01*
X78688252Y-108361203D01*
X78664072Y-108386791D01*
X78644201Y-108418431D01*
X78621412Y-108448037D01*
X78605793Y-108479588D01*
X78587071Y-108509399D01*
X78573754Y-108544308D01*
X78557179Y-108577791D01*
X78548017Y-108611778D01*
X78535468Y-108644674D01*
X78529217Y-108681514D01*
X78528937Y-108682553D01*
X78523193Y-108717018D01*
X78511248Y-108787415D01*
X78511279Y-108788502D01*
X78280735Y-110171760D01*
X78280382Y-110172702D01*
X78268865Y-110242981D01*
X78263065Y-110277781D01*
X78262998Y-110278785D01*
X78256968Y-110315579D01*
X78258165Y-110350841D01*
X78255804Y-110386039D01*
X78260614Y-110423012D01*
X78261879Y-110460277D01*
X78269931Y-110494627D01*
X78274483Y-110529611D01*
X78286413Y-110564932D01*
X78294924Y-110601238D01*
X78309525Y-110633361D01*
X78320813Y-110666781D01*
X78339403Y-110699094D01*
X78339822Y-110700015D01*
X78357586Y-110730698D01*
X78393013Y-110792276D01*
X78393674Y-110793032D01*
X83796733Y-120125589D01*
X83689768Y-120553449D01*
X68126129Y-129694000D01*
X67991352Y-129694000D01*
X58820696Y-113583390D01*
X58819069Y-113579841D01*
X58802814Y-113551976D01*
X58786901Y-113524020D01*
X58784653Y-113520842D01*
X51704779Y-101383917D01*
X51702832Y-101379804D01*
X51686575Y-101352709D01*
X51670685Y-101325469D01*
X51668023Y-101321789D01*
X46379234Y-92507141D01*
X46373160Y-92492257D01*
X46342045Y-92445159D01*
X46331681Y-92427886D01*
X46322164Y-92415066D01*
X46293353Y-92371456D01*
X46279088Y-92357041D01*
X46267006Y-92340766D01*
X46228283Y-92305701D01*
X46191514Y-92268546D01*
X46174710Y-92257190D01*
X46159685Y-92243585D01*
X46114864Y-92216748D01*
X46071553Y-92187480D01*
X46052856Y-92179621D01*
X46035467Y-92169209D01*
X45986276Y-92151634D01*
X45938084Y-92131376D01*
X45918211Y-92127315D01*
X45899126Y-92120496D01*
X45847449Y-92112854D01*
X45831778Y-92109652D01*
X45811707Y-92107569D01*
X45755901Y-92099317D01*
X45739854Y-92100113D01*
X32844256Y-90761892D01*
X32802216Y-90596174D01*
X32802216Y-86471626D01*
X35619000Y-86471626D01*
X35619000Y-87010374D01*
X35724105Y-87538770D01*
X35930275Y-88036508D01*
X36229587Y-88484461D01*
X36610539Y-88865413D01*
X37058492Y-89164725D01*
X37556230Y-89370895D01*
X38084626Y-89476000D01*
X38623374Y-89476000D01*
X39151770Y-89370895D01*
X39649508Y-89164725D01*
X40097461Y-88865413D01*
X40478413Y-88484461D01*
X40777725Y-88036508D01*
X40983895Y-87538770D01*
X41089000Y-87010374D01*
X41089000Y-86991539D01*
X42490409Y-86991539D01*
X42490409Y-87252461D01*
X42541312Y-87508369D01*
X42641163Y-87749429D01*
X42786123Y-87966377D01*
X42970623Y-88150877D01*
X43187571Y-88295837D01*
X43428631Y-88395688D01*
X43684539Y-88446591D01*
X43945461Y-88446591D01*
X44201369Y-88395688D01*
X44442429Y-88295837D01*
X44659377Y-88150877D01*
X44843877Y-87966377D01*
X44988837Y-87749429D01*
X45088688Y-87508369D01*
X45092814Y-87487626D01*
X67623000Y-87487626D01*
X67623000Y-88026374D01*
X67728105Y-88554770D01*
X67934275Y-89052508D01*
X68233587Y-89500461D01*
X68614539Y-89881413D01*
X69062492Y-90180725D01*
X69560230Y-90386895D01*
X70088626Y-90492000D01*
X70627374Y-90492000D01*
X71155770Y-90386895D01*
X71653508Y-90180725D01*
X72101461Y-89881413D01*
X72482413Y-89500461D01*
X72781725Y-89052508D01*
X72987895Y-88554770D01*
X73075246Y-88115626D01*
X116857500Y-88115626D01*
X116857500Y-88654374D01*
X116962605Y-89182770D01*
X117168775Y-89680508D01*
X117468087Y-90128461D01*
X117849039Y-90509413D01*
X118296992Y-90808725D01*
X118794730Y-91014895D01*
X119323126Y-91120000D01*
X119861874Y-91120000D01*
X120390270Y-91014895D01*
X120888008Y-90808725D01*
X121335961Y-90509413D01*
X121716913Y-90128461D01*
X122016225Y-89680508D01*
X122222395Y-89182770D01*
X122327500Y-88654374D01*
X122327500Y-88115626D01*
X122222395Y-87587230D01*
X122016225Y-87089492D01*
X121716913Y-86641539D01*
X121335961Y-86260587D01*
X121092073Y-86097626D01*
X146658500Y-86097626D01*
X146658500Y-86636374D01*
X146763605Y-87164770D01*
X146969775Y-87662508D01*
X147269087Y-88110461D01*
X147650039Y-88491413D01*
X148097992Y-88790725D01*
X148595730Y-88996895D01*
X149124126Y-89102000D01*
X149662874Y-89102000D01*
X150191270Y-88996895D01*
X150689008Y-88790725D01*
X151136961Y-88491413D01*
X151517913Y-88110461D01*
X151817225Y-87662508D01*
X151961772Y-87313539D01*
X163267409Y-87313539D01*
X163267409Y-87574461D01*
X163318312Y-87830369D01*
X163418163Y-88071429D01*
X163563123Y-88288377D01*
X163747623Y-88472877D01*
X163964571Y-88617837D01*
X164205631Y-88717688D01*
X164461539Y-88768591D01*
X164722461Y-88768591D01*
X164978369Y-88717688D01*
X165219429Y-88617837D01*
X165436377Y-88472877D01*
X165620877Y-88288377D01*
X165765837Y-88071429D01*
X165865688Y-87830369D01*
X165916591Y-87574461D01*
X165916591Y-87313539D01*
X165865688Y-87057631D01*
X165765837Y-86816571D01*
X165620877Y-86599623D01*
X165436377Y-86415123D01*
X165219429Y-86270163D01*
X164978369Y-86170312D01*
X164722461Y-86119409D01*
X164461539Y-86119409D01*
X164205631Y-86170312D01*
X163964571Y-86270163D01*
X163747623Y-86415123D01*
X163563123Y-86599623D01*
X163418163Y-86816571D01*
X163318312Y-87057631D01*
X163267409Y-87313539D01*
X151961772Y-87313539D01*
X152023395Y-87164770D01*
X152128500Y-86636374D01*
X152128500Y-86097626D01*
X152023395Y-85569230D01*
X151817225Y-85071492D01*
X151517913Y-84623539D01*
X151136961Y-84242587D01*
X150689008Y-83943275D01*
X150191270Y-83737105D01*
X149662874Y-83632000D01*
X149124126Y-83632000D01*
X148595730Y-83737105D01*
X148097992Y-83943275D01*
X147650039Y-84242587D01*
X147269087Y-84623539D01*
X146969775Y-85071492D01*
X146763605Y-85569230D01*
X146658500Y-86097626D01*
X121092073Y-86097626D01*
X120888008Y-85961275D01*
X120390270Y-85755105D01*
X119861874Y-85650000D01*
X119323126Y-85650000D01*
X118794730Y-85755105D01*
X118296992Y-85961275D01*
X117849039Y-86260587D01*
X117468087Y-86641539D01*
X117168775Y-87089492D01*
X116962605Y-87587230D01*
X116857500Y-88115626D01*
X73075246Y-88115626D01*
X73093000Y-88026374D01*
X73093000Y-87487626D01*
X72987895Y-86959230D01*
X72781725Y-86461492D01*
X72482413Y-86013539D01*
X72101461Y-85632587D01*
X71653508Y-85333275D01*
X71155770Y-85127105D01*
X70627374Y-85022000D01*
X70088626Y-85022000D01*
X69560230Y-85127105D01*
X69062492Y-85333275D01*
X68614539Y-85632587D01*
X68233587Y-86013539D01*
X67934275Y-86461492D01*
X67728105Y-86959230D01*
X67623000Y-87487626D01*
X45092814Y-87487626D01*
X45139591Y-87252461D01*
X45139591Y-86991539D01*
X45088688Y-86735631D01*
X44988837Y-86494571D01*
X44843877Y-86277623D01*
X44659377Y-86093123D01*
X44442429Y-85948163D01*
X44201369Y-85848312D01*
X43945461Y-85797409D01*
X43684539Y-85797409D01*
X43428631Y-85848312D01*
X43187571Y-85948163D01*
X42970623Y-86093123D01*
X42786123Y-86277623D01*
X42641163Y-86494571D01*
X42541312Y-86735631D01*
X42490409Y-86991539D01*
X41089000Y-86991539D01*
X41089000Y-86471626D01*
X40983895Y-85943230D01*
X40777725Y-85445492D01*
X40478413Y-84997539D01*
X40097461Y-84616587D01*
X39649508Y-84317275D01*
X39151770Y-84111105D01*
X38623374Y-84006000D01*
X38084626Y-84006000D01*
X37556230Y-84111105D01*
X37058492Y-84317275D01*
X36610539Y-84616587D01*
X36229587Y-84997539D01*
X35930275Y-85445492D01*
X35724105Y-85943230D01*
X35619000Y-86471626D01*
X32802216Y-86471626D01*
X32802216Y-48933126D01*
X145347000Y-48933126D01*
X145347000Y-49471874D01*
X145452105Y-50000270D01*
X145658275Y-50498008D01*
X145957587Y-50945961D01*
X146338539Y-51326913D01*
X146786492Y-51626225D01*
X147284230Y-51832395D01*
X147812626Y-51937500D01*
X148351374Y-51937500D01*
X148879770Y-51832395D01*
X149377508Y-51626225D01*
X149825461Y-51326913D01*
X150206413Y-50945961D01*
X150505725Y-50498008D01*
X150711895Y-50000270D01*
X150817000Y-49471874D01*
X150817000Y-49018539D01*
X163267409Y-49018539D01*
X163267409Y-49279461D01*
X163318312Y-49535369D01*
X163418163Y-49776429D01*
X163563123Y-49993377D01*
X163747623Y-50177877D01*
X163964571Y-50322837D01*
X164205631Y-50422688D01*
X164461539Y-50473591D01*
X164722461Y-50473591D01*
X164978369Y-50422688D01*
X165219429Y-50322837D01*
X165436377Y-50177877D01*
X165620877Y-49993377D01*
X165765837Y-49776429D01*
X165865688Y-49535369D01*
X165916591Y-49279461D01*
X165916591Y-49018539D01*
X165865688Y-48762631D01*
X165765837Y-48521571D01*
X165620877Y-48304623D01*
X165436377Y-48120123D01*
X165219429Y-47975163D01*
X164978369Y-47875312D01*
X164722461Y-47824409D01*
X164461539Y-47824409D01*
X164205631Y-47875312D01*
X163964571Y-47975163D01*
X163747623Y-48120123D01*
X163563123Y-48304623D01*
X163418163Y-48521571D01*
X163318312Y-48762631D01*
X163267409Y-49018539D01*
X150817000Y-49018539D01*
X150817000Y-48933126D01*
X150711895Y-48404730D01*
X150505725Y-47906992D01*
X150206413Y-47459039D01*
X149825461Y-47078087D01*
X149377508Y-46778775D01*
X148879770Y-46572605D01*
X148351374Y-46467500D01*
X147812626Y-46467500D01*
X147284230Y-46572605D01*
X146786492Y-46778775D01*
X146338539Y-47078087D01*
X145957587Y-47459039D01*
X145658275Y-47906992D01*
X145452105Y-48404730D01*
X145347000Y-48933126D01*
X32802216Y-48933126D01*
X32802216Y-45433126D01*
X69489500Y-45433126D01*
X69489500Y-45971874D01*
X69594605Y-46500270D01*
X69800775Y-46998008D01*
X70100087Y-47445961D01*
X70481039Y-47826913D01*
X70928992Y-48126225D01*
X71426730Y-48332395D01*
X71955126Y-48437500D01*
X72493874Y-48437500D01*
X73022270Y-48332395D01*
X73520008Y-48126225D01*
X73967961Y-47826913D01*
X74348913Y-47445961D01*
X74648225Y-46998008D01*
X74854395Y-46500270D01*
X74959500Y-45971874D01*
X74959500Y-45433126D01*
X74854395Y-44904730D01*
X74648225Y-44406992D01*
X74348913Y-43959039D01*
X73967961Y-43578087D01*
X73520008Y-43278775D01*
X73022270Y-43072605D01*
X72493874Y-42967500D01*
X71955126Y-42967500D01*
X71426730Y-43072605D01*
X70928992Y-43278775D01*
X70481039Y-43578087D01*
X70100087Y-43959039D01*
X69800775Y-44406992D01*
X69594605Y-44904730D01*
X69489500Y-45433126D01*
X32802216Y-45433126D01*
X32802216Y-37080539D01*
X70938409Y-37080539D01*
X70938409Y-37341461D01*
X70989312Y-37597369D01*
X71089163Y-37838429D01*
X71234123Y-38055377D01*
X71418623Y-38239877D01*
X71635571Y-38384837D01*
X71876631Y-38484688D01*
X72132539Y-38535591D01*
X72393461Y-38535591D01*
X72649369Y-38484688D01*
X72890429Y-38384837D01*
X73107377Y-38239877D01*
X73291877Y-38055377D01*
X73436837Y-37838429D01*
X73536688Y-37597369D01*
X73587591Y-37341461D01*
X73587591Y-37080539D01*
X73536688Y-36824631D01*
X73436837Y-36583571D01*
X73291877Y-36366623D01*
X73107377Y-36182123D01*
X72890429Y-36037163D01*
X72649369Y-35937312D01*
X72393461Y-35886409D01*
X72132539Y-35886409D01*
X71876631Y-35937312D01*
X71635571Y-36037163D01*
X71418623Y-36182123D01*
X71234123Y-36366623D01*
X71089163Y-36583571D01*
X70989312Y-36824631D01*
X70938409Y-37080539D01*
X32802216Y-37080539D01*
X32802216Y-31448545D01*
X52316557Y-31450301D01*
X52316832Y-31450301D01*
X52352630Y-31450304D01*
X52460611Y-31439678D01*
X52470182Y-31436776D01*
X52533833Y-31428741D01*
X52582802Y-31417620D01*
X52632338Y-31409397D01*
X52652605Y-31401769D01*
X52673718Y-31396974D01*
X52719597Y-31376553D01*
X52766590Y-31358865D01*
X52775764Y-31354266D01*
X52968829Y-31255784D01*
X52977876Y-31249993D01*
X52987750Y-31245782D01*
X53038196Y-31211377D01*
X53089641Y-31178444D01*
X53097388Y-31171008D01*
X53106259Y-31164958D01*
X53149066Y-31121406D01*
X53193131Y-31079111D01*
X53199287Y-31070311D01*
X53206813Y-31062654D01*
X53213202Y-31054624D01*
X53345809Y-30885538D01*
X53353086Y-30874118D01*
X53362073Y-30863996D01*
X53391557Y-30813744D01*
X53422895Y-30764564D01*
X53427817Y-30751942D01*
X53434664Y-30740273D01*
X53453829Y-30685245D01*
X53475015Y-30630920D01*
X53477391Y-30617591D01*
X53481843Y-30604807D01*
X53484187Y-30594816D01*
X53527506Y-30404170D01*
X53540814Y-30360584D01*
X53551645Y-30252623D01*
X53553567Y-29198366D01*
X72368563Y-29200124D01*
X72476544Y-29189499D01*
X72486111Y-29186598D01*
X72549176Y-29178669D01*
X72598165Y-29167569D01*
X72647693Y-29159372D01*
X72667957Y-29151756D01*
X72689077Y-29146971D01*
X72734970Y-29126571D01*
X72781970Y-29108907D01*
X72791146Y-29104313D01*
X72984258Y-29005927D01*
X72993308Y-29000140D01*
X73003189Y-28995932D01*
X73053649Y-28961554D01*
X73105108Y-28928647D01*
X73112863Y-28921211D01*
X73121737Y-28915165D01*
X73164550Y-28871649D01*
X73208647Y-28829365D01*
X73214811Y-28820563D01*
X73222340Y-28812910D01*
X73228733Y-28804883D01*
X73361421Y-28635863D01*
X73368705Y-28624444D01*
X73377700Y-28614323D01*
X73407216Y-28564071D01*
X73438566Y-28514926D01*
X73443493Y-28502311D01*
X73450351Y-28490635D01*
X73469548Y-28435599D01*
X73490751Y-28381308D01*
X73493133Y-28367979D01*
X73497594Y-28355190D01*
X73499942Y-28345201D01*
X73541256Y-28163775D01*
X73558542Y-28106792D01*
X73569177Y-27998812D01*
X73569177Y-26698761D01*
X84259344Y-26700247D01*
X84259395Y-26700252D01*
X84295540Y-26700252D01*
X84331502Y-26700257D01*
X84331553Y-26700252D01*
X91368577Y-26700252D01*
X91476557Y-26689617D01*
X91486094Y-26686724D01*
X91549723Y-26678692D01*
X91598692Y-26667572D01*
X91648236Y-26659346D01*
X91668500Y-26651718D01*
X91689608Y-26646925D01*
X91735485Y-26626505D01*
X91782487Y-26608813D01*
X91791661Y-26604214D01*
X91984725Y-26505730D01*
X91993771Y-26499939D01*
X92003646Y-26495728D01*
X92054087Y-26461325D01*
X92105536Y-26428389D01*
X92113285Y-26420951D01*
X92122154Y-26414902D01*
X92164951Y-26371359D01*
X92209025Y-26329054D01*
X92215182Y-26320252D01*
X92222706Y-26312597D01*
X92229096Y-26304567D01*
X92361701Y-26135480D01*
X92368983Y-26124051D01*
X92377971Y-26113928D01*
X92407453Y-26063678D01*
X92438785Y-26014505D01*
X92443707Y-26001883D01*
X92450560Y-25990203D01*
X92469728Y-25935160D01*
X92490904Y-25880860D01*
X92493280Y-25867528D01*
X92497735Y-25854735D01*
X92500078Y-25844744D01*
X92542864Y-25656420D01*
X92557723Y-25607435D01*
X92568358Y-25499455D01*
X92568358Y-24448292D01*
X109097545Y-24448292D01*
X109097544Y-25501230D01*
G37*
X109097544Y-25501230D02*
X109108179Y-25609210D01*
X109111069Y-25618739D01*
X109119102Y-25682375D01*
X109130223Y-25731347D01*
X109138446Y-25780881D01*
X109146073Y-25801144D01*
X109150868Y-25822260D01*
X109171289Y-25868138D01*
X109188977Y-25915133D01*
X109193576Y-25924307D01*
X109292056Y-26117371D01*
X109297847Y-26126417D01*
X109302060Y-26136297D01*
X109336475Y-26186758D01*
X109369395Y-26238183D01*
X109376830Y-26245929D01*
X109382884Y-26254806D01*
X109426451Y-26297627D01*
X109468727Y-26341673D01*
X109477527Y-26347829D01*
X109485188Y-26355359D01*
X109493219Y-26361748D01*
X109662304Y-26494355D01*
X109673734Y-26501639D01*
X109683862Y-26510630D01*
X109734116Y-26540114D01*
X109783278Y-26571440D01*
X109795901Y-26576363D01*
X109807587Y-26583219D01*
X109862631Y-26602387D01*
X109916922Y-26623560D01*
X109930259Y-26625937D01*
X109943055Y-26630393D01*
X109953046Y-26632737D01*
X110169830Y-26681988D01*
X110170918Y-26682125D01*
X110190522Y-26688075D01*
X110298500Y-26698724D01*
X110302325Y-26698724D01*
X110312146Y-26699965D01*
X110329835Y-26698728D01*
X122169342Y-26700247D01*
X122169395Y-26700252D01*
X122210327Y-26700252D01*
X122241510Y-26700256D01*
X122241551Y-26700252D01*
X128297001Y-26700252D01*
X128297000Y-30570886D01*
X128293445Y-30606966D01*
X128297000Y-30643079D01*
X128297000Y-30643104D01*
X128301290Y-30686657D01*
X128307629Y-30751051D01*
X128307633Y-30751064D01*
X128307635Y-30751084D01*
X128328976Y-30821435D01*
X128349650Y-30889600D01*
X128349658Y-30889614D01*
X128349663Y-30889632D01*
X128377847Y-30942360D01*
X128417894Y-31017291D01*
X128417906Y-31017305D01*
X128417913Y-31017319D01*
X128455119Y-31062654D01*
X128509738Y-31129213D01*
X128509751Y-31129224D01*
X128509762Y-31129237D01*
X128575869Y-31183490D01*
X128621652Y-31221067D01*
X128621662Y-31221073D01*
X128621680Y-31221087D01*
X128700629Y-31263286D01*
X128749335Y-31289323D01*
X128749348Y-31289327D01*
X128749367Y-31289337D01*
X128830773Y-31314031D01*
X128887882Y-31331358D01*
X128887897Y-31331359D01*
X128887915Y-31331365D01*
X128967320Y-31339186D01*
X128995861Y-31341998D01*
X128995875Y-31341998D01*
X129032000Y-31345556D01*
X129068091Y-31342001D01*
X166143000Y-31343741D01*
X166143000Y-31405104D01*
X166143002Y-31405121D01*
X166144759Y-105310000D01*
X124629515Y-105310000D01*
X114888320Y-100564290D01*
X114836633Y-100536663D01*
X114788679Y-100522116D01*
X114741718Y-100504699D01*
X114719565Y-100501151D01*
X114698085Y-100494635D01*
X114648216Y-100489723D01*
X114598758Y-100481802D01*
X114540226Y-100484000D01*
X92515353Y-100484000D01*
X92502485Y-100481908D01*
X92443074Y-100484000D01*
X92419895Y-100484000D01*
X92406996Y-100485270D01*
X92357792Y-100487003D01*
X92335111Y-100492350D01*
X92311915Y-100494635D01*
X92264796Y-100508928D01*
X92216873Y-100520227D01*
X92195668Y-100529898D01*
X92173367Y-100536663D01*
X92129940Y-100559875D01*
X92118153Y-100565251D01*
X92098115Y-100576886D01*
X92045680Y-100604913D01*
X92035602Y-100613184D01*
X84215172Y-105154079D01*
X78945249Y-108165464D01*
X78944219Y-108165812D01*
X78882389Y-108201384D01*
X78851990Y-108218755D01*
X78851110Y-108219379D01*
X78818724Y-108238012D01*
X78792218Y-108261186D01*
X78763514Y-108281562D01*
X78737854Y-108308715D01*
X78709725Y-108333308D01*
X78688252Y-108361203D01*
X78664072Y-108386791D01*
X78644201Y-108418431D01*
X78621412Y-108448037D01*
X78605793Y-108479588D01*
X78587071Y-108509399D01*
X78573754Y-108544308D01*
X78557179Y-108577791D01*
X78548017Y-108611778D01*
X78535468Y-108644674D01*
X78529217Y-108681514D01*
X78528937Y-108682553D01*
X78523193Y-108717018D01*
X78511248Y-108787415D01*
X78511279Y-108788502D01*
X78280735Y-110171760D01*
X78280382Y-110172702D01*
X78268865Y-110242981D01*
X78263065Y-110277781D01*
X78262998Y-110278785D01*
X78256968Y-110315579D01*
X78258165Y-110350841D01*
X78255804Y-110386039D01*
X78260614Y-110423012D01*
X78261879Y-110460277D01*
X78269931Y-110494627D01*
X78274483Y-110529611D01*
X78286413Y-110564932D01*
X78294924Y-110601238D01*
X78309525Y-110633361D01*
X78320813Y-110666781D01*
X78339403Y-110699094D01*
X78339822Y-110700015D01*
X78357586Y-110730698D01*
X78393013Y-110792276D01*
X78393674Y-110793032D01*
X83796733Y-120125589D01*
X83689768Y-120553449D01*
X68126129Y-129694000D01*
X67991352Y-129694000D01*
X58820696Y-113583390D01*
X58819069Y-113579841D01*
X58802814Y-113551976D01*
X58786901Y-113524020D01*
X58784653Y-113520842D01*
X51704779Y-101383917D01*
X51702832Y-101379804D01*
X51686575Y-101352709D01*
X51670685Y-101325469D01*
X51668023Y-101321789D01*
X46379234Y-92507141D01*
X46373160Y-92492257D01*
X46342045Y-92445159D01*
X46331681Y-92427886D01*
X46322164Y-92415066D01*
X46293353Y-92371456D01*
X46279088Y-92357041D01*
X46267006Y-92340766D01*
X46228283Y-92305701D01*
X46191514Y-92268546D01*
X46174710Y-92257190D01*
X46159685Y-92243585D01*
X46114864Y-92216748D01*
X46071553Y-92187480D01*
X46052856Y-92179621D01*
X46035467Y-92169209D01*
X45986276Y-92151634D01*
X45938084Y-92131376D01*
X45918211Y-92127315D01*
X45899126Y-92120496D01*
X45847449Y-92112854D01*
X45831778Y-92109652D01*
X45811707Y-92107569D01*
X45755901Y-92099317D01*
X45739854Y-92100113D01*
X32844256Y-90761892D01*
X32802216Y-90596174D01*
X32802216Y-86471626D01*
X35619000Y-86471626D01*
X35619000Y-87010374D01*
X35724105Y-87538770D01*
X35930275Y-88036508D01*
X36229587Y-88484461D01*
X36610539Y-88865413D01*
X37058492Y-89164725D01*
X37556230Y-89370895D01*
X38084626Y-89476000D01*
X38623374Y-89476000D01*
X39151770Y-89370895D01*
X39649508Y-89164725D01*
X40097461Y-88865413D01*
X40478413Y-88484461D01*
X40777725Y-88036508D01*
X40983895Y-87538770D01*
X41089000Y-87010374D01*
X41089000Y-86991539D01*
X42490409Y-86991539D01*
X42490409Y-87252461D01*
X42541312Y-87508369D01*
X42641163Y-87749429D01*
X42786123Y-87966377D01*
X42970623Y-88150877D01*
X43187571Y-88295837D01*
X43428631Y-88395688D01*
X43684539Y-88446591D01*
X43945461Y-88446591D01*
X44201369Y-88395688D01*
X44442429Y-88295837D01*
X44659377Y-88150877D01*
X44843877Y-87966377D01*
X44988837Y-87749429D01*
X45088688Y-87508369D01*
X45092814Y-87487626D01*
X67623000Y-87487626D01*
X67623000Y-88026374D01*
X67728105Y-88554770D01*
X67934275Y-89052508D01*
X68233587Y-89500461D01*
X68614539Y-89881413D01*
X69062492Y-90180725D01*
X69560230Y-90386895D01*
X70088626Y-90492000D01*
X70627374Y-90492000D01*
X71155770Y-90386895D01*
X71653508Y-90180725D01*
X72101461Y-89881413D01*
X72482413Y-89500461D01*
X72781725Y-89052508D01*
X72987895Y-88554770D01*
X73075246Y-88115626D01*
X116857500Y-88115626D01*
X116857500Y-88654374D01*
X116962605Y-89182770D01*
X117168775Y-89680508D01*
X117468087Y-90128461D01*
X117849039Y-90509413D01*
X118296992Y-90808725D01*
X118794730Y-91014895D01*
X119323126Y-91120000D01*
X119861874Y-91120000D01*
X120390270Y-91014895D01*
X120888008Y-90808725D01*
X121335961Y-90509413D01*
X121716913Y-90128461D01*
X122016225Y-89680508D01*
X122222395Y-89182770D01*
X122327500Y-88654374D01*
X122327500Y-88115626D01*
X122222395Y-87587230D01*
X122016225Y-87089492D01*
X121716913Y-86641539D01*
X121335961Y-86260587D01*
X121092073Y-86097626D01*
X146658500Y-86097626D01*
X146658500Y-86636374D01*
X146763605Y-87164770D01*
X146969775Y-87662508D01*
X147269087Y-88110461D01*
X147650039Y-88491413D01*
X148097992Y-88790725D01*
X148595730Y-88996895D01*
X149124126Y-89102000D01*
X149662874Y-89102000D01*
X150191270Y-88996895D01*
X150689008Y-88790725D01*
X151136961Y-88491413D01*
X151517913Y-88110461D01*
X151817225Y-87662508D01*
X151961772Y-87313539D01*
X163267409Y-87313539D01*
X163267409Y-87574461D01*
X163318312Y-87830369D01*
X163418163Y-88071429D01*
X163563123Y-88288377D01*
X163747623Y-88472877D01*
X163964571Y-88617837D01*
X164205631Y-88717688D01*
X164461539Y-88768591D01*
X164722461Y-88768591D01*
X164978369Y-88717688D01*
X165219429Y-88617837D01*
X165436377Y-88472877D01*
X165620877Y-88288377D01*
X165765837Y-88071429D01*
X165865688Y-87830369D01*
X165916591Y-87574461D01*
X165916591Y-87313539D01*
X165865688Y-87057631D01*
X165765837Y-86816571D01*
X165620877Y-86599623D01*
X165436377Y-86415123D01*
X165219429Y-86270163D01*
X164978369Y-86170312D01*
X164722461Y-86119409D01*
X164461539Y-86119409D01*
X164205631Y-86170312D01*
X163964571Y-86270163D01*
X163747623Y-86415123D01*
X163563123Y-86599623D01*
X163418163Y-86816571D01*
X163318312Y-87057631D01*
X163267409Y-87313539D01*
X151961772Y-87313539D01*
X152023395Y-87164770D01*
X152128500Y-86636374D01*
X152128500Y-86097626D01*
X152023395Y-85569230D01*
X151817225Y-85071492D01*
X151517913Y-84623539D01*
X151136961Y-84242587D01*
X150689008Y-83943275D01*
X150191270Y-83737105D01*
X149662874Y-83632000D01*
X149124126Y-83632000D01*
X148595730Y-83737105D01*
X148097992Y-83943275D01*
X147650039Y-84242587D01*
X147269087Y-84623539D01*
X146969775Y-85071492D01*
X146763605Y-85569230D01*
X146658500Y-86097626D01*
X121092073Y-86097626D01*
X120888008Y-85961275D01*
X120390270Y-85755105D01*
X119861874Y-85650000D01*
X119323126Y-85650000D01*
X118794730Y-85755105D01*
X118296992Y-85961275D01*
X117849039Y-86260587D01*
X117468087Y-86641539D01*
X117168775Y-87089492D01*
X116962605Y-87587230D01*
X116857500Y-88115626D01*
X73075246Y-88115626D01*
X73093000Y-88026374D01*
X73093000Y-87487626D01*
X72987895Y-86959230D01*
X72781725Y-86461492D01*
X72482413Y-86013539D01*
X72101461Y-85632587D01*
X71653508Y-85333275D01*
X71155770Y-85127105D01*
X70627374Y-85022000D01*
X70088626Y-85022000D01*
X69560230Y-85127105D01*
X69062492Y-85333275D01*
X68614539Y-85632587D01*
X68233587Y-86013539D01*
X67934275Y-86461492D01*
X67728105Y-86959230D01*
X67623000Y-87487626D01*
X45092814Y-87487626D01*
X45139591Y-87252461D01*
X45139591Y-86991539D01*
X45088688Y-86735631D01*
X44988837Y-86494571D01*
X44843877Y-86277623D01*
X44659377Y-86093123D01*
X44442429Y-85948163D01*
X44201369Y-85848312D01*
X43945461Y-85797409D01*
X43684539Y-85797409D01*
X43428631Y-85848312D01*
X43187571Y-85948163D01*
X42970623Y-86093123D01*
X42786123Y-86277623D01*
X42641163Y-86494571D01*
X42541312Y-86735631D01*
X42490409Y-86991539D01*
X41089000Y-86991539D01*
X41089000Y-86471626D01*
X40983895Y-85943230D01*
X40777725Y-85445492D01*
X40478413Y-84997539D01*
X40097461Y-84616587D01*
X39649508Y-84317275D01*
X39151770Y-84111105D01*
X38623374Y-84006000D01*
X38084626Y-84006000D01*
X37556230Y-84111105D01*
X37058492Y-84317275D01*
X36610539Y-84616587D01*
X36229587Y-84997539D01*
X35930275Y-85445492D01*
X35724105Y-85943230D01*
X35619000Y-86471626D01*
X32802216Y-86471626D01*
X32802216Y-48933126D01*
X145347000Y-48933126D01*
X145347000Y-49471874D01*
X145452105Y-50000270D01*
X145658275Y-50498008D01*
X145957587Y-50945961D01*
X146338539Y-51326913D01*
X146786492Y-51626225D01*
X147284230Y-51832395D01*
X147812626Y-51937500D01*
X148351374Y-51937500D01*
X148879770Y-51832395D01*
X149377508Y-51626225D01*
X149825461Y-51326913D01*
X150206413Y-50945961D01*
X150505725Y-50498008D01*
X150711895Y-50000270D01*
X150817000Y-49471874D01*
X150817000Y-49018539D01*
X163267409Y-49018539D01*
X163267409Y-49279461D01*
X163318312Y-49535369D01*
X163418163Y-49776429D01*
X163563123Y-49993377D01*
X163747623Y-50177877D01*
X163964571Y-50322837D01*
X164205631Y-50422688D01*
X164461539Y-50473591D01*
X164722461Y-50473591D01*
X164978369Y-50422688D01*
X165219429Y-50322837D01*
X165436377Y-50177877D01*
X165620877Y-49993377D01*
X165765837Y-49776429D01*
X165865688Y-49535369D01*
X165916591Y-49279461D01*
X165916591Y-49018539D01*
X165865688Y-48762631D01*
X165765837Y-48521571D01*
X165620877Y-48304623D01*
X165436377Y-48120123D01*
X165219429Y-47975163D01*
X164978369Y-47875312D01*
X164722461Y-47824409D01*
X164461539Y-47824409D01*
X164205631Y-47875312D01*
X163964571Y-47975163D01*
X163747623Y-48120123D01*
X163563123Y-48304623D01*
X163418163Y-48521571D01*
X163318312Y-48762631D01*
X163267409Y-49018539D01*
X150817000Y-49018539D01*
X150817000Y-48933126D01*
X150711895Y-48404730D01*
X150505725Y-47906992D01*
X150206413Y-47459039D01*
X149825461Y-47078087D01*
X149377508Y-46778775D01*
X148879770Y-46572605D01*
X148351374Y-46467500D01*
X147812626Y-46467500D01*
X147284230Y-46572605D01*
X146786492Y-46778775D01*
X146338539Y-47078087D01*
X145957587Y-47459039D01*
X145658275Y-47906992D01*
X145452105Y-48404730D01*
X145347000Y-48933126D01*
X32802216Y-48933126D01*
X32802216Y-45433126D01*
X69489500Y-45433126D01*
X69489500Y-45971874D01*
X69594605Y-46500270D01*
X69800775Y-46998008D01*
X70100087Y-47445961D01*
X70481039Y-47826913D01*
X70928992Y-48126225D01*
X71426730Y-48332395D01*
X71955126Y-48437500D01*
X72493874Y-48437500D01*
X73022270Y-48332395D01*
X73520008Y-48126225D01*
X73967961Y-47826913D01*
X74348913Y-47445961D01*
X74648225Y-46998008D01*
X74854395Y-46500270D01*
X74959500Y-45971874D01*
X74959500Y-45433126D01*
X74854395Y-44904730D01*
X74648225Y-44406992D01*
X74348913Y-43959039D01*
X73967961Y-43578087D01*
X73520008Y-43278775D01*
X73022270Y-43072605D01*
X72493874Y-42967500D01*
X71955126Y-42967500D01*
X71426730Y-43072605D01*
X70928992Y-43278775D01*
X70481039Y-43578087D01*
X70100087Y-43959039D01*
X69800775Y-44406992D01*
X69594605Y-44904730D01*
X69489500Y-45433126D01*
X32802216Y-45433126D01*
X32802216Y-37080539D01*
X70938409Y-37080539D01*
X70938409Y-37341461D01*
X70989312Y-37597369D01*
X71089163Y-37838429D01*
X71234123Y-38055377D01*
X71418623Y-38239877D01*
X71635571Y-38384837D01*
X71876631Y-38484688D01*
X72132539Y-38535591D01*
X72393461Y-38535591D01*
X72649369Y-38484688D01*
X72890429Y-38384837D01*
X73107377Y-38239877D01*
X73291877Y-38055377D01*
X73436837Y-37838429D01*
X73536688Y-37597369D01*
X73587591Y-37341461D01*
X73587591Y-37080539D01*
X73536688Y-36824631D01*
X73436837Y-36583571D01*
X73291877Y-36366623D01*
X73107377Y-36182123D01*
X72890429Y-36037163D01*
X72649369Y-35937312D01*
X72393461Y-35886409D01*
X72132539Y-35886409D01*
X71876631Y-35937312D01*
X71635571Y-36037163D01*
X71418623Y-36182123D01*
X71234123Y-36366623D01*
X71089163Y-36583571D01*
X70989312Y-36824631D01*
X70938409Y-37080539D01*
X32802216Y-37080539D01*
X32802216Y-31448545D01*
X52316557Y-31450301D01*
X52316832Y-31450301D01*
X52352630Y-31450304D01*
X52460611Y-31439678D01*
X52470182Y-31436776D01*
X52533833Y-31428741D01*
X52582802Y-31417620D01*
X52632338Y-31409397D01*
X52652605Y-31401769D01*
X52673718Y-31396974D01*
X52719597Y-31376553D01*
X52766590Y-31358865D01*
X52775764Y-31354266D01*
X52968829Y-31255784D01*
X52977876Y-31249993D01*
X52987750Y-31245782D01*
X53038196Y-31211377D01*
X53089641Y-31178444D01*
X53097388Y-31171008D01*
X53106259Y-31164958D01*
X53149066Y-31121406D01*
X53193131Y-31079111D01*
X53199287Y-31070311D01*
X53206813Y-31062654D01*
X53213202Y-31054624D01*
X53345809Y-30885538D01*
X53353086Y-30874118D01*
X53362073Y-30863996D01*
X53391557Y-30813744D01*
X53422895Y-30764564D01*
X53427817Y-30751942D01*
X53434664Y-30740273D01*
X53453829Y-30685245D01*
X53475015Y-30630920D01*
X53477391Y-30617591D01*
X53481843Y-30604807D01*
X53484187Y-30594816D01*
X53527506Y-30404170D01*
X53540814Y-30360584D01*
X53551645Y-30252623D01*
X53553567Y-29198366D01*
X72368563Y-29200124D01*
X72476544Y-29189499D01*
X72486111Y-29186598D01*
X72549176Y-29178669D01*
X72598165Y-29167569D01*
X72647693Y-29159372D01*
X72667957Y-29151756D01*
X72689077Y-29146971D01*
X72734970Y-29126571D01*
X72781970Y-29108907D01*
X72791146Y-29104313D01*
X72984258Y-29005927D01*
X72993308Y-29000140D01*
X73003189Y-28995932D01*
X73053649Y-28961554D01*
X73105108Y-28928647D01*
X73112863Y-28921211D01*
X73121737Y-28915165D01*
X73164550Y-28871649D01*
X73208647Y-28829365D01*
X73214811Y-28820563D01*
X73222340Y-28812910D01*
X73228733Y-28804883D01*
X73361421Y-28635863D01*
X73368705Y-28624444D01*
X73377700Y-28614323D01*
X73407216Y-28564071D01*
X73438566Y-28514926D01*
X73443493Y-28502311D01*
X73450351Y-28490635D01*
X73469548Y-28435599D01*
X73490751Y-28381308D01*
X73493133Y-28367979D01*
X73497594Y-28355190D01*
X73499942Y-28345201D01*
X73541256Y-28163775D01*
X73558542Y-28106792D01*
X73569177Y-27998812D01*
X73569177Y-26698761D01*
X84259344Y-26700247D01*
X84259395Y-26700252D01*
X84295540Y-26700252D01*
X84331502Y-26700257D01*
X84331553Y-26700252D01*
X91368577Y-26700252D01*
X91476557Y-26689617D01*
X91486094Y-26686724D01*
X91549723Y-26678692D01*
X91598692Y-26667572D01*
X91648236Y-26659346D01*
X91668500Y-26651718D01*
X91689608Y-26646925D01*
X91735485Y-26626505D01*
X91782487Y-26608813D01*
X91791661Y-26604214D01*
X91984725Y-26505730D01*
X91993771Y-26499939D01*
X92003646Y-26495728D01*
X92054087Y-26461325D01*
X92105536Y-26428389D01*
X92113285Y-26420951D01*
X92122154Y-26414902D01*
X92164951Y-26371359D01*
X92209025Y-26329054D01*
X92215182Y-26320252D01*
X92222706Y-26312597D01*
X92229096Y-26304567D01*
X92361701Y-26135480D01*
X92368983Y-26124051D01*
X92377971Y-26113928D01*
X92407453Y-26063678D01*
X92438785Y-26014505D01*
X92443707Y-26001883D01*
X92450560Y-25990203D01*
X92469728Y-25935160D01*
X92490904Y-25880860D01*
X92493280Y-25867528D01*
X92497735Y-25854735D01*
X92500078Y-25844744D01*
X92542864Y-25656420D01*
X92557723Y-25607435D01*
X92568358Y-25499455D01*
X92568358Y-24448292D01*
X109097545Y-24448292D01*
X109097544Y-25501230D01*
M02*
