%TF.GenerationSoftware,KiCad,Pcbnew,(5.1.6-0-10_14)*%
%TF.CreationDate,2020-09-29T15:02:50+02:00*%
%TF.ProjectId,bottom-plate,626f7474-6f6d-42d7-906c-6174652e6b69,rev?*%
%TF.SameCoordinates,Original*%
%TF.FileFunction,Legend,Bot*%
%TF.FilePolarity,Positive*%
%FSLAX46Y46*%
G04 Gerber Fmt 4.6, Leading zero omitted, Abs format (unit mm)*
G04 Created by KiCad (PCBNEW (5.1.6-0-10_14)) date 2020-09-29 15:02:50*
%MOMM*%
%LPD*%
G01*
G04 APERTURE LIST*
%ADD10C,0.125000*%
%ADD11C,0.010000*%
G04 APERTURE END LIST*
D10*
X143270083Y-88288761D02*
X143365321Y-88336380D01*
X143555797Y-88336380D01*
X143651035Y-88288761D01*
X143698654Y-88241142D01*
X143746273Y-88145904D01*
X143746273Y-87860190D01*
X143698654Y-87764952D01*
X143651035Y-87717333D01*
X143555797Y-87669714D01*
X143365321Y-87669714D01*
X143270083Y-87717333D01*
X142698654Y-88336380D02*
X142793892Y-88288761D01*
X142841511Y-88241142D01*
X142889130Y-88145904D01*
X142889130Y-87860190D01*
X142841511Y-87764952D01*
X142793892Y-87717333D01*
X142698654Y-87669714D01*
X142555797Y-87669714D01*
X142460559Y-87717333D01*
X142412940Y-87764952D01*
X142365321Y-87860190D01*
X142365321Y-88145904D01*
X142412940Y-88241142D01*
X142460559Y-88288761D01*
X142555797Y-88336380D01*
X142698654Y-88336380D01*
X141936750Y-88336380D02*
X141936750Y-87669714D01*
X141936750Y-87860190D02*
X141889130Y-87764952D01*
X141841511Y-87717333D01*
X141746273Y-87669714D01*
X141651035Y-87669714D01*
X141317702Y-87669714D02*
X141317702Y-88336380D01*
X141317702Y-87764952D02*
X141270083Y-87717333D01*
X141174845Y-87669714D01*
X141031988Y-87669714D01*
X140936750Y-87717333D01*
X140889130Y-87812571D01*
X140889130Y-88336380D01*
X140031988Y-88288761D02*
X140127226Y-88336380D01*
X140317702Y-88336380D01*
X140412940Y-88288761D01*
X140460559Y-88193523D01*
X140460559Y-87812571D01*
X140412940Y-87717333D01*
X140317702Y-87669714D01*
X140127226Y-87669714D01*
X140031988Y-87717333D01*
X139984369Y-87812571D01*
X139984369Y-87907809D01*
X140460559Y-88003047D01*
X139698654Y-87669714D02*
X139317702Y-87669714D01*
X139555797Y-87336380D02*
X139555797Y-88193523D01*
X139508178Y-88288761D01*
X139412940Y-88336380D01*
X139317702Y-88336380D01*
X138984369Y-88336380D02*
X138984369Y-87669714D01*
X138984369Y-87860190D02*
X138936750Y-87764952D01*
X138889130Y-87717333D01*
X138793892Y-87669714D01*
X138698654Y-87669714D01*
X137936750Y-88336380D02*
X137936750Y-87812571D01*
X137984369Y-87717333D01*
X138079607Y-87669714D01*
X138270083Y-87669714D01*
X138365321Y-87717333D01*
X137936750Y-88288761D02*
X138031988Y-88336380D01*
X138270083Y-88336380D01*
X138365321Y-88288761D01*
X138412940Y-88193523D01*
X138412940Y-88098285D01*
X138365321Y-88003047D01*
X138270083Y-87955428D01*
X138031988Y-87955428D01*
X137936750Y-87907809D01*
X137031988Y-88288761D02*
X137127226Y-88336380D01*
X137317702Y-88336380D01*
X137412940Y-88288761D01*
X137460559Y-88241142D01*
X137508178Y-88145904D01*
X137508178Y-87860190D01*
X137460559Y-87764952D01*
X137412940Y-87717333D01*
X137317702Y-87669714D01*
X137127226Y-87669714D01*
X137031988Y-87717333D01*
X136603416Y-88336380D02*
X136603416Y-87336380D01*
X136508178Y-87955428D02*
X136222464Y-88336380D01*
X136222464Y-87669714D02*
X136603416Y-88050666D01*
X135031988Y-87669714D02*
X135031988Y-88669714D01*
X135031988Y-87717333D02*
X134936750Y-87669714D01*
X134746273Y-87669714D01*
X134651035Y-87717333D01*
X134603416Y-87764952D01*
X134555797Y-87860190D01*
X134555797Y-88145904D01*
X134603416Y-88241142D01*
X134651035Y-88288761D01*
X134746273Y-88336380D01*
X134936750Y-88336380D01*
X135031988Y-88288761D01*
X133698654Y-88288761D02*
X133793892Y-88336380D01*
X133984369Y-88336380D01*
X134079607Y-88288761D01*
X134127226Y-88241142D01*
X134174845Y-88145904D01*
X134174845Y-87860190D01*
X134127226Y-87764952D01*
X134079607Y-87717333D01*
X133984369Y-87669714D01*
X133793892Y-87669714D01*
X133698654Y-87717333D01*
X133270083Y-88336380D02*
X133270083Y-87336380D01*
X133270083Y-87717333D02*
X133174845Y-87669714D01*
X132984369Y-87669714D01*
X132889130Y-87717333D01*
X132841511Y-87764952D01*
X132793892Y-87860190D01*
X132793892Y-88145904D01*
X132841511Y-88241142D01*
X132889130Y-88288761D01*
X132984369Y-88336380D01*
X133174845Y-88336380D01*
X133270083Y-88288761D01*
X131603416Y-87955428D02*
X130841511Y-87955428D01*
X129174845Y-88336380D02*
X129174845Y-87336380D01*
X129174845Y-88288761D02*
X129270083Y-88336380D01*
X129460559Y-88336380D01*
X129555797Y-88288761D01*
X129603416Y-88241142D01*
X129651035Y-88145904D01*
X129651035Y-87860190D01*
X129603416Y-87764952D01*
X129555797Y-87717333D01*
X129460559Y-87669714D01*
X129270083Y-87669714D01*
X129174845Y-87717333D01*
X128317702Y-88288761D02*
X128412940Y-88336380D01*
X128603416Y-88336380D01*
X128698654Y-88288761D01*
X128746273Y-88193523D01*
X128746273Y-87812571D01*
X128698654Y-87717333D01*
X128603416Y-87669714D01*
X128412940Y-87669714D01*
X128317702Y-87717333D01*
X128270083Y-87812571D01*
X128270083Y-87907809D01*
X128746273Y-88003047D01*
X127889130Y-88288761D02*
X127793892Y-88336380D01*
X127603416Y-88336380D01*
X127508178Y-88288761D01*
X127460559Y-88193523D01*
X127460559Y-88145904D01*
X127508178Y-88050666D01*
X127603416Y-88003047D01*
X127746273Y-88003047D01*
X127841511Y-87955428D01*
X127889130Y-87860190D01*
X127889130Y-87812571D01*
X127841511Y-87717333D01*
X127746273Y-87669714D01*
X127603416Y-87669714D01*
X127508178Y-87717333D01*
X127031988Y-88336380D02*
X127031988Y-87669714D01*
X127031988Y-87336380D02*
X127079607Y-87384000D01*
X127031988Y-87431619D01*
X126984369Y-87384000D01*
X127031988Y-87336380D01*
X127031988Y-87431619D01*
X126127226Y-87669714D02*
X126127226Y-88479238D01*
X126174845Y-88574476D01*
X126222464Y-88622095D01*
X126317702Y-88669714D01*
X126460559Y-88669714D01*
X126555797Y-88622095D01*
X126127226Y-88288761D02*
X126222464Y-88336380D01*
X126412940Y-88336380D01*
X126508178Y-88288761D01*
X126555797Y-88241142D01*
X126603416Y-88145904D01*
X126603416Y-87860190D01*
X126555797Y-87764952D01*
X126508178Y-87717333D01*
X126412940Y-87669714D01*
X126222464Y-87669714D01*
X126127226Y-87717333D01*
X125651035Y-87669714D02*
X125651035Y-88336380D01*
X125651035Y-87764952D02*
X125603416Y-87717333D01*
X125508178Y-87669714D01*
X125365321Y-87669714D01*
X125270083Y-87717333D01*
X125222464Y-87812571D01*
X125222464Y-88336380D01*
X124365321Y-88288761D02*
X124460559Y-88336380D01*
X124651035Y-88336380D01*
X124746273Y-88288761D01*
X124793892Y-88193523D01*
X124793892Y-87812571D01*
X124746273Y-87717333D01*
X124651035Y-87669714D01*
X124460559Y-87669714D01*
X124365321Y-87717333D01*
X124317702Y-87812571D01*
X124317702Y-87907809D01*
X124793892Y-88003047D01*
X123460559Y-88336380D02*
X123460559Y-87336380D01*
X123460559Y-88288761D02*
X123555797Y-88336380D01*
X123746273Y-88336380D01*
X123841511Y-88288761D01*
X123889130Y-88241142D01*
X123936750Y-88145904D01*
X123936750Y-87860190D01*
X123889130Y-87764952D01*
X123841511Y-87717333D01*
X123746273Y-87669714D01*
X123555797Y-87669714D01*
X123460559Y-87717333D01*
X122222464Y-88336380D02*
X122222464Y-87336380D01*
X122222464Y-87717333D02*
X122127226Y-87669714D01*
X121936750Y-87669714D01*
X121841511Y-87717333D01*
X121793892Y-87764952D01*
X121746273Y-87860190D01*
X121746273Y-88145904D01*
X121793892Y-88241142D01*
X121841511Y-88288761D01*
X121936750Y-88336380D01*
X122127226Y-88336380D01*
X122222464Y-88288761D01*
X121412940Y-87669714D02*
X121174845Y-88336380D01*
X120936750Y-87669714D02*
X121174845Y-88336380D01*
X121270083Y-88574476D01*
X121317702Y-88622095D01*
X121412940Y-88669714D01*
X119793892Y-87669714D02*
X119793892Y-88526857D01*
X119841511Y-88622095D01*
X119936750Y-88669714D01*
X119984369Y-88669714D01*
X119793892Y-87336380D02*
X119841511Y-87384000D01*
X119793892Y-87431619D01*
X119746273Y-87384000D01*
X119793892Y-87336380D01*
X119793892Y-87431619D01*
X118889130Y-88336380D02*
X118889130Y-87812571D01*
X118936750Y-87717333D01*
X119031988Y-87669714D01*
X119222464Y-87669714D01*
X119317702Y-87717333D01*
X118889130Y-88288761D02*
X118984369Y-88336380D01*
X119222464Y-88336380D01*
X119317702Y-88288761D01*
X119365321Y-88193523D01*
X119365321Y-88098285D01*
X119317702Y-88003047D01*
X119222464Y-87955428D01*
X118984369Y-87955428D01*
X118889130Y-87907809D01*
X118412940Y-87669714D02*
X118412940Y-88336380D01*
X118412940Y-87764952D02*
X118365321Y-87717333D01*
X118270083Y-87669714D01*
X118127226Y-87669714D01*
X118031988Y-87717333D01*
X117984369Y-87812571D01*
X117984369Y-88336380D01*
X117508178Y-87669714D02*
X117508178Y-88336380D01*
X117508178Y-87764952D02*
X117460559Y-87717333D01*
X117365321Y-87669714D01*
X117222464Y-87669714D01*
X117127226Y-87717333D01*
X117079607Y-87812571D01*
X117079607Y-88336380D01*
X116603416Y-88336380D02*
X116603416Y-87669714D01*
X116603416Y-87336380D02*
X116651035Y-87384000D01*
X116603416Y-87431619D01*
X116555797Y-87384000D01*
X116603416Y-87336380D01*
X116603416Y-87431619D01*
X116127226Y-88336380D02*
X116127226Y-87336380D01*
X116031988Y-87955428D02*
X115746273Y-88336380D01*
X115746273Y-87669714D02*
X116127226Y-88050666D01*
X115412940Y-87669714D02*
X115222464Y-88336380D01*
X115031988Y-87860190D01*
X114841511Y-88336380D01*
X114651035Y-87669714D01*
X114270083Y-88336380D02*
X114270083Y-87669714D01*
X114270083Y-87336380D02*
X114317702Y-87384000D01*
X114270083Y-87431619D01*
X114222464Y-87384000D01*
X114270083Y-87336380D01*
X114270083Y-87431619D01*
X113793892Y-88336380D02*
X113793892Y-87336380D01*
X113793892Y-87717333D02*
X113698654Y-87669714D01*
X113508178Y-87669714D01*
X113412940Y-87717333D01*
X113365321Y-87764952D01*
X113317702Y-87860190D01*
X113317702Y-88145904D01*
X113365321Y-88241142D01*
X113412940Y-88288761D01*
X113508178Y-88336380D01*
X113698654Y-88336380D01*
X113793892Y-88288761D01*
X112889130Y-88336380D02*
X112889130Y-87336380D01*
X112793892Y-87955428D02*
X112508178Y-88336380D01*
X112508178Y-87669714D02*
X112889130Y-88050666D01*
X111698654Y-88288761D02*
X111793892Y-88336380D01*
X111984369Y-88336380D01*
X112079607Y-88288761D01*
X112127226Y-88193523D01*
X112127226Y-87812571D01*
X112079607Y-87717333D01*
X111984369Y-87669714D01*
X111793892Y-87669714D01*
X111698654Y-87717333D01*
X111651035Y-87812571D01*
X111651035Y-87907809D01*
X112127226Y-88003047D01*
X111222464Y-88336380D02*
X111222464Y-87669714D01*
X111222464Y-87860190D02*
X111174845Y-87764952D01*
X111127226Y-87717333D01*
X111031988Y-87669714D01*
X110936750Y-87669714D01*
X185688083Y-88288761D02*
X185783321Y-88336380D01*
X185973797Y-88336380D01*
X186069035Y-88288761D01*
X186116654Y-88241142D01*
X186164273Y-88145904D01*
X186164273Y-87860190D01*
X186116654Y-87764952D01*
X186069035Y-87717333D01*
X185973797Y-87669714D01*
X185783321Y-87669714D01*
X185688083Y-87717333D01*
X185116654Y-88336380D02*
X185211892Y-88288761D01*
X185259511Y-88241142D01*
X185307130Y-88145904D01*
X185307130Y-87860190D01*
X185259511Y-87764952D01*
X185211892Y-87717333D01*
X185116654Y-87669714D01*
X184973797Y-87669714D01*
X184878559Y-87717333D01*
X184830940Y-87764952D01*
X184783321Y-87860190D01*
X184783321Y-88145904D01*
X184830940Y-88241142D01*
X184878559Y-88288761D01*
X184973797Y-88336380D01*
X185116654Y-88336380D01*
X184354750Y-88336380D02*
X184354750Y-87669714D01*
X184354750Y-87860190D02*
X184307130Y-87764952D01*
X184259511Y-87717333D01*
X184164273Y-87669714D01*
X184069035Y-87669714D01*
X183735702Y-87669714D02*
X183735702Y-88336380D01*
X183735702Y-87764952D02*
X183688083Y-87717333D01*
X183592845Y-87669714D01*
X183449988Y-87669714D01*
X183354750Y-87717333D01*
X183307130Y-87812571D01*
X183307130Y-88336380D01*
X182449988Y-88288761D02*
X182545226Y-88336380D01*
X182735702Y-88336380D01*
X182830940Y-88288761D01*
X182878559Y-88193523D01*
X182878559Y-87812571D01*
X182830940Y-87717333D01*
X182735702Y-87669714D01*
X182545226Y-87669714D01*
X182449988Y-87717333D01*
X182402369Y-87812571D01*
X182402369Y-87907809D01*
X182878559Y-88003047D01*
X182116654Y-87669714D02*
X181735702Y-87669714D01*
X181973797Y-87336380D02*
X181973797Y-88193523D01*
X181926178Y-88288761D01*
X181830940Y-88336380D01*
X181735702Y-88336380D01*
X181402369Y-88336380D02*
X181402369Y-87669714D01*
X181402369Y-87860190D02*
X181354750Y-87764952D01*
X181307130Y-87717333D01*
X181211892Y-87669714D01*
X181116654Y-87669714D01*
X180354750Y-88336380D02*
X180354750Y-87812571D01*
X180402369Y-87717333D01*
X180497607Y-87669714D01*
X180688083Y-87669714D01*
X180783321Y-87717333D01*
X180354750Y-88288761D02*
X180449988Y-88336380D01*
X180688083Y-88336380D01*
X180783321Y-88288761D01*
X180830940Y-88193523D01*
X180830940Y-88098285D01*
X180783321Y-88003047D01*
X180688083Y-87955428D01*
X180449988Y-87955428D01*
X180354750Y-87907809D01*
X179449988Y-88288761D02*
X179545226Y-88336380D01*
X179735702Y-88336380D01*
X179830940Y-88288761D01*
X179878559Y-88241142D01*
X179926178Y-88145904D01*
X179926178Y-87860190D01*
X179878559Y-87764952D01*
X179830940Y-87717333D01*
X179735702Y-87669714D01*
X179545226Y-87669714D01*
X179449988Y-87717333D01*
X179021416Y-88336380D02*
X179021416Y-87336380D01*
X178926178Y-87955428D02*
X178640464Y-88336380D01*
X178640464Y-87669714D02*
X179021416Y-88050666D01*
X177449988Y-87669714D02*
X177449988Y-88669714D01*
X177449988Y-87717333D02*
X177354750Y-87669714D01*
X177164273Y-87669714D01*
X177069035Y-87717333D01*
X177021416Y-87764952D01*
X176973797Y-87860190D01*
X176973797Y-88145904D01*
X177021416Y-88241142D01*
X177069035Y-88288761D01*
X177164273Y-88336380D01*
X177354750Y-88336380D01*
X177449988Y-88288761D01*
X176116654Y-88288761D02*
X176211892Y-88336380D01*
X176402369Y-88336380D01*
X176497607Y-88288761D01*
X176545226Y-88241142D01*
X176592845Y-88145904D01*
X176592845Y-87860190D01*
X176545226Y-87764952D01*
X176497607Y-87717333D01*
X176402369Y-87669714D01*
X176211892Y-87669714D01*
X176116654Y-87717333D01*
X175688083Y-88336380D02*
X175688083Y-87336380D01*
X175688083Y-87717333D02*
X175592845Y-87669714D01*
X175402369Y-87669714D01*
X175307130Y-87717333D01*
X175259511Y-87764952D01*
X175211892Y-87860190D01*
X175211892Y-88145904D01*
X175259511Y-88241142D01*
X175307130Y-88288761D01*
X175402369Y-88336380D01*
X175592845Y-88336380D01*
X175688083Y-88288761D01*
X174021416Y-87955428D02*
X173259511Y-87955428D01*
X171592845Y-88336380D02*
X171592845Y-87336380D01*
X171592845Y-88288761D02*
X171688083Y-88336380D01*
X171878559Y-88336380D01*
X171973797Y-88288761D01*
X172021416Y-88241142D01*
X172069035Y-88145904D01*
X172069035Y-87860190D01*
X172021416Y-87764952D01*
X171973797Y-87717333D01*
X171878559Y-87669714D01*
X171688083Y-87669714D01*
X171592845Y-87717333D01*
X170735702Y-88288761D02*
X170830940Y-88336380D01*
X171021416Y-88336380D01*
X171116654Y-88288761D01*
X171164273Y-88193523D01*
X171164273Y-87812571D01*
X171116654Y-87717333D01*
X171021416Y-87669714D01*
X170830940Y-87669714D01*
X170735702Y-87717333D01*
X170688083Y-87812571D01*
X170688083Y-87907809D01*
X171164273Y-88003047D01*
X170307130Y-88288761D02*
X170211892Y-88336380D01*
X170021416Y-88336380D01*
X169926178Y-88288761D01*
X169878559Y-88193523D01*
X169878559Y-88145904D01*
X169926178Y-88050666D01*
X170021416Y-88003047D01*
X170164273Y-88003047D01*
X170259511Y-87955428D01*
X170307130Y-87860190D01*
X170307130Y-87812571D01*
X170259511Y-87717333D01*
X170164273Y-87669714D01*
X170021416Y-87669714D01*
X169926178Y-87717333D01*
X169449988Y-88336380D02*
X169449988Y-87669714D01*
X169449988Y-87336380D02*
X169497607Y-87384000D01*
X169449988Y-87431619D01*
X169402369Y-87384000D01*
X169449988Y-87336380D01*
X169449988Y-87431619D01*
X168545226Y-87669714D02*
X168545226Y-88479238D01*
X168592845Y-88574476D01*
X168640464Y-88622095D01*
X168735702Y-88669714D01*
X168878559Y-88669714D01*
X168973797Y-88622095D01*
X168545226Y-88288761D02*
X168640464Y-88336380D01*
X168830940Y-88336380D01*
X168926178Y-88288761D01*
X168973797Y-88241142D01*
X169021416Y-88145904D01*
X169021416Y-87860190D01*
X168973797Y-87764952D01*
X168926178Y-87717333D01*
X168830940Y-87669714D01*
X168640464Y-87669714D01*
X168545226Y-87717333D01*
X168069035Y-87669714D02*
X168069035Y-88336380D01*
X168069035Y-87764952D02*
X168021416Y-87717333D01*
X167926178Y-87669714D01*
X167783321Y-87669714D01*
X167688083Y-87717333D01*
X167640464Y-87812571D01*
X167640464Y-88336380D01*
X166783321Y-88288761D02*
X166878559Y-88336380D01*
X167069035Y-88336380D01*
X167164273Y-88288761D01*
X167211892Y-88193523D01*
X167211892Y-87812571D01*
X167164273Y-87717333D01*
X167069035Y-87669714D01*
X166878559Y-87669714D01*
X166783321Y-87717333D01*
X166735702Y-87812571D01*
X166735702Y-87907809D01*
X167211892Y-88003047D01*
X165878559Y-88336380D02*
X165878559Y-87336380D01*
X165878559Y-88288761D02*
X165973797Y-88336380D01*
X166164273Y-88336380D01*
X166259511Y-88288761D01*
X166307130Y-88241142D01*
X166354750Y-88145904D01*
X166354750Y-87860190D01*
X166307130Y-87764952D01*
X166259511Y-87717333D01*
X166164273Y-87669714D01*
X165973797Y-87669714D01*
X165878559Y-87717333D01*
X164640464Y-88336380D02*
X164640464Y-87336380D01*
X164640464Y-87717333D02*
X164545226Y-87669714D01*
X164354750Y-87669714D01*
X164259511Y-87717333D01*
X164211892Y-87764952D01*
X164164273Y-87860190D01*
X164164273Y-88145904D01*
X164211892Y-88241142D01*
X164259511Y-88288761D01*
X164354750Y-88336380D01*
X164545226Y-88336380D01*
X164640464Y-88288761D01*
X163830940Y-87669714D02*
X163592845Y-88336380D01*
X163354750Y-87669714D02*
X163592845Y-88336380D01*
X163688083Y-88574476D01*
X163735702Y-88622095D01*
X163830940Y-88669714D01*
X162211892Y-87669714D02*
X162211892Y-88526857D01*
X162259511Y-88622095D01*
X162354750Y-88669714D01*
X162402369Y-88669714D01*
X162211892Y-87336380D02*
X162259511Y-87384000D01*
X162211892Y-87431619D01*
X162164273Y-87384000D01*
X162211892Y-87336380D01*
X162211892Y-87431619D01*
X161307130Y-88336380D02*
X161307130Y-87812571D01*
X161354750Y-87717333D01*
X161449988Y-87669714D01*
X161640464Y-87669714D01*
X161735702Y-87717333D01*
X161307130Y-88288761D02*
X161402369Y-88336380D01*
X161640464Y-88336380D01*
X161735702Y-88288761D01*
X161783321Y-88193523D01*
X161783321Y-88098285D01*
X161735702Y-88003047D01*
X161640464Y-87955428D01*
X161402369Y-87955428D01*
X161307130Y-87907809D01*
X160830940Y-87669714D02*
X160830940Y-88336380D01*
X160830940Y-87764952D02*
X160783321Y-87717333D01*
X160688083Y-87669714D01*
X160545226Y-87669714D01*
X160449988Y-87717333D01*
X160402369Y-87812571D01*
X160402369Y-88336380D01*
X159926178Y-87669714D02*
X159926178Y-88336380D01*
X159926178Y-87764952D02*
X159878559Y-87717333D01*
X159783321Y-87669714D01*
X159640464Y-87669714D01*
X159545226Y-87717333D01*
X159497607Y-87812571D01*
X159497607Y-88336380D01*
X159021416Y-88336380D02*
X159021416Y-87669714D01*
X159021416Y-87336380D02*
X159069035Y-87384000D01*
X159021416Y-87431619D01*
X158973797Y-87384000D01*
X159021416Y-87336380D01*
X159021416Y-87431619D01*
X158545226Y-88336380D02*
X158545226Y-87336380D01*
X158449988Y-87955428D02*
X158164273Y-88336380D01*
X158164273Y-87669714D02*
X158545226Y-88050666D01*
X157830940Y-87669714D02*
X157640464Y-88336380D01*
X157449988Y-87860190D01*
X157259511Y-88336380D01*
X157069035Y-87669714D01*
X156688083Y-88336380D02*
X156688083Y-87669714D01*
X156688083Y-87336380D02*
X156735702Y-87384000D01*
X156688083Y-87431619D01*
X156640464Y-87384000D01*
X156688083Y-87336380D01*
X156688083Y-87431619D01*
X156211892Y-88336380D02*
X156211892Y-87336380D01*
X156211892Y-87717333D02*
X156116654Y-87669714D01*
X155926178Y-87669714D01*
X155830940Y-87717333D01*
X155783321Y-87764952D01*
X155735702Y-87860190D01*
X155735702Y-88145904D01*
X155783321Y-88241142D01*
X155830940Y-88288761D01*
X155926178Y-88336380D01*
X156116654Y-88336380D01*
X156211892Y-88288761D01*
X155307130Y-88336380D02*
X155307130Y-87336380D01*
X155211892Y-87955428D02*
X154926178Y-88336380D01*
X154926178Y-87669714D02*
X155307130Y-88050666D01*
X154116654Y-88288761D02*
X154211892Y-88336380D01*
X154402369Y-88336380D01*
X154497607Y-88288761D01*
X154545226Y-88193523D01*
X154545226Y-87812571D01*
X154497607Y-87717333D01*
X154402369Y-87669714D01*
X154211892Y-87669714D01*
X154116654Y-87717333D01*
X154069035Y-87812571D01*
X154069035Y-87907809D01*
X154545226Y-88003047D01*
X153640464Y-88336380D02*
X153640464Y-87669714D01*
X153640464Y-87860190D02*
X153592845Y-87764952D01*
X153545226Y-87717333D01*
X153449988Y-87669714D01*
X153354750Y-87669714D01*
D11*
%TO.C,G\u002A\u002A\u002A*%
G36*
X160826491Y-96871209D02*
G01*
X160920575Y-96867549D01*
X160990990Y-96858545D01*
X161051301Y-96841819D01*
X161115070Y-96814995D01*
X161169251Y-96788829D01*
X161340298Y-96680487D01*
X161473548Y-96541327D01*
X161570879Y-96368622D01*
X161634168Y-96159646D01*
X161645575Y-96097200D01*
X161652864Y-96026230D01*
X161659403Y-95913475D01*
X161664903Y-95767951D01*
X161669074Y-95598670D01*
X161671627Y-95414647D01*
X161672308Y-95265350D01*
X161672500Y-94598600D01*
X161240700Y-94598600D01*
X161240700Y-95317890D01*
X161240093Y-95546543D01*
X161238100Y-95730242D01*
X161234463Y-95874823D01*
X161228922Y-95986118D01*
X161221219Y-96069963D01*
X161211095Y-96132191D01*
X161203197Y-96163466D01*
X161138437Y-96301693D01*
X161037530Y-96404894D01*
X160902103Y-96472016D01*
X160733780Y-96502001D01*
X160679312Y-96503600D01*
X160516841Y-96493183D01*
X160386862Y-96458306D01*
X160274764Y-96393528D01*
X160194860Y-96323274D01*
X160140673Y-96266269D01*
X160097291Y-96210499D01*
X160063523Y-96149635D01*
X160038179Y-96077348D01*
X160020067Y-95987311D01*
X160007996Y-95873195D01*
X160000777Y-95728673D01*
X159997217Y-95547415D01*
X159996126Y-95323093D01*
X159996100Y-95267090D01*
X159996100Y-94598600D01*
X159564300Y-94598600D01*
X159564300Y-96859200D01*
X159996100Y-96859200D01*
X159996100Y-96601293D01*
X160078364Y-96683558D01*
X160164752Y-96759164D01*
X160255455Y-96812431D01*
X160361478Y-96846718D01*
X160493824Y-96865384D01*
X160663495Y-96871789D01*
X160695174Y-96871900D01*
X160826491Y-96871209D01*
G37*
X160826491Y-96871209D02*
X160920575Y-96867549D01*
X160990990Y-96858545D01*
X161051301Y-96841819D01*
X161115070Y-96814995D01*
X161169251Y-96788829D01*
X161340298Y-96680487D01*
X161473548Y-96541327D01*
X161570879Y-96368622D01*
X161634168Y-96159646D01*
X161645575Y-96097200D01*
X161652864Y-96026230D01*
X161659403Y-95913475D01*
X161664903Y-95767951D01*
X161669074Y-95598670D01*
X161671627Y-95414647D01*
X161672308Y-95265350D01*
X161672500Y-94598600D01*
X161240700Y-94598600D01*
X161240700Y-95317890D01*
X161240093Y-95546543D01*
X161238100Y-95730242D01*
X161234463Y-95874823D01*
X161228922Y-95986118D01*
X161221219Y-96069963D01*
X161211095Y-96132191D01*
X161203197Y-96163466D01*
X161138437Y-96301693D01*
X161037530Y-96404894D01*
X160902103Y-96472016D01*
X160733780Y-96502001D01*
X160679312Y-96503600D01*
X160516841Y-96493183D01*
X160386862Y-96458306D01*
X160274764Y-96393528D01*
X160194860Y-96323274D01*
X160140673Y-96266269D01*
X160097291Y-96210499D01*
X160063523Y-96149635D01*
X160038179Y-96077348D01*
X160020067Y-95987311D01*
X160007996Y-95873195D01*
X160000777Y-95728673D01*
X159997217Y-95547415D01*
X159996126Y-95323093D01*
X159996100Y-95267090D01*
X159996100Y-94598600D01*
X159564300Y-94598600D01*
X159564300Y-96859200D01*
X159996100Y-96859200D01*
X159996100Y-96601293D01*
X160078364Y-96683558D01*
X160164752Y-96759164D01*
X160255455Y-96812431D01*
X160361478Y-96846718D01*
X160493824Y-96865384D01*
X160663495Y-96871789D01*
X160695174Y-96871900D01*
X160826491Y-96871209D01*
G36*
X159164237Y-96894564D02*
G01*
X159310300Y-96878039D01*
X159310300Y-96507271D01*
X159176950Y-96520932D01*
X158992851Y-96515861D01*
X158823452Y-96464078D01*
X158674881Y-96368944D01*
X158553266Y-96233821D01*
X158504389Y-96152131D01*
X158421300Y-95991162D01*
X158421300Y-94598600D01*
X157989500Y-94598600D01*
X157989500Y-96861255D01*
X158199050Y-96853878D01*
X158408600Y-96846500D01*
X158434000Y-96624642D01*
X158484769Y-96681054D01*
X158602946Y-96777643D01*
X158754798Y-96848733D01*
X158928042Y-96890464D01*
X159110390Y-96898975D01*
X159164237Y-96894564D01*
G37*
X159164237Y-96894564D02*
X159310300Y-96878039D01*
X159310300Y-96507271D01*
X159176950Y-96520932D01*
X158992851Y-96515861D01*
X158823452Y-96464078D01*
X158674881Y-96368944D01*
X158553266Y-96233821D01*
X158504389Y-96152131D01*
X158421300Y-95991162D01*
X158421300Y-94598600D01*
X157989500Y-94598600D01*
X157989500Y-96861255D01*
X158199050Y-96853878D01*
X158408600Y-96846500D01*
X158434000Y-96624642D01*
X158484769Y-96681054D01*
X158602946Y-96777643D01*
X158754798Y-96848733D01*
X158928042Y-96890464D01*
X159110390Y-96898975D01*
X159164237Y-96894564D01*
G36*
X163358530Y-96861594D02*
G01*
X163580894Y-96795295D01*
X163779133Y-96689787D01*
X163949079Y-96549153D01*
X164086559Y-96377476D01*
X164187404Y-96178838D01*
X164247443Y-95957322D01*
X164263300Y-95761664D01*
X164263300Y-95614600D01*
X162358300Y-95614600D01*
X162358300Y-95541502D01*
X162381217Y-95418351D01*
X162444655Y-95290828D01*
X162540643Y-95169702D01*
X162661211Y-95065744D01*
X162750388Y-95011761D01*
X162886242Y-94960353D01*
X163046904Y-94935317D01*
X163059872Y-94934404D01*
X163242129Y-94936873D01*
X163395803Y-94973671D01*
X163533495Y-95049386D01*
X163648193Y-95148581D01*
X163784013Y-95284400D01*
X163987268Y-95284400D01*
X164087811Y-95283754D01*
X164147033Y-95279878D01*
X164174410Y-95269867D01*
X164179419Y-95250818D01*
X164173730Y-95227250D01*
X164135417Y-95141602D01*
X164070499Y-95038914D01*
X163990774Y-94935394D01*
X163908044Y-94847254D01*
X163877857Y-94820827D01*
X163678990Y-94691227D01*
X163456302Y-94601763D01*
X163219596Y-94554491D01*
X162978673Y-94551465D01*
X162767357Y-94587996D01*
X162546245Y-94672121D01*
X162351425Y-94795977D01*
X162187825Y-94954446D01*
X162060374Y-95142410D01*
X161974001Y-95354751D01*
X161954844Y-95431701D01*
X161924308Y-95681758D01*
X161938041Y-95921339D01*
X161950222Y-95970200D01*
X162359557Y-95970200D01*
X163082828Y-95970200D01*
X163295414Y-95970472D01*
X163462499Y-95971479D01*
X163589379Y-95973506D01*
X163681351Y-95976842D01*
X163743712Y-95981771D01*
X163781759Y-95988580D01*
X163800788Y-95997556D01*
X163806097Y-96008986D01*
X163806100Y-96009312D01*
X163785723Y-96091242D01*
X163731025Y-96186827D01*
X163651652Y-96284278D01*
X163557248Y-96371805D01*
X163457461Y-96437617D01*
X163454403Y-96439174D01*
X163315347Y-96486723D01*
X163151233Y-96507986D01*
X162980428Y-96503040D01*
X162821298Y-96471961D01*
X162729560Y-96436156D01*
X162583026Y-96334514D01*
X162464149Y-96193203D01*
X162383765Y-96033873D01*
X162359557Y-95970200D01*
X161950222Y-95970200D01*
X161993867Y-96145265D01*
X162089606Y-96348357D01*
X162223079Y-96525437D01*
X162392108Y-96671328D01*
X162504999Y-96739311D01*
X162699603Y-96823254D01*
X162896926Y-96870099D01*
X163116213Y-96884600D01*
X163358530Y-96861594D01*
G37*
X163358530Y-96861594D02*
X163580894Y-96795295D01*
X163779133Y-96689787D01*
X163949079Y-96549153D01*
X164086559Y-96377476D01*
X164187404Y-96178838D01*
X164247443Y-95957322D01*
X164263300Y-95761664D01*
X164263300Y-95614600D01*
X162358300Y-95614600D01*
X162358300Y-95541502D01*
X162381217Y-95418351D01*
X162444655Y-95290828D01*
X162540643Y-95169702D01*
X162661211Y-95065744D01*
X162750388Y-95011761D01*
X162886242Y-94960353D01*
X163046904Y-94935317D01*
X163059872Y-94934404D01*
X163242129Y-94936873D01*
X163395803Y-94973671D01*
X163533495Y-95049386D01*
X163648193Y-95148581D01*
X163784013Y-95284400D01*
X163987268Y-95284400D01*
X164087811Y-95283754D01*
X164147033Y-95279878D01*
X164174410Y-95269867D01*
X164179419Y-95250818D01*
X164173730Y-95227250D01*
X164135417Y-95141602D01*
X164070499Y-95038914D01*
X163990774Y-94935394D01*
X163908044Y-94847254D01*
X163877857Y-94820827D01*
X163678990Y-94691227D01*
X163456302Y-94601763D01*
X163219596Y-94554491D01*
X162978673Y-94551465D01*
X162767357Y-94587996D01*
X162546245Y-94672121D01*
X162351425Y-94795977D01*
X162187825Y-94954446D01*
X162060374Y-95142410D01*
X161974001Y-95354751D01*
X161954844Y-95431701D01*
X161924308Y-95681758D01*
X161938041Y-95921339D01*
X161950222Y-95970200D01*
X162359557Y-95970200D01*
X163082828Y-95970200D01*
X163295414Y-95970472D01*
X163462499Y-95971479D01*
X163589379Y-95973506D01*
X163681351Y-95976842D01*
X163743712Y-95981771D01*
X163781759Y-95988580D01*
X163800788Y-95997556D01*
X163806097Y-96008986D01*
X163806100Y-96009312D01*
X163785723Y-96091242D01*
X163731025Y-96186827D01*
X163651652Y-96284278D01*
X163557248Y-96371805D01*
X163457461Y-96437617D01*
X163454403Y-96439174D01*
X163315347Y-96486723D01*
X163151233Y-96507986D01*
X162980428Y-96503040D01*
X162821298Y-96471961D01*
X162729560Y-96436156D01*
X162583026Y-96334514D01*
X162464149Y-96193203D01*
X162383765Y-96033873D01*
X162359557Y-95970200D01*
X161950222Y-95970200D01*
X161993867Y-96145265D01*
X162089606Y-96348357D01*
X162223079Y-96525437D01*
X162392108Y-96671328D01*
X162504999Y-96739311D01*
X162699603Y-96823254D01*
X162896926Y-96870099D01*
X163116213Y-96884600D01*
X163358530Y-96861594D01*
G36*
X156566986Y-96878160D02*
G01*
X156820440Y-96842889D01*
X157048525Y-96766193D01*
X157248175Y-96650135D01*
X157416325Y-96496778D01*
X157549908Y-96308184D01*
X157614456Y-96173400D01*
X157646018Y-96059295D01*
X157666285Y-95911629D01*
X157675030Y-95746420D01*
X157672025Y-95579687D01*
X157657043Y-95427449D01*
X157629856Y-95305725D01*
X157626905Y-95297100D01*
X157530519Y-95099828D01*
X157391275Y-94923426D01*
X157214679Y-94773231D01*
X157006241Y-94654579D01*
X156931340Y-94623230D01*
X156799321Y-94586981D01*
X156636335Y-94563533D01*
X156460781Y-94553713D01*
X156291060Y-94558350D01*
X156145574Y-94578271D01*
X156112753Y-94586401D01*
X155898853Y-94668599D01*
X155704121Y-94786907D01*
X155537155Y-94934365D01*
X155406556Y-95104014D01*
X155355682Y-95199105D01*
X155317337Y-95301898D01*
X155283151Y-95426124D01*
X155263099Y-95529372D01*
X155255748Y-95670776D01*
X155680074Y-95670776D01*
X155694409Y-95523134D01*
X155714541Y-95441793D01*
X155767794Y-95329059D01*
X155848195Y-95213667D01*
X155942178Y-95112298D01*
X156036174Y-95041635D01*
X156042958Y-95037980D01*
X156239698Y-94961882D01*
X156444689Y-94931537D01*
X156648104Y-94947757D01*
X156760664Y-94978532D01*
X156937944Y-95065653D01*
X157082410Y-95189323D01*
X157189587Y-95345659D01*
X157194020Y-95354534D01*
X157247010Y-95510599D01*
X157268993Y-95687702D01*
X157259639Y-95866983D01*
X157218621Y-96029579D01*
X157206289Y-96059100D01*
X157108958Y-96218094D01*
X156981261Y-96342908D01*
X156830564Y-96433377D01*
X156664236Y-96489334D01*
X156489642Y-96510614D01*
X156314149Y-96497051D01*
X156145124Y-96448478D01*
X155989934Y-96364730D01*
X155855945Y-96245640D01*
X155750965Y-96091899D01*
X155709419Y-95974193D01*
X155685433Y-95827474D01*
X155680074Y-95670776D01*
X155255748Y-95670776D01*
X155250238Y-95776764D01*
X155282650Y-96011307D01*
X155357850Y-96227948D01*
X155473357Y-96421635D01*
X155626687Y-96587313D01*
X155815360Y-96719931D01*
X155859419Y-96743197D01*
X156033705Y-96817947D01*
X156205030Y-96862719D01*
X156390905Y-96880853D01*
X156566986Y-96878160D01*
G37*
X156566986Y-96878160D02*
X156820440Y-96842889D01*
X157048525Y-96766193D01*
X157248175Y-96650135D01*
X157416325Y-96496778D01*
X157549908Y-96308184D01*
X157614456Y-96173400D01*
X157646018Y-96059295D01*
X157666285Y-95911629D01*
X157675030Y-95746420D01*
X157672025Y-95579687D01*
X157657043Y-95427449D01*
X157629856Y-95305725D01*
X157626905Y-95297100D01*
X157530519Y-95099828D01*
X157391275Y-94923426D01*
X157214679Y-94773231D01*
X157006241Y-94654579D01*
X156931340Y-94623230D01*
X156799321Y-94586981D01*
X156636335Y-94563533D01*
X156460781Y-94553713D01*
X156291060Y-94558350D01*
X156145574Y-94578271D01*
X156112753Y-94586401D01*
X155898853Y-94668599D01*
X155704121Y-94786907D01*
X155537155Y-94934365D01*
X155406556Y-95104014D01*
X155355682Y-95199105D01*
X155317337Y-95301898D01*
X155283151Y-95426124D01*
X155263099Y-95529372D01*
X155255748Y-95670776D01*
X155680074Y-95670776D01*
X155694409Y-95523134D01*
X155714541Y-95441793D01*
X155767794Y-95329059D01*
X155848195Y-95213667D01*
X155942178Y-95112298D01*
X156036174Y-95041635D01*
X156042958Y-95037980D01*
X156239698Y-94961882D01*
X156444689Y-94931537D01*
X156648104Y-94947757D01*
X156760664Y-94978532D01*
X156937944Y-95065653D01*
X157082410Y-95189323D01*
X157189587Y-95345659D01*
X157194020Y-95354534D01*
X157247010Y-95510599D01*
X157268993Y-95687702D01*
X157259639Y-95866983D01*
X157218621Y-96029579D01*
X157206289Y-96059100D01*
X157108958Y-96218094D01*
X156981261Y-96342908D01*
X156830564Y-96433377D01*
X156664236Y-96489334D01*
X156489642Y-96510614D01*
X156314149Y-96497051D01*
X156145124Y-96448478D01*
X155989934Y-96364730D01*
X155855945Y-96245640D01*
X155750965Y-96091899D01*
X155709419Y-95974193D01*
X155685433Y-95827474D01*
X155680074Y-95670776D01*
X155255748Y-95670776D01*
X155250238Y-95776764D01*
X155282650Y-96011307D01*
X155357850Y-96227948D01*
X155473357Y-96421635D01*
X155626687Y-96587313D01*
X155815360Y-96719931D01*
X155859419Y-96743197D01*
X156033705Y-96817947D01*
X156205030Y-96862719D01*
X156390905Y-96880853D01*
X156566986Y-96878160D01*
G36*
X154184049Y-96864012D02*
G01*
X154298748Y-96837898D01*
X154519850Y-96747361D01*
X154711293Y-96620964D01*
X154868222Y-96463012D01*
X154985782Y-96277812D01*
X155020437Y-96197746D01*
X155054464Y-96104269D01*
X155066083Y-96045239D01*
X155048798Y-96012739D01*
X154996112Y-95998851D01*
X154901529Y-95995657D01*
X154854569Y-95995600D01*
X154640639Y-95995601D01*
X154609733Y-96089246D01*
X154543143Y-96215106D01*
X154436638Y-96326497D01*
X154300463Y-96416988D01*
X154144864Y-96480146D01*
X153980085Y-96509539D01*
X153938199Y-96510858D01*
X153755869Y-96488090D01*
X153585565Y-96423779D01*
X153436016Y-96323911D01*
X153315953Y-96194474D01*
X153234105Y-96041453D01*
X153227907Y-96023733D01*
X153194356Y-95865076D01*
X153188573Y-95689598D01*
X153209259Y-95515673D01*
X153255113Y-95361678D01*
X153278175Y-95313469D01*
X153383904Y-95162862D01*
X153518779Y-95050697D01*
X153666102Y-94979085D01*
X153844789Y-94936074D01*
X154024259Y-94936227D01*
X154196072Y-94976215D01*
X154351790Y-95052709D01*
X154482974Y-95162378D01*
X154581184Y-95301894D01*
X154602767Y-95348611D01*
X154649400Y-95462010D01*
X154858950Y-95462105D01*
X154961668Y-95461439D01*
X155023784Y-95457380D01*
X155055495Y-95447008D01*
X155066997Y-95427406D01*
X155068500Y-95402113D01*
X155052975Y-95327098D01*
X155011424Y-95227219D01*
X154951378Y-95115748D01*
X154880369Y-95005959D01*
X154805929Y-94911124D01*
X154767038Y-94870881D01*
X154587264Y-94735869D01*
X154378407Y-94635189D01*
X154151560Y-94572087D01*
X153917818Y-94549806D01*
X153722300Y-94565336D01*
X153529087Y-94616057D01*
X153341451Y-94699123D01*
X153171760Y-94807140D01*
X153032383Y-94932711D01*
X152965489Y-95017835D01*
X152884160Y-95152159D01*
X152828270Y-95277113D01*
X152793691Y-95407862D01*
X152776293Y-95559570D01*
X152771914Y-95728900D01*
X152773419Y-95869806D01*
X152779121Y-95973812D01*
X152790798Y-96054764D01*
X152810230Y-96126506D01*
X152829851Y-96179803D01*
X152935497Y-96379457D01*
X153081762Y-96555974D01*
X153260876Y-96701684D01*
X153465069Y-96808915D01*
X153468300Y-96810198D01*
X153624283Y-96854086D01*
X153808255Y-96878108D01*
X154001187Y-96881628D01*
X154184049Y-96864012D01*
G37*
X154184049Y-96864012D02*
X154298748Y-96837898D01*
X154519850Y-96747361D01*
X154711293Y-96620964D01*
X154868222Y-96463012D01*
X154985782Y-96277812D01*
X155020437Y-96197746D01*
X155054464Y-96104269D01*
X155066083Y-96045239D01*
X155048798Y-96012739D01*
X154996112Y-95998851D01*
X154901529Y-95995657D01*
X154854569Y-95995600D01*
X154640639Y-95995601D01*
X154609733Y-96089246D01*
X154543143Y-96215106D01*
X154436638Y-96326497D01*
X154300463Y-96416988D01*
X154144864Y-96480146D01*
X153980085Y-96509539D01*
X153938199Y-96510858D01*
X153755869Y-96488090D01*
X153585565Y-96423779D01*
X153436016Y-96323911D01*
X153315953Y-96194474D01*
X153234105Y-96041453D01*
X153227907Y-96023733D01*
X153194356Y-95865076D01*
X153188573Y-95689598D01*
X153209259Y-95515673D01*
X153255113Y-95361678D01*
X153278175Y-95313469D01*
X153383904Y-95162862D01*
X153518779Y-95050697D01*
X153666102Y-94979085D01*
X153844789Y-94936074D01*
X154024259Y-94936227D01*
X154196072Y-94976215D01*
X154351790Y-95052709D01*
X154482974Y-95162378D01*
X154581184Y-95301894D01*
X154602767Y-95348611D01*
X154649400Y-95462010D01*
X154858950Y-95462105D01*
X154961668Y-95461439D01*
X155023784Y-95457380D01*
X155055495Y-95447008D01*
X155066997Y-95427406D01*
X155068500Y-95402113D01*
X155052975Y-95327098D01*
X155011424Y-95227219D01*
X154951378Y-95115748D01*
X154880369Y-95005959D01*
X154805929Y-94911124D01*
X154767038Y-94870881D01*
X154587264Y-94735869D01*
X154378407Y-94635189D01*
X154151560Y-94572087D01*
X153917818Y-94549806D01*
X153722300Y-94565336D01*
X153529087Y-94616057D01*
X153341451Y-94699123D01*
X153171760Y-94807140D01*
X153032383Y-94932711D01*
X152965489Y-95017835D01*
X152884160Y-95152159D01*
X152828270Y-95277113D01*
X152793691Y-95407862D01*
X152776293Y-95559570D01*
X152771914Y-95728900D01*
X152773419Y-95869806D01*
X152779121Y-95973812D01*
X152790798Y-96054764D01*
X152810230Y-96126506D01*
X152829851Y-96179803D01*
X152935497Y-96379457D01*
X153081762Y-96555974D01*
X153260876Y-96701684D01*
X153465069Y-96808915D01*
X153468300Y-96810198D01*
X153624283Y-96854086D01*
X153808255Y-96878108D01*
X154001187Y-96881628D01*
X154184049Y-96864012D01*
G36*
X136289509Y-94540791D02*
G01*
X136195425Y-94544451D01*
X136125010Y-94553455D01*
X136064699Y-94570181D01*
X136000930Y-94597005D01*
X135946749Y-94623171D01*
X135775702Y-94731513D01*
X135642452Y-94870673D01*
X135545121Y-95043378D01*
X135481832Y-95252354D01*
X135470425Y-95314800D01*
X135463136Y-95385770D01*
X135456597Y-95498525D01*
X135451097Y-95644049D01*
X135446926Y-95813330D01*
X135444373Y-95997353D01*
X135443692Y-96146650D01*
X135443500Y-96813400D01*
X135875300Y-96813400D01*
X135875300Y-96094110D01*
X135875907Y-95865457D01*
X135877900Y-95681758D01*
X135881537Y-95537177D01*
X135887078Y-95425882D01*
X135894781Y-95342037D01*
X135904905Y-95279809D01*
X135912803Y-95248534D01*
X135977563Y-95110307D01*
X136078470Y-95007106D01*
X136213897Y-94939984D01*
X136382220Y-94909999D01*
X136436688Y-94908400D01*
X136599159Y-94918817D01*
X136729138Y-94953694D01*
X136841236Y-95018472D01*
X136921140Y-95088726D01*
X136975327Y-95145731D01*
X137018709Y-95201501D01*
X137052477Y-95262365D01*
X137077821Y-95334652D01*
X137095933Y-95424689D01*
X137108004Y-95538805D01*
X137115223Y-95683327D01*
X137118783Y-95864585D01*
X137119874Y-96088907D01*
X137119900Y-96144910D01*
X137119900Y-96813400D01*
X137551700Y-96813400D01*
X137551700Y-94552800D01*
X137119900Y-94552800D01*
X137119900Y-94810707D01*
X137037636Y-94728442D01*
X136951248Y-94652836D01*
X136860545Y-94599569D01*
X136754522Y-94565282D01*
X136622176Y-94546616D01*
X136452505Y-94540211D01*
X136420826Y-94540100D01*
X136289509Y-94540791D01*
G37*
X136289509Y-94540791D02*
X136195425Y-94544451D01*
X136125010Y-94553455D01*
X136064699Y-94570181D01*
X136000930Y-94597005D01*
X135946749Y-94623171D01*
X135775702Y-94731513D01*
X135642452Y-94870673D01*
X135545121Y-95043378D01*
X135481832Y-95252354D01*
X135470425Y-95314800D01*
X135463136Y-95385770D01*
X135456597Y-95498525D01*
X135451097Y-95644049D01*
X135446926Y-95813330D01*
X135444373Y-95997353D01*
X135443692Y-96146650D01*
X135443500Y-96813400D01*
X135875300Y-96813400D01*
X135875300Y-96094110D01*
X135875907Y-95865457D01*
X135877900Y-95681758D01*
X135881537Y-95537177D01*
X135887078Y-95425882D01*
X135894781Y-95342037D01*
X135904905Y-95279809D01*
X135912803Y-95248534D01*
X135977563Y-95110307D01*
X136078470Y-95007106D01*
X136213897Y-94939984D01*
X136382220Y-94909999D01*
X136436688Y-94908400D01*
X136599159Y-94918817D01*
X136729138Y-94953694D01*
X136841236Y-95018472D01*
X136921140Y-95088726D01*
X136975327Y-95145731D01*
X137018709Y-95201501D01*
X137052477Y-95262365D01*
X137077821Y-95334652D01*
X137095933Y-95424689D01*
X137108004Y-95538805D01*
X137115223Y-95683327D01*
X137118783Y-95864585D01*
X137119874Y-96088907D01*
X137119900Y-96144910D01*
X137119900Y-96813400D01*
X137551700Y-96813400D01*
X137551700Y-94552800D01*
X137119900Y-94552800D01*
X137119900Y-94810707D01*
X137037636Y-94728442D01*
X136951248Y-94652836D01*
X136860545Y-94599569D01*
X136754522Y-94565282D01*
X136622176Y-94546616D01*
X136452505Y-94540211D01*
X136420826Y-94540100D01*
X136289509Y-94540791D01*
G36*
X137951763Y-94517436D02*
G01*
X137805700Y-94533961D01*
X137805700Y-94904729D01*
X137939050Y-94891068D01*
X138123149Y-94896139D01*
X138292548Y-94947922D01*
X138441119Y-95043056D01*
X138562734Y-95178179D01*
X138611611Y-95259869D01*
X138694700Y-95420838D01*
X138694700Y-96813400D01*
X139126500Y-96813400D01*
X139126500Y-94550745D01*
X138916950Y-94558122D01*
X138707400Y-94565500D01*
X138682000Y-94787358D01*
X138631231Y-94730946D01*
X138513054Y-94634357D01*
X138361202Y-94563267D01*
X138187958Y-94521536D01*
X138005610Y-94513025D01*
X137951763Y-94517436D01*
G37*
X137951763Y-94517436D02*
X137805700Y-94533961D01*
X137805700Y-94904729D01*
X137939050Y-94891068D01*
X138123149Y-94896139D01*
X138292548Y-94947922D01*
X138441119Y-95043056D01*
X138562734Y-95178179D01*
X138611611Y-95259869D01*
X138694700Y-95420838D01*
X138694700Y-96813400D01*
X139126500Y-96813400D01*
X139126500Y-94550745D01*
X138916950Y-94558122D01*
X138707400Y-94565500D01*
X138682000Y-94787358D01*
X138631231Y-94730946D01*
X138513054Y-94634357D01*
X138361202Y-94563267D01*
X138187958Y-94521536D01*
X138005610Y-94513025D01*
X137951763Y-94517436D01*
G36*
X133757470Y-94550406D02*
G01*
X133535106Y-94616705D01*
X133336867Y-94722213D01*
X133166921Y-94862847D01*
X133029441Y-95034524D01*
X132928596Y-95233162D01*
X132868557Y-95454678D01*
X132852700Y-95650336D01*
X132852700Y-95797400D01*
X134757700Y-95797400D01*
X134757700Y-95870498D01*
X134734783Y-95993649D01*
X134671345Y-96121172D01*
X134575357Y-96242298D01*
X134454789Y-96346256D01*
X134365612Y-96400239D01*
X134229758Y-96451647D01*
X134069096Y-96476683D01*
X134056128Y-96477596D01*
X133873871Y-96475127D01*
X133720197Y-96438329D01*
X133582505Y-96362614D01*
X133467807Y-96263419D01*
X133331987Y-96127600D01*
X133128732Y-96127600D01*
X133028189Y-96128246D01*
X132968967Y-96132122D01*
X132941590Y-96142133D01*
X132936581Y-96161182D01*
X132942270Y-96184750D01*
X132980583Y-96270398D01*
X133045501Y-96373086D01*
X133125226Y-96476606D01*
X133207956Y-96564746D01*
X133238143Y-96591173D01*
X133437010Y-96720773D01*
X133659698Y-96810237D01*
X133896404Y-96857509D01*
X134137327Y-96860535D01*
X134348643Y-96824004D01*
X134569755Y-96739879D01*
X134764575Y-96616023D01*
X134928175Y-96457554D01*
X135055626Y-96269590D01*
X135141999Y-96057249D01*
X135161156Y-95980299D01*
X135191692Y-95730242D01*
X135177959Y-95490661D01*
X135165778Y-95441800D01*
X134756443Y-95441800D01*
X134033172Y-95441800D01*
X133820586Y-95441528D01*
X133653501Y-95440521D01*
X133526621Y-95438494D01*
X133434649Y-95435158D01*
X133372288Y-95430229D01*
X133334241Y-95423420D01*
X133315212Y-95414444D01*
X133309903Y-95403014D01*
X133309900Y-95402688D01*
X133330277Y-95320758D01*
X133384975Y-95225173D01*
X133464348Y-95127722D01*
X133558752Y-95040195D01*
X133658539Y-94974383D01*
X133661597Y-94972826D01*
X133800653Y-94925277D01*
X133964767Y-94904014D01*
X134135572Y-94908960D01*
X134294702Y-94940039D01*
X134386440Y-94975844D01*
X134532974Y-95077486D01*
X134651851Y-95218797D01*
X134732235Y-95378127D01*
X134756443Y-95441800D01*
X135165778Y-95441800D01*
X135122133Y-95266735D01*
X135026394Y-95063643D01*
X134892921Y-94886563D01*
X134723892Y-94740672D01*
X134611001Y-94672689D01*
X134416397Y-94588746D01*
X134219074Y-94541901D01*
X133999787Y-94527400D01*
X133757470Y-94550406D01*
G37*
X133757470Y-94550406D02*
X133535106Y-94616705D01*
X133336867Y-94722213D01*
X133166921Y-94862847D01*
X133029441Y-95034524D01*
X132928596Y-95233162D01*
X132868557Y-95454678D01*
X132852700Y-95650336D01*
X132852700Y-95797400D01*
X134757700Y-95797400D01*
X134757700Y-95870498D01*
X134734783Y-95993649D01*
X134671345Y-96121172D01*
X134575357Y-96242298D01*
X134454789Y-96346256D01*
X134365612Y-96400239D01*
X134229758Y-96451647D01*
X134069096Y-96476683D01*
X134056128Y-96477596D01*
X133873871Y-96475127D01*
X133720197Y-96438329D01*
X133582505Y-96362614D01*
X133467807Y-96263419D01*
X133331987Y-96127600D01*
X133128732Y-96127600D01*
X133028189Y-96128246D01*
X132968967Y-96132122D01*
X132941590Y-96142133D01*
X132936581Y-96161182D01*
X132942270Y-96184750D01*
X132980583Y-96270398D01*
X133045501Y-96373086D01*
X133125226Y-96476606D01*
X133207956Y-96564746D01*
X133238143Y-96591173D01*
X133437010Y-96720773D01*
X133659698Y-96810237D01*
X133896404Y-96857509D01*
X134137327Y-96860535D01*
X134348643Y-96824004D01*
X134569755Y-96739879D01*
X134764575Y-96616023D01*
X134928175Y-96457554D01*
X135055626Y-96269590D01*
X135141999Y-96057249D01*
X135161156Y-95980299D01*
X135191692Y-95730242D01*
X135177959Y-95490661D01*
X135165778Y-95441800D01*
X134756443Y-95441800D01*
X134033172Y-95441800D01*
X133820586Y-95441528D01*
X133653501Y-95440521D01*
X133526621Y-95438494D01*
X133434649Y-95435158D01*
X133372288Y-95430229D01*
X133334241Y-95423420D01*
X133315212Y-95414444D01*
X133309903Y-95403014D01*
X133309900Y-95402688D01*
X133330277Y-95320758D01*
X133384975Y-95225173D01*
X133464348Y-95127722D01*
X133558752Y-95040195D01*
X133658539Y-94974383D01*
X133661597Y-94972826D01*
X133800653Y-94925277D01*
X133964767Y-94904014D01*
X134135572Y-94908960D01*
X134294702Y-94940039D01*
X134386440Y-94975844D01*
X134532974Y-95077486D01*
X134651851Y-95218797D01*
X134732235Y-95378127D01*
X134756443Y-95441800D01*
X135165778Y-95441800D01*
X135122133Y-95266735D01*
X135026394Y-95063643D01*
X134892921Y-94886563D01*
X134723892Y-94740672D01*
X134611001Y-94672689D01*
X134416397Y-94588746D01*
X134219074Y-94541901D01*
X133999787Y-94527400D01*
X133757470Y-94550406D01*
G36*
X140549014Y-94533840D02*
G01*
X140295560Y-94569111D01*
X140067475Y-94645807D01*
X139867825Y-94761865D01*
X139699675Y-94915222D01*
X139566092Y-95103816D01*
X139501544Y-95238600D01*
X139469982Y-95352705D01*
X139449715Y-95500371D01*
X139440970Y-95665580D01*
X139443975Y-95832313D01*
X139458957Y-95984551D01*
X139486144Y-96106275D01*
X139489095Y-96114900D01*
X139585481Y-96312172D01*
X139724725Y-96488574D01*
X139901321Y-96638769D01*
X140109759Y-96757421D01*
X140184660Y-96788770D01*
X140316679Y-96825019D01*
X140479665Y-96848467D01*
X140655219Y-96858287D01*
X140824940Y-96853650D01*
X140970426Y-96833729D01*
X141003247Y-96825599D01*
X141217147Y-96743401D01*
X141411879Y-96625093D01*
X141578845Y-96477635D01*
X141709444Y-96307986D01*
X141760318Y-96212895D01*
X141798663Y-96110102D01*
X141832849Y-95985876D01*
X141852901Y-95882628D01*
X141860252Y-95741224D01*
X141435926Y-95741224D01*
X141421591Y-95888866D01*
X141401459Y-95970207D01*
X141348206Y-96082941D01*
X141267805Y-96198333D01*
X141173822Y-96299702D01*
X141079826Y-96370365D01*
X141073042Y-96374020D01*
X140876302Y-96450118D01*
X140671311Y-96480463D01*
X140467896Y-96464243D01*
X140355336Y-96433468D01*
X140178056Y-96346347D01*
X140033590Y-96222677D01*
X139926413Y-96066341D01*
X139921980Y-96057466D01*
X139868990Y-95901401D01*
X139847007Y-95724298D01*
X139856361Y-95545017D01*
X139897379Y-95382421D01*
X139909711Y-95352900D01*
X140007042Y-95193906D01*
X140134739Y-95069092D01*
X140285436Y-94978623D01*
X140451764Y-94922666D01*
X140626358Y-94901386D01*
X140801851Y-94914949D01*
X140970876Y-94963522D01*
X141126066Y-95047270D01*
X141260055Y-95166360D01*
X141365035Y-95320101D01*
X141406581Y-95437807D01*
X141430567Y-95584526D01*
X141435926Y-95741224D01*
X141860252Y-95741224D01*
X141865762Y-95635236D01*
X141833350Y-95400693D01*
X141758150Y-95184052D01*
X141642643Y-94990365D01*
X141489313Y-94824687D01*
X141300640Y-94692069D01*
X141256581Y-94668803D01*
X141082295Y-94594053D01*
X140910970Y-94549281D01*
X140725095Y-94531147D01*
X140549014Y-94533840D01*
G37*
X140549014Y-94533840D02*
X140295560Y-94569111D01*
X140067475Y-94645807D01*
X139867825Y-94761865D01*
X139699675Y-94915222D01*
X139566092Y-95103816D01*
X139501544Y-95238600D01*
X139469982Y-95352705D01*
X139449715Y-95500371D01*
X139440970Y-95665580D01*
X139443975Y-95832313D01*
X139458957Y-95984551D01*
X139486144Y-96106275D01*
X139489095Y-96114900D01*
X139585481Y-96312172D01*
X139724725Y-96488574D01*
X139901321Y-96638769D01*
X140109759Y-96757421D01*
X140184660Y-96788770D01*
X140316679Y-96825019D01*
X140479665Y-96848467D01*
X140655219Y-96858287D01*
X140824940Y-96853650D01*
X140970426Y-96833729D01*
X141003247Y-96825599D01*
X141217147Y-96743401D01*
X141411879Y-96625093D01*
X141578845Y-96477635D01*
X141709444Y-96307986D01*
X141760318Y-96212895D01*
X141798663Y-96110102D01*
X141832849Y-95985876D01*
X141852901Y-95882628D01*
X141860252Y-95741224D01*
X141435926Y-95741224D01*
X141421591Y-95888866D01*
X141401459Y-95970207D01*
X141348206Y-96082941D01*
X141267805Y-96198333D01*
X141173822Y-96299702D01*
X141079826Y-96370365D01*
X141073042Y-96374020D01*
X140876302Y-96450118D01*
X140671311Y-96480463D01*
X140467896Y-96464243D01*
X140355336Y-96433468D01*
X140178056Y-96346347D01*
X140033590Y-96222677D01*
X139926413Y-96066341D01*
X139921980Y-96057466D01*
X139868990Y-95901401D01*
X139847007Y-95724298D01*
X139856361Y-95545017D01*
X139897379Y-95382421D01*
X139909711Y-95352900D01*
X140007042Y-95193906D01*
X140134739Y-95069092D01*
X140285436Y-94978623D01*
X140451764Y-94922666D01*
X140626358Y-94901386D01*
X140801851Y-94914949D01*
X140970876Y-94963522D01*
X141126066Y-95047270D01*
X141260055Y-95166360D01*
X141365035Y-95320101D01*
X141406581Y-95437807D01*
X141430567Y-95584526D01*
X141435926Y-95741224D01*
X141860252Y-95741224D01*
X141865762Y-95635236D01*
X141833350Y-95400693D01*
X141758150Y-95184052D01*
X141642643Y-94990365D01*
X141489313Y-94824687D01*
X141300640Y-94692069D01*
X141256581Y-94668803D01*
X141082295Y-94594053D01*
X140910970Y-94549281D01*
X140725095Y-94531147D01*
X140549014Y-94533840D01*
G36*
X142931951Y-94547988D02*
G01*
X142817252Y-94574102D01*
X142596150Y-94664639D01*
X142404707Y-94791036D01*
X142247778Y-94948988D01*
X142130218Y-95134188D01*
X142095563Y-95214254D01*
X142061536Y-95307731D01*
X142049917Y-95366761D01*
X142067202Y-95399261D01*
X142119888Y-95413149D01*
X142214471Y-95416343D01*
X142261431Y-95416400D01*
X142475361Y-95416399D01*
X142506267Y-95322754D01*
X142572857Y-95196894D01*
X142679362Y-95085503D01*
X142815537Y-94995012D01*
X142971136Y-94931854D01*
X143135915Y-94902461D01*
X143177801Y-94901142D01*
X143360131Y-94923910D01*
X143530435Y-94988221D01*
X143679984Y-95088089D01*
X143800047Y-95217526D01*
X143881895Y-95370547D01*
X143888093Y-95388267D01*
X143921644Y-95546924D01*
X143927427Y-95722402D01*
X143906741Y-95896327D01*
X143860887Y-96050322D01*
X143837825Y-96098531D01*
X143732096Y-96249138D01*
X143597221Y-96361303D01*
X143449898Y-96432915D01*
X143271211Y-96475926D01*
X143091741Y-96475773D01*
X142919928Y-96435785D01*
X142764210Y-96359291D01*
X142633026Y-96249622D01*
X142534816Y-96110106D01*
X142513233Y-96063389D01*
X142466600Y-95949990D01*
X142257050Y-95949895D01*
X142154332Y-95950561D01*
X142092216Y-95954620D01*
X142060505Y-95964992D01*
X142049003Y-95984594D01*
X142047500Y-96009887D01*
X142063025Y-96084902D01*
X142104576Y-96184781D01*
X142164622Y-96296252D01*
X142235631Y-96406041D01*
X142310071Y-96500876D01*
X142348962Y-96541119D01*
X142528736Y-96676131D01*
X142737593Y-96776811D01*
X142964440Y-96839913D01*
X143198182Y-96862194D01*
X143393700Y-96846664D01*
X143586913Y-96795943D01*
X143774549Y-96712877D01*
X143944240Y-96604860D01*
X144083617Y-96479289D01*
X144150511Y-96394165D01*
X144231840Y-96259841D01*
X144287730Y-96134887D01*
X144322309Y-96004138D01*
X144339707Y-95852430D01*
X144344086Y-95683100D01*
X144342581Y-95542194D01*
X144336879Y-95438188D01*
X144325202Y-95357236D01*
X144305770Y-95285494D01*
X144286149Y-95232197D01*
X144180503Y-95032543D01*
X144034238Y-94856026D01*
X143855124Y-94710316D01*
X143650931Y-94603085D01*
X143647700Y-94601802D01*
X143491717Y-94557914D01*
X143307745Y-94533892D01*
X143114813Y-94530372D01*
X142931951Y-94547988D01*
G37*
X142931951Y-94547988D02*
X142817252Y-94574102D01*
X142596150Y-94664639D01*
X142404707Y-94791036D01*
X142247778Y-94948988D01*
X142130218Y-95134188D01*
X142095563Y-95214254D01*
X142061536Y-95307731D01*
X142049917Y-95366761D01*
X142067202Y-95399261D01*
X142119888Y-95413149D01*
X142214471Y-95416343D01*
X142261431Y-95416400D01*
X142475361Y-95416399D01*
X142506267Y-95322754D01*
X142572857Y-95196894D01*
X142679362Y-95085503D01*
X142815537Y-94995012D01*
X142971136Y-94931854D01*
X143135915Y-94902461D01*
X143177801Y-94901142D01*
X143360131Y-94923910D01*
X143530435Y-94988221D01*
X143679984Y-95088089D01*
X143800047Y-95217526D01*
X143881895Y-95370547D01*
X143888093Y-95388267D01*
X143921644Y-95546924D01*
X143927427Y-95722402D01*
X143906741Y-95896327D01*
X143860887Y-96050322D01*
X143837825Y-96098531D01*
X143732096Y-96249138D01*
X143597221Y-96361303D01*
X143449898Y-96432915D01*
X143271211Y-96475926D01*
X143091741Y-96475773D01*
X142919928Y-96435785D01*
X142764210Y-96359291D01*
X142633026Y-96249622D01*
X142534816Y-96110106D01*
X142513233Y-96063389D01*
X142466600Y-95949990D01*
X142257050Y-95949895D01*
X142154332Y-95950561D01*
X142092216Y-95954620D01*
X142060505Y-95964992D01*
X142049003Y-95984594D01*
X142047500Y-96009887D01*
X142063025Y-96084902D01*
X142104576Y-96184781D01*
X142164622Y-96296252D01*
X142235631Y-96406041D01*
X142310071Y-96500876D01*
X142348962Y-96541119D01*
X142528736Y-96676131D01*
X142737593Y-96776811D01*
X142964440Y-96839913D01*
X143198182Y-96862194D01*
X143393700Y-96846664D01*
X143586913Y-96795943D01*
X143774549Y-96712877D01*
X143944240Y-96604860D01*
X144083617Y-96479289D01*
X144150511Y-96394165D01*
X144231840Y-96259841D01*
X144287730Y-96134887D01*
X144322309Y-96004138D01*
X144339707Y-95852430D01*
X144344086Y-95683100D01*
X144342581Y-95542194D01*
X144336879Y-95438188D01*
X144325202Y-95357236D01*
X144305770Y-95285494D01*
X144286149Y-95232197D01*
X144180503Y-95032543D01*
X144034238Y-94856026D01*
X143855124Y-94710316D01*
X143650931Y-94603085D01*
X143647700Y-94601802D01*
X143491717Y-94557914D01*
X143307745Y-94533892D01*
X143114813Y-94530372D01*
X142931951Y-94547988D01*
%TD*%
M02*
