%TF.GenerationSoftware,KiCad,Pcbnew,(5.1.6-0-10_14)*%
%TF.CreationDate,2020-09-29T15:02:50+02:00*%
%TF.ProjectId,bottom-plate,626f7474-6f6d-42d7-906c-6174652e6b69,rev?*%
%TF.SameCoordinates,Original*%
%TF.FileFunction,Profile,NP*%
%FSLAX46Y46*%
G04 Gerber Fmt 4.6, Leading zero omitted, Abs format (unit mm)*
G04 Created by KiCad (PCBNEW (5.1.6-0-10_14)) date 2020-09-29 15:02:50*
%MOMM*%
%LPD*%
G01*
G04 APERTURE LIST*
%TA.AperFunction,Profile*%
%ADD10C,0.200000*%
%TD*%
G04 APERTURE END LIST*
D10*
X145288000Y-75438000D02*
X145288000Y-97790000D01*
X190660384Y-17702252D02*
X196787500Y-17702252D01*
X227660528Y-17702252D02*
X234697500Y-17702252D01*
X265660170Y-22452301D02*
X265660408Y-22452301D01*
X265160287Y-21952179D02*
X265209543Y-22168960D01*
X265209543Y-22168960D02*
X265342150Y-22338046D01*
X265342150Y-22338046D02*
X265535215Y-22436528D01*
X265535215Y-22436528D02*
X265660170Y-22452301D01*
X246160351Y-19702247D02*
X246209710Y-19919004D01*
X246209710Y-19919004D02*
X246342398Y-20088024D01*
X246342398Y-20088024D02*
X246535510Y-20186410D01*
X246535510Y-20186410D02*
X246660473Y-20202121D01*
X246160351Y-18202126D02*
X246111023Y-17985433D01*
X246111023Y-17985433D02*
X245978410Y-17816436D01*
X245978410Y-17816436D02*
X245785391Y-17718014D01*
X245785391Y-17718014D02*
X245660478Y-17702252D01*
X227660280Y-17702252D02*
X227660528Y-17702252D01*
X227160406Y-17202126D02*
X227209656Y-17418908D01*
X227209656Y-17418908D02*
X227342261Y-17587995D01*
X227342261Y-17587995D02*
X227535325Y-17686479D01*
X227535325Y-17686479D02*
X227660280Y-17702252D01*
X227160406Y-15952194D02*
X227111156Y-15735411D01*
X227111156Y-15735411D02*
X226978551Y-15566324D01*
X226978551Y-15566324D02*
X226785487Y-15467840D01*
X226785487Y-15467840D02*
X226660533Y-15452068D01*
X209160456Y-15952189D02*
X209160456Y-15952194D01*
X209660330Y-15452068D02*
X209443570Y-15501427D01*
X209443570Y-15501427D02*
X209274550Y-15634116D01*
X209274550Y-15634116D02*
X209176165Y-15827228D01*
X209176165Y-15827228D02*
X209160456Y-15952189D01*
X209160456Y-17202379D02*
X209160456Y-17202126D01*
X208660335Y-17702252D02*
X208877118Y-17653001D01*
X208877118Y-17653001D02*
X209046203Y-17520395D01*
X209046203Y-17520395D02*
X209144683Y-17327331D01*
X209144683Y-17327331D02*
X209160456Y-17202379D01*
X190660384Y-17702252D02*
X190443691Y-17751580D01*
X190443691Y-17751580D02*
X190274694Y-17884193D01*
X190274694Y-17884193D02*
X190176272Y-18077212D01*
X190176272Y-18077212D02*
X190160511Y-18202126D01*
X190160511Y-21952427D02*
X190160511Y-21952179D01*
X189660389Y-22452301D02*
X189877172Y-22403049D01*
X189877172Y-22403049D02*
X190046257Y-22270443D01*
X190046257Y-22270443D02*
X190144738Y-22077380D01*
X190144738Y-22077380D02*
X190160511Y-21952427D01*
X285099901Y-22451031D02*
X265660408Y-22452301D01*
X209160456Y-15952194D02*
X209158680Y-17200350D01*
X208658301Y-17700729D02*
X201547500Y-17700729D01*
X190159499Y-18201109D02*
X190159499Y-21950145D01*
X265160287Y-20702242D02*
X265111034Y-20485463D01*
X265111034Y-20485463D02*
X264978434Y-20316379D01*
X264978434Y-20316379D02*
X264785376Y-20217895D01*
X264785376Y-20217895D02*
X264660423Y-20202121D01*
X265158005Y-20700466D02*
X265160287Y-21952179D01*
X245658444Y-17700729D02*
X239537500Y-17700729D01*
X227159642Y-17200350D02*
X227159642Y-15950671D01*
X226659263Y-15450292D02*
X209659060Y-15450292D01*
X189659119Y-22450525D02*
X152406499Y-22452301D01*
X285599784Y-22950904D02*
X285599784Y-82424945D01*
X285599784Y-22950904D02*
X285550458Y-22734210D01*
X285550458Y-22734210D02*
X285417840Y-22565212D01*
X285417840Y-22565212D02*
X285224815Y-22466791D01*
X285224815Y-22466791D02*
X285099901Y-22451031D01*
X264660165Y-20200087D02*
X246659203Y-20200087D01*
X246158823Y-19699707D02*
X246158823Y-18201109D01*
X218440000Y-92964000D02*
X221996000Y-92964000D01*
X239522000Y-100584000D02*
X239776000Y-102108000D01*
X234442000Y-112776000D02*
X250444000Y-122174000D01*
X251206000Y-122174000D02*
X260604000Y-105664000D01*
X226314000Y-92964000D02*
X234188000Y-97536000D01*
X194056000Y-97790000D02*
X194310000Y-97790000D01*
X221996000Y-92964000D02*
X222758000Y-92964000D01*
X239776000Y-102108000D02*
X234188000Y-111760000D01*
X168402000Y-97790000D02*
X175514000Y-97790000D01*
X234188000Y-111760000D02*
X234442000Y-112776000D01*
X273304000Y-84582000D02*
X285496000Y-83312000D01*
X151892000Y-97790000D02*
X168402000Y-97790000D01*
X194310000Y-97790000D02*
X204216000Y-92964000D01*
X175514000Y-97790000D02*
X194056000Y-97790000D01*
X222758000Y-92964000D02*
X226314000Y-92964000D01*
X250444000Y-122174000D02*
X251206000Y-122174000D01*
X234188000Y-97536000D02*
X239522000Y-100584000D01*
X285599784Y-82424945D02*
X285496000Y-83312000D01*
X267716000Y-93472000D02*
X269748000Y-90170000D01*
X151892000Y-75438000D02*
X151892000Y-97790000D01*
X152398621Y-22460427D02*
X152181837Y-22509678D01*
X152181837Y-22509678D02*
X152012752Y-22642284D01*
X152012752Y-22642284D02*
X151914271Y-22835347D01*
X151914271Y-22835347D02*
X151898499Y-22960301D01*
X151898499Y-22960301D02*
X151898499Y-22960549D01*
X151898499Y-22960549D02*
X151892000Y-23114000D01*
X152406499Y-22452301D02*
X152398621Y-22460427D01*
X260604000Y-105664000D02*
X267716000Y-93472000D01*
X172534000Y-25654000D02*
G75*
G03*
X172534000Y-25654000I-576000J0D01*
G01*
X173296000Y-90424000D02*
G75*
G03*
X173296000Y-90424000I-576000J0D01*
G01*
X200982000Y-86614000D02*
G75*
G03*
X200982000Y-86614000I-576000J0D01*
G01*
X273880000Y-78994000D02*
G75*
G03*
X273880000Y-78994000I-576000J0D01*
G01*
X247972000Y-22352000D02*
G75*
G03*
X247972000Y-22352000I-576000J0D01*
G01*
X51244177Y-19707707D02*
X51244177Y-18209109D01*
X32742835Y-20208087D02*
X50743797Y-20208087D01*
X11492700Y-22960174D02*
X11542025Y-22743480D01*
X11542025Y-22743480D02*
X11674643Y-22574482D01*
X11674643Y-22574482D02*
X11867668Y-22476061D01*
X11867668Y-22476061D02*
X11992583Y-22460301D01*
X11493216Y-22958904D02*
X11493216Y-82432945D01*
X107442000Y-22352000D02*
X145288000Y-22353776D01*
X32244995Y-20708466D02*
X32242713Y-21960179D01*
X32242713Y-20710242D02*
X32291965Y-20493463D01*
X32291965Y-20493463D02*
X32424565Y-20324379D01*
X32424565Y-20324379D02*
X32617623Y-20225895D01*
X32617623Y-20225895D02*
X32742577Y-20210121D01*
X11993595Y-22458525D02*
X31742592Y-22460301D01*
X51242649Y-18210126D02*
X51291976Y-17993433D01*
X51291976Y-17993433D02*
X51424589Y-17824436D01*
X51424589Y-17824436D02*
X51617608Y-17726014D01*
X51617608Y-17726014D02*
X51742522Y-17710252D01*
X51242649Y-19710247D02*
X51193289Y-19927004D01*
X51193289Y-19927004D02*
X51060601Y-20096024D01*
X51060601Y-20096024D02*
X50867489Y-20194410D01*
X50867489Y-20194410D02*
X50742527Y-20210121D01*
X32242713Y-21960179D02*
X32193456Y-22176960D01*
X32193456Y-22176960D02*
X32060849Y-22346046D01*
X32060849Y-22346046D02*
X31867784Y-22444528D01*
X31867784Y-22444528D02*
X31742830Y-22460301D01*
X31742830Y-22460301D02*
X31742592Y-22460301D01*
X145288000Y-23114000D02*
X145288000Y-22606000D01*
X145288000Y-22606000D02*
X145288000Y-22352000D01*
X107442000Y-22352000D02*
X107442000Y-17780000D01*
X107442000Y-17780000D02*
X107442000Y-17710252D01*
X107442000Y-17710252D02*
X100615500Y-17710252D01*
X145288000Y-97790000D02*
X128778000Y-97790000D01*
X128778000Y-97790000D02*
X121666000Y-97790000D01*
X121666000Y-97790000D02*
X103124000Y-97790000D01*
X103124000Y-97790000D02*
X102870000Y-97790000D01*
X102870000Y-97790000D02*
X92964000Y-92964000D01*
X92964000Y-92964000D02*
X84582000Y-92964000D01*
X84582000Y-92964000D02*
X74422000Y-92964000D01*
X74422000Y-92964000D02*
X70866000Y-92964000D01*
X70866000Y-92964000D02*
X62992000Y-97536000D01*
X62992000Y-97536000D02*
X57658000Y-100584000D01*
X57658000Y-100584000D02*
X57404000Y-102108000D01*
X57404000Y-102108000D02*
X62992000Y-111760000D01*
X62992000Y-111760000D02*
X62738000Y-112776000D01*
X62738000Y-112776000D02*
X46736000Y-122174000D01*
X46736000Y-122174000D02*
X45974000Y-122174000D01*
X45974000Y-122174000D02*
X36576000Y-105664000D01*
X36576000Y-105664000D02*
X29464000Y-93472000D01*
X11493216Y-82432945D02*
X11684000Y-83312000D01*
X52392000Y-28956000D02*
G75*
G03*
X52392000Y-28956000I-576000J0D01*
G01*
X23182000Y-79756000D02*
G75*
G03*
X23182000Y-79756000I-576000J0D01*
G01*
X143578000Y-92456000D02*
G75*
G03*
X143578000Y-92456000I-576000J0D01*
G01*
X143578000Y-36576000D02*
G75*
G03*
X143578000Y-36576000I-576000J0D01*
G01*
X69742720Y-17710252D02*
X69742472Y-17710252D01*
X70242594Y-17210126D02*
X70193343Y-17426908D01*
X70193343Y-17426908D02*
X70060738Y-17595995D01*
X70060738Y-17595995D02*
X69867674Y-17694479D01*
X69867674Y-17694479D02*
X69742720Y-17710252D01*
X70242594Y-15960194D02*
X70291843Y-15743411D01*
X70291843Y-15743411D02*
X70424448Y-15574324D01*
X70424448Y-15574324D02*
X70617512Y-15475840D01*
X70617512Y-15475840D02*
X70742467Y-15460068D01*
X70243358Y-17208350D02*
X70243358Y-15958671D01*
X88744699Y-17708729D02*
X95855500Y-17708729D01*
X88138000Y-15494000D02*
X88186469Y-15710138D01*
X88186469Y-15710138D02*
X88231776Y-15912177D01*
X88231776Y-15912177D02*
X88242544Y-15960194D01*
X70743737Y-15458292D02*
X88138000Y-15494000D01*
X88242544Y-15960194D02*
X88244320Y-17208350D01*
X88742665Y-17710252D02*
X88525881Y-17661001D01*
X88525881Y-17661001D02*
X88356796Y-17528395D01*
X88356796Y-17528395D02*
X88258316Y-17335331D01*
X88258316Y-17335331D02*
X88242544Y-17210379D01*
X88242544Y-17210379D02*
X88242544Y-17210126D01*
X269748000Y-90170000D02*
X273304000Y-84582000D01*
X24130000Y-84582000D02*
X11684000Y-83312000D01*
X29464000Y-93472000D02*
X24130000Y-84582000D01*
X239537500Y-17700729D02*
X234697500Y-17702252D01*
X201547500Y-17700729D02*
X196787500Y-17702252D01*
X95855500Y-17708729D02*
X100615500Y-17710252D01*
X51744556Y-17708729D02*
X57865500Y-17708729D01*
X69742472Y-17710252D02*
X62705500Y-17710252D01*
X62705500Y-17710252D02*
X57865500Y-17708729D01*
X218440000Y-92964000D02*
X204216000Y-92964000D01*
X151892000Y-63754000D02*
X151892000Y-70358000D01*
X151892000Y-47752000D02*
X151892000Y-58674000D01*
X145288000Y-63754000D02*
X145288000Y-70358000D01*
X151892000Y-63754000D02*
X145288000Y-63754000D01*
X145288000Y-47752000D02*
X145288000Y-58674000D01*
X145288000Y-23114000D02*
X145288000Y-42672000D01*
X151892000Y-58674000D02*
X145288000Y-58674000D01*
X151892000Y-42672000D02*
X145288000Y-42672000D01*
X151892000Y-47752000D02*
X145288000Y-47752000D01*
X145288000Y-75438000D02*
X151892000Y-75438000D01*
X151892000Y-70358000D02*
X145288000Y-70358000D01*
X151892000Y-23114000D02*
X151892000Y-42672000D01*
M02*
