%TF.GenerationSoftware,KiCad,Pcbnew,(5.1.6-0-10_14)*%
%TF.CreationDate,2020-10-04T18:03:32+02:00*%
%TF.ProjectId,bottom-plate,626f7474-6f6d-42d7-906c-6174652e6b69,rev?*%
%TF.SameCoordinates,Original*%
%TF.FileFunction,Legend,Top*%
%TF.FilePolarity,Positive*%
%FSLAX46Y46*%
G04 Gerber Fmt 4.6, Leading zero omitted, Abs format (unit mm)*
G04 Created by KiCad (PCBNEW (5.1.6-0-10_14)) date 2020-10-04 18:03:32*
%MOMM*%
%LPD*%
G01*
G04 APERTURE LIST*
%ADD10C,0.010000*%
G04 APERTURE END LIST*
D10*
%TO.C,G\u002A\u002A\u002A*%
G36*
X46228000Y-57107666D02*
G01*
X35771666Y-57107666D01*
X35771666Y-53017811D01*
X38692666Y-53017811D01*
X38730701Y-53458689D01*
X38841339Y-53869977D01*
X39019384Y-54244018D01*
X39259637Y-54573152D01*
X39556902Y-54849722D01*
X39905980Y-55066071D01*
X40152613Y-55168852D01*
X40472467Y-55236443D01*
X40796619Y-55219482D01*
X40978458Y-55173566D01*
X41104391Y-55122857D01*
X41278106Y-55039516D01*
X41475500Y-54935636D01*
X41650069Y-54836590D01*
X42100500Y-54571047D01*
X42112857Y-54911872D01*
X42120884Y-55080499D01*
X42132563Y-55179449D01*
X42151970Y-55223707D01*
X42183178Y-55228263D01*
X42197524Y-55223300D01*
X42268163Y-55201112D01*
X42402988Y-55164007D01*
X42583790Y-55116566D01*
X42792363Y-55063367D01*
X43010501Y-55008990D01*
X43219996Y-54958015D01*
X43402642Y-54915020D01*
X43540232Y-54884585D01*
X43561000Y-54880357D01*
X43678248Y-54851814D01*
X43734011Y-54815121D01*
X43750723Y-54750882D01*
X43751500Y-54715643D01*
X43748092Y-54649192D01*
X43725652Y-54608904D01*
X43665851Y-54584978D01*
X43550362Y-54567613D01*
X43455166Y-54557169D01*
X43284362Y-54533419D01*
X43172977Y-54500802D01*
X43095766Y-54450297D01*
X43063583Y-54417225D01*
X42968333Y-54308945D01*
X42968333Y-50966972D01*
X42968289Y-50356775D01*
X42968068Y-49825746D01*
X42967535Y-49368387D01*
X42966556Y-48979200D01*
X42964995Y-48652687D01*
X42962717Y-48383350D01*
X42959589Y-48165690D01*
X42955474Y-47994209D01*
X42950240Y-47863409D01*
X42943750Y-47767791D01*
X42935869Y-47701858D01*
X42926464Y-47660111D01*
X42915400Y-47637053D01*
X42902541Y-47627184D01*
X42887753Y-47625006D01*
X42886422Y-47625000D01*
X42781890Y-47640096D01*
X42702825Y-47663661D01*
X42621966Y-47687598D01*
X42478074Y-47723944D01*
X42291078Y-47768202D01*
X42080907Y-47815874D01*
X41867491Y-47862463D01*
X41670758Y-47903473D01*
X41510637Y-47934405D01*
X41476083Y-47940478D01*
X41371088Y-47966435D01*
X41326299Y-48010600D01*
X41317333Y-48087707D01*
X41322865Y-48155975D01*
X41352902Y-48195650D01*
X41427601Y-48219206D01*
X41560705Y-48238318D01*
X41802359Y-48286570D01*
X41970699Y-48360903D01*
X42061558Y-48459475D01*
X42061577Y-48459517D01*
X42072279Y-48522321D01*
X42083089Y-48656674D01*
X42093366Y-48849460D01*
X42102469Y-49087566D01*
X42109759Y-49357875D01*
X42112567Y-49503572D01*
X42128718Y-50471977D01*
X41987609Y-50445970D01*
X41482076Y-50390554D01*
X41003139Y-50415469D01*
X40551064Y-50520636D01*
X40126119Y-50705975D01*
X39728570Y-50971404D01*
X39470707Y-51200878D01*
X39159066Y-51559583D01*
X38928215Y-51941114D01*
X38776345Y-52349695D01*
X38701645Y-52789549D01*
X38692666Y-53017811D01*
X35771666Y-53017811D01*
X35771666Y-46651333D01*
X46228000Y-46651333D01*
X46228000Y-57107666D01*
G37*
X46228000Y-57107666D02*
X35771666Y-57107666D01*
X35771666Y-53017811D01*
X38692666Y-53017811D01*
X38730701Y-53458689D01*
X38841339Y-53869977D01*
X39019384Y-54244018D01*
X39259637Y-54573152D01*
X39556902Y-54849722D01*
X39905980Y-55066071D01*
X40152613Y-55168852D01*
X40472467Y-55236443D01*
X40796619Y-55219482D01*
X40978458Y-55173566D01*
X41104391Y-55122857D01*
X41278106Y-55039516D01*
X41475500Y-54935636D01*
X41650069Y-54836590D01*
X42100500Y-54571047D01*
X42112857Y-54911872D01*
X42120884Y-55080499D01*
X42132563Y-55179449D01*
X42151970Y-55223707D01*
X42183178Y-55228263D01*
X42197524Y-55223300D01*
X42268163Y-55201112D01*
X42402988Y-55164007D01*
X42583790Y-55116566D01*
X42792363Y-55063367D01*
X43010501Y-55008990D01*
X43219996Y-54958015D01*
X43402642Y-54915020D01*
X43540232Y-54884585D01*
X43561000Y-54880357D01*
X43678248Y-54851814D01*
X43734011Y-54815121D01*
X43750723Y-54750882D01*
X43751500Y-54715643D01*
X43748092Y-54649192D01*
X43725652Y-54608904D01*
X43665851Y-54584978D01*
X43550362Y-54567613D01*
X43455166Y-54557169D01*
X43284362Y-54533419D01*
X43172977Y-54500802D01*
X43095766Y-54450297D01*
X43063583Y-54417225D01*
X42968333Y-54308945D01*
X42968333Y-50966972D01*
X42968289Y-50356775D01*
X42968068Y-49825746D01*
X42967535Y-49368387D01*
X42966556Y-48979200D01*
X42964995Y-48652687D01*
X42962717Y-48383350D01*
X42959589Y-48165690D01*
X42955474Y-47994209D01*
X42950240Y-47863409D01*
X42943750Y-47767791D01*
X42935869Y-47701858D01*
X42926464Y-47660111D01*
X42915400Y-47637053D01*
X42902541Y-47627184D01*
X42887753Y-47625006D01*
X42886422Y-47625000D01*
X42781890Y-47640096D01*
X42702825Y-47663661D01*
X42621966Y-47687598D01*
X42478074Y-47723944D01*
X42291078Y-47768202D01*
X42080907Y-47815874D01*
X41867491Y-47862463D01*
X41670758Y-47903473D01*
X41510637Y-47934405D01*
X41476083Y-47940478D01*
X41371088Y-47966435D01*
X41326299Y-48010600D01*
X41317333Y-48087707D01*
X41322865Y-48155975D01*
X41352902Y-48195650D01*
X41427601Y-48219206D01*
X41560705Y-48238318D01*
X41802359Y-48286570D01*
X41970699Y-48360903D01*
X42061558Y-48459475D01*
X42061577Y-48459517D01*
X42072279Y-48522321D01*
X42083089Y-48656674D01*
X42093366Y-48849460D01*
X42102469Y-49087566D01*
X42109759Y-49357875D01*
X42112567Y-49503572D01*
X42128718Y-50471977D01*
X41987609Y-50445970D01*
X41482076Y-50390554D01*
X41003139Y-50415469D01*
X40551064Y-50520636D01*
X40126119Y-50705975D01*
X39728570Y-50971404D01*
X39470707Y-51200878D01*
X39159066Y-51559583D01*
X38928215Y-51941114D01*
X38776345Y-52349695D01*
X38701645Y-52789549D01*
X38692666Y-53017811D01*
X35771666Y-53017811D01*
X35771666Y-46651333D01*
X46228000Y-46651333D01*
X46228000Y-57107666D01*
G36*
X58250666Y-57107666D02*
G01*
X47794333Y-57107666D01*
X47794333Y-52408666D01*
X51122738Y-52408666D01*
X51131837Y-52751032D01*
X51170774Y-53042470D01*
X51245608Y-53313313D01*
X51357388Y-53583257D01*
X51553478Y-53911295D01*
X51804657Y-54190121D01*
X52099513Y-54414713D01*
X52426637Y-54580049D01*
X52774616Y-54681107D01*
X53132040Y-54712868D01*
X53487498Y-54670308D01*
X53689033Y-54609302D01*
X53850986Y-54539871D01*
X54025796Y-54452769D01*
X54091200Y-54416377D01*
X54195603Y-54345503D01*
X54327263Y-54241954D01*
X54471000Y-54119554D01*
X54611632Y-53992131D01*
X54733978Y-53873509D01*
X54822858Y-53777514D01*
X54863090Y-53717973D01*
X54864000Y-53712565D01*
X54842746Y-53653474D01*
X54795585Y-53571273D01*
X54727170Y-53466859D01*
X54575266Y-53600232D01*
X54353795Y-53754668D01*
X54081406Y-53882955D01*
X53791144Y-53969854D01*
X53760236Y-53976100D01*
X53442025Y-53995757D01*
X53127883Y-53937974D01*
X52830377Y-53809550D01*
X52562074Y-53617282D01*
X52335543Y-53367970D01*
X52190305Y-53126833D01*
X52119613Y-52950503D01*
X52051824Y-52728584D01*
X51994662Y-52492630D01*
X51955853Y-52274197D01*
X51943000Y-52116711D01*
X51943412Y-52074594D01*
X51950530Y-52040887D01*
X51973178Y-52014115D01*
X52020179Y-51992802D01*
X52100355Y-51975473D01*
X52222529Y-51960650D01*
X52395525Y-51946858D01*
X52628166Y-51932621D01*
X52929275Y-51916463D01*
X53234166Y-51900709D01*
X53641877Y-51878891D01*
X53973503Y-51859010D01*
X54237571Y-51839931D01*
X54442608Y-51820523D01*
X54597139Y-51799653D01*
X54709692Y-51776188D01*
X54788793Y-51748994D01*
X54842968Y-51716940D01*
X54878018Y-51682313D01*
X54930768Y-51556119D01*
X54939362Y-51372285D01*
X54904807Y-51144790D01*
X54828105Y-50887612D01*
X54819173Y-50863500D01*
X54694118Y-50624881D01*
X54509133Y-50389940D01*
X54286296Y-50180751D01*
X54047685Y-50019387D01*
X53912644Y-49957107D01*
X53566688Y-49871931D01*
X53209615Y-49866350D01*
X52850289Y-49937685D01*
X52497575Y-50083256D01*
X52160338Y-50300383D01*
X51853999Y-50579376D01*
X51555949Y-50949613D01*
X51337788Y-51342765D01*
X51196585Y-51766156D01*
X51129415Y-52227111D01*
X51122738Y-52408666D01*
X47794333Y-52408666D01*
X47794333Y-46651333D01*
X58250666Y-46651333D01*
X58250666Y-57107666D01*
G37*
X58250666Y-57107666D02*
X47794333Y-57107666D01*
X47794333Y-52408666D01*
X51122738Y-52408666D01*
X51131837Y-52751032D01*
X51170774Y-53042470D01*
X51245608Y-53313313D01*
X51357388Y-53583257D01*
X51553478Y-53911295D01*
X51804657Y-54190121D01*
X52099513Y-54414713D01*
X52426637Y-54580049D01*
X52774616Y-54681107D01*
X53132040Y-54712868D01*
X53487498Y-54670308D01*
X53689033Y-54609302D01*
X53850986Y-54539871D01*
X54025796Y-54452769D01*
X54091200Y-54416377D01*
X54195603Y-54345503D01*
X54327263Y-54241954D01*
X54471000Y-54119554D01*
X54611632Y-53992131D01*
X54733978Y-53873509D01*
X54822858Y-53777514D01*
X54863090Y-53717973D01*
X54864000Y-53712565D01*
X54842746Y-53653474D01*
X54795585Y-53571273D01*
X54727170Y-53466859D01*
X54575266Y-53600232D01*
X54353795Y-53754668D01*
X54081406Y-53882955D01*
X53791144Y-53969854D01*
X53760236Y-53976100D01*
X53442025Y-53995757D01*
X53127883Y-53937974D01*
X52830377Y-53809550D01*
X52562074Y-53617282D01*
X52335543Y-53367970D01*
X52190305Y-53126833D01*
X52119613Y-52950503D01*
X52051824Y-52728584D01*
X51994662Y-52492630D01*
X51955853Y-52274197D01*
X51943000Y-52116711D01*
X51943412Y-52074594D01*
X51950530Y-52040887D01*
X51973178Y-52014115D01*
X52020179Y-51992802D01*
X52100355Y-51975473D01*
X52222529Y-51960650D01*
X52395525Y-51946858D01*
X52628166Y-51932621D01*
X52929275Y-51916463D01*
X53234166Y-51900709D01*
X53641877Y-51878891D01*
X53973503Y-51859010D01*
X54237571Y-51839931D01*
X54442608Y-51820523D01*
X54597139Y-51799653D01*
X54709692Y-51776188D01*
X54788793Y-51748994D01*
X54842968Y-51716940D01*
X54878018Y-51682313D01*
X54930768Y-51556119D01*
X54939362Y-51372285D01*
X54904807Y-51144790D01*
X54828105Y-50887612D01*
X54819173Y-50863500D01*
X54694118Y-50624881D01*
X54509133Y-50389940D01*
X54286296Y-50180751D01*
X54047685Y-50019387D01*
X53912644Y-49957107D01*
X53566688Y-49871931D01*
X53209615Y-49866350D01*
X52850289Y-49937685D01*
X52497575Y-50083256D01*
X52160338Y-50300383D01*
X51853999Y-50579376D01*
X51555949Y-50949613D01*
X51337788Y-51342765D01*
X51196585Y-51766156D01*
X51129415Y-52227111D01*
X51122738Y-52408666D01*
X47794333Y-52408666D01*
X47794333Y-46651333D01*
X58250666Y-46651333D01*
X58250666Y-57107666D01*
G36*
X46228000Y-45085000D02*
G01*
X35771666Y-45085000D01*
X35771666Y-44456550D01*
X39654773Y-44456550D01*
X39666997Y-44515020D01*
X39670554Y-44524603D01*
X39708879Y-44617658D01*
X39733369Y-44667387D01*
X39785403Y-44675521D01*
X39895247Y-44642857D01*
X40049618Y-44574577D01*
X40235234Y-44475868D01*
X40259000Y-44462211D01*
X40432374Y-44340423D01*
X40630284Y-44167677D01*
X40834259Y-43963654D01*
X41025829Y-43748031D01*
X41186524Y-43540488D01*
X41297875Y-43360704D01*
X41303507Y-43349333D01*
X41369493Y-43206562D01*
X41426799Y-43064561D01*
X41476025Y-42916454D01*
X41517773Y-42755368D01*
X41552644Y-42574425D01*
X41581237Y-42366753D01*
X41604153Y-42125475D01*
X41621994Y-41843717D01*
X41635360Y-41514604D01*
X41644852Y-41131260D01*
X41651070Y-40686811D01*
X41654616Y-40174382D01*
X41656090Y-39587097D01*
X41656236Y-39312597D01*
X41657094Y-38758139D01*
X41659510Y-38264110D01*
X41663423Y-37834124D01*
X41668769Y-37471796D01*
X41675486Y-37180739D01*
X41683512Y-36964568D01*
X41692784Y-36826897D01*
X41700027Y-36779008D01*
X41787561Y-36605921D01*
X41938445Y-36488978D01*
X42152715Y-36428152D01*
X42156396Y-36427669D01*
X42338341Y-36402880D01*
X42452226Y-36379938D01*
X42513994Y-36350108D01*
X42539588Y-36304658D01*
X42544951Y-36234851D01*
X42545000Y-36214773D01*
X42545000Y-36066827D01*
X41179750Y-36077996D01*
X39814500Y-36089166D01*
X39801342Y-36225297D01*
X39797960Y-36296108D01*
X39814291Y-36343169D01*
X39865338Y-36374095D01*
X39966105Y-36396501D01*
X40131598Y-36418001D01*
X40195500Y-36425343D01*
X40343699Y-36455432D01*
X40473019Y-36503495D01*
X40513000Y-36527133D01*
X40559002Y-36560805D01*
X40598512Y-36593538D01*
X40632019Y-36631661D01*
X40660011Y-36681508D01*
X40682977Y-36749408D01*
X40701406Y-36841693D01*
X40715786Y-36964694D01*
X40726608Y-37124743D01*
X40734359Y-37328169D01*
X40739528Y-37581305D01*
X40742604Y-37890481D01*
X40744075Y-38262029D01*
X40744432Y-38702279D01*
X40744162Y-39217563D01*
X40743936Y-39518166D01*
X40743008Y-40131480D01*
X40740928Y-40666905D01*
X40737354Y-41131217D01*
X40731946Y-41531190D01*
X40724360Y-41873598D01*
X40714257Y-42165217D01*
X40701294Y-42412821D01*
X40685131Y-42623184D01*
X40665425Y-42803082D01*
X40641835Y-42959288D01*
X40614020Y-43098577D01*
X40581638Y-43227724D01*
X40551841Y-43329504D01*
X40423477Y-43624682D01*
X40232289Y-43908046D01*
X39998651Y-44152070D01*
X39867659Y-44253925D01*
X39742325Y-44343552D01*
X39675623Y-44405244D01*
X39654773Y-44456550D01*
X35771666Y-44456550D01*
X35771666Y-34628666D01*
X46228000Y-34628666D01*
X46228000Y-45085000D01*
G37*
X46228000Y-45085000D02*
X35771666Y-45085000D01*
X35771666Y-44456550D01*
X39654773Y-44456550D01*
X39666997Y-44515020D01*
X39670554Y-44524603D01*
X39708879Y-44617658D01*
X39733369Y-44667387D01*
X39785403Y-44675521D01*
X39895247Y-44642857D01*
X40049618Y-44574577D01*
X40235234Y-44475868D01*
X40259000Y-44462211D01*
X40432374Y-44340423D01*
X40630284Y-44167677D01*
X40834259Y-43963654D01*
X41025829Y-43748031D01*
X41186524Y-43540488D01*
X41297875Y-43360704D01*
X41303507Y-43349333D01*
X41369493Y-43206562D01*
X41426799Y-43064561D01*
X41476025Y-42916454D01*
X41517773Y-42755368D01*
X41552644Y-42574425D01*
X41581237Y-42366753D01*
X41604153Y-42125475D01*
X41621994Y-41843717D01*
X41635360Y-41514604D01*
X41644852Y-41131260D01*
X41651070Y-40686811D01*
X41654616Y-40174382D01*
X41656090Y-39587097D01*
X41656236Y-39312597D01*
X41657094Y-38758139D01*
X41659510Y-38264110D01*
X41663423Y-37834124D01*
X41668769Y-37471796D01*
X41675486Y-37180739D01*
X41683512Y-36964568D01*
X41692784Y-36826897D01*
X41700027Y-36779008D01*
X41787561Y-36605921D01*
X41938445Y-36488978D01*
X42152715Y-36428152D01*
X42156396Y-36427669D01*
X42338341Y-36402880D01*
X42452226Y-36379938D01*
X42513994Y-36350108D01*
X42539588Y-36304658D01*
X42544951Y-36234851D01*
X42545000Y-36214773D01*
X42545000Y-36066827D01*
X41179750Y-36077996D01*
X39814500Y-36089166D01*
X39801342Y-36225297D01*
X39797960Y-36296108D01*
X39814291Y-36343169D01*
X39865338Y-36374095D01*
X39966105Y-36396501D01*
X40131598Y-36418001D01*
X40195500Y-36425343D01*
X40343699Y-36455432D01*
X40473019Y-36503495D01*
X40513000Y-36527133D01*
X40559002Y-36560805D01*
X40598512Y-36593538D01*
X40632019Y-36631661D01*
X40660011Y-36681508D01*
X40682977Y-36749408D01*
X40701406Y-36841693D01*
X40715786Y-36964694D01*
X40726608Y-37124743D01*
X40734359Y-37328169D01*
X40739528Y-37581305D01*
X40742604Y-37890481D01*
X40744075Y-38262029D01*
X40744432Y-38702279D01*
X40744162Y-39217563D01*
X40743936Y-39518166D01*
X40743008Y-40131480D01*
X40740928Y-40666905D01*
X40737354Y-41131217D01*
X40731946Y-41531190D01*
X40724360Y-41873598D01*
X40714257Y-42165217D01*
X40701294Y-42412821D01*
X40685131Y-42623184D01*
X40665425Y-42803082D01*
X40641835Y-42959288D01*
X40614020Y-43098577D01*
X40581638Y-43227724D01*
X40551841Y-43329504D01*
X40423477Y-43624682D01*
X40232289Y-43908046D01*
X39998651Y-44152070D01*
X39867659Y-44253925D01*
X39742325Y-44343552D01*
X39675623Y-44405244D01*
X39654773Y-44456550D01*
X35771666Y-44456550D01*
X35771666Y-34628666D01*
X46228000Y-34628666D01*
X46228000Y-45085000D01*
G36*
X58250666Y-45085000D02*
G01*
X47794333Y-45085000D01*
X47794333Y-41906870D01*
X51140360Y-41906870D01*
X51175700Y-42144235D01*
X51177343Y-42150421D01*
X51289262Y-42416020D01*
X51466957Y-42657846D01*
X51692693Y-42858069D01*
X51948736Y-42998860D01*
X52057246Y-43034969D01*
X52240214Y-43077423D01*
X52380641Y-43087801D01*
X52514742Y-43065107D01*
X52652038Y-43018599D01*
X52773302Y-42961919D01*
X52938386Y-42870612D01*
X53122095Y-42759097D01*
X53241911Y-42681024D01*
X53629837Y-42420183D01*
X53721050Y-42608603D01*
X53803857Y-42747016D01*
X53902908Y-42869699D01*
X53937279Y-42902218D01*
X54039324Y-42969708D01*
X54166001Y-43029951D01*
X54288313Y-43071713D01*
X54377263Y-43083761D01*
X54394360Y-43079297D01*
X54441718Y-43052544D01*
X54542597Y-42994224D01*
X54679295Y-42914690D01*
X54834109Y-42824297D01*
X54989337Y-42733397D01*
X55127278Y-42652344D01*
X55230229Y-42591492D01*
X55280489Y-42561193D01*
X55282448Y-42559880D01*
X55279135Y-42517083D01*
X55249386Y-42428792D01*
X55244647Y-42417149D01*
X55191552Y-42326677D01*
X55132879Y-42310609D01*
X55122533Y-42314130D01*
X54948161Y-42359766D01*
X54777149Y-42362940D01*
X54642853Y-42323388D01*
X54634160Y-42318021D01*
X54581577Y-42275185D01*
X54539333Y-42216876D01*
X54506331Y-42134151D01*
X54481473Y-42018067D01*
X54463663Y-41859680D01*
X54451801Y-41650046D01*
X54444792Y-41380222D01*
X54441538Y-41041266D01*
X54440902Y-40743024D01*
X54439283Y-40324052D01*
X54433906Y-39979350D01*
X54423723Y-39698566D01*
X54407684Y-39471347D01*
X54384739Y-39287341D01*
X54353838Y-39136196D01*
X54313931Y-39007558D01*
X54263969Y-38891074D01*
X54250326Y-38863702D01*
X54077381Y-38611682D01*
X53852920Y-38420574D01*
X53587920Y-38294163D01*
X53293355Y-38236235D01*
X52980201Y-38250577D01*
X52694828Y-38327161D01*
X52275294Y-38507520D01*
X51867089Y-38724460D01*
X51626685Y-38875753D01*
X51413089Y-39031553D01*
X51271759Y-39164688D01*
X51197110Y-39285767D01*
X51183554Y-39405402D01*
X51225505Y-39534203D01*
X51253223Y-39585034D01*
X51346366Y-39689868D01*
X51477601Y-39779365D01*
X51610592Y-39830815D01*
X51654228Y-39835666D01*
X51772011Y-39794182D01*
X51878812Y-39672446D01*
X51971244Y-39474529D01*
X51983171Y-39439995D01*
X52091240Y-39172053D01*
X52217396Y-38955094D01*
X52352882Y-38803019D01*
X52410353Y-38761904D01*
X52574200Y-38705266D01*
X52774700Y-38692711D01*
X52977005Y-38722978D01*
X53135703Y-38788133D01*
X53335044Y-38949359D01*
X53477094Y-39158081D01*
X53565557Y-39422032D01*
X53604138Y-39748945D01*
X53604836Y-39767430D01*
X53615166Y-40068115D01*
X53342849Y-40212289D01*
X53208181Y-40276835D01*
X53014484Y-40360752D01*
X52782635Y-40455419D01*
X52533512Y-40552216D01*
X52390349Y-40605566D01*
X52079862Y-40722197D01*
X51838403Y-40821015D01*
X51653996Y-40908837D01*
X51514664Y-40992479D01*
X51408431Y-41078759D01*
X51323321Y-41174493D01*
X51277661Y-41238932D01*
X51194676Y-41423916D01*
X51147797Y-41656663D01*
X51140360Y-41906870D01*
X47794333Y-41906870D01*
X47794333Y-34628666D01*
X58250666Y-34628666D01*
X58250666Y-45085000D01*
G37*
X58250666Y-45085000D02*
X47794333Y-45085000D01*
X47794333Y-41906870D01*
X51140360Y-41906870D01*
X51175700Y-42144235D01*
X51177343Y-42150421D01*
X51289262Y-42416020D01*
X51466957Y-42657846D01*
X51692693Y-42858069D01*
X51948736Y-42998860D01*
X52057246Y-43034969D01*
X52240214Y-43077423D01*
X52380641Y-43087801D01*
X52514742Y-43065107D01*
X52652038Y-43018599D01*
X52773302Y-42961919D01*
X52938386Y-42870612D01*
X53122095Y-42759097D01*
X53241911Y-42681024D01*
X53629837Y-42420183D01*
X53721050Y-42608603D01*
X53803857Y-42747016D01*
X53902908Y-42869699D01*
X53937279Y-42902218D01*
X54039324Y-42969708D01*
X54166001Y-43029951D01*
X54288313Y-43071713D01*
X54377263Y-43083761D01*
X54394360Y-43079297D01*
X54441718Y-43052544D01*
X54542597Y-42994224D01*
X54679295Y-42914690D01*
X54834109Y-42824297D01*
X54989337Y-42733397D01*
X55127278Y-42652344D01*
X55230229Y-42591492D01*
X55280489Y-42561193D01*
X55282448Y-42559880D01*
X55279135Y-42517083D01*
X55249386Y-42428792D01*
X55244647Y-42417149D01*
X55191552Y-42326677D01*
X55132879Y-42310609D01*
X55122533Y-42314130D01*
X54948161Y-42359766D01*
X54777149Y-42362940D01*
X54642853Y-42323388D01*
X54634160Y-42318021D01*
X54581577Y-42275185D01*
X54539333Y-42216876D01*
X54506331Y-42134151D01*
X54481473Y-42018067D01*
X54463663Y-41859680D01*
X54451801Y-41650046D01*
X54444792Y-41380222D01*
X54441538Y-41041266D01*
X54440902Y-40743024D01*
X54439283Y-40324052D01*
X54433906Y-39979350D01*
X54423723Y-39698566D01*
X54407684Y-39471347D01*
X54384739Y-39287341D01*
X54353838Y-39136196D01*
X54313931Y-39007558D01*
X54263969Y-38891074D01*
X54250326Y-38863702D01*
X54077381Y-38611682D01*
X53852920Y-38420574D01*
X53587920Y-38294163D01*
X53293355Y-38236235D01*
X52980201Y-38250577D01*
X52694828Y-38327161D01*
X52275294Y-38507520D01*
X51867089Y-38724460D01*
X51626685Y-38875753D01*
X51413089Y-39031553D01*
X51271759Y-39164688D01*
X51197110Y-39285767D01*
X51183554Y-39405402D01*
X51225505Y-39534203D01*
X51253223Y-39585034D01*
X51346366Y-39689868D01*
X51477601Y-39779365D01*
X51610592Y-39830815D01*
X51654228Y-39835666D01*
X51772011Y-39794182D01*
X51878812Y-39672446D01*
X51971244Y-39474529D01*
X51983171Y-39439995D01*
X52091240Y-39172053D01*
X52217396Y-38955094D01*
X52352882Y-38803019D01*
X52410353Y-38761904D01*
X52574200Y-38705266D01*
X52774700Y-38692711D01*
X52977005Y-38722978D01*
X53135703Y-38788133D01*
X53335044Y-38949359D01*
X53477094Y-39158081D01*
X53565557Y-39422032D01*
X53604138Y-39748945D01*
X53604836Y-39767430D01*
X53615166Y-40068115D01*
X53342849Y-40212289D01*
X53208181Y-40276835D01*
X53014484Y-40360752D01*
X52782635Y-40455419D01*
X52533512Y-40552216D01*
X52390349Y-40605566D01*
X52079862Y-40722197D01*
X51838403Y-40821015D01*
X51653996Y-40908837D01*
X51514664Y-40992479D01*
X51408431Y-41078759D01*
X51323321Y-41174493D01*
X51277661Y-41238932D01*
X51194676Y-41423916D01*
X51147797Y-41656663D01*
X51140360Y-41906870D01*
X47794333Y-41906870D01*
X47794333Y-34628666D01*
X58250666Y-34628666D01*
X58250666Y-45085000D01*
G36*
X41279335Y-50792710D02*
G01*
X41584898Y-50888492D01*
X41812911Y-51017683D01*
X41893224Y-51072568D01*
X41958339Y-51121590D01*
X42009779Y-51173799D01*
X42049066Y-51238243D01*
X42077722Y-51323974D01*
X42097270Y-51440041D01*
X42109231Y-51595494D01*
X42115128Y-51799384D01*
X42116484Y-52060759D01*
X42114819Y-52388670D01*
X42111658Y-52792168D01*
X42111646Y-52793679D01*
X42100500Y-54250166D01*
X41810882Y-54395541D01*
X41640510Y-54474430D01*
X41495238Y-54520799D01*
X41335637Y-54544455D01*
X41175882Y-54553443D01*
X40904961Y-54549850D01*
X40700083Y-54515780D01*
X40649877Y-54499555D01*
X40523432Y-54435212D01*
X40372947Y-54333347D01*
X40245914Y-54229019D01*
X40013039Y-53972189D01*
X39842609Y-53680365D01*
X39731086Y-53344197D01*
X39674930Y-52954336D01*
X39666333Y-52698189D01*
X39688694Y-52265673D01*
X39757825Y-51895908D01*
X39876798Y-51579129D01*
X40048687Y-51305569D01*
X40137209Y-51201417D01*
X40391135Y-50982613D01*
X40672660Y-50840845D01*
X40971991Y-50777186D01*
X41279335Y-50792710D01*
G37*
X41279335Y-50792710D02*
X41584898Y-50888492D01*
X41812911Y-51017683D01*
X41893224Y-51072568D01*
X41958339Y-51121590D01*
X42009779Y-51173799D01*
X42049066Y-51238243D01*
X42077722Y-51323974D01*
X42097270Y-51440041D01*
X42109231Y-51595494D01*
X42115128Y-51799384D01*
X42116484Y-52060759D01*
X42114819Y-52388670D01*
X42111658Y-52792168D01*
X42111646Y-52793679D01*
X42100500Y-54250166D01*
X41810882Y-54395541D01*
X41640510Y-54474430D01*
X41495238Y-54520799D01*
X41335637Y-54544455D01*
X41175882Y-54553443D01*
X40904961Y-54549850D01*
X40700083Y-54515780D01*
X40649877Y-54499555D01*
X40523432Y-54435212D01*
X40372947Y-54333347D01*
X40245914Y-54229019D01*
X40013039Y-53972189D01*
X39842609Y-53680365D01*
X39731086Y-53344197D01*
X39674930Y-52954336D01*
X39666333Y-52698189D01*
X39688694Y-52265673D01*
X39757825Y-51895908D01*
X39876798Y-51579129D01*
X40048687Y-51305569D01*
X40137209Y-51201417D01*
X40391135Y-50982613D01*
X40672660Y-50840845D01*
X40971991Y-50777186D01*
X41279335Y-50792710D01*
G36*
X53255809Y-50264328D02*
G01*
X53497255Y-50335083D01*
X53701020Y-50461073D01*
X53715441Y-50473937D01*
X53823563Y-50605084D01*
X53912073Y-50771783D01*
X53976861Y-50955323D01*
X54013819Y-51136994D01*
X54018839Y-51298084D01*
X53987812Y-51419885D01*
X53935449Y-51475843D01*
X53865129Y-51490520D01*
X53719504Y-51502644D01*
X53507908Y-51511812D01*
X53239676Y-51517620D01*
X52924141Y-51519666D01*
X51989896Y-51519666D01*
X52055836Y-51297416D01*
X52177446Y-50975414D01*
X52334125Y-50699762D01*
X52517422Y-50482111D01*
X52718886Y-50334108D01*
X52773274Y-50308443D01*
X53005032Y-50253788D01*
X53255809Y-50264328D01*
G37*
X53255809Y-50264328D02*
X53497255Y-50335083D01*
X53701020Y-50461073D01*
X53715441Y-50473937D01*
X53823563Y-50605084D01*
X53912073Y-50771783D01*
X53976861Y-50955323D01*
X54013819Y-51136994D01*
X54018839Y-51298084D01*
X53987812Y-51419885D01*
X53935449Y-51475843D01*
X53865129Y-51490520D01*
X53719504Y-51502644D01*
X53507908Y-51511812D01*
X53239676Y-51517620D01*
X52924141Y-51519666D01*
X51989896Y-51519666D01*
X52055836Y-51297416D01*
X52177446Y-50975414D01*
X52334125Y-50699762D01*
X52517422Y-50482111D01*
X52718886Y-50334108D01*
X52773274Y-50308443D01*
X53005032Y-50253788D01*
X53255809Y-50264328D01*
G36*
X53622834Y-40468523D02*
G01*
X53628094Y-40580521D01*
X53632298Y-40751472D01*
X53635141Y-40968517D01*
X53636318Y-41218801D01*
X53636333Y-41250950D01*
X53636333Y-42073568D01*
X53511195Y-42162674D01*
X53286975Y-42294382D01*
X53049632Y-42386097D01*
X52820881Y-42432201D01*
X52622438Y-42427075D01*
X52556833Y-42409576D01*
X52326898Y-42285760D01*
X52159336Y-42108006D01*
X52059875Y-41885301D01*
X52034242Y-41626633D01*
X52036451Y-41592968D01*
X52056318Y-41447872D01*
X52095897Y-41326204D01*
X52164928Y-41218847D01*
X52273150Y-41116680D01*
X52430301Y-41010582D01*
X52646121Y-40891434D01*
X52930348Y-40750116D01*
X52943056Y-40743980D01*
X53158445Y-40640587D01*
X53346289Y-40551407D01*
X53493796Y-40482434D01*
X53588172Y-40439660D01*
X53616822Y-40428333D01*
X53622834Y-40468523D01*
G37*
X53622834Y-40468523D02*
X53628094Y-40580521D01*
X53632298Y-40751472D01*
X53635141Y-40968517D01*
X53636318Y-41218801D01*
X53636333Y-41250950D01*
X53636333Y-42073568D01*
X53511195Y-42162674D01*
X53286975Y-42294382D01*
X53049632Y-42386097D01*
X52820881Y-42432201D01*
X52622438Y-42427075D01*
X52556833Y-42409576D01*
X52326898Y-42285760D01*
X52159336Y-42108006D01*
X52059875Y-41885301D01*
X52034242Y-41626633D01*
X52036451Y-41592968D01*
X52056318Y-41447872D01*
X52095897Y-41326204D01*
X52164928Y-41218847D01*
X52273150Y-41116680D01*
X52430301Y-41010582D01*
X52646121Y-40891434D01*
X52930348Y-40750116D01*
X52943056Y-40743980D01*
X53158445Y-40640587D01*
X53346289Y-40551407D01*
X53493796Y-40482434D01*
X53588172Y-40439660D01*
X53616822Y-40428333D01*
X53622834Y-40468523D01*
%TD*%
M02*
