%TF.GenerationSoftware,KiCad,Pcbnew,(5.1.6-0-10_14)*%
%TF.CreationDate,2020-09-30T16:11:26+02:00*%
%TF.ProjectId,corne-top-plate,636f726e-652d-4746-9f70-2d706c617465,2.1*%
%TF.SameCoordinates,Original*%
%TF.FileFunction,Legend,Bot*%
%TF.FilePolarity,Positive*%
%FSLAX46Y46*%
G04 Gerber Fmt 4.6, Leading zero omitted, Abs format (unit mm)*
G04 Created by KiCad (PCBNEW (5.1.6-0-10_14)) date 2020-09-30 16:11:26*
%MOMM*%
%LPD*%
G01*
G04 APERTURE LIST*
%ADD10C,0.010000*%
G04 APERTURE END LIST*
D10*
%TO.C,G\u002A\u002A\u002A*%
G36*
X393164509Y-121373791D02*
G01*
X393070425Y-121377451D01*
X393000010Y-121386455D01*
X392939699Y-121403181D01*
X392875930Y-121430005D01*
X392821749Y-121456171D01*
X392650702Y-121564513D01*
X392517452Y-121703673D01*
X392420121Y-121876378D01*
X392356832Y-122085354D01*
X392345425Y-122147800D01*
X392338136Y-122218770D01*
X392331597Y-122331525D01*
X392326097Y-122477049D01*
X392321926Y-122646330D01*
X392319373Y-122830353D01*
X392318692Y-122979650D01*
X392318500Y-123646400D01*
X392750300Y-123646400D01*
X392750300Y-122927110D01*
X392750907Y-122698457D01*
X392752900Y-122514758D01*
X392756537Y-122370177D01*
X392762078Y-122258882D01*
X392769781Y-122175037D01*
X392779905Y-122112809D01*
X392787803Y-122081534D01*
X392852563Y-121943307D01*
X392953470Y-121840106D01*
X393088897Y-121772984D01*
X393257220Y-121742999D01*
X393311688Y-121741400D01*
X393474159Y-121751817D01*
X393604138Y-121786694D01*
X393716236Y-121851472D01*
X393796140Y-121921726D01*
X393850327Y-121978731D01*
X393893709Y-122034501D01*
X393927477Y-122095365D01*
X393952821Y-122167652D01*
X393970933Y-122257689D01*
X393983004Y-122371805D01*
X393990223Y-122516327D01*
X393993783Y-122697585D01*
X393994874Y-122921907D01*
X393994900Y-122977910D01*
X393994900Y-123646400D01*
X394426700Y-123646400D01*
X394426700Y-121385800D01*
X393994900Y-121385800D01*
X393994900Y-121643707D01*
X393912636Y-121561442D01*
X393826248Y-121485836D01*
X393735545Y-121432569D01*
X393629522Y-121398282D01*
X393497176Y-121379616D01*
X393327505Y-121373211D01*
X393295826Y-121373100D01*
X393164509Y-121373791D01*
G37*
X393164509Y-121373791D02*
X393070425Y-121377451D01*
X393000010Y-121386455D01*
X392939699Y-121403181D01*
X392875930Y-121430005D01*
X392821749Y-121456171D01*
X392650702Y-121564513D01*
X392517452Y-121703673D01*
X392420121Y-121876378D01*
X392356832Y-122085354D01*
X392345425Y-122147800D01*
X392338136Y-122218770D01*
X392331597Y-122331525D01*
X392326097Y-122477049D01*
X392321926Y-122646330D01*
X392319373Y-122830353D01*
X392318692Y-122979650D01*
X392318500Y-123646400D01*
X392750300Y-123646400D01*
X392750300Y-122927110D01*
X392750907Y-122698457D01*
X392752900Y-122514758D01*
X392756537Y-122370177D01*
X392762078Y-122258882D01*
X392769781Y-122175037D01*
X392779905Y-122112809D01*
X392787803Y-122081534D01*
X392852563Y-121943307D01*
X392953470Y-121840106D01*
X393088897Y-121772984D01*
X393257220Y-121742999D01*
X393311688Y-121741400D01*
X393474159Y-121751817D01*
X393604138Y-121786694D01*
X393716236Y-121851472D01*
X393796140Y-121921726D01*
X393850327Y-121978731D01*
X393893709Y-122034501D01*
X393927477Y-122095365D01*
X393952821Y-122167652D01*
X393970933Y-122257689D01*
X393983004Y-122371805D01*
X393990223Y-122516327D01*
X393993783Y-122697585D01*
X393994874Y-122921907D01*
X393994900Y-122977910D01*
X393994900Y-123646400D01*
X394426700Y-123646400D01*
X394426700Y-121385800D01*
X393994900Y-121385800D01*
X393994900Y-121643707D01*
X393912636Y-121561442D01*
X393826248Y-121485836D01*
X393735545Y-121432569D01*
X393629522Y-121398282D01*
X393497176Y-121379616D01*
X393327505Y-121373211D01*
X393295826Y-121373100D01*
X393164509Y-121373791D01*
G36*
X394826763Y-121350436D02*
G01*
X394680700Y-121366961D01*
X394680700Y-121737729D01*
X394814050Y-121724068D01*
X394998149Y-121729139D01*
X395167548Y-121780922D01*
X395316119Y-121876056D01*
X395437734Y-122011179D01*
X395486611Y-122092869D01*
X395569700Y-122253838D01*
X395569700Y-123646400D01*
X396001500Y-123646400D01*
X396001500Y-121383745D01*
X395791950Y-121391122D01*
X395582400Y-121398500D01*
X395557000Y-121620358D01*
X395506231Y-121563946D01*
X395388054Y-121467357D01*
X395236202Y-121396267D01*
X395062958Y-121354536D01*
X394880610Y-121346025D01*
X394826763Y-121350436D01*
G37*
X394826763Y-121350436D02*
X394680700Y-121366961D01*
X394680700Y-121737729D01*
X394814050Y-121724068D01*
X394998149Y-121729139D01*
X395167548Y-121780922D01*
X395316119Y-121876056D01*
X395437734Y-122011179D01*
X395486611Y-122092869D01*
X395569700Y-122253838D01*
X395569700Y-123646400D01*
X396001500Y-123646400D01*
X396001500Y-121383745D01*
X395791950Y-121391122D01*
X395582400Y-121398500D01*
X395557000Y-121620358D01*
X395506231Y-121563946D01*
X395388054Y-121467357D01*
X395236202Y-121396267D01*
X395062958Y-121354536D01*
X394880610Y-121346025D01*
X394826763Y-121350436D01*
G36*
X390632470Y-121383406D02*
G01*
X390410106Y-121449705D01*
X390211867Y-121555213D01*
X390041921Y-121695847D01*
X389904441Y-121867524D01*
X389803596Y-122066162D01*
X389743557Y-122287678D01*
X389727700Y-122483336D01*
X389727700Y-122630400D01*
X391632700Y-122630400D01*
X391632700Y-122703498D01*
X391609783Y-122826649D01*
X391546345Y-122954172D01*
X391450357Y-123075298D01*
X391329789Y-123179256D01*
X391240612Y-123233239D01*
X391104758Y-123284647D01*
X390944096Y-123309683D01*
X390931128Y-123310596D01*
X390748871Y-123308127D01*
X390595197Y-123271329D01*
X390457505Y-123195614D01*
X390342807Y-123096419D01*
X390206987Y-122960600D01*
X390003732Y-122960600D01*
X389903189Y-122961246D01*
X389843967Y-122965122D01*
X389816590Y-122975133D01*
X389811581Y-122994182D01*
X389817270Y-123017750D01*
X389855583Y-123103398D01*
X389920501Y-123206086D01*
X390000226Y-123309606D01*
X390082956Y-123397746D01*
X390113143Y-123424173D01*
X390312010Y-123553773D01*
X390534698Y-123643237D01*
X390771404Y-123690509D01*
X391012327Y-123693535D01*
X391223643Y-123657004D01*
X391444755Y-123572879D01*
X391639575Y-123449023D01*
X391803175Y-123290554D01*
X391930626Y-123102590D01*
X392016999Y-122890249D01*
X392036156Y-122813299D01*
X392066692Y-122563242D01*
X392052959Y-122323661D01*
X392040778Y-122274800D01*
X391631443Y-122274800D01*
X390908172Y-122274800D01*
X390695586Y-122274528D01*
X390528501Y-122273521D01*
X390401621Y-122271494D01*
X390309649Y-122268158D01*
X390247288Y-122263229D01*
X390209241Y-122256420D01*
X390190212Y-122247444D01*
X390184903Y-122236014D01*
X390184900Y-122235688D01*
X390205277Y-122153758D01*
X390259975Y-122058173D01*
X390339348Y-121960722D01*
X390433752Y-121873195D01*
X390533539Y-121807383D01*
X390536597Y-121805826D01*
X390675653Y-121758277D01*
X390839767Y-121737014D01*
X391010572Y-121741960D01*
X391169702Y-121773039D01*
X391261440Y-121808844D01*
X391407974Y-121910486D01*
X391526851Y-122051797D01*
X391607235Y-122211127D01*
X391631443Y-122274800D01*
X392040778Y-122274800D01*
X391997133Y-122099735D01*
X391901394Y-121896643D01*
X391767921Y-121719563D01*
X391598892Y-121573672D01*
X391486001Y-121505689D01*
X391291397Y-121421746D01*
X391094074Y-121374901D01*
X390874787Y-121360400D01*
X390632470Y-121383406D01*
G37*
X390632470Y-121383406D02*
X390410106Y-121449705D01*
X390211867Y-121555213D01*
X390041921Y-121695847D01*
X389904441Y-121867524D01*
X389803596Y-122066162D01*
X389743557Y-122287678D01*
X389727700Y-122483336D01*
X389727700Y-122630400D01*
X391632700Y-122630400D01*
X391632700Y-122703498D01*
X391609783Y-122826649D01*
X391546345Y-122954172D01*
X391450357Y-123075298D01*
X391329789Y-123179256D01*
X391240612Y-123233239D01*
X391104758Y-123284647D01*
X390944096Y-123309683D01*
X390931128Y-123310596D01*
X390748871Y-123308127D01*
X390595197Y-123271329D01*
X390457505Y-123195614D01*
X390342807Y-123096419D01*
X390206987Y-122960600D01*
X390003732Y-122960600D01*
X389903189Y-122961246D01*
X389843967Y-122965122D01*
X389816590Y-122975133D01*
X389811581Y-122994182D01*
X389817270Y-123017750D01*
X389855583Y-123103398D01*
X389920501Y-123206086D01*
X390000226Y-123309606D01*
X390082956Y-123397746D01*
X390113143Y-123424173D01*
X390312010Y-123553773D01*
X390534698Y-123643237D01*
X390771404Y-123690509D01*
X391012327Y-123693535D01*
X391223643Y-123657004D01*
X391444755Y-123572879D01*
X391639575Y-123449023D01*
X391803175Y-123290554D01*
X391930626Y-123102590D01*
X392016999Y-122890249D01*
X392036156Y-122813299D01*
X392066692Y-122563242D01*
X392052959Y-122323661D01*
X392040778Y-122274800D01*
X391631443Y-122274800D01*
X390908172Y-122274800D01*
X390695586Y-122274528D01*
X390528501Y-122273521D01*
X390401621Y-122271494D01*
X390309649Y-122268158D01*
X390247288Y-122263229D01*
X390209241Y-122256420D01*
X390190212Y-122247444D01*
X390184903Y-122236014D01*
X390184900Y-122235688D01*
X390205277Y-122153758D01*
X390259975Y-122058173D01*
X390339348Y-121960722D01*
X390433752Y-121873195D01*
X390533539Y-121807383D01*
X390536597Y-121805826D01*
X390675653Y-121758277D01*
X390839767Y-121737014D01*
X391010572Y-121741960D01*
X391169702Y-121773039D01*
X391261440Y-121808844D01*
X391407974Y-121910486D01*
X391526851Y-122051797D01*
X391607235Y-122211127D01*
X391631443Y-122274800D01*
X392040778Y-122274800D01*
X391997133Y-122099735D01*
X391901394Y-121896643D01*
X391767921Y-121719563D01*
X391598892Y-121573672D01*
X391486001Y-121505689D01*
X391291397Y-121421746D01*
X391094074Y-121374901D01*
X390874787Y-121360400D01*
X390632470Y-121383406D01*
G36*
X397424014Y-121366840D02*
G01*
X397170560Y-121402111D01*
X396942475Y-121478807D01*
X396742825Y-121594865D01*
X396574675Y-121748222D01*
X396441092Y-121936816D01*
X396376544Y-122071600D01*
X396344982Y-122185705D01*
X396324715Y-122333371D01*
X396315970Y-122498580D01*
X396318975Y-122665313D01*
X396333957Y-122817551D01*
X396361144Y-122939275D01*
X396364095Y-122947900D01*
X396460481Y-123145172D01*
X396599725Y-123321574D01*
X396776321Y-123471769D01*
X396984759Y-123590421D01*
X397059660Y-123621770D01*
X397191679Y-123658019D01*
X397354665Y-123681467D01*
X397530219Y-123691287D01*
X397699940Y-123686650D01*
X397845426Y-123666729D01*
X397878247Y-123658599D01*
X398092147Y-123576401D01*
X398286879Y-123458093D01*
X398453845Y-123310635D01*
X398584444Y-123140986D01*
X398635318Y-123045895D01*
X398673663Y-122943102D01*
X398707849Y-122818876D01*
X398727901Y-122715628D01*
X398735252Y-122574224D01*
X398310926Y-122574224D01*
X398296591Y-122721866D01*
X398276459Y-122803207D01*
X398223206Y-122915941D01*
X398142805Y-123031333D01*
X398048822Y-123132702D01*
X397954826Y-123203365D01*
X397948042Y-123207020D01*
X397751302Y-123283118D01*
X397546311Y-123313463D01*
X397342896Y-123297243D01*
X397230336Y-123266468D01*
X397053056Y-123179347D01*
X396908590Y-123055677D01*
X396801413Y-122899341D01*
X396796980Y-122890466D01*
X396743990Y-122734401D01*
X396722007Y-122557298D01*
X396731361Y-122378017D01*
X396772379Y-122215421D01*
X396784711Y-122185900D01*
X396882042Y-122026906D01*
X397009739Y-121902092D01*
X397160436Y-121811623D01*
X397326764Y-121755666D01*
X397501358Y-121734386D01*
X397676851Y-121747949D01*
X397845876Y-121796522D01*
X398001066Y-121880270D01*
X398135055Y-121999360D01*
X398240035Y-122153101D01*
X398281581Y-122270807D01*
X398305567Y-122417526D01*
X398310926Y-122574224D01*
X398735252Y-122574224D01*
X398740762Y-122468236D01*
X398708350Y-122233693D01*
X398633150Y-122017052D01*
X398517643Y-121823365D01*
X398364313Y-121657687D01*
X398175640Y-121525069D01*
X398131581Y-121501803D01*
X397957295Y-121427053D01*
X397785970Y-121382281D01*
X397600095Y-121364147D01*
X397424014Y-121366840D01*
G37*
X397424014Y-121366840D02*
X397170560Y-121402111D01*
X396942475Y-121478807D01*
X396742825Y-121594865D01*
X396574675Y-121748222D01*
X396441092Y-121936816D01*
X396376544Y-122071600D01*
X396344982Y-122185705D01*
X396324715Y-122333371D01*
X396315970Y-122498580D01*
X396318975Y-122665313D01*
X396333957Y-122817551D01*
X396361144Y-122939275D01*
X396364095Y-122947900D01*
X396460481Y-123145172D01*
X396599725Y-123321574D01*
X396776321Y-123471769D01*
X396984759Y-123590421D01*
X397059660Y-123621770D01*
X397191679Y-123658019D01*
X397354665Y-123681467D01*
X397530219Y-123691287D01*
X397699940Y-123686650D01*
X397845426Y-123666729D01*
X397878247Y-123658599D01*
X398092147Y-123576401D01*
X398286879Y-123458093D01*
X398453845Y-123310635D01*
X398584444Y-123140986D01*
X398635318Y-123045895D01*
X398673663Y-122943102D01*
X398707849Y-122818876D01*
X398727901Y-122715628D01*
X398735252Y-122574224D01*
X398310926Y-122574224D01*
X398296591Y-122721866D01*
X398276459Y-122803207D01*
X398223206Y-122915941D01*
X398142805Y-123031333D01*
X398048822Y-123132702D01*
X397954826Y-123203365D01*
X397948042Y-123207020D01*
X397751302Y-123283118D01*
X397546311Y-123313463D01*
X397342896Y-123297243D01*
X397230336Y-123266468D01*
X397053056Y-123179347D01*
X396908590Y-123055677D01*
X396801413Y-122899341D01*
X396796980Y-122890466D01*
X396743990Y-122734401D01*
X396722007Y-122557298D01*
X396731361Y-122378017D01*
X396772379Y-122215421D01*
X396784711Y-122185900D01*
X396882042Y-122026906D01*
X397009739Y-121902092D01*
X397160436Y-121811623D01*
X397326764Y-121755666D01*
X397501358Y-121734386D01*
X397676851Y-121747949D01*
X397845876Y-121796522D01*
X398001066Y-121880270D01*
X398135055Y-121999360D01*
X398240035Y-122153101D01*
X398281581Y-122270807D01*
X398305567Y-122417526D01*
X398310926Y-122574224D01*
X398735252Y-122574224D01*
X398740762Y-122468236D01*
X398708350Y-122233693D01*
X398633150Y-122017052D01*
X398517643Y-121823365D01*
X398364313Y-121657687D01*
X398175640Y-121525069D01*
X398131581Y-121501803D01*
X397957295Y-121427053D01*
X397785970Y-121382281D01*
X397600095Y-121364147D01*
X397424014Y-121366840D01*
G36*
X399806951Y-121380988D02*
G01*
X399692252Y-121407102D01*
X399471150Y-121497639D01*
X399279707Y-121624036D01*
X399122778Y-121781988D01*
X399005218Y-121967188D01*
X398970563Y-122047254D01*
X398936536Y-122140731D01*
X398924917Y-122199761D01*
X398942202Y-122232261D01*
X398994888Y-122246149D01*
X399089471Y-122249343D01*
X399136431Y-122249400D01*
X399350361Y-122249399D01*
X399381267Y-122155754D01*
X399447857Y-122029894D01*
X399554362Y-121918503D01*
X399690537Y-121828012D01*
X399846136Y-121764854D01*
X400010915Y-121735461D01*
X400052801Y-121734142D01*
X400235131Y-121756910D01*
X400405435Y-121821221D01*
X400554984Y-121921089D01*
X400675047Y-122050526D01*
X400756895Y-122203547D01*
X400763093Y-122221267D01*
X400796644Y-122379924D01*
X400802427Y-122555402D01*
X400781741Y-122729327D01*
X400735887Y-122883322D01*
X400712825Y-122931531D01*
X400607096Y-123082138D01*
X400472221Y-123194303D01*
X400324898Y-123265915D01*
X400146211Y-123308926D01*
X399966741Y-123308773D01*
X399794928Y-123268785D01*
X399639210Y-123192291D01*
X399508026Y-123082622D01*
X399409816Y-122943106D01*
X399388233Y-122896389D01*
X399341600Y-122782990D01*
X399132050Y-122782895D01*
X399029332Y-122783561D01*
X398967216Y-122787620D01*
X398935505Y-122797992D01*
X398924003Y-122817594D01*
X398922500Y-122842887D01*
X398938025Y-122917902D01*
X398979576Y-123017781D01*
X399039622Y-123129252D01*
X399110631Y-123239041D01*
X399185071Y-123333876D01*
X399223962Y-123374119D01*
X399403736Y-123509131D01*
X399612593Y-123609811D01*
X399839440Y-123672913D01*
X400073182Y-123695194D01*
X400268700Y-123679664D01*
X400461913Y-123628943D01*
X400649549Y-123545877D01*
X400819240Y-123437860D01*
X400958617Y-123312289D01*
X401025511Y-123227165D01*
X401106840Y-123092841D01*
X401162730Y-122967887D01*
X401197309Y-122837138D01*
X401214707Y-122685430D01*
X401219086Y-122516100D01*
X401217581Y-122375194D01*
X401211879Y-122271188D01*
X401200202Y-122190236D01*
X401180770Y-122118494D01*
X401161149Y-122065197D01*
X401055503Y-121865543D01*
X400909238Y-121689026D01*
X400730124Y-121543316D01*
X400525931Y-121436085D01*
X400522700Y-121434802D01*
X400366717Y-121390914D01*
X400182745Y-121366892D01*
X399989813Y-121363372D01*
X399806951Y-121380988D01*
G37*
X399806951Y-121380988D02*
X399692252Y-121407102D01*
X399471150Y-121497639D01*
X399279707Y-121624036D01*
X399122778Y-121781988D01*
X399005218Y-121967188D01*
X398970563Y-122047254D01*
X398936536Y-122140731D01*
X398924917Y-122199761D01*
X398942202Y-122232261D01*
X398994888Y-122246149D01*
X399089471Y-122249343D01*
X399136431Y-122249400D01*
X399350361Y-122249399D01*
X399381267Y-122155754D01*
X399447857Y-122029894D01*
X399554362Y-121918503D01*
X399690537Y-121828012D01*
X399846136Y-121764854D01*
X400010915Y-121735461D01*
X400052801Y-121734142D01*
X400235131Y-121756910D01*
X400405435Y-121821221D01*
X400554984Y-121921089D01*
X400675047Y-122050526D01*
X400756895Y-122203547D01*
X400763093Y-122221267D01*
X400796644Y-122379924D01*
X400802427Y-122555402D01*
X400781741Y-122729327D01*
X400735887Y-122883322D01*
X400712825Y-122931531D01*
X400607096Y-123082138D01*
X400472221Y-123194303D01*
X400324898Y-123265915D01*
X400146211Y-123308926D01*
X399966741Y-123308773D01*
X399794928Y-123268785D01*
X399639210Y-123192291D01*
X399508026Y-123082622D01*
X399409816Y-122943106D01*
X399388233Y-122896389D01*
X399341600Y-122782990D01*
X399132050Y-122782895D01*
X399029332Y-122783561D01*
X398967216Y-122787620D01*
X398935505Y-122797992D01*
X398924003Y-122817594D01*
X398922500Y-122842887D01*
X398938025Y-122917902D01*
X398979576Y-123017781D01*
X399039622Y-123129252D01*
X399110631Y-123239041D01*
X399185071Y-123333876D01*
X399223962Y-123374119D01*
X399403736Y-123509131D01*
X399612593Y-123609811D01*
X399839440Y-123672913D01*
X400073182Y-123695194D01*
X400268700Y-123679664D01*
X400461913Y-123628943D01*
X400649549Y-123545877D01*
X400819240Y-123437860D01*
X400958617Y-123312289D01*
X401025511Y-123227165D01*
X401106840Y-123092841D01*
X401162730Y-122967887D01*
X401197309Y-122837138D01*
X401214707Y-122685430D01*
X401219086Y-122516100D01*
X401217581Y-122375194D01*
X401211879Y-122271188D01*
X401200202Y-122190236D01*
X401180770Y-122118494D01*
X401161149Y-122065197D01*
X401055503Y-121865543D01*
X400909238Y-121689026D01*
X400730124Y-121543316D01*
X400525931Y-121436085D01*
X400522700Y-121434802D01*
X400366717Y-121390914D01*
X400182745Y-121366892D01*
X399989813Y-121363372D01*
X399806951Y-121380988D01*
%TD*%
M02*
