%TF.GenerationSoftware,KiCad,Pcbnew,(5.1.6-0-10_14)*%
%TF.CreationDate,2020-09-30T16:11:26+02:00*%
%TF.ProjectId,corne-top-plate,636f726e-652d-4746-9f70-2d706c617465,2.1*%
%TF.SameCoordinates,Original*%
%TF.FileFunction,Legend,Top*%
%TF.FilePolarity,Positive*%
%FSLAX46Y46*%
G04 Gerber Fmt 4.6, Leading zero omitted, Abs format (unit mm)*
G04 Created by KiCad (PCBNEW (5.1.6-0-10_14)) date 2020-09-30 16:11:26*
%MOMM*%
%LPD*%
G01*
G04 APERTURE LIST*
%ADD10C,0.150000*%
%ADD11C,0.400000*%
%ADD12C,0.500000*%
%ADD13C,3.500000*%
%ADD14C,1.000000*%
%ADD15C,3.000000*%
%ADD16C,0.800000*%
%ADD17C,0.300000*%
%ADD18C,0.010000*%
G04 APERTURE END LIST*
D10*
X363451238Y-141950619D02*
X363927428Y-141950619D01*
X363927428Y-142950619D01*
X363117904Y-142474428D02*
X362784571Y-142474428D01*
X362641714Y-141950619D02*
X363117904Y-141950619D01*
X363117904Y-142950619D01*
X362641714Y-142950619D01*
X362213142Y-141950619D02*
X362213142Y-142950619D01*
X361975047Y-142950619D01*
X361832190Y-142903000D01*
X361736952Y-142807761D01*
X361689333Y-142712523D01*
X361641714Y-142522047D01*
X361641714Y-142379190D01*
X361689333Y-142188714D01*
X361736952Y-142093476D01*
X361832190Y-141998238D01*
X361975047Y-141950619D01*
X362213142Y-141950619D01*
X360736952Y-142950619D02*
X361213142Y-142950619D01*
X361260761Y-142474428D01*
X361213142Y-142522047D01*
X361117904Y-142569666D01*
X360879809Y-142569666D01*
X360784571Y-142522047D01*
X360736952Y-142474428D01*
X360689333Y-142379190D01*
X360689333Y-142141095D01*
X360736952Y-142045857D01*
X360784571Y-141998238D01*
X360879809Y-141950619D01*
X361117904Y-141950619D01*
X361213142Y-141998238D01*
X361260761Y-142045857D01*
X360356000Y-142950619D02*
X359689333Y-142950619D01*
X360117904Y-141950619D01*
D11*
%TO.C,SW30*%
X391279500Y-85190000D02*
X392529500Y-85190000D01*
D12*
X400979500Y-90290000D02*
X398529500Y-90290000D01*
D10*
X391129500Y-84990000D02*
X399329501Y-84990000D01*
X395929500Y-88590000D02*
X391129500Y-88590000D01*
X401179500Y-90490000D02*
X398149500Y-90490000D01*
X401429500Y-86890000D02*
X401429500Y-87640000D01*
X401179500Y-86040000D02*
X401179500Y-90490000D01*
X401429500Y-87640000D02*
X401229500Y-87640000D01*
X391149500Y-87590000D02*
X391149500Y-85340000D01*
X391129500Y-88590000D02*
X391129500Y-84990000D01*
D13*
X392929500Y-86790000D02*
X399629500Y-86790000D01*
D14*
X391629500Y-85590000D02*
X391629500Y-88090000D01*
D12*
X391329500Y-88340000D02*
X392629500Y-88290000D01*
D15*
X399699500Y-86490000D02*
X399699500Y-88730000D01*
D16*
X400829500Y-89990000D02*
X400829500Y-88190001D01*
D17*
X401329500Y-87540000D02*
X401329500Y-86890000D01*
D14*
X398545818Y-90068529D02*
G75*
G03*
X396329500Y-88190000I-2151318J-291471D01*
G01*
D10*
X401429500Y-86890001D02*
G75*
G03*
X399329501Y-84990000I-2000000J-99999D01*
G01*
X398145818Y-90468529D02*
G75*
G03*
X395929500Y-88590000I-2151318J-291471D01*
G01*
D11*
%TO.C,SW41*%
X436062963Y-155177925D02*
X436687963Y-154095393D01*
D12*
X445329693Y-149327479D02*
X444104693Y-151449241D01*
D10*
X435814758Y-155207829D02*
X439914759Y-148106420D01*
X441332450Y-152850907D02*
X438932450Y-157007829D01*
X445602898Y-149254273D02*
X444087898Y-151878330D01*
X442610207Y-147237767D02*
X443259726Y-147612767D01*
X441749085Y-147029273D02*
X445602898Y-149254273D01*
X443259726Y-147612767D02*
X443159726Y-147785972D01*
X438076424Y-156490508D02*
X436127867Y-155365508D01*
X438932450Y-157007829D02*
X435814758Y-155207829D01*
D13*
X438273604Y-154548983D02*
X441623604Y-148746613D01*
D14*
X436584374Y-155074816D02*
X438749437Y-156324816D01*
D12*
X438815943Y-156709624D02*
X439422642Y-155558791D01*
D15*
X441398796Y-148535991D02*
X443338693Y-149655991D01*
D16*
X444994885Y-149307382D02*
X443436040Y-148407383D01*
D17*
X443123123Y-147649370D02*
X442560207Y-147324370D01*
D14*
X443921053Y-151324374D02*
G75*
G03*
X441186040Y-152304497I-823238J-2008831D01*
G01*
D10*
X442610207Y-147237768D02*
G75*
G03*
X439914759Y-148106420I-913398J-1782050D01*
G01*
X444067463Y-151870784D02*
G75*
G03*
X441332450Y-152850907I-823238J-2008831D01*
G01*
D11*
%TO.C,SW28*%
X353279500Y-89940000D02*
X354529500Y-89940000D01*
D12*
X362979500Y-95040000D02*
X360529500Y-95040000D01*
D10*
X353129500Y-89740000D02*
X361329501Y-89740000D01*
X357929500Y-93340000D02*
X353129500Y-93340000D01*
X363179500Y-95240000D02*
X360149500Y-95240000D01*
X363429500Y-91640000D02*
X363429500Y-92390000D01*
X363179500Y-90790000D02*
X363179500Y-95240000D01*
X363429500Y-92390000D02*
X363229500Y-92390000D01*
X353149500Y-92340000D02*
X353149500Y-90090000D01*
X353129500Y-93340000D02*
X353129500Y-89740000D01*
D13*
X354929500Y-91540000D02*
X361629500Y-91540000D01*
D14*
X353629500Y-90340000D02*
X353629500Y-92840000D01*
D12*
X353329500Y-93090000D02*
X354629500Y-93040000D01*
D15*
X361699500Y-91240000D02*
X361699500Y-93480000D01*
D16*
X362829500Y-94740000D02*
X362829500Y-92940001D01*
D17*
X363329500Y-92290000D02*
X363329500Y-91640000D01*
D14*
X360545818Y-94818529D02*
G75*
G03*
X358329500Y-92940000I-2151318J-291471D01*
G01*
D10*
X363429500Y-91640001D02*
G75*
G03*
X361329501Y-89740000I-2000000J-99999D01*
G01*
X360145818Y-95218529D02*
G75*
G03*
X357929500Y-93340000I-2151318J-291471D01*
G01*
D11*
%TO.C,SW27*%
X448286500Y-68570000D02*
X449536500Y-68570000D01*
D12*
X457986500Y-73670000D02*
X455536500Y-73670000D01*
D10*
X448136500Y-68370000D02*
X456336501Y-68370000D01*
X452936500Y-71970000D02*
X448136500Y-71970000D01*
X458186500Y-73870000D02*
X455156500Y-73870000D01*
X458436500Y-70270000D02*
X458436500Y-71020000D01*
X458186500Y-69420000D02*
X458186500Y-73870000D01*
X458436500Y-71020000D02*
X458236500Y-71020000D01*
X448156500Y-70970000D02*
X448156500Y-68720000D01*
X448136500Y-71970000D02*
X448136500Y-68370000D01*
D13*
X449936500Y-70170000D02*
X456636500Y-70170000D01*
D14*
X448636500Y-68970000D02*
X448636500Y-71470000D01*
D12*
X448336500Y-71720000D02*
X449636500Y-71670000D01*
D15*
X456706500Y-69870000D02*
X456706500Y-72110000D01*
D16*
X457836500Y-73370000D02*
X457836500Y-71570001D01*
D17*
X458336500Y-70920000D02*
X458336500Y-70270000D01*
D14*
X455552818Y-73448529D02*
G75*
G03*
X453336500Y-71570000I-2151318J-291471D01*
G01*
D10*
X458436500Y-70270001D02*
G75*
G03*
X456336501Y-68370000I-2000000J-99999D01*
G01*
X455152818Y-73848529D02*
G75*
G03*
X452936500Y-71970000I-2151318J-291471D01*
G01*
D11*
%TO.C,SW26*%
X429279500Y-66190000D02*
X430529500Y-66190000D01*
D12*
X438979500Y-71290000D02*
X436529500Y-71290000D01*
D10*
X429129500Y-65990000D02*
X437329501Y-65990000D01*
X433929500Y-69590000D02*
X429129500Y-69590000D01*
X439179500Y-71490000D02*
X436149500Y-71490000D01*
X439429500Y-67890000D02*
X439429500Y-68640000D01*
X439179500Y-67040000D02*
X439179500Y-71490000D01*
X439429500Y-68640000D02*
X439229500Y-68640000D01*
X429149500Y-68590000D02*
X429149500Y-66340000D01*
X429129500Y-69590000D02*
X429129500Y-65990000D01*
D13*
X430929500Y-67790000D02*
X437629500Y-67790000D01*
D14*
X429629500Y-66590000D02*
X429629500Y-69090000D01*
D12*
X429329500Y-69340000D02*
X430629500Y-69290000D01*
D15*
X437699500Y-67490000D02*
X437699500Y-69730000D01*
D16*
X438829500Y-70990000D02*
X438829500Y-69190001D01*
D17*
X439329500Y-68540000D02*
X439329500Y-67890000D01*
D14*
X436545818Y-71068529D02*
G75*
G03*
X434329500Y-69190000I-2151318J-291471D01*
G01*
D10*
X439429500Y-67890001D02*
G75*
G03*
X437329501Y-65990000I-2000000J-99999D01*
G01*
X436145818Y-71468529D02*
G75*
G03*
X433929500Y-69590000I-2151318J-291471D01*
G01*
D11*
%TO.C,SW39*%
X448279500Y-106565000D02*
X449529500Y-106565000D01*
D12*
X457979500Y-111665000D02*
X455529500Y-111665000D01*
D10*
X448129500Y-106365000D02*
X456329501Y-106365000D01*
X452929500Y-109965000D02*
X448129500Y-109965000D01*
X458179500Y-111865000D02*
X455149500Y-111865000D01*
X458429500Y-108265000D02*
X458429500Y-109015000D01*
X458179500Y-107415000D02*
X458179500Y-111865000D01*
X458429500Y-109015000D02*
X458229500Y-109015000D01*
X448149500Y-108965000D02*
X448149500Y-106715000D01*
X448129500Y-109965000D02*
X448129500Y-106365000D01*
D13*
X449929500Y-108165000D02*
X456629500Y-108165000D01*
D14*
X448629500Y-106965000D02*
X448629500Y-109465000D01*
D12*
X448329500Y-109715000D02*
X449629500Y-109665000D01*
D15*
X456699500Y-107865000D02*
X456699500Y-110105000D01*
D16*
X457829500Y-111365000D02*
X457829500Y-109565001D01*
D17*
X458329500Y-108915000D02*
X458329500Y-108265000D01*
D14*
X455545818Y-111443529D02*
G75*
G03*
X453329500Y-109565000I-2151318J-291471D01*
G01*
D10*
X458429500Y-108265001D02*
G75*
G03*
X456329501Y-106365000I-2000000J-99999D01*
G01*
X455145818Y-111843529D02*
G75*
G03*
X452929500Y-109965000I-2151318J-291471D01*
G01*
D18*
%TO.C,G\u002A\u002A\u002A*%
G36*
X397778491Y-121373791D02*
G01*
X397872575Y-121377451D01*
X397942990Y-121386455D01*
X398003301Y-121403181D01*
X398067070Y-121430005D01*
X398121251Y-121456171D01*
X398292298Y-121564513D01*
X398425548Y-121703673D01*
X398522879Y-121876378D01*
X398586168Y-122085354D01*
X398597575Y-122147800D01*
X398604864Y-122218770D01*
X398611403Y-122331525D01*
X398616903Y-122477049D01*
X398621074Y-122646330D01*
X398623627Y-122830353D01*
X398624308Y-122979650D01*
X398624500Y-123646400D01*
X398192700Y-123646400D01*
X398192700Y-122927110D01*
X398192093Y-122698457D01*
X398190100Y-122514758D01*
X398186463Y-122370177D01*
X398180922Y-122258882D01*
X398173219Y-122175037D01*
X398163095Y-122112809D01*
X398155197Y-122081534D01*
X398090437Y-121943307D01*
X397989530Y-121840106D01*
X397854103Y-121772984D01*
X397685780Y-121742999D01*
X397631312Y-121741400D01*
X397468841Y-121751817D01*
X397338862Y-121786694D01*
X397226764Y-121851472D01*
X397146860Y-121921726D01*
X397092673Y-121978731D01*
X397049291Y-122034501D01*
X397015523Y-122095365D01*
X396990179Y-122167652D01*
X396972067Y-122257689D01*
X396959996Y-122371805D01*
X396952777Y-122516327D01*
X396949217Y-122697585D01*
X396948126Y-122921907D01*
X396948100Y-122977910D01*
X396948100Y-123646400D01*
X396516300Y-123646400D01*
X396516300Y-121385800D01*
X396948100Y-121385800D01*
X396948100Y-121643707D01*
X397030364Y-121561442D01*
X397116752Y-121485836D01*
X397207455Y-121432569D01*
X397313478Y-121398282D01*
X397445824Y-121379616D01*
X397615495Y-121373211D01*
X397647174Y-121373100D01*
X397778491Y-121373791D01*
G37*
X397778491Y-121373791D02*
X397872575Y-121377451D01*
X397942990Y-121386455D01*
X398003301Y-121403181D01*
X398067070Y-121430005D01*
X398121251Y-121456171D01*
X398292298Y-121564513D01*
X398425548Y-121703673D01*
X398522879Y-121876378D01*
X398586168Y-122085354D01*
X398597575Y-122147800D01*
X398604864Y-122218770D01*
X398611403Y-122331525D01*
X398616903Y-122477049D01*
X398621074Y-122646330D01*
X398623627Y-122830353D01*
X398624308Y-122979650D01*
X398624500Y-123646400D01*
X398192700Y-123646400D01*
X398192700Y-122927110D01*
X398192093Y-122698457D01*
X398190100Y-122514758D01*
X398186463Y-122370177D01*
X398180922Y-122258882D01*
X398173219Y-122175037D01*
X398163095Y-122112809D01*
X398155197Y-122081534D01*
X398090437Y-121943307D01*
X397989530Y-121840106D01*
X397854103Y-121772984D01*
X397685780Y-121742999D01*
X397631312Y-121741400D01*
X397468841Y-121751817D01*
X397338862Y-121786694D01*
X397226764Y-121851472D01*
X397146860Y-121921726D01*
X397092673Y-121978731D01*
X397049291Y-122034501D01*
X397015523Y-122095365D01*
X396990179Y-122167652D01*
X396972067Y-122257689D01*
X396959996Y-122371805D01*
X396952777Y-122516327D01*
X396949217Y-122697585D01*
X396948126Y-122921907D01*
X396948100Y-122977910D01*
X396948100Y-123646400D01*
X396516300Y-123646400D01*
X396516300Y-121385800D01*
X396948100Y-121385800D01*
X396948100Y-121643707D01*
X397030364Y-121561442D01*
X397116752Y-121485836D01*
X397207455Y-121432569D01*
X397313478Y-121398282D01*
X397445824Y-121379616D01*
X397615495Y-121373211D01*
X397647174Y-121373100D01*
X397778491Y-121373791D01*
G36*
X396116237Y-121350436D02*
G01*
X396262300Y-121366961D01*
X396262300Y-121737729D01*
X396128950Y-121724068D01*
X395944851Y-121729139D01*
X395775452Y-121780922D01*
X395626881Y-121876056D01*
X395505266Y-122011179D01*
X395456389Y-122092869D01*
X395373300Y-122253838D01*
X395373300Y-123646400D01*
X394941500Y-123646400D01*
X394941500Y-121383745D01*
X395151050Y-121391122D01*
X395360600Y-121398500D01*
X395386000Y-121620358D01*
X395436769Y-121563946D01*
X395554946Y-121467357D01*
X395706798Y-121396267D01*
X395880042Y-121354536D01*
X396062390Y-121346025D01*
X396116237Y-121350436D01*
G37*
X396116237Y-121350436D02*
X396262300Y-121366961D01*
X396262300Y-121737729D01*
X396128950Y-121724068D01*
X395944851Y-121729139D01*
X395775452Y-121780922D01*
X395626881Y-121876056D01*
X395505266Y-122011179D01*
X395456389Y-122092869D01*
X395373300Y-122253838D01*
X395373300Y-123646400D01*
X394941500Y-123646400D01*
X394941500Y-121383745D01*
X395151050Y-121391122D01*
X395360600Y-121398500D01*
X395386000Y-121620358D01*
X395436769Y-121563946D01*
X395554946Y-121467357D01*
X395706798Y-121396267D01*
X395880042Y-121354536D01*
X396062390Y-121346025D01*
X396116237Y-121350436D01*
G36*
X400310530Y-121383406D02*
G01*
X400532894Y-121449705D01*
X400731133Y-121555213D01*
X400901079Y-121695847D01*
X401038559Y-121867524D01*
X401139404Y-122066162D01*
X401199443Y-122287678D01*
X401215300Y-122483336D01*
X401215300Y-122630400D01*
X399310300Y-122630400D01*
X399310300Y-122703498D01*
X399333217Y-122826649D01*
X399396655Y-122954172D01*
X399492643Y-123075298D01*
X399613211Y-123179256D01*
X399702388Y-123233239D01*
X399838242Y-123284647D01*
X399998904Y-123309683D01*
X400011872Y-123310596D01*
X400194129Y-123308127D01*
X400347803Y-123271329D01*
X400485495Y-123195614D01*
X400600193Y-123096419D01*
X400736013Y-122960600D01*
X400939268Y-122960600D01*
X401039811Y-122961246D01*
X401099033Y-122965122D01*
X401126410Y-122975133D01*
X401131419Y-122994182D01*
X401125730Y-123017750D01*
X401087417Y-123103398D01*
X401022499Y-123206086D01*
X400942774Y-123309606D01*
X400860044Y-123397746D01*
X400829857Y-123424173D01*
X400630990Y-123553773D01*
X400408302Y-123643237D01*
X400171596Y-123690509D01*
X399930673Y-123693535D01*
X399719357Y-123657004D01*
X399498245Y-123572879D01*
X399303425Y-123449023D01*
X399139825Y-123290554D01*
X399012374Y-123102590D01*
X398926001Y-122890249D01*
X398906844Y-122813299D01*
X398876308Y-122563242D01*
X398890041Y-122323661D01*
X398902222Y-122274800D01*
X399311557Y-122274800D01*
X400034828Y-122274800D01*
X400247414Y-122274528D01*
X400414499Y-122273521D01*
X400541379Y-122271494D01*
X400633351Y-122268158D01*
X400695712Y-122263229D01*
X400733759Y-122256420D01*
X400752788Y-122247444D01*
X400758097Y-122236014D01*
X400758100Y-122235688D01*
X400737723Y-122153758D01*
X400683025Y-122058173D01*
X400603652Y-121960722D01*
X400509248Y-121873195D01*
X400409461Y-121807383D01*
X400406403Y-121805826D01*
X400267347Y-121758277D01*
X400103233Y-121737014D01*
X399932428Y-121741960D01*
X399773298Y-121773039D01*
X399681560Y-121808844D01*
X399535026Y-121910486D01*
X399416149Y-122051797D01*
X399335765Y-122211127D01*
X399311557Y-122274800D01*
X398902222Y-122274800D01*
X398945867Y-122099735D01*
X399041606Y-121896643D01*
X399175079Y-121719563D01*
X399344108Y-121573672D01*
X399456999Y-121505689D01*
X399651603Y-121421746D01*
X399848926Y-121374901D01*
X400068213Y-121360400D01*
X400310530Y-121383406D01*
G37*
X400310530Y-121383406D02*
X400532894Y-121449705D01*
X400731133Y-121555213D01*
X400901079Y-121695847D01*
X401038559Y-121867524D01*
X401139404Y-122066162D01*
X401199443Y-122287678D01*
X401215300Y-122483336D01*
X401215300Y-122630400D01*
X399310300Y-122630400D01*
X399310300Y-122703498D01*
X399333217Y-122826649D01*
X399396655Y-122954172D01*
X399492643Y-123075298D01*
X399613211Y-123179256D01*
X399702388Y-123233239D01*
X399838242Y-123284647D01*
X399998904Y-123309683D01*
X400011872Y-123310596D01*
X400194129Y-123308127D01*
X400347803Y-123271329D01*
X400485495Y-123195614D01*
X400600193Y-123096419D01*
X400736013Y-122960600D01*
X400939268Y-122960600D01*
X401039811Y-122961246D01*
X401099033Y-122965122D01*
X401126410Y-122975133D01*
X401131419Y-122994182D01*
X401125730Y-123017750D01*
X401087417Y-123103398D01*
X401022499Y-123206086D01*
X400942774Y-123309606D01*
X400860044Y-123397746D01*
X400829857Y-123424173D01*
X400630990Y-123553773D01*
X400408302Y-123643237D01*
X400171596Y-123690509D01*
X399930673Y-123693535D01*
X399719357Y-123657004D01*
X399498245Y-123572879D01*
X399303425Y-123449023D01*
X399139825Y-123290554D01*
X399012374Y-123102590D01*
X398926001Y-122890249D01*
X398906844Y-122813299D01*
X398876308Y-122563242D01*
X398890041Y-122323661D01*
X398902222Y-122274800D01*
X399311557Y-122274800D01*
X400034828Y-122274800D01*
X400247414Y-122274528D01*
X400414499Y-122273521D01*
X400541379Y-122271494D01*
X400633351Y-122268158D01*
X400695712Y-122263229D01*
X400733759Y-122256420D01*
X400752788Y-122247444D01*
X400758097Y-122236014D01*
X400758100Y-122235688D01*
X400737723Y-122153758D01*
X400683025Y-122058173D01*
X400603652Y-121960722D01*
X400509248Y-121873195D01*
X400409461Y-121807383D01*
X400406403Y-121805826D01*
X400267347Y-121758277D01*
X400103233Y-121737014D01*
X399932428Y-121741960D01*
X399773298Y-121773039D01*
X399681560Y-121808844D01*
X399535026Y-121910486D01*
X399416149Y-122051797D01*
X399335765Y-122211127D01*
X399311557Y-122274800D01*
X398902222Y-122274800D01*
X398945867Y-122099735D01*
X399041606Y-121896643D01*
X399175079Y-121719563D01*
X399344108Y-121573672D01*
X399456999Y-121505689D01*
X399651603Y-121421746D01*
X399848926Y-121374901D01*
X400068213Y-121360400D01*
X400310530Y-121383406D01*
G36*
X393518986Y-121366840D02*
G01*
X393772440Y-121402111D01*
X394000525Y-121478807D01*
X394200175Y-121594865D01*
X394368325Y-121748222D01*
X394501908Y-121936816D01*
X394566456Y-122071600D01*
X394598018Y-122185705D01*
X394618285Y-122333371D01*
X394627030Y-122498580D01*
X394624025Y-122665313D01*
X394609043Y-122817551D01*
X394581856Y-122939275D01*
X394578905Y-122947900D01*
X394482519Y-123145172D01*
X394343275Y-123321574D01*
X394166679Y-123471769D01*
X393958241Y-123590421D01*
X393883340Y-123621770D01*
X393751321Y-123658019D01*
X393588335Y-123681467D01*
X393412781Y-123691287D01*
X393243060Y-123686650D01*
X393097574Y-123666729D01*
X393064753Y-123658599D01*
X392850853Y-123576401D01*
X392656121Y-123458093D01*
X392489155Y-123310635D01*
X392358556Y-123140986D01*
X392307682Y-123045895D01*
X392269337Y-122943102D01*
X392235151Y-122818876D01*
X392215099Y-122715628D01*
X392207748Y-122574224D01*
X392632074Y-122574224D01*
X392646409Y-122721866D01*
X392666541Y-122803207D01*
X392719794Y-122915941D01*
X392800195Y-123031333D01*
X392894178Y-123132702D01*
X392988174Y-123203365D01*
X392994958Y-123207020D01*
X393191698Y-123283118D01*
X393396689Y-123313463D01*
X393600104Y-123297243D01*
X393712664Y-123266468D01*
X393889944Y-123179347D01*
X394034410Y-123055677D01*
X394141587Y-122899341D01*
X394146020Y-122890466D01*
X394199010Y-122734401D01*
X394220993Y-122557298D01*
X394211639Y-122378017D01*
X394170621Y-122215421D01*
X394158289Y-122185900D01*
X394060958Y-122026906D01*
X393933261Y-121902092D01*
X393782564Y-121811623D01*
X393616236Y-121755666D01*
X393441642Y-121734386D01*
X393266149Y-121747949D01*
X393097124Y-121796522D01*
X392941934Y-121880270D01*
X392807945Y-121999360D01*
X392702965Y-122153101D01*
X392661419Y-122270807D01*
X392637433Y-122417526D01*
X392632074Y-122574224D01*
X392207748Y-122574224D01*
X392202238Y-122468236D01*
X392234650Y-122233693D01*
X392309850Y-122017052D01*
X392425357Y-121823365D01*
X392578687Y-121657687D01*
X392767360Y-121525069D01*
X392811419Y-121501803D01*
X392985705Y-121427053D01*
X393157030Y-121382281D01*
X393342905Y-121364147D01*
X393518986Y-121366840D01*
G37*
X393518986Y-121366840D02*
X393772440Y-121402111D01*
X394000525Y-121478807D01*
X394200175Y-121594865D01*
X394368325Y-121748222D01*
X394501908Y-121936816D01*
X394566456Y-122071600D01*
X394598018Y-122185705D01*
X394618285Y-122333371D01*
X394627030Y-122498580D01*
X394624025Y-122665313D01*
X394609043Y-122817551D01*
X394581856Y-122939275D01*
X394578905Y-122947900D01*
X394482519Y-123145172D01*
X394343275Y-123321574D01*
X394166679Y-123471769D01*
X393958241Y-123590421D01*
X393883340Y-123621770D01*
X393751321Y-123658019D01*
X393588335Y-123681467D01*
X393412781Y-123691287D01*
X393243060Y-123686650D01*
X393097574Y-123666729D01*
X393064753Y-123658599D01*
X392850853Y-123576401D01*
X392656121Y-123458093D01*
X392489155Y-123310635D01*
X392358556Y-123140986D01*
X392307682Y-123045895D01*
X392269337Y-122943102D01*
X392235151Y-122818876D01*
X392215099Y-122715628D01*
X392207748Y-122574224D01*
X392632074Y-122574224D01*
X392646409Y-122721866D01*
X392666541Y-122803207D01*
X392719794Y-122915941D01*
X392800195Y-123031333D01*
X392894178Y-123132702D01*
X392988174Y-123203365D01*
X392994958Y-123207020D01*
X393191698Y-123283118D01*
X393396689Y-123313463D01*
X393600104Y-123297243D01*
X393712664Y-123266468D01*
X393889944Y-123179347D01*
X394034410Y-123055677D01*
X394141587Y-122899341D01*
X394146020Y-122890466D01*
X394199010Y-122734401D01*
X394220993Y-122557298D01*
X394211639Y-122378017D01*
X394170621Y-122215421D01*
X394158289Y-122185900D01*
X394060958Y-122026906D01*
X393933261Y-121902092D01*
X393782564Y-121811623D01*
X393616236Y-121755666D01*
X393441642Y-121734386D01*
X393266149Y-121747949D01*
X393097124Y-121796522D01*
X392941934Y-121880270D01*
X392807945Y-121999360D01*
X392702965Y-122153101D01*
X392661419Y-122270807D01*
X392637433Y-122417526D01*
X392632074Y-122574224D01*
X392207748Y-122574224D01*
X392202238Y-122468236D01*
X392234650Y-122233693D01*
X392309850Y-122017052D01*
X392425357Y-121823365D01*
X392578687Y-121657687D01*
X392767360Y-121525069D01*
X392811419Y-121501803D01*
X392985705Y-121427053D01*
X393157030Y-121382281D01*
X393342905Y-121364147D01*
X393518986Y-121366840D01*
G36*
X391136049Y-121380988D02*
G01*
X391250748Y-121407102D01*
X391471850Y-121497639D01*
X391663293Y-121624036D01*
X391820222Y-121781988D01*
X391937782Y-121967188D01*
X391972437Y-122047254D01*
X392006464Y-122140731D01*
X392018083Y-122199761D01*
X392000798Y-122232261D01*
X391948112Y-122246149D01*
X391853529Y-122249343D01*
X391806569Y-122249400D01*
X391592639Y-122249399D01*
X391561733Y-122155754D01*
X391495143Y-122029894D01*
X391388638Y-121918503D01*
X391252463Y-121828012D01*
X391096864Y-121764854D01*
X390932085Y-121735461D01*
X390890199Y-121734142D01*
X390707869Y-121756910D01*
X390537565Y-121821221D01*
X390388016Y-121921089D01*
X390267953Y-122050526D01*
X390186105Y-122203547D01*
X390179907Y-122221267D01*
X390146356Y-122379924D01*
X390140573Y-122555402D01*
X390161259Y-122729327D01*
X390207113Y-122883322D01*
X390230175Y-122931531D01*
X390335904Y-123082138D01*
X390470779Y-123194303D01*
X390618102Y-123265915D01*
X390796789Y-123308926D01*
X390976259Y-123308773D01*
X391148072Y-123268785D01*
X391303790Y-123192291D01*
X391434974Y-123082622D01*
X391533184Y-122943106D01*
X391554767Y-122896389D01*
X391601400Y-122782990D01*
X391810950Y-122782895D01*
X391913668Y-122783561D01*
X391975784Y-122787620D01*
X392007495Y-122797992D01*
X392018997Y-122817594D01*
X392020500Y-122842887D01*
X392004975Y-122917902D01*
X391963424Y-123017781D01*
X391903378Y-123129252D01*
X391832369Y-123239041D01*
X391757929Y-123333876D01*
X391719038Y-123374119D01*
X391539264Y-123509131D01*
X391330407Y-123609811D01*
X391103560Y-123672913D01*
X390869818Y-123695194D01*
X390674300Y-123679664D01*
X390481087Y-123628943D01*
X390293451Y-123545877D01*
X390123760Y-123437860D01*
X389984383Y-123312289D01*
X389917489Y-123227165D01*
X389836160Y-123092841D01*
X389780270Y-122967887D01*
X389745691Y-122837138D01*
X389728293Y-122685430D01*
X389723914Y-122516100D01*
X389725419Y-122375194D01*
X389731121Y-122271188D01*
X389742798Y-122190236D01*
X389762230Y-122118494D01*
X389781851Y-122065197D01*
X389887497Y-121865543D01*
X390033762Y-121689026D01*
X390212876Y-121543316D01*
X390417069Y-121436085D01*
X390420300Y-121434802D01*
X390576283Y-121390914D01*
X390760255Y-121366892D01*
X390953187Y-121363372D01*
X391136049Y-121380988D01*
G37*
X391136049Y-121380988D02*
X391250748Y-121407102D01*
X391471850Y-121497639D01*
X391663293Y-121624036D01*
X391820222Y-121781988D01*
X391937782Y-121967188D01*
X391972437Y-122047254D01*
X392006464Y-122140731D01*
X392018083Y-122199761D01*
X392000798Y-122232261D01*
X391948112Y-122246149D01*
X391853529Y-122249343D01*
X391806569Y-122249400D01*
X391592639Y-122249399D01*
X391561733Y-122155754D01*
X391495143Y-122029894D01*
X391388638Y-121918503D01*
X391252463Y-121828012D01*
X391096864Y-121764854D01*
X390932085Y-121735461D01*
X390890199Y-121734142D01*
X390707869Y-121756910D01*
X390537565Y-121821221D01*
X390388016Y-121921089D01*
X390267953Y-122050526D01*
X390186105Y-122203547D01*
X390179907Y-122221267D01*
X390146356Y-122379924D01*
X390140573Y-122555402D01*
X390161259Y-122729327D01*
X390207113Y-122883322D01*
X390230175Y-122931531D01*
X390335904Y-123082138D01*
X390470779Y-123194303D01*
X390618102Y-123265915D01*
X390796789Y-123308926D01*
X390976259Y-123308773D01*
X391148072Y-123268785D01*
X391303790Y-123192291D01*
X391434974Y-123082622D01*
X391533184Y-122943106D01*
X391554767Y-122896389D01*
X391601400Y-122782990D01*
X391810950Y-122782895D01*
X391913668Y-122783561D01*
X391975784Y-122787620D01*
X392007495Y-122797992D01*
X392018997Y-122817594D01*
X392020500Y-122842887D01*
X392004975Y-122917902D01*
X391963424Y-123017781D01*
X391903378Y-123129252D01*
X391832369Y-123239041D01*
X391757929Y-123333876D01*
X391719038Y-123374119D01*
X391539264Y-123509131D01*
X391330407Y-123609811D01*
X391103560Y-123672913D01*
X390869818Y-123695194D01*
X390674300Y-123679664D01*
X390481087Y-123628943D01*
X390293451Y-123545877D01*
X390123760Y-123437860D01*
X389984383Y-123312289D01*
X389917489Y-123227165D01*
X389836160Y-123092841D01*
X389780270Y-122967887D01*
X389745691Y-122837138D01*
X389728293Y-122685430D01*
X389723914Y-122516100D01*
X389725419Y-122375194D01*
X389731121Y-122271188D01*
X389742798Y-122190236D01*
X389762230Y-122118494D01*
X389781851Y-122065197D01*
X389887497Y-121865543D01*
X390033762Y-121689026D01*
X390212876Y-121543316D01*
X390417069Y-121436085D01*
X390420300Y-121434802D01*
X390576283Y-121390914D01*
X390760255Y-121366892D01*
X390953187Y-121363372D01*
X391136049Y-121380988D01*
D11*
%TO.C,SW29*%
X372279500Y-89940000D02*
X373529500Y-89940000D01*
D12*
X381979500Y-95040000D02*
X379529500Y-95040000D01*
D10*
X372129500Y-89740000D02*
X380329501Y-89740000D01*
X376929500Y-93340000D02*
X372129500Y-93340000D01*
X382179500Y-95240000D02*
X379149500Y-95240000D01*
X382429500Y-91640000D02*
X382429500Y-92390000D01*
X382179500Y-90790000D02*
X382179500Y-95240000D01*
X382429500Y-92390000D02*
X382229500Y-92390000D01*
X372149500Y-92340000D02*
X372149500Y-90090000D01*
X372129500Y-93340000D02*
X372129500Y-89740000D01*
D13*
X373929500Y-91540000D02*
X380629500Y-91540000D01*
D14*
X372629500Y-90340000D02*
X372629500Y-92840000D01*
D12*
X372329500Y-93090000D02*
X373629500Y-93040000D01*
D15*
X380699500Y-91240000D02*
X380699500Y-93480000D01*
D16*
X381829500Y-94740000D02*
X381829500Y-92940001D01*
D17*
X382329500Y-92290000D02*
X382329500Y-91640000D01*
D14*
X379545818Y-94818529D02*
G75*
G03*
X377329500Y-92940000I-2151318J-291471D01*
G01*
D10*
X382429500Y-91640001D02*
G75*
G03*
X380329501Y-89740000I-2000000J-99999D01*
G01*
X379145818Y-95218529D02*
G75*
G03*
X376929500Y-93340000I-2151318J-291471D01*
G01*
D11*
%TO.C,SW24*%
X391279500Y-66190000D02*
X392529500Y-66190000D01*
D12*
X400979500Y-71290000D02*
X398529500Y-71290000D01*
D10*
X391129500Y-65990000D02*
X399329501Y-65990000D01*
X395929500Y-69590000D02*
X391129500Y-69590000D01*
X401179500Y-71490000D02*
X398149500Y-71490000D01*
X401429500Y-67890000D02*
X401429500Y-68640000D01*
X401179500Y-67040000D02*
X401179500Y-71490000D01*
X401429500Y-68640000D02*
X401229500Y-68640000D01*
X391149500Y-68590000D02*
X391149500Y-66340000D01*
X391129500Y-69590000D02*
X391129500Y-65990000D01*
D13*
X392929500Y-67790000D02*
X399629500Y-67790000D01*
D14*
X391629500Y-66590000D02*
X391629500Y-69090000D01*
D12*
X391329500Y-69340000D02*
X392629500Y-69290000D01*
D15*
X399699500Y-67490000D02*
X399699500Y-69730000D01*
D16*
X400829500Y-70990000D02*
X400829500Y-69190001D01*
D17*
X401329500Y-68540000D02*
X401329500Y-67890000D01*
D14*
X398545818Y-71068529D02*
G75*
G03*
X396329500Y-69190000I-2151318J-291471D01*
G01*
D10*
X401429500Y-67890001D02*
G75*
G03*
X399329501Y-65990000I-2000000J-99999D01*
G01*
X398145818Y-71468529D02*
G75*
G03*
X395929500Y-69590000I-2151318J-291471D01*
G01*
D11*
%TO.C,SW25*%
X410279500Y-63815000D02*
X411529500Y-63815000D01*
D12*
X419979500Y-68915000D02*
X417529500Y-68915000D01*
D10*
X410129500Y-63615000D02*
X418329501Y-63615000D01*
X414929500Y-67215000D02*
X410129500Y-67215000D01*
X420179500Y-69115000D02*
X417149500Y-69115000D01*
X420429500Y-65515000D02*
X420429500Y-66265000D01*
X420179500Y-64665000D02*
X420179500Y-69115000D01*
X420429500Y-66265000D02*
X420229500Y-66265000D01*
X410149500Y-66215000D02*
X410149500Y-63965000D01*
X410129500Y-67215000D02*
X410129500Y-63615000D01*
D13*
X411929500Y-65415000D02*
X418629500Y-65415000D01*
D14*
X410629500Y-64215000D02*
X410629500Y-66715000D01*
D12*
X410329500Y-66965000D02*
X411629500Y-66915000D01*
D15*
X418699500Y-65115000D02*
X418699500Y-67355000D01*
D16*
X419829500Y-68615000D02*
X419829500Y-66815001D01*
D17*
X420329500Y-66165000D02*
X420329500Y-65515000D01*
D14*
X417545818Y-68693529D02*
G75*
G03*
X415329500Y-66815000I-2151318J-291471D01*
G01*
D10*
X420429500Y-65515001D02*
G75*
G03*
X418329501Y-63615000I-2000000J-99999D01*
G01*
X417145818Y-69093529D02*
G75*
G03*
X414929500Y-67215000I-2151318J-291471D01*
G01*
D11*
%TO.C,SW35*%
X372279500Y-108940000D02*
X373529500Y-108940000D01*
D12*
X381979500Y-114040000D02*
X379529500Y-114040000D01*
D10*
X372129500Y-108740000D02*
X380329501Y-108740000D01*
X376929500Y-112340000D02*
X372129500Y-112340000D01*
X382179500Y-114240000D02*
X379149500Y-114240000D01*
X382429500Y-110640000D02*
X382429500Y-111390000D01*
X382179500Y-109790000D02*
X382179500Y-114240000D01*
X382429500Y-111390000D02*
X382229500Y-111390000D01*
X372149500Y-111340000D02*
X372149500Y-109090000D01*
X372129500Y-112340000D02*
X372129500Y-108740000D01*
D13*
X373929500Y-110540000D02*
X380629500Y-110540000D01*
D14*
X372629500Y-109340000D02*
X372629500Y-111840000D01*
D12*
X372329500Y-112090000D02*
X373629500Y-112040000D01*
D15*
X380699500Y-110240000D02*
X380699500Y-112480000D01*
D16*
X381829500Y-113740000D02*
X381829500Y-111940001D01*
D17*
X382329500Y-111290000D02*
X382329500Y-110640000D01*
D14*
X379545818Y-113818529D02*
G75*
G03*
X377329500Y-111940000I-2151318J-291471D01*
G01*
D10*
X382429500Y-110640001D02*
G75*
G03*
X380329501Y-108740000I-2000000J-99999D01*
G01*
X379145818Y-114218529D02*
G75*
G03*
X376929500Y-112340000I-2151318J-291471D01*
G01*
D11*
%TO.C,SW33*%
X448279500Y-87565000D02*
X449529500Y-87565000D01*
D12*
X457979500Y-92665000D02*
X455529500Y-92665000D01*
D10*
X448129500Y-87365000D02*
X456329501Y-87365000D01*
X452929500Y-90965000D02*
X448129500Y-90965000D01*
X458179500Y-92865000D02*
X455149500Y-92865000D01*
X458429500Y-89265000D02*
X458429500Y-90015000D01*
X458179500Y-88415000D02*
X458179500Y-92865000D01*
X458429500Y-90015000D02*
X458229500Y-90015000D01*
X448149500Y-89965000D02*
X448149500Y-87715000D01*
X448129500Y-90965000D02*
X448129500Y-87365000D01*
D13*
X449929500Y-89165000D02*
X456629500Y-89165000D01*
D14*
X448629500Y-87965000D02*
X448629500Y-90465000D01*
D12*
X448329500Y-90715000D02*
X449629500Y-90665000D01*
D15*
X456699500Y-88865000D02*
X456699500Y-91105000D01*
D16*
X457829500Y-92365000D02*
X457829500Y-90565001D01*
D17*
X458329500Y-89915000D02*
X458329500Y-89265000D01*
D14*
X455545818Y-92443529D02*
G75*
G03*
X453329500Y-90565000I-2151318J-291471D01*
G01*
D10*
X458429500Y-89265001D02*
G75*
G03*
X456329501Y-87365000I-2000000J-99999D01*
G01*
X455145818Y-92843529D02*
G75*
G03*
X452929500Y-90965000I-2151318J-291471D01*
G01*
D11*
%TO.C,SW22*%
X353279500Y-70940000D02*
X354529500Y-70940000D01*
D12*
X362979500Y-76040000D02*
X360529500Y-76040000D01*
D10*
X353129500Y-70740000D02*
X361329501Y-70740000D01*
X357929500Y-74340000D02*
X353129500Y-74340000D01*
X363179500Y-76240000D02*
X360149500Y-76240000D01*
X363429500Y-72640000D02*
X363429500Y-73390000D01*
X363179500Y-71790000D02*
X363179500Y-76240000D01*
X363429500Y-73390000D02*
X363229500Y-73390000D01*
X353149500Y-73340000D02*
X353149500Y-71090000D01*
X353129500Y-74340000D02*
X353129500Y-70740000D01*
D13*
X354929500Y-72540000D02*
X361629500Y-72540000D01*
D14*
X353629500Y-71340000D02*
X353629500Y-73840000D01*
D12*
X353329500Y-74090000D02*
X354629500Y-74040000D01*
D15*
X361699500Y-72240000D02*
X361699500Y-74480000D01*
D16*
X362829500Y-75740000D02*
X362829500Y-73940001D01*
D17*
X363329500Y-73290000D02*
X363329500Y-72640000D01*
D14*
X360545818Y-75818529D02*
G75*
G03*
X358329500Y-73940000I-2151318J-291471D01*
G01*
D10*
X363429500Y-72640001D02*
G75*
G03*
X361329501Y-70740000I-2000000J-99999D01*
G01*
X360145818Y-76218529D02*
G75*
G03*
X357929500Y-74340000I-2151318J-291471D01*
G01*
D11*
%TO.C,SW23*%
X372279500Y-70940000D02*
X373529500Y-70940000D01*
D12*
X381979500Y-76040000D02*
X379529500Y-76040000D01*
D10*
X372129500Y-70740000D02*
X380329501Y-70740000D01*
X376929500Y-74340000D02*
X372129500Y-74340000D01*
X382179500Y-76240000D02*
X379149500Y-76240000D01*
X382429500Y-72640000D02*
X382429500Y-73390000D01*
X382179500Y-71790000D02*
X382179500Y-76240000D01*
X382429500Y-73390000D02*
X382229500Y-73390000D01*
X372149500Y-73340000D02*
X372149500Y-71090000D01*
X372129500Y-74340000D02*
X372129500Y-70740000D01*
D13*
X373929500Y-72540000D02*
X380629500Y-72540000D01*
D14*
X372629500Y-71340000D02*
X372629500Y-73840000D01*
D12*
X372329500Y-74090000D02*
X373629500Y-74040000D01*
D15*
X380699500Y-72240000D02*
X380699500Y-74480000D01*
D16*
X381829500Y-75740000D02*
X381829500Y-73940001D01*
D17*
X382329500Y-73290000D02*
X382329500Y-72640000D01*
D14*
X379545818Y-75818529D02*
G75*
G03*
X377329500Y-73940000I-2151318J-291471D01*
G01*
D10*
X382429500Y-72640001D02*
G75*
G03*
X380329501Y-70740000I-2000000J-99999D01*
G01*
X379145818Y-76218529D02*
G75*
G03*
X376929500Y-74340000I-2151318J-291471D01*
G01*
D11*
%TO.C,SW37*%
X410279500Y-101815000D02*
X411529500Y-101815000D01*
D12*
X419979500Y-106915000D02*
X417529500Y-106915000D01*
D10*
X410129500Y-101615000D02*
X418329501Y-101615000D01*
X414929500Y-105215000D02*
X410129500Y-105215000D01*
X420179500Y-107115000D02*
X417149500Y-107115000D01*
X420429500Y-103515000D02*
X420429500Y-104265000D01*
X420179500Y-102665000D02*
X420179500Y-107115000D01*
X420429500Y-104265000D02*
X420229500Y-104265000D01*
X410149500Y-104215000D02*
X410149500Y-101965000D01*
X410129500Y-105215000D02*
X410129500Y-101615000D01*
D13*
X411929500Y-103415000D02*
X418629500Y-103415000D01*
D14*
X410629500Y-102215000D02*
X410629500Y-104715000D01*
D12*
X410329500Y-104965000D02*
X411629500Y-104915000D01*
D15*
X418699500Y-103115000D02*
X418699500Y-105355000D01*
D16*
X419829500Y-106615000D02*
X419829500Y-104815001D01*
D17*
X420329500Y-104165000D02*
X420329500Y-103515000D01*
D14*
X417545818Y-106693529D02*
G75*
G03*
X415329500Y-104815000I-2151318J-291471D01*
G01*
D10*
X420429500Y-103515001D02*
G75*
G03*
X418329501Y-101615000I-2000000J-99999D01*
G01*
X417145818Y-107093529D02*
G75*
G03*
X414929500Y-105215000I-2151318J-291471D01*
G01*
D11*
%TO.C,SW31*%
X410279500Y-82815000D02*
X411529500Y-82815000D01*
D12*
X419979500Y-87915000D02*
X417529500Y-87915000D01*
D10*
X410129500Y-82615000D02*
X418329501Y-82615000D01*
X414929500Y-86215000D02*
X410129500Y-86215000D01*
X420179500Y-88115000D02*
X417149500Y-88115000D01*
X420429500Y-84515000D02*
X420429500Y-85265000D01*
X420179500Y-83665000D02*
X420179500Y-88115000D01*
X420429500Y-85265000D02*
X420229500Y-85265000D01*
X410149500Y-85215000D02*
X410149500Y-82965000D01*
X410129500Y-86215000D02*
X410129500Y-82615000D01*
D13*
X411929500Y-84415000D02*
X418629500Y-84415000D01*
D14*
X410629500Y-83215000D02*
X410629500Y-85715000D01*
D12*
X410329500Y-85965000D02*
X411629500Y-85915000D01*
D15*
X418699500Y-84115000D02*
X418699500Y-86355000D01*
D16*
X419829500Y-87615000D02*
X419829500Y-85815001D01*
D17*
X420329500Y-85165000D02*
X420329500Y-84515000D01*
D14*
X417545818Y-87693529D02*
G75*
G03*
X415329500Y-85815000I-2151318J-291471D01*
G01*
D10*
X420429500Y-84515001D02*
G75*
G03*
X418329501Y-82615000I-2000000J-99999D01*
G01*
X417145818Y-88093529D02*
G75*
G03*
X414929500Y-86215000I-2151318J-291471D01*
G01*
D11*
%TO.C,SW32*%
X429279500Y-85190000D02*
X430529500Y-85190000D01*
D12*
X438979500Y-90290000D02*
X436529500Y-90290000D01*
D10*
X429129500Y-84990000D02*
X437329501Y-84990000D01*
X433929500Y-88590000D02*
X429129500Y-88590000D01*
X439179500Y-90490000D02*
X436149500Y-90490000D01*
X439429500Y-86890000D02*
X439429500Y-87640000D01*
X439179500Y-86040000D02*
X439179500Y-90490000D01*
X439429500Y-87640000D02*
X439229500Y-87640000D01*
X429149500Y-87590000D02*
X429149500Y-85340000D01*
X429129500Y-88590000D02*
X429129500Y-84990000D01*
D13*
X430929500Y-86790000D02*
X437629500Y-86790000D01*
D14*
X429629500Y-85590000D02*
X429629500Y-88090000D01*
D12*
X429329500Y-88340000D02*
X430629500Y-88290000D01*
D15*
X437699500Y-86490000D02*
X437699500Y-88730000D01*
D16*
X438829500Y-89990000D02*
X438829500Y-88190001D01*
D17*
X439329500Y-87540000D02*
X439329500Y-86890000D01*
D14*
X436545818Y-90068529D02*
G75*
G03*
X434329500Y-88190000I-2151318J-291471D01*
G01*
D10*
X439429500Y-86890001D02*
G75*
G03*
X437329501Y-84990000I-2000000J-99999D01*
G01*
X436145818Y-90468529D02*
G75*
G03*
X433929500Y-88590000I-2151318J-291471D01*
G01*
D11*
%TO.C,SW34*%
X353279500Y-108940000D02*
X354529500Y-108940000D01*
D12*
X362979500Y-114040000D02*
X360529500Y-114040000D01*
D10*
X353129500Y-108740000D02*
X361329501Y-108740000D01*
X357929500Y-112340000D02*
X353129500Y-112340000D01*
X363179500Y-114240000D02*
X360149500Y-114240000D01*
X363429500Y-110640000D02*
X363429500Y-111390000D01*
X363179500Y-109790000D02*
X363179500Y-114240000D01*
X363429500Y-111390000D02*
X363229500Y-111390000D01*
X353149500Y-111340000D02*
X353149500Y-109090000D01*
X353129500Y-112340000D02*
X353129500Y-108740000D01*
D13*
X354929500Y-110540000D02*
X361629500Y-110540000D01*
D14*
X353629500Y-109340000D02*
X353629500Y-111840000D01*
D12*
X353329500Y-112090000D02*
X354629500Y-112040000D01*
D15*
X361699500Y-110240000D02*
X361699500Y-112480000D01*
D16*
X362829500Y-113740000D02*
X362829500Y-111940001D01*
D17*
X363329500Y-111290000D02*
X363329500Y-110640000D01*
D14*
X360545818Y-113818529D02*
G75*
G03*
X358329500Y-111940000I-2151318J-291471D01*
G01*
D10*
X363429500Y-110640001D02*
G75*
G03*
X361329501Y-108740000I-2000000J-99999D01*
G01*
X360145818Y-114218529D02*
G75*
G03*
X357929500Y-112340000I-2151318J-291471D01*
G01*
D11*
%TO.C,SW38*%
X429279500Y-104190000D02*
X430529500Y-104190000D01*
D12*
X438979500Y-109290000D02*
X436529500Y-109290000D01*
D10*
X429129500Y-103990000D02*
X437329501Y-103990000D01*
X433929500Y-107590000D02*
X429129500Y-107590000D01*
X439179500Y-109490000D02*
X436149500Y-109490000D01*
X439429500Y-105890000D02*
X439429500Y-106640000D01*
X439179500Y-105040000D02*
X439179500Y-109490000D01*
X439429500Y-106640000D02*
X439229500Y-106640000D01*
X429149500Y-106590000D02*
X429149500Y-104340000D01*
X429129500Y-107590000D02*
X429129500Y-103990000D01*
D13*
X430929500Y-105790000D02*
X437629500Y-105790000D01*
D14*
X429629500Y-104590000D02*
X429629500Y-107090000D01*
D12*
X429329500Y-107340000D02*
X430629500Y-107290000D01*
D15*
X437699500Y-105490000D02*
X437699500Y-107730000D01*
D16*
X438829500Y-108990000D02*
X438829500Y-107190001D01*
D17*
X439329500Y-106540000D02*
X439329500Y-105890000D01*
D14*
X436545818Y-109068529D02*
G75*
G03*
X434329500Y-107190000I-2151318J-291471D01*
G01*
D10*
X439429500Y-105890001D02*
G75*
G03*
X437329501Y-103990000I-2000000J-99999D01*
G01*
X436145818Y-109468529D02*
G75*
G03*
X433929500Y-107590000I-2151318J-291471D01*
G01*
D11*
%TO.C,SW48*%
X405809500Y-123307000D02*
X407059500Y-123307000D01*
D12*
X415509500Y-128407000D02*
X413059500Y-128407000D01*
D10*
X405659500Y-123107000D02*
X413859501Y-123107000D01*
X410459500Y-126707000D02*
X405659500Y-126707000D01*
X415709500Y-128607000D02*
X412679500Y-128607000D01*
X415959500Y-125007000D02*
X415959500Y-125757000D01*
X415709500Y-124157000D02*
X415709500Y-128607000D01*
X415959500Y-125757000D02*
X415759500Y-125757000D01*
X405679500Y-125707000D02*
X405679500Y-123457000D01*
X405659500Y-126707000D02*
X405659500Y-123107000D01*
D13*
X407459500Y-124907000D02*
X414159500Y-124907000D01*
D14*
X406159500Y-123707000D02*
X406159500Y-126207000D01*
D12*
X405859500Y-126457000D02*
X407159500Y-126407000D01*
D15*
X414229500Y-124607000D02*
X414229500Y-126847000D01*
D16*
X415359500Y-128107000D02*
X415359500Y-126307001D01*
D17*
X415859500Y-125657000D02*
X415859500Y-125007000D01*
D14*
X413075818Y-128185529D02*
G75*
G03*
X410859500Y-126307000I-2151318J-291471D01*
G01*
D10*
X415959500Y-125007001D02*
G75*
G03*
X413859501Y-123107000I-2000000J-99999D01*
G01*
X412675818Y-128585529D02*
G75*
G03*
X410459500Y-126707000I-2151318J-291471D01*
G01*
D11*
%TO.C,SW42*%
X444572117Y-137899639D02*
X445197117Y-136817107D01*
D12*
X453838847Y-132049193D02*
X452613847Y-134170955D01*
D10*
X444323912Y-137929543D02*
X448423913Y-130828134D01*
X449841604Y-135572621D02*
X447441604Y-139729543D01*
X454112052Y-131975987D02*
X452597052Y-134600044D01*
X451119361Y-129959481D02*
X451768880Y-130334481D01*
X450258239Y-129750987D02*
X454112052Y-131975987D01*
X451768880Y-130334481D02*
X451668880Y-130507686D01*
X446585578Y-139212222D02*
X444637021Y-138087222D01*
X447441604Y-139729543D02*
X444323912Y-137929543D01*
D13*
X446782758Y-137270697D02*
X450132758Y-131468327D01*
D14*
X445093528Y-137796530D02*
X447258591Y-139046530D01*
D12*
X447325097Y-139431338D02*
X447931796Y-138280505D01*
D15*
X449907950Y-131257705D02*
X451847847Y-132377705D01*
D16*
X453504039Y-132029096D02*
X451945194Y-131129097D01*
D17*
X451632277Y-130371084D02*
X451069361Y-130046084D01*
D14*
X452430207Y-134046088D02*
G75*
G03*
X449695194Y-135026211I-823238J-2008831D01*
G01*
D10*
X451119361Y-129959482D02*
G75*
G03*
X448423913Y-130828134I-913398J-1782050D01*
G01*
X452576617Y-134592498D02*
G75*
G03*
X449841604Y-135572621I-823238J-2008831D01*
G01*
D11*
%TO.C,SW46*%
X358105500Y-127990000D02*
X359355500Y-127990000D01*
D12*
X367805500Y-133090000D02*
X365355500Y-133090000D01*
D10*
X357955500Y-127790000D02*
X366155501Y-127790000D01*
X362755500Y-131390000D02*
X357955500Y-131390000D01*
X368005500Y-133290000D02*
X364975500Y-133290000D01*
X368255500Y-129690000D02*
X368255500Y-130440000D01*
X368005500Y-128840000D02*
X368005500Y-133290000D01*
X368255500Y-130440000D02*
X368055500Y-130440000D01*
X357975500Y-130390000D02*
X357975500Y-128140000D01*
X357955500Y-131390000D02*
X357955500Y-127790000D01*
D13*
X359755500Y-129590000D02*
X366455500Y-129590000D01*
D14*
X358455500Y-128390000D02*
X358455500Y-130890000D01*
D12*
X358155500Y-131140000D02*
X359455500Y-131090000D01*
D15*
X366525500Y-129290000D02*
X366525500Y-131530000D01*
D16*
X367655500Y-132790000D02*
X367655500Y-130990001D01*
D17*
X368155500Y-130340000D02*
X368155500Y-129690000D01*
D14*
X365371818Y-132868529D02*
G75*
G03*
X363155500Y-130990000I-2151318J-291471D01*
G01*
D10*
X368255500Y-129690001D02*
G75*
G03*
X366155501Y-127790000I-2000000J-99999D01*
G01*
X364971818Y-133268529D02*
G75*
G03*
X362755500Y-131390000I-2151318J-291471D01*
G01*
D11*
%TO.C,SW36*%
X391279500Y-104190000D02*
X392529500Y-104190000D01*
D12*
X400979500Y-109290000D02*
X398529500Y-109290000D01*
D10*
X391129500Y-103990000D02*
X399329501Y-103990000D01*
X395929500Y-107590000D02*
X391129500Y-107590000D01*
X401179500Y-109490000D02*
X398149500Y-109490000D01*
X401429500Y-105890000D02*
X401429500Y-106640000D01*
X401179500Y-105040000D02*
X401179500Y-109490000D01*
X401429500Y-106640000D02*
X401229500Y-106640000D01*
X391149500Y-106590000D02*
X391149500Y-104340000D01*
X391129500Y-107590000D02*
X391129500Y-103990000D01*
D13*
X392929500Y-105790000D02*
X399629500Y-105790000D01*
D14*
X391629500Y-104590000D02*
X391629500Y-107090000D01*
D12*
X391329500Y-107340000D02*
X392629500Y-107290000D01*
D15*
X399699500Y-105490000D02*
X399699500Y-107730000D01*
D16*
X400829500Y-108990000D02*
X400829500Y-107190001D01*
D17*
X401329500Y-106540000D02*
X401329500Y-105890000D01*
D14*
X398545818Y-109068529D02*
G75*
G03*
X396329500Y-107190000I-2151318J-291471D01*
G01*
D10*
X401429500Y-105890001D02*
G75*
G03*
X399329501Y-103990000I-2000000J-99999D01*
G01*
X398145818Y-109468529D02*
G75*
G03*
X395929500Y-107590000I-2151318J-291471D01*
G01*
D11*
%TO.C,SW40*%
X424933434Y-133791232D02*
X425558434Y-132708700D01*
D12*
X434200164Y-127940786D02*
X432975164Y-130062548D01*
D10*
X424685229Y-133821136D02*
X428785230Y-126719727D01*
X430202921Y-131464214D02*
X427802921Y-135621136D01*
X434473369Y-127867580D02*
X432958369Y-130491637D01*
X431480678Y-125851074D02*
X432130197Y-126226074D01*
X430619556Y-125642580D02*
X434473369Y-127867580D01*
X432130197Y-126226074D02*
X432030197Y-126399279D01*
X426946895Y-135103815D02*
X424998338Y-133978815D01*
X427802921Y-135621136D02*
X424685229Y-133821136D01*
D13*
X427144075Y-133162290D02*
X430494075Y-127359920D01*
D14*
X425454845Y-133688123D02*
X427619908Y-134938123D01*
D12*
X427686414Y-135322931D02*
X428293113Y-134172098D01*
D15*
X430269267Y-127149298D02*
X432209164Y-128269298D01*
D16*
X433865356Y-127920689D02*
X432306511Y-127020690D01*
D17*
X431993594Y-126262677D02*
X431430678Y-125937677D01*
D14*
X432791524Y-129937681D02*
G75*
G03*
X430056511Y-130917804I-823238J-2008831D01*
G01*
D10*
X431480678Y-125851075D02*
G75*
G03*
X428785230Y-126719727I-913398J-1782050D01*
G01*
X432937934Y-130484091D02*
G75*
G03*
X430202921Y-131464214I-823238J-2008831D01*
G01*
D11*
%TO.C,SW47*%
X377155500Y-127990000D02*
X378405500Y-127990000D01*
D12*
X386855500Y-133090000D02*
X384405500Y-133090000D01*
D10*
X377005500Y-127790000D02*
X385205501Y-127790000D01*
X381805500Y-131390000D02*
X377005500Y-131390000D01*
X387055500Y-133290000D02*
X384025500Y-133290000D01*
X387305500Y-129690000D02*
X387305500Y-130440000D01*
X387055500Y-128840000D02*
X387055500Y-133290000D01*
X387305500Y-130440000D02*
X387105500Y-130440000D01*
X377025500Y-130390000D02*
X377025500Y-128140000D01*
X377005500Y-131390000D02*
X377005500Y-127790000D01*
D13*
X378805500Y-129590000D02*
X385505500Y-129590000D01*
D14*
X377505500Y-128390000D02*
X377505500Y-130890000D01*
D12*
X377205500Y-131140000D02*
X378505500Y-131090000D01*
D15*
X385575500Y-129290000D02*
X385575500Y-131530000D01*
D16*
X386705500Y-132790000D02*
X386705500Y-130990001D01*
D17*
X387205500Y-130340000D02*
X387205500Y-129690000D01*
D14*
X384421818Y-132868529D02*
G75*
G03*
X382205500Y-130990000I-2151318J-291471D01*
G01*
D10*
X387305500Y-129690001D02*
G75*
G03*
X385205501Y-127790000I-2000000J-99999D01*
G01*
X384021818Y-133268529D02*
G75*
G03*
X381805500Y-131390000I-2151318J-291471D01*
G01*
%TO.C,*%
%TD*%
M02*
