%TF.GenerationSoftware,KiCad,Pcbnew,(5.1.6-0-10_14)*%
%TF.CreationDate,2020-09-30T16:11:26+02:00*%
%TF.ProjectId,corne-top-plate,636f726e-652d-4746-9f70-2d706c617465,2.1*%
%TF.SameCoordinates,Original*%
%TF.FileFunction,Soldermask,Bot*%
%TF.FilePolarity,Negative*%
%FSLAX46Y46*%
G04 Gerber Fmt 4.6, Leading zero omitted, Abs format (unit mm)*
G04 Created by KiCad (PCBNEW (5.1.6-0-10_14)) date 2020-09-30 16:11:26*
%MOMM*%
%LPD*%
G01*
G04 APERTURE LIST*
%ADD10C,0.010000*%
%ADD11C,4.600000*%
%ADD12C,4.500000*%
%ADD13C,2.300000*%
%ADD14C,3.400000*%
G04 APERTURE END LIST*
D10*
%TO.C,G\u002A\u002A\u002A*%
G36*
X-106460991Y-50639791D02*
G01*
X-106555075Y-50643451D01*
X-106625490Y-50652455D01*
X-106685801Y-50669181D01*
X-106749570Y-50696005D01*
X-106803751Y-50722171D01*
X-106974798Y-50830513D01*
X-107108048Y-50969673D01*
X-107205379Y-51142378D01*
X-107268668Y-51351354D01*
X-107280075Y-51413800D01*
X-107287364Y-51484770D01*
X-107293903Y-51597525D01*
X-107299403Y-51743049D01*
X-107303574Y-51912330D01*
X-107306127Y-52096353D01*
X-107306808Y-52245650D01*
X-107307000Y-52912400D01*
X-106875200Y-52912400D01*
X-106875200Y-52193110D01*
X-106874593Y-51964457D01*
X-106872600Y-51780758D01*
X-106868963Y-51636177D01*
X-106863422Y-51524882D01*
X-106855719Y-51441037D01*
X-106845595Y-51378809D01*
X-106837697Y-51347534D01*
X-106772937Y-51209307D01*
X-106672030Y-51106106D01*
X-106536603Y-51038984D01*
X-106368280Y-51008999D01*
X-106313812Y-51007400D01*
X-106151341Y-51017817D01*
X-106021362Y-51052694D01*
X-105909264Y-51117472D01*
X-105829360Y-51187726D01*
X-105775173Y-51244731D01*
X-105731791Y-51300501D01*
X-105698023Y-51361365D01*
X-105672679Y-51433652D01*
X-105654567Y-51523689D01*
X-105642496Y-51637805D01*
X-105635277Y-51782327D01*
X-105631717Y-51963585D01*
X-105630626Y-52187907D01*
X-105630600Y-52243910D01*
X-105630600Y-52912400D01*
X-105198800Y-52912400D01*
X-105198800Y-50651800D01*
X-105630600Y-50651800D01*
X-105630600Y-50909707D01*
X-105712864Y-50827442D01*
X-105799252Y-50751836D01*
X-105889955Y-50698569D01*
X-105995978Y-50664282D01*
X-106128324Y-50645616D01*
X-106297995Y-50639211D01*
X-106329674Y-50639100D01*
X-106460991Y-50639791D01*
G37*
X-106460991Y-50639791D02*
X-106555075Y-50643451D01*
X-106625490Y-50652455D01*
X-106685801Y-50669181D01*
X-106749570Y-50696005D01*
X-106803751Y-50722171D01*
X-106974798Y-50830513D01*
X-107108048Y-50969673D01*
X-107205379Y-51142378D01*
X-107268668Y-51351354D01*
X-107280075Y-51413800D01*
X-107287364Y-51484770D01*
X-107293903Y-51597525D01*
X-107299403Y-51743049D01*
X-107303574Y-51912330D01*
X-107306127Y-52096353D01*
X-107306808Y-52245650D01*
X-107307000Y-52912400D01*
X-106875200Y-52912400D01*
X-106875200Y-52193110D01*
X-106874593Y-51964457D01*
X-106872600Y-51780758D01*
X-106868963Y-51636177D01*
X-106863422Y-51524882D01*
X-106855719Y-51441037D01*
X-106845595Y-51378809D01*
X-106837697Y-51347534D01*
X-106772937Y-51209307D01*
X-106672030Y-51106106D01*
X-106536603Y-51038984D01*
X-106368280Y-51008999D01*
X-106313812Y-51007400D01*
X-106151341Y-51017817D01*
X-106021362Y-51052694D01*
X-105909264Y-51117472D01*
X-105829360Y-51187726D01*
X-105775173Y-51244731D01*
X-105731791Y-51300501D01*
X-105698023Y-51361365D01*
X-105672679Y-51433652D01*
X-105654567Y-51523689D01*
X-105642496Y-51637805D01*
X-105635277Y-51782327D01*
X-105631717Y-51963585D01*
X-105630626Y-52187907D01*
X-105630600Y-52243910D01*
X-105630600Y-52912400D01*
X-105198800Y-52912400D01*
X-105198800Y-50651800D01*
X-105630600Y-50651800D01*
X-105630600Y-50909707D01*
X-105712864Y-50827442D01*
X-105799252Y-50751836D01*
X-105889955Y-50698569D01*
X-105995978Y-50664282D01*
X-106128324Y-50645616D01*
X-106297995Y-50639211D01*
X-106329674Y-50639100D01*
X-106460991Y-50639791D01*
G36*
X-104798737Y-50616436D02*
G01*
X-104944800Y-50632961D01*
X-104944800Y-51003729D01*
X-104811450Y-50990068D01*
X-104627351Y-50995139D01*
X-104457952Y-51046922D01*
X-104309381Y-51142056D01*
X-104187766Y-51277179D01*
X-104138889Y-51358869D01*
X-104055800Y-51519838D01*
X-104055800Y-52912400D01*
X-103624000Y-52912400D01*
X-103624000Y-50649745D01*
X-103833550Y-50657122D01*
X-104043100Y-50664500D01*
X-104068500Y-50886358D01*
X-104119269Y-50829946D01*
X-104237446Y-50733357D01*
X-104389298Y-50662267D01*
X-104562542Y-50620536D01*
X-104744890Y-50612025D01*
X-104798737Y-50616436D01*
G37*
X-104798737Y-50616436D02*
X-104944800Y-50632961D01*
X-104944800Y-51003729D01*
X-104811450Y-50990068D01*
X-104627351Y-50995139D01*
X-104457952Y-51046922D01*
X-104309381Y-51142056D01*
X-104187766Y-51277179D01*
X-104138889Y-51358869D01*
X-104055800Y-51519838D01*
X-104055800Y-52912400D01*
X-103624000Y-52912400D01*
X-103624000Y-50649745D01*
X-103833550Y-50657122D01*
X-104043100Y-50664500D01*
X-104068500Y-50886358D01*
X-104119269Y-50829946D01*
X-104237446Y-50733357D01*
X-104389298Y-50662267D01*
X-104562542Y-50620536D01*
X-104744890Y-50612025D01*
X-104798737Y-50616436D01*
G36*
X-108993030Y-50649406D02*
G01*
X-109215394Y-50715705D01*
X-109413633Y-50821213D01*
X-109583579Y-50961847D01*
X-109721059Y-51133524D01*
X-109821904Y-51332162D01*
X-109881943Y-51553678D01*
X-109897800Y-51749336D01*
X-109897800Y-51896400D01*
X-107992800Y-51896400D01*
X-107992800Y-51969498D01*
X-108015717Y-52092649D01*
X-108079155Y-52220172D01*
X-108175143Y-52341298D01*
X-108295711Y-52445256D01*
X-108384888Y-52499239D01*
X-108520742Y-52550647D01*
X-108681404Y-52575683D01*
X-108694372Y-52576596D01*
X-108876629Y-52574127D01*
X-109030303Y-52537329D01*
X-109167995Y-52461614D01*
X-109282693Y-52362419D01*
X-109418513Y-52226600D01*
X-109621768Y-52226600D01*
X-109722311Y-52227246D01*
X-109781533Y-52231122D01*
X-109808910Y-52241133D01*
X-109813919Y-52260182D01*
X-109808230Y-52283750D01*
X-109769917Y-52369398D01*
X-109704999Y-52472086D01*
X-109625274Y-52575606D01*
X-109542544Y-52663746D01*
X-109512357Y-52690173D01*
X-109313490Y-52819773D01*
X-109090802Y-52909237D01*
X-108854096Y-52956509D01*
X-108613173Y-52959535D01*
X-108401857Y-52923004D01*
X-108180745Y-52838879D01*
X-107985925Y-52715023D01*
X-107822325Y-52556554D01*
X-107694874Y-52368590D01*
X-107608501Y-52156249D01*
X-107589344Y-52079299D01*
X-107558808Y-51829242D01*
X-107572541Y-51589661D01*
X-107584722Y-51540800D01*
X-107994057Y-51540800D01*
X-108717328Y-51540800D01*
X-108929914Y-51540528D01*
X-109096999Y-51539521D01*
X-109223879Y-51537494D01*
X-109315851Y-51534158D01*
X-109378212Y-51529229D01*
X-109416259Y-51522420D01*
X-109435288Y-51513444D01*
X-109440597Y-51502014D01*
X-109440600Y-51501688D01*
X-109420223Y-51419758D01*
X-109365525Y-51324173D01*
X-109286152Y-51226722D01*
X-109191748Y-51139195D01*
X-109091961Y-51073383D01*
X-109088903Y-51071826D01*
X-108949847Y-51024277D01*
X-108785733Y-51003014D01*
X-108614928Y-51007960D01*
X-108455798Y-51039039D01*
X-108364060Y-51074844D01*
X-108217526Y-51176486D01*
X-108098649Y-51317797D01*
X-108018265Y-51477127D01*
X-107994057Y-51540800D01*
X-107584722Y-51540800D01*
X-107628367Y-51365735D01*
X-107724106Y-51162643D01*
X-107857579Y-50985563D01*
X-108026608Y-50839672D01*
X-108139499Y-50771689D01*
X-108334103Y-50687746D01*
X-108531426Y-50640901D01*
X-108750713Y-50626400D01*
X-108993030Y-50649406D01*
G37*
X-108993030Y-50649406D02*
X-109215394Y-50715705D01*
X-109413633Y-50821213D01*
X-109583579Y-50961847D01*
X-109721059Y-51133524D01*
X-109821904Y-51332162D01*
X-109881943Y-51553678D01*
X-109897800Y-51749336D01*
X-109897800Y-51896400D01*
X-107992800Y-51896400D01*
X-107992800Y-51969498D01*
X-108015717Y-52092649D01*
X-108079155Y-52220172D01*
X-108175143Y-52341298D01*
X-108295711Y-52445256D01*
X-108384888Y-52499239D01*
X-108520742Y-52550647D01*
X-108681404Y-52575683D01*
X-108694372Y-52576596D01*
X-108876629Y-52574127D01*
X-109030303Y-52537329D01*
X-109167995Y-52461614D01*
X-109282693Y-52362419D01*
X-109418513Y-52226600D01*
X-109621768Y-52226600D01*
X-109722311Y-52227246D01*
X-109781533Y-52231122D01*
X-109808910Y-52241133D01*
X-109813919Y-52260182D01*
X-109808230Y-52283750D01*
X-109769917Y-52369398D01*
X-109704999Y-52472086D01*
X-109625274Y-52575606D01*
X-109542544Y-52663746D01*
X-109512357Y-52690173D01*
X-109313490Y-52819773D01*
X-109090802Y-52909237D01*
X-108854096Y-52956509D01*
X-108613173Y-52959535D01*
X-108401857Y-52923004D01*
X-108180745Y-52838879D01*
X-107985925Y-52715023D01*
X-107822325Y-52556554D01*
X-107694874Y-52368590D01*
X-107608501Y-52156249D01*
X-107589344Y-52079299D01*
X-107558808Y-51829242D01*
X-107572541Y-51589661D01*
X-107584722Y-51540800D01*
X-107994057Y-51540800D01*
X-108717328Y-51540800D01*
X-108929914Y-51540528D01*
X-109096999Y-51539521D01*
X-109223879Y-51537494D01*
X-109315851Y-51534158D01*
X-109378212Y-51529229D01*
X-109416259Y-51522420D01*
X-109435288Y-51513444D01*
X-109440597Y-51502014D01*
X-109440600Y-51501688D01*
X-109420223Y-51419758D01*
X-109365525Y-51324173D01*
X-109286152Y-51226722D01*
X-109191748Y-51139195D01*
X-109091961Y-51073383D01*
X-109088903Y-51071826D01*
X-108949847Y-51024277D01*
X-108785733Y-51003014D01*
X-108614928Y-51007960D01*
X-108455798Y-51039039D01*
X-108364060Y-51074844D01*
X-108217526Y-51176486D01*
X-108098649Y-51317797D01*
X-108018265Y-51477127D01*
X-107994057Y-51540800D01*
X-107584722Y-51540800D01*
X-107628367Y-51365735D01*
X-107724106Y-51162643D01*
X-107857579Y-50985563D01*
X-108026608Y-50839672D01*
X-108139499Y-50771689D01*
X-108334103Y-50687746D01*
X-108531426Y-50640901D01*
X-108750713Y-50626400D01*
X-108993030Y-50649406D01*
G36*
X-102201486Y-50632840D02*
G01*
X-102454940Y-50668111D01*
X-102683025Y-50744807D01*
X-102882675Y-50860865D01*
X-103050825Y-51014222D01*
X-103184408Y-51202816D01*
X-103248956Y-51337600D01*
X-103280518Y-51451705D01*
X-103300785Y-51599371D01*
X-103309530Y-51764580D01*
X-103306525Y-51931313D01*
X-103291543Y-52083551D01*
X-103264356Y-52205275D01*
X-103261405Y-52213900D01*
X-103165019Y-52411172D01*
X-103025775Y-52587574D01*
X-102849179Y-52737769D01*
X-102640741Y-52856421D01*
X-102565840Y-52887770D01*
X-102433821Y-52924019D01*
X-102270835Y-52947467D01*
X-102095281Y-52957287D01*
X-101925560Y-52952650D01*
X-101780074Y-52932729D01*
X-101747253Y-52924599D01*
X-101533353Y-52842401D01*
X-101338621Y-52724093D01*
X-101171655Y-52576635D01*
X-101041056Y-52406986D01*
X-100990182Y-52311895D01*
X-100951837Y-52209102D01*
X-100917651Y-52084876D01*
X-100897599Y-51981628D01*
X-100890248Y-51840224D01*
X-101314574Y-51840224D01*
X-101328909Y-51987866D01*
X-101349041Y-52069207D01*
X-101402294Y-52181941D01*
X-101482695Y-52297333D01*
X-101576678Y-52398702D01*
X-101670674Y-52469365D01*
X-101677458Y-52473020D01*
X-101874198Y-52549118D01*
X-102079189Y-52579463D01*
X-102282604Y-52563243D01*
X-102395164Y-52532468D01*
X-102572444Y-52445347D01*
X-102716910Y-52321677D01*
X-102824087Y-52165341D01*
X-102828520Y-52156466D01*
X-102881510Y-52000401D01*
X-102903493Y-51823298D01*
X-102894139Y-51644017D01*
X-102853121Y-51481421D01*
X-102840789Y-51451900D01*
X-102743458Y-51292906D01*
X-102615761Y-51168092D01*
X-102465064Y-51077623D01*
X-102298736Y-51021666D01*
X-102124142Y-51000386D01*
X-101948649Y-51013949D01*
X-101779624Y-51062522D01*
X-101624434Y-51146270D01*
X-101490445Y-51265360D01*
X-101385465Y-51419101D01*
X-101343919Y-51536807D01*
X-101319933Y-51683526D01*
X-101314574Y-51840224D01*
X-100890248Y-51840224D01*
X-100884738Y-51734236D01*
X-100917150Y-51499693D01*
X-100992350Y-51283052D01*
X-101107857Y-51089365D01*
X-101261187Y-50923687D01*
X-101449860Y-50791069D01*
X-101493919Y-50767803D01*
X-101668205Y-50693053D01*
X-101839530Y-50648281D01*
X-102025405Y-50630147D01*
X-102201486Y-50632840D01*
G37*
X-102201486Y-50632840D02*
X-102454940Y-50668111D01*
X-102683025Y-50744807D01*
X-102882675Y-50860865D01*
X-103050825Y-51014222D01*
X-103184408Y-51202816D01*
X-103248956Y-51337600D01*
X-103280518Y-51451705D01*
X-103300785Y-51599371D01*
X-103309530Y-51764580D01*
X-103306525Y-51931313D01*
X-103291543Y-52083551D01*
X-103264356Y-52205275D01*
X-103261405Y-52213900D01*
X-103165019Y-52411172D01*
X-103025775Y-52587574D01*
X-102849179Y-52737769D01*
X-102640741Y-52856421D01*
X-102565840Y-52887770D01*
X-102433821Y-52924019D01*
X-102270835Y-52947467D01*
X-102095281Y-52957287D01*
X-101925560Y-52952650D01*
X-101780074Y-52932729D01*
X-101747253Y-52924599D01*
X-101533353Y-52842401D01*
X-101338621Y-52724093D01*
X-101171655Y-52576635D01*
X-101041056Y-52406986D01*
X-100990182Y-52311895D01*
X-100951837Y-52209102D01*
X-100917651Y-52084876D01*
X-100897599Y-51981628D01*
X-100890248Y-51840224D01*
X-101314574Y-51840224D01*
X-101328909Y-51987866D01*
X-101349041Y-52069207D01*
X-101402294Y-52181941D01*
X-101482695Y-52297333D01*
X-101576678Y-52398702D01*
X-101670674Y-52469365D01*
X-101677458Y-52473020D01*
X-101874198Y-52549118D01*
X-102079189Y-52579463D01*
X-102282604Y-52563243D01*
X-102395164Y-52532468D01*
X-102572444Y-52445347D01*
X-102716910Y-52321677D01*
X-102824087Y-52165341D01*
X-102828520Y-52156466D01*
X-102881510Y-52000401D01*
X-102903493Y-51823298D01*
X-102894139Y-51644017D01*
X-102853121Y-51481421D01*
X-102840789Y-51451900D01*
X-102743458Y-51292906D01*
X-102615761Y-51168092D01*
X-102465064Y-51077623D01*
X-102298736Y-51021666D01*
X-102124142Y-51000386D01*
X-101948649Y-51013949D01*
X-101779624Y-51062522D01*
X-101624434Y-51146270D01*
X-101490445Y-51265360D01*
X-101385465Y-51419101D01*
X-101343919Y-51536807D01*
X-101319933Y-51683526D01*
X-101314574Y-51840224D01*
X-100890248Y-51840224D01*
X-100884738Y-51734236D01*
X-100917150Y-51499693D01*
X-100992350Y-51283052D01*
X-101107857Y-51089365D01*
X-101261187Y-50923687D01*
X-101449860Y-50791069D01*
X-101493919Y-50767803D01*
X-101668205Y-50693053D01*
X-101839530Y-50648281D01*
X-102025405Y-50630147D01*
X-102201486Y-50632840D01*
G36*
X-99818549Y-50646988D02*
G01*
X-99933248Y-50673102D01*
X-100154350Y-50763639D01*
X-100345793Y-50890036D01*
X-100502722Y-51047988D01*
X-100620282Y-51233188D01*
X-100654937Y-51313254D01*
X-100688964Y-51406731D01*
X-100700583Y-51465761D01*
X-100683298Y-51498261D01*
X-100630612Y-51512149D01*
X-100536029Y-51515343D01*
X-100489069Y-51515400D01*
X-100275139Y-51515399D01*
X-100244233Y-51421754D01*
X-100177643Y-51295894D01*
X-100071138Y-51184503D01*
X-99934963Y-51094012D01*
X-99779364Y-51030854D01*
X-99614585Y-51001461D01*
X-99572699Y-51000142D01*
X-99390369Y-51022910D01*
X-99220065Y-51087221D01*
X-99070516Y-51187089D01*
X-98950453Y-51316526D01*
X-98868605Y-51469547D01*
X-98862407Y-51487267D01*
X-98828856Y-51645924D01*
X-98823073Y-51821402D01*
X-98843759Y-51995327D01*
X-98889613Y-52149322D01*
X-98912675Y-52197531D01*
X-99018404Y-52348138D01*
X-99153279Y-52460303D01*
X-99300602Y-52531915D01*
X-99479289Y-52574926D01*
X-99658759Y-52574773D01*
X-99830572Y-52534785D01*
X-99986290Y-52458291D01*
X-100117474Y-52348622D01*
X-100215684Y-52209106D01*
X-100237267Y-52162389D01*
X-100283900Y-52048990D01*
X-100493450Y-52048895D01*
X-100596168Y-52049561D01*
X-100658284Y-52053620D01*
X-100689995Y-52063992D01*
X-100701497Y-52083594D01*
X-100703000Y-52108887D01*
X-100687475Y-52183902D01*
X-100645924Y-52283781D01*
X-100585878Y-52395252D01*
X-100514869Y-52505041D01*
X-100440429Y-52599876D01*
X-100401538Y-52640119D01*
X-100221764Y-52775131D01*
X-100012907Y-52875811D01*
X-99786060Y-52938913D01*
X-99552318Y-52961194D01*
X-99356800Y-52945664D01*
X-99163587Y-52894943D01*
X-98975951Y-52811877D01*
X-98806260Y-52703860D01*
X-98666883Y-52578289D01*
X-98599989Y-52493165D01*
X-98518660Y-52358841D01*
X-98462770Y-52233887D01*
X-98428191Y-52103138D01*
X-98410793Y-51951430D01*
X-98406414Y-51782100D01*
X-98407919Y-51641194D01*
X-98413621Y-51537188D01*
X-98425298Y-51456236D01*
X-98444730Y-51384494D01*
X-98464351Y-51331197D01*
X-98569997Y-51131543D01*
X-98716262Y-50955026D01*
X-98895376Y-50809316D01*
X-99099569Y-50702085D01*
X-99102800Y-50700802D01*
X-99258783Y-50656914D01*
X-99442755Y-50632892D01*
X-99635687Y-50629372D01*
X-99818549Y-50646988D01*
G37*
X-99818549Y-50646988D02*
X-99933248Y-50673102D01*
X-100154350Y-50763639D01*
X-100345793Y-50890036D01*
X-100502722Y-51047988D01*
X-100620282Y-51233188D01*
X-100654937Y-51313254D01*
X-100688964Y-51406731D01*
X-100700583Y-51465761D01*
X-100683298Y-51498261D01*
X-100630612Y-51512149D01*
X-100536029Y-51515343D01*
X-100489069Y-51515400D01*
X-100275139Y-51515399D01*
X-100244233Y-51421754D01*
X-100177643Y-51295894D01*
X-100071138Y-51184503D01*
X-99934963Y-51094012D01*
X-99779364Y-51030854D01*
X-99614585Y-51001461D01*
X-99572699Y-51000142D01*
X-99390369Y-51022910D01*
X-99220065Y-51087221D01*
X-99070516Y-51187089D01*
X-98950453Y-51316526D01*
X-98868605Y-51469547D01*
X-98862407Y-51487267D01*
X-98828856Y-51645924D01*
X-98823073Y-51821402D01*
X-98843759Y-51995327D01*
X-98889613Y-52149322D01*
X-98912675Y-52197531D01*
X-99018404Y-52348138D01*
X-99153279Y-52460303D01*
X-99300602Y-52531915D01*
X-99479289Y-52574926D01*
X-99658759Y-52574773D01*
X-99830572Y-52534785D01*
X-99986290Y-52458291D01*
X-100117474Y-52348622D01*
X-100215684Y-52209106D01*
X-100237267Y-52162389D01*
X-100283900Y-52048990D01*
X-100493450Y-52048895D01*
X-100596168Y-52049561D01*
X-100658284Y-52053620D01*
X-100689995Y-52063992D01*
X-100701497Y-52083594D01*
X-100703000Y-52108887D01*
X-100687475Y-52183902D01*
X-100645924Y-52283781D01*
X-100585878Y-52395252D01*
X-100514869Y-52505041D01*
X-100440429Y-52599876D01*
X-100401538Y-52640119D01*
X-100221764Y-52775131D01*
X-100012907Y-52875811D01*
X-99786060Y-52938913D01*
X-99552318Y-52961194D01*
X-99356800Y-52945664D01*
X-99163587Y-52894943D01*
X-98975951Y-52811877D01*
X-98806260Y-52703860D01*
X-98666883Y-52578289D01*
X-98599989Y-52493165D01*
X-98518660Y-52358841D01*
X-98462770Y-52233887D01*
X-98428191Y-52103138D01*
X-98410793Y-51951430D01*
X-98406414Y-51782100D01*
X-98407919Y-51641194D01*
X-98413621Y-51537188D01*
X-98425298Y-51456236D01*
X-98444730Y-51384494D01*
X-98464351Y-51331197D01*
X-98569997Y-51131543D01*
X-98716262Y-50955026D01*
X-98895376Y-50809316D01*
X-99099569Y-50702085D01*
X-99102800Y-50700802D01*
X-99258783Y-50656914D01*
X-99442755Y-50632892D01*
X-99635687Y-50629372D01*
X-99818549Y-50646988D01*
%TD*%
D11*
%TO.C,Ref\u002A\u002A*%
X51934500Y-113581000D03*
%TD*%
%TO.C,Ref\u002A\u002A*%
X130970000Y-114971000D03*
%TD*%
%TO.C,Ref\u002A\u002A*%
X81735500Y-115599000D03*
%TD*%
%TO.C,Ref\u002A\u002A*%
X129103500Y-72916500D03*
%TD*%
%TO.C,Ref\u002A\u002A*%
X53246000Y-76416500D03*
%TD*%
%TO.C,Ref\u002A\u002A*%
X162974000Y-113955000D03*
%TD*%
D12*
%TO.C,SW30*%
X395529500Y-91590000D03*
D13*
X390449500Y-91590000D03*
X400609500Y-91590000D03*
D14*
X399339500Y-89050000D03*
X392989500Y-86510000D03*
%TD*%
D12*
%TO.C,SW41*%
X443730526Y-154697317D03*
D13*
X441190526Y-159096726D03*
X446270526Y-150297908D03*
D14*
X443435821Y-150127760D03*
X438061117Y-154357022D03*
%TD*%
D11*
%TO.C,Ref\u002A\u002A*%
X367190000Y-86830500D03*
%TD*%
%TO.C,Ref\u002A\u002A*%
X443047500Y-83330500D03*
%TD*%
%TO.C,Ref\u002A\u002A*%
X395679500Y-126013000D03*
%TD*%
%TO.C,Ref\u002A\u002A*%
X444914000Y-125385000D03*
%TD*%
%TO.C,Ref\u002A\u002A*%
X365878500Y-123995000D03*
%TD*%
D12*
%TO.C,SW28*%
X357529500Y-96340000D03*
D13*
X352449500Y-96340000D03*
X362609500Y-96340000D03*
D14*
X361339500Y-93800000D03*
X354989500Y-91260000D03*
%TD*%
D12*
%TO.C,SW27*%
X452536500Y-74970000D03*
D13*
X447456500Y-74970000D03*
X457616500Y-74970000D03*
D14*
X456346500Y-72430000D03*
X449996500Y-69890000D03*
%TD*%
D12*
%TO.C,SW26*%
X433529500Y-72590000D03*
D13*
X428449500Y-72590000D03*
X438609500Y-72590000D03*
D14*
X437339500Y-70050000D03*
X430989500Y-67510000D03*
%TD*%
D12*
%TO.C,SW39*%
X452529500Y-112965000D03*
D13*
X447449500Y-112965000D03*
X457609500Y-112965000D03*
D14*
X456339500Y-110425000D03*
X449989500Y-107885000D03*
%TD*%
D12*
%TO.C,SW29*%
X376529500Y-96340000D03*
D13*
X371449500Y-96340000D03*
X381609500Y-96340000D03*
D14*
X380339500Y-93800000D03*
X373989500Y-91260000D03*
%TD*%
D12*
%TO.C,SW24*%
X395529500Y-72590000D03*
D13*
X390449500Y-72590000D03*
X400609500Y-72590000D03*
D14*
X399339500Y-70050000D03*
X392989500Y-67510000D03*
%TD*%
D12*
%TO.C,SW25*%
X414529500Y-70215000D03*
D13*
X409449500Y-70215000D03*
X419609500Y-70215000D03*
D14*
X418339500Y-67675000D03*
X411989500Y-65135000D03*
%TD*%
D12*
%TO.C,SW35*%
X376529500Y-115340000D03*
D13*
X371449500Y-115340000D03*
X381609500Y-115340000D03*
D14*
X380339500Y-112800000D03*
X373989500Y-110260000D03*
%TD*%
D12*
%TO.C,SW33*%
X452529500Y-93965000D03*
D13*
X447449500Y-93965000D03*
X457609500Y-93965000D03*
D14*
X456339500Y-91425000D03*
X449989500Y-88885000D03*
%TD*%
D12*
%TO.C,SW22*%
X357529500Y-77340000D03*
D13*
X352449500Y-77340000D03*
X362609500Y-77340000D03*
D14*
X361339500Y-74800000D03*
X354989500Y-72260000D03*
%TD*%
D12*
%TO.C,SW23*%
X376529500Y-77340000D03*
D13*
X371449500Y-77340000D03*
X381609500Y-77340000D03*
D14*
X380339500Y-74800000D03*
X373989500Y-72260000D03*
%TD*%
D12*
%TO.C,SW37*%
X414529500Y-108215000D03*
D13*
X409449500Y-108215000D03*
X419609500Y-108215000D03*
D14*
X418339500Y-105675000D03*
X411989500Y-103135000D03*
%TD*%
D12*
%TO.C,SW31*%
X414529500Y-89215000D03*
D13*
X409449500Y-89215000D03*
X419609500Y-89215000D03*
D14*
X418339500Y-86675000D03*
X411989500Y-84135000D03*
%TD*%
D12*
%TO.C,SW32*%
X433529500Y-91590000D03*
D13*
X428449500Y-91590000D03*
X438609500Y-91590000D03*
D14*
X437339500Y-89050000D03*
X430989500Y-86510000D03*
%TD*%
D12*
%TO.C,SW34*%
X357529500Y-115340000D03*
D13*
X352449500Y-115340000D03*
X362609500Y-115340000D03*
D14*
X361339500Y-112800000D03*
X354989500Y-110260000D03*
%TD*%
D12*
%TO.C,SW38*%
X433529500Y-110590000D03*
D13*
X428449500Y-110590000D03*
X438609500Y-110590000D03*
D14*
X437339500Y-108050000D03*
X430989500Y-105510000D03*
%TD*%
D12*
%TO.C,SW48*%
X410059500Y-129707000D03*
D13*
X404979500Y-129707000D03*
X415139500Y-129707000D03*
D14*
X413869500Y-127167000D03*
X407519500Y-124627000D03*
%TD*%
D12*
%TO.C,SW42*%
X452239680Y-137419031D03*
D13*
X449699680Y-141818440D03*
X454779680Y-133019622D03*
D14*
X451944975Y-132849474D03*
X446570271Y-137078736D03*
%TD*%
D12*
%TO.C,SW46*%
X362355500Y-134390000D03*
D13*
X357275500Y-134390000D03*
X367435500Y-134390000D03*
D14*
X366165500Y-131850000D03*
X359815500Y-129310000D03*
%TD*%
D12*
%TO.C,SW36*%
X395529500Y-110590000D03*
D13*
X390449500Y-110590000D03*
X400609500Y-110590000D03*
D14*
X399339500Y-108050000D03*
X392989500Y-105510000D03*
%TD*%
D12*
%TO.C,SW40*%
X432600997Y-133310624D03*
D13*
X430060997Y-137710033D03*
X435140997Y-128911215D03*
D14*
X432306292Y-128741067D03*
X426931588Y-132970329D03*
%TD*%
D12*
%TO.C,SW47*%
X381405500Y-134390000D03*
D13*
X376325500Y-134390000D03*
X386485500Y-134390000D03*
D14*
X385215500Y-131850000D03*
X378865500Y-129310000D03*
%TD*%
D11*
%TO.C,Ref\u002A\u002A*%
X476918000Y-124369000D03*
%TD*%
%TO.C,Ref\u002A\u002A*%
X465996000Y-115225000D03*
%TD*%
%TO.C,*%
X-43094000Y-60396000D03*
%TD*%
%TO.C,*%
X-132844000Y-35396000D03*
%TD*%
%TO.C,*%
X-56844000Y-12896000D03*
%TD*%
%TO.C,*%
X-132844000Y-16646000D03*
%TD*%
%TO.C,*%
X-89594000Y-52646000D03*
%TD*%
M02*
