%TF.GenerationSoftware,KiCad,Pcbnew,(5.1.6-0-10_14)*%
%TF.CreationDate,2020-09-30T17:19:45+02:00*%
%TF.ProjectId,cornetrack,636f726e-6574-4726-9163-6b2e6b696361,1.1*%
%TF.SameCoordinates,Original*%
%TF.FileFunction,Profile,NP*%
%FSLAX46Y46*%
G04 Gerber Fmt 4.6, Leading zero omitted, Abs format (unit mm)*
G04 Created by KiCad (PCBNEW (5.1.6-0-10_14)) date 2020-09-30 17:19:45*
%MOMM*%
%LPD*%
G01*
G04 APERTURE LIST*
%TA.AperFunction,Profile*%
%ADD10C,0.200000*%
%TD*%
%TA.AperFunction,Profile*%
%ADD11C,0.120000*%
%TD*%
G04 APERTURE END LIST*
D10*
X27432000Y-102108000D02*
X22352000Y-102108000D01*
X284040000Y-40894000D02*
G75*
G03*
X284040000Y-40894000I-576000J0D01*
G01*
X284040000Y-96774000D02*
G75*
G03*
X284040000Y-96774000I-576000J0D01*
G01*
X163644000Y-84074000D02*
G75*
G03*
X163644000Y-84074000I-576000J0D01*
G01*
X192854000Y-33274000D02*
G75*
G03*
X192854000Y-33274000I-576000J0D01*
G01*
X107002000Y-26670000D02*
G75*
G03*
X107002000Y-26670000I-576000J0D01*
G01*
X132910000Y-83312000D02*
G75*
G03*
X132910000Y-83312000I-576000J0D01*
G01*
X60012000Y-90932000D02*
G75*
G03*
X60012000Y-90932000I-576000J0D01*
G01*
X32326000Y-94742000D02*
G75*
G03*
X32326000Y-94742000I-576000J0D01*
G01*
X31564000Y-29972000D02*
G75*
G03*
X31564000Y-29972000I-576000J0D01*
G01*
X119634000Y-109982000D02*
X126746000Y-97790000D01*
X130810000Y-94488000D02*
X165862000Y-94488000D01*
X11436499Y-26770301D02*
X11428621Y-26778427D01*
X10928499Y-27278549D02*
X10922000Y-27432000D01*
X10928499Y-27278301D02*
X10928499Y-27278549D01*
X11428621Y-26778427D02*
X11211837Y-26827678D01*
X11211837Y-26827678D02*
X11042752Y-26960284D01*
X11042752Y-26960284D02*
X10944271Y-27153347D01*
X10944271Y-27153347D02*
X10928499Y-27278301D01*
X10922000Y-27432000D02*
X10922000Y-102108000D01*
X129286000Y-93726000D02*
X129540000Y-93726000D01*
X167386000Y-93726000D02*
X167132000Y-93726000D01*
X167132000Y-93726000D02*
X165862000Y-94488000D01*
X129540000Y-93726000D02*
X130810000Y-94488000D01*
X131826000Y-89662000D02*
X164846000Y-89662000D01*
X128778000Y-94488000D02*
X129286000Y-93726000D01*
X132080000Y-88900000D02*
X131826000Y-89408000D01*
X131826000Y-89408000D02*
X131826000Y-89662000D01*
X126746000Y-97790000D02*
X128778000Y-94488000D01*
X164846000Y-89408000D02*
X164846000Y-89662000D01*
X164592000Y-88900000D02*
X164846000Y-89408000D01*
X167894000Y-94488000D02*
X167386000Y-93726000D01*
X144629784Y-86742945D02*
X144526000Y-87630000D01*
X151955216Y-86750945D02*
X152146000Y-87630000D01*
X93218000Y-101854000D02*
X98552000Y-104902000D01*
X109474000Y-126492000D02*
X110236000Y-126492000D01*
X78740000Y-97282000D02*
X85344000Y-97282000D01*
X34544000Y-102108000D02*
X53086000Y-102108000D01*
X53340000Y-102108000D02*
X63246000Y-97282000D01*
X10922000Y-102108000D02*
X22352000Y-102108000D01*
X132080000Y-88900000D02*
X144526000Y-87630000D01*
X93218000Y-116078000D02*
X93472000Y-117094000D01*
X27432000Y-102108000D02*
X34544000Y-102108000D01*
X98806000Y-106426000D02*
X93218000Y-116078000D01*
X53086000Y-102108000D02*
X53340000Y-102108000D01*
X85344000Y-97282000D02*
X93218000Y-101854000D01*
X110236000Y-126492000D02*
X119634000Y-109982000D01*
X93472000Y-117094000D02*
X109474000Y-126492000D01*
X98552000Y-104902000D02*
X98806000Y-106426000D01*
X63246000Y-97282000D02*
X78740000Y-97282000D01*
X164592000Y-88900000D02*
X152146000Y-87630000D01*
X169926000Y-97790000D02*
X167894000Y-94488000D01*
X177038000Y-109982000D02*
X169926000Y-97790000D01*
X186436000Y-126492000D02*
X177038000Y-109982000D01*
X187198000Y-126492000D02*
X186436000Y-126492000D01*
X203200000Y-117094000D02*
X187198000Y-126492000D01*
X203454000Y-116078000D02*
X203200000Y-117094000D01*
X197866000Y-106426000D02*
X203454000Y-116078000D01*
X198120000Y-104902000D02*
X197866000Y-106426000D01*
X203454000Y-101854000D02*
X198120000Y-104902000D01*
X211328000Y-97282000D02*
X203454000Y-101854000D01*
X217678000Y-97282000D02*
X211328000Y-97282000D01*
X233426000Y-97282000D02*
X217678000Y-97282000D01*
X243332000Y-102108000D02*
X233426000Y-97282000D01*
X243586000Y-102108000D02*
X243332000Y-102108000D01*
X262128000Y-102108000D02*
X243586000Y-102108000D01*
X269240000Y-102108000D02*
X262128000Y-102108000D01*
X285750000Y-102108000D02*
X269240000Y-102108000D01*
X247904000Y-22028252D02*
X241077500Y-22028252D01*
X247904000Y-22098000D02*
X247904000Y-22028252D01*
X247904000Y-26670000D02*
X247904000Y-22098000D01*
X285750000Y-26924000D02*
X285750000Y-26670000D01*
X285750000Y-27432000D02*
X285750000Y-26924000D01*
X105188823Y-24017707D02*
X105188823Y-22519109D01*
X123690165Y-24518087D02*
X105689203Y-24518087D01*
X144629784Y-27268904D02*
X144580458Y-27052210D01*
X144580458Y-27052210D02*
X144447840Y-26883212D01*
X144447840Y-26883212D02*
X144254815Y-26784791D01*
X144254815Y-26784791D02*
X144129901Y-26769031D01*
X144629784Y-27268904D02*
X144629784Y-86742945D01*
X48689119Y-26768525D02*
X11436499Y-26770301D01*
X85689263Y-19768292D02*
X68689060Y-19768292D01*
X86189642Y-21518350D02*
X86189642Y-20268671D01*
X104688444Y-22018729D02*
X98567500Y-22018729D01*
X124188005Y-25018466D02*
X124190287Y-26270179D01*
X124190287Y-25020242D02*
X124141034Y-24803463D01*
X124141034Y-24803463D02*
X124008434Y-24634379D01*
X124008434Y-24634379D02*
X123815376Y-24535895D01*
X123815376Y-24535895D02*
X123690423Y-24520121D01*
X49189499Y-22519109D02*
X49189499Y-26268145D01*
X67688301Y-22018729D02*
X60577500Y-22018729D01*
X68190456Y-20270194D02*
X68188680Y-21518350D01*
X144129901Y-26769031D02*
X124690408Y-26770301D01*
X48690389Y-26770301D02*
X48907172Y-26721049D01*
X48907172Y-26721049D02*
X49076257Y-26588443D01*
X49076257Y-26588443D02*
X49174738Y-26395380D01*
X49174738Y-26395380D02*
X49190511Y-26270427D01*
X49190511Y-26270427D02*
X49190511Y-26270179D01*
X49690384Y-22020252D02*
X49473691Y-22069580D01*
X49473691Y-22069580D02*
X49304694Y-22202193D01*
X49304694Y-22202193D02*
X49206272Y-22395212D01*
X49206272Y-22395212D02*
X49190511Y-22520126D01*
X67690335Y-22020252D02*
X67907118Y-21971001D01*
X67907118Y-21971001D02*
X68076203Y-21838395D01*
X68076203Y-21838395D02*
X68174683Y-21645331D01*
X68174683Y-21645331D02*
X68190456Y-21520379D01*
X68190456Y-21520379D02*
X68190456Y-21520126D01*
X68690330Y-19770068D02*
X68473570Y-19819427D01*
X68473570Y-19819427D02*
X68304550Y-19952116D01*
X68304550Y-19952116D02*
X68206165Y-20145228D01*
X68206165Y-20145228D02*
X68190456Y-20270189D01*
X68190456Y-20270189D02*
X68190456Y-20270194D01*
X86190406Y-20270194D02*
X86141156Y-20053411D01*
X86141156Y-20053411D02*
X86008551Y-19884324D01*
X86008551Y-19884324D02*
X85815487Y-19785840D01*
X85815487Y-19785840D02*
X85690533Y-19770068D01*
X86190406Y-21520126D02*
X86239656Y-21736908D01*
X86239656Y-21736908D02*
X86372261Y-21905995D01*
X86372261Y-21905995D02*
X86565325Y-22004479D01*
X86565325Y-22004479D02*
X86690280Y-22020252D01*
X86690280Y-22020252D02*
X86690528Y-22020252D01*
X105190351Y-22520126D02*
X105141023Y-22303433D01*
X105141023Y-22303433D02*
X105008410Y-22134436D01*
X105008410Y-22134436D02*
X104815391Y-22036014D01*
X104815391Y-22036014D02*
X104690478Y-22020252D01*
X105190351Y-24020247D02*
X105239710Y-24237004D01*
X105239710Y-24237004D02*
X105372398Y-24406024D01*
X105372398Y-24406024D02*
X105565510Y-24504410D01*
X105565510Y-24504410D02*
X105690473Y-24520121D01*
X124190287Y-26270179D02*
X124239543Y-26486960D01*
X124239543Y-26486960D02*
X124372150Y-26656046D01*
X124372150Y-26656046D02*
X124565215Y-26754528D01*
X124565215Y-26754528D02*
X124690170Y-26770301D01*
X124690170Y-26770301D02*
X124690408Y-26770301D01*
X86690528Y-22020252D02*
X93727500Y-22020252D01*
X49690384Y-22020252D02*
X55817500Y-22020252D01*
X210204472Y-22028252D02*
X203167500Y-22028252D01*
X172204830Y-26778301D02*
X172204592Y-26778301D01*
X172704713Y-26278179D02*
X172655456Y-26494960D01*
X172655456Y-26494960D02*
X172522849Y-26664046D01*
X172522849Y-26664046D02*
X172329784Y-26762528D01*
X172329784Y-26762528D02*
X172204830Y-26778301D01*
X191704649Y-24028247D02*
X191655289Y-24245004D01*
X191655289Y-24245004D02*
X191522601Y-24414024D01*
X191522601Y-24414024D02*
X191329489Y-24512410D01*
X191329489Y-24512410D02*
X191204527Y-24528121D01*
X191704649Y-22528126D02*
X191753976Y-22311433D01*
X191753976Y-22311433D02*
X191886589Y-22142436D01*
X191886589Y-22142436D02*
X192079608Y-22044014D01*
X192079608Y-22044014D02*
X192204522Y-22028252D01*
X210204720Y-22028252D02*
X210204472Y-22028252D01*
X210704594Y-21528126D02*
X210655343Y-21744908D01*
X210655343Y-21744908D02*
X210522738Y-21913995D01*
X210522738Y-21913995D02*
X210329674Y-22012479D01*
X210329674Y-22012479D02*
X210204720Y-22028252D01*
X210704594Y-20278194D02*
X210753843Y-20061411D01*
X210753843Y-20061411D02*
X210886448Y-19892324D01*
X210886448Y-19892324D02*
X211079512Y-19793840D01*
X211079512Y-19793840D02*
X211204467Y-19778068D01*
X228704544Y-20278189D02*
X228704544Y-20278194D01*
X228204670Y-19778068D02*
X228421429Y-19827427D01*
X228421429Y-19827427D02*
X228590449Y-19960116D01*
X228590449Y-19960116D02*
X228688834Y-20153228D01*
X228688834Y-20153228D02*
X228704544Y-20278189D01*
X228704544Y-21528379D02*
X228704544Y-21528126D01*
X229204665Y-22028252D02*
X228987881Y-21979001D01*
X228987881Y-21979001D02*
X228818796Y-21846395D01*
X228818796Y-21846395D02*
X228720316Y-21653331D01*
X228720316Y-21653331D02*
X228704544Y-21528379D01*
X152455595Y-26776525D02*
X172204592Y-26778301D01*
X228706320Y-20276671D02*
X228706320Y-21526350D01*
X229206699Y-22026729D02*
X236317500Y-22026729D01*
X172704713Y-25028242D02*
X172753965Y-24811463D01*
X172753965Y-24811463D02*
X172886565Y-24642379D01*
X172886565Y-24642379D02*
X173079623Y-24543895D01*
X173079623Y-24543895D02*
X173204577Y-24528121D01*
X172706995Y-25026466D02*
X172704713Y-26278179D01*
X192206556Y-22026729D02*
X198327500Y-22026729D01*
X210705358Y-21526350D02*
X210705358Y-20276671D01*
X211205737Y-19776292D02*
X228205940Y-19776292D01*
X247904000Y-26670000D02*
X285750000Y-26671776D01*
X285750000Y-27432000D02*
X285751776Y-102108000D01*
X151955216Y-27276904D02*
X151955216Y-86750945D01*
X151954700Y-27278174D02*
X152004025Y-27061480D01*
X152004025Y-27061480D02*
X152136643Y-26892482D01*
X152136643Y-26892482D02*
X152329668Y-26794061D01*
X152329668Y-26794061D02*
X152454583Y-26778301D01*
X173204835Y-24526087D02*
X191205797Y-24526087D01*
X191706177Y-24025707D02*
X191706177Y-22527109D01*
X197983500Y-18306600D02*
X197811500Y-18166300D01*
X197811500Y-18166300D02*
X197615500Y-18062100D01*
X60562500Y-19125000D02*
X60577500Y-22018729D01*
X60584400Y-18901600D02*
X60562500Y-19125000D01*
X60648600Y-18689100D02*
X60584400Y-18901600D01*
X60752800Y-18493200D02*
X60648600Y-18689100D01*
X60893000Y-18321200D02*
X60752800Y-18493200D01*
X61064100Y-18179700D02*
X60893000Y-18321200D01*
X61259300Y-18074100D02*
X61064100Y-18179700D01*
X61471300Y-18008500D02*
X61259300Y-18074100D01*
X61694400Y-17985000D02*
X61471300Y-18008500D01*
X61700200Y-17985000D02*
X61694400Y-17985000D01*
X92572600Y-17985000D02*
X61700200Y-17985000D01*
X92795900Y-18006900D02*
X92572600Y-17985000D01*
X93008400Y-18071100D02*
X92795900Y-18006900D01*
X93204300Y-18175300D02*
X93008400Y-18071100D01*
X93376300Y-18315600D02*
X93204300Y-18175300D01*
X93517800Y-18486600D02*
X93376300Y-18315600D01*
X93623400Y-18681800D02*
X93517800Y-18486600D01*
X93689000Y-18893800D02*
X93623400Y-18681800D01*
X93712500Y-19116900D02*
X93689000Y-18893800D01*
X93712500Y-19122700D02*
X93712500Y-19116900D01*
X93727500Y-22020252D02*
X93712500Y-19122700D01*
X203170500Y-19116000D02*
X203167500Y-22028252D01*
X203191500Y-18892600D02*
X203170500Y-19116000D01*
X203256500Y-18680100D02*
X203191500Y-18892600D01*
X203360500Y-18484200D02*
X203256500Y-18680100D01*
X203500500Y-18312200D02*
X203360500Y-18484200D01*
X203671500Y-18170700D02*
X203500500Y-18312200D01*
X203866500Y-18065100D02*
X203671500Y-18170700D01*
X204078500Y-17999500D02*
X203866500Y-18065100D01*
X204301500Y-17976000D02*
X204078500Y-17999500D01*
X204307500Y-17976000D02*
X204301500Y-17976000D01*
X235180500Y-17976000D02*
X204307500Y-17976000D01*
X235403500Y-17997900D02*
X235180500Y-17976000D01*
X235615500Y-18062100D02*
X235403500Y-17997900D01*
X235811500Y-18166300D02*
X235615500Y-18062100D01*
X235983500Y-18306600D02*
X235811500Y-18166300D01*
X236125500Y-18477600D02*
X235983500Y-18306600D01*
X236230500Y-18672800D02*
X236125500Y-18477600D01*
X236296500Y-18884800D02*
X236230500Y-18672800D01*
X236319500Y-19107900D02*
X236296500Y-18884800D01*
X236319500Y-19113700D02*
X236319500Y-19107900D01*
X236317500Y-22026729D02*
X236319500Y-19113700D01*
X98562500Y-19125000D02*
X98567500Y-22018729D01*
X98584500Y-18901600D02*
X98562500Y-19125000D01*
X98648500Y-18689100D02*
X98584500Y-18901600D01*
X98752500Y-18493200D02*
X98648500Y-18689100D01*
X98893500Y-18321200D02*
X98752500Y-18493200D01*
X99064500Y-18179700D02*
X98893500Y-18321200D01*
X99259500Y-18074100D02*
X99064500Y-18179700D01*
X99471500Y-18008500D02*
X99259500Y-18074100D01*
X99694500Y-17985000D02*
X99471500Y-18008500D01*
X99700500Y-17985000D02*
X99694500Y-17985000D01*
X197180500Y-17976000D02*
X99700500Y-17985000D01*
X197403500Y-17997900D02*
X197180500Y-17976000D01*
X197615500Y-18062100D02*
X197403500Y-17997900D01*
X198125500Y-18477600D02*
X197983500Y-18306600D01*
X198230500Y-18672800D02*
X198125500Y-18477600D01*
X198296500Y-18884800D02*
X198230500Y-18672800D01*
X198319500Y-19107900D02*
X198296500Y-18884800D01*
X198319500Y-19113700D02*
X198319500Y-19107900D01*
X198327500Y-22026729D02*
X198319500Y-19113700D01*
X55812500Y-19120100D02*
X55817500Y-22020252D01*
X55812500Y-19120000D02*
X55812500Y-19120100D01*
X55812500Y-19114100D02*
X55812500Y-19120000D01*
X55812200Y-19111900D02*
X55812500Y-19114100D01*
X55812300Y-19109700D02*
X55812200Y-19111900D01*
X55812200Y-19109000D02*
X55812300Y-19109700D01*
X55788000Y-18878500D02*
X55812200Y-19109000D01*
X55787100Y-18874100D02*
X55788000Y-18878500D01*
X55786200Y-18869600D02*
X55787100Y-18874100D01*
X55786000Y-18869000D02*
X55786200Y-18869600D01*
X55717500Y-18647600D02*
X55786000Y-18869000D01*
X55715700Y-18643400D02*
X55717500Y-18647600D01*
X55714000Y-18639200D02*
X55715700Y-18643400D01*
X55713700Y-18638600D02*
X55714000Y-18639200D01*
X55713700Y-18638600D02*
X55713700Y-18638600D01*
X55713700Y-18638600D02*
X55713700Y-18638600D01*
X55603500Y-18434700D02*
X55713700Y-18638600D01*
X55600900Y-18430900D02*
X55603500Y-18434700D01*
X55598400Y-18427100D02*
X55600900Y-18430900D01*
X55598000Y-18426600D02*
X55598400Y-18427100D01*
X55450300Y-18248000D02*
X55598000Y-18426600D01*
X55447000Y-18244800D02*
X55450300Y-18248000D01*
X55443900Y-18241600D02*
X55447000Y-18244800D01*
X55443400Y-18241200D02*
X55443900Y-18241600D01*
X55263800Y-18094700D02*
X55443400Y-18241200D01*
X55260000Y-18092200D02*
X55263800Y-18094700D01*
X55256200Y-18089600D02*
X55260000Y-18092200D01*
X55255600Y-18089300D02*
X55256200Y-18089600D01*
X55255600Y-18089300D02*
X55255600Y-18089300D01*
X55255600Y-18089300D02*
X55255600Y-18089300D01*
X55051000Y-17980500D02*
X55255600Y-18089300D01*
X55046800Y-17978700D02*
X55051000Y-17980500D01*
X55042600Y-17977000D02*
X55046800Y-17978700D01*
X55042000Y-17976800D02*
X55042600Y-17977000D01*
X54820100Y-17909800D02*
X55042000Y-17976800D01*
X54815600Y-17908900D02*
X54820100Y-17909800D01*
X54811200Y-17907900D02*
X54815600Y-17908900D01*
X54810500Y-17907900D02*
X54811200Y-17907900D01*
X54810500Y-17907900D02*
X54810500Y-17907900D01*
X54810500Y-17907900D02*
X54810500Y-17907900D01*
X54579900Y-17885300D02*
X54810500Y-17907900D01*
X54579900Y-17885300D02*
X54579900Y-17885300D01*
X54577400Y-17885000D02*
X54579900Y-17885300D01*
X11827400Y-17885000D02*
X54577400Y-17885000D01*
X11604100Y-17863100D02*
X11827400Y-17885000D01*
X11391600Y-17799000D02*
X11604100Y-17863100D01*
X11195700Y-17694800D02*
X11391600Y-17799000D01*
X11023600Y-17554500D02*
X11195700Y-17694800D01*
X10882200Y-17383500D02*
X11023600Y-17554500D01*
X10776600Y-17188200D02*
X10882200Y-17383500D01*
X10711000Y-16976200D02*
X10776600Y-17188200D01*
X10687500Y-16753100D02*
X10711000Y-16976200D01*
X10687500Y-16747300D02*
X10687500Y-16753100D01*
X10687500Y-13187500D02*
X10687500Y-16747300D01*
X10709400Y-12964100D02*
X10687500Y-13187500D01*
X10773600Y-12751600D02*
X10709400Y-12964100D01*
X10877800Y-12555700D02*
X10773600Y-12751600D01*
X11018000Y-12383700D02*
X10877800Y-12555700D01*
X11189100Y-12242200D02*
X11018000Y-12383700D01*
X11384300Y-12136600D02*
X11189100Y-12242200D01*
X11596300Y-12071000D02*
X11384300Y-12136600D01*
X11819400Y-12047500D02*
X11596300Y-12071000D01*
X11825200Y-12047500D02*
X11819400Y-12047500D01*
X285055500Y-12038500D02*
X11825200Y-12047500D01*
X285278500Y-12060400D02*
X285055500Y-12038500D01*
X285490500Y-12124600D02*
X285278500Y-12060400D01*
X285686500Y-12228800D02*
X285490500Y-12124600D01*
X285858500Y-12369100D02*
X285686500Y-12228800D01*
X286000500Y-12540100D02*
X285858500Y-12369100D01*
X286105500Y-12735300D02*
X286000500Y-12540100D01*
X286171500Y-12947300D02*
X286105500Y-12735300D01*
X286194500Y-13170400D02*
X286171500Y-12947300D01*
X286194500Y-13176200D02*
X286194500Y-13170400D01*
X286195500Y-16736100D02*
X286194500Y-13176200D01*
X286173500Y-16959400D02*
X286195500Y-16736100D01*
X286108500Y-17171900D02*
X286173500Y-16959400D01*
X286004500Y-17367900D02*
X286108500Y-17171900D01*
X285864500Y-17539900D02*
X286004500Y-17367900D01*
X285693500Y-17681400D02*
X285864500Y-17539900D01*
X285498500Y-17786900D02*
X285693500Y-17681400D01*
X285286500Y-17852600D02*
X285498500Y-17786900D01*
X285063500Y-17876000D02*
X285286500Y-17852600D01*
X285057500Y-17876000D02*
X285063500Y-17876000D01*
X242305500Y-17876000D02*
X285057500Y-17876000D01*
X242304500Y-17876000D02*
X242305500Y-17876000D01*
X242299500Y-17876000D02*
X242304500Y-17876000D01*
X242296500Y-17876300D02*
X242299500Y-17876000D01*
X242294500Y-17876300D02*
X242296500Y-17876300D01*
X242293500Y-17876300D02*
X242294500Y-17876300D01*
X242063500Y-17900500D02*
X242293500Y-17876300D01*
X242059500Y-17901500D02*
X242063500Y-17900500D01*
X242054500Y-17902300D02*
X242059500Y-17901500D01*
X242053500Y-17902500D02*
X242054500Y-17902300D01*
X242053500Y-17902500D02*
X242053500Y-17902500D01*
X241832500Y-17971000D02*
X242053500Y-17902500D01*
X241828500Y-17972800D02*
X241832500Y-17971000D01*
X241824500Y-17974500D02*
X241828500Y-17972800D01*
X241823500Y-17974800D02*
X241824500Y-17974500D01*
X241823500Y-17974800D02*
X241823500Y-17974800D01*
X241823500Y-17974800D02*
X241823500Y-17974800D01*
X241619500Y-18085100D02*
X241823500Y-17974800D01*
X241615500Y-18087600D02*
X241619500Y-18085100D01*
X241612500Y-18090100D02*
X241615500Y-18087600D01*
X241611500Y-18090500D02*
X241612500Y-18090100D01*
X241433500Y-18238200D02*
X241611500Y-18090500D01*
X241429500Y-18241500D02*
X241433500Y-18238200D01*
X241426500Y-18244600D02*
X241429500Y-18241500D01*
X241426500Y-18245200D02*
X241426500Y-18244600D01*
X241279500Y-18424800D02*
X241426500Y-18245200D01*
X241277500Y-18428500D02*
X241279500Y-18424800D01*
X241274500Y-18432300D02*
X241277500Y-18428500D01*
X241274500Y-18432900D02*
X241274500Y-18432300D01*
X241274500Y-18432900D02*
X241274500Y-18432900D01*
X241274500Y-18432900D02*
X241274500Y-18432900D01*
X241165500Y-18637500D02*
X241274500Y-18432900D01*
X241163500Y-18641700D02*
X241165500Y-18637500D01*
X241161500Y-18645900D02*
X241163500Y-18641700D01*
X241161500Y-18646500D02*
X241161500Y-18645900D01*
X241094500Y-18868400D02*
X241161500Y-18646500D01*
X241093500Y-18872900D02*
X241094500Y-18868400D01*
X241092500Y-18877300D02*
X241093500Y-18872900D01*
X241092500Y-18878000D02*
X241092500Y-18877300D01*
X241092500Y-18878000D02*
X241092500Y-18878000D01*
X241092500Y-18878000D02*
X241092500Y-18878000D01*
X241070500Y-19108600D02*
X241092500Y-18878000D01*
X241069500Y-19111100D02*
X241070500Y-19108600D01*
X241077500Y-22028252D02*
X241069500Y-19111100D01*
D11*
%TO.C,LED52*%
X196921225Y-96492471D02*
X195121225Y-93374779D01*
X199605903Y-94942471D02*
X196921225Y-96492471D01*
X197805903Y-91824779D02*
X199605903Y-94942471D01*
X195121225Y-93374779D02*
X197805903Y-91824779D01*
%TO.C,LED59*%
X70844000Y-94514000D02*
X70844000Y-91414000D01*
X70844000Y-91414000D02*
X74444000Y-91414000D01*
X74444000Y-91414000D02*
X74444000Y-94514000D01*
X74444000Y-94514000D02*
X70844000Y-94514000D01*
%TO.C,LED56*%
X42183500Y-99130000D02*
X42183500Y-96030000D01*
X42183500Y-96030000D02*
X45783500Y-96030000D01*
X45783500Y-96030000D02*
X45783500Y-99130000D01*
X45783500Y-99130000D02*
X42183500Y-99130000D01*
%TO.C,LED58*%
X250931500Y-99130000D02*
X250931500Y-96030000D01*
X250931500Y-96030000D02*
X254531500Y-96030000D01*
X254531500Y-96030000D02*
X254531500Y-99130000D01*
X254531500Y-99130000D02*
X250931500Y-99130000D01*
%TO.C,LED57*%
X269981500Y-99130000D02*
X269981500Y-96030000D01*
X269981500Y-96030000D02*
X273581500Y-96030000D01*
X273581500Y-96030000D02*
X273581500Y-99130000D01*
X273581500Y-99130000D02*
X269981500Y-99130000D01*
%TO.C,LED55*%
X18307500Y-99130000D02*
X18307500Y-96030000D01*
X18307500Y-96030000D02*
X21907500Y-96030000D01*
X21907500Y-96030000D02*
X21907500Y-99130000D01*
X21907500Y-99130000D02*
X18307500Y-99130000D01*
%TO.C,LED26*%
X110904460Y-117841162D02*
X108219782Y-116291162D01*
X108219782Y-116291162D02*
X110019782Y-113173470D01*
X110019782Y-113173470D02*
X112704460Y-114723470D01*
X112704460Y-114723470D02*
X110904460Y-117841162D01*
%TO.C,LED7*%
X18307500Y-42080000D02*
X18307500Y-38980000D01*
X18307500Y-38980000D02*
X21907500Y-38980000D01*
X21907500Y-38980000D02*
X21907500Y-42080000D01*
X21907500Y-42080000D02*
X18307500Y-42080000D01*
%TO.C,LED8*%
X37307500Y-42080000D02*
X37307500Y-38980000D01*
X37307500Y-38980000D02*
X40907500Y-38980000D01*
X40907500Y-38980000D02*
X40907500Y-42080000D01*
X40907500Y-42080000D02*
X37307500Y-42080000D01*
%TO.C,LED9*%
X56307500Y-37330000D02*
X56307500Y-34230000D01*
X56307500Y-34230000D02*
X59907500Y-34230000D01*
X59907500Y-34230000D02*
X59907500Y-37330000D01*
X59907500Y-37330000D02*
X56307500Y-37330000D01*
%TO.C,LED10*%
X75307500Y-34955000D02*
X75307500Y-31855000D01*
X75307500Y-31855000D02*
X78907500Y-31855000D01*
X78907500Y-31855000D02*
X78907500Y-34955000D01*
X78907500Y-34955000D02*
X75307500Y-34955000D01*
%TO.C,LED11*%
X94307500Y-37330000D02*
X94307500Y-34230000D01*
X94307500Y-34230000D02*
X97907500Y-34230000D01*
X97907500Y-34230000D02*
X97907500Y-37330000D01*
X97907500Y-37330000D02*
X94307500Y-37330000D01*
%TO.C,LED12*%
X113307500Y-39705000D02*
X113307500Y-36605000D01*
X113307500Y-36605000D02*
X116907500Y-36605000D01*
X116907500Y-36605000D02*
X116907500Y-39705000D01*
X116907500Y-39705000D02*
X113307500Y-39705000D01*
%TO.C,LED13*%
X18307500Y-61080000D02*
X18307500Y-57980000D01*
X18307500Y-57980000D02*
X21907500Y-57980000D01*
X21907500Y-57980000D02*
X21907500Y-61080000D01*
X21907500Y-61080000D02*
X18307500Y-61080000D01*
%TO.C,LED14*%
X37307500Y-61080000D02*
X37307500Y-57980000D01*
X37307500Y-57980000D02*
X40907500Y-57980000D01*
X40907500Y-57980000D02*
X40907500Y-61080000D01*
X40907500Y-61080000D02*
X37307500Y-61080000D01*
%TO.C,LED15*%
X56307500Y-56330000D02*
X56307500Y-53230000D01*
X56307500Y-53230000D02*
X59907500Y-53230000D01*
X59907500Y-53230000D02*
X59907500Y-56330000D01*
X59907500Y-56330000D02*
X56307500Y-56330000D01*
%TO.C,LED16*%
X75307500Y-53955000D02*
X75307500Y-50855000D01*
X75307500Y-50855000D02*
X78907500Y-50855000D01*
X78907500Y-50855000D02*
X78907500Y-53955000D01*
X78907500Y-53955000D02*
X75307500Y-53955000D01*
%TO.C,LED17*%
X94307500Y-56330000D02*
X94307500Y-53230000D01*
X94307500Y-53230000D02*
X97907500Y-53230000D01*
X97907500Y-53230000D02*
X97907500Y-56330000D01*
X97907500Y-56330000D02*
X94307500Y-56330000D01*
%TO.C,LED18*%
X113307500Y-58705000D02*
X113307500Y-55605000D01*
X113307500Y-55605000D02*
X116907500Y-55605000D01*
X116907500Y-55605000D02*
X116907500Y-58705000D01*
X116907500Y-58705000D02*
X113307500Y-58705000D01*
%TO.C,LED19*%
X18307500Y-80080000D02*
X18307500Y-76980000D01*
X18307500Y-76980000D02*
X21907500Y-76980000D01*
X21907500Y-76980000D02*
X21907500Y-80080000D01*
X21907500Y-80080000D02*
X18307500Y-80080000D01*
%TO.C,LED20*%
X37307500Y-80080000D02*
X37307500Y-76980000D01*
X37307500Y-76980000D02*
X40907500Y-76980000D01*
X40907500Y-76980000D02*
X40907500Y-80080000D01*
X40907500Y-80080000D02*
X37307500Y-80080000D01*
%TO.C,LED21*%
X56307500Y-75330000D02*
X56307500Y-72230000D01*
X56307500Y-72230000D02*
X59907500Y-72230000D01*
X59907500Y-72230000D02*
X59907500Y-75330000D01*
X59907500Y-75330000D02*
X56307500Y-75330000D01*
%TO.C,LED22*%
X75307500Y-72955000D02*
X75307500Y-69855000D01*
X75307500Y-69855000D02*
X78907500Y-69855000D01*
X78907500Y-69855000D02*
X78907500Y-72955000D01*
X78907500Y-72955000D02*
X75307500Y-72955000D01*
%TO.C,LED24*%
X113307500Y-77705000D02*
X113307500Y-74605000D01*
X113307500Y-74605000D02*
X116907500Y-74605000D01*
X116907500Y-74605000D02*
X116907500Y-77705000D01*
X116907500Y-77705000D02*
X113307500Y-77705000D01*
%TO.C,LED25*%
X99799460Y-96454470D02*
X97114782Y-94904470D01*
X97114782Y-94904470D02*
X98914782Y-91786778D01*
X98914782Y-91786778D02*
X101599460Y-93336778D01*
X101599460Y-93336778D02*
X99799460Y-96454470D01*
%TO.C,LED27*%
X119438460Y-100562877D02*
X116753782Y-99012877D01*
X116753782Y-99012877D02*
X118553782Y-95895185D01*
X118553782Y-95895185D02*
X121238460Y-97445185D01*
X121238460Y-97445185D02*
X119438460Y-100562877D01*
%TO.C,LED43*%
X217807500Y-53955000D02*
X217807500Y-50855000D01*
X217807500Y-50855000D02*
X221407500Y-50855000D01*
X221407500Y-50855000D02*
X221407500Y-53955000D01*
X221407500Y-53955000D02*
X217807500Y-53955000D01*
%TO.C,LED44*%
X198807500Y-56330000D02*
X198807500Y-53230000D01*
X198807500Y-53230000D02*
X202407500Y-53230000D01*
X202407500Y-53230000D02*
X202407500Y-56330000D01*
X202407500Y-56330000D02*
X198807500Y-56330000D01*
%TO.C,LED45*%
X179807500Y-58705000D02*
X179807500Y-55605000D01*
X179807500Y-55605000D02*
X183407500Y-55605000D01*
X183407500Y-55605000D02*
X183407500Y-58705000D01*
X183407500Y-58705000D02*
X179807500Y-58705000D01*
%TO.C,LED46*%
X274807500Y-80080000D02*
X274807500Y-76980000D01*
X274807500Y-76980000D02*
X278407500Y-76980000D01*
X278407500Y-76980000D02*
X278407500Y-80080000D01*
X278407500Y-80080000D02*
X274807500Y-80080000D01*
%TO.C,LED47*%
X255807500Y-80080000D02*
X255807500Y-76980000D01*
X255807500Y-76980000D02*
X259407500Y-76980000D01*
X259407500Y-76980000D02*
X259407500Y-80080000D01*
X259407500Y-80080000D02*
X255807500Y-80080000D01*
%TO.C,LED48*%
X236807500Y-75330000D02*
X236807500Y-72230000D01*
X236807500Y-72230000D02*
X240407500Y-72230000D01*
X240407500Y-72230000D02*
X240407500Y-75330000D01*
X240407500Y-75330000D02*
X236807500Y-75330000D01*
%TO.C,LED49*%
X217807500Y-72955000D02*
X217807500Y-69855000D01*
X217807500Y-69855000D02*
X221407500Y-69855000D01*
X221407500Y-69855000D02*
X221407500Y-72955000D01*
X221407500Y-72955000D02*
X217807500Y-72955000D01*
%TO.C,LED50*%
X198807500Y-75330000D02*
X198807500Y-72230000D01*
X198807500Y-72230000D02*
X202407500Y-72230000D01*
X202407500Y-72230000D02*
X202407500Y-75330000D01*
X202407500Y-75330000D02*
X198807500Y-75330000D01*
%TO.C,LED51*%
X179807500Y-77705000D02*
X179807500Y-74605000D01*
X179807500Y-74605000D02*
X183407500Y-74605000D01*
X183407500Y-74605000D02*
X183407500Y-77705000D01*
X183407500Y-77705000D02*
X179807500Y-77705000D01*
%TO.C,LED60*%
X225877500Y-94447000D02*
X222277500Y-94447000D01*
X225877500Y-91347000D02*
X225877500Y-94447000D01*
X222277500Y-91347000D02*
X225877500Y-91347000D01*
X222277500Y-94447000D02*
X222277500Y-91347000D01*
%TO.C,LED53*%
X184057514Y-114723472D02*
X186742192Y-113173472D01*
X186742192Y-113173472D02*
X188542192Y-116291164D01*
X188542192Y-116291164D02*
X185857514Y-117841164D01*
X185857514Y-117841164D02*
X184057514Y-114723472D01*
%TO.C,LED54*%
X175548361Y-97445185D02*
X178233039Y-95895185D01*
X178233039Y-95895185D02*
X180033039Y-99012877D01*
X180033039Y-99012877D02*
X177348361Y-100562877D01*
X177348361Y-100562877D02*
X175548361Y-97445185D01*
%TO.C,LED23*%
X94307500Y-75330000D02*
X94307500Y-72230000D01*
X94307500Y-72230000D02*
X97907500Y-72230000D01*
X97907500Y-72230000D02*
X97907500Y-75330000D01*
X97907500Y-75330000D02*
X94307500Y-75330000D01*
%TO.C,LED34*%
X274807500Y-42080000D02*
X274807500Y-38980000D01*
X274807500Y-38980000D02*
X278407500Y-38980000D01*
X278407500Y-38980000D02*
X278407500Y-42080000D01*
X278407500Y-42080000D02*
X274807500Y-42080000D01*
%TO.C,LED35*%
X255807500Y-42080000D02*
X255807500Y-38980000D01*
X255807500Y-38980000D02*
X259407500Y-38980000D01*
X259407500Y-38980000D02*
X259407500Y-42080000D01*
X259407500Y-42080000D02*
X255807500Y-42080000D01*
%TO.C,LED36*%
X236807500Y-37330000D02*
X236807500Y-34230000D01*
X236807500Y-34230000D02*
X240407500Y-34230000D01*
X240407500Y-34230000D02*
X240407500Y-37330000D01*
X240407500Y-37330000D02*
X236807500Y-37330000D01*
%TO.C,LED37*%
X217807500Y-34955000D02*
X217807500Y-31855000D01*
X217807500Y-31855000D02*
X221407500Y-31855000D01*
X221407500Y-31855000D02*
X221407500Y-34955000D01*
X221407500Y-34955000D02*
X217807500Y-34955000D01*
%TO.C,LED38*%
X198807500Y-37330000D02*
X198807500Y-34230000D01*
X198807500Y-34230000D02*
X202407500Y-34230000D01*
X202407500Y-34230000D02*
X202407500Y-37330000D01*
X202407500Y-37330000D02*
X198807500Y-37330000D01*
%TO.C,LED39*%
X179807500Y-39705000D02*
X179807500Y-36605000D01*
X179807500Y-36605000D02*
X183407500Y-36605000D01*
X183407500Y-36605000D02*
X183407500Y-39705000D01*
X183407500Y-39705000D02*
X179807500Y-39705000D01*
%TO.C,LED40*%
X274807500Y-61080000D02*
X274807500Y-57980000D01*
X274807500Y-57980000D02*
X278407500Y-57980000D01*
X278407500Y-57980000D02*
X278407500Y-61080000D01*
X278407500Y-61080000D02*
X274807500Y-61080000D01*
%TO.C,LED41*%
X255807500Y-61080000D02*
X255807500Y-57980000D01*
X255807500Y-57980000D02*
X259407500Y-57980000D01*
X259407500Y-57980000D02*
X259407500Y-61080000D01*
X259407500Y-61080000D02*
X255807500Y-61080000D01*
%TO.C,LED42*%
X236807500Y-56330000D02*
X236807500Y-53230000D01*
X236807500Y-53230000D02*
X240407500Y-53230000D01*
X240407500Y-53230000D02*
X240407500Y-56330000D01*
X240407500Y-56330000D02*
X236807500Y-56330000D01*
%TD*%
M02*
