M48
; DRILL file {KiCad 5.1.6} date Fri Oct 30 17:44:26 2020
; FORMAT={-:-/ absolute / inch / decimal}
; #@! TF.CreationDate,2020-10-30T17:44:26+01:00
; #@! TF.GenerationSoftware,Kicad,Pcbnew,5.1.6
FMAT,2
INCH
T1C0.0157
T2C0.0320
T3C0.0394
T4C0.0512
T5C0.0118
T6C0.0472
T7C0.0748
T8C0.1181
T9C0.1614
T10C0.1654
%
G90
G05
T1
X0.5127Y-1.4473
X0.5127Y-1.8727
X0.5127Y-2.1973
X0.5127Y-2.53
X0.5127Y-2.9473
X0.5127Y-3.4473
X0.6162Y-1.6262
X0.62Y-2.37
X0.62Y-3.12
X0.62Y-3.87
X0.9581Y-1.5681
X0.9581Y-2.3181
X0.9581Y-3.0681
X1.2Y-2.37
X1.2Y-2.58
X1.22Y-1.55
X1.26Y-2.89
X1.2627Y-1.4473
X1.2627Y-1.9473
X1.2627Y-2.1973
X1.2627Y-2.6773
X1.29Y-2.56
X1.31Y-1.55
X1.32Y-1.62
X1.32Y-1.74
X1.33Y-2.38
X1.35Y-1.63
X1.36Y-2.53
X1.37Y-3.12
X1.38Y-1.73
X1.39Y-2.47
X1.39Y-2.56
X1.45Y-3.4
X1.56Y-3.87
X1.56Y-3.97
X1.7081Y-2.3181
X1.7081Y-3.0681
X1.71Y-1.71
X1.72Y-1.57
X1.72Y-2.56
X1.77Y-2.53
X1.8043Y-1.8457
X1.8363Y-2.5937
X1.9058Y-3.8142
X1.93Y-3.12
X2.005Y-3.115
X2.0088Y-2.9788
X2.0127Y-1.2573
X2.0127Y-1.7873
X2.0127Y-2.0073
X2.0127Y-2.5273
X2.03Y-3.22
X2.1162Y-1.4362
X2.12Y-2.19
X2.12Y-2.93
X2.1227Y-2.4124
X2.16Y-3.83
X2.39Y-3.07
X2.45Y-2.88
X2.46Y-1.38
X2.46Y-2.13
X2.47Y-3.18
X2.55Y-3.18
X2.58Y-2.98
X2.65Y-3.68
X2.7Y-1.38
X2.7Y-1.52
X2.71Y-2.85
X2.72Y-1.34
X2.75Y-2.89
X2.76Y-3.06
X2.7627Y-1.1673
X2.7627Y-1.6573
X2.7627Y-1.9173
X2.7627Y-2.4073
X2.8Y-2.32
X2.81Y-1.25
X2.82Y-2.89
X2.82Y-3.11
X2.85Y-1.35
X2.85Y-2.09
X2.88Y-1.45
X2.88Y-1.52
X3.18Y-1.49
X3.19Y-1.53
X3.2081Y-2.0381
X3.21Y-1.29
X3.21Y-2.78
X3.24Y-3.22
X3.27Y-3.29
X3.43Y-2.86
X3.5027Y-1.2573
X3.5027Y-1.6827
X3.5048Y-2.7752
X3.5048Y-3.2848
X3.5127Y-2.0073
X3.5127Y-2.4327
X3.55Y-2.37
X3.6162Y-1.4362
X3.62Y-2.18
X3.95Y-1.38
X3.97Y-2.17
X3.98Y-2.92
X3.99Y-3.53
X3.99Y-4.19
X4.01Y-3.33
X4.02Y-3.08
X4.07Y-2.91
X4.07Y-3.04
X4.07Y-3.16
X4.14Y-3.46
X4.16Y-3.08
X4.19Y-3.16
X4.2Y-1.38
X4.2Y-3.81
X4.2Y-4.01
X4.22Y-2.53
X4.23Y-4.71
X4.2527Y-1.34
X4.2527Y-1.8473
X4.2527Y-2.1073
X4.2527Y-2.47
X4.2529Y-2.8571
X4.27Y-3.53
X4.29Y-1.63
X4.3Y-1.38
X4.3Y-2.53
X4.33Y-1.47
X4.34Y-1.53
X4.35Y-2.25
X4.35Y-3.39
X4.36Y-3.0
X4.3738Y-1.6262
X4.38Y-1.71
X4.42Y-4.38
X4.6Y-4.03
X4.6878Y-1.7522
X4.7Y-1.48
X4.71Y-2.2181
X4.71Y-2.28
X4.7293Y-2.9707
X4.77Y-3.7
X4.78Y-2.22
X4.82Y-2.2
X4.82Y-2.42
X4.895Y-1.38
X4.91Y-2.6
X4.9127Y-3.3417
X4.9137Y-2.7876
X4.9196Y-1.6104
X4.9465Y-3.0435
X4.9465Y-3.1265
X4.99Y-2.6
X5.06Y-2.76
X5.405Y-2.51
X5.545Y-2.555
X6.18Y-2.545
X6.2286Y-1.3564
X6.2286Y-1.3564
X6.3704Y-3.0593
X6.7633Y-2.1287
X6.7746Y-1.6674
X6.8Y-2.56
X6.81Y-1.38
X6.81Y-1.6874
X6.8146Y-3.0346
X6.83Y-2.14
X6.85Y-3.25
X6.8712Y-2.89
X6.8727Y-1.39
X6.8727Y-1.7827
X6.8727Y-2.1073
X6.8727Y-2.5327
X6.9062Y-1.6262
X6.91Y-1.83
X6.91Y-3.29
X6.92Y-3.55
X6.92Y-3.67
X6.93Y-3.0258
X6.9746Y-1.5374
X6.9746Y-1.5374
X6.9846Y-2.2774
X6.99Y-3.12
X6.9946Y-1.7174
X7.0Y-3.33
X7.0Y-3.43
X7.1Y-4.0
X7.23Y-2.4
X7.23Y-4.41
X7.26Y-2.37
X7.3Y-3.16
X7.3174Y-1.6974
X7.3213Y-2.9707
X7.3246Y-2.2226
X7.44Y-1.78
X7.5146Y-2.4374
X7.56Y-3.87
X7.56Y-4.11
X7.57Y-3.12
X7.6173Y-2.8947
X7.6173Y-3.1573
X7.62Y-1.75
X7.6227Y-1.2573
X7.6227Y-2.0073
X7.6227Y-2.4
X7.6546Y-2.4374
X7.69Y-1.655
X7.7046Y-2.9274
X7.7146Y-2.1774
X7.88Y-3.84
X7.93Y-3.22
X8.04Y-3.22
X8.0709Y-1.3811
X8.0946Y-2.1574
X8.1046Y-2.9074
X8.17Y-3.44
X8.28Y-3.38
X8.28Y-3.56
X8.3246Y-2.4374
X8.3627Y-1.2927
X8.3627Y-1.5927
X8.3627Y-1.9073
X8.3627Y-2.3327
X8.3673Y-2.7947
X8.3673Y-3.1527
X8.3946Y-2.4374
X8.41Y-3.06
X8.41Y-3.48
X8.4152Y-1.2352
X8.4152Y-1.5652
X8.45Y-2.8388
X8.45Y-3.146
X8.4693Y-1.3427
X8.4812Y-2.0907
X8.4846Y-1.5274
X8.49Y-2.94
X8.5Y-3.02
X8.6551Y-3.6849
X8.72Y-3.18
X8.7988Y-3.0612
X8.8Y-2.98
X8.8146Y-2.0374
X8.8146Y-2.7874
X8.88Y-3.07
X8.8946Y-1.5274
X8.96Y-2.79
X9.0046Y-2.5174
X9.1127Y-1.2573
X9.1127Y-1.6827
X9.1127Y-2.0073
X9.115Y-2.285
X9.1446Y-2.5174
X9.2146Y-2.1774
X9.2146Y-2.9274
X9.49Y-3.54
X9.49Y-3.68
X9.53Y-3.07
X9.5633Y-1.3761
X9.5633Y-2.1261
X9.5672Y-2.8772
X9.62Y-3.04
X9.74Y-2.97
X9.74Y-3.16
X9.8Y-3.06
X9.8Y-3.16
X9.8146Y-2.7074
X9.82Y-2.26
X9.82Y-2.37
X9.8627Y-1.4473
X9.8627Y-1.8727
X9.8627Y-2.1973
X9.8627Y-2.6227
X9.8627Y-2.9373
X9.8627Y-3.1873
X9.9043Y-1.8457
X9.9046Y-2.5774
X9.91Y-1.51
X9.915Y-3.225
X9.93Y-2.45
X9.9646Y-3.1074
X9.9746Y-1.8074
X9.9746Y-2.3674
X9.9804Y-1.6232
X9.9846Y-2.4674
X10.0846Y-3.7154
X10.1446Y-3.8174
X10.2761Y-2.9389
X10.3Y-2.6
X10.3057Y-1.8457
X10.3146Y-2.3174
X10.3178Y-3.0642
X10.3246Y-2.5474
X10.3346Y-1.8074
X10.4227Y-3.3627
X10.5246Y-3.8674
X10.6127Y-1.4473
X10.6127Y-1.9374
X10.6127Y-2.1973
X10.6127Y-2.6227
X10.6127Y-2.9373
X10.7146Y-2.3674
X10.7146Y-3.1174
X10.7246Y-3.3254
X11.0415Y-3.5185
X11.0415Y-3.6085
X11.0633Y-2.3161
X11.0646Y-1.5974
T2
X6.2269Y-2.6396
X6.3269Y-2.6396
X6.4269Y-2.6396
X6.5269Y-2.6396
X6.0779Y-1.2564
X6.0779Y-1.3564
X6.0779Y-1.4564
X6.0779Y-1.5564
X6.0779Y-1.6564
X6.0779Y-1.7564
X6.0779Y-1.8564
X6.0779Y-1.9564
X6.0779Y-2.0564
X6.0779Y-2.1564
X6.0779Y-2.2564
X6.0779Y-2.3564
X6.6771Y-1.2564
X6.6771Y-1.3564
X6.6771Y-1.4564
X6.6771Y-1.5564
X6.6771Y-1.6564
X6.6771Y-1.7564
X6.6771Y-1.8564
X6.6771Y-1.9564
X6.6771Y-2.0564
X6.6771Y-2.1564
X6.6771Y-2.2564
X6.6771Y-2.3564
X5.1555Y-2.6389
X5.2555Y-2.6389
X5.3555Y-2.6389
X5.4555Y-2.6389
X5.008Y-1.2576
X5.008Y-1.3576
X5.008Y-1.4576
X5.008Y-1.5576
X5.008Y-1.6576
X5.008Y-1.7576
X5.008Y-1.8576
X5.008Y-1.9576
X5.008Y-2.0576
X5.008Y-2.1576
X5.008Y-2.2576
X5.008Y-2.3576
X5.6072Y-1.2576
X5.6072Y-1.3576
X5.6072Y-1.4576
X5.6072Y-1.5576
X5.6072Y-1.6576
X5.6072Y-1.7576
X5.6072Y-1.8576
X5.6072Y-1.9576
X5.6072Y-2.0576
X5.6072Y-2.1576
X5.6072Y-2.2576
X5.6072Y-2.3576
T4
X6.075Y-2.491
X6.075Y-2.7469
X5.6073Y-2.4914
X5.6073Y-2.7473
T5
X10.3265Y-4.03
X10.3499Y-4.03
X10.3732Y-4.03
X10.3966Y-4.03
X10.42Y-4.03
X10.4434Y-4.03
X10.4668Y-4.03
X10.4901Y-4.03
X10.5135Y-4.03
X7.8095Y-0.8616
X7.8329Y-0.8616
X7.8563Y-0.8616
X7.8797Y-0.8616
X7.9031Y-0.8616
X7.9264Y-0.8616
X7.9498Y-0.8616
X7.9732Y-0.8616
X7.9966Y-0.8616
X9.3021Y-0.861
X9.3255Y-0.861
X9.3489Y-0.861
X9.3723Y-0.861
X9.3956Y-0.861
X9.419Y-0.861
X9.4424Y-0.861
X9.4658Y-0.861
X9.4892Y-0.861
X1.1665Y-4.03
X1.1899Y-4.03
X1.2132Y-4.03
X1.2366Y-4.03
X1.26Y-4.03
X1.2834Y-4.03
X1.3068Y-4.03
X1.3301Y-4.03
X1.3535Y-4.03
X6.4883Y-3.5298
X6.5Y-3.55
X6.5117Y-3.5702
X6.5234Y-3.5905
X6.5351Y-3.6107
X6.5468Y-3.631
X6.5584Y-3.6512
X6.5701Y-3.6715
X6.5818Y-3.6917
X3.6942Y-0.8611
X3.7176Y-0.8611
X3.7409Y-0.8611
X3.7643Y-0.8611
X3.7877Y-0.8611
X3.8111Y-0.8611
X3.8344Y-0.8611
X3.8578Y-0.8611
X3.8812Y-0.8611
X8.7165Y-3.83
X8.7399Y-3.83
X8.7632Y-3.83
X8.7866Y-3.83
X8.81Y-3.83
X8.8334Y-3.83
X8.8568Y-3.83
X8.8801Y-3.83
X8.9035Y-3.83
X2.1993Y-0.861
X2.2227Y-0.861
X2.246Y-0.861
X2.2694Y-0.861
X2.2928Y-0.861
X2.3162Y-0.861
X2.3395Y-0.861
X2.3629Y-0.861
X2.3863Y-0.861
X2.7765Y-3.83
X2.7999Y-3.83
X2.8232Y-3.83
X2.8466Y-3.83
X2.87Y-3.83
X2.8934Y-3.83
X2.9168Y-3.83
X2.9401Y-3.83
X2.9635Y-3.83
X5.0982Y-3.6917
X5.1099Y-3.6715
X5.1216Y-3.6512
X5.1332Y-3.631
X5.1449Y-3.6107
X5.1566Y-3.5905
X5.1683Y-3.5702
X5.18Y-3.55
X5.1917Y-3.5298
T6
X6.0645Y-2.924
X6.3401Y-2.924
X5.3399Y-2.9249
X5.6155Y-2.9249
T7
X10.6903Y-1.4085
X11.0903Y-1.4085
X8.4462Y-1.128
X8.8462Y-1.128
X10.5003Y-3.6545
X10.9003Y-3.6545
X7.3966Y-4.2808
X7.5966Y-4.6272
X1.5316Y-3.6547
X1.9316Y-3.6547
X7.6982Y-1.2215
X8.0982Y-1.2215
X1.3397Y-2.1567
X1.7397Y-2.1567
X3.5838Y-1.9697
X3.9838Y-1.9697
X1.3397Y-2.9047
X1.7397Y-2.9047
X0.5916Y-2.9047
X0.9916Y-2.9047
X0.5916Y-3.6547
X0.9916Y-3.6547
X3.5838Y-2.7177
X3.9838Y-2.7177
X2.0877Y-1.9697
X2.4877Y-1.9697
X2.0877Y-1.2217
X2.4877Y-1.2217
X2.66Y-3.47
X3.06Y-3.47
X1.3397Y-1.4087
X1.7397Y-1.4087
X9.9423Y-2.9045
X10.3423Y-2.9045
X4.4229Y-3.947
X4.6229Y-3.6006
X4.3318Y-2.8112
X4.7318Y-2.8112
X3.6497Y-3.7852
X3.8497Y-3.4388
X8.6222Y-3.4702
X9.0222Y-3.4702
X9.1943Y-2.7175
X9.5943Y-2.7175
X9.1943Y-1.9695
X9.5943Y-1.9695
X2.8357Y-1.8762
X3.2357Y-1.8762
X6.9502Y-2.063
X7.3502Y-2.063
X7.6982Y-1.9695
X8.0982Y-1.9695
X2.8357Y-1.1281
X3.2357Y-1.1281
X4.3318Y-2.0632
X4.7318Y-2.0632
X9.7503Y-3.6545
X10.1503Y-3.6545
X4.3318Y-1.3152
X4.7318Y-1.3152
X0.5916Y-2.1567
X0.9916Y-2.1567
X9.9423Y-2.1565
X10.3423Y-2.1565
X2.0877Y-2.7177
X2.4877Y-2.7177
X8.4462Y-1.876
X8.8462Y-1.876
X4.0869Y-4.6272
X4.2869Y-4.2808
X10.6903Y-2.9045
X11.0903Y-2.9045
X8.4462Y-2.624
X8.8462Y-2.624
X7.0616Y-3.6006
X7.2616Y-3.947
X10.6903Y-2.1565
X11.0903Y-2.1565
X2.8357Y-2.6242
X3.2357Y-2.6242
X3.5838Y-1.2217
X3.9838Y-1.2217
X9.1943Y-1.2215
X9.5943Y-1.2215
X0.5916Y-1.4087
X0.9916Y-1.4087
X9.9423Y-1.4085
X10.3423Y-1.4085
X6.9502Y-2.811
X7.3502Y-2.811
X7.8348Y-3.4388
X8.0348Y-3.7852
X6.9499Y-1.3152
X7.3499Y-1.3152
X7.6982Y-2.7175
X8.0982Y-2.7175
T8
X10.7403Y-1.3085
X10.9903Y-1.2085
X8.4962Y-1.028
X8.7462Y-0.928
X10.5503Y-3.5545
X10.8003Y-3.4545
X7.5082Y-4.2741
X7.7198Y-4.4406
X1.5816Y-3.5547
X1.8316Y-3.4547
X7.7482Y-1.1215
X7.9982Y-1.0215
X1.3897Y-2.0567
X1.6397Y-1.9567
X3.6338Y-1.8697
X3.8838Y-1.7697
X1.3897Y-2.8047
X1.6397Y-2.7047
X0.6416Y-2.8047
X0.8916Y-2.7047
X0.6416Y-3.5547
X0.8916Y-3.4547
X3.6338Y-2.6177
X3.8838Y-2.5177
X2.1377Y-1.8697
X2.3877Y-1.7697
X2.1377Y-1.1217
X2.3877Y-1.0217
X2.71Y-3.37
X2.96Y-3.27
X1.3897Y-1.3087
X1.6397Y-1.2087
X9.9923Y-2.8045
X10.2423Y-2.7045
X4.3613Y-3.8537
X4.3997Y-3.5872
X4.3818Y-2.7112
X4.6318Y-2.6112
X3.5881Y-3.6919
X3.6265Y-3.4254
X8.6722Y-3.3702
X8.9222Y-3.2702
X9.2443Y-2.6175
X9.4943Y-2.5175
X9.2443Y-1.8695
X9.4943Y-1.7695
X2.8857Y-1.7762
X3.1357Y-1.6762
X7.0002Y-1.963
X7.2502Y-1.863
X7.7482Y-1.8695
X7.9982Y-1.7695
X2.8857Y-1.0281
X3.1357Y-0.9281
X4.3818Y-1.9632
X4.6318Y-1.8632
X9.8003Y-3.5545
X10.0503Y-3.4545
X4.3818Y-1.2152
X4.6318Y-1.1152
X0.6416Y-2.0567
X0.8916Y-1.9567
X9.9923Y-2.0565
X10.2423Y-1.9565
X2.1377Y-2.6177
X2.3877Y-2.5177
X8.4962Y-1.776
X8.7462Y-1.676
X4.0253Y-4.5339
X4.0637Y-4.2674
X10.7403Y-2.8045
X10.9903Y-2.7045
X8.4962Y-2.524
X8.7462Y-2.424
X7.1732Y-3.5939
X7.3848Y-3.7604
X10.7403Y-2.0565
X10.9903Y-1.9565
X2.8857Y-2.5242
X3.1357Y-2.4242
X3.6338Y-1.1217
X3.8838Y-1.0217
X9.2443Y-1.1215
X9.4943Y-1.0215
X0.6416Y-1.3087
X0.8916Y-1.2087
X9.9923Y-1.3085
X10.2423Y-1.2085
X7.0002Y-2.711
X7.2502Y-2.611
X7.9464Y-3.4321
X8.158Y-3.5986
X6.9999Y-1.2152
X7.2499Y-1.1152
X7.7482Y-2.6175
X7.9982Y-2.5175
T9
X9.9503Y-3.6545
X4.5318Y-1.3152
X0.7916Y-2.1567
X10.1423Y-2.1565
X2.2877Y-2.7177
X8.6462Y-1.876
X4.1869Y-4.454
X10.8903Y-2.9045
X8.6462Y-2.624
X7.1616Y-3.7738
X10.8903Y-2.1565
X3.0357Y-2.6242
X3.7838Y-1.2217
X9.3943Y-1.2215
X0.7916Y-1.4087
X10.1423Y-1.4085
X7.1502Y-2.811
X7.9348Y-3.612
X7.1499Y-1.3152
X7.8982Y-2.7175
X10.8903Y-1.4085
X8.6462Y-1.128
X10.7003Y-3.6545
X7.4966Y-4.454
X1.7316Y-3.6547
X7.8982Y-1.2215
X1.5397Y-2.1567
X3.7838Y-1.9697
X1.5397Y-2.9047
X0.7916Y-2.9047
X0.7916Y-3.6547
X3.7838Y-2.7177
X2.2877Y-1.9697
X2.2877Y-1.2217
X2.86Y-3.47
X1.5397Y-1.4087
X10.1423Y-2.9045
X4.5229Y-3.7738
X4.5318Y-2.8112
X3.7497Y-3.612
X8.8222Y-3.4702
X9.3943Y-2.7175
X9.3943Y-1.9695
X3.0357Y-1.8762
X7.1502Y-2.063
X7.8982Y-1.9695
X3.0357Y-1.1281
X4.5318Y-2.0632
T10
X1.17Y-1.7821
X6.62Y-2.9
X1.1184Y-3.2453
X4.1565Y-1.6443
X2.2916Y-3.3247
X4.23Y-3.3
X7.45Y-3.3
X10.5616Y-3.2453
X10.51Y-1.7821
X7.5235Y-1.6443
X5.06Y-2.9
X5.49Y-3.2589
X9.3884Y-3.3247
X6.19Y-3.26
T3
G00X6.1255Y-2.8413
M15
G01X6.1452Y-2.8413
M16
G05
G00X6.2436Y-2.8413
M15
G01X6.2633Y-2.8413
M16
G05
G00X6.4011Y-2.8413
M15
G01X6.4208Y-2.8413
M16
G05
G00X6.4601Y-3.0067
M15
G01X6.4798Y-3.0067
M16
G05
G00X5.2199Y-2.8422
M15
G01X5.2002Y-2.8422
M16
G05
G00X5.2789Y-3.0076
M15
G01X5.2592Y-3.0076
M16
G05
G00X5.4364Y-3.0076
M15
G01X5.4167Y-3.0076
M16
G05
G00X5.5545Y-3.0076
M15
G01X5.5348Y-3.0076
M16
G05
T0
M30
