%TF.GenerationSoftware,KiCad,Pcbnew,5.1.6*%
%TF.CreationDate,2020-10-29T18:01:04+01:00*%
%TF.ProjectId,jade,6a616465-2e6b-4696-9361-645f70636258,1.1*%
%TF.SameCoordinates,Original*%
%TF.FileFunction,Copper,L1,Top*%
%TF.FilePolarity,Positive*%
%FSLAX46Y46*%
G04 Gerber Fmt 4.6, Leading zero omitted, Abs format (unit mm)*
G04 Created by KiCad (PCBNEW 5.1.6) date 2020-10-29 18:01:04*
%MOMM*%
%LPD*%
G01*
G04 APERTURE LIST*
%TA.AperFunction,ComponentPad*%
%ADD10O,2.500000X1.700000*%
%TD*%
%TA.AperFunction,ComponentPad*%
%ADD11C,1.524000*%
%TD*%
%TA.AperFunction,ComponentPad*%
%ADD12O,1.397000X1.778000*%
%TD*%
%TA.AperFunction,ComponentPad*%
%ADD13C,2.000000*%
%TD*%
%TA.AperFunction,ViaPad*%
%ADD14C,0.600000*%
%TD*%
%TA.AperFunction,Conductor*%
%ADD15C,0.250000*%
%TD*%
%TA.AperFunction,Conductor*%
%ADD16C,0.508000*%
%TD*%
%TA.AperFunction,Conductor*%
%ADD17C,0.500000*%
%TD*%
%TA.AperFunction,Conductor*%
%ADD18C,0.254000*%
%TD*%
G04 APERTURE END LIST*
D10*
%TO.P,J3,B*%
%TO.N,data_r*%
X155837500Y-72170000D03*
%TO.P,J3,C*%
%TO.N,GNDA*%
X158837500Y-72170000D03*
%TO.P,J3,D*%
%TO.N,VDD*%
X162837500Y-72170000D03*
%TO.P,J3,A*%
%TO.N,Net-(J3-PadA)*%
X164337500Y-76370000D03*
%TD*%
%TO.P,J1,B*%
%TO.N,data*%
X140834500Y-76392000D03*
%TO.P,J1,C*%
%TO.N,GND*%
X137834500Y-76392000D03*
%TO.P,J1,D*%
%TO.N,VCC*%
X133834500Y-76392000D03*
%TO.P,J1,A*%
%TO.N,Net-(J1-PadA)*%
X132334500Y-72192000D03*
%TD*%
D11*
%TO.P,U1,24*%
%TO.N,Net-(U1-Pad24)*%
X127203900Y-31942000D03*
%TO.P,U1,23*%
%TO.N,GND*%
X127203900Y-34482000D03*
%TO.P,U1,22*%
%TO.N,reset*%
X127203900Y-37022000D03*
%TO.P,U1,21*%
%TO.N,VCC*%
X127203900Y-39562000D03*
%TO.P,U1,20*%
%TO.N,col0*%
X127203900Y-42102000D03*
%TO.P,U1,19*%
%TO.N,col1*%
X127203900Y-44642000D03*
%TO.P,U1,18*%
%TO.N,col2*%
X127203900Y-47182000D03*
%TO.P,U1,17*%
%TO.N,col3*%
X127203900Y-49722000D03*
%TO.P,U1,16*%
%TO.N,col4*%
X127203900Y-52262000D03*
%TO.P,U1,15*%
%TO.N,col5*%
X127203900Y-54802000D03*
%TO.P,U1,14*%
%TO.N,Net-(U1-Pad14)*%
X127203900Y-57342000D03*
%TO.P,U1,13*%
%TO.N,Net-(U1-Pad13)*%
X127203900Y-59882000D03*
%TO.P,U1,12*%
%TO.N,Net-(U1-Pad12)*%
X142423900Y-59882000D03*
%TO.P,U1,11*%
%TO.N,Net-(U1-Pad11)*%
X142423900Y-57342000D03*
%TO.P,U1,10*%
%TO.N,row3*%
X142423900Y-54802000D03*
%TO.P,U1,9*%
%TO.N,row2*%
X142423900Y-52262000D03*
%TO.P,U1,8*%
%TO.N,row1*%
X142423900Y-49722000D03*
%TO.P,U1,7*%
%TO.N,row0*%
X142423900Y-47182000D03*
%TO.P,U1,6*%
%TO.N,SCL*%
X142423900Y-44642000D03*
%TO.P,U1,5*%
%TO.N,SDA*%
X142423900Y-42102000D03*
%TO.P,U1,4*%
%TO.N,GND*%
X142423900Y-39562000D03*
%TO.P,U1,3*%
X142423900Y-37022000D03*
%TO.P,U1,2*%
%TO.N,data*%
X142423900Y-34482000D03*
%TO.P,U1,1*%
%TO.N,LED*%
X142423900Y-31942000D03*
%TD*%
%TO.P,U2,24*%
%TO.N,Net-(U2-Pad24)*%
X154378900Y-31912000D03*
%TO.P,U2,23*%
%TO.N,GNDA*%
X154378900Y-34452000D03*
%TO.P,U2,22*%
%TO.N,reset_r*%
X154378900Y-36992000D03*
%TO.P,U2,21*%
%TO.N,VDD*%
X154378900Y-39532000D03*
%TO.P,U2,20*%
%TO.N,col0_r*%
X154378900Y-42072000D03*
%TO.P,U2,19*%
%TO.N,col1_r*%
X154378900Y-44612000D03*
%TO.P,U2,18*%
%TO.N,col2_r*%
X154378900Y-47152000D03*
%TO.P,U2,17*%
%TO.N,col3_r*%
X154378900Y-49692000D03*
%TO.P,U2,16*%
%TO.N,col4_r*%
X154378900Y-52232000D03*
%TO.P,U2,15*%
%TO.N,col5_r*%
X154378900Y-54772000D03*
%TO.P,U2,14*%
%TO.N,Net-(U2-Pad14)*%
X154378900Y-57312000D03*
%TO.P,U2,13*%
%TO.N,Net-(U2-Pad13)*%
X154378900Y-59852000D03*
%TO.P,U2,12*%
%TO.N,Net-(U2-Pad12)*%
X169598900Y-59852000D03*
%TO.P,U2,11*%
%TO.N,Net-(U2-Pad11)*%
X169598900Y-57312000D03*
%TO.P,U2,10*%
%TO.N,row3_r*%
X169598900Y-54772000D03*
%TO.P,U2,9*%
%TO.N,row2_r*%
X169598900Y-52232000D03*
%TO.P,U2,8*%
%TO.N,row1_r*%
X169598900Y-49692000D03*
%TO.P,U2,7*%
%TO.N,row0_r*%
X169598900Y-47152000D03*
%TO.P,U2,6*%
%TO.N,SCL_r*%
X169598900Y-44612000D03*
%TO.P,U2,5*%
%TO.N,SDA_r*%
X169598900Y-42072000D03*
%TO.P,U2,4*%
%TO.N,GNDA*%
X169598900Y-39532000D03*
%TO.P,U2,3*%
X169598900Y-36992000D03*
%TO.P,U2,2*%
%TO.N,data_r*%
X169598900Y-34452000D03*
%TO.P,U2,1*%
%TO.N,LED_r*%
X169598900Y-31912000D03*
%TD*%
D12*
%TO.P,J4,4*%
%TO.N,SDA_r*%
X158164500Y-67045000D03*
%TO.P,J4,3*%
%TO.N,SCL_r*%
X160704500Y-67045000D03*
%TO.P,J4,2*%
%TO.N,VDD*%
X163244500Y-67045000D03*
%TO.P,J4,1*%
%TO.N,GNDA*%
X165784500Y-67045000D03*
%TD*%
%TO.P,J2,4*%
%TO.N,GND*%
X138568500Y-67028000D03*
%TO.P,J2,3*%
%TO.N,VCC*%
X136028500Y-67028000D03*
%TO.P,J2,2*%
%TO.N,SCL*%
X133488500Y-67028000D03*
%TO.P,J2,1*%
%TO.N,SDA*%
X130948500Y-67028000D03*
%TD*%
D13*
%TO.P,RSW2,2*%
%TO.N,GNDA*%
X154304500Y-63272000D03*
%TO.P,RSW2,1*%
%TO.N,reset_r*%
X154304500Y-69772000D03*
%TD*%
%TO.P,RSW1,2*%
%TO.N,GND*%
X142424500Y-63281000D03*
%TO.P,RSW1,1*%
%TO.N,reset*%
X142424500Y-69781000D03*
%TD*%
D14*
%TO.N,row1*%
X122428000Y-55880000D03*
X122428000Y-61468000D03*
%TO.N,row2*%
X109220000Y-64262000D03*
X107188000Y-64262000D03*
%TO.N,row3*%
X124807500Y-70805000D03*
X101854000Y-84582000D03*
X105156000Y-87884000D03*
X124782499Y-84879999D03*
X106680000Y-96774000D03*
X106680000Y-101854000D03*
%TO.N,GND*%
X103378000Y-77216000D03*
X103378000Y-73914000D03*
X69850000Y-73406000D03*
X70104000Y-77724000D03*
X125641000Y-77305000D03*
X125641000Y-79413000D03*
X51562000Y-81788000D03*
X49022000Y-79248000D03*
X121412000Y-56388000D03*
X124714000Y-66040000D03*
X126746000Y-66040000D03*
X128524000Y-70104000D03*
X30480000Y-65532000D03*
X30480000Y-60198000D03*
X33528000Y-44196000D03*
X33528000Y-41148000D03*
X106426000Y-80264000D03*
X103378000Y-80264000D03*
X108966000Y-41402000D03*
X109982000Y-37338000D03*
X68580000Y-38608000D03*
X68580000Y-35052000D03*
X137287000Y-63754000D03*
X140843000Y-64897000D03*
%TO.N,VCC*%
X124957510Y-40905000D03*
X119634000Y-57912000D03*
X54864000Y-97282000D03*
X50927000Y-79121000D03*
%TO.N,col0*%
X13022500Y-74861500D03*
X13022500Y-55811500D03*
X13022500Y-36761500D03*
X13022500Y-47566500D03*
X13022500Y-64262000D03*
X34544000Y-64262000D03*
X44958000Y-64262000D03*
X13022500Y-87561500D03*
%TO.N,col1*%
X32072500Y-55811500D03*
X32072500Y-36761500D03*
X32072500Y-49461500D03*
X32072500Y-68003500D03*
X43688000Y-65024000D03*
X35306000Y-65024000D03*
X32766000Y-65024000D03*
X32004000Y-73406000D03*
X36830000Y-86360000D03*
%TO.N,col2*%
X51122500Y-50985500D03*
X51122500Y-31935500D03*
X51122500Y-45397500D03*
X51122500Y-64193500D03*
X51022500Y-75660500D03*
X60706000Y-77978000D03*
X53916500Y-61276000D03*
%TO.N,col3*%
X70172500Y-48699500D03*
X70172500Y-29649500D03*
X70172500Y-42095500D03*
X70172500Y-61145500D03*
X71120000Y-58928000D03*
X68834000Y-72390000D03*
X83058000Y-83566000D03*
%TO.N,col4*%
X89222500Y-50985500D03*
X89222500Y-61790500D03*
X88968500Y-31935500D03*
X88968500Y-42740500D03*
X90170000Y-60198000D03*
X89022500Y-70489500D03*
X89022500Y-83434500D03*
%TO.N,col5*%
X108018500Y-53525500D03*
X108018500Y-62738000D03*
X108018500Y-34036000D03*
X108018500Y-46921500D03*
X108022500Y-72571500D03*
X108458000Y-89662000D03*
%TO.N,LED*%
X111095000Y-41305000D03*
X124333000Y-35052000D03*
%TO.N,row0_r*%
X172974000Y-42860000D03*
X172974000Y-35052000D03*
%TO.N,row1_r*%
X177662500Y-43622000D03*
X215508500Y-38796000D03*
X225922500Y-38796000D03*
X262498500Y-45908000D03*
X253354500Y-45908000D03*
X185862000Y-43114000D03*
%TO.N,row2_r*%
X262244500Y-64704000D03*
X249290500Y-68768000D03*
X232272500Y-63942000D03*
X228716500Y-63942000D03*
X194426500Y-61910000D03*
X190870500Y-61910000D03*
X211444500Y-61910000D03*
X213222500Y-61910000D03*
X184404000Y-60198000D03*
%TO.N,Net-(D40-Pad2)*%
X210312000Y-90424000D03*
X201422000Y-81788000D03*
X204216000Y-81788000D03*
X210312000Y-85852000D03*
%TO.N,row3_r*%
X183642000Y-60960000D03*
X192278000Y-79248000D03*
X280455050Y-89368950D03*
X280455050Y-91654950D03*
%TO.N,LED_r*%
X175417000Y-41305000D03*
%TO.N,col0_r*%
X269562500Y-49210000D03*
X269562500Y-66616500D03*
X264736500Y-85412500D03*
X269562500Y-74607500D03*
X269562500Y-55811500D03*
X269562500Y-36761500D03*
X252222000Y-62230000D03*
%TO.N,col1_r*%
X250512500Y-74607500D03*
X250512500Y-66616500D03*
X250512500Y-47566500D03*
X250512500Y-55811500D03*
X250512500Y-36761500D03*
X250512500Y-80957500D03*
%TO.N,col2_r*%
X231462500Y-50985500D03*
X231462500Y-42740500D03*
X231462500Y-31935500D03*
X227584000Y-70866000D03*
X221488000Y-80772000D03*
X231521000Y-58039000D03*
%TO.N,col3_r*%
X212412500Y-59250500D03*
X212412500Y-48445500D03*
X212412500Y-40454500D03*
X212529500Y-70985000D03*
X212529500Y-80078500D03*
X212412500Y-32834500D03*
%TO.N,col4_r*%
X193479500Y-73525000D03*
X193616500Y-60960000D03*
X193616500Y-50985500D03*
X193616500Y-31935500D03*
X193548000Y-44450000D03*
X193479500Y-80195500D03*
%TO.N,col5_r*%
X174566500Y-64330500D03*
X174566500Y-53525500D03*
X174566500Y-45280500D03*
X174566500Y-35306000D03*
X174529500Y-73406000D03*
X175514000Y-83566000D03*
%TO.N,VDD*%
X172074500Y-42352000D03*
X248920000Y-77724000D03*
X171787500Y-54069000D03*
X241046000Y-93472000D03*
X248920000Y-80264000D03*
X241046000Y-89916000D03*
%TO.N,GNDA*%
X161807500Y-77705000D03*
X247396000Y-75438000D03*
X247396000Y-80264000D03*
X213614000Y-77724000D03*
X172720000Y-65024000D03*
X173482000Y-54356000D03*
X213745000Y-39755000D03*
X213745000Y-31373000D03*
X173090520Y-77078520D03*
X173990000Y-82550000D03*
X249428000Y-60198000D03*
X249428000Y-57404000D03*
X175514000Y-46482000D03*
X251570000Y-46880000D03*
X251714000Y-38354000D03*
X213614000Y-88392000D03*
X158206000Y-34453000D03*
X158206000Y-34453000D03*
X156972000Y-64643000D03*
%TO.N,Net-(LED1-Pad2)*%
X45830000Y-46880000D03*
X35306000Y-62738000D03*
%TO.N,Net-(LED1-Pad4)*%
X81026000Y-38862000D03*
X73152000Y-38608000D03*
X43434000Y-43434000D03*
X35052000Y-43942000D03*
%TO.N,Net-(LED2-Pad4)*%
X119071000Y-44505000D03*
X111252000Y-43434000D03*
X80772000Y-37846000D03*
X73152000Y-36830000D03*
%TO.N,Net-(LED10-Pad2)*%
X53752000Y-36480000D03*
X69088000Y-34036000D03*
X71374000Y-31750000D03*
X81534000Y-32766000D03*
%TO.N,Net-(LED11-Pad4)*%
X119380000Y-37592000D03*
X91852000Y-36480000D03*
X106680000Y-35052000D03*
X109220000Y-35052000D03*
%TO.N,Net-(LED13-Pad4)*%
X15748000Y-60198000D03*
X24336000Y-39830000D03*
%TO.N,Net-(LED14-Pad2)*%
X43386000Y-58880000D03*
X34290000Y-41402000D03*
%TO.N,Net-(LED15-Pad4)*%
X53848000Y-55626000D03*
X62484000Y-35052000D03*
%TO.N,Net-(LED10-Pad4)*%
X72390000Y-34290000D03*
X81486000Y-51768000D03*
%TO.N,Net-(LED11-Pad2)*%
X91948000Y-55372000D03*
X100330000Y-35052000D03*
%TO.N,Net-(LED12-Pad4)*%
X119634000Y-56340000D03*
X110236000Y-38862000D03*
%TO.N,Net-(LED13-Pad2)*%
X24336000Y-58880000D03*
X15748000Y-79248000D03*
%TO.N,Net-(LED14-Pad4)*%
X33782000Y-60452000D03*
X43386000Y-77930000D03*
%TO.N,Net-(LED16-Pad4)*%
X72390000Y-53086000D03*
X81534000Y-70612000D03*
%TO.N,Net-(LED17-Pad2)*%
X87122000Y-72644000D03*
X100838000Y-55118000D03*
%TO.N,Net-(LED18-Pad4)*%
X110490000Y-57150000D03*
X120125000Y-75455000D03*
%TO.N,Net-(LED22-Pad4)*%
X71628000Y-73406000D03*
X71628000Y-78994000D03*
X82296000Y-81788000D03*
X101346000Y-89662000D03*
%TO.N,Net-(LED24-Pad4)*%
X110744000Y-76200000D03*
X121158000Y-93980000D03*
%TO.N,Net-(LED25-Pad4)*%
X112268000Y-111252000D03*
X101346000Y-106426000D03*
%TO.N,Net-(LED27-Pad4)*%
X116840000Y-102362000D03*
X110490000Y-86106000D03*
%TO.N,Net-(LED28-Pad2)*%
X253608500Y-62672000D03*
X261764000Y-46880000D03*
%TO.N,Net-(LED29-Pad4)*%
X188976000Y-45212000D03*
X195326000Y-42037000D03*
%TO.N,Net-(LED32-Pad2)*%
X223489000Y-77755000D03*
X215900000Y-76708000D03*
X185420000Y-80264000D03*
X177546000Y-79248000D03*
%TO.N,Net-(LED34-Pad2)*%
X281040500Y-40574000D03*
X272150500Y-60132000D03*
%TO.N,Net-(LED35-Pad4)*%
X253502500Y-41230000D03*
X261990500Y-58862000D03*
%TO.N,Net-(LED37-Pad4)*%
X215119500Y-34105000D03*
X223890500Y-51750000D03*
%TO.N,Net-(LED38-Pad2)*%
X205000500Y-35080000D03*
X195950500Y-55306000D03*
%TO.N,Net-(LED39-Pad4)*%
X177154500Y-39050000D03*
X177154500Y-39050000D03*
X186044500Y-56455000D03*
%TO.N,Net-(LED4-Pad2)*%
X46642000Y-65880000D03*
X65532000Y-75692000D03*
X62738000Y-80772000D03*
X64770000Y-80772000D03*
%TO.N,Net-(LED5-Pad2)*%
X105664000Y-78232000D03*
X102108000Y-78232000D03*
%TO.N,Net-(LED7-Pad4)*%
X43688000Y-39878000D03*
X15652000Y-41306000D03*
X30988000Y-39370000D03*
X33274000Y-39370000D03*
%TO.N,Net-(LED15-Pad2)*%
X62484000Y-54102000D03*
X53848000Y-74422000D03*
%TO.N,Net-(LED20-Pad4)*%
X34798000Y-79248000D03*
X48408000Y-96880000D03*
%TO.N,Net-(LED23-Pad2)*%
X101092000Y-74168000D03*
X107442000Y-119634000D03*
%TO.N,Net-(LED31-Pad2)*%
X261620000Y-66040000D03*
X244348000Y-77216000D03*
X223520000Y-75692000D03*
X215646000Y-74676000D03*
%TO.N,Net-(LED33-Pad2)*%
X177800000Y-84582000D03*
X177800000Y-87122000D03*
X175768000Y-90170000D03*
X175768000Y-93218000D03*
%TO.N,Net-(LED40-Pad2)*%
X272150500Y-79182000D03*
X281008500Y-58830000D03*
%TO.N,Net-(LED41-Pad4)*%
X262072500Y-77830000D03*
X253354500Y-60132000D03*
X251576500Y-65466000D03*
X261012750Y-74648250D03*
%TO.N,Net-(LED42-Pad2)*%
X234050500Y-74356000D03*
X242908500Y-54004000D03*
%TO.N,Net-(LED43-Pad4)*%
X215423500Y-53105000D03*
X223890500Y-70800000D03*
%TO.N,Net-(LED44-Pad2)*%
X205602500Y-54798000D03*
X195696500Y-74356000D03*
%TO.N,Net-(LED45-Pad4)*%
X177408500Y-57846000D03*
X185961500Y-75455000D03*
%TO.N,Net-(LED47-Pad4)*%
X253100500Y-78928000D03*
X257672500Y-96962000D03*
X256148500Y-94371500D03*
X251841000Y-81915000D03*
%TO.N,Net-(LED49-Pad4)*%
X214630000Y-72105000D03*
X214630000Y-79907500D03*
X207518000Y-87376000D03*
X200152000Y-97536000D03*
%TO.N,Net-(LED50-Pad2)*%
X205856500Y-73848000D03*
X183642000Y-112014000D03*
%TO.N,Net-(LED51-Pad4)*%
X176022000Y-76855000D03*
X180340000Y-101600000D03*
%TO.N,Net-(LED52-Pad4)*%
X192024000Y-98298000D03*
X192024000Y-104394000D03*
%TO.N,Net-(LED36-Pad2)*%
X234050500Y-55306000D03*
X242908500Y-34954000D03*
%TO.N,Net-(LED19-Pad2)*%
X15748000Y-98298000D03*
X24336000Y-77930000D03*
%TO.N,Net-(LED46-Pad2)*%
X267324500Y-98232000D03*
X272404500Y-84465500D03*
%TO.N,Net-(LED21-Pad2)*%
X62230000Y-73152000D03*
X67310000Y-93472000D03*
%TO.N,Net-(LED48-Pad2)*%
X243006000Y-73080000D03*
X219839000Y-93597000D03*
X242062000Y-77978000D03*
X225552000Y-77978000D03*
%TO.N,Net-(LED56-Pad4)*%
X39624000Y-98298000D03*
X39624000Y-100838000D03*
%TD*%
D15*
%TO.N,row1*%
X122428000Y-55880000D02*
X122428000Y-61468000D01*
%TO.N,row2*%
X109220000Y-64262000D02*
X107188000Y-64262000D01*
X107188000Y-64262000D02*
X107188000Y-64262000D01*
%TO.N,row3*%
X124782499Y-70830001D02*
X124807500Y-70805000D01*
X124782499Y-84879999D02*
X124782499Y-84879999D01*
X101854000Y-84582000D02*
X104902000Y-87630000D01*
X104902000Y-87630000D02*
X105156000Y-87884000D01*
X105156000Y-87884000D02*
X105156000Y-87884000D01*
X124782499Y-84879999D02*
X124782499Y-70830001D01*
X106680000Y-96774000D02*
X106680000Y-101854000D01*
X106680000Y-101854000D02*
X106680000Y-101854000D01*
D16*
%TO.N,GND*%
X142423900Y-37022000D02*
X142423900Y-39562000D01*
X138677500Y-67028000D02*
X138568500Y-67028000D01*
X142424500Y-63281000D02*
X138677500Y-67028000D01*
X143134500Y-62571000D02*
X142424500Y-63281000D01*
X138302500Y-76392000D02*
X138568500Y-76658000D01*
X138256500Y-76392000D02*
X138302500Y-76392000D01*
D17*
X103378000Y-73914000D02*
X103378000Y-77216000D01*
X69850000Y-73406000D02*
X69850000Y-77470000D01*
X69850000Y-77470000D02*
X70104000Y-77724000D01*
X70104000Y-77724000D02*
X70104000Y-77724000D01*
X125641000Y-77305000D02*
X125641000Y-79083000D01*
X125641000Y-79083000D02*
X125641000Y-79413000D01*
X125641000Y-79413000D02*
X125641000Y-79413000D01*
X51562000Y-81788000D02*
X49022000Y-79248000D01*
X49022000Y-79248000D02*
X49022000Y-79248000D01*
X121412000Y-56388000D02*
X121412000Y-61562002D01*
X121412000Y-61562002D02*
X121412000Y-62738000D01*
X121412000Y-62738000D02*
X124714000Y-66040000D01*
X124714000Y-66040000D02*
X124714000Y-66040000D01*
X126746000Y-66040000D02*
X126746000Y-68326000D01*
X126746000Y-68326000D02*
X128524000Y-70104000D01*
X128524000Y-70104000D02*
X128524000Y-70104000D01*
X30480000Y-65532000D02*
X30480000Y-60198000D01*
X30480000Y-60198000D02*
X30480000Y-60198000D01*
X33528000Y-44196000D02*
X33528000Y-41148000D01*
X106426000Y-80264000D02*
X103378000Y-80264000D01*
X103378000Y-80264000D02*
X103378000Y-80264000D01*
X109982000Y-37338000D02*
X109982000Y-37338000D01*
X108966000Y-38354000D02*
X109982000Y-37338000D01*
X108966000Y-38354000D02*
X108966000Y-41402000D01*
X68580000Y-38608000D02*
X68580000Y-35052000D01*
X68580000Y-35052000D02*
X68580000Y-35052000D01*
X142423900Y-39562000D02*
X138811000Y-43174900D01*
X138811000Y-43174900D02*
X138811000Y-61722000D01*
X138811000Y-61722000D02*
X138811000Y-62230000D01*
X138811000Y-62230000D02*
X137541000Y-63500000D01*
X137541000Y-63500000D02*
X137287000Y-63754000D01*
X137287000Y-63754000D02*
X137287000Y-63754000D01*
D16*
%TO.N,VCC*%
X128627500Y-40937000D02*
X128627500Y-67737000D01*
X128419901Y-40778001D02*
X128468501Y-40778001D01*
X128468501Y-40778001D02*
X128627500Y-40937000D01*
X127203900Y-39562000D02*
X128419901Y-40778001D01*
X133834500Y-76392000D02*
X132682500Y-76392000D01*
X134326500Y-68730000D02*
X136028500Y-67028000D01*
X129620500Y-68730000D02*
X134326500Y-68730000D01*
X128627500Y-67737000D02*
X129620500Y-68730000D01*
D17*
X133834500Y-76176500D02*
X133834500Y-76392000D01*
X54864000Y-83058000D02*
X54864000Y-94488000D01*
X54864000Y-94488000D02*
X54864000Y-97282000D01*
X50927000Y-79121000D02*
X54864000Y-83058000D01*
X120396000Y-57658000D02*
X120142000Y-57912000D01*
X120142000Y-57912000D02*
X119634000Y-57912000D01*
X124460000Y-55118000D02*
X121158000Y-55118000D01*
X120396000Y-55880000D02*
X120396000Y-57658000D01*
X124907500Y-54670500D02*
X124460000Y-55118000D01*
X124957510Y-40905000D02*
X124907500Y-40955010D01*
X121158000Y-55118000D02*
X120396000Y-55880000D01*
X124907500Y-40955010D02*
X124907500Y-54670500D01*
X134326500Y-75900000D02*
X133834500Y-76392000D01*
X134326500Y-68730000D02*
X134326500Y-75900000D01*
D15*
%TO.N,col0*%
X13022500Y-36761500D02*
X13022500Y-47566500D01*
X13022500Y-47566500D02*
X13022500Y-47566500D01*
X13022500Y-55811500D02*
X13022500Y-63822500D01*
X13022500Y-63822500D02*
X13022500Y-64262000D01*
X13022500Y-63822500D02*
X13022500Y-64008000D01*
X43688000Y-64262000D02*
X43688000Y-64262000D01*
X35306000Y-64262000D02*
X34544000Y-64262000D01*
X44958000Y-64262000D02*
X35306000Y-64262000D01*
X13022500Y-85666500D02*
X13022500Y-87561500D01*
X13022500Y-74861500D02*
X13022500Y-85666500D01*
%TO.N,col1*%
X32072500Y-49461500D02*
X32072500Y-49461500D01*
X32072500Y-66616500D02*
X32072500Y-68003500D01*
X32072500Y-68003500D02*
X32072500Y-68003500D01*
X32072500Y-64955500D02*
X32326500Y-64955500D01*
X32072500Y-65209500D02*
X32326500Y-64955500D01*
X32072500Y-64701500D02*
X32072500Y-64955500D01*
X32072500Y-64955500D02*
X32072500Y-66616500D01*
X32072500Y-64701500D02*
X32326500Y-64955500D01*
X32072500Y-55811500D02*
X32072500Y-64447500D01*
X32072500Y-64447500D02*
X32072500Y-64701500D01*
X36830000Y-84582000D02*
X36830000Y-84582000D01*
X36830000Y-84582000D02*
X36830000Y-84582000D01*
X36830000Y-84582000D02*
X36830000Y-86360000D01*
X32004000Y-79756000D02*
X36830000Y-84582000D01*
X32004000Y-73406000D02*
X32004000Y-79756000D01*
X35306000Y-65024000D02*
X43688000Y-65024000D01*
X32697500Y-64955500D02*
X32766000Y-65024000D01*
X32326500Y-64955500D02*
X32697500Y-64955500D01*
X32072500Y-49461500D02*
X32072500Y-46667500D01*
X32072500Y-46667500D02*
X32394999Y-46345001D01*
X32394999Y-42281001D02*
X32394999Y-41030999D01*
X32394999Y-46345001D02*
X32394999Y-42281001D01*
X32394999Y-42281001D02*
X32394999Y-42027001D01*
X32072500Y-40708500D02*
X32072500Y-36761500D01*
X32394999Y-41030999D02*
X32072500Y-40708500D01*
%TO.N,col2*%
X51122500Y-31935500D02*
X51122500Y-42740500D01*
X51122500Y-42740500D02*
X51122500Y-45143500D01*
X51122500Y-45143500D02*
X51122500Y-45397500D01*
X51122500Y-45397500D02*
X51122500Y-45397500D01*
X51122500Y-64193500D02*
X51122500Y-64193500D01*
X51122500Y-61790500D02*
X51122500Y-64193500D01*
X51122500Y-50985500D02*
X51122500Y-61399500D01*
X51122500Y-61399500D02*
X51122500Y-61790500D01*
X51022500Y-75660500D02*
X53340000Y-77978000D01*
X53340000Y-77978000D02*
X53340000Y-77978000D01*
X53340000Y-77978000D02*
X60706000Y-77978000D01*
X60706000Y-77978000D02*
X60706000Y-77978000D01*
X51122500Y-61276000D02*
X53916500Y-61276000D01*
X53916500Y-61276000D02*
X53916500Y-61276000D01*
%TO.N,col3*%
X70172500Y-29649500D02*
X70172500Y-40454500D01*
X70172500Y-40454500D02*
X70172500Y-42095500D01*
X70172500Y-42095500D02*
X70172500Y-42095500D01*
X70172500Y-59504500D02*
X70172500Y-61145500D01*
X70172500Y-61145500D02*
X70172500Y-61145500D01*
D18*
X71120000Y-58928000D02*
X70241000Y-58928000D01*
D15*
X70172500Y-58742500D02*
X70358000Y-58928000D01*
X70172500Y-58234500D02*
X70172500Y-58488500D01*
X70172500Y-48699500D02*
X70172500Y-58234500D01*
X70172500Y-58234500D02*
X70172500Y-58605500D01*
X70172500Y-59113500D02*
X70358000Y-58928000D01*
X70172500Y-58605500D02*
X70172500Y-58859500D01*
X70172500Y-58859500D02*
X70172500Y-59504500D01*
X68834000Y-72390000D02*
X68834000Y-77724000D01*
X68834000Y-77724000D02*
X70866000Y-79756000D01*
X83058000Y-83566000D02*
X81280000Y-81788000D01*
X81280000Y-81788000D02*
X79248000Y-79756000D01*
X70866000Y-79756000D02*
X79248000Y-79756000D01*
%TO.N,col4*%
X88968500Y-31935500D02*
X88968500Y-42740500D01*
D18*
X89408000Y-60198000D02*
X89291000Y-60198000D01*
X90170000Y-60198000D02*
X89408000Y-60198000D01*
D15*
X89222500Y-60012500D02*
X89408000Y-60198000D01*
X89222500Y-59758500D02*
X89222500Y-60129500D01*
X89408000Y-60198000D02*
X89222500Y-60383500D01*
X89222500Y-60129500D02*
X89222500Y-60383500D01*
X89222500Y-59367500D02*
X89222500Y-61790500D01*
X89222500Y-50985500D02*
X89222500Y-59367500D01*
X89022500Y-70489500D02*
X89022500Y-79116500D01*
X89022500Y-79116500D02*
X89022500Y-83434500D01*
X89022500Y-83434500D02*
X89022500Y-83434500D01*
%TO.N,col5*%
X108018500Y-46921500D02*
X108018500Y-46921500D01*
X108018500Y-34475500D02*
X108018500Y-34036000D01*
X108018500Y-46921500D02*
X108018500Y-34475500D01*
X108018500Y-62738000D02*
X108018500Y-60774500D01*
X108018500Y-60774500D02*
X108018500Y-53525500D01*
X108022500Y-72571500D02*
X108022500Y-77143500D01*
X108458000Y-89662000D02*
X108458000Y-86868000D01*
X108458000Y-86868000D02*
X110236000Y-85090000D01*
X110236000Y-85090000D02*
X110236000Y-82550000D01*
X108022500Y-80336500D02*
X108022500Y-77143500D01*
X110236000Y-82550000D02*
X108022500Y-80336500D01*
%TO.N,LED*%
X111095000Y-41305000D02*
X111095000Y-42261000D01*
X111095000Y-42261000D02*
X111506000Y-42672000D01*
X111506000Y-42672000D02*
X119126000Y-42672000D01*
X119126000Y-42672000D02*
X119634000Y-42672000D01*
X119634000Y-42672000D02*
X119634000Y-42672000D01*
X119634000Y-42672000D02*
X123698000Y-38608000D01*
X123698000Y-38608000D02*
X124333000Y-37973000D01*
X124333000Y-37973000D02*
X124333000Y-37973000D01*
X124333000Y-37973000D02*
X124333000Y-35052000D01*
X124333000Y-35052000D02*
X124333000Y-35052000D01*
D18*
%TO.N,data*%
X125534502Y-34193998D02*
X125534502Y-40554028D01*
X125534502Y-40554028D02*
X125584512Y-40604038D01*
X125534502Y-41255972D02*
X125534502Y-75370986D01*
X140834500Y-77496000D02*
X140834500Y-76392000D01*
X126514500Y-33214000D02*
X125534502Y-34193998D01*
X134969536Y-78300000D02*
X134986538Y-78282998D01*
X142423900Y-34482000D02*
X141155900Y-33214000D01*
X125584512Y-40604038D02*
X125584512Y-41205962D01*
X134986538Y-78282998D02*
X140047502Y-78282998D01*
X141155900Y-33214000D02*
X126514500Y-33214000D01*
X125584512Y-41205962D02*
X125534502Y-41255972D01*
X140047502Y-78282998D02*
X140834500Y-77496000D01*
D15*
X125534502Y-75370986D02*
X125534502Y-76141498D01*
X127693004Y-78300000D02*
X128592000Y-78300000D01*
X125534502Y-76141498D02*
X127693004Y-78300000D01*
D18*
X128592000Y-78300000D02*
X134969536Y-78300000D01*
X128463516Y-78300000D02*
X128592000Y-78300000D01*
%TO.N,reset*%
X135807500Y-76040000D02*
X142066500Y-69781000D01*
X135807500Y-76819968D02*
X135807500Y-76040000D01*
X125988513Y-41444029D02*
X125988513Y-75182929D01*
X134787468Y-77840000D02*
X135807500Y-76819968D01*
X142066500Y-69781000D02*
X142424500Y-69781000D01*
X126038522Y-41394020D02*
X125988513Y-41444029D01*
X128645584Y-77840000D02*
X134787468Y-77840000D01*
X126038522Y-38187378D02*
X126038522Y-41394020D01*
X127203900Y-37022000D02*
X126038522Y-38187378D01*
D15*
X128645584Y-77840000D02*
X127878000Y-77840000D01*
X127878000Y-77840000D02*
X125984512Y-75946512D01*
X125988513Y-75942511D02*
X125988513Y-75182929D01*
X125984512Y-75946512D02*
X125988513Y-75942511D01*
D18*
%TO.N,SCL*%
X134186999Y-66329501D02*
X133488500Y-67028000D01*
X142423900Y-44642000D02*
X140558511Y-46507389D01*
X134808489Y-65708011D02*
X134186999Y-66329501D01*
X140558510Y-62742058D02*
X137592557Y-65708011D01*
X137592557Y-65708011D02*
X134808489Y-65708011D01*
X140558511Y-46507389D02*
X140558510Y-62742058D01*
%TO.N,SDA*%
X137404500Y-65254000D02*
X132704500Y-65254000D01*
X132704500Y-65254000D02*
X130948500Y-67010000D01*
X140104500Y-44421400D02*
X140104500Y-62554000D01*
X140104500Y-62554000D02*
X137404500Y-65254000D01*
X130948500Y-67010000D02*
X130948500Y-67028000D01*
X142423900Y-42102000D02*
X140104500Y-44421400D01*
D15*
%TO.N,row0_r*%
X172974000Y-35306000D02*
X172974000Y-35052000D01*
X172974000Y-35052000D02*
X172974000Y-35052000D01*
X172974000Y-37917500D02*
X172974000Y-42860000D01*
X172974000Y-38100000D02*
X172974000Y-37917500D01*
X172974000Y-37917500D02*
X172974000Y-35306000D01*
%TO.N,row1_r*%
X177662500Y-43622000D02*
X178170500Y-43114000D01*
X178170500Y-43114000D02*
X185282500Y-43114000D01*
X224652500Y-38796000D02*
X224652500Y-38796000D01*
X224652500Y-38796000D02*
X225922500Y-38796000D01*
X215508500Y-38796000D02*
X224652500Y-38796000D01*
X253354500Y-45908000D02*
X262498500Y-45908000D01*
X185282500Y-43114000D02*
X185862000Y-43114000D01*
X185862000Y-43114000D02*
X185862000Y-43114000D01*
%TO.N,row2_r*%
X262244500Y-64704000D02*
X254116500Y-64704000D01*
X254116500Y-64704000D02*
X251068500Y-67752000D01*
X251068500Y-67752000D02*
X251068500Y-68768000D01*
X251068500Y-68768000D02*
X249290500Y-68768000D01*
X249290500Y-68768000D02*
X249290500Y-68768000D01*
X232272500Y-63942000D02*
X228716500Y-63942000D01*
X194426500Y-61910000D02*
X190870500Y-61910000D01*
X211444500Y-61910000D02*
X213222500Y-61910000D01*
X186116000Y-61910000D02*
X186055000Y-61849000D01*
X190870500Y-61910000D02*
X186116000Y-61910000D01*
X186055000Y-61849000D02*
X184404000Y-60198000D01*
%TO.N,Net-(D40-Pad2)*%
X210312000Y-90424000D02*
X210312000Y-89244998D01*
X201422000Y-81788000D02*
X204216000Y-81788000D01*
X204216000Y-81788000D02*
X204216000Y-81788000D01*
X210312000Y-89244998D02*
X210312000Y-85852000D01*
X210312000Y-85852000D02*
X210312000Y-85852000D01*
%TO.N,row3_r*%
X192278000Y-79248000D02*
X192278000Y-79248000D01*
X191516000Y-62738000D02*
X191516000Y-78486000D01*
X185420000Y-62738000D02*
X191516000Y-62738000D01*
X191516000Y-78486000D02*
X192278000Y-79248000D01*
X183642000Y-60960000D02*
X185420000Y-62738000D01*
X280455050Y-89368950D02*
X280455050Y-91654950D01*
X280455050Y-91654950D02*
X280455050Y-91654950D01*
D18*
%TO.N,data_r*%
X155837500Y-72170000D02*
X155837500Y-73170000D01*
X160968489Y-78890989D02*
X155837500Y-73760000D01*
X167954443Y-78890989D02*
X160968489Y-78890989D01*
X170646488Y-76198944D02*
X167954443Y-78890989D01*
X170646488Y-60155982D02*
X170646488Y-76198944D01*
X170687901Y-60114569D02*
X170646488Y-60155982D01*
X170687901Y-35537001D02*
X170687901Y-60114569D01*
X155837500Y-73760000D02*
X155837500Y-72170000D01*
X169603900Y-34453000D02*
X170687901Y-35537001D01*
%TO.N,SDA_r*%
X169603900Y-42073000D02*
X167674500Y-44002400D01*
X158039500Y-66680000D02*
X158039500Y-67015000D01*
X164648511Y-65170989D02*
X159548511Y-65170989D01*
X167674500Y-44002400D02*
X167674500Y-62145000D01*
X159548511Y-65170989D02*
X158039500Y-66680000D01*
X167674500Y-62145000D02*
X164648511Y-65170989D01*
%TO.N,SCL_r*%
X161969500Y-65625000D02*
X160579500Y-67015000D01*
X168128511Y-46088389D02*
X168128511Y-62390989D01*
X164894500Y-65625000D02*
X161969500Y-65625000D01*
X169603900Y-44613000D02*
X168128511Y-46088389D01*
X168128511Y-62390989D02*
X164894500Y-65625000D01*
D15*
%TO.N,LED_r*%
X175376500Y-41264500D02*
X175417000Y-41305000D01*
X175376500Y-34732000D02*
X175376500Y-41264500D01*
X172556500Y-31912000D02*
X175376500Y-34732000D01*
X169643900Y-31912000D02*
X172556500Y-31912000D01*
D18*
%TO.N,reset_r*%
X154057500Y-70019000D02*
X154304500Y-69772000D01*
X160772500Y-79345000D02*
X154057500Y-72630000D01*
X154057500Y-72630000D02*
X154057500Y-70019000D01*
X171100499Y-76387001D02*
X168142500Y-79345000D01*
X171141911Y-60302627D02*
X171100499Y-60344039D01*
X171100499Y-60344039D02*
X171100499Y-76387001D01*
X171141912Y-40092614D02*
X171141911Y-60302627D01*
X171307500Y-39927026D02*
X171141912Y-40092614D01*
X168142500Y-79345000D02*
X160772500Y-79345000D01*
X158201900Y-33175000D02*
X170634500Y-33175000D01*
X154383900Y-36993000D02*
X158201900Y-33175000D01*
X170634500Y-33175000D02*
X171307500Y-33848000D01*
X171307500Y-33848000D02*
X171307500Y-39927026D01*
%TO.N,col0_r*%
X262128000Y-63754000D02*
X252222000Y-63754000D01*
X252222000Y-63754000D02*
X252222000Y-62230000D01*
D15*
X262128000Y-63754000D02*
X269377000Y-63754000D01*
X269562500Y-63568500D02*
X269562500Y-66616500D01*
X269377000Y-63754000D02*
X269562500Y-63568500D01*
X269562500Y-55811500D02*
X269562500Y-63568500D01*
X270764000Y-48008500D02*
X270764000Y-37963000D01*
X270764000Y-37963000D02*
X269562500Y-36761500D01*
X269562500Y-49210000D02*
X270764000Y-48008500D01*
X264736500Y-79433500D02*
X264736500Y-80449500D01*
X264736500Y-80449500D02*
X264736500Y-85412500D01*
X269562500Y-74607500D02*
X264736500Y-79433500D01*
%TO.N,col1_r*%
X250512500Y-55811500D02*
X250512500Y-66616500D01*
X250512500Y-36761500D02*
X250512500Y-47566500D01*
X250512500Y-74607500D02*
X250512500Y-80957500D01*
%TO.N,col2_r*%
X231462500Y-31935500D02*
X231462500Y-42740500D01*
X227584000Y-74676000D02*
X227584000Y-74422000D01*
X221488000Y-80772000D02*
X227584000Y-74676000D01*
X227584000Y-70866000D02*
X227584000Y-74422000D01*
X231462500Y-50985500D02*
X231521000Y-58039000D01*
X231521000Y-58039000D02*
X231462500Y-57980500D01*
%TO.N,col3_r*%
X212412500Y-48445500D02*
X212412500Y-59250500D01*
X212529500Y-70985000D02*
X212529500Y-78504500D01*
X212529500Y-78504500D02*
X212529500Y-79824500D01*
X212529500Y-79824500D02*
X212529500Y-80078500D01*
X212529500Y-80078500D02*
X212529500Y-80078500D01*
X212412500Y-40454500D02*
X212412500Y-32834500D01*
%TO.N,col4_r*%
X193479500Y-73525000D02*
X193479500Y-77473000D01*
X193479500Y-77473000D02*
X193479500Y-77909500D01*
X193479500Y-77909500D02*
X193479500Y-77909500D01*
X193479500Y-77909500D02*
X193479500Y-80195500D01*
X193479500Y-80195500D02*
X193479500Y-80195500D01*
X193616500Y-50985500D02*
X193616500Y-60637500D01*
X193616500Y-60637500D02*
X193616500Y-60960000D01*
X194564000Y-43434000D02*
X193548000Y-44450000D01*
X194564000Y-36830000D02*
X194564000Y-43434000D01*
X193616500Y-35882500D02*
X194564000Y-36830000D01*
X193616500Y-31935500D02*
X193616500Y-35882500D01*
%TO.N,col5_r*%
X174566500Y-53525500D02*
X174566500Y-64330500D01*
X174566500Y-44686000D02*
X174566500Y-44889500D01*
X174566500Y-45280500D02*
X174566500Y-44686000D01*
X174566500Y-35306000D02*
X174566500Y-44686000D01*
X174529500Y-79279500D02*
X174529500Y-73406000D01*
X174529500Y-79279500D02*
X174529500Y-80803500D01*
X174529500Y-80803500D02*
X175514000Y-81788000D01*
X175514000Y-81788000D02*
X175514000Y-83566000D01*
X175514000Y-83566000D02*
X175514000Y-83566000D01*
D17*
%TO.N,VDD*%
X163214500Y-67015000D02*
X163119500Y-67015000D01*
X163244500Y-67045000D02*
X163214500Y-67015000D01*
X162469500Y-68600000D02*
X163244500Y-67825000D01*
X163244500Y-67825000D02*
X163244500Y-67045000D01*
X162837500Y-68968000D02*
X162837500Y-72170000D01*
X162469500Y-68600000D02*
X162837500Y-68968000D01*
X161534500Y-68600000D02*
X162469500Y-68600000D01*
X159047500Y-68610000D02*
X159057500Y-68600000D01*
X157097500Y-68610000D02*
X159047500Y-68610000D01*
X159057500Y-68600000D02*
X161534500Y-68600000D01*
X154383900Y-39533000D02*
X155917500Y-41066600D01*
X155917500Y-67430000D02*
X157097500Y-68610000D01*
X155917500Y-41066600D02*
X155917500Y-67430000D01*
X172074500Y-43114000D02*
X172074500Y-42352000D01*
X171787500Y-43401000D02*
X172074500Y-43114000D01*
X171787500Y-54069000D02*
X171787500Y-54069000D01*
X171787500Y-54069000D02*
X171787500Y-43401000D01*
X241046000Y-93472000D02*
X241046000Y-89916000D01*
X248920000Y-80264000D02*
X248920000Y-77724000D01*
X241046000Y-89916000D02*
X241046000Y-89864814D01*
%TO.N,GNDA*%
X169603900Y-36993000D02*
X169603900Y-39533000D01*
X165689500Y-67045000D02*
X165784500Y-67045000D01*
X165659500Y-67015000D02*
X165689500Y-67045000D01*
D16*
X153304500Y-63272000D02*
X154304500Y-63272000D01*
X158837500Y-72170000D02*
X158837500Y-73170000D01*
X158837500Y-71948000D02*
X158837500Y-72170000D01*
D17*
X158837500Y-74520000D02*
X158837500Y-73170000D01*
X158837500Y-74538000D02*
X158837500Y-74520000D01*
X159924500Y-75625000D02*
X158837500Y-74538000D01*
X165784500Y-72295000D02*
X162454500Y-75625000D01*
X162454500Y-75625000D02*
X159924500Y-75625000D01*
X165784500Y-67045000D02*
X165784500Y-72295000D01*
X161807500Y-77508000D02*
X158837500Y-74538000D01*
X161807500Y-77705000D02*
X161807500Y-77508000D01*
X213868000Y-77724000D02*
X213868000Y-77724000D01*
X213614000Y-82804000D02*
X213614000Y-77724000D01*
X172720000Y-65024000D02*
X172720000Y-58674000D01*
X172720000Y-58674000D02*
X172720000Y-55118000D01*
X172720000Y-55118000D02*
X173482000Y-54356000D01*
X173482000Y-54356000D02*
X173482000Y-54356000D01*
X213745000Y-39755000D02*
X213745000Y-31373000D01*
X213745000Y-31373000D02*
X213745000Y-31373000D01*
X173090520Y-77078520D02*
X173090520Y-81142520D01*
X173090520Y-81142520D02*
X173090520Y-81650520D01*
X173090520Y-81650520D02*
X173990000Y-82550000D01*
X173990000Y-82550000D02*
X173990000Y-82550000D01*
X249428000Y-60198000D02*
X249428000Y-57404000D01*
X249428000Y-57404000D02*
X249428000Y-57404000D01*
X175514000Y-46482000D02*
X174498000Y-46482000D01*
X173482000Y-47498000D02*
X173482000Y-54356000D01*
X174498000Y-46482000D02*
X173482000Y-47498000D01*
X251570000Y-46880000D02*
X251570000Y-38498000D01*
X251714000Y-38354000D02*
X251570000Y-38498000D01*
X213614000Y-82804000D02*
X213614000Y-88392000D01*
X213614000Y-88392000D02*
X213614000Y-88392000D01*
X247396000Y-75438000D02*
X247396000Y-80264000D01*
X158206000Y-34453000D02*
X158206000Y-40168000D01*
X158206000Y-40168000D02*
X156972000Y-41402000D01*
X156972000Y-41402000D02*
X156972000Y-64643000D01*
X156972000Y-64643000D02*
X156972000Y-64643000D01*
D15*
%TO.N,Net-(LED1-Pad2)*%
X35306000Y-62738000D02*
X35306000Y-62738000D01*
X47210000Y-48260000D02*
X45830000Y-46880000D01*
X46736000Y-51562000D02*
X47210000Y-51088000D01*
X45720000Y-62230000D02*
X45720000Y-52070000D01*
X44450000Y-63500000D02*
X45720000Y-62230000D01*
X46228000Y-51562000D02*
X46736000Y-51562000D01*
X35306000Y-62738000D02*
X35306000Y-63500000D01*
X35306000Y-63500000D02*
X44450000Y-63500000D01*
X47210000Y-51088000D02*
X47210000Y-48260000D01*
X45720000Y-52070000D02*
X46228000Y-51562000D01*
%TO.N,Net-(LED1-Pad4)*%
X81026000Y-38862000D02*
X80772000Y-38608000D01*
X80772000Y-38608000D02*
X73660000Y-38608000D01*
X73660000Y-38608000D02*
X73152000Y-38608000D01*
X43434000Y-43434000D02*
X43434000Y-44196000D01*
X43434000Y-44196000D02*
X42672000Y-44958000D01*
X42672000Y-44958000D02*
X35306000Y-44958000D01*
X35306000Y-44958000D02*
X35052000Y-44704000D01*
X35052000Y-44704000D02*
X35052000Y-43942000D01*
X35052000Y-43942000D02*
X35052000Y-43942000D01*
%TO.N,Net-(LED2-Pad4)*%
X119071000Y-44505000D02*
X119071000Y-43743000D01*
X119071000Y-43743000D02*
X118762000Y-43434000D01*
X118762000Y-43434000D02*
X111760000Y-43434000D01*
X111760000Y-43434000D02*
X111252000Y-43434000D01*
X80772000Y-37846000D02*
X73406000Y-37846000D01*
X73406000Y-37846000D02*
X73152000Y-37592000D01*
X73152000Y-37592000D02*
X73152000Y-36830000D01*
X73152000Y-36830000D02*
X73152000Y-36830000D01*
%TO.N,Net-(LED10-Pad2)*%
X69088000Y-34036000D02*
X69088000Y-34036000D01*
X59436000Y-28448000D02*
X61468000Y-30480000D01*
X64008000Y-34036000D02*
X69088000Y-34036000D01*
X61468000Y-30480000D02*
X61468000Y-31496000D01*
X61468000Y-31496000D02*
X64008000Y-34036000D01*
X55118000Y-31750000D02*
X55118000Y-30480000D01*
X53752000Y-33116000D02*
X55118000Y-31750000D01*
X57150000Y-28448000D02*
X59436000Y-28448000D01*
X53752000Y-36480000D02*
X53752000Y-33116000D01*
X55118000Y-30480000D02*
X57150000Y-28448000D01*
X78232000Y-26162000D02*
X80264000Y-28194000D01*
X75946000Y-26162000D02*
X78232000Y-26162000D01*
X73914000Y-28194000D02*
X75946000Y-26162000D01*
X73914000Y-29210000D02*
X73914000Y-28194000D01*
X71374000Y-31750000D02*
X73914000Y-29210000D01*
X80264000Y-28194000D02*
X80518000Y-28448000D01*
X80518000Y-28448000D02*
X80518000Y-29464000D01*
X80518000Y-29464000D02*
X81534000Y-30480000D01*
X81534000Y-30480000D02*
X81534000Y-32766000D01*
X81534000Y-32766000D02*
X81534000Y-32766000D01*
%TO.N,Net-(LED11-Pad4)*%
X102616000Y-35052000D02*
X106680000Y-35052000D01*
X99822000Y-33020000D02*
X100584000Y-33020000D01*
X99314000Y-32512000D02*
X99822000Y-33020000D01*
X98044000Y-28448000D02*
X99314000Y-29718000D01*
X99314000Y-29718000D02*
X99314000Y-32512000D01*
X95174498Y-28448000D02*
X98044000Y-28448000D01*
X100584000Y-33020000D02*
X102616000Y-35052000D01*
X93472000Y-30150498D02*
X95174498Y-28448000D01*
X91852000Y-33116000D02*
X93472000Y-31496000D01*
X93472000Y-31496000D02*
X93472000Y-30150498D01*
X91852000Y-36480000D02*
X91852000Y-33116000D01*
X106680000Y-35052000D02*
X106680000Y-35052000D01*
X111760000Y-35052000D02*
X109220000Y-35052000D01*
X112268000Y-34544000D02*
X111760000Y-35052000D01*
X114009498Y-30988000D02*
X112732499Y-32264999D01*
X118364000Y-32512000D02*
X116840000Y-30988000D01*
X116840000Y-30988000D02*
X114009498Y-30988000D01*
X118364000Y-34290000D02*
X118364000Y-32512000D01*
X119380000Y-35306000D02*
X118364000Y-34290000D01*
X119380000Y-37592000D02*
X119380000Y-35306000D01*
X112732499Y-32264999D02*
X112515001Y-32264999D01*
X112268000Y-32512000D02*
X112268000Y-34544000D01*
X112515001Y-32264999D02*
X112268000Y-32512000D01*
%TO.N,Net-(LED13-Pad4)*%
X24336000Y-43228000D02*
X24336000Y-46784000D01*
X18796000Y-52526498D02*
X17272000Y-54050498D01*
X18796000Y-50800498D02*
X18796000Y-52526498D01*
X22812498Y-46784000D02*
X18796000Y-50800498D01*
X24336000Y-46784000D02*
X22812498Y-46784000D01*
X17272000Y-54050498D02*
X17272000Y-55880000D01*
X17272000Y-55880000D02*
X15748000Y-57404000D01*
X15748000Y-57404000D02*
X15748000Y-60198000D01*
X24336000Y-39830000D02*
X24336000Y-43228000D01*
%TO.N,Net-(LED14-Pad2)*%
X34290000Y-48260000D02*
X34290000Y-41402000D01*
X34544000Y-48514000D02*
X34290000Y-48260000D01*
X41656000Y-52409502D02*
X37760498Y-48514000D01*
X37760498Y-48514000D02*
X34544000Y-48514000D01*
X41656000Y-54864000D02*
X41656000Y-52409502D01*
X43386000Y-56594000D02*
X41656000Y-54864000D01*
X43386000Y-58880000D02*
X43386000Y-56594000D01*
%TO.N,Net-(LED15-Pad4)*%
X62484000Y-38608000D02*
X62484000Y-35052000D01*
X56896000Y-45974000D02*
X62484000Y-40386000D01*
X62484000Y-40386000D02*
X62484000Y-38608000D01*
X56896000Y-47752000D02*
X56896000Y-45974000D01*
X55372000Y-49276000D02*
X56896000Y-47752000D01*
X55372000Y-51308000D02*
X55372000Y-49276000D01*
X53848000Y-52832000D02*
X55372000Y-51308000D01*
X53848000Y-55626000D02*
X53848000Y-52832000D01*
%TO.N,Net-(LED10-Pad4)*%
X72390000Y-41148000D02*
X72390000Y-34290000D01*
X72644000Y-41402000D02*
X72390000Y-41148000D01*
X75438000Y-41402000D02*
X72644000Y-41402000D01*
X79756000Y-45720000D02*
X75438000Y-41402000D01*
X79756000Y-47752000D02*
X79756000Y-45720000D01*
X81486000Y-49482000D02*
X79756000Y-47752000D01*
X81486000Y-51768000D02*
X81486000Y-49482000D01*
%TO.N,Net-(LED11-Pad2)*%
X91948000Y-52578000D02*
X91948000Y-55372000D01*
X93472000Y-51054000D02*
X91948000Y-52578000D01*
X93472000Y-49016502D02*
X93472000Y-51054000D01*
X95250000Y-47238502D02*
X93472000Y-49016502D01*
X100330000Y-35052000D02*
X100330000Y-39624000D01*
X95250000Y-47238502D02*
X95255498Y-47238502D01*
X96266000Y-46228000D02*
X96266000Y-43688000D01*
X95255498Y-47238502D02*
X96266000Y-46228000D01*
X100330000Y-39624000D02*
X96266000Y-43688000D01*
%TO.N,Net-(LED12-Pad4)*%
X119634000Y-54356000D02*
X119634000Y-56340000D01*
X117602000Y-52324000D02*
X119634000Y-54356000D01*
X117602000Y-50038000D02*
X117602000Y-52324000D01*
X113538000Y-45974000D02*
X117602000Y-50038000D01*
X110490000Y-45974000D02*
X113538000Y-45974000D01*
X110236000Y-45720000D02*
X110490000Y-45974000D01*
X110236000Y-38862000D02*
X110236000Y-45720000D01*
%TO.N,Net-(LED13-Pad2)*%
X24336000Y-58880000D02*
X24336000Y-62278000D01*
X24336000Y-62278000D02*
X24336000Y-65834000D01*
X18796000Y-71576498D02*
X17272000Y-73100498D01*
X18796000Y-69850498D02*
X18796000Y-71576498D01*
X22812498Y-65834000D02*
X18796000Y-69850498D01*
X24336000Y-65834000D02*
X22812498Y-65834000D01*
X17272000Y-73100498D02*
X17272000Y-74930000D01*
X17272000Y-74930000D02*
X15748000Y-76454000D01*
X15748000Y-76454000D02*
X15748000Y-79248000D01*
X15748000Y-79248000D02*
X15748000Y-79248000D01*
%TO.N,Net-(LED14-Pad4)*%
X41656000Y-73914000D02*
X41656000Y-71459502D01*
X43386000Y-77930000D02*
X43386000Y-75644000D01*
X33782000Y-67310000D02*
X33782000Y-60452000D01*
X34798000Y-67564000D02*
X37760498Y-67564000D01*
X41656000Y-71459502D02*
X37760498Y-67564000D01*
X43386000Y-75644000D02*
X41656000Y-73914000D01*
X33782000Y-67310000D02*
X34036000Y-67564000D01*
X34036000Y-67564000D02*
X34798000Y-67564000D01*
%TO.N,Net-(LED16-Pad4)*%
X72644000Y-60198000D02*
X72390000Y-59944000D01*
X81232000Y-68024000D02*
X80010000Y-66802000D01*
X72390000Y-59944000D02*
X72390000Y-53086000D01*
X81232000Y-68024000D02*
X81534000Y-68326000D01*
X81534000Y-68326000D02*
X81534000Y-70612000D01*
X81534000Y-70612000D02*
X81534000Y-70612000D01*
X72644000Y-60198000D02*
X75184000Y-60198000D01*
X75184000Y-60198000D02*
X80010000Y-65024000D01*
X80010000Y-66802000D02*
X80010000Y-65024000D01*
%TO.N,Net-(LED17-Pad2)*%
X87122000Y-64262000D02*
X87122000Y-72644000D01*
X88900000Y-64008000D02*
X87376000Y-64008000D01*
X91186000Y-61722000D02*
X88900000Y-64008000D01*
X100838000Y-61214000D02*
X100330000Y-61722000D01*
X100330000Y-61722000D02*
X91186000Y-61722000D01*
X87376000Y-64008000D02*
X87122000Y-64262000D01*
X100838000Y-55118000D02*
X100838000Y-61214000D01*
%TO.N,Net-(LED18-Pad4)*%
X120125000Y-73931000D02*
X120125000Y-75455000D01*
X120142000Y-73914000D02*
X120125000Y-73931000D01*
X117602000Y-71374000D02*
X120142000Y-73914000D01*
X117602000Y-69850000D02*
X117602000Y-71374000D01*
X112776000Y-65024000D02*
X117602000Y-69850000D01*
X111252000Y-65024000D02*
X112776000Y-65024000D01*
X110490000Y-64262000D02*
X111252000Y-65024000D01*
X110490000Y-57150000D02*
X110490000Y-64262000D01*
%TO.N,Net-(LED22-Pad4)*%
X71628000Y-73406000D02*
X71628000Y-78994000D01*
X71628000Y-78994000D02*
X71628000Y-78994000D01*
X82296000Y-81788000D02*
X83820000Y-83312000D01*
X83820000Y-83312000D02*
X89408000Y-88900000D01*
X89408000Y-88900000D02*
X100584000Y-88900000D01*
X100584000Y-88900000D02*
X101346000Y-89662000D01*
X101346000Y-89662000D02*
X101346000Y-89662000D01*
%TO.N,Net-(LED24-Pad4)*%
X121158000Y-93980000D02*
X121158000Y-93980000D01*
X109220000Y-77724000D02*
X110744000Y-76200000D01*
X110744000Y-82042000D02*
X109220000Y-80518000D01*
X121412000Y-93218000D02*
X110744000Y-82550000D01*
X121412000Y-93726000D02*
X121412000Y-93218000D01*
X110744000Y-82550000D02*
X110744000Y-82042000D01*
X109220000Y-80518000D02*
X109220000Y-77724000D01*
X121158000Y-93980000D02*
X121412000Y-93726000D01*
%TO.N,Net-(LED25-Pad4)*%
X112268000Y-110744000D02*
X112268000Y-111252000D01*
X112014000Y-110490000D02*
X112268000Y-110744000D01*
X102615477Y-110490000D02*
X112014000Y-110490000D01*
X101346000Y-109220523D02*
X102615477Y-110490000D01*
X101346000Y-106426000D02*
X101346000Y-109220523D01*
%TO.N,Net-(LED27-Pad4)*%
X116840000Y-102362000D02*
X113030000Y-98552000D01*
X113030000Y-97516533D02*
X111506000Y-95992533D01*
X113030000Y-98552000D02*
X113030000Y-97516533D01*
X109928090Y-92484509D02*
X109928090Y-86667910D01*
X111506000Y-94062419D02*
X109928090Y-92484509D01*
X111506000Y-95992533D02*
X111506000Y-94062419D01*
X109928090Y-86667910D02*
X110490000Y-86106000D01*
X110490000Y-86106000D02*
X110490000Y-86106000D01*
%TO.N,Net-(LED28-Pad2)*%
X264304000Y-46880000D02*
X261764000Y-46880000D01*
X266954000Y-52070000D02*
X265684000Y-50800000D01*
X266954000Y-58420000D02*
X266954000Y-52070000D01*
X265684000Y-48260000D02*
X264304000Y-46880000D01*
X265684000Y-50800000D02*
X265684000Y-48260000D01*
X263779000Y-61595000D02*
X266954000Y-58420000D01*
X254685500Y-61595000D02*
X263779000Y-61595000D01*
X253608500Y-62672000D02*
X254685500Y-61595000D01*
%TO.N,Net-(LED29-Pad4)*%
X192786000Y-45212000D02*
X194056000Y-45212000D01*
X194056000Y-45212000D02*
X195326000Y-43942000D01*
X195326000Y-43942000D02*
X195326000Y-42037000D01*
X192786000Y-45212000D02*
X188976000Y-45212000D01*
%TO.N,Net-(LED32-Pad2)*%
X223489000Y-77755000D02*
X223774000Y-77470000D01*
X223774000Y-77470000D02*
X223774000Y-76962000D01*
X223774000Y-76962000D02*
X223774000Y-76708000D01*
X223774000Y-76708000D02*
X222250000Y-76708000D01*
X222250000Y-76708000D02*
X215900000Y-76708000D01*
X215900000Y-76708000D02*
X215900000Y-76708000D01*
X185420000Y-80264000D02*
X177899510Y-80264000D01*
X177899510Y-80264000D02*
X177800000Y-80264000D01*
X177800000Y-80264000D02*
X177546000Y-80010000D01*
X177546000Y-80010000D02*
X177546000Y-79248000D01*
X177546000Y-79248000D02*
X177546000Y-79248000D01*
%TO.N,Net-(LED34-Pad2)*%
X277992500Y-43368000D02*
X280278500Y-43368000D01*
X277230500Y-44130000D02*
X277992500Y-43368000D01*
X280278500Y-43368000D02*
X281040500Y-42606000D01*
X281040500Y-42606000D02*
X281040500Y-40574000D01*
X276860000Y-50800000D02*
X277230500Y-50429500D01*
X273928500Y-54798000D02*
X273928500Y-53731500D01*
X272150500Y-60132000D02*
X272150500Y-56576000D01*
X273928500Y-53731500D02*
X276860000Y-50800000D01*
X277230500Y-50429500D02*
X277230500Y-44130000D01*
X272150500Y-56576000D02*
X273928500Y-54798000D01*
%TO.N,Net-(LED35-Pad4)*%
X261990500Y-58028500D02*
X261990500Y-58862000D01*
X261112000Y-57150000D02*
X261990500Y-58028500D01*
X261112000Y-54102000D02*
X261112000Y-57150000D01*
X257302000Y-52070000D02*
X259080000Y-52070000D01*
X259080000Y-52070000D02*
X261112000Y-54102000D01*
X252592500Y-42140000D02*
X252592500Y-47360500D01*
X252592500Y-47360500D02*
X257302000Y-52070000D01*
X253502500Y-41230000D02*
X252592500Y-42140000D01*
%TO.N,Net-(LED37-Pad4)*%
X215119500Y-34105000D02*
X214746500Y-34478000D01*
X214746500Y-34478000D02*
X214746500Y-40066000D01*
X214746500Y-40066000D02*
X216270500Y-41590000D01*
X216270500Y-41590000D02*
X217286500Y-41590000D01*
X217286500Y-41590000D02*
X223128500Y-47432000D01*
X223128500Y-47432000D02*
X223128500Y-48194000D01*
X223128500Y-48194000D02*
X224398500Y-49464000D01*
X224398500Y-49464000D02*
X224398500Y-51496000D01*
X224144500Y-51750000D02*
X224398500Y-51496000D01*
X223890500Y-51750000D02*
X224144500Y-51750000D01*
%TO.N,Net-(LED38-Pad2)*%
X205000500Y-35080000D02*
X206618500Y-36698000D01*
X206618500Y-36698000D02*
X206618500Y-37272000D01*
X206618500Y-37272000D02*
X198998500Y-44892000D01*
X198998500Y-44892000D02*
X198998500Y-48194000D01*
X198998500Y-48194000D02*
X197220500Y-49972000D01*
X197220500Y-49972000D02*
X197220500Y-51242000D01*
X197220500Y-51242000D02*
X195188500Y-53274000D01*
X195188500Y-53274000D02*
X195188500Y-55306000D01*
X195188500Y-55306000D02*
X195950500Y-55306000D01*
X195950500Y-55306000D02*
X195950500Y-55306000D01*
%TO.N,Net-(LED39-Pad4)*%
X176854501Y-39349999D02*
X177154500Y-39050000D01*
X176854501Y-45608001D02*
X176854501Y-39349999D01*
X179948500Y-45908000D02*
X177154500Y-45908000D01*
X184266500Y-50226000D02*
X179948500Y-45908000D01*
X184266500Y-52004000D02*
X184266500Y-50226000D01*
X177154500Y-45908000D02*
X176854501Y-45608001D01*
X186044500Y-53782000D02*
X184266500Y-52004000D01*
X186044500Y-56455000D02*
X186044500Y-53782000D01*
%TO.N,Net-(LED4-Pad2)*%
X46642000Y-65880000D02*
X47338000Y-65880000D01*
X47338000Y-65880000D02*
X49276000Y-67818000D01*
X49276000Y-67818000D02*
X49276000Y-73589000D01*
X49276000Y-73589000D02*
X49276000Y-74839002D01*
X49276000Y-74839002D02*
X49276000Y-75184000D01*
X49276000Y-75184000D02*
X54864000Y-80772000D01*
X54864000Y-80772000D02*
X62738000Y-80772000D01*
X62738000Y-80772000D02*
X62738000Y-80772000D01*
X64770000Y-80772000D02*
X65532000Y-80010000D01*
X65532000Y-80010000D02*
X65532000Y-75692000D01*
%TO.N,Net-(LED5-Pad2)*%
X105664000Y-78232000D02*
X102362000Y-78232000D01*
X102362000Y-78232000D02*
X102108000Y-78232000D01*
X102108000Y-78232000D02*
X102108000Y-78232000D01*
%TO.N,Net-(LED7-Pad4)*%
X17018000Y-35306000D02*
X19050000Y-33274000D01*
X19050000Y-33274000D02*
X21336000Y-33274000D01*
X15652000Y-41306000D02*
X15652000Y-37942000D01*
X21336000Y-33274000D02*
X23368000Y-35306000D01*
X17018000Y-36576000D02*
X17018000Y-35306000D01*
X15652000Y-37942000D02*
X17018000Y-36576000D01*
X23368000Y-35306000D02*
X23368000Y-36322000D01*
X23368000Y-36322000D02*
X25908000Y-38862000D01*
X25908000Y-38862000D02*
X26416000Y-39370000D01*
X26416000Y-39370000D02*
X30988000Y-39370000D01*
X30988000Y-39370000D02*
X30988000Y-39370000D01*
X36068000Y-36576000D02*
X33274000Y-39370000D01*
X38100000Y-33274000D02*
X36068000Y-35306000D01*
X40386000Y-33274000D02*
X38100000Y-33274000D01*
X42672000Y-35560000D02*
X40386000Y-33274000D01*
X36068000Y-35306000D02*
X36068000Y-36576000D01*
X42672000Y-36576000D02*
X42672000Y-35560000D01*
X43688000Y-37592000D02*
X42672000Y-36576000D01*
X43688000Y-39878000D02*
X43688000Y-37592000D01*
%TO.N,Net-(LED15-Pad2)*%
X62484000Y-59436000D02*
X62484000Y-57658000D01*
X56896000Y-66802000D02*
X56896000Y-65024000D01*
X55372000Y-68326000D02*
X56896000Y-66802000D01*
X56896000Y-65024000D02*
X62484000Y-59436000D01*
X55372000Y-70358000D02*
X55372000Y-68326000D01*
X53848000Y-71882000D02*
X55372000Y-70358000D01*
X62484000Y-54102000D02*
X62484000Y-57658000D01*
X53848000Y-71882000D02*
X53848000Y-74422000D01*
X53848000Y-74422000D02*
X53848000Y-74422000D01*
%TO.N,Net-(LED20-Pad4)*%
X48768000Y-96520000D02*
X48408000Y-96880000D01*
X47498000Y-94742000D02*
X48768000Y-96012000D01*
X47498000Y-90932000D02*
X47498000Y-94742000D01*
X46736000Y-90170000D02*
X47498000Y-90932000D01*
X43434000Y-90170000D02*
X46736000Y-90170000D01*
X34798000Y-81534000D02*
X43434000Y-90170000D01*
X48768000Y-96012000D02*
X48768000Y-96520000D01*
X34798000Y-79248000D02*
X34798000Y-81534000D01*
%TO.N,Net-(LED23-Pad2)*%
X100330000Y-103378000D02*
X100330000Y-103378000D01*
X101092000Y-81280000D02*
X101092000Y-74168000D01*
X101092000Y-81534000D02*
X101092000Y-81280000D01*
X105918000Y-86360000D02*
X101092000Y-81534000D01*
X105918000Y-92202000D02*
X105918000Y-86360000D01*
X100330000Y-110490000D02*
X100330000Y-97790000D01*
X100330000Y-97790000D02*
X105918000Y-92202000D01*
X107442000Y-119634000D02*
X105918000Y-118110000D01*
X104140000Y-114300000D02*
X100330000Y-110490000D01*
X105918000Y-116840000D02*
X104140000Y-115062000D01*
X105918000Y-118110000D02*
X105918000Y-116840000D01*
X104140000Y-115062000D02*
X104140000Y-114300000D01*
%TO.N,Net-(LED31-Pad2)*%
X261620000Y-66040000D02*
X260858000Y-66802000D01*
X253311499Y-66869999D02*
X251714000Y-68467498D01*
X260790001Y-66869999D02*
X253311499Y-66869999D01*
X260858000Y-66802000D02*
X260790001Y-66869999D01*
X251714000Y-68467498D02*
X251714000Y-69088000D01*
X251714000Y-69088000D02*
X251408999Y-69393001D01*
X251408999Y-69393001D02*
X249630999Y-69393001D01*
X249630999Y-69393001D02*
X246888000Y-72136000D01*
X246888000Y-72136000D02*
X246126000Y-72898000D01*
X246126000Y-72898000D02*
X244348000Y-74676000D01*
X244348000Y-74676000D02*
X244348000Y-76708000D01*
X244348000Y-76708000D02*
X244348000Y-77216000D01*
X244348000Y-77216000D02*
X244348000Y-77216000D01*
X223520000Y-75692000D02*
X215646000Y-75692000D01*
X215646000Y-75692000D02*
X215646000Y-74676000D01*
X215646000Y-74676000D02*
X215646000Y-74676000D01*
%TO.N,Net-(LED33-Pad2)*%
X177800000Y-84582000D02*
X177800000Y-87122000D01*
X177800000Y-87122000D02*
X177800000Y-87122000D01*
X175768000Y-93218000D02*
X175768000Y-90170000D01*
%TO.N,Net-(LED40-Pad2)*%
X272150500Y-79182000D02*
X272150500Y-79182000D01*
X281040500Y-61656000D02*
X281040500Y-58862000D01*
X277992500Y-62418000D02*
X280278500Y-62418000D01*
X277230500Y-69840999D02*
X277230500Y-63180000D01*
X280278500Y-62418000D02*
X281040500Y-61656000D01*
X276174997Y-70896502D02*
X277230500Y-69840999D01*
X275844000Y-70896502D02*
X276174997Y-70896502D01*
X273928500Y-72812002D02*
X275844000Y-70896502D01*
X277230500Y-63180000D02*
X277992500Y-62418000D01*
X273928500Y-73848000D02*
X273928500Y-72812002D01*
X272150500Y-75626000D02*
X273928500Y-73848000D01*
X281040500Y-58862000D02*
X281008500Y-58830000D01*
X272150500Y-79182000D02*
X272150500Y-75626000D01*
%TO.N,Net-(LED41-Pad4)*%
X253354500Y-60132000D02*
X251576500Y-61910000D01*
X251576500Y-61910000D02*
X251576500Y-65466000D01*
X251576500Y-65466000D02*
X251576500Y-65466000D01*
X262072500Y-75708000D02*
X261012750Y-74648250D01*
X262072500Y-77830000D02*
X262072500Y-75708000D01*
X261012750Y-74648250D02*
X260974500Y-74610000D01*
%TO.N,Net-(LED42-Pad2)*%
X234050500Y-70800000D02*
X235828500Y-69022000D01*
X235828500Y-68316999D02*
X239130500Y-65014999D01*
X234050500Y-74356000D02*
X234050500Y-70800000D01*
X235828500Y-69022000D02*
X235828500Y-68316999D01*
X241903500Y-60843500D02*
X239130500Y-60843500D01*
X242940500Y-59806500D02*
X241903500Y-60843500D01*
X242940500Y-54036000D02*
X242940500Y-59806500D01*
X239130500Y-65014999D02*
X239130500Y-60843500D01*
%TO.N,Net-(LED43-Pad4)*%
X215423500Y-53105000D02*
X214661500Y-53105000D01*
X214661500Y-53105000D02*
X214492500Y-53274000D01*
X214492500Y-53274000D02*
X214492500Y-61656000D01*
X214492500Y-61656000D02*
X217794500Y-61656000D01*
X217794500Y-61656000D02*
X218302500Y-61656000D01*
X218302500Y-61656000D02*
X222874500Y-66228000D01*
X222874500Y-66228000D02*
X222874500Y-67752000D01*
X222874500Y-67752000D02*
X224398500Y-69276000D01*
X224398500Y-69276000D02*
X224398500Y-70546000D01*
X224398500Y-70546000D02*
X224144500Y-70800000D01*
X224144500Y-70800000D02*
X223890500Y-70800000D01*
X223890500Y-70800000D02*
X223890500Y-70800000D01*
%TO.N,Net-(LED44-Pad2)*%
X205602500Y-54798000D02*
X206618500Y-55814000D01*
X206618500Y-55814000D02*
X206618500Y-59370000D01*
X206618500Y-59370000D02*
X204078500Y-61910000D01*
X204078500Y-61910000D02*
X201792500Y-61910000D01*
X201792500Y-61910000D02*
X198998500Y-64704000D01*
X198998500Y-64704000D02*
X198998500Y-66990000D01*
X198998500Y-66990000D02*
X196966500Y-69022000D01*
X196966500Y-69022000D02*
X196966500Y-70546000D01*
X196966500Y-70546000D02*
X194934500Y-72578000D01*
X194934500Y-72578000D02*
X194934500Y-74356000D01*
X194934500Y-74356000D02*
X195696500Y-74356000D01*
X195696500Y-74356000D02*
X195696500Y-74356000D01*
%TO.N,Net-(LED45-Pad4)*%
X179703502Y-65974000D02*
X184783502Y-71054000D01*
X184783502Y-71054000D02*
X184783502Y-72079002D01*
X184783502Y-72079002D02*
X186806500Y-74102000D01*
X186806500Y-74610000D02*
X185961500Y-75455000D01*
X186806500Y-74102000D02*
X186806500Y-74610000D01*
X179703502Y-65974000D02*
X179694500Y-65974000D01*
X177408500Y-63688000D02*
X177408500Y-57846000D01*
X179694500Y-65974000D02*
X177408500Y-63688000D01*
%TO.N,Net-(LED47-Pad4)*%
X253100500Y-78928000D02*
X251830500Y-80198000D01*
X251830500Y-80198000D02*
X251841000Y-81915000D01*
X256148500Y-95184000D02*
X257672500Y-96708000D01*
X257672500Y-96708000D02*
X257672500Y-96962000D01*
X257672500Y-96962000D02*
X257672500Y-96962000D01*
X256148500Y-94371500D02*
X256148500Y-95184000D01*
%TO.N,Net-(LED49-Pad4)*%
X214630000Y-72105000D02*
X214630000Y-79907500D01*
X205387411Y-89506589D02*
X205387411Y-91538589D01*
X207518000Y-87376000D02*
X205387411Y-89506589D01*
X205387411Y-91538589D02*
X200914000Y-96012000D01*
X200914000Y-96012000D02*
X200914000Y-97282000D01*
X200914000Y-97282000D02*
X200660000Y-97536000D01*
X200660000Y-97536000D02*
X200152000Y-97536000D01*
X200152000Y-97536000D02*
X200152000Y-97536000D01*
%TO.N,Net-(LED50-Pad2)*%
X206502000Y-96774000D02*
X210058000Y-96774000D01*
X211328000Y-79319500D02*
X206872500Y-74864000D01*
X211328000Y-95504000D02*
X211328000Y-79319500D01*
X206872500Y-74864000D02*
X205856500Y-73848000D01*
X210058000Y-96774000D02*
X211328000Y-95504000D01*
X203708000Y-98298000D02*
X204978000Y-98298000D01*
X193836059Y-108169941D02*
X203708000Y-98298000D01*
X193802000Y-108169941D02*
X193836059Y-108169941D01*
X191481941Y-110490000D02*
X193802000Y-108169941D01*
X184229380Y-110490000D02*
X191481941Y-110490000D01*
X183642000Y-111077380D02*
X184229380Y-110490000D01*
X183642000Y-112014000D02*
X183642000Y-111077380D01*
X204978000Y-98298000D02*
X206502000Y-96774000D01*
%TO.N,Net-(LED51-Pad4)*%
X181102000Y-99568000D02*
X181102000Y-100838000D01*
X180446204Y-98958483D02*
X180492483Y-98958483D01*
X180492483Y-98958483D02*
X181102000Y-99568000D01*
X179070000Y-96574825D02*
X180446204Y-98958483D01*
X179070000Y-94234000D02*
X179070000Y-96574825D01*
X176530000Y-91694000D02*
X179070000Y-94234000D01*
X176530000Y-79756000D02*
X176530000Y-91694000D01*
X176022000Y-79248000D02*
X176530000Y-79756000D01*
X181102000Y-100838000D02*
X180340000Y-101600000D01*
X176022000Y-76855000D02*
X176022000Y-79248000D01*
%TO.N,Net-(LED52-Pad4)*%
X192024000Y-98298000D02*
X192024000Y-104394000D01*
X192024000Y-104394000D02*
X192024000Y-104394000D01*
%TO.N,Net-(LED36-Pad2)*%
X242940500Y-37780000D02*
X242940500Y-34986000D01*
X239130500Y-45964999D02*
X239130500Y-39304000D01*
X239892500Y-38542000D02*
X242178500Y-38542000D01*
X234050500Y-51750000D02*
X235828500Y-49972000D01*
X235828500Y-49266999D02*
X239130500Y-45964999D01*
X234050500Y-55306000D02*
X234050500Y-51750000D01*
X239130500Y-39304000D02*
X239892500Y-38542000D01*
X235828500Y-49972000D02*
X235828500Y-49266999D01*
X242178500Y-38542000D02*
X242940500Y-37780000D01*
%TO.N,Net-(LED19-Pad2)*%
X19510000Y-86662000D02*
X24336000Y-81836000D01*
X19510000Y-89912498D02*
X19510000Y-86662000D01*
X24336000Y-81836000D02*
X24336000Y-77930000D01*
X17272000Y-92150498D02*
X19510000Y-89912498D01*
X17272000Y-93980000D02*
X17272000Y-92150498D01*
X15748000Y-95504000D02*
X17272000Y-93980000D01*
X15748000Y-98298000D02*
X15748000Y-95504000D01*
%TO.N,Net-(LED46-Pad2)*%
X267324500Y-94676000D02*
X267324500Y-98232000D01*
X269102500Y-91831500D02*
X269102500Y-92898000D01*
X272043001Y-88890999D02*
X269102500Y-91831500D01*
X272404500Y-88890999D02*
X272043001Y-88890999D01*
X269102500Y-92898000D02*
X267324500Y-94676000D01*
X272404500Y-84465500D02*
X272404500Y-88890999D01*
%TO.N,Net-(LED21-Pad2)*%
X62230000Y-76454000D02*
X62230000Y-76962000D01*
X62230000Y-73152000D02*
X62230000Y-76454000D01*
X62230000Y-76454000D02*
X62230000Y-76708000D01*
X62230000Y-76708000D02*
X62230000Y-77724000D01*
X62230000Y-77724000D02*
X63754000Y-79248000D01*
X63754000Y-79248000D02*
X63754000Y-87122000D01*
X63754000Y-87122000D02*
X66548000Y-89916000D01*
X66548000Y-89916000D02*
X66548000Y-91694000D01*
X66548000Y-91694000D02*
X66548000Y-92710000D01*
X66548000Y-92710000D02*
X67310000Y-93472000D01*
X67310000Y-93472000D02*
X67310000Y-93472000D01*
%TO.N,Net-(LED48-Pad2)*%
X243006000Y-76780000D02*
X243006000Y-73080000D01*
X243006000Y-77034000D02*
X243006000Y-76780000D01*
X224536000Y-84328000D02*
X224536000Y-78994000D01*
X220279501Y-88584499D02*
X224536000Y-84328000D01*
X224536000Y-78994000D02*
X225552000Y-77978000D01*
X220279501Y-93156499D02*
X220279501Y-88584499D01*
X242062000Y-77978000D02*
X243006000Y-77034000D01*
X219839000Y-93597000D02*
X220279501Y-93156499D01*
X242062000Y-77978000D02*
X242062000Y-77978000D01*
%TO.N,Net-(LED56-Pad4)*%
X39624000Y-99314000D02*
X39624000Y-98298000D01*
X39624000Y-99314000D02*
X39624000Y-100838000D01*
X39624000Y-100838000D02*
X39624000Y-100838000D01*
%TD*%
M02*
