%TF.GenerationSoftware,KiCad,Pcbnew,5.1.6*%
%TF.CreationDate,2020-10-30T12:45:47+01:00*%
%TF.ProjectId,jade,6a616465-2e6b-4696-9361-645f70636258,1.1*%
%TF.SameCoordinates,Original*%
%TF.FileFunction,Copper,L2,Bot*%
%TF.FilePolarity,Positive*%
%FSLAX46Y46*%
G04 Gerber Fmt 4.6, Leading zero omitted, Abs format (unit mm)*
G04 Created by KiCad (PCBNEW 5.1.6) date 2020-10-30 12:45:47*
%MOMM*%
%LPD*%
G01*
G04 APERTURE LIST*
%TA.AperFunction,SMDPad,CuDef*%
%ADD10R,2.550000X2.500000*%
%TD*%
%TA.AperFunction,SMDPad,CuDef*%
%ADD11R,1.000000X1.400000*%
%TD*%
%TA.AperFunction,SMDPad,CuDef*%
%ADD12C,0.100000*%
%TD*%
%TA.AperFunction,SMDPad,CuDef*%
%ADD13R,1.700000X1.000000*%
%TD*%
%TA.AperFunction,ComponentPad*%
%ADD14O,2.500000X1.700000*%
%TD*%
%TA.AperFunction,ComponentPad*%
%ADD15C,1.524000*%
%TD*%
%TA.AperFunction,ComponentPad*%
%ADD16O,1.397000X1.778000*%
%TD*%
%TA.AperFunction,ComponentPad*%
%ADD17C,2.000000*%
%TD*%
%TA.AperFunction,SMDPad,CuDef*%
%ADD18R,1.500000X1.000000*%
%TD*%
%TA.AperFunction,ViaPad*%
%ADD19C,0.600000*%
%TD*%
%TA.AperFunction,Conductor*%
%ADD20C,0.250000*%
%TD*%
%TA.AperFunction,Conductor*%
%ADD21C,0.254000*%
%TD*%
%TA.AperFunction,Conductor*%
%ADD22C,0.500000*%
%TD*%
%TA.AperFunction,Conductor*%
%ADD23C,0.508000*%
%TD*%
G04 APERTURE END LIST*
D10*
%TO.P,SW3,1*%
%TO.N,col2*%
X51022500Y-28490000D03*
%TO.P,SW3,2*%
%TO.N,Net-(D3-Pad2)*%
X63949500Y-25950000D03*
%TD*%
%TO.P,SW6,1*%
%TO.N,col5*%
X108022500Y-30865000D03*
%TO.P,SW6,2*%
%TO.N,Net-(D6-Pad2)*%
X120949500Y-28325000D03*
%TD*%
D11*
%TO.P,D43,2*%
%TO.N,Net-(D43-Pad2)*%
X28956000Y-90427000D03*
%TO.P,D43,1*%
%TO.N,row3*%
X28956000Y-93977000D03*
%TD*%
%TA.AperFunction,SMDPad,CuDef*%
D12*
%TO.P,SW41,1*%
%TO.N,col4_r*%
G36*
X190790711Y-106205709D02*
G01*
X188625647Y-107455709D01*
X187350647Y-105247345D01*
X189515711Y-103997345D01*
X190790711Y-106205709D01*
G37*
%TD.AperFunction*%
%TA.AperFunction,SMDPad,CuDef*%
%TO.P,SW41,2*%
%TO.N,Net-(D41-Pad2)*%
G36*
X199453915Y-116130819D02*
G01*
X197288851Y-117380819D01*
X196013851Y-115172455D01*
X198178915Y-113922455D01*
X199453915Y-116130819D01*
G37*
%TD.AperFunction*%
%TD*%
D10*
%TO.P,SW44,1*%
%TO.N,col1*%
X36898500Y-90290000D03*
%TO.P,SW44,2*%
%TO.N,Net-(D44-Pad2)*%
X49825500Y-87750000D03*
%TD*%
%TA.AperFunction,SMDPad,CuDef*%
D12*
%TO.P,SW21,1*%
%TO.N,col5*%
G36*
X108695263Y-98990639D02*
G01*
X110860327Y-100240639D01*
X109585327Y-102449003D01*
X107420263Y-101199003D01*
X108695263Y-98990639D01*
G37*
%TD.AperFunction*%
%TA.AperFunction,SMDPad,CuDef*%
%TO.P,SW21,2*%
%TO.N,Net-(D21-Pad2)*%
G36*
X112959059Y-86525529D02*
G01*
X115124123Y-87775529D01*
X113849123Y-89983893D01*
X111684059Y-88733893D01*
X112959059Y-86525529D01*
G37*
%TD.AperFunction*%
%TD*%
D10*
%TO.P,SW8,1*%
%TO.N,col1*%
X32022500Y-52240000D03*
%TO.P,SW8,2*%
%TO.N,Net-(D8-Pad2)*%
X44949500Y-49700000D03*
%TD*%
D11*
%TO.P,D41,1*%
%TO.N,row3_r*%
X195834000Y-103121000D03*
%TO.P,D41,2*%
%TO.N,Net-(D41-Pad2)*%
X195834000Y-99571000D03*
%TD*%
%TO.P,D47,2*%
%TO.N,Net-(D47-Pad2)*%
X260350000Y-90935000D03*
%TO.P,D47,1*%
%TO.N,row3_r*%
X260350000Y-94485000D03*
%TD*%
%TO.P,D46,1*%
%TO.N,row3_r*%
X283210000Y-93977000D03*
%TO.P,D46,2*%
%TO.N,Net-(D46-Pad2)*%
X283210000Y-90427000D03*
%TD*%
%TO.P,D45,2*%
%TO.N,Net-(D45-Pad2)*%
X80518000Y-86363000D03*
%TO.P,D45,1*%
%TO.N,row3*%
X80518000Y-89913000D03*
%TD*%
%TO.P,D44,2*%
%TO.N,Net-(D44-Pad2)*%
X51816000Y-90932000D03*
%TO.P,D44,1*%
%TO.N,row3*%
X51816000Y-94482000D03*
%TD*%
%TA.AperFunction,SMDPad,CuDef*%
D12*
%TO.P,SW42,1*%
%TO.N,col5_r*%
G36*
X182281557Y-88927423D02*
G01*
X180116493Y-90177423D01*
X178841493Y-87969059D01*
X181006557Y-86719059D01*
X182281557Y-88927423D01*
G37*
%TD.AperFunction*%
%TA.AperFunction,SMDPad,CuDef*%
%TO.P,SW42,2*%
%TO.N,Net-(D42-Pad2)*%
G36*
X190944761Y-98852533D02*
G01*
X188779697Y-100102533D01*
X187504697Y-97894169D01*
X189669761Y-96644169D01*
X190944761Y-98852533D01*
G37*
%TD.AperFunction*%
%TD*%
D10*
%TO.P,SW48,1*%
%TO.N,col2_r*%
X216999500Y-85602000D03*
%TO.P,SW48,2*%
%TO.N,Net-(D48-Pad2)*%
X229926500Y-83062000D03*
%TD*%
%TO.P,SW38,1*%
%TO.N,col4_r*%
X193529500Y-66485000D03*
%TO.P,SW38,2*%
%TO.N,Net-(D38-Pad2)*%
X206456500Y-63945000D03*
%TD*%
%TO.P,SW34,1*%
%TO.N,col0_r*%
X269529500Y-71235000D03*
%TO.P,SW34,2*%
%TO.N,Net-(D34-Pad2)*%
X282456500Y-68695000D03*
%TD*%
%TO.P,SW32,1*%
%TO.N,col4_r*%
X193529500Y-47485000D03*
%TO.P,SW32,2*%
%TO.N,Net-(D32-Pad2)*%
X206456500Y-44945000D03*
%TD*%
%TO.P,SW31,1*%
%TO.N,col3_r*%
X212529500Y-45110000D03*
%TO.P,SW31,2*%
%TO.N,Net-(D31-Pad2)*%
X225456500Y-42570000D03*
%TD*%
%TO.P,SW30,1*%
%TO.N,col2_r*%
X231529500Y-47485000D03*
%TO.P,SW30,2*%
%TO.N,Net-(D30-Pad2)*%
X244456500Y-44945000D03*
%TD*%
%TO.P,SW29,1*%
%TO.N,col1_r*%
X250529500Y-52235000D03*
%TO.P,SW29,2*%
%TO.N,Net-(D29-Pad2)*%
X263456500Y-49695000D03*
%TD*%
%TO.P,SW28,1*%
%TO.N,col0_r*%
X269529500Y-52235000D03*
%TO.P,SW28,2*%
%TO.N,Net-(D28-Pad2)*%
X282456500Y-49695000D03*
%TD*%
%TO.P,SW27,1*%
%TO.N,col5_r*%
X174522500Y-30865000D03*
%TO.P,SW27,2*%
%TO.N,Net-(D27-Pad2)*%
X187449500Y-28325000D03*
%TD*%
%TO.P,SW26,1*%
%TO.N,col4_r*%
X193529500Y-28485000D03*
%TO.P,SW26,2*%
%TO.N,Net-(D26-Pad2)*%
X206456500Y-25945000D03*
%TD*%
%TO.P,SW25,1*%
%TO.N,col3_r*%
X212529500Y-26110000D03*
%TO.P,SW25,2*%
%TO.N,Net-(D25-Pad2)*%
X225456500Y-23570000D03*
%TD*%
%TO.P,SW24,1*%
%TO.N,col2_r*%
X231529500Y-28485000D03*
%TO.P,SW24,2*%
%TO.N,Net-(D24-Pad2)*%
X244456500Y-25945000D03*
%TD*%
%TO.P,SW23,1*%
%TO.N,col1_r*%
X250529500Y-33235000D03*
%TO.P,SW23,2*%
%TO.N,Net-(D23-Pad2)*%
X263456500Y-30695000D03*
%TD*%
%TO.P,SW22,1*%
%TO.N,col0_r*%
X269529500Y-33235000D03*
%TO.P,SW22,2*%
%TO.N,Net-(D22-Pad2)*%
X282456500Y-30695000D03*
%TD*%
%TA.AperFunction,SMDPad,CuDef*%
D12*
%TO.P,SW20,1*%
%TO.N,col4*%
G36*
X100161263Y-116268925D02*
G01*
X102326327Y-117518925D01*
X101051327Y-119727289D01*
X98886263Y-118477289D01*
X100161263Y-116268925D01*
G37*
%TD.AperFunction*%
%TA.AperFunction,SMDPad,CuDef*%
%TO.P,SW20,2*%
%TO.N,Net-(D20-Pad2)*%
G36*
X104425059Y-103803815D02*
G01*
X106590123Y-105053815D01*
X105315123Y-107262179D01*
X103150059Y-106012179D01*
X104425059Y-103803815D01*
G37*
%TD.AperFunction*%
%TD*%
%TA.AperFunction,SMDPad,CuDef*%
%TO.P,SW19,1*%
%TO.N,col3*%
G36*
X89056263Y-94882232D02*
G01*
X91221327Y-96132232D01*
X89946327Y-98340596D01*
X87781263Y-97090596D01*
X89056263Y-94882232D01*
G37*
%TD.AperFunction*%
%TA.AperFunction,SMDPad,CuDef*%
%TO.P,SW19,2*%
%TO.N,Net-(D19-Pad2)*%
G36*
X93320059Y-82417122D02*
G01*
X95485123Y-83667122D01*
X94210123Y-85875486D01*
X92045059Y-84625486D01*
X93320059Y-82417122D01*
G37*
%TD.AperFunction*%
%TD*%
D10*
%TO.P,SW18,1*%
%TO.N,col5*%
X108022500Y-68865000D03*
%TO.P,SW18,2*%
%TO.N,Net-(D18-Pad2)*%
X120949500Y-66325000D03*
%TD*%
%TO.P,SW17,1*%
%TO.N,col4*%
X89022500Y-66490000D03*
%TO.P,SW17,2*%
%TO.N,Net-(D17-Pad2)*%
X101949500Y-63950000D03*
%TD*%
%TO.P,SW16,1*%
%TO.N,col3*%
X70022500Y-64115000D03*
%TO.P,SW16,2*%
%TO.N,Net-(D16-Pad2)*%
X82949500Y-61575000D03*
%TD*%
%TO.P,SW12,1*%
%TO.N,col5*%
X108022500Y-49865000D03*
%TO.P,SW12,2*%
%TO.N,Net-(D12-Pad2)*%
X120949500Y-47325000D03*
%TD*%
%TO.P,SW11,1*%
%TO.N,col4*%
X89022500Y-47490000D03*
%TO.P,SW11,2*%
%TO.N,Net-(D11-Pad2)*%
X101949500Y-44950000D03*
%TD*%
%TO.P,SW10,1*%
%TO.N,col3*%
X70022500Y-45115000D03*
%TO.P,SW10,2*%
%TO.N,Net-(D10-Pad2)*%
X82949500Y-42575000D03*
%TD*%
%TO.P,SW9,1*%
%TO.N,col2*%
X51022500Y-47490000D03*
%TO.P,SW9,2*%
%TO.N,Net-(D9-Pad2)*%
X63949500Y-44950000D03*
%TD*%
%TO.P,SW5,1*%
%TO.N,col4*%
X89022500Y-28490000D03*
%TO.P,SW5,2*%
%TO.N,Net-(D5-Pad2)*%
X101949500Y-25950000D03*
%TD*%
%TO.P,SW4,1*%
%TO.N,col3*%
X70022500Y-26115000D03*
%TO.P,SW4,2*%
%TO.N,Net-(D4-Pad2)*%
X82949500Y-23575000D03*
%TD*%
%TO.P,SW2,1*%
%TO.N,col1*%
X32022500Y-33240000D03*
%TO.P,SW2,2*%
%TO.N,Net-(D2-Pad2)*%
X44949500Y-30700000D03*
%TD*%
%TO.P,SW1,1*%
%TO.N,col0*%
X13022500Y-33240000D03*
%TO.P,SW1,2*%
%TO.N,Net-(D1-Pad2)*%
X25949500Y-30700000D03*
%TD*%
%TO.P,SW7,1*%
%TO.N,col0*%
X13022500Y-52240000D03*
%TO.P,SW7,2*%
%TO.N,Net-(D7-Pad2)*%
X25949500Y-49700000D03*
%TD*%
%TO.P,SW14,1*%
%TO.N,col1*%
X32022500Y-71240000D03*
%TO.P,SW14,2*%
%TO.N,Net-(D14-Pad2)*%
X44949500Y-68700000D03*
%TD*%
%TO.P,SW37,1*%
%TO.N,col3_r*%
X212529500Y-64110000D03*
%TO.P,SW37,2*%
%TO.N,Net-(D37-Pad2)*%
X225456500Y-61570000D03*
%TD*%
%TO.P,SW35,1*%
%TO.N,col1_r*%
X250529500Y-71235000D03*
%TO.P,SW35,2*%
%TO.N,Net-(D35-Pad2)*%
X263456500Y-68695000D03*
%TD*%
%TO.P,SW13,1*%
%TO.N,col0*%
X13022500Y-71240000D03*
%TO.P,SW13,2*%
%TO.N,Net-(D13-Pad2)*%
X25949500Y-68700000D03*
%TD*%
%TO.P,SW39,1*%
%TO.N,col5_r*%
X174529500Y-68860000D03*
%TO.P,SW39,2*%
%TO.N,Net-(D39-Pad2)*%
X187456500Y-66320000D03*
%TD*%
%TO.P,SW33,1*%
%TO.N,col5_r*%
X174529500Y-49860000D03*
%TO.P,SW33,2*%
%TO.N,Net-(D33-Pad2)*%
X187456500Y-47320000D03*
%TD*%
%TO.P,SW43,1*%
%TO.N,col0*%
X13022500Y-90290000D03*
%TO.P,SW43,2*%
%TO.N,Net-(D43-Pad2)*%
X25949500Y-87750000D03*
%TD*%
%TO.P,SW46,1*%
%TO.N,col0_r*%
X264703500Y-90285000D03*
%TO.P,SW46,2*%
%TO.N,Net-(D46-Pad2)*%
X277630500Y-87745000D03*
%TD*%
%TO.P,SW47,1*%
%TO.N,col1_r*%
X245653500Y-90285000D03*
%TO.P,SW47,2*%
%TO.N,Net-(D47-Pad2)*%
X258580500Y-87745000D03*
%TD*%
%TO.P,SW45,1*%
%TO.N,col2*%
X65559000Y-85598000D03*
%TO.P,SW45,2*%
%TO.N,Net-(D45-Pad2)*%
X78486000Y-83058000D03*
%TD*%
%TA.AperFunction,SMDPad,CuDef*%
D12*
%TO.P,SW40,1*%
%TO.N,col3_r*%
G36*
X201920240Y-84819016D02*
G01*
X199755176Y-86069016D01*
X198480176Y-83860652D01*
X200645240Y-82610652D01*
X201920240Y-84819016D01*
G37*
%TD.AperFunction*%
%TA.AperFunction,SMDPad,CuDef*%
%TO.P,SW40,2*%
%TO.N,Net-(D40-Pad2)*%
G36*
X210583444Y-94744126D02*
G01*
X208418380Y-95994126D01*
X207143380Y-93785762D01*
X209308444Y-92535762D01*
X210583444Y-94744126D01*
G37*
%TD.AperFunction*%
%TD*%
D10*
%TO.P,SW15,1*%
%TO.N,col2*%
X51022500Y-66490000D03*
%TO.P,SW15,2*%
%TO.N,Net-(D15-Pad2)*%
X63949500Y-63950000D03*
%TD*%
%TO.P,SW36,1*%
%TO.N,col2_r*%
X231529500Y-66485000D03*
%TO.P,SW36,2*%
%TO.N,Net-(D36-Pad2)*%
X244456500Y-63945000D03*
%TD*%
%TA.AperFunction,SMDPad,CuDef*%
D12*
%TO.P,LED52,4*%
%TO.N,Net-(LED52-Pad4)*%
G36*
X194524333Y-91640933D02*
G01*
X195390359Y-91140933D01*
X196240359Y-92613177D01*
X195374333Y-93113177D01*
X194524333Y-91640933D01*
G37*
%TD.AperFunction*%
%TA.AperFunction,SMDPad,CuDef*%
%TO.P,LED52,3*%
%TO.N,GNDA*%
G36*
X195736769Y-90940933D02*
G01*
X196602795Y-90440933D01*
X197452795Y-91913177D01*
X196586769Y-92413177D01*
X195736769Y-90940933D01*
G37*
%TD.AperFunction*%
%TA.AperFunction,SMDPad,CuDef*%
%TO.P,LED52,1*%
%TO.N,VDD*%
G36*
X197274333Y-96404073D02*
G01*
X198140359Y-95904073D01*
X198990359Y-97376317D01*
X198124333Y-97876317D01*
X197274333Y-96404073D01*
G37*
%TD.AperFunction*%
%TA.AperFunction,SMDPad,CuDef*%
%TO.P,LED52,2*%
%TO.N,Net-(LED49-Pad4)*%
G36*
X198486769Y-95704073D02*
G01*
X199352795Y-95204073D01*
X200202795Y-96676317D01*
X199336769Y-97176317D01*
X198486769Y-95704073D01*
G37*
%TD.AperFunction*%
%TD*%
D13*
%TO.P,LED59,2*%
%TO.N,Net-(LED56-Pad4)*%
X75394000Y-92264000D03*
%TO.P,LED59,1*%
%TO.N,VCC*%
X75394000Y-93664000D03*
%TO.P,LED59,3*%
%TO.N,GND*%
X69894000Y-92264000D03*
%TO.P,LED59,4*%
%TO.N,Net-(LED21-Pad2)*%
X69894000Y-93664000D03*
%TD*%
%TO.P,LED56,2*%
%TO.N,Net-(LED20-Pad4)*%
X46733500Y-96880000D03*
%TO.P,LED56,1*%
%TO.N,VCC*%
X46733500Y-98280000D03*
%TO.P,LED56,3*%
%TO.N,GND*%
X41233500Y-96880000D03*
%TO.P,LED56,4*%
%TO.N,Net-(LED56-Pad4)*%
X41233500Y-98280000D03*
%TD*%
%TO.P,LED58,2*%
%TO.N,Net-(LED47-Pad4)*%
X255481500Y-96880000D03*
%TO.P,LED58,1*%
%TO.N,VDD*%
X255481500Y-98280000D03*
%TO.P,LED58,3*%
%TO.N,GNDA*%
X249981500Y-96880000D03*
%TO.P,LED58,4*%
%TO.N,Net-(LED58-Pad4)*%
X249981500Y-98280000D03*
%TD*%
%TO.P,LED57,2*%
%TO.N,Net-(LED57-Pad2)*%
X274531500Y-96880000D03*
%TO.P,LED57,1*%
%TO.N,VDD*%
X274531500Y-98280000D03*
%TO.P,LED57,3*%
%TO.N,GNDA*%
X269031500Y-96880000D03*
%TO.P,LED57,4*%
%TO.N,Net-(LED46-Pad2)*%
X269031500Y-98280000D03*
%TD*%
%TO.P,LED55,2*%
%TO.N,Net-(LED55-Pad2)*%
X22857500Y-96880000D03*
%TO.P,LED55,1*%
%TO.N,VCC*%
X22857500Y-98280000D03*
%TO.P,LED55,3*%
%TO.N,GND*%
X17357500Y-96880000D03*
%TO.P,LED55,4*%
%TO.N,Net-(LED19-Pad2)*%
X17357500Y-98280000D03*
%TD*%
%TA.AperFunction,SMDPad,CuDef*%
D12*
%TO.P,LED26,2*%
%TO.N,Net-(LED25-Pad4)*%
G36*
X111238916Y-113761868D02*
G01*
X110372890Y-113261868D01*
X111222890Y-111789624D01*
X112088916Y-112289624D01*
X111238916Y-113761868D01*
G37*
%TD.AperFunction*%
%TA.AperFunction,SMDPad,CuDef*%
%TO.P,LED26,1*%
%TO.N,VCC*%
G36*
X112451352Y-114461868D02*
G01*
X111585326Y-113961868D01*
X112435326Y-112489624D01*
X113301352Y-112989624D01*
X112451352Y-114461868D01*
G37*
%TD.AperFunction*%
%TA.AperFunction,SMDPad,CuDef*%
%TO.P,LED26,3*%
%TO.N,GND*%
G36*
X108488916Y-118525008D02*
G01*
X107622890Y-118025008D01*
X108472890Y-116552764D01*
X109338916Y-117052764D01*
X108488916Y-118525008D01*
G37*
%TD.AperFunction*%
%TA.AperFunction,SMDPad,CuDef*%
%TO.P,LED26,4*%
%TO.N,Net-(LED23-Pad2)*%
G36*
X109701352Y-119225008D02*
G01*
X108835326Y-118725008D01*
X109685326Y-117252764D01*
X110551352Y-117752764D01*
X109701352Y-119225008D01*
G37*
%TD.AperFunction*%
%TD*%
D13*
%TO.P,LED7,2*%
%TO.N,Net-(LED13-Pad4)*%
X22857500Y-39830000D03*
%TO.P,LED7,1*%
%TO.N,VCC*%
X22857500Y-41230000D03*
%TO.P,LED7,3*%
%TO.N,GND*%
X17357500Y-39830000D03*
%TO.P,LED7,4*%
%TO.N,Net-(LED7-Pad4)*%
X17357500Y-41230000D03*
%TD*%
%TO.P,LED8,2*%
%TO.N,Net-(LED7-Pad4)*%
X41857500Y-39830000D03*
%TO.P,LED8,1*%
%TO.N,VCC*%
X41857500Y-41230000D03*
%TO.P,LED8,3*%
%TO.N,GND*%
X36357500Y-39830000D03*
%TO.P,LED8,4*%
%TO.N,Net-(LED14-Pad2)*%
X36357500Y-41230000D03*
%TD*%
%TO.P,LED9,2*%
%TO.N,Net-(LED15-Pad4)*%
X60857500Y-35080000D03*
%TO.P,LED9,1*%
%TO.N,VCC*%
X60857500Y-36480000D03*
%TO.P,LED9,3*%
%TO.N,GND*%
X55357500Y-35080000D03*
%TO.P,LED9,4*%
%TO.N,Net-(LED10-Pad2)*%
X55357500Y-36480000D03*
%TD*%
%TO.P,LED10,2*%
%TO.N,Net-(LED10-Pad2)*%
X79857500Y-32705000D03*
%TO.P,LED10,1*%
%TO.N,VCC*%
X79857500Y-34105000D03*
%TO.P,LED10,3*%
%TO.N,GND*%
X74357500Y-32705000D03*
%TO.P,LED10,4*%
%TO.N,Net-(LED10-Pad4)*%
X74357500Y-34105000D03*
%TD*%
%TO.P,LED11,2*%
%TO.N,Net-(LED11-Pad2)*%
X98857500Y-35080000D03*
%TO.P,LED11,1*%
%TO.N,VCC*%
X98857500Y-36480000D03*
%TO.P,LED11,3*%
%TO.N,GND*%
X93357500Y-35080000D03*
%TO.P,LED11,4*%
%TO.N,Net-(LED11-Pad4)*%
X93357500Y-36480000D03*
%TD*%
%TO.P,LED12,2*%
%TO.N,Net-(LED11-Pad4)*%
X117857500Y-37455000D03*
%TO.P,LED12,1*%
%TO.N,VCC*%
X117857500Y-38855000D03*
%TO.P,LED12,3*%
%TO.N,GND*%
X112357500Y-37455000D03*
%TO.P,LED12,4*%
%TO.N,Net-(LED12-Pad4)*%
X112357500Y-38855000D03*
%TD*%
%TO.P,LED13,2*%
%TO.N,Net-(LED13-Pad2)*%
X22857500Y-58830000D03*
%TO.P,LED13,1*%
%TO.N,VCC*%
X22857500Y-60230000D03*
%TO.P,LED13,3*%
%TO.N,GND*%
X17357500Y-58830000D03*
%TO.P,LED13,4*%
%TO.N,Net-(LED13-Pad4)*%
X17357500Y-60230000D03*
%TD*%
%TO.P,LED14,2*%
%TO.N,Net-(LED14-Pad2)*%
X41857500Y-58830000D03*
%TO.P,LED14,1*%
%TO.N,VCC*%
X41857500Y-60230000D03*
%TO.P,LED14,3*%
%TO.N,GND*%
X36357500Y-58830000D03*
%TO.P,LED14,4*%
%TO.N,Net-(LED14-Pad4)*%
X36357500Y-60230000D03*
%TD*%
%TO.P,LED15,2*%
%TO.N,Net-(LED15-Pad2)*%
X60857500Y-54080000D03*
%TO.P,LED15,1*%
%TO.N,VCC*%
X60857500Y-55480000D03*
%TO.P,LED15,3*%
%TO.N,GND*%
X55357500Y-54080000D03*
%TO.P,LED15,4*%
%TO.N,Net-(LED15-Pad4)*%
X55357500Y-55480000D03*
%TD*%
%TO.P,LED16,2*%
%TO.N,Net-(LED10-Pad4)*%
X79857500Y-51705000D03*
%TO.P,LED16,1*%
%TO.N,VCC*%
X79857500Y-53105000D03*
%TO.P,LED16,3*%
%TO.N,GND*%
X74357500Y-51705000D03*
%TO.P,LED16,4*%
%TO.N,Net-(LED16-Pad4)*%
X74357500Y-53105000D03*
%TD*%
%TO.P,LED17,2*%
%TO.N,Net-(LED17-Pad2)*%
X98857500Y-54080000D03*
%TO.P,LED17,1*%
%TO.N,VCC*%
X98857500Y-55480000D03*
%TO.P,LED17,3*%
%TO.N,GND*%
X93357500Y-54080000D03*
%TO.P,LED17,4*%
%TO.N,Net-(LED11-Pad2)*%
X93357500Y-55480000D03*
%TD*%
%TO.P,LED18,2*%
%TO.N,Net-(LED12-Pad4)*%
X117857500Y-56455000D03*
%TO.P,LED18,1*%
%TO.N,VCC*%
X117857500Y-57855000D03*
%TO.P,LED18,3*%
%TO.N,GND*%
X112357500Y-56455000D03*
%TO.P,LED18,4*%
%TO.N,Net-(LED18-Pad4)*%
X112357500Y-57855000D03*
%TD*%
%TO.P,LED19,2*%
%TO.N,Net-(LED19-Pad2)*%
X22857500Y-77830000D03*
%TO.P,LED19,1*%
%TO.N,VCC*%
X22857500Y-79230000D03*
%TO.P,LED19,3*%
%TO.N,GND*%
X17357500Y-77830000D03*
%TO.P,LED19,4*%
%TO.N,Net-(LED13-Pad2)*%
X17357500Y-79230000D03*
%TD*%
%TO.P,LED20,2*%
%TO.N,Net-(LED14-Pad4)*%
X41857500Y-77830000D03*
%TO.P,LED20,1*%
%TO.N,VCC*%
X41857500Y-79230000D03*
%TO.P,LED20,3*%
%TO.N,GND*%
X36357500Y-77830000D03*
%TO.P,LED20,4*%
%TO.N,Net-(LED20-Pad4)*%
X36357500Y-79230000D03*
%TD*%
%TO.P,LED21,2*%
%TO.N,Net-(LED21-Pad2)*%
X60857500Y-73080000D03*
%TO.P,LED21,1*%
%TO.N,VCC*%
X60857500Y-74480000D03*
%TO.P,LED21,3*%
%TO.N,GND*%
X55357500Y-73080000D03*
%TO.P,LED21,4*%
%TO.N,Net-(LED15-Pad2)*%
X55357500Y-74480000D03*
%TD*%
%TO.P,LED22,2*%
%TO.N,Net-(LED16-Pad4)*%
X79857500Y-70705000D03*
%TO.P,LED22,1*%
%TO.N,VCC*%
X79857500Y-72105000D03*
%TO.P,LED22,3*%
%TO.N,GND*%
X74357500Y-70705000D03*
%TO.P,LED22,4*%
%TO.N,Net-(LED22-Pad4)*%
X74357500Y-72105000D03*
%TD*%
%TO.P,LED24,2*%
%TO.N,Net-(LED18-Pad4)*%
X117857500Y-75455000D03*
%TO.P,LED24,1*%
%TO.N,VCC*%
X117857500Y-76855000D03*
%TO.P,LED24,3*%
%TO.N,GND*%
X112357500Y-75455000D03*
%TO.P,LED24,4*%
%TO.N,Net-(LED24-Pad4)*%
X112357500Y-76855000D03*
%TD*%
%TA.AperFunction,SMDPad,CuDef*%
D12*
%TO.P,LED25,2*%
%TO.N,Net-(LED22-Pad4)*%
G36*
X100133916Y-92375176D02*
G01*
X99267890Y-91875176D01*
X100117890Y-90402932D01*
X100983916Y-90902932D01*
X100133916Y-92375176D01*
G37*
%TD.AperFunction*%
%TA.AperFunction,SMDPad,CuDef*%
%TO.P,LED25,1*%
%TO.N,VCC*%
G36*
X101346352Y-93075176D02*
G01*
X100480326Y-92575176D01*
X101330326Y-91102932D01*
X102196352Y-91602932D01*
X101346352Y-93075176D01*
G37*
%TD.AperFunction*%
%TA.AperFunction,SMDPad,CuDef*%
%TO.P,LED25,3*%
%TO.N,GND*%
G36*
X97383916Y-97138316D02*
G01*
X96517890Y-96638316D01*
X97367890Y-95166072D01*
X98233916Y-95666072D01*
X97383916Y-97138316D01*
G37*
%TD.AperFunction*%
%TA.AperFunction,SMDPad,CuDef*%
%TO.P,LED25,4*%
%TO.N,Net-(LED25-Pad4)*%
G36*
X98596352Y-97838316D02*
G01*
X97730326Y-97338316D01*
X98580326Y-95866072D01*
X99446352Y-96366072D01*
X98596352Y-97838316D01*
G37*
%TD.AperFunction*%
%TD*%
%TA.AperFunction,SMDPad,CuDef*%
%TO.P,LED27,2*%
%TO.N,Net-(LED24-Pad4)*%
G36*
X119772916Y-96483583D02*
G01*
X118906890Y-95983583D01*
X119756890Y-94511339D01*
X120622916Y-95011339D01*
X119772916Y-96483583D01*
G37*
%TD.AperFunction*%
%TA.AperFunction,SMDPad,CuDef*%
%TO.P,LED27,1*%
%TO.N,VCC*%
G36*
X120985352Y-97183583D02*
G01*
X120119326Y-96683583D01*
X120969326Y-95211339D01*
X121835352Y-95711339D01*
X120985352Y-97183583D01*
G37*
%TD.AperFunction*%
%TA.AperFunction,SMDPad,CuDef*%
%TO.P,LED27,3*%
%TO.N,GND*%
G36*
X117022916Y-101246723D02*
G01*
X116156890Y-100746723D01*
X117006890Y-99274479D01*
X117872916Y-99774479D01*
X117022916Y-101246723D01*
G37*
%TD.AperFunction*%
%TA.AperFunction,SMDPad,CuDef*%
%TO.P,LED27,4*%
%TO.N,Net-(LED27-Pad4)*%
G36*
X118235352Y-101946723D02*
G01*
X117369326Y-101446723D01*
X118219326Y-99974479D01*
X119085352Y-100474479D01*
X118235352Y-101946723D01*
G37*
%TD.AperFunction*%
%TD*%
D13*
%TO.P,LED43,2*%
%TO.N,Net-(LED37-Pad4)*%
X222357500Y-51705000D03*
%TO.P,LED43,1*%
%TO.N,VDD*%
X222357500Y-53105000D03*
%TO.P,LED43,3*%
%TO.N,GNDA*%
X216857500Y-51705000D03*
%TO.P,LED43,4*%
%TO.N,Net-(LED43-Pad4)*%
X216857500Y-53105000D03*
%TD*%
%TO.P,LED44,2*%
%TO.N,Net-(LED44-Pad2)*%
X203357500Y-54080000D03*
%TO.P,LED44,1*%
%TO.N,VDD*%
X203357500Y-55480000D03*
%TO.P,LED44,3*%
%TO.N,GNDA*%
X197857500Y-54080000D03*
%TO.P,LED44,4*%
%TO.N,Net-(LED38-Pad2)*%
X197857500Y-55480000D03*
%TD*%
%TO.P,LED45,2*%
%TO.N,Net-(LED39-Pad4)*%
X184357500Y-56455000D03*
%TO.P,LED45,1*%
%TO.N,VDD*%
X184357500Y-57855000D03*
%TO.P,LED45,3*%
%TO.N,GNDA*%
X178857500Y-56455000D03*
%TO.P,LED45,4*%
%TO.N,Net-(LED45-Pad4)*%
X178857500Y-57855000D03*
%TD*%
%TO.P,LED46,2*%
%TO.N,Net-(LED46-Pad2)*%
X279357500Y-77830000D03*
%TO.P,LED46,1*%
%TO.N,VDD*%
X279357500Y-79230000D03*
%TO.P,LED46,3*%
%TO.N,GNDA*%
X273857500Y-77830000D03*
%TO.P,LED46,4*%
%TO.N,Net-(LED40-Pad2)*%
X273857500Y-79230000D03*
%TD*%
%TO.P,LED47,2*%
%TO.N,Net-(LED41-Pad4)*%
X260357500Y-77830000D03*
%TO.P,LED47,1*%
%TO.N,VDD*%
X260357500Y-79230000D03*
%TO.P,LED47,3*%
%TO.N,GNDA*%
X254857500Y-77830000D03*
%TO.P,LED47,4*%
%TO.N,Net-(LED47-Pad4)*%
X254857500Y-79230000D03*
%TD*%
%TO.P,LED48,2*%
%TO.N,Net-(LED48-Pad2)*%
X241357500Y-73080000D03*
%TO.P,LED48,1*%
%TO.N,VDD*%
X241357500Y-74480000D03*
%TO.P,LED48,3*%
%TO.N,GNDA*%
X235857500Y-73080000D03*
%TO.P,LED48,4*%
%TO.N,Net-(LED42-Pad2)*%
X235857500Y-74480000D03*
%TD*%
%TO.P,LED49,2*%
%TO.N,Net-(LED43-Pad4)*%
X222357500Y-70705000D03*
%TO.P,LED49,1*%
%TO.N,VDD*%
X222357500Y-72105000D03*
%TO.P,LED49,3*%
%TO.N,GNDA*%
X216857500Y-70705000D03*
%TO.P,LED49,4*%
%TO.N,Net-(LED49-Pad4)*%
X216857500Y-72105000D03*
%TD*%
%TO.P,LED50,2*%
%TO.N,Net-(LED50-Pad2)*%
X203357500Y-73080000D03*
%TO.P,LED50,1*%
%TO.N,VDD*%
X203357500Y-74480000D03*
%TO.P,LED50,3*%
%TO.N,GNDA*%
X197857500Y-73080000D03*
%TO.P,LED50,4*%
%TO.N,Net-(LED44-Pad2)*%
X197857500Y-74480000D03*
%TD*%
%TO.P,LED51,2*%
%TO.N,Net-(LED45-Pad4)*%
X184357500Y-75455000D03*
%TO.P,LED51,1*%
%TO.N,VDD*%
X184357500Y-76855000D03*
%TO.P,LED51,3*%
%TO.N,GNDA*%
X178857500Y-75455000D03*
%TO.P,LED51,4*%
%TO.N,Net-(LED51-Pad4)*%
X178857500Y-76855000D03*
%TD*%
%TO.P,LED60,4*%
%TO.N,Net-(LED48-Pad2)*%
X221327500Y-93597000D03*
%TO.P,LED60,3*%
%TO.N,GNDA*%
X221327500Y-92197000D03*
%TO.P,LED60,1*%
%TO.N,VDD*%
X226827500Y-93597000D03*
%TO.P,LED60,2*%
%TO.N,Net-(LED58-Pad4)*%
X226827500Y-92197000D03*
%TD*%
%TA.AperFunction,SMDPad,CuDef*%
D12*
%TO.P,LED53,2*%
%TO.N,Net-(LED52-Pad4)*%
G36*
X187423058Y-117052766D02*
G01*
X188289084Y-116552766D01*
X189139084Y-118025010D01*
X188273058Y-118525010D01*
X187423058Y-117052766D01*
G37*
%TD.AperFunction*%
%TA.AperFunction,SMDPad,CuDef*%
%TO.P,LED53,1*%
%TO.N,VDD*%
G36*
X186210622Y-117752766D02*
G01*
X187076648Y-117252766D01*
X187926648Y-118725010D01*
X187060622Y-119225010D01*
X186210622Y-117752766D01*
G37*
%TD.AperFunction*%
%TA.AperFunction,SMDPad,CuDef*%
%TO.P,LED53,3*%
%TO.N,GNDA*%
G36*
X184673058Y-112289626D02*
G01*
X185539084Y-111789626D01*
X186389084Y-113261870D01*
X185523058Y-113761870D01*
X184673058Y-112289626D01*
G37*
%TD.AperFunction*%
%TA.AperFunction,SMDPad,CuDef*%
%TO.P,LED53,4*%
%TO.N,Net-(LED50-Pad2)*%
G36*
X183460622Y-112989626D02*
G01*
X184326648Y-112489626D01*
X185176648Y-113961870D01*
X184310622Y-114461870D01*
X183460622Y-112989626D01*
G37*
%TD.AperFunction*%
%TD*%
%TA.AperFunction,SMDPad,CuDef*%
%TO.P,LED54,2*%
%TO.N,Net-(LED51-Pad4)*%
G36*
X178913905Y-99774479D02*
G01*
X179779931Y-99274479D01*
X180629931Y-100746723D01*
X179763905Y-101246723D01*
X178913905Y-99774479D01*
G37*
%TD.AperFunction*%
%TA.AperFunction,SMDPad,CuDef*%
%TO.P,LED54,1*%
%TO.N,VDD*%
G36*
X177701469Y-100474479D02*
G01*
X178567495Y-99974479D01*
X179417495Y-101446723D01*
X178551469Y-101946723D01*
X177701469Y-100474479D01*
G37*
%TD.AperFunction*%
%TA.AperFunction,SMDPad,CuDef*%
%TO.P,LED54,3*%
%TO.N,GNDA*%
G36*
X176163905Y-95011339D02*
G01*
X177029931Y-94511339D01*
X177879931Y-95983583D01*
X177013905Y-96483583D01*
X176163905Y-95011339D01*
G37*
%TD.AperFunction*%
%TA.AperFunction,SMDPad,CuDef*%
%TO.P,LED54,4*%
%TO.N,Net-(LED33-Pad2)*%
G36*
X174951469Y-95711339D02*
G01*
X175817495Y-95211339D01*
X176667495Y-96683583D01*
X175801469Y-97183583D01*
X174951469Y-95711339D01*
G37*
%TD.AperFunction*%
%TD*%
D13*
%TO.P,LED23,2*%
%TO.N,Net-(LED23-Pad2)*%
X98857500Y-73080000D03*
%TO.P,LED23,1*%
%TO.N,VCC*%
X98857500Y-74480000D03*
%TO.P,LED23,3*%
%TO.N,GND*%
X93357500Y-73080000D03*
%TO.P,LED23,4*%
%TO.N,Net-(LED17-Pad2)*%
X93357500Y-74480000D03*
%TD*%
%TO.P,LED34,2*%
%TO.N,Net-(LED34-Pad2)*%
X279357500Y-39830000D03*
%TO.P,LED34,1*%
%TO.N,VDD*%
X279357500Y-41230000D03*
%TO.P,LED34,3*%
%TO.N,GNDA*%
X273857500Y-39830000D03*
%TO.P,LED34,4*%
%TO.N,Net-(LED34-Pad4)*%
X273857500Y-41230000D03*
%TD*%
%TO.P,LED35,2*%
%TO.N,Net-(LED34-Pad4)*%
X260357500Y-39830000D03*
%TO.P,LED35,1*%
%TO.N,VDD*%
X260357500Y-41230000D03*
%TO.P,LED35,3*%
%TO.N,GNDA*%
X254857500Y-39830000D03*
%TO.P,LED35,4*%
%TO.N,Net-(LED35-Pad4)*%
X254857500Y-41230000D03*
%TD*%
%TO.P,LED36,2*%
%TO.N,Net-(LED36-Pad2)*%
X241357500Y-35080000D03*
%TO.P,LED36,1*%
%TO.N,VDD*%
X241357500Y-36480000D03*
%TO.P,LED36,3*%
%TO.N,GNDA*%
X235857500Y-35080000D03*
%TO.P,LED36,4*%
%TO.N,Net-(LED36-Pad4)*%
X235857500Y-36480000D03*
%TD*%
%TO.P,LED37,2*%
%TO.N,Net-(LED36-Pad4)*%
X222357500Y-32705000D03*
%TO.P,LED37,1*%
%TO.N,VDD*%
X222357500Y-34105000D03*
%TO.P,LED37,3*%
%TO.N,GNDA*%
X216857500Y-32705000D03*
%TO.P,LED37,4*%
%TO.N,Net-(LED37-Pad4)*%
X216857500Y-34105000D03*
%TD*%
%TO.P,LED38,2*%
%TO.N,Net-(LED38-Pad2)*%
X203357500Y-35080000D03*
%TO.P,LED38,1*%
%TO.N,VDD*%
X203357500Y-36480000D03*
%TO.P,LED38,3*%
%TO.N,GNDA*%
X197857500Y-35080000D03*
%TO.P,LED38,4*%
%TO.N,Net-(LED38-Pad4)*%
X197857500Y-36480000D03*
%TD*%
%TO.P,LED39,2*%
%TO.N,Net-(LED38-Pad4)*%
X184357500Y-37455000D03*
%TO.P,LED39,1*%
%TO.N,VDD*%
X184357500Y-38855000D03*
%TO.P,LED39,3*%
%TO.N,GNDA*%
X178857500Y-37455000D03*
%TO.P,LED39,4*%
%TO.N,Net-(LED39-Pad4)*%
X178857500Y-38855000D03*
%TD*%
%TO.P,LED40,2*%
%TO.N,Net-(LED40-Pad2)*%
X279357500Y-58830000D03*
%TO.P,LED40,1*%
%TO.N,VDD*%
X279357500Y-60230000D03*
%TO.P,LED40,3*%
%TO.N,GNDA*%
X273857500Y-58830000D03*
%TO.P,LED40,4*%
%TO.N,Net-(LED34-Pad2)*%
X273857500Y-60230000D03*
%TD*%
%TO.P,LED41,2*%
%TO.N,Net-(LED35-Pad4)*%
X260357500Y-58830000D03*
%TO.P,LED41,1*%
%TO.N,VDD*%
X260357500Y-60230000D03*
%TO.P,LED41,3*%
%TO.N,GNDA*%
X254857500Y-58830000D03*
%TO.P,LED41,4*%
%TO.N,Net-(LED41-Pad4)*%
X254857500Y-60230000D03*
%TD*%
%TO.P,LED42,2*%
%TO.N,Net-(LED42-Pad2)*%
X241357500Y-54080000D03*
%TO.P,LED42,1*%
%TO.N,VDD*%
X241357500Y-55480000D03*
%TO.P,LED42,3*%
%TO.N,GNDA*%
X235857500Y-54080000D03*
%TO.P,LED42,4*%
%TO.N,Net-(LED36-Pad2)*%
X235857500Y-55480000D03*
%TD*%
D14*
%TO.P,J3,B*%
%TO.N,data_r*%
X155837500Y-72170000D03*
%TO.P,J3,C*%
%TO.N,GNDA*%
X158837500Y-72170000D03*
%TO.P,J3,D*%
%TO.N,VDD*%
X162837500Y-72170000D03*
%TO.P,J3,A*%
%TO.N,Net-(J3-PadA)*%
X164337500Y-76370000D03*
%TD*%
%TO.P,J1,B*%
%TO.N,data*%
X140834500Y-76392000D03*
%TO.P,J1,C*%
%TO.N,GND*%
X137834500Y-76392000D03*
%TO.P,J1,D*%
%TO.N,VCC*%
X133834500Y-76392000D03*
%TO.P,J1,A*%
%TO.N,Net-(J1-PadA)*%
X132334500Y-72192000D03*
%TD*%
D15*
%TO.P,U1,24*%
%TO.N,Net-(U1-Pad24)*%
X127203900Y-31942000D03*
%TO.P,U1,23*%
%TO.N,GND*%
X127203900Y-34482000D03*
%TO.P,U1,22*%
%TO.N,reset*%
X127203900Y-37022000D03*
%TO.P,U1,21*%
%TO.N,VCC*%
X127203900Y-39562000D03*
%TO.P,U1,20*%
%TO.N,col0*%
X127203900Y-42102000D03*
%TO.P,U1,19*%
%TO.N,col1*%
X127203900Y-44642000D03*
%TO.P,U1,18*%
%TO.N,col2*%
X127203900Y-47182000D03*
%TO.P,U1,17*%
%TO.N,col3*%
X127203900Y-49722000D03*
%TO.P,U1,16*%
%TO.N,col4*%
X127203900Y-52262000D03*
%TO.P,U1,15*%
%TO.N,col5*%
X127203900Y-54802000D03*
%TO.P,U1,14*%
%TO.N,Net-(U1-Pad14)*%
X127203900Y-57342000D03*
%TO.P,U1,13*%
%TO.N,Net-(U1-Pad13)*%
X127203900Y-59882000D03*
%TO.P,U1,12*%
%TO.N,Net-(U1-Pad12)*%
X142423900Y-59882000D03*
%TO.P,U1,11*%
%TO.N,Net-(U1-Pad11)*%
X142423900Y-57342000D03*
%TO.P,U1,10*%
%TO.N,row3*%
X142423900Y-54802000D03*
%TO.P,U1,9*%
%TO.N,row2*%
X142423900Y-52262000D03*
%TO.P,U1,8*%
%TO.N,row1*%
X142423900Y-49722000D03*
%TO.P,U1,7*%
%TO.N,row0*%
X142423900Y-47182000D03*
%TO.P,U1,6*%
%TO.N,SCL*%
X142423900Y-44642000D03*
%TO.P,U1,5*%
%TO.N,SDA*%
X142423900Y-42102000D03*
%TO.P,U1,4*%
%TO.N,GND*%
X142423900Y-39562000D03*
%TO.P,U1,3*%
X142423900Y-37022000D03*
%TO.P,U1,2*%
%TO.N,data*%
X142423900Y-34482000D03*
%TO.P,U1,1*%
%TO.N,LED*%
X142423900Y-31942000D03*
%TD*%
%TO.P,U2,24*%
%TO.N,Net-(U2-Pad24)*%
X154378900Y-31912000D03*
%TO.P,U2,23*%
%TO.N,GNDA*%
X154378900Y-34452000D03*
%TO.P,U2,22*%
%TO.N,reset_r*%
X154378900Y-36992000D03*
%TO.P,U2,21*%
%TO.N,VDD*%
X154378900Y-39532000D03*
%TO.P,U2,20*%
%TO.N,col0_r*%
X154378900Y-42072000D03*
%TO.P,U2,19*%
%TO.N,col1_r*%
X154378900Y-44612000D03*
%TO.P,U2,18*%
%TO.N,col2_r*%
X154378900Y-47152000D03*
%TO.P,U2,17*%
%TO.N,col3_r*%
X154378900Y-49692000D03*
%TO.P,U2,16*%
%TO.N,col4_r*%
X154378900Y-52232000D03*
%TO.P,U2,15*%
%TO.N,col5_r*%
X154378900Y-54772000D03*
%TO.P,U2,14*%
%TO.N,Net-(U2-Pad14)*%
X154378900Y-57312000D03*
%TO.P,U2,13*%
%TO.N,Net-(U2-Pad13)*%
X154378900Y-59852000D03*
%TO.P,U2,12*%
%TO.N,Net-(U2-Pad12)*%
X169598900Y-59852000D03*
%TO.P,U2,11*%
%TO.N,Net-(U2-Pad11)*%
X169598900Y-57312000D03*
%TO.P,U2,10*%
%TO.N,row3_r*%
X169598900Y-54772000D03*
%TO.P,U2,9*%
%TO.N,row2_r*%
X169598900Y-52232000D03*
%TO.P,U2,8*%
%TO.N,row1_r*%
X169598900Y-49692000D03*
%TO.P,U2,7*%
%TO.N,row0_r*%
X169598900Y-47152000D03*
%TO.P,U2,6*%
%TO.N,SCL_r*%
X169598900Y-44612000D03*
%TO.P,U2,5*%
%TO.N,SDA_r*%
X169598900Y-42072000D03*
%TO.P,U2,4*%
%TO.N,GNDA*%
X169598900Y-39532000D03*
%TO.P,U2,3*%
X169598900Y-36992000D03*
%TO.P,U2,2*%
%TO.N,data_r*%
X169598900Y-34452000D03*
%TO.P,U2,1*%
%TO.N,LED_r*%
X169598900Y-31912000D03*
%TD*%
D11*
%TO.P,D11,2*%
%TO.N,Net-(D11-Pad2)*%
X103707500Y-48255000D03*
%TO.P,D11,1*%
%TO.N,row1*%
X103707500Y-51805000D03*
%TD*%
%TO.P,D9,2*%
%TO.N,Net-(D9-Pad2)*%
X65707500Y-48255000D03*
%TO.P,D9,1*%
%TO.N,row1*%
X65707500Y-51805000D03*
%TD*%
%TO.P,D25,2*%
%TO.N,Net-(D25-Pad2)*%
X227214500Y-26875000D03*
%TO.P,D25,1*%
%TO.N,row0_r*%
X227214500Y-30425000D03*
%TD*%
%TO.P,D1,2*%
%TO.N,Net-(D1-Pad2)*%
X27734500Y-34001875D03*
%TO.P,D1,1*%
%TO.N,row0*%
X27734500Y-37551875D03*
%TD*%
%TO.P,D2,2*%
%TO.N,Net-(D2-Pad2)*%
X46734500Y-34005000D03*
%TO.P,D2,1*%
%TO.N,row0*%
X46734500Y-37555000D03*
%TD*%
%TO.P,D3,2*%
%TO.N,Net-(D3-Pad2)*%
X65707500Y-29005000D03*
%TO.P,D3,1*%
%TO.N,row0*%
X65707500Y-32555000D03*
%TD*%
%TO.P,D4,2*%
%TO.N,Net-(D4-Pad2)*%
X84707500Y-26880000D03*
%TO.P,D4,1*%
%TO.N,row0*%
X84707500Y-30430000D03*
%TD*%
%TO.P,D5,2*%
%TO.N,Net-(D5-Pad2)*%
X103707500Y-29255000D03*
%TO.P,D5,1*%
%TO.N,row0*%
X103707500Y-32805000D03*
%TD*%
%TO.P,D6,2*%
%TO.N,Net-(D6-Pad2)*%
X122707500Y-31630000D03*
%TO.P,D6,1*%
%TO.N,row0*%
X122707500Y-35180000D03*
%TD*%
%TO.P,D7,2*%
%TO.N,Net-(D7-Pad2)*%
X27734500Y-53001875D03*
%TO.P,D7,1*%
%TO.N,row1*%
X27734500Y-56551875D03*
%TD*%
%TO.P,D8,2*%
%TO.N,Net-(D8-Pad2)*%
X46734500Y-53005000D03*
%TO.P,D8,1*%
%TO.N,row1*%
X46734500Y-56555000D03*
%TD*%
%TO.P,D10,2*%
%TO.N,Net-(D10-Pad2)*%
X84707500Y-45880000D03*
%TO.P,D10,1*%
%TO.N,row1*%
X84707500Y-49430000D03*
%TD*%
%TO.P,D12,2*%
%TO.N,Net-(D12-Pad2)*%
X122707500Y-50122000D03*
%TO.P,D12,1*%
%TO.N,row1*%
X122707500Y-53672000D03*
%TD*%
%TO.P,D13,2*%
%TO.N,Net-(D13-Pad2)*%
X27734500Y-72001875D03*
%TO.P,D13,1*%
%TO.N,row2*%
X27734500Y-75551875D03*
%TD*%
%TO.P,D14,2*%
%TO.N,Net-(D14-Pad2)*%
X46734500Y-72005000D03*
%TO.P,D14,1*%
%TO.N,row2*%
X46734500Y-75555000D03*
%TD*%
%TO.P,D15,2*%
%TO.N,Net-(D15-Pad2)*%
X65707500Y-67255000D03*
%TO.P,D15,1*%
%TO.N,row2*%
X65707500Y-70805000D03*
%TD*%
%TO.P,D16,2*%
%TO.N,Net-(D16-Pad2)*%
X84707500Y-64880000D03*
%TO.P,D16,1*%
%TO.N,row2*%
X84707500Y-68430000D03*
%TD*%
%TO.P,D17,2*%
%TO.N,Net-(D17-Pad2)*%
X103707500Y-67255000D03*
%TO.P,D17,1*%
%TO.N,row2*%
X103707500Y-70805000D03*
%TD*%
%TO.P,D18,2*%
%TO.N,Net-(D18-Pad2)*%
X122707500Y-69630000D03*
%TO.P,D18,1*%
%TO.N,row2*%
X122707500Y-73180000D03*
%TD*%
%TO.P,D19,2*%
%TO.N,Net-(D19-Pad2)*%
X100076000Y-83569000D03*
%TO.P,D19,1*%
%TO.N,row3*%
X100076000Y-87119000D03*
%TD*%
%TO.P,D20,2*%
%TO.N,Net-(D20-Pad2)*%
X103378000Y-98301000D03*
%TO.P,D20,1*%
%TO.N,row3*%
X103378000Y-101851000D03*
%TD*%
%TO.P,D21,2*%
%TO.N,Net-(D21-Pad2)*%
X105410000Y-98301000D03*
%TO.P,D21,1*%
%TO.N,row3*%
X105410000Y-101851000D03*
%TD*%
%TO.P,D22,2*%
%TO.N,Net-(D22-Pad2)*%
X284214500Y-34000000D03*
%TO.P,D22,1*%
%TO.N,row0_r*%
X284214500Y-37550000D03*
%TD*%
%TO.P,D23,2*%
%TO.N,Net-(D23-Pad2)*%
X265214500Y-34000000D03*
%TO.P,D23,1*%
%TO.N,row0_r*%
X265214500Y-37550000D03*
%TD*%
%TO.P,D24,2*%
%TO.N,Net-(D24-Pad2)*%
X246214500Y-28959000D03*
%TO.P,D24,1*%
%TO.N,row0_r*%
X246214500Y-32509000D03*
%TD*%
%TO.P,D26,2*%
%TO.N,Net-(D26-Pad2)*%
X208214500Y-29250000D03*
%TO.P,D26,1*%
%TO.N,row0_r*%
X208214500Y-32800000D03*
%TD*%
%TO.P,D27,2*%
%TO.N,Net-(D27-Pad2)*%
X189207500Y-31630000D03*
%TO.P,D27,1*%
%TO.N,row0_r*%
X189207500Y-35180000D03*
%TD*%
%TO.P,D28,2*%
%TO.N,Net-(D28-Pad2)*%
X284214500Y-52850000D03*
%TO.P,D28,1*%
%TO.N,row1_r*%
X284214500Y-56400000D03*
%TD*%
%TO.P,D29,2*%
%TO.N,Net-(D29-Pad2)*%
X265214500Y-53000000D03*
%TO.P,D29,1*%
%TO.N,row1_r*%
X265214500Y-56550000D03*
%TD*%
%TO.P,D30,2*%
%TO.N,Net-(D30-Pad2)*%
X246214500Y-48250000D03*
%TO.P,D30,1*%
%TO.N,row1_r*%
X246214500Y-51800000D03*
%TD*%
%TO.P,D31,2*%
%TO.N,Net-(D31-Pad2)*%
X227214500Y-45875000D03*
%TO.P,D31,1*%
%TO.N,row1_r*%
X227214500Y-49425000D03*
%TD*%
%TO.P,D32,2*%
%TO.N,Net-(D32-Pad2)*%
X208214500Y-48250000D03*
%TO.P,D32,1*%
%TO.N,row1_r*%
X208214500Y-51800000D03*
%TD*%
%TO.P,D33,2*%
%TO.N,Net-(D33-Pad2)*%
X189207500Y-50295000D03*
%TO.P,D33,1*%
%TO.N,row1_r*%
X189207500Y-53845000D03*
%TD*%
%TO.P,D34,2*%
%TO.N,Net-(D34-Pad2)*%
X284214500Y-72000000D03*
%TO.P,D34,1*%
%TO.N,row2_r*%
X284214500Y-75550000D03*
%TD*%
%TO.P,D35,2*%
%TO.N,Net-(D35-Pad2)*%
X265214500Y-72000000D03*
%TO.P,D35,1*%
%TO.N,row2_r*%
X265214500Y-75550000D03*
%TD*%
%TO.P,D36,2*%
%TO.N,Net-(D36-Pad2)*%
X246214500Y-67250000D03*
%TO.P,D36,1*%
%TO.N,row2_r*%
X246214500Y-70800000D03*
%TD*%
%TO.P,D37,2*%
%TO.N,Net-(D37-Pad2)*%
X227214500Y-64875000D03*
%TO.P,D37,1*%
%TO.N,row2_r*%
X227214500Y-68425000D03*
%TD*%
%TO.P,D38,2*%
%TO.N,Net-(D38-Pad2)*%
X208214500Y-67250000D03*
%TO.P,D38,1*%
%TO.N,row2_r*%
X208214500Y-70800000D03*
%TD*%
%TO.P,D39,2*%
%TO.N,Net-(D39-Pad2)*%
X189207500Y-69630000D03*
%TO.P,D39,1*%
%TO.N,row2_r*%
X189207500Y-73180000D03*
%TD*%
%TO.P,D48,1*%
%TO.N,row3_r*%
X231684500Y-89902000D03*
%TO.P,D48,2*%
%TO.N,Net-(D48-Pad2)*%
X231684500Y-86352000D03*
%TD*%
%TO.P,D40,2*%
%TO.N,Net-(D40-Pad2)*%
X196342000Y-84331000D03*
%TO.P,D40,1*%
%TO.N,row3_r*%
X196342000Y-87881000D03*
%TD*%
%TO.P,D42,2*%
%TO.N,Net-(D42-Pad2)*%
X193802000Y-99571000D03*
%TO.P,D42,1*%
%TO.N,row3_r*%
X193802000Y-103121000D03*
%TD*%
D16*
%TO.P,J4,4*%
%TO.N,SDA_r*%
X158164500Y-67045000D03*
%TO.P,J4,3*%
%TO.N,SCL_r*%
X160704500Y-67045000D03*
%TO.P,J4,2*%
%TO.N,VDD*%
X163244500Y-67045000D03*
%TO.P,J4,1*%
%TO.N,GNDA*%
X165784500Y-67045000D03*
%TD*%
%TO.P,J2,4*%
%TO.N,GND*%
X138568500Y-67028000D03*
%TO.P,J2,3*%
%TO.N,VCC*%
X136028500Y-67028000D03*
%TO.P,J2,2*%
%TO.N,SCL*%
X133488500Y-67028000D03*
%TO.P,J2,1*%
%TO.N,SDA*%
X130948500Y-67028000D03*
%TD*%
D17*
%TO.P,RSW2,2*%
%TO.N,GNDA*%
X154304500Y-63272000D03*
%TO.P,RSW2,1*%
%TO.N,reset_r*%
X154304500Y-69772000D03*
%TD*%
%TO.P,RSW1,2*%
%TO.N,GND*%
X142424500Y-63281000D03*
%TO.P,RSW1,1*%
%TO.N,reset*%
X142424500Y-69781000D03*
%TD*%
D18*
%TO.P,LED3,1*%
%TO.N,VCC*%
X117557500Y-41305000D03*
%TO.P,LED3,2*%
%TO.N,Net-(LED2-Pad4)*%
X117557500Y-44505000D03*
%TO.P,LED3,4*%
%TO.N,LED*%
X112657500Y-41305000D03*
%TO.P,LED3,3*%
%TO.N,GND*%
X112657500Y-44505000D03*
%TD*%
%TO.P,LED1,1*%
%TO.N,VCC*%
X41557500Y-43680000D03*
%TO.P,LED1,2*%
%TO.N,Net-(LED1-Pad2)*%
X41557500Y-46880000D03*
%TO.P,LED1,4*%
%TO.N,Net-(LED1-Pad4)*%
X36657500Y-43680000D03*
%TO.P,LED1,3*%
%TO.N,GND*%
X36657500Y-46880000D03*
%TD*%
%TO.P,LED2,1*%
%TO.N,VCC*%
X79557500Y-36555000D03*
%TO.P,LED2,2*%
%TO.N,Net-(LED1-Pad4)*%
X79557500Y-39755000D03*
%TO.P,LED2,4*%
%TO.N,Net-(LED2-Pad4)*%
X74657500Y-36555000D03*
%TO.P,LED2,3*%
%TO.N,GND*%
X74657500Y-39755000D03*
%TD*%
%TO.P,LED4,1*%
%TO.N,VCC*%
X41557500Y-62680000D03*
%TO.P,LED4,2*%
%TO.N,Net-(LED4-Pad2)*%
X41557500Y-65880000D03*
%TO.P,LED4,4*%
%TO.N,Net-(LED1-Pad2)*%
X36657500Y-62680000D03*
%TO.P,LED4,3*%
%TO.N,GND*%
X36657500Y-65880000D03*
%TD*%
%TO.P,LED5,1*%
%TO.N,VCC*%
X79557500Y-74555000D03*
%TO.P,LED5,2*%
%TO.N,Net-(LED5-Pad2)*%
X79557500Y-77755000D03*
%TO.P,LED5,4*%
%TO.N,Net-(LED4-Pad2)*%
X74657500Y-74555000D03*
%TO.P,LED5,3*%
%TO.N,GND*%
X74657500Y-77755000D03*
%TD*%
%TO.P,LED6,1*%
%TO.N,VCC*%
X117557500Y-79305000D03*
%TO.P,LED6,2*%
%TO.N,Net-(LED27-Pad4)*%
X117557500Y-82505000D03*
%TO.P,LED6,4*%
%TO.N,Net-(LED5-Pad2)*%
X112657500Y-79305000D03*
%TO.P,LED6,3*%
%TO.N,GND*%
X112657500Y-82505000D03*
%TD*%
%TO.P,LED28,1*%
%TO.N,VDD*%
X260057500Y-43680000D03*
%TO.P,LED28,2*%
%TO.N,Net-(LED28-Pad2)*%
X260057500Y-46880000D03*
%TO.P,LED28,4*%
%TO.N,Net-(LED28-Pad4)*%
X255157500Y-43680000D03*
%TO.P,LED28,3*%
%TO.N,GNDA*%
X255157500Y-46880000D03*
%TD*%
%TO.P,LED29,1*%
%TO.N,VDD*%
X222057500Y-36555000D03*
%TO.P,LED29,2*%
%TO.N,Net-(LED28-Pad4)*%
X222057500Y-39755000D03*
%TO.P,LED29,4*%
%TO.N,Net-(LED29-Pad4)*%
X217157500Y-36555000D03*
%TO.P,LED29,3*%
%TO.N,GNDA*%
X217157500Y-39755000D03*
%TD*%
%TO.P,LED30,1*%
%TO.N,VDD*%
X184057500Y-41305000D03*
%TO.P,LED30,2*%
%TO.N,Net-(LED29-Pad4)*%
X184057500Y-44505000D03*
%TO.P,LED30,4*%
%TO.N,LED_r*%
X179157500Y-41305000D03*
%TO.P,LED30,3*%
%TO.N,GNDA*%
X179157500Y-44505000D03*
%TD*%
%TO.P,LED31,1*%
%TO.N,VDD*%
X260057500Y-62680000D03*
%TO.P,LED31,2*%
%TO.N,Net-(LED31-Pad2)*%
X260057500Y-65880000D03*
%TO.P,LED31,4*%
%TO.N,Net-(LED28-Pad2)*%
X255157500Y-62680000D03*
%TO.P,LED31,3*%
%TO.N,GNDA*%
X255157500Y-65880000D03*
%TD*%
%TO.P,LED32,1*%
%TO.N,VDD*%
X222057500Y-74555000D03*
%TO.P,LED32,2*%
%TO.N,Net-(LED32-Pad2)*%
X222057500Y-77755000D03*
%TO.P,LED32,4*%
%TO.N,Net-(LED31-Pad2)*%
X217157500Y-74555000D03*
%TO.P,LED32,3*%
%TO.N,GNDA*%
X217157500Y-77755000D03*
%TD*%
%TO.P,LED33,1*%
%TO.N,VDD*%
X184057500Y-79305000D03*
%TO.P,LED33,2*%
%TO.N,Net-(LED33-Pad2)*%
X184057500Y-82505000D03*
%TO.P,LED33,4*%
%TO.N,Net-(LED32-Pad2)*%
X179157500Y-79305000D03*
%TO.P,LED33,3*%
%TO.N,GNDA*%
X179157500Y-82505000D03*
%TD*%
D19*
%TO.N,row1*%
X122428000Y-55880000D03*
X122428000Y-61468000D03*
%TO.N,row2*%
X109220000Y-64262000D03*
X107188000Y-64262000D03*
%TO.N,row3*%
X124807500Y-70805000D03*
X101854000Y-84582000D03*
X105156000Y-87884000D03*
X124782499Y-84879999D03*
X106680000Y-96774000D03*
X106680000Y-101854000D03*
%TO.N,GND*%
X103378000Y-77216000D03*
X103378000Y-73914000D03*
X69850000Y-73406000D03*
X70104000Y-77724000D03*
X125641000Y-77305000D03*
X125641000Y-79413000D03*
X51562000Y-81788000D03*
X49022000Y-79248000D03*
X121412000Y-56388000D03*
X124714000Y-66040000D03*
X126746000Y-66040000D03*
X128524000Y-70104000D03*
X30480000Y-65532000D03*
X30480000Y-60198000D03*
X33528000Y-44196000D03*
X33528000Y-41148000D03*
X106426000Y-80264000D03*
X103378000Y-80264000D03*
X108966000Y-41402000D03*
X109982000Y-37338000D03*
X68580000Y-38608000D03*
X68580000Y-35052000D03*
X137287000Y-63754000D03*
X140843000Y-64897000D03*
%TO.N,VCC*%
X124957510Y-40905000D03*
X119634000Y-57912000D03*
X54864000Y-97282000D03*
X50927000Y-79121000D03*
%TO.N,col0*%
X13022500Y-74861500D03*
X13022500Y-55811500D03*
X13022500Y-36761500D03*
X13022500Y-47566500D03*
X13022500Y-64262000D03*
X34544000Y-64262000D03*
X44958000Y-64262000D03*
X13022500Y-87561500D03*
%TO.N,col1*%
X32072500Y-55811500D03*
X32072500Y-36761500D03*
X32072500Y-49461500D03*
X32072500Y-68003500D03*
X43688000Y-65024000D03*
X35306000Y-65024000D03*
X32766000Y-65024000D03*
X32004000Y-73406000D03*
X36830000Y-86360000D03*
%TO.N,col2*%
X51122500Y-50985500D03*
X51122500Y-31935500D03*
X51122500Y-45397500D03*
X51122500Y-64193500D03*
X51022500Y-75660500D03*
X60706000Y-77978000D03*
X53916500Y-61276000D03*
%TO.N,col3*%
X70172500Y-48699500D03*
X70172500Y-29649500D03*
X70172500Y-42095500D03*
X70172500Y-61145500D03*
X71120000Y-58928000D03*
X68834000Y-72390000D03*
X83058000Y-83566000D03*
%TO.N,col4*%
X89222500Y-50985500D03*
X89222500Y-61790500D03*
X88968500Y-31935500D03*
X88968500Y-42740500D03*
X90170000Y-60198000D03*
X89022500Y-70489500D03*
X89022500Y-83434500D03*
%TO.N,col5*%
X108018500Y-53525500D03*
X108018500Y-62738000D03*
X108018500Y-34036000D03*
X108018500Y-46921500D03*
X108022500Y-72571500D03*
X108458000Y-89662000D03*
%TO.N,LED*%
X111095000Y-41305000D03*
X124333000Y-35052000D03*
%TO.N,row0_r*%
X172974000Y-42860000D03*
X172974000Y-35052000D03*
%TO.N,row1_r*%
X177662500Y-43622000D03*
X215508500Y-38796000D03*
X225922500Y-38796000D03*
X262498500Y-45908000D03*
X253354500Y-45908000D03*
X185862000Y-43114000D03*
%TO.N,row2_r*%
X262244500Y-64704000D03*
X249290500Y-68768000D03*
X232272500Y-63942000D03*
X228716500Y-63942000D03*
X194426500Y-61910000D03*
X190870500Y-61910000D03*
X211444500Y-61910000D03*
X213222500Y-61910000D03*
X184404000Y-60198000D03*
%TO.N,Net-(D40-Pad2)*%
X210312000Y-90424000D03*
X201422000Y-81788000D03*
X204216000Y-81788000D03*
X210312000Y-85852000D03*
%TO.N,row3_r*%
X183642000Y-60960000D03*
X192278000Y-79248000D03*
X280455050Y-89368950D03*
X280455050Y-91654950D03*
%TO.N,LED_r*%
X175417000Y-41305000D03*
%TO.N,col0_r*%
X269562500Y-49210000D03*
X269562500Y-66616500D03*
X264736500Y-85412500D03*
X269562500Y-74607500D03*
X269562500Y-55811500D03*
X269562500Y-36761500D03*
X252222000Y-62230000D03*
%TO.N,col1_r*%
X250512500Y-74607500D03*
X250512500Y-66616500D03*
X250512500Y-47566500D03*
X250512500Y-55811500D03*
X250512500Y-36761500D03*
X250512500Y-80957500D03*
%TO.N,col2_r*%
X231462500Y-50985500D03*
X231462500Y-42740500D03*
X231462500Y-31935500D03*
X227584000Y-70866000D03*
X221488000Y-80772000D03*
X231521000Y-58039000D03*
%TO.N,col3_r*%
X212412500Y-59250500D03*
X212412500Y-48445500D03*
X212412500Y-40454500D03*
X212529500Y-70985000D03*
X212529500Y-80078500D03*
X212412500Y-32834500D03*
%TO.N,col4_r*%
X193479500Y-73525000D03*
X193616500Y-60960000D03*
X193616500Y-50985500D03*
X193616500Y-31935500D03*
X193548000Y-44450000D03*
X193479500Y-80195500D03*
%TO.N,col5_r*%
X174566500Y-64330500D03*
X174566500Y-53525500D03*
X174566500Y-45280500D03*
X174566500Y-35306000D03*
X174529500Y-73406000D03*
X175514000Y-83566000D03*
%TO.N,VDD*%
X172074500Y-42352000D03*
X248920000Y-77724000D03*
X171787500Y-54069000D03*
X241046000Y-93472000D03*
X248920000Y-80264000D03*
X241046000Y-89916000D03*
%TO.N,GNDA*%
X161807500Y-77705000D03*
X247396000Y-75438000D03*
X247396000Y-80264000D03*
X213614000Y-77724000D03*
X172720000Y-65024000D03*
X173482000Y-54356000D03*
X213745000Y-39755000D03*
X213745000Y-31373000D03*
X173090520Y-77078520D03*
X173990000Y-82550000D03*
X249428000Y-60198000D03*
X249428000Y-57404000D03*
X175514000Y-46482000D03*
X251570000Y-46880000D03*
X251714000Y-38354000D03*
X213614000Y-88392000D03*
X158206000Y-34453000D03*
X158206000Y-34453000D03*
X156972000Y-64643000D03*
%TO.N,Net-(LED1-Pad2)*%
X45830000Y-46880000D03*
X35306000Y-62738000D03*
%TO.N,Net-(LED1-Pad4)*%
X81026000Y-38862000D03*
X73152000Y-38608000D03*
X43434000Y-43434000D03*
X35052000Y-43942000D03*
%TO.N,Net-(LED2-Pad4)*%
X119071000Y-44505000D03*
X111252000Y-43434000D03*
X80772000Y-37846000D03*
X73152000Y-36830000D03*
%TO.N,Net-(LED10-Pad2)*%
X53752000Y-36480000D03*
X69088000Y-34036000D03*
X71374000Y-31750000D03*
X81534000Y-32766000D03*
%TO.N,Net-(LED11-Pad4)*%
X119380000Y-37592000D03*
X91852000Y-36480000D03*
X106680000Y-35052000D03*
X109220000Y-35052000D03*
%TO.N,Net-(LED13-Pad4)*%
X15748000Y-60198000D03*
X24336000Y-39830000D03*
%TO.N,Net-(LED14-Pad2)*%
X43386000Y-58880000D03*
X34290000Y-41402000D03*
%TO.N,Net-(LED15-Pad4)*%
X53848000Y-55626000D03*
X62484000Y-35052000D03*
%TO.N,Net-(LED10-Pad4)*%
X72390000Y-34290000D03*
X81486000Y-51768000D03*
%TO.N,Net-(LED11-Pad2)*%
X91948000Y-55372000D03*
X100330000Y-35052000D03*
%TO.N,Net-(LED12-Pad4)*%
X119634000Y-56340000D03*
X110236000Y-38862000D03*
%TO.N,Net-(LED13-Pad2)*%
X24336000Y-58880000D03*
X15748000Y-79248000D03*
%TO.N,Net-(LED14-Pad4)*%
X33782000Y-60452000D03*
X43386000Y-77930000D03*
%TO.N,Net-(LED16-Pad4)*%
X72390000Y-53086000D03*
X81534000Y-70612000D03*
%TO.N,Net-(LED17-Pad2)*%
X87122000Y-72644000D03*
X100838000Y-55118000D03*
%TO.N,Net-(LED18-Pad4)*%
X110490000Y-57150000D03*
X120125000Y-75455000D03*
%TO.N,Net-(LED22-Pad4)*%
X71628000Y-73406000D03*
X71628000Y-78994000D03*
X82296000Y-81788000D03*
X101346000Y-89662000D03*
%TO.N,Net-(LED24-Pad4)*%
X110744000Y-76200000D03*
X121158000Y-93980000D03*
%TO.N,Net-(LED25-Pad4)*%
X112268000Y-111252000D03*
X101346000Y-106426000D03*
%TO.N,Net-(LED27-Pad4)*%
X116840000Y-102362000D03*
X110490000Y-86106000D03*
%TO.N,Net-(LED28-Pad2)*%
X253608500Y-62672000D03*
X261764000Y-46880000D03*
%TO.N,Net-(LED29-Pad4)*%
X188976000Y-45212000D03*
X195326000Y-42037000D03*
%TO.N,Net-(LED32-Pad2)*%
X223489000Y-77755000D03*
X215900000Y-76708000D03*
X185420000Y-80264000D03*
X177546000Y-79248000D03*
%TO.N,Net-(LED34-Pad2)*%
X281040500Y-40574000D03*
X272150500Y-60132000D03*
%TO.N,Net-(LED35-Pad4)*%
X253502500Y-41230000D03*
X261990500Y-58862000D03*
%TO.N,Net-(LED37-Pad4)*%
X215119500Y-34105000D03*
X223890500Y-51750000D03*
%TO.N,Net-(LED38-Pad2)*%
X205000500Y-35080000D03*
X195950500Y-55306000D03*
%TO.N,Net-(LED39-Pad4)*%
X177154500Y-39050000D03*
X177154500Y-39050000D03*
X186044500Y-56455000D03*
%TO.N,Net-(LED4-Pad2)*%
X46642000Y-65880000D03*
X65532000Y-75692000D03*
X62738000Y-80772000D03*
X64770000Y-80772000D03*
%TO.N,Net-(LED5-Pad2)*%
X105664000Y-78232000D03*
X102108000Y-78232000D03*
%TO.N,Net-(LED7-Pad4)*%
X43688000Y-39878000D03*
X15652000Y-41306000D03*
X30988000Y-39370000D03*
X33274000Y-39370000D03*
%TO.N,Net-(LED15-Pad2)*%
X62484000Y-54102000D03*
X53848000Y-74422000D03*
%TO.N,Net-(LED20-Pad4)*%
X34798000Y-79248000D03*
X48408000Y-96880000D03*
%TO.N,Net-(LED23-Pad2)*%
X101092000Y-74168000D03*
X107442000Y-119634000D03*
%TO.N,Net-(LED31-Pad2)*%
X261620000Y-66040000D03*
X244348000Y-77216000D03*
X223520000Y-75692000D03*
X215646000Y-74676000D03*
%TO.N,Net-(LED33-Pad2)*%
X177800000Y-84582000D03*
X177800000Y-87122000D03*
X175768000Y-90170000D03*
X175768000Y-93218000D03*
%TO.N,Net-(LED40-Pad2)*%
X272150500Y-79182000D03*
X281008500Y-58830000D03*
%TO.N,Net-(LED41-Pad4)*%
X262072500Y-77830000D03*
X253354500Y-60132000D03*
X251576500Y-65466000D03*
X261012750Y-74648250D03*
%TO.N,Net-(LED42-Pad2)*%
X234050500Y-74356000D03*
X242908500Y-54004000D03*
%TO.N,Net-(LED43-Pad4)*%
X215423500Y-53105000D03*
X223890500Y-70800000D03*
%TO.N,Net-(LED44-Pad2)*%
X205602500Y-54798000D03*
X195696500Y-74356000D03*
%TO.N,Net-(LED45-Pad4)*%
X177408500Y-57846000D03*
X185961500Y-75455000D03*
%TO.N,Net-(LED47-Pad4)*%
X253100500Y-78928000D03*
X257672500Y-96962000D03*
X256148500Y-94371500D03*
X251841000Y-81915000D03*
%TO.N,Net-(LED49-Pad4)*%
X214630000Y-72105000D03*
X214630000Y-79907500D03*
X207518000Y-87376000D03*
X200152000Y-97536000D03*
%TO.N,Net-(LED50-Pad2)*%
X205856500Y-73848000D03*
X183642000Y-112014000D03*
%TO.N,Net-(LED51-Pad4)*%
X176022000Y-76855000D03*
X180340000Y-101600000D03*
%TO.N,Net-(LED52-Pad4)*%
X192024000Y-98298000D03*
X192024000Y-104394000D03*
%TO.N,Net-(LED36-Pad2)*%
X234050500Y-55306000D03*
X242908500Y-34954000D03*
%TO.N,Net-(LED19-Pad2)*%
X15748000Y-98298000D03*
X24336000Y-77930000D03*
%TO.N,Net-(LED46-Pad2)*%
X267324500Y-98232000D03*
X272404500Y-84465500D03*
%TO.N,Net-(LED21-Pad2)*%
X62230000Y-73152000D03*
X67310000Y-93472000D03*
%TO.N,Net-(LED48-Pad2)*%
X243006000Y-73080000D03*
X219839000Y-93597000D03*
X242062000Y-77978000D03*
X225552000Y-77978000D03*
%TO.N,Net-(LED56-Pad4)*%
X39624000Y-98298000D03*
X39624000Y-100838000D03*
%TD*%
D20*
%TO.N,row0*%
X27734500Y-37551875D02*
X28996125Y-37551875D01*
X28996125Y-37551875D02*
X29210000Y-37338000D01*
X65707500Y-32555000D02*
X67013000Y-32555000D01*
X67013000Y-32555000D02*
X67310000Y-32258000D01*
X84707500Y-30430000D02*
X85902000Y-30430000D01*
X85902000Y-30430000D02*
X86360000Y-29972000D01*
X86360000Y-29972000D02*
X86360000Y-23114000D01*
X86360000Y-23114000D02*
X86360000Y-22860000D01*
X93853000Y-24765000D02*
X99314000Y-30226000D01*
X99314000Y-30226000D02*
X99314000Y-31877000D01*
X100242000Y-32805000D02*
X103707500Y-32805000D01*
X99314000Y-31877000D02*
X100242000Y-32805000D01*
X88265000Y-24765000D02*
X86360000Y-22860000D01*
X93853000Y-24765000D02*
X88265000Y-24765000D01*
X86360000Y-22860000D02*
X84709000Y-21209000D01*
X124206000Y-34036000D02*
X123062000Y-35180000D01*
X124206000Y-31877000D02*
X124206000Y-34036000D01*
X123062000Y-35180000D02*
X122707500Y-35180000D01*
X125578000Y-30505000D02*
X124206000Y-31877000D01*
X142907500Y-30505000D02*
X125578000Y-30505000D01*
X105410000Y-30226000D02*
X105410000Y-32004000D01*
X109728000Y-25908000D02*
X105410000Y-30226000D01*
X104609000Y-32805000D02*
X103707500Y-32805000D01*
X105410000Y-32004000D02*
X104609000Y-32805000D01*
X122936000Y-26797000D02*
X122047000Y-25908000D01*
X125578000Y-30505000D02*
X125247000Y-30505000D01*
X122047000Y-25908000D02*
X109728000Y-25908000D01*
X122936000Y-28194000D02*
X122936000Y-26797000D01*
X125247000Y-30505000D02*
X122936000Y-28194000D01*
X67310000Y-24511000D02*
X70612000Y-21209000D01*
X84709000Y-21209000D02*
X70612000Y-21209000D01*
X67310000Y-32258000D02*
X67310000Y-24511000D01*
X66548000Y-23749000D02*
X67310000Y-24511000D01*
X52578000Y-23749000D02*
X66548000Y-23749000D01*
X50051753Y-26275247D02*
X52578000Y-23749000D01*
X50038000Y-26275247D02*
X50051753Y-26275247D01*
X48881247Y-27432000D02*
X50038000Y-26275247D01*
X30480000Y-28448000D02*
X29210000Y-29718000D01*
X29210000Y-37338000D02*
X29210000Y-29718000D01*
X48881247Y-27445753D02*
X47879000Y-28448000D01*
X48881247Y-27432000D02*
X48881247Y-27445753D01*
X47879000Y-28448000D02*
X30480000Y-28448000D01*
X47879000Y-36410500D02*
X46734500Y-37555000D01*
X47879000Y-28448000D02*
X47879000Y-36410500D01*
X143891000Y-31488500D02*
X143831250Y-31428750D01*
X143891000Y-45720000D02*
X143891000Y-31488500D01*
X143831250Y-31428750D02*
X142907500Y-30505000D01*
X143769100Y-45841900D02*
X143891000Y-45720000D01*
X143764000Y-45841900D02*
X143769100Y-45841900D01*
X142423900Y-47182000D02*
X143764000Y-45841900D01*
%TO.N,Net-(D1-Pad2)*%
X25949500Y-32216875D02*
X27734500Y-34001875D01*
X25949500Y-30700000D02*
X25949500Y-32216875D01*
%TO.N,row1*%
X67013000Y-51605000D02*
X67310000Y-51308000D01*
X27734500Y-56601875D02*
X28996125Y-56601875D01*
X28996125Y-56601875D02*
X29210000Y-56388000D01*
X67310000Y-41656000D02*
X68072000Y-41656000D01*
X86360000Y-49022000D02*
X86360000Y-41910000D01*
X84707500Y-49480000D02*
X85902000Y-49480000D01*
X67310000Y-51308000D02*
X67310000Y-41656000D01*
X65707500Y-51605000D02*
X67013000Y-51605000D01*
X85902000Y-49480000D02*
X86360000Y-49022000D01*
X48260000Y-56134000D02*
X48260000Y-46228000D01*
X47789000Y-56605000D02*
X48260000Y-56134000D01*
X46734500Y-56605000D02*
X47789000Y-56605000D01*
X29210000Y-56388000D02*
X29210000Y-49503998D01*
X29210000Y-49503998D02*
X29236002Y-49503998D01*
X29236002Y-49503998D02*
X30988000Y-47752000D01*
X46736000Y-47752000D02*
X48260000Y-46228000D01*
X30988000Y-47752000D02*
X46736000Y-47752000D01*
X67056000Y-41656000D02*
X67310000Y-41656000D01*
X52832000Y-41656000D02*
X67056000Y-41656000D01*
X48260000Y-46228000D02*
X52832000Y-41656000D01*
X68978001Y-40749999D02*
X85488001Y-40749999D01*
X68072000Y-41656000D02*
X68978001Y-40749999D01*
X85488001Y-41038001D02*
X86360000Y-41910000D01*
X85488001Y-40749999D02*
X85488001Y-41038001D01*
X123062000Y-53722000D02*
X122707500Y-53722000D01*
X105410000Y-51054000D02*
X105410000Y-46963998D01*
X104609000Y-51855000D02*
X105410000Y-51054000D01*
X103707500Y-51855000D02*
X104609000Y-51855000D01*
X86360000Y-41910000D02*
X102108000Y-41910000D01*
X102108000Y-41910000D02*
X106285999Y-46087999D01*
X105410000Y-46963998D02*
X106285999Y-46087999D01*
X122707500Y-53672000D02*
X122350000Y-53672000D01*
X122428000Y-53951500D02*
X122707500Y-53672000D01*
X122428000Y-55880000D02*
X122428000Y-53951500D01*
X122546001Y-45330001D02*
X107043997Y-45330001D01*
X107043997Y-45330001D02*
X106285999Y-46087999D01*
X123751990Y-53032010D02*
X123751990Y-46535990D01*
X123751990Y-46535990D02*
X122546001Y-45330001D01*
X123112000Y-53672000D02*
X123751990Y-53032010D01*
X122707500Y-53672000D02*
X123112000Y-53672000D01*
X140407500Y-61014500D02*
X140407500Y-51805000D01*
X140407500Y-51805000D02*
X142423900Y-49788600D01*
X142423900Y-49788600D02*
X142423900Y-49722000D01*
X139954000Y-61468000D02*
X140017500Y-61404500D01*
X122428000Y-61468000D02*
X139954000Y-61468000D01*
X140017500Y-61404500D02*
X140407500Y-61014500D01*
%TO.N,Net-(D2-Pad2)*%
X44999500Y-30700000D02*
X44999500Y-32216875D01*
X44999500Y-32216875D02*
X46784500Y-34001875D01*
D21*
%TO.N,row2*%
X141661901Y-53023999D02*
X142423900Y-52262000D01*
D20*
X27734500Y-75551875D02*
X28842125Y-75551875D01*
X28842125Y-75551875D02*
X29210000Y-75184000D01*
X29210000Y-75184000D02*
X29210000Y-68326000D01*
X29210000Y-68326000D02*
X30734000Y-66802000D01*
X30734000Y-66802000D02*
X46736000Y-66802000D01*
X46736000Y-66802000D02*
X46990000Y-66802000D01*
X46734500Y-75555000D02*
X47635000Y-75555000D01*
X47635000Y-75555000D02*
X48260000Y-74930000D01*
X48260000Y-68072000D02*
X46990000Y-66802000D01*
X48260000Y-74930000D02*
X48260000Y-68072000D01*
X67056000Y-70612000D02*
X66863000Y-70805000D01*
X66863000Y-70805000D02*
X65707500Y-70805000D01*
X67056000Y-63246000D02*
X67056000Y-70612000D01*
X65786000Y-61976000D02*
X67056000Y-63246000D01*
X86106000Y-67564000D02*
X86106000Y-61214000D01*
X85240000Y-68430000D02*
X86106000Y-67564000D01*
X84707500Y-68430000D02*
X85240000Y-68430000D01*
X86106000Y-61214000D02*
X85852000Y-60960000D01*
X104201000Y-70805000D02*
X103707500Y-70805000D01*
X105156000Y-69850000D02*
X104201000Y-70805000D01*
X105156000Y-63500000D02*
X105156000Y-69850000D01*
X103632000Y-61976000D02*
X105156000Y-63500000D01*
X91440000Y-61976000D02*
X103632000Y-61976000D01*
X90424000Y-60960000D02*
X91440000Y-61976000D01*
X85852000Y-60960000D02*
X90424000Y-60960000D01*
X53340000Y-61976000D02*
X52070000Y-63246000D01*
X65786000Y-61976000D02*
X53340000Y-61976000D01*
X46990000Y-66802000D02*
X49022000Y-64770000D01*
X49022000Y-64770000D02*
X50546000Y-63246000D01*
X52070000Y-63246000D02*
X50546000Y-63246000D01*
X122682000Y-64262000D02*
X119634000Y-64262000D01*
X123698000Y-68326000D02*
X122936000Y-67564000D01*
X123457500Y-73180000D02*
X123698000Y-72939500D01*
X122936000Y-67564000D02*
X122936000Y-64516000D01*
X122936000Y-64516000D02*
X122682000Y-64262000D01*
X122707500Y-73180000D02*
X123457500Y-73180000D01*
X123698000Y-72939500D02*
X123698000Y-70612000D01*
X123698000Y-70612000D02*
X123698000Y-70358000D01*
X123698000Y-70358000D02*
X123698000Y-68326000D01*
X119634000Y-64262000D02*
X109220000Y-64262000D01*
X109220000Y-64262000D02*
X109220000Y-64262000D01*
X105918000Y-64262000D02*
X105156000Y-63500000D01*
X107188000Y-64262000D02*
X105918000Y-64262000D01*
X85598000Y-60960000D02*
X85852000Y-60960000D01*
X84328000Y-59690000D02*
X85598000Y-60960000D01*
X68072000Y-59690000D02*
X84328000Y-59690000D01*
X65786000Y-61976000D02*
X68072000Y-59690000D01*
D21*
X140859511Y-53826389D02*
X141661901Y-53023999D01*
D20*
X123698000Y-70394802D02*
X123698000Y-70358000D01*
X131947900Y-62738000D02*
X124182499Y-70503401D01*
X123806599Y-70503401D02*
X123698000Y-70394802D01*
X124182499Y-70503401D02*
X123806599Y-70503401D01*
X140859511Y-53826389D02*
X140859511Y-61310989D01*
X140859511Y-61310989D02*
X140074250Y-62096250D01*
X131947900Y-62729600D02*
X132581250Y-62096250D01*
X131947900Y-62738000D02*
X131947900Y-62729600D01*
X140074250Y-62096250D02*
X132581250Y-62096250D01*
%TO.N,Net-(D3-Pad2)*%
X63949500Y-27247000D02*
X65707500Y-29005000D01*
X63949500Y-25950000D02*
X63949500Y-27247000D01*
D21*
%TO.N,row3*%
X142423900Y-54802000D02*
X141313522Y-55912378D01*
D20*
X53594000Y-85344000D02*
X53340000Y-85344000D01*
X51816000Y-94482000D02*
X53092000Y-94482000D01*
X53594000Y-93980000D02*
X53594000Y-85344000D01*
X53092000Y-94482000D02*
X53594000Y-93980000D01*
X50038000Y-85344000D02*
X53594000Y-85344000D01*
X50038000Y-81788000D02*
X50038000Y-85344000D01*
X69850000Y-81026000D02*
X65786000Y-76962000D01*
X80264000Y-81026000D02*
X69850000Y-81026000D01*
X81788000Y-82550000D02*
X80264000Y-81026000D01*
X54864000Y-76962000D02*
X50038000Y-81788000D01*
X65786000Y-76962000D02*
X54864000Y-76962000D01*
X101854000Y-84582000D02*
X101811500Y-84644000D01*
X101854000Y-83058000D02*
X101854000Y-84582000D01*
X100392000Y-81596000D02*
X101854000Y-83058000D01*
X92667500Y-81596000D02*
X100392000Y-81596000D01*
X91713500Y-82550000D02*
X92667500Y-81596000D01*
X81788000Y-82550000D02*
X91713500Y-82550000D01*
X101854000Y-85598000D02*
X101854000Y-84582000D01*
X100333000Y-87119000D02*
X101854000Y-85598000D01*
X100076000Y-87119000D02*
X100333000Y-87119000D01*
X106680000Y-87884000D02*
X106680000Y-93541000D01*
X124064498Y-85598000D02*
X124782499Y-84879999D01*
X112522000Y-85598000D02*
X124064498Y-85598000D01*
X110236000Y-87884000D02*
X112522000Y-85598000D01*
X105156000Y-87884000D02*
X110236000Y-87884000D01*
X102870000Y-101851000D02*
X104902000Y-101851000D01*
X106680000Y-93541000D02*
X106680000Y-96774000D01*
X106680000Y-96774000D02*
X106680000Y-96774000D01*
X106677000Y-101851000D02*
X106680000Y-101854000D01*
X105410000Y-101851000D02*
X106677000Y-101851000D01*
X80518000Y-89913000D02*
X81029000Y-89913000D01*
X81788000Y-89154000D02*
X81788000Y-82550000D01*
X81029000Y-89913000D02*
X81788000Y-89154000D01*
X104902000Y-101851000D02*
X105410000Y-101851000D01*
X35306000Y-85852000D02*
X35814000Y-85344000D01*
X28959000Y-93977000D02*
X35306000Y-87630000D01*
X28956000Y-93977000D02*
X28959000Y-93977000D01*
X35306000Y-87630000D02*
X35306000Y-85852000D01*
X35814000Y-85344000D02*
X50038000Y-85344000D01*
X141313522Y-61632478D02*
X141313522Y-55912378D01*
X140335000Y-62611000D02*
X141313522Y-61632478D01*
X124807500Y-70645500D02*
X132842000Y-62611000D01*
X132842000Y-62611000D02*
X140335000Y-62611000D01*
X124807500Y-70805000D02*
X124807500Y-70645500D01*
%TO.N,Net-(D4-Pad2)*%
X82949500Y-25122000D02*
X84707500Y-26880000D01*
X82949500Y-23575000D02*
X82949500Y-25122000D01*
%TO.N,Net-(D5-Pad2)*%
X101949500Y-27497000D02*
X103707500Y-29255000D01*
X101949500Y-25950000D02*
X101949500Y-27497000D01*
%TO.N,Net-(D6-Pad2)*%
X120949500Y-29872000D02*
X122707500Y-31630000D01*
X120949500Y-28325000D02*
X120949500Y-29872000D01*
%TO.N,Net-(D7-Pad2)*%
X25949500Y-51216875D02*
X27734500Y-53001875D01*
X25949500Y-49700000D02*
X25949500Y-51216875D01*
%TO.N,Net-(D8-Pad2)*%
X44949500Y-51220000D02*
X46734500Y-53005000D01*
X44949500Y-49700000D02*
X44949500Y-51220000D01*
%TO.N,Net-(D9-Pad2)*%
X63949500Y-46497000D02*
X65707500Y-48255000D01*
X63949500Y-44950000D02*
X63949500Y-46497000D01*
%TO.N,Net-(D10-Pad2)*%
X82949500Y-44122000D02*
X84707500Y-45880000D01*
X82949500Y-42575000D02*
X82949500Y-44122000D01*
%TO.N,Net-(D11-Pad2)*%
X101949500Y-46497000D02*
X103707500Y-48255000D01*
X101949500Y-44950000D02*
X101949500Y-46497000D01*
%TO.N,Net-(D12-Pad2)*%
X121496000Y-50122000D02*
X122707500Y-50122000D01*
X120949500Y-49575500D02*
X121496000Y-50122000D01*
X120949500Y-47325000D02*
X120949500Y-49575500D01*
%TO.N,Net-(D13-Pad2)*%
X25949500Y-70216875D02*
X27734500Y-72001875D01*
X25949500Y-68700000D02*
X25949500Y-70216875D01*
%TO.N,Net-(D14-Pad2)*%
X44949500Y-70220000D02*
X46734500Y-72005000D01*
X44949500Y-68700000D02*
X44949500Y-70220000D01*
%TO.N,Net-(D15-Pad2)*%
X63949500Y-65497000D02*
X65707500Y-67255000D01*
X63949500Y-63950000D02*
X63949500Y-65497000D01*
%TO.N,Net-(D16-Pad2)*%
X82949500Y-63122000D02*
X84707500Y-64880000D01*
X82949500Y-61575000D02*
X82949500Y-63122000D01*
%TO.N,Net-(D17-Pad2)*%
X101949500Y-65497000D02*
X103707500Y-67255000D01*
X101949500Y-63950000D02*
X101949500Y-65497000D01*
%TO.N,Net-(D18-Pad2)*%
X120949500Y-67872000D02*
X122707500Y-69630000D01*
X120949500Y-66325000D02*
X120949500Y-67872000D01*
%TO.N,Net-(D19-Pad2)*%
X99498696Y-84146304D02*
X100076000Y-83569000D01*
X93765091Y-84146304D02*
X99498696Y-84146304D01*
%TO.N,Net-(D20-Pad2)*%
X102359000Y-98301000D02*
X103378000Y-98301000D01*
X102108000Y-98552000D02*
X102359000Y-98301000D01*
X102108000Y-103886000D02*
X102108000Y-98552000D01*
X103754997Y-105532997D02*
X102108000Y-103886000D01*
X104870091Y-105532997D02*
X103754997Y-105532997D01*
%TO.N,Net-(D21-Pad2)*%
X107696000Y-97282000D02*
X106677000Y-98301000D01*
X107696000Y-89154000D02*
X107696000Y-97282000D01*
X108204000Y-88646000D02*
X107696000Y-89154000D01*
X111960715Y-88254711D02*
X111569426Y-88646000D01*
X111569426Y-88646000D02*
X108204000Y-88646000D01*
X113404091Y-88254711D02*
X111960715Y-88254711D01*
X106677000Y-98301000D02*
X105410000Y-98301000D01*
D22*
%TO.N,GND*%
X125349668Y-85993773D02*
X121793668Y-92152946D01*
X113623040Y-105888072D02*
X116911171Y-100192862D01*
X116163040Y-99030072D02*
X119451171Y-93334862D01*
X69850000Y-73152498D02*
X73406249Y-69596249D01*
X54552749Y-72375249D02*
X55357500Y-73180000D01*
X26416000Y-78232000D02*
X33782000Y-78232000D01*
X24638000Y-76454000D02*
X26416000Y-78232000D01*
X64262000Y-73406000D02*
X69850000Y-73406000D01*
X18288000Y-76454000D02*
X24638000Y-76454000D01*
X111760000Y-74957500D02*
X112357500Y-75555000D01*
X62484000Y-71628000D02*
X64262000Y-73406000D01*
X17357500Y-76930000D02*
X17357500Y-77930000D01*
X111760000Y-73914000D02*
X111760000Y-74957500D01*
X35306000Y-76878500D02*
X36357500Y-77930000D01*
X35306000Y-76708000D02*
X35306000Y-76878500D01*
X36322000Y-77894500D02*
X36357500Y-77930000D01*
X92647990Y-72470490D02*
X93357500Y-73180000D01*
X33782000Y-78232000D02*
X35306000Y-76708000D01*
X54552749Y-71824749D02*
X54749498Y-71628000D01*
X73406249Y-69596249D02*
X73406249Y-69853749D01*
X73406249Y-69853749D02*
X74357500Y-70805000D01*
X17833500Y-76454000D02*
X17357500Y-76930000D01*
X54749498Y-71628000D02*
X62484000Y-71628000D01*
X54552749Y-71824749D02*
X54552749Y-72375249D01*
X18288000Y-76454000D02*
X17833500Y-76454000D01*
X69850000Y-54102498D02*
X73406249Y-50546249D01*
X100267990Y-52769990D02*
X102108000Y-54610000D01*
X73660000Y-50292498D02*
X75184498Y-50292498D01*
X54552749Y-53325249D02*
X55357500Y-54130000D01*
X24638000Y-57404000D02*
X26416000Y-59182000D01*
X75184996Y-50292000D02*
X81534000Y-50292000D01*
X18288000Y-57404000D02*
X24638000Y-57404000D01*
X102362000Y-54864000D02*
X111760000Y-54864000D01*
X111760000Y-55907500D02*
X112357500Y-56505000D01*
X17357500Y-57880000D02*
X17357500Y-58880000D01*
X81534000Y-50292000D02*
X84011990Y-52769990D01*
X92647990Y-52769990D02*
X100267990Y-52769990D01*
X17018000Y-57404000D02*
X18288000Y-57404000D01*
X73406249Y-50546249D02*
X73660000Y-50292498D01*
X111760000Y-54864000D02*
X111760000Y-55907500D01*
X35306000Y-57828500D02*
X36357500Y-58880000D01*
X92647990Y-52769990D02*
X92647990Y-53420490D01*
X35306000Y-57658000D02*
X35306000Y-57828500D01*
X36322000Y-58844500D02*
X36357500Y-58880000D01*
X92647990Y-53420490D02*
X93357500Y-54130000D01*
X33782000Y-59182000D02*
X35306000Y-57658000D01*
X54552749Y-52774749D02*
X54749498Y-52578000D01*
X102108000Y-54610000D02*
X102362000Y-54864000D01*
X73406249Y-50546249D02*
X73406249Y-50803749D01*
X73406249Y-50803749D02*
X74357500Y-51755000D01*
X75184498Y-50292498D02*
X75184996Y-50292000D01*
X17833500Y-57404000D02*
X17357500Y-57880000D01*
X54749498Y-52578000D02*
X62484000Y-52578000D01*
X84011990Y-52769990D02*
X92647990Y-52769990D01*
X54552749Y-52774749D02*
X54552749Y-53325249D01*
X18288000Y-57404000D02*
X17833500Y-57404000D01*
X24638000Y-38354000D02*
X26416000Y-40132000D01*
X75184498Y-31242498D02*
X75184996Y-31242000D01*
X73660000Y-31242498D02*
X75184498Y-31242498D01*
X75184996Y-31242000D02*
X81534000Y-31242000D01*
X81534000Y-31242000D02*
X84011990Y-33719990D01*
D23*
X139883900Y-34482000D02*
X142423900Y-37022000D01*
X127203900Y-34482000D02*
X139883900Y-34482000D01*
D22*
X130007500Y-77305000D02*
X126721764Y-77305000D01*
X132307500Y-75005000D02*
X130007500Y-77305000D01*
X126721764Y-77305000D02*
X126297500Y-77305000D01*
X17357500Y-38830000D02*
X17357500Y-39830000D01*
X17833500Y-38354000D02*
X17357500Y-38830000D01*
X17018000Y-38354000D02*
X18288000Y-38354000D01*
X18288000Y-38354000D02*
X17833500Y-38354000D01*
X18288000Y-38354000D02*
X24638000Y-38354000D01*
X36322000Y-39794500D02*
X36357500Y-39830000D01*
X35306000Y-38778500D02*
X36357500Y-39830000D01*
X35306000Y-38608000D02*
X35306000Y-38778500D01*
X33782000Y-40132000D02*
X35306000Y-38608000D01*
X73406249Y-31753749D02*
X74357500Y-32705000D01*
X73406249Y-31496249D02*
X73406249Y-31753749D01*
X73406249Y-31496249D02*
X73660000Y-31242498D01*
X92647990Y-34370490D02*
X93357500Y-35080000D01*
X92647990Y-33719990D02*
X92647990Y-34370490D01*
X84011990Y-33719990D02*
X92647990Y-33719990D01*
X92647990Y-33719990D02*
X100267990Y-33719990D01*
X111760000Y-36857500D02*
X112357500Y-37455000D01*
X69850000Y-73152498D02*
X69850000Y-73406000D01*
X64008498Y-54102498D02*
X64008000Y-54102000D01*
X69850000Y-54102498D02*
X64008498Y-54102498D01*
X62484000Y-52578000D02*
X64008000Y-54102000D01*
X35560000Y-57404000D02*
X35306000Y-57658000D01*
X50292000Y-58928000D02*
X44704000Y-58928000D01*
X52324000Y-56896000D02*
X50292000Y-58928000D01*
X43180000Y-57404000D02*
X35560000Y-57404000D01*
X44704000Y-58928000D02*
X43180000Y-57404000D01*
X52324000Y-55003498D02*
X52324000Y-56896000D01*
X54552749Y-52774749D02*
X52324000Y-55003498D01*
X54749498Y-71628000D02*
X52832000Y-71628000D01*
X52197000Y-76327000D02*
X52197000Y-72263000D01*
X50546000Y-77978000D02*
X52197000Y-76327000D01*
X35560000Y-76454000D02*
X43180000Y-76454000D01*
X35306000Y-76708000D02*
X35560000Y-76454000D01*
X43180000Y-76454000D02*
X44704000Y-77978000D01*
X52832000Y-71628000D02*
X52197000Y-72263000D01*
X39797999Y-95330001D02*
X48687999Y-95330001D01*
X39797999Y-95444499D02*
X41233500Y-96880000D01*
X39797999Y-95330001D02*
X39797999Y-95444499D01*
X48687999Y-95330001D02*
X48848001Y-95330001D01*
X48848001Y-95330001D02*
X49530000Y-96012000D01*
X52832000Y-96012000D02*
X56388000Y-96012000D01*
X49530000Y-96012000D02*
X52832000Y-96012000D01*
X52832000Y-96012000D02*
X53086000Y-96012000D01*
X56388000Y-96012000D02*
X58674000Y-96012000D01*
X58674000Y-96012000D02*
X63782010Y-90903990D01*
X69821990Y-92191990D02*
X69894000Y-92264000D01*
X63782010Y-90903990D02*
X69821990Y-90903990D01*
X69821990Y-90903990D02*
X69821990Y-92191990D01*
X125873236Y-77305000D02*
X126297500Y-77305000D01*
X124357500Y-77305000D02*
X125641000Y-77305000D01*
X120966500Y-73914000D02*
X124357500Y-77305000D01*
X111760000Y-73914000D02*
X120966500Y-73914000D01*
X123803270Y-36805000D02*
X126126270Y-34482000D01*
X126126270Y-34482000D02*
X127203900Y-34482000D01*
X120650000Y-36068000D02*
X121387000Y-36805000D01*
X121387000Y-36805000D02*
X123803270Y-36805000D01*
X111760000Y-36068000D02*
X120650000Y-36068000D01*
X111760000Y-36068000D02*
X111760000Y-36857500D01*
X102362000Y-35814000D02*
X100267990Y-33719990D01*
X102362000Y-36068000D02*
X102362000Y-35814000D01*
X71755249Y-33147249D02*
X73406249Y-31496249D01*
X69850000Y-35052498D02*
X71755249Y-33147249D01*
X64262000Y-35052000D02*
X64261502Y-35052498D01*
X64261502Y-35052498D02*
X69850000Y-35052498D01*
X107942874Y-117228254D02*
X107653078Y-116146722D01*
X108480903Y-117538886D02*
X107942874Y-117228254D01*
X107653078Y-116146722D02*
X110941209Y-110451512D01*
X110941209Y-110451512D02*
X113370002Y-109800719D01*
X113370002Y-109800719D02*
X114132002Y-108480896D01*
X116397200Y-99903970D02*
X116163040Y-99030072D01*
X117014903Y-100260601D02*
X116397200Y-99903970D01*
X113623040Y-105888072D02*
X113668572Y-105888072D01*
X114132002Y-106351502D02*
X114132002Y-108480896D01*
X113668572Y-105888072D02*
X114132002Y-106351502D01*
X120570584Y-93334862D02*
X121752500Y-92152946D01*
X119451171Y-93334862D02*
X120570584Y-93334862D01*
X103378000Y-77216000D02*
X103378000Y-77216000D01*
X103378000Y-73914000D02*
X111760000Y-73914000D01*
X69850000Y-73406000D02*
X69850000Y-73406000D01*
X74626500Y-77724000D02*
X74657500Y-77755000D01*
X70104000Y-77724000D02*
X74626500Y-77724000D01*
X125641000Y-77305000D02*
X125873236Y-77305000D01*
X125641000Y-79413000D02*
X125641000Y-85702441D01*
X125349668Y-85993773D02*
X125641000Y-85702441D01*
X63782010Y-90903990D02*
X63782010Y-88674010D01*
X63782010Y-88674010D02*
X62738000Y-87630000D01*
X55657499Y-85883499D02*
X51562000Y-81788000D01*
X55657499Y-85883499D02*
X57404000Y-87630000D01*
X62738000Y-87630000D02*
X57404000Y-87630000D01*
X51562000Y-81788000D02*
X51562000Y-81788000D01*
X49022000Y-77978000D02*
X49022000Y-79248000D01*
X44704000Y-77978000D02*
X49022000Y-77978000D01*
X49022000Y-77978000D02*
X50546000Y-77978000D01*
X114097488Y-55094990D02*
X118848990Y-55094990D01*
X113866498Y-54864000D02*
X114097488Y-55094990D01*
X111760000Y-54864000D02*
X113866498Y-54864000D01*
X118848990Y-55094990D02*
X120118990Y-55094990D01*
X120118990Y-55094990D02*
X121412000Y-56388000D01*
X121412000Y-56388000D02*
X121412000Y-56388000D01*
X124714000Y-66040000D02*
X126746000Y-66040000D01*
X126746000Y-66040000D02*
X126746000Y-66040000D01*
X135492500Y-70104000D02*
X138568500Y-67028000D01*
X128524000Y-70104000D02*
X135492500Y-70104000D01*
X92647990Y-72470490D02*
X92647990Y-71628000D01*
X102616000Y-73914000D02*
X103378000Y-73914000D01*
X100330000Y-71628000D02*
X102616000Y-73914000D01*
X92647990Y-71628000D02*
X100330000Y-71628000D01*
X62738000Y-33732000D02*
X55372000Y-33732000D01*
X103378000Y-86868000D02*
X103378000Y-77216000D01*
X101341113Y-88904887D02*
X103378000Y-86868000D01*
X99821999Y-88904887D02*
X101341113Y-88904887D01*
X96012000Y-95504000D02*
X99821999Y-88904887D01*
X96727709Y-95504000D02*
X97375903Y-96152194D01*
X96012000Y-95504000D02*
X96727709Y-95504000D01*
X64261502Y-35052498D02*
X64008498Y-35052498D01*
X55372000Y-35065500D02*
X55357500Y-35080000D01*
X55372000Y-33782000D02*
X55372000Y-35065500D01*
X35560000Y-38354000D02*
X35306000Y-38608000D01*
X45662749Y-39312749D02*
X44704000Y-38354000D01*
X48571251Y-39312749D02*
X45662749Y-39312749D01*
X54102000Y-33782000D02*
X48571251Y-39312749D01*
X44704000Y-38354000D02*
X35560000Y-38354000D01*
X62738000Y-33782000D02*
X64008498Y-35052498D01*
X62738000Y-33732000D02*
X62738000Y-33782000D01*
X55372000Y-33782000D02*
X54102000Y-33782000D01*
X36657500Y-65880000D02*
X30828000Y-65880000D01*
X30828000Y-65880000D02*
X30480000Y-65532000D01*
X30480000Y-65532000D02*
X30480000Y-65532000D01*
X30480000Y-60198000D02*
X30480000Y-59436000D01*
X30480000Y-59436000D02*
X30734000Y-59182000D01*
X30734000Y-59182000D02*
X33782000Y-59182000D01*
X26416000Y-59182000D02*
X30734000Y-59182000D01*
X34180000Y-46880000D02*
X33528000Y-46228000D01*
X33528000Y-46228000D02*
X33528000Y-44196000D01*
X33274000Y-40132000D02*
X33782000Y-40132000D01*
X26416000Y-40132000D02*
X33274000Y-40132000D01*
X112657500Y-82505000D02*
X112223000Y-82505000D01*
X112223000Y-82505000D02*
X109982000Y-80264000D01*
X109982000Y-80264000D02*
X106426000Y-80264000D01*
X106426000Y-80264000D02*
X106426000Y-80264000D01*
X109982000Y-37338000D02*
X109982000Y-36068000D01*
X109982000Y-36068000D02*
X111760000Y-36068000D01*
X102362000Y-36068000D02*
X109982000Y-36068000D01*
X109529000Y-44505000D02*
X108966000Y-43942000D01*
X112657500Y-44505000D02*
X109529000Y-44505000D01*
X108966000Y-43942000D02*
X108966000Y-41402000D01*
X74657500Y-39755000D02*
X69727000Y-39755000D01*
X69727000Y-39755000D02*
X68580000Y-38608000D01*
X68580000Y-38608000D02*
X68580000Y-38608000D01*
X17764010Y-95519990D02*
X17357500Y-95926500D01*
X17357500Y-95926500D02*
X17357500Y-96880000D01*
X24653990Y-95519990D02*
X17764010Y-95519990D01*
X25908000Y-96774000D02*
X24653990Y-95519990D01*
X38354000Y-96774000D02*
X25908000Y-96774000D01*
X39797999Y-95330001D02*
X38354000Y-96774000D01*
X36657500Y-46880000D02*
X34180000Y-46880000D01*
X33528000Y-40386000D02*
X33782000Y-40132000D01*
X33528000Y-41148000D02*
X33528000Y-40386000D01*
X73660000Y-69342498D02*
X73406249Y-69596249D01*
X75184996Y-69342000D02*
X75184498Y-69342498D01*
X81534000Y-69342000D02*
X75184996Y-69342000D01*
X92647990Y-71628000D02*
X83820000Y-71628000D01*
X75184498Y-69342498D02*
X73660000Y-69342498D01*
X83820000Y-71628000D02*
X81534000Y-69342000D01*
X137287000Y-63754000D02*
X139573000Y-63754000D01*
X139573000Y-63754000D02*
X139700000Y-63754000D01*
X139700000Y-63754000D02*
X140843000Y-64897000D01*
X140843000Y-64897000D02*
X140843000Y-64897000D01*
X135492500Y-71820000D02*
X132307500Y-75005000D01*
X135492500Y-70104000D02*
X135492500Y-71820000D01*
X137834500Y-74162000D02*
X135492500Y-71820000D01*
X137834500Y-76392000D02*
X137834500Y-74162000D01*
%TO.N,VCC*%
X130175668Y-79897773D02*
X126619668Y-86056946D01*
X119348500Y-102170000D02*
X115792500Y-108329173D01*
X101384808Y-92210568D02*
X102895631Y-91805744D01*
X122809668Y-96153773D02*
X119253668Y-102312946D01*
X117857500Y-76960500D02*
X119212010Y-78315010D01*
X72136000Y-74676000D02*
X73246990Y-73565010D01*
X62230000Y-75946000D02*
X63500000Y-75946000D01*
X41857500Y-79280000D02*
X41857500Y-79703500D01*
X41857500Y-79703500D02*
X42844010Y-80690010D01*
X98964000Y-74580000D02*
X100324010Y-75940010D01*
X37096247Y-80690010D02*
X42844010Y-80690010D01*
X81185010Y-73565010D02*
X89567010Y-73565010D01*
X73246990Y-73565010D02*
X81185010Y-73565010D01*
X42844010Y-80690010D02*
X49357990Y-80690010D01*
X54102000Y-75946000D02*
X62230000Y-75946000D01*
X89567010Y-73565010D02*
X91942010Y-75940010D01*
X91942010Y-75940010D02*
X100324010Y-75940010D01*
X60864000Y-74580000D02*
X62230000Y-75946000D01*
X49357990Y-80690010D02*
X50927000Y-79121000D01*
X63500000Y-75946000D02*
X64770000Y-74676000D01*
X64770000Y-74676000D02*
X72136000Y-74676000D01*
X79857500Y-72237500D02*
X81185010Y-73565010D01*
X62230000Y-56896000D02*
X63500000Y-56896000D01*
X54102000Y-56896000D02*
X62230000Y-56896000D01*
X41857500Y-60653500D02*
X42844010Y-61640010D01*
X79857500Y-53187500D02*
X81185010Y-54515010D01*
X73246990Y-54515010D02*
X81185010Y-54515010D01*
X42844010Y-61640010D02*
X49357990Y-61640010D01*
X89567010Y-54515010D02*
X91942010Y-56890010D01*
X16764000Y-61722000D02*
X23622000Y-61722000D01*
X63500000Y-56896000D02*
X64770000Y-55626000D01*
X91942010Y-56890010D02*
X100324010Y-56890010D01*
X49357990Y-61640010D02*
X54102000Y-56896000D01*
X64770000Y-55626000D02*
X72136000Y-55626000D01*
X60864000Y-55530000D02*
X62230000Y-56896000D01*
X72136000Y-55626000D02*
X73246990Y-54515010D01*
X98964000Y-55530000D02*
X100324010Y-56890010D01*
X22857500Y-60957500D02*
X23622000Y-61722000D01*
X81185010Y-54515010D02*
X89567010Y-54515010D01*
X49357990Y-42590010D02*
X54102000Y-37846000D01*
X63500000Y-37846000D02*
X64770000Y-36576000D01*
X64770000Y-36576000D02*
X72136000Y-36576000D01*
X72136000Y-36576000D02*
X73246990Y-35465010D01*
X91942010Y-37840010D02*
X100324010Y-37840010D01*
X89567010Y-35465010D02*
X91942010Y-37840010D01*
X125483270Y-40205000D02*
X126126270Y-39562000D01*
X126126270Y-39562000D02*
X127203900Y-39562000D01*
X132084500Y-76392000D02*
X130271500Y-78205000D01*
X133834500Y-76392000D02*
X132084500Y-76392000D01*
X124607500Y-40205000D02*
X125483270Y-40205000D01*
X124657511Y-40605001D02*
X124957510Y-40905000D01*
X124607500Y-40554990D02*
X124657511Y-40605001D01*
X124607500Y-40205000D02*
X124607500Y-40554990D01*
X22857500Y-41907500D02*
X23622000Y-42672000D01*
X22857500Y-41230000D02*
X22857500Y-41907500D01*
X16764000Y-42672000D02*
X23622000Y-42672000D01*
X41857500Y-41230000D02*
X41857500Y-41603500D01*
X41857500Y-41603500D02*
X42844010Y-42590010D01*
X42844010Y-42590010D02*
X49357990Y-42590010D01*
X42647490Y-42590010D02*
X41557500Y-43680000D01*
X42844010Y-42590010D02*
X42647490Y-42590010D01*
X60864000Y-36480000D02*
X62230000Y-37846000D01*
X60857500Y-36480000D02*
X60864000Y-36480000D01*
X62230000Y-37846000D02*
X63500000Y-37846000D01*
X54102000Y-37846000D02*
X62230000Y-37846000D01*
X79857500Y-34105000D02*
X79857500Y-34137500D01*
X79857500Y-34137500D02*
X81185010Y-35465010D01*
X81185010Y-35465010D02*
X89567010Y-35465010D01*
X73246990Y-35465010D02*
X81185010Y-35465010D01*
X80095020Y-36555000D02*
X81185010Y-35465010D01*
X79557500Y-36555000D02*
X80095020Y-36555000D01*
X98964000Y-36480000D02*
X100324010Y-37840010D01*
X98857500Y-36480000D02*
X98964000Y-36480000D01*
X117857500Y-38855000D02*
X117857500Y-38860500D01*
X119212010Y-40215010D02*
X119296990Y-40215010D01*
X117857500Y-38860500D02*
X119212010Y-40215010D01*
X118647490Y-40215010D02*
X117557500Y-41305000D01*
X119296990Y-40215010D02*
X118647490Y-40215010D01*
X22857500Y-60957500D02*
X22857500Y-60230000D01*
X41857500Y-60230000D02*
X41857500Y-60653500D01*
X42597490Y-61640010D02*
X41557500Y-62680000D01*
X42844010Y-61640010D02*
X42597490Y-61640010D01*
X37096247Y-61640010D02*
X42844010Y-61640010D01*
X37014257Y-61722000D02*
X37096247Y-61640010D01*
X23622000Y-61722000D02*
X37014257Y-61722000D01*
X119296990Y-40215010D02*
X110065010Y-40215010D01*
X107701990Y-37851990D02*
X107701990Y-37840010D01*
X110065010Y-40215010D02*
X107701990Y-37851990D01*
X100324010Y-37840010D02*
X107701990Y-37840010D01*
X124597490Y-40215010D02*
X124607500Y-40205000D01*
X119296990Y-40215010D02*
X124597490Y-40215010D01*
X111335010Y-59265010D02*
X118280990Y-59265010D01*
X108960010Y-56890010D02*
X111335010Y-59265010D01*
X100324010Y-56890010D02*
X108960010Y-56890010D01*
D20*
X117857500Y-57910500D02*
X117856000Y-57912000D01*
X117857500Y-57855000D02*
X117857500Y-57910500D01*
X117857500Y-57855000D02*
X117856000Y-57912000D01*
D22*
X119380000Y-58166000D02*
X119634000Y-57912000D01*
X118280990Y-59265010D02*
X119380000Y-58166000D01*
X117914500Y-57912000D02*
X117857500Y-57855000D01*
X119634000Y-57912000D02*
X117914500Y-57912000D01*
X46733500Y-98803500D02*
X48006000Y-100076000D01*
X46733500Y-98280000D02*
X46733500Y-98803500D01*
X48006000Y-100076000D02*
X50292000Y-97790000D01*
X50292000Y-97790000D02*
X50800000Y-97282000D01*
X50800000Y-97282000D02*
X54864000Y-97282000D01*
X59182000Y-97282000D02*
X61439990Y-95024010D01*
X80547490Y-73565010D02*
X79557500Y-74555000D01*
X81185010Y-73565010D02*
X80547490Y-73565010D01*
X112443339Y-113475746D02*
X112788884Y-113675247D01*
X112788884Y-113675247D02*
X114299707Y-113270423D01*
X114299707Y-113270423D02*
X115188707Y-111730630D01*
X115188707Y-111730630D02*
X114723854Y-109995778D01*
X114723854Y-109995778D02*
X115231854Y-109115896D01*
X121506480Y-96502961D02*
X122809668Y-96153773D01*
X120977338Y-96197461D02*
X121506480Y-96502961D01*
X115231854Y-108889819D02*
X115792500Y-108329173D01*
X115231854Y-109115896D02*
X115231854Y-108889819D01*
X133834500Y-76392000D02*
X134234500Y-76392000D01*
X118547490Y-78315010D02*
X117557500Y-79305000D01*
X119212010Y-78315010D02*
X118547490Y-78315010D01*
X130271500Y-79801941D02*
X130175668Y-79897773D01*
X130271500Y-78205000D02*
X130271500Y-79801941D01*
X130161490Y-78315010D02*
X130271500Y-78205000D01*
X111335010Y-78315010D02*
X130161490Y-78315010D01*
X108960010Y-75940010D02*
X111335010Y-78315010D01*
X123063668Y-92152946D02*
X123063668Y-95899773D01*
X123063668Y-95899773D02*
X122809668Y-96153773D01*
X126619668Y-85993773D02*
X123063668Y-92152946D01*
X104648000Y-75946000D02*
X104653990Y-75940010D01*
X104648000Y-86830996D02*
X104648000Y-75946000D01*
X102895631Y-91805744D02*
X103784631Y-90265951D01*
X104653990Y-75940010D02*
X108960010Y-75940010D01*
X100324010Y-75940010D02*
X104653990Y-75940010D01*
X103784631Y-87694365D02*
X104648000Y-86830996D01*
X103784631Y-90265951D02*
X103784631Y-87694365D01*
X54864000Y-97282000D02*
X59182000Y-97282000D01*
X50927000Y-79121000D02*
X54102000Y-75946000D01*
X22857500Y-99057500D02*
X22857500Y-98280000D01*
X23876000Y-100076000D02*
X22857500Y-99057500D01*
X48006000Y-100076000D02*
X23876000Y-100076000D01*
X26162000Y-41910000D02*
X25400000Y-42672000D01*
X32766000Y-41910000D02*
X26162000Y-41910000D01*
X33446010Y-42590010D02*
X32766000Y-41910000D01*
X25400000Y-42672000D02*
X23622000Y-42672000D01*
X42844010Y-42590010D02*
X33446010Y-42590010D01*
X22857500Y-79230000D02*
X32748000Y-79230000D01*
X34208010Y-80690010D02*
X37096247Y-80690010D01*
X32748000Y-79230000D02*
X34208010Y-80690010D01*
X75394000Y-94285263D02*
X75394000Y-93664000D01*
X74655253Y-95024010D02*
X75394000Y-94285263D01*
X61439990Y-95024010D02*
X74655253Y-95024010D01*
D20*
%TO.N,col0*%
X13022500Y-71340000D02*
X13022500Y-74861500D01*
X13022500Y-52290000D02*
X13022500Y-55811500D01*
D21*
X127203900Y-42102000D02*
X124234502Y-45071398D01*
D20*
X13022500Y-33240000D02*
X13022500Y-33088500D01*
X13022500Y-33240000D02*
X13022500Y-36761500D01*
X13022500Y-36761500D02*
X13022500Y-36761500D01*
X13022500Y-47566500D02*
X13022500Y-52240000D01*
X13022500Y-90290000D02*
X13022500Y-88206500D01*
D21*
X124234502Y-47081431D02*
X124204000Y-47111933D01*
X124234502Y-45071398D02*
X124234502Y-47081431D01*
X124204000Y-47111933D02*
X124204000Y-53594000D01*
X124204000Y-53594000D02*
X124204000Y-55118000D01*
X124204000Y-55118000D02*
X124204000Y-55120000D01*
X124204000Y-55120000D02*
X120396000Y-58928000D01*
X120396000Y-58928000D02*
X119126000Y-60198000D01*
X119126000Y-60198000D02*
X112014000Y-60198000D01*
X112014000Y-60198000D02*
X111252000Y-60198000D01*
X111252000Y-60198000D02*
X110236000Y-59182000D01*
X110236000Y-59182000D02*
X109728000Y-58674000D01*
X109728000Y-58674000D02*
X109220000Y-58166000D01*
X109220000Y-58166000D02*
X108966000Y-57912000D01*
X108966000Y-57912000D02*
X108712000Y-57658000D01*
X108712000Y-57658000D02*
X104394000Y-57658000D01*
X104394000Y-57658000D02*
X95250000Y-57658000D01*
X95250000Y-57658000D02*
X93218000Y-57658000D01*
X93218000Y-57658000D02*
X92456000Y-57658000D01*
X92456000Y-57658000D02*
X91186000Y-57658000D01*
D20*
X13022500Y-64262000D02*
X13022500Y-64262000D01*
X13022500Y-64262000D02*
X13022500Y-71240000D01*
X13022500Y-64262000D02*
X33274000Y-64262000D01*
X50038000Y-62230000D02*
X48006000Y-64262000D01*
X65997500Y-58228000D02*
X65978000Y-58228000D01*
X65978000Y-58228000D02*
X64262000Y-59944000D01*
X51054000Y-62230000D02*
X50038000Y-62230000D01*
X53340000Y-59944000D02*
X51054000Y-62230000D01*
X74125500Y-56958000D02*
X67267500Y-56958000D01*
X89365500Y-56196000D02*
X74887500Y-56196000D01*
X67267500Y-56958000D02*
X65997500Y-58228000D01*
X90827500Y-57658000D02*
X89365500Y-56196000D01*
X64262000Y-59944000D02*
X53340000Y-59944000D01*
X74887500Y-56196000D02*
X74125500Y-56958000D01*
X48006000Y-64262000D02*
X44958000Y-64262000D01*
X91186000Y-57658000D02*
X90827500Y-57658000D01*
X33274000Y-64262000D02*
X34544000Y-64262000D01*
X13022500Y-88206500D02*
X13022500Y-87561500D01*
X13022500Y-87561500D02*
X13022500Y-87561500D01*
%TO.N,col1*%
X32072500Y-52290000D02*
X32072500Y-55811500D01*
X32072500Y-33240000D02*
X32072500Y-36761500D01*
X32072500Y-52190000D02*
X32022500Y-52240000D01*
X32072500Y-49461500D02*
X32072500Y-52190000D01*
X32072500Y-71190000D02*
X32022500Y-71240000D01*
X32072500Y-68003500D02*
X32072500Y-71190000D01*
D21*
X92456000Y-58166000D02*
X92336066Y-58166000D01*
X124688510Y-47157390D02*
X127203900Y-44642000D01*
X124658010Y-47299990D02*
X124688510Y-47269490D01*
X124658010Y-55427990D02*
X124658010Y-47299990D01*
X119380000Y-60706000D02*
X124658010Y-55427990D01*
X110998000Y-60706000D02*
X119380000Y-60706000D01*
X108458000Y-58166000D02*
X110998000Y-60706000D01*
X124688510Y-47269490D02*
X124688510Y-47157390D01*
X92456000Y-58166000D02*
X108458000Y-58166000D01*
X92456000Y-58166000D02*
X90932000Y-58166000D01*
D20*
X32004000Y-73406000D02*
X32022500Y-73387500D01*
X32004000Y-71258500D02*
X32022500Y-71240000D01*
X32004000Y-73406000D02*
X32004000Y-71258500D01*
X36898500Y-86428500D02*
X36830000Y-86360000D01*
X36898500Y-90290000D02*
X36898500Y-86428500D01*
X35306000Y-65024000D02*
X32766000Y-65024000D01*
X48006000Y-65024000D02*
X43688000Y-65024000D01*
X53532000Y-60514000D02*
X51308000Y-62738000D01*
X51308000Y-62738000D02*
X50292000Y-62738000D01*
X89111500Y-56704000D02*
X75141500Y-56704000D01*
X65216000Y-60514000D02*
X53532000Y-60514000D01*
X74360000Y-57466000D02*
X74168000Y-57658000D01*
X90932000Y-58166000D02*
X90573500Y-58166000D01*
X74379500Y-57466000D02*
X74360000Y-57466000D01*
X74168000Y-57658000D02*
X68072000Y-57658000D01*
X68072000Y-57658000D02*
X65216000Y-60514000D01*
X50292000Y-62738000D02*
X48006000Y-65024000D01*
X90573500Y-58166000D02*
X89111500Y-56704000D01*
X75141500Y-56704000D02*
X74379500Y-57466000D01*
%TO.N,col2*%
X51122500Y-47464000D02*
X51122500Y-50985500D01*
X51122500Y-28414000D02*
X51122500Y-31935500D01*
X51122500Y-47390000D02*
X51022500Y-47490000D01*
X51122500Y-45397500D02*
X51122500Y-47390000D01*
X51122500Y-66390000D02*
X51022500Y-66490000D01*
X51122500Y-64193500D02*
X51122500Y-66390000D01*
D21*
X108218133Y-58674000D02*
X90424000Y-58674000D01*
X110714108Y-61169975D02*
X108218133Y-58674000D01*
X119675805Y-61169975D02*
X110714108Y-61169975D01*
X125142521Y-55703259D02*
X119675805Y-61169975D01*
X125142521Y-49243379D02*
X125142521Y-55703259D01*
X127203900Y-47182000D02*
X125142521Y-49243379D01*
D20*
X51022500Y-66490000D02*
X51022500Y-75660500D01*
X51022500Y-75660500D02*
X51022500Y-75660500D01*
X65559000Y-79275000D02*
X65559000Y-85598000D01*
X64262000Y-77978000D02*
X65559000Y-79275000D01*
X64262000Y-77978000D02*
X60706000Y-77978000D01*
D21*
X87822000Y-57212000D02*
X75649500Y-57212000D01*
X72898000Y-58166000D02*
X68983500Y-58166000D01*
D20*
X72898000Y-58166000D02*
X74571500Y-58166000D01*
X90424000Y-58674000D02*
X90319500Y-58674000D01*
X90319500Y-58674000D02*
X89365500Y-57720000D01*
X89365500Y-57720000D02*
X88857500Y-57212000D01*
X87822000Y-57212000D02*
X88857500Y-57212000D01*
X75525500Y-57212000D02*
X74571500Y-58166000D01*
X75649500Y-57212000D02*
X75525500Y-57212000D01*
X65235500Y-61276000D02*
X68345500Y-58166000D01*
X68345500Y-58166000D02*
X68983500Y-58166000D01*
X53916500Y-61276000D02*
X65235500Y-61276000D01*
%TO.N,col3*%
X70172500Y-45178000D02*
X70172500Y-48699500D01*
X70172500Y-26128000D02*
X70172500Y-29649500D01*
X70172500Y-44965000D02*
X70022500Y-45115000D01*
X70172500Y-42095500D02*
X70172500Y-44965000D01*
X70172500Y-63965000D02*
X70022500Y-64115000D01*
X70172500Y-61145500D02*
X70172500Y-63965000D01*
D21*
X71120000Y-58928000D02*
X71120000Y-58928000D01*
X73914000Y-58928000D02*
X71120000Y-58928000D01*
X108084067Y-59182000D02*
X89916000Y-59182000D01*
X119863862Y-61623986D02*
X110526052Y-61623985D01*
X125596532Y-55891316D02*
X119863862Y-61623986D01*
X110526052Y-61623985D02*
X108084067Y-59182000D01*
X125596532Y-51329368D02*
X125596532Y-55891316D01*
X127203900Y-49722000D02*
X125596532Y-51329368D01*
X87079500Y-57720000D02*
X76157500Y-57720000D01*
D20*
X88454000Y-57720000D02*
X89916000Y-59182000D01*
X87079500Y-57720000D02*
X88454000Y-57720000D01*
X75203500Y-58674000D02*
X76157500Y-57720000D01*
X89501295Y-96611414D02*
X86614000Y-93724119D01*
X70022500Y-64115000D02*
X70022500Y-71201500D01*
X70022500Y-71201500D02*
X68834000Y-72390000D01*
X68834000Y-72390000D02*
X68834000Y-72390000D01*
X86614000Y-93724119D02*
X86614000Y-87630000D01*
X86614000Y-87630000D02*
X86614000Y-87122000D01*
X86614000Y-87122000D02*
X83058000Y-83566000D01*
X83058000Y-83566000D02*
X83058000Y-83566000D01*
X74949500Y-58928000D02*
X75203500Y-58674000D01*
X73914000Y-58928000D02*
X74949500Y-58928000D01*
%TO.N,col4*%
X89222500Y-61790500D02*
X89222500Y-66464000D01*
X89222500Y-47464000D02*
X89222500Y-50985500D01*
X88968500Y-42740500D02*
X88968500Y-47414000D01*
X88968500Y-28414000D02*
X88968500Y-31935500D01*
D21*
X110365000Y-62105000D02*
X107950000Y-59690000D01*
X120024919Y-62105000D02*
X110365000Y-62105000D01*
X107950000Y-59690000D02*
X90678000Y-59690000D01*
X126050543Y-56079376D02*
X120024919Y-62105000D01*
X90678000Y-59690000D02*
X90170000Y-60198000D01*
X126050543Y-53415357D02*
X126050543Y-56079376D01*
X127203900Y-52262000D02*
X126050543Y-53415357D01*
D20*
X89022500Y-66490000D02*
X89022500Y-70489500D01*
X89022500Y-70489500D02*
X89022500Y-70489500D01*
X99568000Y-102108000D02*
X96520000Y-99060000D01*
X96520000Y-99060000D02*
X94488000Y-97028000D01*
X94488000Y-97028000D02*
X94488000Y-94488000D01*
X94488000Y-94488000D02*
X94470874Y-94488000D01*
X89022500Y-89039626D02*
X89145437Y-89162563D01*
X89022500Y-83434500D02*
X89022500Y-89039626D01*
X94470874Y-94488000D02*
X89145437Y-89162563D01*
X99568000Y-107950000D02*
X99568000Y-107823000D01*
X99568000Y-107823000D02*
X99568000Y-102108000D01*
X99568000Y-107823000D02*
X99568000Y-116959812D01*
X99568000Y-116959812D02*
X99571594Y-116963406D01*
X100606295Y-117998107D02*
X99571594Y-116963406D01*
%TO.N,col5*%
X108018500Y-50004000D02*
X108018500Y-53525500D01*
D21*
X127203900Y-55597053D02*
X120195953Y-62605000D01*
X127203900Y-54802000D02*
X127203900Y-55597053D01*
D20*
X108022500Y-49865000D02*
X108022500Y-49602500D01*
X108018500Y-49861000D02*
X108022500Y-49865000D01*
X108018500Y-46921500D02*
X108018500Y-49861000D01*
X108018500Y-30869000D02*
X108022500Y-30865000D01*
X108018500Y-32951500D02*
X107950000Y-33020000D01*
X108018500Y-34036000D02*
X108018500Y-32951500D01*
X108018500Y-32951500D02*
X108018500Y-30869000D01*
D21*
X120195953Y-62605000D02*
X111131000Y-62605000D01*
D20*
X108018500Y-69004000D02*
X108018500Y-64330500D01*
X108018500Y-64330500D02*
X108018500Y-62738000D01*
X108022500Y-68865000D02*
X108022500Y-72571500D01*
X108151500Y-62605000D02*
X108018500Y-62738000D01*
X111131000Y-62605000D02*
X108151500Y-62605000D01*
X108022500Y-72571500D02*
X108022500Y-72571500D01*
X109140295Y-100719821D02*
X108458000Y-100037526D01*
X108458000Y-100037526D02*
X108458000Y-89662000D01*
X108458000Y-89662000D02*
X108458000Y-89662000D01*
%TO.N,LED*%
X112657500Y-41305000D02*
X111349000Y-41305000D01*
X111349000Y-41305000D02*
X111095000Y-41305000D01*
X111095000Y-41305000D02*
X111095000Y-41305000D01*
X124333000Y-35052000D02*
X126238000Y-33147000D01*
X128270000Y-33147000D02*
X128524000Y-33147000D01*
X126238000Y-33147000D02*
X128270000Y-33147000D01*
X128524000Y-33147000D02*
X128905000Y-32766000D01*
X141599900Y-32766000D02*
X142423900Y-31942000D01*
X128905000Y-32766000D02*
X141599900Y-32766000D01*
%TO.N,Net-(D22-Pad2)*%
X282456500Y-32242000D02*
X284214500Y-34000000D01*
X282456500Y-30695000D02*
X282456500Y-32242000D01*
%TO.N,row0_r*%
X169598900Y-47152000D02*
X170485900Y-46265000D01*
X227214500Y-30425000D02*
X227639000Y-30425000D01*
X227639000Y-30425000D02*
X228854000Y-29210000D01*
X189864000Y-35180000D02*
X189207500Y-35180000D01*
X246214500Y-32292000D02*
X246346000Y-32292000D01*
X190500000Y-34544000D02*
X189864000Y-35180000D01*
X190500000Y-26085197D02*
X190500000Y-34544000D01*
X208246000Y-32800000D02*
X209296000Y-31750000D01*
X208214500Y-32800000D02*
X208246000Y-32800000D01*
X228854000Y-24130000D02*
X229362000Y-23622000D01*
X228854000Y-29210000D02*
X228854000Y-24130000D01*
X175007872Y-27022522D02*
X175945197Y-26085197D01*
X175006000Y-27022522D02*
X175007872Y-27022522D01*
X190500000Y-26085197D02*
X175945197Y-26085197D01*
X170485900Y-46265000D02*
X172175000Y-46265000D01*
X172175000Y-46265000D02*
X172974000Y-45466000D01*
X172388261Y-29640261D02*
X175006000Y-27022522D01*
X171704000Y-30324522D02*
X172388261Y-29640261D01*
X171704000Y-33782000D02*
X171704000Y-30324522D01*
X172974000Y-35052000D02*
X171704000Y-33782000D01*
X172974000Y-45466000D02*
X172974000Y-42860000D01*
X266562500Y-37018000D02*
X266562500Y-30160000D01*
X266030500Y-37550000D02*
X266562500Y-37018000D01*
X265214500Y-37550000D02*
X266030500Y-37550000D01*
X248158000Y-28702000D02*
X264972500Y-28702000D01*
X246637000Y-32509000D02*
X248158000Y-30988000D01*
X248158000Y-30988000D02*
X248158000Y-28702000D01*
X246214500Y-32509000D02*
X246637000Y-32509000D01*
X246634000Y-24384000D02*
X245872000Y-23622000D01*
X246634000Y-27178000D02*
X246634000Y-24384000D01*
X248158000Y-28702000D02*
X246634000Y-27178000D01*
X245872000Y-23622000D02*
X229362000Y-23622000D01*
X282236000Y-37550000D02*
X282236000Y-37550000D01*
X280755000Y-37550000D02*
X279527000Y-36322000D01*
X279527000Y-36322000D02*
X279527000Y-34671000D01*
X284214500Y-37550000D02*
X280755000Y-37550000D01*
X266562500Y-30160000D02*
X275016000Y-30160000D01*
X275016000Y-30160000D02*
X275209000Y-30353000D01*
X279527000Y-34671000D02*
X275209000Y-30353000D01*
X266562500Y-30160000D02*
X266562500Y-30088500D01*
X265176000Y-28702000D02*
X264972500Y-28702000D01*
X266562500Y-30088500D02*
X265176000Y-28702000D01*
X203708000Y-32004000D02*
X204504000Y-32800000D01*
X203708000Y-30099000D02*
X203708000Y-32004000D01*
X199694197Y-26085197D02*
X203708000Y-30099000D01*
X204504000Y-32800000D02*
X208214500Y-32800000D01*
X190500000Y-26085197D02*
X199694197Y-26085197D01*
X209296000Y-31750000D02*
X209296000Y-24638000D01*
X209296000Y-24638000D02*
X210566000Y-23368000D01*
X210566000Y-23368000D02*
X210693000Y-23495000D01*
X210693000Y-23495000D02*
X218694000Y-23495000D01*
X218694000Y-23495000D02*
X222758000Y-27559000D01*
X222758000Y-27559000D02*
X222758000Y-29464000D01*
X223719000Y-30425000D02*
X227214500Y-30425000D01*
X222758000Y-29464000D02*
X223719000Y-30425000D01*
%TO.N,Net-(D23-Pad2)*%
X263456500Y-32242000D02*
X265214500Y-34000000D01*
X263456500Y-30695000D02*
X263456500Y-32242000D01*
%TO.N,Net-(D24-Pad2)*%
X244456500Y-27201000D02*
X246214500Y-28959000D01*
X244456500Y-25945000D02*
X244456500Y-27201000D01*
%TO.N,Net-(D25-Pad2)*%
X225456500Y-25117000D02*
X227214500Y-26875000D01*
X225456500Y-23570000D02*
X225456500Y-25117000D01*
%TO.N,Net-(D26-Pad2)*%
X206456500Y-27492000D02*
X208214500Y-29250000D01*
X206456500Y-25945000D02*
X206456500Y-27492000D01*
%TO.N,Net-(D27-Pad2)*%
X187449500Y-29872000D02*
X189207500Y-31630000D01*
X187449500Y-28325000D02*
X187449500Y-29872000D01*
%TO.N,row1_r*%
X169990500Y-49692000D02*
X172527500Y-47155000D01*
X169598900Y-49692000D02*
X169990500Y-49692000D01*
X172527500Y-47155000D02*
X172559500Y-47155000D01*
X172559500Y-47155000D02*
X173598500Y-46116000D01*
X173598500Y-45323498D02*
X174537998Y-44384000D01*
X173598500Y-46116000D02*
X173598500Y-45323498D01*
X174537998Y-44384000D02*
X176900500Y-44384000D01*
X176900500Y-44384000D02*
X177662500Y-43622000D01*
X177662500Y-43622000D02*
X177662500Y-43622000D01*
X212968500Y-38796000D02*
X215508500Y-38796000D01*
X215508500Y-38796000D02*
X215508500Y-38796000D01*
X225922500Y-38796000D02*
X229224500Y-42098000D01*
X229224500Y-42098000D02*
X233542500Y-42098000D01*
X233542500Y-42098000D02*
X234304500Y-42860000D01*
X234304500Y-42860000D02*
X246496500Y-42860000D01*
X246496500Y-42860000D02*
X249544500Y-45908000D01*
X227214500Y-49425000D02*
X227485500Y-49425000D01*
X229224500Y-47686000D02*
X229224500Y-42098000D01*
X227485500Y-49425000D02*
X229224500Y-47686000D01*
X246214500Y-51800000D02*
X247208500Y-51800000D01*
X249544500Y-49464000D02*
X249544500Y-45908000D01*
X247208500Y-51800000D02*
X249544500Y-49464000D01*
X268086500Y-48956000D02*
X269356500Y-47686000D01*
X266816500Y-48956000D02*
X268086500Y-48956000D01*
X266816500Y-55560000D02*
X266816500Y-48956000D01*
X265826500Y-56550000D02*
X266816500Y-55560000D01*
X265214500Y-56550000D02*
X265826500Y-56550000D01*
X266816500Y-48956000D02*
X266308500Y-48956000D01*
X266308500Y-48956000D02*
X263260500Y-45908000D01*
X263260500Y-45908000D02*
X262498500Y-45908000D01*
X262498500Y-45908000D02*
X262498500Y-45908000D01*
X208214500Y-51800000D02*
X208600500Y-51800000D01*
X209666500Y-50734000D02*
X209666500Y-42098000D01*
X208600500Y-51800000D02*
X209666500Y-50734000D01*
X209666500Y-42098000D02*
X212968500Y-38796000D01*
X251576500Y-45908000D02*
X249544500Y-45908000D01*
X251576500Y-45908000D02*
X253354500Y-45908000D01*
X185928000Y-43180000D02*
X185862000Y-43114000D01*
X188214000Y-43180000D02*
X185928000Y-43180000D01*
X190754000Y-45720000D02*
X188214000Y-43180000D01*
X208904500Y-42860000D02*
X209666500Y-42098000D01*
X193958998Y-42860000D02*
X208904500Y-42860000D01*
X191098998Y-45720000D02*
X193958998Y-42860000D01*
X190754000Y-45720000D02*
X191098998Y-45720000D01*
X189487000Y-53845000D02*
X190754000Y-52578000D01*
X190754000Y-52578000D02*
X190754000Y-45720000D01*
X189207500Y-53845000D02*
X189487000Y-53845000D01*
X281432498Y-56400000D02*
X281420498Y-56388000D01*
X284214500Y-56400000D02*
X281432498Y-56400000D01*
X281420498Y-56388000D02*
X280797000Y-56388000D01*
X280797000Y-56388000D02*
X279908000Y-55499000D01*
X279908000Y-55499000D02*
X279908000Y-53721000D01*
X273873000Y-47686000D02*
X279908000Y-53721000D01*
X269356500Y-47686000D02*
X273873000Y-47686000D01*
%TO.N,Net-(D28-Pad2)*%
X282456500Y-51092000D02*
X284214500Y-52850000D01*
X282456500Y-49695000D02*
X282456500Y-51092000D01*
%TO.N,Net-(D29-Pad2)*%
X263456500Y-51242000D02*
X265214500Y-53000000D01*
X263456500Y-49695000D02*
X263456500Y-51242000D01*
%TO.N,Net-(D30-Pad2)*%
X244456500Y-46492000D02*
X246214500Y-48250000D01*
X244456500Y-44945000D02*
X244456500Y-46492000D01*
%TO.N,Net-(D31-Pad2)*%
X225456500Y-44117000D02*
X227214500Y-45875000D01*
X225456500Y-42570000D02*
X225456500Y-44117000D01*
%TO.N,Net-(D32-Pad2)*%
X206456500Y-46492000D02*
X208214500Y-48250000D01*
X206456500Y-44945000D02*
X206456500Y-46492000D01*
%TO.N,Net-(D33-Pad2)*%
X187456500Y-48544000D02*
X189207500Y-50295000D01*
X187456500Y-47320000D02*
X187456500Y-48544000D01*
%TO.N,row2_r*%
X266816500Y-65974000D02*
X266816500Y-74610000D01*
X265876500Y-75550000D02*
X265214500Y-75550000D01*
X266816500Y-74610000D02*
X265876500Y-75550000D01*
X266816500Y-65974000D02*
X263514500Y-65974000D01*
X263514500Y-65974000D02*
X262244500Y-64704000D01*
X262244500Y-64704000D02*
X262244500Y-64704000D01*
X247258500Y-70800000D02*
X249290500Y-68768000D01*
X246214500Y-70800000D02*
X247258500Y-70800000D01*
X232780500Y-62926000D02*
X232780500Y-62926000D01*
X227214500Y-68425000D02*
X228043500Y-68425000D01*
X228043500Y-68425000D02*
X228716500Y-67752000D01*
X228716500Y-67752000D02*
X228716500Y-64450000D01*
X232272500Y-63434000D02*
X232272500Y-63942000D01*
X234050500Y-61656000D02*
X232272500Y-63434000D01*
X246496500Y-62164000D02*
X245988500Y-61656000D01*
X246496500Y-65212000D02*
X246496500Y-62164000D01*
X245988500Y-61656000D02*
X234050500Y-61656000D01*
X249290500Y-68006000D02*
X246496500Y-65212000D01*
X249290500Y-68768000D02*
X249290500Y-68006000D01*
X228716500Y-64450000D02*
X228716500Y-63942000D01*
X228716500Y-63942000D02*
X228716500Y-63942000D01*
X208214500Y-70800000D02*
X208396500Y-70800000D01*
X208396500Y-70800000D02*
X209666500Y-69530000D01*
X209666500Y-69530000D02*
X209666500Y-61910000D01*
X209666500Y-61910000D02*
X195442500Y-61910000D01*
X189207500Y-73180000D02*
X189207500Y-72971000D01*
X209666500Y-61910000D02*
X211444500Y-61910000D01*
X211444500Y-61910000D02*
X211444500Y-61910000D01*
X213222500Y-61910000D02*
X213222500Y-61910000D01*
X228716500Y-61402000D02*
X228716500Y-63942000D01*
X226684500Y-59370000D02*
X228716500Y-61402000D01*
X215762500Y-59370000D02*
X226684500Y-59370000D01*
X213222500Y-61910000D02*
X215762500Y-59370000D01*
X170747500Y-52985000D02*
X170747500Y-54033090D01*
X169994500Y-52232000D02*
X170747500Y-52985000D01*
X169598900Y-52232000D02*
X169994500Y-52232000D01*
X184404000Y-60198000D02*
X184404000Y-60198000D01*
X176912410Y-60198000D02*
X176848205Y-60133795D01*
X184404000Y-60198000D02*
X176912410Y-60198000D01*
X170747500Y-54033090D02*
X176848205Y-60133795D01*
X194426500Y-61910000D02*
X195442500Y-61910000D01*
X189506500Y-73180000D02*
X189207500Y-73180000D01*
X190870500Y-71816000D02*
X189506500Y-73180000D01*
X190870500Y-61910000D02*
X190870500Y-71816000D01*
X279781000Y-74930000D02*
X280401000Y-75550000D01*
X280401000Y-75550000D02*
X284214500Y-75550000D01*
X279781000Y-72517000D02*
X279781000Y-74930000D01*
X273238000Y-65974000D02*
X279781000Y-72517000D01*
X266816500Y-65974000D02*
X273238000Y-65974000D01*
%TO.N,Net-(D34-Pad2)*%
X282456500Y-70242000D02*
X284214500Y-72000000D01*
X282456500Y-68695000D02*
X282456500Y-70242000D01*
%TO.N,Net-(D35-Pad2)*%
X263456500Y-70242000D02*
X265214500Y-72000000D01*
X263456500Y-68695000D02*
X263456500Y-70242000D01*
%TO.N,Net-(D36-Pad2)*%
X244456500Y-65492000D02*
X246214500Y-67250000D01*
X244456500Y-63945000D02*
X244456500Y-65492000D01*
%TO.N,Net-(D37-Pad2)*%
X225456500Y-63117000D02*
X227214500Y-64875000D01*
X225456500Y-61570000D02*
X225456500Y-63117000D01*
%TO.N,Net-(D38-Pad2)*%
X206456500Y-65492000D02*
X208214500Y-67250000D01*
X206456500Y-63945000D02*
X206456500Y-65492000D01*
%TO.N,Net-(D39-Pad2)*%
X187456500Y-67879000D02*
X189207500Y-69630000D01*
X187456500Y-66320000D02*
X187456500Y-67879000D01*
%TO.N,Net-(D40-Pad2)*%
X208863412Y-94264944D02*
X210312000Y-92816356D01*
X210312000Y-92816356D02*
X210312000Y-90424000D01*
X210312000Y-90424000D02*
X210312000Y-90424000D01*
X201422000Y-81788000D02*
X201422000Y-81788000D01*
X204216000Y-81788000D02*
X209042000Y-81788000D01*
X209042000Y-81788000D02*
X209296000Y-81788000D01*
X210312000Y-82804000D02*
X209296000Y-81788000D01*
X210312000Y-85852000D02*
X210312000Y-82804000D01*
X197358000Y-81788000D02*
X201422000Y-81788000D01*
X196342000Y-82804000D02*
X197358000Y-81788000D01*
X196342000Y-84331000D02*
X196342000Y-82804000D01*
%TO.N,row3_r*%
X262498500Y-93152000D02*
X261165500Y-94485000D01*
X262498500Y-84770000D02*
X262498500Y-93152000D01*
X267324500Y-85786000D02*
X266308500Y-84770000D01*
X261165500Y-94485000D02*
X260350000Y-94485000D01*
X278781502Y-85786000D02*
X267324500Y-85786000D01*
X280455050Y-87459548D02*
X278781502Y-85786000D01*
X231684500Y-89902000D02*
X232170000Y-89902000D01*
X232170000Y-89902000D02*
X233172000Y-88900000D01*
X233172000Y-88900000D02*
X233172000Y-83820000D01*
X231648000Y-82296000D02*
X231648000Y-79248000D01*
X233172000Y-83820000D02*
X231648000Y-82296000D01*
X183642000Y-60960000D02*
X183642000Y-60960000D01*
X176530000Y-60960000D02*
X183642000Y-60960000D01*
X170342000Y-54772000D02*
X176530000Y-60960000D01*
X169598900Y-54772000D02*
X170342000Y-54772000D01*
X231648000Y-79248000D02*
X211074000Y-79248000D01*
X211074000Y-79248000D02*
X210820000Y-79248000D01*
X195072000Y-79248000D02*
X195072000Y-79248000D01*
X196088000Y-79248000D02*
X195072000Y-79248000D01*
X211074000Y-79248000D02*
X196088000Y-79248000D01*
X266308500Y-84770000D02*
X262498500Y-84770000D01*
X193802000Y-103121000D02*
X195834000Y-103121000D01*
X187706000Y-103124000D02*
X187709000Y-103121000D01*
X186944000Y-102362000D02*
X187706000Y-103124000D01*
X186944000Y-99060000D02*
X186944000Y-102362000D01*
X185420000Y-97536000D02*
X186944000Y-99060000D01*
X187709000Y-103121000D02*
X193802000Y-103121000D01*
X196342000Y-87881000D02*
X194561000Y-87881000D01*
X195072000Y-79248000D02*
X194564000Y-79248000D01*
X194564000Y-79248000D02*
X192278000Y-79248000D01*
X194564000Y-82804000D02*
X194564000Y-79248000D01*
X194564000Y-85344000D02*
X194564000Y-82804000D01*
X280455050Y-89368950D02*
X280455050Y-89368950D01*
X280455050Y-87459548D02*
X280455050Y-89368950D01*
X282777100Y-93977000D02*
X280455050Y-91654950D01*
X283210000Y-93977000D02*
X282777100Y-93977000D01*
X250444000Y-79248000D02*
X254000000Y-82804000D01*
X231648000Y-79248000D02*
X250444000Y-79248000D01*
X255966000Y-84770000D02*
X254000000Y-82804000D01*
X262498500Y-84770000D02*
X255966000Y-84770000D01*
X185420000Y-93980000D02*
X186182000Y-93218000D01*
X185420000Y-93980000D02*
X185420000Y-97536000D01*
X186182000Y-93218000D02*
X191262000Y-93218000D01*
X194561000Y-89919000D02*
X194561000Y-87881000D01*
X191262000Y-93218000D02*
X194561000Y-89919000D01*
X194561000Y-85347000D02*
X194564000Y-85344000D01*
X194561000Y-87881000D02*
X194561000Y-85347000D01*
%TO.N,Net-(D41-Pad2)*%
X197104000Y-100076000D02*
X197104000Y-109728000D01*
X197104000Y-109728000D02*
X198374000Y-110998000D01*
X198374000Y-115011520D02*
X197733883Y-115651637D01*
X198374000Y-110998000D02*
X198374000Y-115011520D01*
X196599000Y-99571000D02*
X197104000Y-100076000D01*
X195834000Y-99571000D02*
X196599000Y-99571000D01*
%TO.N,Net-(D42-Pad2)*%
X190422378Y-99571000D02*
X189224729Y-98373351D01*
X193802000Y-99571000D02*
X190422378Y-99571000D01*
%TO.N,LED_r*%
X179157500Y-41305000D02*
X175853500Y-41305000D01*
X175853500Y-41305000D02*
X175417000Y-41305000D01*
X175417000Y-41305000D02*
X175417000Y-41305000D01*
%TO.N,col0_r*%
X269562500Y-71086000D02*
X269562500Y-74607500D01*
X269562500Y-74607500D02*
X269562500Y-74607500D01*
X269562500Y-52290000D02*
X269562500Y-55811500D01*
X269562500Y-55811500D02*
X269562500Y-55811500D01*
X269562500Y-33240000D02*
X269562500Y-36761500D01*
X269562500Y-36761500D02*
X269562500Y-36761500D01*
X264703500Y-90017500D02*
X264736500Y-89984500D01*
X264703500Y-90285000D02*
X264703500Y-90017500D01*
X264736500Y-89984500D02*
X264736500Y-90086000D01*
X264736500Y-85412500D02*
X264736500Y-89984500D01*
X269529500Y-71084500D02*
X269562500Y-71051500D01*
X269529500Y-71235000D02*
X269529500Y-71084500D01*
X269562500Y-71051500D02*
X269562500Y-71290000D01*
X269562500Y-66616500D02*
X269562500Y-71051500D01*
X269529500Y-51917500D02*
X269562500Y-51884500D01*
X269529500Y-52235000D02*
X269529500Y-51917500D01*
X269562500Y-51884500D02*
X269562500Y-52240000D01*
X269529500Y-49243000D02*
X269562500Y-49210000D01*
X269529500Y-52235000D02*
X269529500Y-49243000D01*
D21*
X154450500Y-42073000D02*
X154383900Y-42073000D01*
X164172444Y-61674944D02*
X157567501Y-55070001D01*
X187452000Y-58674000D02*
X184451056Y-61674944D01*
X157567501Y-55070001D02*
X157567501Y-45190001D01*
X193548000Y-58674000D02*
X187452000Y-58674000D01*
X212852000Y-56388000D02*
X206756000Y-56388000D01*
X233934000Y-57658000D02*
X231648000Y-55372000D01*
X252156000Y-61148000D02*
X250444000Y-59436000D01*
X213868000Y-55372000D02*
X212852000Y-56388000D01*
X250444000Y-59436000D02*
X246634000Y-59436000D01*
X244856000Y-57658000D02*
X233934000Y-57658000D01*
X231648000Y-55372000D02*
X213868000Y-55372000D01*
X206756000Y-56388000D02*
X205486000Y-57658000D01*
X157567501Y-45190001D02*
X154450500Y-42073000D01*
X184451056Y-61674944D02*
X164172444Y-61674944D01*
X246634000Y-59436000D02*
X244856000Y-57658000D01*
X205486000Y-57658000D02*
X194564000Y-57658000D01*
X194564000Y-57658000D02*
X193548000Y-58674000D01*
D20*
X252222000Y-62230000D02*
X252222000Y-61214000D01*
X252222000Y-61214000D02*
X252156000Y-61148000D01*
%TO.N,col1_r*%
X250512500Y-71086000D02*
X250512500Y-74607500D01*
X250512500Y-66616500D02*
X250512500Y-71051500D01*
X250512500Y-47566500D02*
X250512500Y-51884500D01*
X250512500Y-52290000D02*
X250512500Y-55811500D01*
X250512500Y-51884500D02*
X250512500Y-52240000D01*
X250479500Y-52235000D02*
X250479500Y-51917500D01*
X250512500Y-33240000D02*
X250512500Y-36761500D01*
D21*
X157113491Y-47342591D02*
X157113491Y-55288059D01*
X163954387Y-62128955D02*
X172365167Y-62128955D01*
X154383900Y-44613000D02*
X157113491Y-47342591D01*
X157113491Y-55288059D02*
X163954387Y-62128955D01*
X172365167Y-62128955D02*
X184759045Y-62128955D01*
X184759045Y-62128955D02*
X187706000Y-59182000D01*
X187706000Y-59182000D02*
X191008000Y-59182000D01*
X191008000Y-59182000D02*
X193802000Y-59182000D01*
X193802000Y-59182000D02*
X194564000Y-58420000D01*
X194564000Y-58420000D02*
X194818000Y-58166000D01*
X194818000Y-58166000D02*
X198374000Y-58166000D01*
X198374000Y-58166000D02*
X204470000Y-58166000D01*
X204470000Y-58166000D02*
X205740000Y-58166000D01*
X205740000Y-58166000D02*
X207010000Y-56896000D01*
X207010000Y-56896000D02*
X211074000Y-56896000D01*
X211074000Y-56896000D02*
X213106000Y-56896000D01*
X213106000Y-56896000D02*
X214122000Y-55880000D01*
X214122000Y-55880000D02*
X218440000Y-55880000D01*
X218440000Y-55880000D02*
X225298000Y-55880000D01*
X225298000Y-55880000D02*
X231394000Y-55880000D01*
X231394000Y-55880000D02*
X233172000Y-57658000D01*
X233172000Y-57658000D02*
X233680000Y-58166000D01*
X233680000Y-58166000D02*
X239268000Y-58166000D01*
X239268000Y-58166000D02*
X243586000Y-58166000D01*
X243586000Y-58166000D02*
X244602000Y-58166000D01*
X244602000Y-58166000D02*
X246126000Y-59690000D01*
X246126000Y-59690000D02*
X246380000Y-59944000D01*
X246380000Y-59944000D02*
X247650000Y-59944000D01*
X247650000Y-59944000D02*
X249936000Y-62230000D01*
X249936000Y-62230000D02*
X249936000Y-67310000D01*
X249936000Y-67310000D02*
X250444000Y-67818000D01*
X250444000Y-67818000D02*
X250444000Y-67564000D01*
D20*
X245653500Y-87086500D02*
X250512500Y-82227500D01*
X250512500Y-82227500D02*
X250512500Y-80957500D01*
X245653500Y-90285000D02*
X245653500Y-87086500D01*
%TO.N,col2_r*%
X231462500Y-47464000D02*
X231462500Y-50985500D01*
X231462500Y-42740500D02*
X231462500Y-47058500D01*
X231462500Y-47058500D02*
X231462500Y-47414000D01*
X231429500Y-47409000D02*
X231429500Y-47091500D01*
X231462500Y-28414000D02*
X231462500Y-31935500D01*
D21*
X154383900Y-47153000D02*
X156659480Y-49428580D01*
X195072000Y-58674000D02*
X205994000Y-58674000D01*
X156659480Y-49428580D02*
X156659480Y-55476116D01*
X185067035Y-62582965D02*
X188013990Y-59636010D01*
X188013990Y-59636010D02*
X194109990Y-59636010D01*
X156659480Y-55476116D02*
X163766330Y-62582966D01*
X207264000Y-57404000D02*
X213360000Y-57404000D01*
X163766330Y-62582966D02*
X185067035Y-62582965D01*
X213360000Y-57404000D02*
X214376000Y-56388000D01*
X194109990Y-59636010D02*
X195072000Y-58674000D01*
X205994000Y-58674000D02*
X207264000Y-57404000D01*
D20*
X216999500Y-85602000D02*
X216999500Y-82974500D01*
X216999500Y-82974500D02*
X216999500Y-82974500D01*
X231529500Y-66485000D02*
X231529500Y-66920500D01*
X231529500Y-66920500D02*
X227584000Y-70866000D01*
X227584000Y-70866000D02*
X227584000Y-70866000D01*
X216999500Y-82974500D02*
X216999500Y-81450500D01*
X216999500Y-81450500D02*
X217678000Y-80772000D01*
X217678000Y-80772000D02*
X221488000Y-80772000D01*
X221488000Y-80772000D02*
X221488000Y-80772000D01*
D21*
X214376000Y-56388000D02*
X227584000Y-56388000D01*
D20*
X231462500Y-58097500D02*
X231521000Y-58039000D01*
X230378000Y-59182000D02*
X231462500Y-60266500D01*
X231462500Y-60266500D02*
X231462500Y-58097500D01*
X227584000Y-56388000D02*
X230378000Y-59182000D01*
X231462500Y-66225500D02*
X231462500Y-60266500D01*
%TO.N,col3_r*%
X212412500Y-44924000D02*
X212412500Y-48445500D01*
X212412500Y-40454500D02*
X212412500Y-44772500D01*
X212412500Y-44772500D02*
X212412500Y-45128000D01*
X212379500Y-45123000D02*
X212379500Y-44805500D01*
X212412500Y-26128000D02*
X212412500Y-29649500D01*
D21*
X206248000Y-59182000D02*
X207518000Y-57912000D01*
X194310000Y-60198000D02*
X195326000Y-59182000D01*
X195326000Y-59182000D02*
X206248000Y-59182000D01*
X188214000Y-60198000D02*
X194310000Y-60198000D01*
X185375023Y-63036977D02*
X188214000Y-60198000D01*
X207518000Y-57912000D02*
X210058000Y-57912000D01*
X163578273Y-63036977D02*
X185375023Y-63036977D01*
X156205469Y-51514569D02*
X156205469Y-55664173D01*
X154383900Y-49693000D02*
X156205469Y-51514569D01*
D20*
X212412500Y-60266500D02*
X212412500Y-63685500D01*
D21*
X156205469Y-55664173D02*
X163578273Y-63036977D01*
X212344000Y-59944000D02*
X212412500Y-60012500D01*
X212090000Y-59944000D02*
X212344000Y-59944000D01*
D20*
X212412500Y-60012500D02*
X212412500Y-60266500D01*
X212412500Y-59250500D02*
X212412500Y-60012500D01*
D21*
X210058000Y-57912000D02*
X212090000Y-59944000D01*
X212090000Y-59944000D02*
X212412500Y-60266500D01*
D20*
X212529500Y-64110000D02*
X212529500Y-70985000D01*
X212529500Y-70985000D02*
X212529500Y-70985000D01*
X204461542Y-80078500D02*
X200200208Y-84339834D01*
X212529500Y-80078500D02*
X204461542Y-80078500D01*
X212412500Y-29649500D02*
X212412500Y-32834500D01*
X212412500Y-32834500D02*
X212412500Y-32834500D01*
%TO.N,col4_r*%
X193479500Y-66650000D02*
X193479500Y-73525000D01*
X193616500Y-47464000D02*
X193616500Y-50985500D01*
X193616500Y-47058500D02*
X193616500Y-47414000D01*
X193583500Y-47409000D02*
X193583500Y-47091500D01*
X193616500Y-28414000D02*
X193616500Y-31935500D01*
D21*
X188468000Y-60706000D02*
X191516000Y-60706000D01*
X185674000Y-63500000D02*
X188468000Y-60706000D01*
X180866022Y-63500000D02*
X185674000Y-63500000D01*
X180857011Y-63490989D02*
X180866022Y-63500000D01*
X155751460Y-55852232D02*
X163390217Y-63490989D01*
X155751460Y-53600560D02*
X155751460Y-55852232D01*
X163390217Y-63490989D02*
X180857011Y-63490989D01*
D20*
X193616500Y-62806500D02*
X193616500Y-66225500D01*
D21*
X154383900Y-52233000D02*
X155751460Y-53600560D01*
X193548000Y-62484000D02*
X193616500Y-62415500D01*
D20*
X193616500Y-62415500D02*
X193616500Y-62806500D01*
X193616500Y-61790500D02*
X193616500Y-62415500D01*
D21*
X191516000Y-60706000D02*
X193294000Y-62484000D01*
X193294000Y-62484000D02*
X193548000Y-62484000D01*
X193294000Y-62484000D02*
X193616500Y-62806500D01*
D20*
X193616500Y-61790500D02*
X193616500Y-60960000D01*
X193529500Y-44468500D02*
X193548000Y-44450000D01*
X193529500Y-47485000D02*
X193529500Y-44468500D01*
X187484152Y-104140000D02*
X189070679Y-105726527D01*
X187452000Y-104140000D02*
X187484152Y-104140000D01*
X186182000Y-99314000D02*
X186182000Y-102870000D01*
X184658000Y-97790000D02*
X186182000Y-99314000D01*
X186182000Y-102870000D02*
X187452000Y-104140000D01*
X193479500Y-89339500D02*
X190617000Y-92202000D01*
X185928000Y-92202000D02*
X184658000Y-93472000D01*
X184658000Y-93472000D02*
X184658000Y-97790000D01*
X190617000Y-92202000D02*
X185928000Y-92202000D01*
X193479500Y-80195500D02*
X193479500Y-89339500D01*
%TO.N,col5_r*%
X174566500Y-50004000D02*
X174566500Y-53525500D01*
X174566500Y-45280500D02*
X174566500Y-49598500D01*
X174566500Y-49598500D02*
X174566500Y-49954000D01*
X174533500Y-49949000D02*
X174533500Y-49631500D01*
X174566500Y-30954000D02*
X174566500Y-34475500D01*
D21*
X174429500Y-65209500D02*
X174566500Y-65209500D01*
X163202160Y-63945000D02*
X173165000Y-63945000D01*
X154383900Y-55126740D02*
X163202160Y-63945000D01*
X154383900Y-54773000D02*
X154383900Y-55126740D01*
D20*
X174566500Y-65209500D02*
X174566500Y-68765500D01*
D21*
X174498000Y-65024000D02*
X174566500Y-64955500D01*
X174244000Y-65024000D02*
X174498000Y-65024000D01*
D20*
X174566500Y-64330500D02*
X174566500Y-64955500D01*
X174566500Y-64955500D02*
X174566500Y-65209500D01*
D21*
X173165000Y-63945000D02*
X174244000Y-65024000D01*
X174244000Y-65024000D02*
X174429500Y-65209500D01*
D20*
X174566500Y-34475500D02*
X174566500Y-35306000D01*
X174529500Y-72866500D02*
X174529500Y-73406000D01*
X174529500Y-68860000D02*
X174529500Y-72866500D01*
X174529500Y-72866500D02*
X174529500Y-73120500D01*
X180396241Y-88448241D02*
X180561525Y-88448241D01*
X175514000Y-83566000D02*
X180396241Y-88448241D01*
D22*
%TO.N,VDD*%
X184150000Y-116950819D02*
X181916795Y-113082795D01*
X181864000Y-110346819D02*
X179630795Y-106478795D01*
X206248000Y-74676000D02*
X205613000Y-75311000D01*
X231902000Y-73406000D02*
X224282000Y-73406000D01*
X203357500Y-74580000D02*
X204882000Y-74580000D01*
X253664010Y-80690010D02*
X261538010Y-80690010D01*
X250698000Y-77724000D02*
X253664010Y-80690010D01*
X272288000Y-80772000D02*
X279146000Y-80772000D01*
X247142000Y-77724000D02*
X248920000Y-77724000D01*
X262717990Y-80690010D02*
X264414000Y-78994000D01*
X279357500Y-80560500D02*
X279357500Y-79330000D01*
X204882000Y-74580000D02*
X205613000Y-75311000D01*
X245364000Y-75946000D02*
X247142000Y-77724000D01*
X270510000Y-78994000D02*
X272288000Y-80772000D01*
X242824000Y-75946000D02*
X245364000Y-75946000D01*
X279146000Y-80772000D02*
X279357500Y-80560500D01*
X260357500Y-79509500D02*
X261538010Y-80690010D01*
X261538010Y-80690010D02*
X262717990Y-80690010D01*
X241458000Y-74580000D02*
X242824000Y-75946000D01*
X264414000Y-78994000D02*
X270510000Y-78994000D01*
X206248000Y-55626000D02*
X205613000Y-56261000D01*
X231902000Y-54610000D02*
X224282000Y-54610000D01*
X203357500Y-55530000D02*
X204882000Y-55530000D01*
X253664010Y-61640010D02*
X261538010Y-61640010D01*
X222827000Y-53155000D02*
X224282000Y-54610000D01*
X250698000Y-58674000D02*
X253664010Y-61640010D01*
X272288000Y-61722000D02*
X279146000Y-61722000D01*
X247142000Y-58674000D02*
X250698000Y-58674000D01*
X212344000Y-55626000D02*
X206248000Y-55626000D01*
X262717990Y-61640010D02*
X264414000Y-59944000D01*
X279357500Y-61510500D02*
X279357500Y-60280000D01*
X204882000Y-55530000D02*
X205613000Y-56261000D01*
X204978000Y-56896000D02*
X194310000Y-56896000D01*
X213360000Y-54610000D02*
X212344000Y-55626000D01*
X205613000Y-56261000D02*
X204978000Y-56896000D01*
X245364000Y-56896000D02*
X247142000Y-58674000D01*
X270510000Y-59944000D02*
X272288000Y-61722000D01*
X242824000Y-56896000D02*
X245364000Y-56896000D01*
X279146000Y-61722000D02*
X279357500Y-61510500D01*
X260357500Y-60459500D02*
X261538010Y-61640010D01*
X187198000Y-57912000D02*
X186182000Y-58928000D01*
X242824000Y-56896000D02*
X234188000Y-56896000D01*
X234188000Y-56896000D02*
X231902000Y-54610000D01*
X261538010Y-61640010D02*
X262717990Y-61640010D01*
X224282000Y-54610000D02*
X213360000Y-54610000D01*
X194310000Y-56896000D02*
X193294000Y-57912000D01*
X193294000Y-57912000D02*
X187198000Y-57912000D01*
X241458000Y-55530000D02*
X242824000Y-56896000D01*
X264414000Y-59944000D02*
X270510000Y-59944000D01*
X185159000Y-57905000D02*
X186182000Y-58928000D01*
X162702500Y-75510000D02*
X162702500Y-72305000D01*
X162702500Y-72305000D02*
X162837500Y-72170000D01*
X160567634Y-77763634D02*
X162702500Y-75510000D01*
X161290000Y-78486000D02*
X160567634Y-77763634D01*
X161290000Y-79502000D02*
X161290000Y-78486000D01*
X174498000Y-92710000D02*
X161290000Y-79502000D01*
X213360000Y-35560000D02*
X212344000Y-36576000D01*
X212344000Y-36576000D02*
X206248000Y-36576000D01*
X234188000Y-37846000D02*
X231902000Y-35560000D01*
X185159000Y-38855000D02*
X186182000Y-39878000D01*
X184357500Y-38855000D02*
X185159000Y-38855000D01*
X204882000Y-36480000D02*
X205613000Y-37211000D01*
X203357500Y-36480000D02*
X204882000Y-36480000D01*
X205613000Y-37211000D02*
X204978000Y-37846000D01*
X206248000Y-36576000D02*
X205613000Y-37211000D01*
X222357500Y-34105000D02*
X222827000Y-34105000D01*
X231902000Y-35560000D02*
X224282000Y-35560000D01*
X241458000Y-36480000D02*
X242824000Y-37846000D01*
X241357500Y-36480000D02*
X241458000Y-36480000D01*
X242824000Y-37846000D02*
X234188000Y-37846000D01*
X260357500Y-41230000D02*
X260357500Y-41155500D01*
X260057500Y-43680000D02*
X260104000Y-43680000D01*
X250698000Y-39624000D02*
X253664010Y-42590010D01*
X247142000Y-39624000D02*
X250698000Y-39624000D01*
X245364000Y-37846000D02*
X247142000Y-39624000D01*
X242824000Y-37846000D02*
X245364000Y-37846000D01*
X260357500Y-41230000D02*
X260357500Y-41409500D01*
X260357500Y-41409500D02*
X261538010Y-42590010D01*
X253664010Y-42590010D02*
X261538010Y-42590010D01*
X260448020Y-43680000D02*
X261538010Y-42590010D01*
X260057500Y-43680000D02*
X260448020Y-43680000D01*
X185109000Y-57855000D02*
X185159000Y-57905000D01*
X184357500Y-57855000D02*
X185109000Y-57855000D01*
X203357500Y-55480000D02*
X203357500Y-55530000D01*
X222777000Y-53105000D02*
X222827000Y-53155000D01*
X222357500Y-53105000D02*
X222777000Y-53105000D01*
X222727000Y-72105000D02*
X222827000Y-72205000D01*
X222357500Y-72105000D02*
X222727000Y-72105000D01*
X155651900Y-40805000D02*
X154378900Y-39532000D01*
X170407500Y-40805000D02*
X155651900Y-40805000D01*
X186182000Y-39878000D02*
X185844990Y-40215010D01*
X170407500Y-40805000D02*
X170527500Y-40805000D01*
X170527500Y-40805000D02*
X172074500Y-42352000D01*
X172074500Y-42352000D02*
X172074500Y-42352000D01*
X193984500Y-38862000D02*
X195000500Y-37846000D01*
X187198000Y-38862000D02*
X193984500Y-38862000D01*
X186182000Y-39878000D02*
X187198000Y-38862000D01*
X204978000Y-37846000D02*
X195000500Y-37846000D01*
X279146000Y-42672000D02*
X279357500Y-42460500D01*
X279357500Y-42460500D02*
X279357500Y-41230000D01*
X271642500Y-41844000D02*
X272470500Y-42672000D01*
X264530500Y-41844000D02*
X271642500Y-41844000D01*
X263784490Y-42590010D02*
X264530500Y-41844000D01*
X261538010Y-42590010D02*
X263784490Y-42590010D01*
X272470500Y-42672000D02*
X279146000Y-42672000D01*
X255481500Y-98280000D02*
X255481500Y-98835000D01*
X255481500Y-98835000D02*
X256402500Y-99756000D01*
X224028000Y-35306000D02*
X224282000Y-35560000D01*
X222827000Y-34105000D02*
X224028000Y-35306000D01*
X223052500Y-35560000D02*
X222057500Y-36555000D01*
X224028000Y-35560000D02*
X223052500Y-35560000D01*
X224282000Y-35560000D02*
X224028000Y-35560000D01*
X224028000Y-35560000D02*
X213360000Y-35560000D01*
D20*
X226827500Y-93597000D02*
X226827500Y-93477500D01*
D22*
X228226500Y-94996000D02*
X226827500Y-93597000D01*
X228854000Y-94996000D02*
X228226500Y-94996000D01*
X261097490Y-61640010D02*
X260057500Y-62680000D01*
X261538010Y-61640010D02*
X261097490Y-61640010D01*
X247838000Y-99756000D02*
X256402500Y-99756000D01*
X241554000Y-93472000D02*
X247838000Y-99756000D01*
X230886000Y-93472000D02*
X233934000Y-93472000D01*
X184464500Y-76962000D02*
X184357500Y-76855000D01*
X194310000Y-75946000D02*
X193294000Y-76962000D01*
X204978000Y-75946000D02*
X194310000Y-75946000D01*
X205613000Y-75311000D02*
X204978000Y-75946000D01*
X185147490Y-78215010D02*
X184057500Y-79305000D01*
X176017510Y-78215010D02*
X185147490Y-78215010D01*
X185182990Y-78215010D02*
X186436000Y-76962000D01*
X185147490Y-78215010D02*
X185182990Y-78215010D01*
X186436000Y-76962000D02*
X184464500Y-76962000D01*
X193294000Y-76962000D02*
X186436000Y-76962000D01*
X168882510Y-78215010D02*
X162837500Y-72170000D01*
X176017510Y-78215010D02*
X168882510Y-78215010D01*
X248920000Y-77724000D02*
X250698000Y-77724000D01*
X177271079Y-102249004D02*
X177150996Y-102249004D01*
X178559482Y-100960601D02*
X177271079Y-102249004D01*
X177150996Y-102249004D02*
X179705000Y-106672670D01*
X173990000Y-96774000D02*
X177150996Y-102249004D01*
X173990000Y-93218000D02*
X174498000Y-92710000D01*
X173990000Y-96774000D02*
X173990000Y-93218000D01*
X181864000Y-110346819D02*
X181864000Y-113030000D01*
X186919052Y-118388471D02*
X187068635Y-118238888D01*
X185587652Y-118388471D02*
X186919052Y-118388471D01*
X184150000Y-116950819D02*
X185587652Y-118388471D01*
X176983510Y-59265010D02*
X173159250Y-55440750D01*
X185844990Y-59265010D02*
X176983510Y-59265010D01*
X186182000Y-58928000D02*
X185844990Y-59265010D01*
X173159250Y-55440750D02*
X173532500Y-55814000D01*
X171787500Y-54069000D02*
X173159250Y-55440750D01*
X213360000Y-73406000D02*
X212090000Y-74676000D01*
X212090000Y-74676000D02*
X206248000Y-74676000D01*
X222981000Y-72105000D02*
X224282000Y-73406000D01*
X222357500Y-72105000D02*
X222981000Y-72105000D01*
X222250000Y-73406000D02*
X222250000Y-74362500D01*
X222250000Y-74362500D02*
X222057500Y-74555000D01*
X224282000Y-73406000D02*
X222250000Y-73406000D01*
X222250000Y-73406000D02*
X213360000Y-73406000D01*
X234442000Y-75946000D02*
X234696000Y-75946000D01*
X231902000Y-73406000D02*
X234442000Y-75946000D01*
X242824000Y-75946000D02*
X234696000Y-75946000D01*
X184755000Y-41305000D02*
X185844990Y-40215010D01*
X184057500Y-41305000D02*
X184755000Y-41305000D01*
X256402500Y-99756000D02*
X269814000Y-99756000D01*
X274055500Y-99756000D02*
X269814000Y-99756000D01*
X274531500Y-99280000D02*
X274055500Y-99756000D01*
X274531500Y-98280000D02*
X274531500Y-99280000D01*
X233934000Y-93472000D02*
X241046000Y-93472000D01*
X229362000Y-94996000D02*
X230886000Y-93472000D01*
X228854000Y-94996000D02*
X229362000Y-94996000D01*
X241046000Y-93472000D02*
X241554000Y-93472000D01*
X248920000Y-81788000D02*
X248920000Y-80264000D01*
X248920000Y-82042000D02*
X248920000Y-81788000D01*
X241046000Y-89916000D02*
X248920000Y-82042000D01*
X218948000Y-94996000D02*
X228854000Y-94996000D01*
X216662000Y-94996000D02*
X218948000Y-94996000D01*
X204470000Y-90424000D02*
X205438672Y-89455328D01*
X211121328Y-89455328D02*
X216662000Y-94996000D01*
X205438672Y-89455328D02*
X211121328Y-89455328D01*
X204470000Y-93218000D02*
X204470000Y-90424000D01*
X202184000Y-95504000D02*
X204470000Y-93218000D01*
X202184000Y-97282000D02*
X202184000Y-95504000D01*
X199898000Y-99568000D02*
X202184000Y-97282000D01*
X198628000Y-99568000D02*
X199898000Y-99568000D01*
X198132346Y-99072346D02*
X198628000Y-99568000D01*
X198132346Y-96890195D02*
X198132346Y-99072346D01*
X174211490Y-40215010D02*
X172074500Y-42352000D01*
X185844990Y-40215010D02*
X174211490Y-40215010D01*
%TO.N,GNDA*%
X181356000Y-100186819D02*
X179122795Y-96318795D01*
X242507990Y-71819990D02*
X243777990Y-71819990D01*
X254857500Y-77057500D02*
X254254000Y-76454000D01*
X243777990Y-71819990D02*
X247396000Y-75438000D01*
X178857500Y-75555000D02*
X178857500Y-74634500D01*
X248412000Y-76454000D02*
X254254000Y-76454000D01*
X178857500Y-74634500D02*
X178857500Y-74380500D01*
X273857500Y-77930000D02*
X273857500Y-77515500D01*
X178857500Y-74380500D02*
X179070000Y-74168000D01*
X254857500Y-77930000D02*
X254857500Y-77057500D01*
X242507990Y-52769990D02*
X243777990Y-52769990D01*
X254857500Y-58007500D02*
X254254000Y-57404000D01*
X179070000Y-55118000D02*
X185928000Y-55118000D01*
X196215000Y-53213000D02*
X196658010Y-52769990D01*
X235857500Y-54130000D02*
X235356020Y-54130000D01*
X215775500Y-50673000D02*
X216857500Y-51755000D01*
X196658010Y-52769990D02*
X204915990Y-52769990D01*
X235266010Y-52769990D02*
X242507990Y-52769990D01*
X187452000Y-56642000D02*
X192786000Y-56642000D01*
X243777990Y-52769990D02*
X248412000Y-57404000D01*
X235356020Y-54130000D02*
X233996010Y-52769990D01*
X215265000Y-50673000D02*
X215775500Y-50673000D01*
X178857500Y-56505000D02*
X178857500Y-55584500D01*
X185928000Y-55118000D02*
X187452000Y-56642000D01*
X248412000Y-57404000D02*
X254254000Y-57404000D01*
X178857500Y-55584500D02*
X178857500Y-55330500D01*
X206248000Y-54102000D02*
X211836000Y-54102000D01*
X197132000Y-54130000D02*
X196215000Y-53213000D01*
X273857500Y-58880000D02*
X273857500Y-58465500D01*
X233996010Y-52769990D02*
X235266010Y-52769990D01*
X178857500Y-55330500D02*
X179070000Y-55118000D01*
X254857500Y-58880000D02*
X254857500Y-58007500D01*
X192786000Y-56642000D02*
X196215000Y-53213000D01*
X204915990Y-52769990D02*
X206248000Y-54102000D01*
X211836000Y-54102000D02*
X215265000Y-50673000D01*
X197857500Y-54130000D02*
X197132000Y-54130000D01*
D23*
X167063900Y-34453000D02*
X169603900Y-36993000D01*
X154383900Y-34453000D02*
X158206000Y-34453000D01*
D22*
X178061094Y-93958594D02*
X161807500Y-77705000D01*
X196658010Y-33719990D02*
X204915990Y-33719990D01*
X204915990Y-33719990D02*
X206248000Y-35052000D01*
X206248000Y-35052000D02*
X211836000Y-35052000D01*
X215543010Y-31344990D02*
X223671010Y-31344990D01*
X223671010Y-31344990D02*
X223671010Y-31393010D01*
X223671010Y-31393010D02*
X225997990Y-33719990D01*
X242507990Y-33719990D02*
X243777990Y-33719990D01*
X243777990Y-33719990D02*
X248412000Y-38354000D01*
X254857500Y-38957500D02*
X254254000Y-38354000D01*
X254857500Y-39830000D02*
X254857500Y-38957500D01*
X248412000Y-38354000D02*
X251714000Y-38354000D01*
X235266010Y-33719990D02*
X242507990Y-33719990D01*
X215775500Y-31623000D02*
X216857500Y-32705000D01*
X215265000Y-31623000D02*
X215775500Y-31623000D01*
X211836000Y-35052000D02*
X215265000Y-31623000D01*
X215265000Y-31623000D02*
X215543010Y-31344990D01*
X235356020Y-35080000D02*
X233996010Y-33719990D01*
X235857500Y-35080000D02*
X235356020Y-35080000D01*
X233996010Y-33719990D02*
X235266010Y-33719990D01*
X225997990Y-33719990D02*
X233996010Y-33719990D01*
X197132000Y-35080000D02*
X196215000Y-34163000D01*
X197857500Y-35080000D02*
X197132000Y-35080000D01*
X196215000Y-34163000D02*
X196658010Y-33719990D01*
X193360000Y-37018000D02*
X196215000Y-34163000D01*
X186878000Y-37018000D02*
X193360000Y-37018000D01*
X185928000Y-36068000D02*
X186878000Y-37018000D01*
X179070000Y-36068000D02*
X185928000Y-36068000D01*
X178857500Y-36280500D02*
X179070000Y-36068000D01*
X178857500Y-37455000D02*
X178857500Y-36280500D01*
X249981500Y-96258737D02*
X250720247Y-95519990D01*
X249981500Y-96880000D02*
X249981500Y-96258737D01*
X221327500Y-91575737D02*
X221327500Y-92197000D01*
X222066247Y-90836990D02*
X221327500Y-91575737D01*
X222091010Y-90836990D02*
X222066247Y-90836990D01*
X222285999Y-90642001D02*
X222091010Y-90836990D01*
X169727520Y-70805000D02*
X173090520Y-74168000D01*
X160007500Y-71005000D02*
X160207500Y-70805000D01*
X160002500Y-71005000D02*
X160007500Y-71005000D01*
X173090520Y-74168000D02*
X179070000Y-74168000D01*
X158837500Y-72170000D02*
X160002500Y-71005000D01*
X185531071Y-112775748D02*
X186436000Y-111870819D01*
X186436000Y-111870819D02*
X183570409Y-106907471D01*
X181408795Y-103176795D02*
X181408795Y-100277205D01*
X183642000Y-107044819D02*
X181408795Y-103176795D01*
X177387943Y-95131436D02*
X177021918Y-95497461D01*
X178243300Y-95131436D02*
X177387943Y-95131436D01*
X178569094Y-95457230D02*
X178243300Y-95131436D01*
X179066518Y-96318795D02*
X178569094Y-95457230D01*
X179122795Y-96318795D02*
X179066518Y-96318795D01*
X178061094Y-94949230D02*
X178243300Y-95131436D01*
X178061094Y-93958594D02*
X178061094Y-94949230D01*
X247396000Y-75438000D02*
X248412000Y-76454000D01*
X217126500Y-77724000D02*
X217157500Y-77755000D01*
X214122000Y-77724000D02*
X213614000Y-77724000D01*
X213868000Y-77724000D02*
X214122000Y-77724000D01*
X214122000Y-77724000D02*
X217126500Y-77724000D01*
X168971000Y-70805000D02*
X168971000Y-68773000D01*
X160207500Y-70805000D02*
X168971000Y-70805000D01*
X168971000Y-70805000D02*
X169727520Y-70805000D01*
X168971000Y-68773000D02*
X172720000Y-65024000D01*
X172720000Y-65024000D02*
X172720000Y-65024000D01*
X173482000Y-54356000D02*
X173990000Y-54356000D01*
X174752000Y-55118000D02*
X179070000Y-55118000D01*
X173990000Y-54356000D02*
X174752000Y-55118000D01*
X215392000Y-69342000D02*
X211938990Y-72795010D01*
X216857500Y-69537500D02*
X216662000Y-69342000D01*
X216857500Y-70705000D02*
X216857500Y-69537500D01*
X216662000Y-69342000D02*
X215392000Y-69342000D01*
X235857500Y-73080000D02*
X235857500Y-71773500D01*
X235857500Y-71773500D02*
X235712000Y-71628000D01*
X235712000Y-71628000D02*
X242507990Y-71628000D01*
X224028000Y-69342000D02*
X216662000Y-69342000D01*
X226314000Y-71628000D02*
X224028000Y-69342000D01*
X235712000Y-71628000D02*
X226314000Y-71628000D01*
X197857500Y-71636500D02*
X197866000Y-71628000D01*
X197857500Y-73080000D02*
X197857500Y-71636500D01*
X205232000Y-71628000D02*
X206399010Y-72795010D01*
X197866000Y-71628000D02*
X205232000Y-71628000D01*
X211938990Y-72795010D02*
X206399010Y-72795010D01*
X196596000Y-71628000D02*
X197866000Y-71628000D01*
X192532000Y-75692000D02*
X196596000Y-71628000D01*
X187452000Y-75692000D02*
X192532000Y-75692000D01*
X185928000Y-74118000D02*
X185928000Y-74168000D01*
X185928000Y-74168000D02*
X187452000Y-75692000D01*
X179070000Y-74118000D02*
X185928000Y-74118000D01*
X217157500Y-39755000D02*
X213745000Y-39755000D01*
X213745000Y-39755000D02*
X213745000Y-39755000D01*
X213773010Y-31344990D02*
X213745000Y-31373000D01*
X215543010Y-31344990D02*
X213773010Y-31344990D01*
X173090520Y-74168000D02*
X173090520Y-77078520D01*
X173090520Y-77078520D02*
X173090520Y-77078520D01*
X179112500Y-82550000D02*
X179157500Y-82505000D01*
X173990000Y-82550000D02*
X179112500Y-82550000D01*
X248412000Y-38354000D02*
X248412000Y-38354000D01*
X255157500Y-65880000D02*
X253586000Y-65880000D01*
X251206000Y-61976000D02*
X249428000Y-60198000D01*
X249428000Y-60198000D02*
X249428000Y-60198000D01*
X251206000Y-63500000D02*
X253586000Y-65880000D01*
X251206000Y-61976000D02*
X251206000Y-63500000D01*
X179157500Y-44505000D02*
X177999000Y-44505000D01*
X177999000Y-44505000D02*
X177038000Y-45466000D01*
X177038000Y-45466000D02*
X176530000Y-45466000D01*
X176530000Y-45466000D02*
X175514000Y-46482000D01*
X175514000Y-46482000D02*
X175514000Y-46482000D01*
X255157500Y-46880000D02*
X251570000Y-46880000D01*
X251570000Y-46880000D02*
X251570000Y-46880000D01*
X251714000Y-38354000D02*
X254254000Y-38354000D01*
X268605500Y-96454000D02*
X269031500Y-96880000D01*
X259450500Y-96454000D02*
X268605500Y-96454000D01*
X258516490Y-95519990D02*
X259450500Y-96454000D01*
X250720247Y-95519990D02*
X258516490Y-95519990D01*
X203962000Y-88392000D02*
X212161998Y-88392000D01*
X203108377Y-89245623D02*
X203962000Y-88392000D01*
X212161998Y-88392000D02*
X213614000Y-88392000D01*
X198776214Y-89245623D02*
X203108377Y-89245623D01*
X196594782Y-91427055D02*
X198776214Y-89245623D01*
X215646000Y-90424000D02*
X213614000Y-88392000D01*
X215864001Y-90642001D02*
X215646000Y-90424000D01*
X222285999Y-90642001D02*
X215864001Y-90642001D01*
X247157990Y-95519990D02*
X250720247Y-95519990D01*
X243078000Y-91440000D02*
X247157990Y-95519990D01*
X229072001Y-90642001D02*
X229870000Y-91440000D01*
X222285999Y-90642001D02*
X229072001Y-90642001D01*
X240030000Y-91440000D02*
X243078000Y-91440000D01*
X229870000Y-91440000D02*
X240030000Y-91440000D01*
X247396000Y-81534000D02*
X240030000Y-88900000D01*
X240030000Y-88900000D02*
X240030000Y-91440000D01*
X247396000Y-80264000D02*
X247396000Y-81534000D01*
X170445910Y-36144990D02*
X169598900Y-36992000D01*
X178993010Y-36144990D02*
X170445910Y-36144990D01*
X179070000Y-36068000D02*
X178993010Y-36144990D01*
X227140990Y-52769990D02*
X227265010Y-52769990D01*
X215543010Y-50394990D02*
X224765990Y-50394990D01*
X224765990Y-50394990D02*
X227140990Y-52769990D01*
X215265000Y-50673000D02*
X215543010Y-50394990D01*
X227265010Y-52769990D02*
X233996010Y-52769990D01*
X263072500Y-38354000D02*
X254254000Y-38354000D01*
X264548500Y-39830000D02*
X263072500Y-38354000D01*
X273857500Y-39830000D02*
X264548500Y-39830000D01*
X264414000Y-77978000D02*
X273709500Y-77978000D01*
X262890000Y-76454000D02*
X264414000Y-77978000D01*
X273709500Y-77978000D02*
X273857500Y-77830000D01*
X254254000Y-76454000D02*
X262890000Y-76454000D01*
X264414000Y-58928000D02*
X273759500Y-58928000D01*
X262890000Y-57404000D02*
X264414000Y-58928000D01*
X273759500Y-58928000D02*
X273857500Y-58830000D01*
X254254000Y-57404000D02*
X262890000Y-57404000D01*
D23*
X158206000Y-34453000D02*
X158206000Y-34453000D01*
X158206000Y-34453000D02*
X167063900Y-34453000D01*
D22*
X158837500Y-71715500D02*
X158837500Y-72170000D01*
X155130500Y-68008500D02*
X158837500Y-71715500D01*
X155130500Y-65341500D02*
X155130500Y-68008500D01*
X155829000Y-64643000D02*
X155130500Y-65341500D01*
X156972000Y-64643000D02*
X155829000Y-64643000D01*
X155675500Y-64643000D02*
X155829000Y-64643000D01*
X154304500Y-63272000D02*
X155675500Y-64643000D01*
D20*
%TO.N,Net-(LED1-Pad2)*%
X41557500Y-46880000D02*
X45830000Y-46880000D01*
X45830000Y-46880000D02*
X45830000Y-46880000D01*
X35364000Y-62680000D02*
X35306000Y-62738000D01*
X36657500Y-62680000D02*
X35364000Y-62680000D01*
%TO.N,Net-(LED1-Pad4)*%
X79557500Y-39755000D02*
X80895000Y-39755000D01*
X80895000Y-39755000D02*
X81026000Y-39624000D01*
X81026000Y-39624000D02*
X81026000Y-38862000D01*
X81026000Y-38862000D02*
X81026000Y-38862000D01*
X71882000Y-37338000D02*
X73152000Y-38608000D01*
X65024000Y-37338000D02*
X71882000Y-37338000D01*
X63754000Y-38608000D02*
X65024000Y-37338000D01*
X54356000Y-38608000D02*
X63754000Y-38608000D01*
X49530000Y-43434000D02*
X54356000Y-38608000D01*
X43434000Y-43434000D02*
X43434000Y-43434000D01*
X43434000Y-43434000D02*
X49530000Y-43434000D01*
X35314000Y-43680000D02*
X35052000Y-43942000D01*
X36657500Y-43680000D02*
X35314000Y-43680000D01*
%TO.N,Net-(LED2-Pad4)*%
X117557500Y-44505000D02*
X119071000Y-44505000D01*
X119071000Y-44505000D02*
X119071000Y-44505000D01*
X109728000Y-43434000D02*
X111252000Y-43434000D01*
X109728000Y-40894000D02*
X109728000Y-43434000D01*
X107442000Y-38608000D02*
X109728000Y-40894000D01*
X91440000Y-38608000D02*
X107442000Y-38608000D01*
X91440000Y-38608000D02*
X89662000Y-36830000D01*
X89662000Y-36830000D02*
X88900000Y-36068000D01*
X88900000Y-36068000D02*
X82550000Y-36068000D01*
X82550000Y-36068000D02*
X81534000Y-37084000D01*
X81534000Y-37084000D02*
X81026000Y-37592000D01*
X81026000Y-37592000D02*
X80772000Y-37846000D01*
X80772000Y-37846000D02*
X80772000Y-37846000D01*
X74189000Y-36555000D02*
X73914000Y-36830000D01*
X74657500Y-36555000D02*
X74189000Y-36555000D01*
X73152000Y-36830000D02*
X73914000Y-36830000D01*
%TO.N,Net-(LED10-Pad2)*%
X55357500Y-36480000D02*
X53752000Y-36480000D01*
X53752000Y-36480000D02*
X53752000Y-36480000D01*
X69088000Y-34036000D02*
X71374000Y-31750000D01*
X71374000Y-31750000D02*
X71374000Y-31750000D01*
X79918500Y-32766000D02*
X79857500Y-32705000D01*
X81534000Y-32766000D02*
X79918500Y-32766000D01*
%TO.N,Net-(LED11-Pad4)*%
X119380000Y-37592000D02*
X117764500Y-37592000D01*
X93457500Y-36480000D02*
X91852000Y-36480000D01*
X106680000Y-35052000D02*
X106728501Y-35100501D01*
X106680000Y-35052000D02*
X109220000Y-35052000D01*
X109220000Y-35052000D02*
X109220000Y-35052000D01*
%TO.N,Net-(LED13-Pad4)*%
X15748000Y-60198000D02*
X17339500Y-60198000D01*
X22857500Y-39830000D02*
X24336000Y-39830000D01*
X24336000Y-39830000D02*
X24336000Y-39830000D01*
%TO.N,Net-(LED14-Pad2)*%
X41907500Y-58880000D02*
X43386000Y-58880000D01*
X36185500Y-41402000D02*
X36357500Y-41230000D01*
X34798000Y-41402000D02*
X34290000Y-41402000D01*
X34544000Y-41402000D02*
X34798000Y-41402000D01*
X34798000Y-41402000D02*
X36185500Y-41402000D01*
%TO.N,Net-(LED15-Pad4)*%
X53848000Y-55626000D02*
X55439500Y-55626000D01*
X60857500Y-35080000D02*
X62484000Y-35052000D01*
X62484000Y-35052000D02*
X62456000Y-35080000D01*
%TO.N,Net-(LED10-Pad4)*%
X80007500Y-51768000D02*
X81486000Y-51768000D01*
X72898000Y-34290000D02*
X72390000Y-34290000D01*
X72644000Y-34290000D02*
X72898000Y-34290000D01*
X72898000Y-34290000D02*
X74285500Y-34290000D01*
%TO.N,Net-(LED11-Pad2)*%
X91948000Y-55372000D02*
X93539500Y-55372000D01*
X98703500Y-35080000D02*
X100330000Y-35052000D01*
X100330000Y-35052000D02*
X100302000Y-35080000D01*
%TO.N,Net-(LED12-Pad4)*%
X117853500Y-56340000D02*
X119332000Y-56340000D01*
X110744000Y-38862000D02*
X110236000Y-38862000D01*
X112385500Y-38862000D02*
X110744000Y-38862000D01*
X119332000Y-56340000D02*
X119634000Y-56340000D01*
%TO.N,Net-(LED13-Pad2)*%
X22857500Y-58880000D02*
X24336000Y-58880000D01*
X17339500Y-79248000D02*
X17357500Y-79230000D01*
X15748000Y-79248000D02*
X17339500Y-79248000D01*
%TO.N,Net-(LED14-Pad4)*%
X34544000Y-60452000D02*
X36185500Y-60452000D01*
X36185500Y-60452000D02*
X36357500Y-60280000D01*
X41907500Y-77930000D02*
X43386000Y-77930000D01*
X34544000Y-60452000D02*
X33782000Y-60452000D01*
%TO.N,Net-(LED16-Pad4)*%
X72390000Y-53086000D02*
X74031500Y-53086000D01*
X81441000Y-70705000D02*
X81534000Y-70612000D01*
X79857500Y-70705000D02*
X81441000Y-70705000D01*
%TO.N,Net-(LED17-Pad2)*%
X93357500Y-74480000D02*
X92006000Y-74480000D01*
X92006000Y-74480000D02*
X90170000Y-72644000D01*
X90170000Y-72644000D02*
X87376000Y-72644000D01*
X87376000Y-72644000D02*
X87122000Y-72644000D01*
X87122000Y-72644000D02*
X87122000Y-72644000D01*
X98857500Y-54080000D02*
X99800000Y-54080000D01*
X99800000Y-54080000D02*
X100838000Y-55118000D01*
X100838000Y-55118000D02*
X100838000Y-55118000D01*
%TO.N,Net-(LED18-Pad4)*%
X117857500Y-75455000D02*
X120125000Y-75455000D01*
X120125000Y-75455000D02*
X120125000Y-75455000D01*
X111195000Y-57855000D02*
X110490000Y-57150000D01*
X112357500Y-57855000D02*
X111195000Y-57855000D01*
%TO.N,Net-(LED22-Pad4)*%
X74357500Y-72105000D02*
X72929000Y-72105000D01*
X72929000Y-72105000D02*
X71628000Y-73406000D01*
X71628000Y-73406000D02*
X71628000Y-73406000D01*
X71628000Y-78994000D02*
X72136000Y-79502000D01*
X72136000Y-79502000D02*
X72898000Y-80264000D01*
X72898000Y-80264000D02*
X80010000Y-80264000D01*
X80010000Y-80264000D02*
X80772000Y-80264000D01*
X80772000Y-80264000D02*
X82296000Y-81788000D01*
X82296000Y-81788000D02*
X82296000Y-81788000D01*
X100125903Y-91389054D02*
X101344957Y-90170000D01*
X101344957Y-89663043D02*
X101346000Y-89662000D01*
X101344957Y-90170000D02*
X101344957Y-89663043D01*
%TO.N,Net-(LED24-Pad4)*%
X112357500Y-76855000D02*
X111399000Y-76855000D01*
X111399000Y-76855000D02*
X110744000Y-76200000D01*
X110744000Y-76200000D02*
X110744000Y-76200000D01*
X119764903Y-95497461D02*
X119764903Y-95119097D01*
X119764903Y-95373097D02*
X121158000Y-93980000D01*
X119764903Y-95497461D02*
X119764903Y-95373097D01*
%TO.N,Net-(LED25-Pad4)*%
X98588339Y-96852194D02*
X97536000Y-97904533D01*
X97536000Y-97904533D02*
X97536000Y-98552000D01*
X97536000Y-98552000D02*
X97536000Y-98552000D01*
X111230903Y-112775746D02*
X112268000Y-111738649D01*
X112268000Y-111738649D02*
X112268000Y-111252000D01*
X112268000Y-111252000D02*
X112268000Y-111252000D01*
X97536000Y-98552000D02*
X101346000Y-102362000D01*
X101346000Y-106426000D02*
X101346000Y-102362000D01*
%TO.N,Net-(LED27-Pad4)*%
X118227339Y-100960601D02*
X117348000Y-101839940D01*
X117348000Y-101839940D02*
X117348000Y-101854000D01*
X117348000Y-101854000D02*
X116840000Y-102362000D01*
X116840000Y-102362000D02*
X116840000Y-102362000D01*
X111760000Y-84836000D02*
X111760000Y-84836000D01*
X110490000Y-86106000D02*
X111760000Y-84836000D01*
X117557500Y-82505000D02*
X117557500Y-84372500D01*
X117094000Y-84836000D02*
X111760000Y-84836000D01*
X117557500Y-84372500D02*
X117094000Y-84836000D01*
%TO.N,Net-(LED28-Pad2)*%
X255157500Y-62680000D02*
X253608500Y-62672000D01*
X253608500Y-62672000D02*
X253616500Y-62680000D01*
X260057500Y-46880000D02*
X261764000Y-46880000D01*
X261764000Y-46880000D02*
X261764000Y-46880000D01*
%TO.N,Net-(LED29-Pad4)*%
X184057500Y-44505000D02*
X184095000Y-44505000D01*
X184095000Y-44505000D02*
X184802000Y-45212000D01*
X184802000Y-45212000D02*
X188976000Y-45212000D01*
X188976000Y-45212000D02*
X188976000Y-45212000D01*
X195961000Y-38608000D02*
X195326000Y-39243000D01*
X211836000Y-38608000D02*
X195961000Y-38608000D01*
X195326000Y-39243000D02*
X195326000Y-42037000D01*
X213889000Y-36555000D02*
X211836000Y-38608000D01*
X217157500Y-36555000D02*
X213889000Y-36555000D01*
%TO.N,Net-(LED32-Pad2)*%
X222057500Y-77755000D02*
X223489000Y-77755000D01*
X223489000Y-77755000D02*
X223489000Y-77755000D01*
X215900000Y-76708000D02*
X194818000Y-76708000D01*
X194818000Y-76708000D02*
X193802000Y-77724000D01*
X193802000Y-77724000D02*
X186944000Y-77724000D01*
X186944000Y-77724000D02*
X185420000Y-79248000D01*
X185420000Y-79248000D02*
X185420000Y-80264000D01*
X185420000Y-80264000D02*
X185420000Y-80264000D01*
X177603000Y-79305000D02*
X177546000Y-79248000D01*
X179157500Y-79305000D02*
X177603000Y-79305000D01*
%TO.N,Net-(LED34-Pad2)*%
X279357500Y-39830000D02*
X280804500Y-39830000D01*
X280804500Y-39830000D02*
X281040500Y-40066000D01*
X281040500Y-40066000D02*
X281040500Y-40574000D01*
X281040500Y-40574000D02*
X281040500Y-40574000D01*
X273857500Y-60230000D02*
X272248500Y-60230000D01*
X272248500Y-60230000D02*
X272150500Y-60132000D01*
X272150500Y-60132000D02*
X272150500Y-60132000D01*
%TO.N,Net-(LED35-Pad4)*%
X254857500Y-41230000D02*
X253502500Y-41230000D01*
X253502500Y-41230000D02*
X253502500Y-41230000D01*
X260357500Y-58830000D02*
X261990500Y-58862000D01*
X261990500Y-58862000D02*
X261958500Y-58830000D01*
%TO.N,Net-(LED37-Pad4)*%
X216857500Y-34105000D02*
X215119500Y-34105000D01*
X215119500Y-34105000D02*
X215119500Y-34105000D01*
X223845500Y-51705000D02*
X223890500Y-51750000D01*
X222357500Y-51705000D02*
X223845500Y-51705000D01*
%TO.N,Net-(LED38-Pad2)*%
X203357500Y-35080000D02*
X205000500Y-35080000D01*
X205000500Y-35080000D02*
X205000500Y-35080000D01*
X196124500Y-55480000D02*
X195950500Y-55306000D01*
X197857500Y-55480000D02*
X196124500Y-55480000D01*
%TO.N,Net-(LED39-Pad4)*%
X178857500Y-38855000D02*
X177349500Y-38855000D01*
X177349500Y-38855000D02*
X177154500Y-39050000D01*
X177154500Y-39050000D02*
X177154500Y-39050000D01*
X177154500Y-39050000D02*
X177154500Y-39050000D01*
X184357500Y-56455000D02*
X186044500Y-56455000D01*
%TO.N,Net-(LED4-Pad2)*%
X46642000Y-65880000D02*
X46642000Y-65880000D01*
X41557500Y-65880000D02*
X46576000Y-65880000D01*
X46642000Y-65880000D02*
X46576000Y-65880000D01*
X74657500Y-74555000D02*
X73781000Y-74555000D01*
X73781000Y-74555000D02*
X72644000Y-75692000D01*
X72644000Y-75692000D02*
X65532000Y-75692000D01*
X65532000Y-75692000D02*
X65532000Y-75692000D01*
X62738000Y-80772000D02*
X64770000Y-80772000D01*
X64770000Y-80772000D02*
X64770000Y-80772000D01*
%TO.N,Net-(LED5-Pad2)*%
X112657500Y-79305000D02*
X106737000Y-79305000D01*
X106737000Y-79305000D02*
X105664000Y-78232000D01*
X105664000Y-78232000D02*
X105664000Y-78232000D01*
X101631000Y-77755000D02*
X102108000Y-78232000D01*
X79557500Y-77755000D02*
X101631000Y-77755000D01*
%TO.N,Net-(LED7-Pad4)*%
X17257500Y-41306000D02*
X15652000Y-41306000D01*
X43640000Y-39830000D02*
X43688000Y-39878000D01*
X41857500Y-39830000D02*
X43640000Y-39830000D01*
X30988000Y-39370000D02*
X33274000Y-39370000D01*
X33274000Y-39370000D02*
X33274000Y-39370000D01*
%TO.N,Net-(LED15-Pad2)*%
X62462000Y-54080000D02*
X62484000Y-54102000D01*
X60857500Y-54080000D02*
X62462000Y-54080000D01*
X53906000Y-74480000D02*
X53848000Y-74422000D01*
X55357500Y-74480000D02*
X53906000Y-74480000D01*
%TO.N,Net-(LED20-Pad4)*%
X34798000Y-79248000D02*
X36389500Y-79248000D01*
X46733500Y-96880000D02*
X48408000Y-96880000D01*
X48408000Y-96880000D02*
X48408000Y-96880000D01*
%TO.N,Net-(LED23-Pad2)*%
X98857500Y-73080000D02*
X99957500Y-73080000D01*
X99957500Y-73080000D02*
X100004000Y-73080000D01*
X100004000Y-73080000D02*
X101092000Y-74168000D01*
X101092000Y-74168000D02*
X101092000Y-74168000D01*
X109693339Y-118238886D02*
X109693339Y-119414661D01*
X109693339Y-119414661D02*
X109220000Y-119888000D01*
X109220000Y-119888000D02*
X107696000Y-119888000D01*
X107696000Y-119888000D02*
X107442000Y-119634000D01*
X107442000Y-119634000D02*
X107442000Y-119634000D01*
%TO.N,Net-(LED28-Pad4)*%
X223643000Y-39755000D02*
X222057500Y-39755000D01*
X225298000Y-38100000D02*
X223643000Y-39755000D01*
X227584000Y-39116000D02*
X226568000Y-38100000D01*
X244856000Y-39116000D02*
X227584000Y-39116000D01*
X246380000Y-40640000D02*
X244856000Y-39116000D01*
X249936000Y-40640000D02*
X246380000Y-40640000D01*
X252976000Y-43680000D02*
X249936000Y-40640000D01*
X226568000Y-38100000D02*
X225298000Y-38100000D01*
X255157500Y-43680000D02*
X252976000Y-43680000D01*
%TO.N,Net-(LED31-Pad2)*%
X260057500Y-65880000D02*
X261460000Y-65880000D01*
X261460000Y-65880000D02*
X261620000Y-66040000D01*
X261620000Y-66040000D02*
X261620000Y-66040000D01*
X244348000Y-77216000D02*
X225298000Y-77216000D01*
X225298000Y-77216000D02*
X223774000Y-75692000D01*
X223774000Y-75692000D02*
X223520000Y-75692000D01*
X223520000Y-75692000D02*
X223520000Y-75692000D01*
X215767000Y-74555000D02*
X215646000Y-74676000D01*
X217157500Y-74555000D02*
X215767000Y-74555000D01*
%TO.N,Net-(LED33-Pad2)*%
X184057500Y-82505000D02*
X184057500Y-83658500D01*
X184057500Y-83658500D02*
X183388000Y-84328000D01*
X183388000Y-84328000D02*
X178054000Y-84328000D01*
X178054000Y-84328000D02*
X177800000Y-84582000D01*
X177800000Y-84582000D02*
X177800000Y-84582000D01*
X177800000Y-87122000D02*
X175768000Y-89154000D01*
X175768000Y-89154000D02*
X175768000Y-90170000D01*
X175768000Y-90170000D02*
X175768000Y-90170000D01*
X175809482Y-96197461D02*
X175809482Y-95291482D01*
X175809482Y-95291482D02*
X175768000Y-95250000D01*
X175768000Y-95250000D02*
X175768000Y-93218000D01*
%TO.N,Net-(LED40-Pad2)*%
X279357500Y-58830000D02*
X281008500Y-58830000D01*
X281008500Y-58830000D02*
X281008500Y-58830000D01*
X272198500Y-79230000D02*
X272150500Y-79182000D01*
X273857500Y-79230000D02*
X272198500Y-79230000D01*
%TO.N,Net-(LED41-Pad4)*%
X260357500Y-77830000D02*
X262072500Y-77830000D01*
X262072500Y-77830000D02*
X262072500Y-77830000D01*
X254857500Y-60230000D02*
X253354500Y-60132000D01*
X253354500Y-60132000D02*
X253452500Y-60230000D01*
X251576500Y-65466000D02*
X251576500Y-65974000D01*
X251576500Y-65974000D02*
X253354500Y-67752000D01*
X253354500Y-67752000D02*
X253354500Y-67752000D01*
X261012750Y-74648250D02*
X261012750Y-72925750D01*
X253354500Y-67752000D02*
X256093000Y-67752000D01*
X261012750Y-72671750D02*
X261012750Y-72925750D01*
X256093000Y-67752000D02*
X261012750Y-72671750D01*
%TO.N,Net-(LED42-Pad2)*%
X235757500Y-74404000D02*
X234098500Y-74404000D01*
X241257500Y-54004000D02*
X242908500Y-54004000D01*
%TO.N,Net-(LED43-Pad4)*%
X216857500Y-53105000D02*
X215423500Y-53105000D01*
X215423500Y-53105000D02*
X215423500Y-53105000D01*
X223795500Y-70705000D02*
X223890500Y-70800000D01*
X222357500Y-70705000D02*
X223795500Y-70705000D01*
%TO.N,Net-(LED44-Pad2)*%
X203357500Y-54080000D02*
X204884500Y-54080000D01*
X204884500Y-54080000D02*
X205602500Y-54798000D01*
X205602500Y-54798000D02*
X205602500Y-54798000D01*
X195820500Y-74480000D02*
X195696500Y-74356000D01*
X197857500Y-74480000D02*
X195820500Y-74480000D01*
%TO.N,Net-(LED45-Pad4)*%
X178857500Y-57855000D02*
X177408500Y-57846000D01*
X177408500Y-57846000D02*
X177417500Y-57855000D01*
X184357500Y-75455000D02*
X185961500Y-75455000D01*
X185961500Y-75455000D02*
X185961500Y-75455000D01*
%TO.N,Net-(LED47-Pad4)*%
X254857500Y-79230000D02*
X253656500Y-79230000D01*
X253656500Y-79230000D02*
X253402500Y-79230000D01*
X253402500Y-79230000D02*
X253100500Y-78928000D01*
X253100500Y-78928000D02*
X253100500Y-78928000D01*
X251830500Y-87818000D02*
X256148500Y-92136000D01*
X256148500Y-92136000D02*
X256148500Y-94371500D01*
X257590500Y-96880000D02*
X257672500Y-96962000D01*
X255481500Y-96880000D02*
X257590500Y-96880000D01*
X251841000Y-81915000D02*
X251830500Y-87818000D01*
%TO.N,Net-(LED49-Pad4)*%
X216857500Y-72105000D02*
X215035500Y-72105000D01*
X215035500Y-72105000D02*
X215035500Y-72105000D01*
X210566000Y-87376000D02*
X207518000Y-87376000D01*
X207518000Y-87376000D02*
X207518000Y-87376000D01*
X199344782Y-96728782D02*
X200152000Y-97536000D01*
X199344782Y-96190195D02*
X199344782Y-96728782D01*
X214630000Y-83312000D02*
X210566000Y-87376000D01*
X214630000Y-79907500D02*
X214630000Y-83312000D01*
X215035500Y-72105000D02*
X214630000Y-72105000D01*
%TO.N,Net-(LED50-Pad2)*%
X203357500Y-73080000D02*
X204834500Y-73080000D01*
X204834500Y-73080000D02*
X205088500Y-73080000D01*
X205088500Y-73080000D02*
X205856500Y-73848000D01*
X205856500Y-73848000D02*
X205856500Y-73848000D01*
X184318635Y-113475748D02*
X183642000Y-112799113D01*
X183642000Y-112799113D02*
X183642000Y-112014000D01*
X183642000Y-112014000D02*
X183642000Y-112014000D01*
%TO.N,Net-(LED51-Pad4)*%
X177449500Y-76855000D02*
X177449500Y-76855000D01*
X179771918Y-100260601D02*
X179771918Y-101031918D01*
X179771918Y-101031918D02*
X180340000Y-101600000D01*
X180340000Y-101600000D02*
X180340000Y-101600000D01*
X176784000Y-76855000D02*
X176022000Y-76855000D01*
X178857500Y-76855000D02*
X176784000Y-76855000D01*
%TO.N,Net-(LED52-Pad4)*%
X195382346Y-92127055D02*
X194564000Y-92945401D01*
X194564000Y-92945401D02*
X194564000Y-92964000D01*
X194564000Y-92964000D02*
X192024000Y-95504000D01*
X192024000Y-95504000D02*
X192024000Y-98298000D01*
X192024000Y-98298000D02*
X192024000Y-98298000D01*
X193548000Y-114554000D02*
X193548000Y-105918000D01*
X193548000Y-105918000D02*
X192024000Y-104394000D01*
X190563112Y-117538888D02*
X193548000Y-114554000D01*
X188281071Y-117538888D02*
X190563112Y-117538888D01*
%TO.N,Net-(LED34-Pad4)*%
X262857500Y-41230000D02*
X273857500Y-41230000D01*
X261457500Y-39830000D02*
X262857500Y-41230000D01*
X260357500Y-39830000D02*
X261457500Y-39830000D01*
%TO.N,Net-(LED36-Pad4)*%
X222357500Y-32705000D02*
X223641500Y-32705000D01*
X223641500Y-32705000D02*
X225668500Y-34732000D01*
X225668500Y-34732000D02*
X232526500Y-34732000D01*
X234274500Y-36480000D02*
X235857500Y-36480000D01*
X232526500Y-34732000D02*
X234274500Y-36480000D01*
%TO.N,Net-(LED36-Pad2)*%
X235757500Y-55354000D02*
X234098500Y-55354000D01*
X241257500Y-34954000D02*
X242908500Y-34954000D01*
%TO.N,Net-(LED38-Pad4)*%
X193411510Y-38286990D02*
X195158500Y-36540000D01*
X186805490Y-38286990D02*
X193411510Y-38286990D01*
X185973500Y-37455000D02*
X186805490Y-38286990D01*
X184357500Y-37455000D02*
X185973500Y-37455000D01*
X197797500Y-36540000D02*
X197857500Y-36480000D01*
X195158500Y-36540000D02*
X197797500Y-36540000D01*
%TO.N,Net-(LED19-Pad2)*%
X15748000Y-98298000D02*
X17339500Y-98298000D01*
X22857500Y-77930000D02*
X24336000Y-77930000D01*
%TO.N,Net-(LED46-Pad2)*%
X269031500Y-98280000D02*
X267372500Y-98280000D01*
X279357500Y-77880000D02*
X281008500Y-77880000D01*
X272404500Y-82230000D02*
X272404500Y-84465500D01*
X273166500Y-81468000D02*
X272404500Y-82230000D01*
X280278500Y-81468000D02*
X273166500Y-81468000D01*
X281040500Y-80706000D02*
X280278500Y-81468000D01*
X281040500Y-77912000D02*
X281040500Y-80706000D01*
%TO.N,Net-(LED21-Pad2)*%
X60603500Y-73180000D02*
X62230000Y-73152000D01*
X62230000Y-73152000D02*
X62202000Y-73180000D01*
X67502000Y-93664000D02*
X67310000Y-93472000D01*
X69894000Y-93664000D02*
X67502000Y-93664000D01*
%TO.N,Net-(LED48-Pad2)*%
X241357500Y-73080000D02*
X243006000Y-73080000D01*
X243006000Y-73080000D02*
X243006000Y-73080000D01*
X221327500Y-93597000D02*
X219839000Y-93597000D01*
X219839000Y-93597000D02*
X219839000Y-93597000D01*
X242062000Y-77978000D02*
X226060000Y-77978000D01*
X226060000Y-77978000D02*
X225552000Y-77978000D01*
X225552000Y-77978000D02*
X225552000Y-77978000D01*
%TO.N,Net-(LED56-Pad4)*%
X39624000Y-98298000D02*
X41215500Y-98298000D01*
X75456000Y-92202000D02*
X75394000Y-92264000D01*
X76770000Y-92264000D02*
X75394000Y-92264000D01*
X76962000Y-92456000D02*
X76770000Y-92264000D01*
X61849000Y-95758000D02*
X75946000Y-95758000D01*
X75946000Y-95758000D02*
X76962000Y-94742000D01*
X51181000Y-98171000D02*
X59436000Y-98171000D01*
X59436000Y-98171000D02*
X61849000Y-95758000D01*
X76962000Y-94742000D02*
X76962000Y-92456000D01*
X48514000Y-100838000D02*
X51181000Y-98171000D01*
X39624000Y-100838000D02*
X48514000Y-100838000D01*
%TO.N,Net-(LED58-Pad4)*%
X242062000Y-92202000D02*
X248140000Y-98280000D01*
X248140000Y-98280000D02*
X249981500Y-98280000D01*
X232410000Y-92202000D02*
X242062000Y-92202000D01*
X232405000Y-92197000D02*
X232410000Y-92202000D01*
X226827500Y-92197000D02*
X232405000Y-92197000D01*
%TO.N,Net-(D43-Pad2)*%
X25949500Y-87750000D02*
X25949500Y-88433500D01*
X25949500Y-87750000D02*
X25949500Y-87928500D01*
X26279000Y-87750000D02*
X28956000Y-90427000D01*
X25949500Y-87750000D02*
X26279000Y-87750000D01*
%TO.N,Net-(D44-Pad2)*%
X49825500Y-88941500D02*
X51816000Y-90932000D01*
X49825500Y-87750000D02*
X49825500Y-88941500D01*
%TO.N,Net-(D45-Pad2)*%
X78486000Y-84331000D02*
X80518000Y-86363000D01*
X78486000Y-83058000D02*
X78486000Y-84331000D01*
%TO.N,Net-(D46-Pad2)*%
X283207000Y-90430000D02*
X283210000Y-90427000D01*
X283210000Y-90427000D02*
X279149000Y-90427000D01*
X277630500Y-88908500D02*
X279149000Y-90427000D01*
X277630500Y-87745000D02*
X277630500Y-88908500D01*
%TO.N,Net-(D47-Pad2)*%
X258580500Y-89165500D02*
X260350000Y-90935000D01*
X258580500Y-87745000D02*
X258580500Y-89165500D01*
%TO.N,Net-(D48-Pad2)*%
X229926500Y-84594000D02*
X231684500Y-86352000D01*
X229926500Y-83062000D02*
X229926500Y-84594000D01*
%TD*%
M02*
