M48
; DRILL file {KiCad (5.1.6-0-10_14)} date Monday, September 28, 2020 at 08:17:00 PM
; FORMAT={-:-/ absolute / inch / decimal}
; #@! TF.CreationDate,2020-09-28T20:17:00+02:00
; #@! TF.GenerationSoftware,Kicad,Pcbnew,(5.1.6-0-10_14)
; #@! TF.FileFunction,NonPlated,1,2,NPTH
FMAT,2
INCH
T1C0.0118
T2C0.0472
T3C0.0748
T4C0.1181
T5C0.1614
T6C0.1654
%
G90
G05
T1
X9.3021Y-0.861
X9.3255Y-0.861
X9.3489Y-0.861
X9.3723Y-0.861
X9.3956Y-0.861
X9.419Y-0.861
X9.4424Y-0.861
X9.4658Y-0.861
X9.4892Y-0.861
X3.6942Y-0.8611
X3.7176Y-0.8611
X3.7409Y-0.8611
X3.7643Y-0.8611
X3.7877Y-0.8611
X3.8111Y-0.8611
X3.8344Y-0.8611
X3.8578Y-0.8611
X3.8812Y-0.8611
X5.0982Y-3.6917
X5.1099Y-3.6715
X5.1216Y-3.6512
X5.1332Y-3.631
X5.1449Y-3.6107
X5.1566Y-3.5905
X5.1683Y-3.5702
X5.18Y-3.55
X5.1917Y-3.5298
X7.8095Y-0.8616
X7.8329Y-0.8616
X7.8563Y-0.8616
X7.8797Y-0.8616
X7.9031Y-0.8616
X7.9264Y-0.8616
X7.9498Y-0.8616
X7.9732Y-0.8616
X7.9966Y-0.8616
X2.1993Y-0.861
X2.2227Y-0.861
X2.246Y-0.861
X2.2694Y-0.861
X2.2928Y-0.861
X2.3162Y-0.861
X2.3395Y-0.861
X2.3629Y-0.861
X2.3863Y-0.861
X6.4883Y-3.5298
X6.5Y-3.55
X6.5117Y-3.5702
X6.5234Y-3.5905
X6.5351Y-3.6107
X6.5468Y-3.631
X6.5584Y-3.6512
X6.5701Y-3.6715
X6.5818Y-3.6917
T2
X6.0645Y-2.924
X6.3401Y-2.924
X5.3399Y-2.9249
X5.6155Y-2.9249
T3
X6.9502Y-2.811
X7.3502Y-2.811
X10.6903Y-2.9045
X11.0903Y-2.9045
X6.9502Y-2.063
X7.3502Y-2.063
X7.3966Y-4.2808
X7.5966Y-4.6272
X8.4462Y-1.128
X8.8462Y-1.128
X7.6982Y-1.9695
X8.0982Y-1.9695
X9.1943Y-1.2215
X9.5943Y-1.2215
X3.5838Y-1.9697
X3.9838Y-1.9697
X8.4462Y-1.876
X8.8462Y-1.876
X8.4462Y-2.624
X8.8462Y-2.624
X9.9423Y-2.9045
X10.3423Y-2.9045
X0.5916Y-2.9047
X0.9916Y-2.9047
X2.8357Y-2.6242
X3.2357Y-2.6242
X4.3318Y-2.0632
X4.7318Y-2.0632
X7.0616Y-3.6006
X7.2616Y-3.947
X2.8357Y-1.1281
X3.2357Y-1.1281
X0.5916Y-2.1567
X0.9916Y-2.1567
X1.3397Y-2.9047
X1.7397Y-2.9047
X3.5838Y-1.2217
X3.9838Y-1.2217
X1.3397Y-2.1567
X1.7397Y-2.1567
X7.8348Y-3.4388
X8.0348Y-3.7852
X8.6222Y-3.4702
X9.0222Y-3.4702
X2.0877Y-2.7177
X2.4877Y-2.7177
X7.6982Y-2.7175
X8.0982Y-2.7175
X4.3318Y-1.3152
X4.7318Y-1.3152
X9.1943Y-2.7175
X9.5943Y-2.7175
X10.6903Y-1.4085
X11.0903Y-1.4085
X4.0869Y-4.6272
X4.2869Y-4.2808
X3.6497Y-3.7852
X3.8497Y-3.4388
X4.3318Y-2.8112
X4.7318Y-2.8112
X3.5838Y-2.7177
X3.9838Y-2.7177
X2.0877Y-1.2217
X2.4877Y-1.2217
X1.3397Y-1.4087
X1.7397Y-1.4087
X0.5916Y-1.4087
X0.9916Y-1.4087
X10.5003Y-3.6545
X10.9003Y-3.6545
X9.7503Y-3.6545
X10.1503Y-3.6545
X1.5316Y-3.6547
X1.9316Y-3.6547
X2.66Y-3.47
X3.06Y-3.47
X9.9423Y-1.4085
X10.3423Y-1.4085
X4.4229Y-3.947
X4.6229Y-3.6006
X10.6903Y-2.1565
X11.0903Y-2.1565
X6.9499Y-1.3152
X7.3499Y-1.3152
X7.6982Y-1.2215
X8.0982Y-1.2215
X0.5916Y-3.6547
X0.9916Y-3.6547
X2.8357Y-1.8762
X3.2357Y-1.8762
X2.0877Y-1.9697
X2.4877Y-1.9697
X9.1943Y-1.9695
X9.5943Y-1.9695
X9.9423Y-2.1565
X10.3423Y-2.1565
T4
X9.8003Y-3.5545
X10.0503Y-3.4545
X1.5816Y-3.5547
X1.8316Y-3.4547
X2.71Y-3.37
X2.96Y-3.27
X9.9923Y-1.3085
X10.2423Y-1.2085
X4.3613Y-3.8537
X4.3997Y-3.5872
X10.7403Y-2.0565
X10.9903Y-1.9565
X6.9999Y-1.2152
X7.2499Y-1.1152
X7.7482Y-1.1215
X7.9982Y-1.0215
X0.6416Y-3.5547
X0.8916Y-3.4547
X2.8857Y-1.7762
X3.1357Y-1.6762
X2.1377Y-1.8697
X2.3877Y-1.7697
X9.2443Y-1.8695
X9.4943Y-1.7695
X9.9923Y-2.0565
X10.2423Y-1.9565
X7.0002Y-2.711
X7.2502Y-2.611
X10.7403Y-2.8045
X10.9903Y-2.7045
X7.0002Y-1.963
X7.2502Y-1.863
X7.5082Y-4.2741
X7.7198Y-4.4406
X8.4962Y-1.028
X8.7462Y-0.928
X7.7482Y-1.8695
X7.9982Y-1.7695
X9.2443Y-1.1215
X9.4943Y-1.0215
X3.6338Y-1.8697
X3.8838Y-1.7697
X8.4962Y-1.776
X8.7462Y-1.676
X8.4962Y-2.524
X8.7462Y-2.424
X9.9923Y-2.8045
X10.2423Y-2.7045
X0.6416Y-2.8047
X0.8916Y-2.7047
X2.8857Y-2.5242
X3.1357Y-2.4242
X4.3818Y-1.9632
X4.6318Y-1.8632
X7.1732Y-3.5939
X7.3848Y-3.7604
X2.8857Y-1.0281
X3.1357Y-0.9281
X0.6416Y-2.0567
X0.8916Y-1.9567
X1.3897Y-2.8047
X1.6397Y-2.7047
X3.6338Y-1.1217
X3.8838Y-1.0217
X1.3897Y-2.0567
X1.6397Y-1.9567
X7.9464Y-3.4321
X8.158Y-3.5986
X8.6722Y-3.3702
X8.9222Y-3.2702
X2.1377Y-2.6177
X2.3877Y-2.5177
X7.7482Y-2.6175
X7.9982Y-2.5175
X4.3818Y-1.2152
X4.6318Y-1.1152
X9.2443Y-2.6175
X9.4943Y-2.5175
X10.7403Y-1.3085
X10.9903Y-1.2085
X4.0253Y-4.5339
X4.0637Y-4.2674
X3.5881Y-3.6919
X3.6265Y-3.4254
X4.3818Y-2.7112
X4.6318Y-2.6112
X3.6338Y-2.6177
X3.8838Y-2.5177
X2.1377Y-1.1217
X2.3877Y-1.0217
X1.3897Y-1.3087
X1.6397Y-1.2087
X0.6416Y-1.3087
X0.8916Y-1.2087
X10.5503Y-3.5545
X10.8003Y-3.4545
T5
X1.5397Y-2.1567
X7.9348Y-3.612
X8.8222Y-3.4702
X2.2877Y-2.7177
X7.8982Y-2.7175
X4.5318Y-1.3152
X9.3943Y-2.7175
X10.8903Y-1.4085
X4.1869Y-4.454
X3.7497Y-3.612
X4.5318Y-2.8112
X3.7838Y-2.7177
X2.2877Y-1.2217
X1.5397Y-1.4087
X0.7916Y-1.4087
X10.7003Y-3.6545
X9.9503Y-3.6545
X1.7316Y-3.6547
X2.86Y-3.47
X10.1423Y-1.4085
X4.5229Y-3.7738
X10.8903Y-2.1565
X7.1499Y-1.3152
X7.8982Y-1.2215
X0.7916Y-3.6547
X3.0357Y-1.8762
X2.2877Y-1.9697
X9.3943Y-1.9695
X10.1423Y-2.1565
X7.1502Y-2.811
X10.8903Y-2.9045
X7.1502Y-2.063
X7.4966Y-4.454
X8.6462Y-1.128
X7.8982Y-1.9695
X9.3943Y-1.2215
X3.7838Y-1.9697
X8.6462Y-1.876
X8.6462Y-2.624
X10.1423Y-2.9045
X0.7916Y-2.9047
X3.0357Y-2.6242
X4.5318Y-2.0632
X7.1616Y-3.7738
X3.0357Y-1.1281
X0.7916Y-2.1567
X1.5397Y-2.9047
X3.7838Y-1.2217
T6
X6.62Y-2.9
X7.5254Y-1.6447
X10.5157Y-1.7821
X9.3916Y-3.3347
X6.19Y-3.26
X7.576Y-3.5374
X5.49Y-3.2589
X5.06Y-2.9
X4.23Y-3.3
X2.2916Y-3.3247
X4.1565Y-1.6443
X1.17Y-1.7821
T0
M30
