M48
; DRILL file {KiCad (5.1.6-0-10_14)} date Monday, September 28, 2020 at 08:17:00 PM
; FORMAT={-:-/ absolute / inch / decimal}
; #@! TF.CreationDate,2020-09-28T20:17:00+02:00
; #@! TF.GenerationSoftware,Kicad,Pcbnew,(5.1.6-0-10_14)
; #@! TF.FileFunction,Plated,1,2,PTH
FMAT,2
INCH
T1C0.0157
T2C0.0320
T3C0.0394
T4C0.0512
%
G90
G05
T1
X0.5127Y-1.4473
X0.5127Y-1.8727
X0.5127Y-2.1973
X0.5127Y-2.53
X0.5127Y-2.9473
X0.5127Y-3.4473
X0.6162Y-1.6262
X0.62Y-2.37
X0.62Y-3.12
X0.62Y-3.87
X0.9581Y-1.5681
X0.9581Y-2.3181
X0.9581Y-3.0681
X1.2Y-2.37
X1.2Y-2.58
X1.22Y-1.55
X1.26Y-2.89
X1.2627Y-1.4473
X1.2627Y-1.9473
X1.2627Y-2.1973
X1.2627Y-2.6773
X1.29Y-2.56
X1.31Y-1.55
X1.32Y-1.62
X1.32Y-1.74
X1.33Y-2.38
X1.35Y-1.63
X1.36Y-2.53
X1.37Y-3.12
X1.38Y-1.73
X1.39Y-2.47
X1.39Y-2.56
X1.45Y-3.4
X1.56Y-3.87
X1.7081Y-2.3181
X1.7081Y-3.0681
X1.71Y-1.71
X1.72Y-1.57
X1.72Y-2.56
X1.77Y-2.53
X1.8043Y-1.8457
X1.8363Y-2.5937
X1.9058Y-3.8142
X1.93Y-3.12
X2.005Y-3.115
X2.0088Y-2.9788
X2.0127Y-1.2573
X2.0127Y-1.7873
X2.0127Y-2.0073
X2.0127Y-2.5273
X2.03Y-3.22
X2.1162Y-1.4362
X2.12Y-2.19
X2.12Y-2.93
X2.1227Y-2.4124
X2.16Y-3.83
X2.39Y-3.07
X2.45Y-2.88
X2.46Y-1.38
X2.46Y-2.13
X2.47Y-3.18
X2.55Y-3.18
X2.58Y-2.98
X2.65Y-3.68
X2.7Y-1.38
X2.7Y-1.52
X2.71Y-2.85
X2.72Y-1.34
X2.75Y-2.89
X2.76Y-3.06
X2.7627Y-1.1673
X2.7627Y-1.6573
X2.7627Y-1.9173
X2.7627Y-2.4073
X2.8Y-2.32
X2.81Y-1.25
X2.82Y-2.89
X2.82Y-3.11
X2.85Y-1.35
X2.85Y-2.09
X2.88Y-1.45
X2.88Y-1.52
X3.06Y-3.63
X3.18Y-1.49
X3.19Y-1.53
X3.2081Y-2.0381
X3.21Y-1.29
X3.21Y-2.78
X3.24Y-3.22
X3.27Y-3.29
X3.43Y-2.86
X3.5027Y-1.2573
X3.5027Y-1.6827
X3.5048Y-2.7752
X3.5048Y-3.2848
X3.5127Y-2.0073
X3.5127Y-2.4327
X3.55Y-2.37
X3.6162Y-1.4362
X3.62Y-2.18
X3.84Y-3.88
X3.95Y-1.38
X3.95Y-3.94
X3.95Y-4.07
X3.97Y-2.17
X3.98Y-2.92
X3.99Y-3.53
X4.01Y-3.33
X4.02Y-3.08
X4.07Y-2.91
X4.07Y-3.04
X4.07Y-3.16
X4.14Y-3.46
X4.16Y-3.08
X4.19Y-3.16
X4.2Y-1.38
X4.22Y-2.53
X4.23Y-4.71
X4.2527Y-1.34
X4.2527Y-1.8473
X4.2527Y-2.1073
X4.2527Y-2.47
X4.2529Y-2.8571
X4.27Y-3.53
X4.29Y-1.63
X4.3Y-1.38
X4.3Y-2.53
X4.33Y-1.47
X4.34Y-1.53
X4.35Y-2.25
X4.35Y-3.39
X4.36Y-3.0
X4.3738Y-1.6262
X4.38Y-1.71
X4.42Y-4.38
X4.6Y-4.03
X4.6878Y-1.7522
X4.7Y-1.48
X4.71Y-1.68
X4.71Y-2.2181
X4.71Y-2.28
X4.7293Y-2.9707
X4.77Y-3.7
X4.78Y-2.22
X4.82Y-2.2
X4.82Y-2.42
X4.91Y-2.6
X4.9127Y-3.3417
X4.9137Y-2.7876
X4.9196Y-1.6104
X4.9465Y-3.0435
X4.9465Y-3.1265
X4.99Y-2.6
X5.06Y-2.76
X6.3704Y-3.0593
X6.7633Y-2.1287
X6.7691Y-1.4254
X6.7746Y-1.6674
X6.8Y-2.56
X6.81Y-1.38
X6.81Y-1.6874
X6.8146Y-3.0346
X6.83Y-2.14
X6.85Y-3.25
X6.8712Y-2.89
X6.8727Y-1.39
X6.8727Y-1.7827
X6.8727Y-2.1073
X6.8727Y-2.5327
X6.9046Y-1.6074
X6.91Y-1.83
X6.91Y-3.29
X6.92Y-3.55
X6.92Y-3.67
X6.93Y-3.0258
X6.9746Y-1.5374
X6.9746Y-1.5374
X6.9846Y-2.2774
X6.99Y-3.12
X6.9946Y-1.7174
X7.0Y-3.33
X7.0Y-3.43
X7.1Y-4.0
X7.23Y-2.4
X7.23Y-4.41
X7.26Y-2.37
X7.3Y-3.16
X7.3174Y-1.6974
X7.3213Y-2.9707
X7.3246Y-2.2226
X7.44Y-1.78
X7.5146Y-2.4374
X7.56Y-3.96
X7.56Y-4.03
X7.57Y-3.12
X7.6Y-4.09
X7.6173Y-2.8947
X7.6173Y-3.1573
X7.62Y-1.75
X7.6227Y-1.2573
X7.6227Y-2.0073
X7.6227Y-2.4
X7.6546Y-2.4374
X7.66Y-4.03
X7.7046Y-2.9274
X7.7146Y-2.1774
X7.88Y-3.84
X8.03Y-1.52
X8.0709Y-1.3811
X8.0946Y-2.1574
X8.1046Y-2.9074
X8.17Y-3.44
X8.3246Y-2.4374
X8.35Y-3.48
X8.3627Y-1.1673
X8.3627Y-1.5927
X8.3627Y-1.9073
X8.3627Y-2.3327
X8.3673Y-2.7947
X8.3673Y-3.1527
X8.3946Y-2.4374
X8.41Y-3.06
X8.4152Y-1.2352
X8.4152Y-1.5652
X8.45Y-2.8388
X8.45Y-3.146
X8.4693Y-1.3427
X8.4812Y-2.0907
X8.4846Y-1.5274
X8.49Y-2.94
X8.5Y-3.02
X8.5433Y-3.2667
X8.6551Y-3.6849
X8.7988Y-3.0612
X8.8Y-2.98
X8.8146Y-2.0374
X8.8146Y-2.7874
X8.8946Y-1.5274
X8.96Y-2.79
X9.0046Y-2.5174
X9.1127Y-1.2573
X9.1127Y-1.6827
X9.1127Y-2.0073
X9.1127Y-2.4327
X9.1446Y-2.5174
X9.2146Y-2.1774
X9.2146Y-2.9274
X9.48Y-3.54
X9.49Y-3.46
X9.5633Y-1.3761
X9.5633Y-2.1261
X9.5672Y-2.8772
X9.62Y-3.04
X9.67Y-3.43
X9.74Y-2.97
X9.8Y-3.06
X9.8146Y-2.7074
X9.82Y-2.26
X9.82Y-2.37
X9.8627Y-1.4473
X9.8627Y-1.8727
X9.8627Y-2.1973
X9.8627Y-2.6227
X9.8627Y-2.9373
X9.9043Y-1.8457
X9.9046Y-2.5774
X9.91Y-1.51
X9.93Y-2.45
X9.9646Y-3.1074
X9.9746Y-1.8074
X9.9746Y-2.3674
X9.9746Y-2.6674
X9.9804Y-1.6232
X9.9846Y-2.4674
X10.1446Y-3.8174
X10.3Y-2.6
X10.3057Y-1.8457
X10.3146Y-2.3174
X10.3178Y-3.0642
X10.3246Y-2.5474
X10.3346Y-1.8074
X10.4227Y-3.3627
X10.5246Y-3.8674
X10.6127Y-1.4473
X10.6127Y-1.9374
X10.6127Y-2.1973
X10.6127Y-2.6227
X10.6127Y-2.9373
X10.7146Y-2.3674
X10.7146Y-3.1174
X11.0633Y-2.3161
X11.0633Y-3.0661
X11.0646Y-1.5974
T2
X5.1555Y-2.6389
X5.2555Y-2.6389
X5.3555Y-2.6389
X5.4555Y-2.6389
X6.2269Y-2.6396
X6.3269Y-2.6396
X6.4269Y-2.6396
X6.5269Y-2.6396
X6.0779Y-1.2564
X6.0779Y-1.3564
X6.0779Y-1.4564
X6.0779Y-1.5564
X6.0779Y-1.6564
X6.0779Y-1.7564
X6.0779Y-1.8564
X6.0779Y-1.9564
X6.0779Y-2.0564
X6.0779Y-2.1564
X6.0779Y-2.2564
X6.0779Y-2.3564
X6.6771Y-1.2564
X6.6771Y-1.3564
X6.6771Y-1.4564
X6.6771Y-1.5564
X6.6771Y-1.6564
X6.6771Y-1.7564
X6.6771Y-1.8564
X6.6771Y-1.9564
X6.6771Y-2.0564
X6.6771Y-2.1564
X6.6771Y-2.2564
X6.6771Y-2.3564
X5.008Y-1.2576
X5.008Y-1.3576
X5.008Y-1.4576
X5.008Y-1.5576
X5.008Y-1.6576
X5.008Y-1.7576
X5.008Y-1.8576
X5.008Y-1.9576
X5.008Y-2.0576
X5.008Y-2.1576
X5.008Y-2.2576
X5.008Y-2.3576
X5.6072Y-1.2576
X5.6072Y-1.3576
X5.6072Y-1.4576
X5.6072Y-1.5576
X5.6072Y-1.6576
X5.6072Y-1.7576
X5.6072Y-1.8576
X5.6072Y-1.9576
X5.6072Y-2.0576
X5.6072Y-2.1576
X5.6072Y-2.2576
X5.6072Y-2.3576
T4
X5.6073Y-2.4914
X5.6073Y-2.7473
X6.075Y-2.491
X6.075Y-2.7469
T3
G00X6.1255Y-2.8413
M15
G01X6.1452Y-2.8413
M16
G05
G00X6.2436Y-2.8413
M15
G01X6.2633Y-2.8413
M16
G05
G00X6.4011Y-2.8413
M15
G01X6.4208Y-2.8413
M16
G05
G00X6.4601Y-3.0067
M15
G01X6.4798Y-3.0067
M16
G05
G00X5.2199Y-2.8422
M15
G01X5.2002Y-2.8422
M16
G05
G00X5.2789Y-3.0076
M15
G01X5.2592Y-3.0076
M16
G05
G00X5.4364Y-3.0076
M15
G01X5.4167Y-3.0076
M16
G05
G00X5.5545Y-3.0076
M15
G01X5.5348Y-3.0076
M16
G05
T0
M30
