%TF.GenerationSoftware,KiCad,Pcbnew,(5.1.6-0-10_14)*%
%TF.CreationDate,2020-09-29T12:55:32+02:00*%
%TF.ProjectId,corne-cherry,636f726e-652d-4636-9865-7272792e6b69,3.0*%
%TF.SameCoordinates,Original*%
%TF.FileFunction,Legend,Top*%
%TF.FilePolarity,Positive*%
%FSLAX46Y46*%
G04 Gerber Fmt 4.6, Leading zero omitted, Abs format (unit mm)*
G04 Created by KiCad (PCBNEW (5.1.6-0-10_14)) date 2020-09-29 12:55:32*
%MOMM*%
%LPD*%
G01*
G04 APERTURE LIST*
%ADD10C,0.150000*%
%ADD11C,0.125000*%
%ADD12C,0.010000*%
%ADD13C,0.120000*%
G04 APERTURE END LIST*
D10*
X158837714Y-30170380D02*
X158837714Y-29503714D01*
X158837714Y-29694190D02*
X158885333Y-29598952D01*
X158932952Y-29551333D01*
X159028190Y-29503714D01*
X159123428Y-29503714D01*
X159456761Y-30170380D02*
X159456761Y-29503714D01*
X159456761Y-29170380D02*
X159409142Y-29218000D01*
X159456761Y-29265619D01*
X159504380Y-29218000D01*
X159456761Y-29170380D01*
X159456761Y-29265619D01*
X160361523Y-29503714D02*
X160361523Y-30313238D01*
X160313904Y-30408476D01*
X160266285Y-30456095D01*
X160171047Y-30503714D01*
X160028190Y-30503714D01*
X159932952Y-30456095D01*
X160361523Y-30122761D02*
X160266285Y-30170380D01*
X160075809Y-30170380D01*
X159980571Y-30122761D01*
X159932952Y-30075142D01*
X159885333Y-29979904D01*
X159885333Y-29694190D01*
X159932952Y-29598952D01*
X159980571Y-29551333D01*
X160075809Y-29503714D01*
X160266285Y-29503714D01*
X160361523Y-29551333D01*
X160837714Y-30170380D02*
X160837714Y-29170380D01*
X161266285Y-30170380D02*
X161266285Y-29646571D01*
X161218666Y-29551333D01*
X161123428Y-29503714D01*
X160980571Y-29503714D01*
X160885333Y-29551333D01*
X160837714Y-29598952D01*
X161599619Y-29503714D02*
X161980571Y-29503714D01*
X161742476Y-29170380D02*
X161742476Y-30027523D01*
X161790095Y-30122761D01*
X161885333Y-30170380D01*
X161980571Y-30170380D01*
X163075809Y-29503714D02*
X163075809Y-30503714D01*
X163075809Y-29551333D02*
X163171047Y-29503714D01*
X163361523Y-29503714D01*
X163456761Y-29551333D01*
X163504380Y-29598952D01*
X163552000Y-29694190D01*
X163552000Y-29979904D01*
X163504380Y-30075142D01*
X163456761Y-30122761D01*
X163361523Y-30170380D01*
X163171047Y-30170380D01*
X163075809Y-30122761D01*
X164409142Y-30122761D02*
X164313904Y-30170380D01*
X164123428Y-30170380D01*
X164028190Y-30122761D01*
X163980571Y-30075142D01*
X163932952Y-29979904D01*
X163932952Y-29694190D01*
X163980571Y-29598952D01*
X164028190Y-29551333D01*
X164123428Y-29503714D01*
X164313904Y-29503714D01*
X164409142Y-29551333D01*
X164837714Y-30170380D02*
X164837714Y-29170380D01*
X164837714Y-29551333D02*
X164932952Y-29503714D01*
X165123428Y-29503714D01*
X165218666Y-29551333D01*
X165266285Y-29598952D01*
X165313904Y-29694190D01*
X165313904Y-29979904D01*
X165266285Y-30075142D01*
X165218666Y-30122761D01*
X165123428Y-30170380D01*
X164932952Y-30170380D01*
X164837714Y-30122761D01*
X132024761Y-29916380D02*
X131929523Y-29868761D01*
X131881904Y-29773523D01*
X131881904Y-28916380D01*
X132786666Y-29868761D02*
X132691428Y-29916380D01*
X132500952Y-29916380D01*
X132405714Y-29868761D01*
X132358095Y-29773523D01*
X132358095Y-29392571D01*
X132405714Y-29297333D01*
X132500952Y-29249714D01*
X132691428Y-29249714D01*
X132786666Y-29297333D01*
X132834285Y-29392571D01*
X132834285Y-29487809D01*
X132358095Y-29583047D01*
X133120000Y-29249714D02*
X133500952Y-29249714D01*
X133262857Y-29916380D02*
X133262857Y-29059238D01*
X133310476Y-28964000D01*
X133405714Y-28916380D01*
X133500952Y-28916380D01*
X133691428Y-29249714D02*
X134072380Y-29249714D01*
X133834285Y-28916380D02*
X133834285Y-29773523D01*
X133881904Y-29868761D01*
X133977142Y-29916380D01*
X134072380Y-29916380D01*
X135167619Y-29249714D02*
X135167619Y-30249714D01*
X135167619Y-29297333D02*
X135262857Y-29249714D01*
X135453333Y-29249714D01*
X135548571Y-29297333D01*
X135596190Y-29344952D01*
X135643809Y-29440190D01*
X135643809Y-29725904D01*
X135596190Y-29821142D01*
X135548571Y-29868761D01*
X135453333Y-29916380D01*
X135262857Y-29916380D01*
X135167619Y-29868761D01*
X136500952Y-29868761D02*
X136405714Y-29916380D01*
X136215238Y-29916380D01*
X136120000Y-29868761D01*
X136072380Y-29821142D01*
X136024761Y-29725904D01*
X136024761Y-29440190D01*
X136072380Y-29344952D01*
X136120000Y-29297333D01*
X136215238Y-29249714D01*
X136405714Y-29249714D01*
X136500952Y-29297333D01*
X136929523Y-29916380D02*
X136929523Y-28916380D01*
X136929523Y-29297333D02*
X137024761Y-29249714D01*
X137215238Y-29249714D01*
X137310476Y-29297333D01*
X137358095Y-29344952D01*
X137405714Y-29440190D01*
X137405714Y-29725904D01*
X137358095Y-29821142D01*
X137310476Y-29868761D01*
X137215238Y-29916380D01*
X137024761Y-29916380D01*
X136929523Y-29868761D01*
X134620000Y-36830000D02*
X134620000Y-60706000D01*
X162052000Y-36830000D02*
X162052000Y-60706000D01*
X135724857Y-92654380D02*
X135724857Y-91654380D01*
X136153428Y-92654380D02*
X136153428Y-92130571D01*
X136105809Y-92035333D01*
X136010571Y-91987714D01*
X135867714Y-91987714D01*
X135772476Y-92035333D01*
X135724857Y-92082952D01*
X136486761Y-91987714D02*
X136867714Y-91987714D01*
X136629619Y-91654380D02*
X136629619Y-92511523D01*
X136677238Y-92606761D01*
X136772476Y-92654380D01*
X136867714Y-92654380D01*
X137058190Y-91987714D02*
X137439142Y-91987714D01*
X137201047Y-91654380D02*
X137201047Y-92511523D01*
X137248666Y-92606761D01*
X137343904Y-92654380D01*
X137439142Y-92654380D01*
X137772476Y-91987714D02*
X137772476Y-92987714D01*
X137772476Y-92035333D02*
X137867714Y-91987714D01*
X138058190Y-91987714D01*
X138153428Y-92035333D01*
X138201047Y-92082952D01*
X138248666Y-92178190D01*
X138248666Y-92463904D01*
X138201047Y-92559142D01*
X138153428Y-92606761D01*
X138058190Y-92654380D01*
X137867714Y-92654380D01*
X137772476Y-92606761D01*
X138629619Y-92606761D02*
X138724857Y-92654380D01*
X138915333Y-92654380D01*
X139010571Y-92606761D01*
X139058190Y-92511523D01*
X139058190Y-92463904D01*
X139010571Y-92368666D01*
X138915333Y-92321047D01*
X138772476Y-92321047D01*
X138677238Y-92273428D01*
X138629619Y-92178190D01*
X138629619Y-92130571D01*
X138677238Y-92035333D01*
X138772476Y-91987714D01*
X138915333Y-91987714D01*
X139010571Y-92035333D01*
X139486761Y-92559142D02*
X139534380Y-92606761D01*
X139486761Y-92654380D01*
X139439142Y-92606761D01*
X139486761Y-92559142D01*
X139486761Y-92654380D01*
X139486761Y-92035333D02*
X139534380Y-92082952D01*
X139486761Y-92130571D01*
X139439142Y-92082952D01*
X139486761Y-92035333D01*
X139486761Y-92130571D01*
X140677238Y-91606761D02*
X139820095Y-92892476D01*
X141724857Y-91606761D02*
X140867714Y-92892476D01*
X142486761Y-91987714D02*
X142486761Y-92797238D01*
X142439142Y-92892476D01*
X142391523Y-92940095D01*
X142296285Y-92987714D01*
X142153428Y-92987714D01*
X142058190Y-92940095D01*
X142486761Y-92606761D02*
X142391523Y-92654380D01*
X142201047Y-92654380D01*
X142105809Y-92606761D01*
X142058190Y-92559142D01*
X142010571Y-92463904D01*
X142010571Y-92178190D01*
X142058190Y-92082952D01*
X142105809Y-92035333D01*
X142201047Y-91987714D01*
X142391523Y-91987714D01*
X142486761Y-92035333D01*
X142962952Y-92654380D02*
X142962952Y-91987714D01*
X142962952Y-91654380D02*
X142915333Y-91702000D01*
X142962952Y-91749619D01*
X143010571Y-91702000D01*
X142962952Y-91654380D01*
X142962952Y-91749619D01*
X143296285Y-91987714D02*
X143677238Y-91987714D01*
X143439142Y-91654380D02*
X143439142Y-92511523D01*
X143486761Y-92606761D01*
X143582000Y-92654380D01*
X143677238Y-92654380D01*
X144010571Y-92654380D02*
X144010571Y-91654380D01*
X144439142Y-92654380D02*
X144439142Y-92130571D01*
X144391523Y-92035333D01*
X144296285Y-91987714D01*
X144153428Y-91987714D01*
X144058190Y-92035333D01*
X144010571Y-92082952D01*
X145343904Y-91987714D02*
X145343904Y-92654380D01*
X144915333Y-91987714D02*
X144915333Y-92511523D01*
X144962952Y-92606761D01*
X145058190Y-92654380D01*
X145201047Y-92654380D01*
X145296285Y-92606761D01*
X145343904Y-92559142D01*
X145820095Y-92654380D02*
X145820095Y-91654380D01*
X145820095Y-92035333D02*
X145915333Y-91987714D01*
X146105809Y-91987714D01*
X146201047Y-92035333D01*
X146248666Y-92082952D01*
X146296285Y-92178190D01*
X146296285Y-92463904D01*
X146248666Y-92559142D01*
X146201047Y-92606761D01*
X146105809Y-92654380D01*
X145915333Y-92654380D01*
X145820095Y-92606761D01*
X146724857Y-92559142D02*
X146772476Y-92606761D01*
X146724857Y-92654380D01*
X146677238Y-92606761D01*
X146724857Y-92559142D01*
X146724857Y-92654380D01*
X147629619Y-92606761D02*
X147534380Y-92654380D01*
X147343904Y-92654380D01*
X147248666Y-92606761D01*
X147201047Y-92559142D01*
X147153428Y-92463904D01*
X147153428Y-92178190D01*
X147201047Y-92082952D01*
X147248666Y-92035333D01*
X147343904Y-91987714D01*
X147534380Y-91987714D01*
X147629619Y-92035333D01*
X148201047Y-92654380D02*
X148105809Y-92606761D01*
X148058190Y-92559142D01*
X148010571Y-92463904D01*
X148010571Y-92178190D01*
X148058190Y-92082952D01*
X148105809Y-92035333D01*
X148201047Y-91987714D01*
X148343904Y-91987714D01*
X148439142Y-92035333D01*
X148486761Y-92082952D01*
X148534380Y-92178190D01*
X148534380Y-92463904D01*
X148486761Y-92559142D01*
X148439142Y-92606761D01*
X148343904Y-92654380D01*
X148201047Y-92654380D01*
X148962952Y-92654380D02*
X148962952Y-91987714D01*
X148962952Y-92082952D02*
X149010571Y-92035333D01*
X149105809Y-91987714D01*
X149248666Y-91987714D01*
X149343904Y-92035333D01*
X149391523Y-92130571D01*
X149391523Y-92654380D01*
X149391523Y-92130571D02*
X149439142Y-92035333D01*
X149534380Y-91987714D01*
X149677238Y-91987714D01*
X149772476Y-92035333D01*
X149820095Y-92130571D01*
X149820095Y-92654380D01*
X151010571Y-91606761D02*
X150153428Y-92892476D01*
X151629619Y-91654380D02*
X151629619Y-92368666D01*
X151582000Y-92511523D01*
X151486761Y-92606761D01*
X151343904Y-92654380D01*
X151248666Y-92654380D01*
X152534380Y-92654380D02*
X152534380Y-92130571D01*
X152486761Y-92035333D01*
X152391523Y-91987714D01*
X152201047Y-91987714D01*
X152105809Y-92035333D01*
X152534380Y-92606761D02*
X152439142Y-92654380D01*
X152201047Y-92654380D01*
X152105809Y-92606761D01*
X152058190Y-92511523D01*
X152058190Y-92416285D01*
X152105809Y-92321047D01*
X152201047Y-92273428D01*
X152439142Y-92273428D01*
X152534380Y-92225809D01*
X153010571Y-91987714D02*
X153010571Y-92654380D01*
X153010571Y-92082952D02*
X153058190Y-92035333D01*
X153153428Y-91987714D01*
X153296285Y-91987714D01*
X153391523Y-92035333D01*
X153439142Y-92130571D01*
X153439142Y-92654380D01*
X153915333Y-91987714D02*
X153915333Y-92654380D01*
X153915333Y-92082952D02*
X153962952Y-92035333D01*
X154058190Y-91987714D01*
X154201047Y-91987714D01*
X154296285Y-92035333D01*
X154343904Y-92130571D01*
X154343904Y-92654380D01*
X154820095Y-92654380D02*
X154820095Y-91987714D01*
X154820095Y-91654380D02*
X154772476Y-91702000D01*
X154820095Y-91749619D01*
X154867714Y-91702000D01*
X154820095Y-91654380D01*
X154820095Y-91749619D01*
X155296285Y-92654380D02*
X155296285Y-91654380D01*
X155391523Y-92273428D02*
X155677238Y-92654380D01*
X155677238Y-91987714D02*
X155296285Y-92368666D01*
X156010571Y-91654380D02*
X156248666Y-92654380D01*
X156439142Y-91940095D01*
X156629619Y-92654380D01*
X156867714Y-91654380D01*
X157248666Y-92654380D02*
X157248666Y-91987714D01*
X157248666Y-91654380D02*
X157201047Y-91702000D01*
X157248666Y-91749619D01*
X157296285Y-91702000D01*
X157248666Y-91654380D01*
X157248666Y-91749619D01*
X157724857Y-92654380D02*
X157724857Y-91654380D01*
X157724857Y-92035333D02*
X157820095Y-91987714D01*
X158010571Y-91987714D01*
X158105809Y-92035333D01*
X158153428Y-92082952D01*
X158201047Y-92178190D01*
X158201047Y-92463904D01*
X158153428Y-92559142D01*
X158105809Y-92606761D01*
X158010571Y-92654380D01*
X157820095Y-92654380D01*
X157724857Y-92606761D01*
X158629619Y-92654380D02*
X158629619Y-91654380D01*
X158724857Y-92273428D02*
X159010571Y-92654380D01*
X159010571Y-91987714D02*
X158629619Y-92368666D01*
X159820095Y-92606761D02*
X159724857Y-92654380D01*
X159534380Y-92654380D01*
X159439142Y-92606761D01*
X159391523Y-92511523D01*
X159391523Y-92130571D01*
X159439142Y-92035333D01*
X159534380Y-91987714D01*
X159724857Y-91987714D01*
X159820095Y-92035333D01*
X159867714Y-92130571D01*
X159867714Y-92225809D01*
X159391523Y-92321047D01*
X160296285Y-92654380D02*
X160296285Y-91987714D01*
X160296285Y-92178190D02*
X160343904Y-92082952D01*
X160391523Y-92035333D01*
X160486761Y-91987714D01*
X160582000Y-91987714D01*
X134756378Y-87532398D02*
X134698274Y-86868268D01*
X134714875Y-87058020D02*
X134754013Y-86958994D01*
X134797300Y-86907406D01*
X134888026Y-86851667D01*
X134982901Y-86843367D01*
X135748423Y-87397805D02*
X135657697Y-87453543D01*
X135467946Y-87470144D01*
X135368920Y-87431007D01*
X135313181Y-87340281D01*
X135279979Y-86960779D01*
X135319117Y-86861753D01*
X135409842Y-86806014D01*
X135599593Y-86789413D01*
X135698619Y-86828550D01*
X135754358Y-86919276D01*
X135762658Y-87014151D01*
X135296580Y-87150530D01*
X136073972Y-86747910D02*
X136369265Y-87391289D01*
X136548350Y-86706408D01*
X138266779Y-87225278D02*
X137697524Y-87275081D01*
X137982152Y-87250179D02*
X137894996Y-86253985D01*
X137812571Y-86404599D01*
X137725996Y-86507775D01*
X137635270Y-86563513D01*
X138685419Y-87093050D02*
X138737007Y-87136337D01*
X138693719Y-87187925D01*
X138642131Y-87144638D01*
X138685419Y-87093050D01*
X138693719Y-87187925D01*
X139270693Y-86133627D02*
X139365569Y-86125326D01*
X139464595Y-86164464D01*
X139516183Y-86207751D01*
X139571921Y-86298477D01*
X139635960Y-86484078D01*
X139656712Y-86721267D01*
X139625875Y-86915169D01*
X139586738Y-87014195D01*
X139543450Y-87065783D01*
X139452725Y-87121521D01*
X139357849Y-87129822D01*
X139258823Y-87090684D01*
X139207235Y-87047397D01*
X139151496Y-86956671D01*
X139087458Y-86771070D01*
X139066706Y-86533881D01*
X139097543Y-86339979D01*
X139136680Y-86240953D01*
X139179968Y-86189365D01*
X139270693Y-86133627D01*
X158045523Y-87104920D02*
X158103627Y-86440790D01*
X158087026Y-86630541D02*
X158142764Y-86539816D01*
X158194352Y-86496529D01*
X158293378Y-86457391D01*
X158388254Y-86465692D01*
X159045868Y-87144638D02*
X158946842Y-87183775D01*
X158757091Y-87167174D01*
X158666365Y-87111436D01*
X158627228Y-87012410D01*
X158660430Y-86632907D01*
X158716169Y-86542182D01*
X158815194Y-86503044D01*
X159004946Y-86519645D01*
X159095671Y-86575384D01*
X159134809Y-86674410D01*
X159126508Y-86769285D01*
X158643829Y-86822658D01*
X159479324Y-86561148D02*
X159658410Y-87246029D01*
X159953703Y-86602651D01*
X161555923Y-87412040D02*
X160986669Y-87362237D01*
X161271296Y-87387139D02*
X161358452Y-86390944D01*
X161251126Y-86524957D01*
X161147949Y-86611532D01*
X161048923Y-86650669D01*
X161991164Y-87354517D02*
X162034452Y-87406105D01*
X161982864Y-87449393D01*
X161939576Y-87397805D01*
X161991164Y-87354517D01*
X161982864Y-87449393D01*
X162734149Y-86511302D02*
X162829025Y-86519602D01*
X162919751Y-86575341D01*
X162963038Y-86626929D01*
X163002175Y-86725955D01*
X163033012Y-86919856D01*
X163012261Y-87157046D01*
X162948222Y-87342647D01*
X162892484Y-87433372D01*
X162840895Y-87476660D01*
X162741869Y-87515797D01*
X162646994Y-87507496D01*
X162556268Y-87451758D01*
X162512981Y-87400170D01*
X162473843Y-87301144D01*
X162443007Y-87107242D01*
X162463758Y-86870053D01*
X162527797Y-86684452D01*
X162583535Y-86593727D01*
X162635124Y-86550439D01*
X162734149Y-86511302D01*
X121626380Y-47545047D02*
X122340666Y-47545047D01*
X122483523Y-47592666D01*
X122578761Y-47687904D01*
X122626380Y-47830761D01*
X122626380Y-47926000D01*
X122626380Y-46592666D02*
X122626380Y-47068857D01*
X121626380Y-47068857D01*
X122531142Y-45687904D02*
X122578761Y-45735523D01*
X122626380Y-45878380D01*
X122626380Y-45973619D01*
X122578761Y-46116476D01*
X122483523Y-46211714D01*
X122388285Y-46259333D01*
X122197809Y-46306952D01*
X122054952Y-46306952D01*
X121864476Y-46259333D01*
X121769238Y-46211714D01*
X121674000Y-46116476D01*
X121626380Y-45973619D01*
X121626380Y-45878380D01*
X121674000Y-45735523D01*
X121721619Y-45687904D01*
X121626380Y-44973619D02*
X122340666Y-44973619D01*
X122483523Y-45021238D01*
X122578761Y-45116476D01*
X122626380Y-45259333D01*
X122626380Y-45354571D01*
X122626380Y-44021238D02*
X122626380Y-44497428D01*
X121626380Y-44497428D01*
X122531142Y-43116476D02*
X122578761Y-43164095D01*
X122626380Y-43306952D01*
X122626380Y-43402190D01*
X122578761Y-43545047D01*
X122483523Y-43640285D01*
X122388285Y-43687904D01*
X122197809Y-43735523D01*
X122054952Y-43735523D01*
X121864476Y-43687904D01*
X121769238Y-43640285D01*
X121674000Y-43545047D01*
X121626380Y-43402190D01*
X121626380Y-43306952D01*
X121674000Y-43164095D01*
X121721619Y-43116476D01*
X121626380Y-42402190D02*
X122340666Y-42402190D01*
X122483523Y-42449809D01*
X122578761Y-42545047D01*
X122626380Y-42687904D01*
X122626380Y-42783142D01*
X122626380Y-41449809D02*
X122626380Y-41926000D01*
X121626380Y-41926000D01*
X122531142Y-40545047D02*
X122578761Y-40592666D01*
X122626380Y-40735523D01*
X122626380Y-40830761D01*
X122578761Y-40973619D01*
X122483523Y-41068857D01*
X122388285Y-41116476D01*
X122197809Y-41164095D01*
X122054952Y-41164095D01*
X121864476Y-41116476D01*
X121769238Y-41068857D01*
X121674000Y-40973619D01*
X121626380Y-40830761D01*
X121626380Y-40735523D01*
X121674000Y-40592666D01*
X121721619Y-40545047D01*
X121626380Y-39830761D02*
X122340666Y-39830761D01*
X122483523Y-39878380D01*
X122578761Y-39973619D01*
X122626380Y-40116476D01*
X122626380Y-40211714D01*
X122626380Y-38878380D02*
X122626380Y-39354571D01*
X121626380Y-39354571D01*
X122531142Y-37973619D02*
X122578761Y-38021238D01*
X122626380Y-38164095D01*
X122626380Y-38259333D01*
X122578761Y-38402190D01*
X122483523Y-38497428D01*
X122388285Y-38545047D01*
X122197809Y-38592666D01*
X122054952Y-38592666D01*
X121864476Y-38545047D01*
X121769238Y-38497428D01*
X121674000Y-38402190D01*
X121626380Y-38259333D01*
X121626380Y-38164095D01*
X121674000Y-38021238D01*
X121721619Y-37973619D01*
D11*
X58913916Y-58570761D02*
X58818678Y-58618380D01*
X58628202Y-58618380D01*
X58532964Y-58570761D01*
X58485345Y-58523142D01*
X58437726Y-58427904D01*
X58437726Y-58142190D01*
X58485345Y-58046952D01*
X58532964Y-57999333D01*
X58628202Y-57951714D01*
X58818678Y-57951714D01*
X58913916Y-57999333D01*
X59485345Y-58618380D02*
X59390107Y-58570761D01*
X59342488Y-58523142D01*
X59294869Y-58427904D01*
X59294869Y-58142190D01*
X59342488Y-58046952D01*
X59390107Y-57999333D01*
X59485345Y-57951714D01*
X59628202Y-57951714D01*
X59723440Y-57999333D01*
X59771059Y-58046952D01*
X59818678Y-58142190D01*
X59818678Y-58427904D01*
X59771059Y-58523142D01*
X59723440Y-58570761D01*
X59628202Y-58618380D01*
X59485345Y-58618380D01*
X60247250Y-58618380D02*
X60247250Y-57951714D01*
X60247250Y-58142190D02*
X60294869Y-58046952D01*
X60342488Y-57999333D01*
X60437726Y-57951714D01*
X60532964Y-57951714D01*
X60866297Y-57951714D02*
X60866297Y-58618380D01*
X60866297Y-58046952D02*
X60913916Y-57999333D01*
X61009154Y-57951714D01*
X61152011Y-57951714D01*
X61247250Y-57999333D01*
X61294869Y-58094571D01*
X61294869Y-58618380D01*
X62152011Y-58570761D02*
X62056773Y-58618380D01*
X61866297Y-58618380D01*
X61771059Y-58570761D01*
X61723440Y-58475523D01*
X61723440Y-58094571D01*
X61771059Y-57999333D01*
X61866297Y-57951714D01*
X62056773Y-57951714D01*
X62152011Y-57999333D01*
X62199630Y-58094571D01*
X62199630Y-58189809D01*
X61723440Y-58285047D01*
X62485345Y-57951714D02*
X62866297Y-57951714D01*
X62628202Y-57618380D02*
X62628202Y-58475523D01*
X62675821Y-58570761D01*
X62771059Y-58618380D01*
X62866297Y-58618380D01*
X63199630Y-58618380D02*
X63199630Y-57951714D01*
X63199630Y-58142190D02*
X63247250Y-58046952D01*
X63294869Y-57999333D01*
X63390107Y-57951714D01*
X63485345Y-57951714D01*
X64247250Y-58618380D02*
X64247250Y-58094571D01*
X64199630Y-57999333D01*
X64104392Y-57951714D01*
X63913916Y-57951714D01*
X63818678Y-57999333D01*
X64247250Y-58570761D02*
X64152011Y-58618380D01*
X63913916Y-58618380D01*
X63818678Y-58570761D01*
X63771059Y-58475523D01*
X63771059Y-58380285D01*
X63818678Y-58285047D01*
X63913916Y-58237428D01*
X64152011Y-58237428D01*
X64247250Y-58189809D01*
X65152011Y-58570761D02*
X65056773Y-58618380D01*
X64866297Y-58618380D01*
X64771059Y-58570761D01*
X64723440Y-58523142D01*
X64675821Y-58427904D01*
X64675821Y-58142190D01*
X64723440Y-58046952D01*
X64771059Y-57999333D01*
X64866297Y-57951714D01*
X65056773Y-57951714D01*
X65152011Y-57999333D01*
X65580583Y-58618380D02*
X65580583Y-57618380D01*
X65675821Y-58237428D02*
X65961535Y-58618380D01*
X65961535Y-57951714D02*
X65580583Y-58332666D01*
X67152011Y-57951714D02*
X67152011Y-58951714D01*
X67152011Y-57999333D02*
X67247250Y-57951714D01*
X67437726Y-57951714D01*
X67532964Y-57999333D01*
X67580583Y-58046952D01*
X67628202Y-58142190D01*
X67628202Y-58427904D01*
X67580583Y-58523142D01*
X67532964Y-58570761D01*
X67437726Y-58618380D01*
X67247250Y-58618380D01*
X67152011Y-58570761D01*
X68485345Y-58570761D02*
X68390107Y-58618380D01*
X68199630Y-58618380D01*
X68104392Y-58570761D01*
X68056773Y-58523142D01*
X68009154Y-58427904D01*
X68009154Y-58142190D01*
X68056773Y-58046952D01*
X68104392Y-57999333D01*
X68199630Y-57951714D01*
X68390107Y-57951714D01*
X68485345Y-57999333D01*
X68913916Y-58618380D02*
X68913916Y-57618380D01*
X68913916Y-57999333D02*
X69009154Y-57951714D01*
X69199630Y-57951714D01*
X69294869Y-57999333D01*
X69342488Y-58046952D01*
X69390107Y-58142190D01*
X69390107Y-58427904D01*
X69342488Y-58523142D01*
X69294869Y-58570761D01*
X69199630Y-58618380D01*
X69009154Y-58618380D01*
X68913916Y-58570761D01*
X70580583Y-58237428D02*
X71342488Y-58237428D01*
X73009154Y-58618380D02*
X73009154Y-57618380D01*
X73009154Y-58570761D02*
X72913916Y-58618380D01*
X72723440Y-58618380D01*
X72628202Y-58570761D01*
X72580583Y-58523142D01*
X72532964Y-58427904D01*
X72532964Y-58142190D01*
X72580583Y-58046952D01*
X72628202Y-57999333D01*
X72723440Y-57951714D01*
X72913916Y-57951714D01*
X73009154Y-57999333D01*
X73866297Y-58570761D02*
X73771059Y-58618380D01*
X73580583Y-58618380D01*
X73485345Y-58570761D01*
X73437726Y-58475523D01*
X73437726Y-58094571D01*
X73485345Y-57999333D01*
X73580583Y-57951714D01*
X73771059Y-57951714D01*
X73866297Y-57999333D01*
X73913916Y-58094571D01*
X73913916Y-58189809D01*
X73437726Y-58285047D01*
X74294869Y-58570761D02*
X74390107Y-58618380D01*
X74580583Y-58618380D01*
X74675821Y-58570761D01*
X74723440Y-58475523D01*
X74723440Y-58427904D01*
X74675821Y-58332666D01*
X74580583Y-58285047D01*
X74437726Y-58285047D01*
X74342488Y-58237428D01*
X74294869Y-58142190D01*
X74294869Y-58094571D01*
X74342488Y-57999333D01*
X74437726Y-57951714D01*
X74580583Y-57951714D01*
X74675821Y-57999333D01*
X75152011Y-58618380D02*
X75152011Y-57951714D01*
X75152011Y-57618380D02*
X75104392Y-57666000D01*
X75152011Y-57713619D01*
X75199630Y-57666000D01*
X75152011Y-57618380D01*
X75152011Y-57713619D01*
X76056773Y-57951714D02*
X76056773Y-58761238D01*
X76009154Y-58856476D01*
X75961535Y-58904095D01*
X75866297Y-58951714D01*
X75723440Y-58951714D01*
X75628202Y-58904095D01*
X76056773Y-58570761D02*
X75961535Y-58618380D01*
X75771059Y-58618380D01*
X75675821Y-58570761D01*
X75628202Y-58523142D01*
X75580583Y-58427904D01*
X75580583Y-58142190D01*
X75628202Y-58046952D01*
X75675821Y-57999333D01*
X75771059Y-57951714D01*
X75961535Y-57951714D01*
X76056773Y-57999333D01*
X76532964Y-57951714D02*
X76532964Y-58618380D01*
X76532964Y-58046952D02*
X76580583Y-57999333D01*
X76675821Y-57951714D01*
X76818678Y-57951714D01*
X76913916Y-57999333D01*
X76961535Y-58094571D01*
X76961535Y-58618380D01*
X77818678Y-58570761D02*
X77723440Y-58618380D01*
X77532964Y-58618380D01*
X77437726Y-58570761D01*
X77390107Y-58475523D01*
X77390107Y-58094571D01*
X77437726Y-57999333D01*
X77532964Y-57951714D01*
X77723440Y-57951714D01*
X77818678Y-57999333D01*
X77866297Y-58094571D01*
X77866297Y-58189809D01*
X77390107Y-58285047D01*
X78723440Y-58618380D02*
X78723440Y-57618380D01*
X78723440Y-58570761D02*
X78628202Y-58618380D01*
X78437726Y-58618380D01*
X78342488Y-58570761D01*
X78294869Y-58523142D01*
X78247250Y-58427904D01*
X78247250Y-58142190D01*
X78294869Y-58046952D01*
X78342488Y-57999333D01*
X78437726Y-57951714D01*
X78628202Y-57951714D01*
X78723440Y-57999333D01*
X79961535Y-58618380D02*
X79961535Y-57618380D01*
X79961535Y-57999333D02*
X80056773Y-57951714D01*
X80247250Y-57951714D01*
X80342488Y-57999333D01*
X80390107Y-58046952D01*
X80437726Y-58142190D01*
X80437726Y-58427904D01*
X80390107Y-58523142D01*
X80342488Y-58570761D01*
X80247250Y-58618380D01*
X80056773Y-58618380D01*
X79961535Y-58570761D01*
X80771059Y-57951714D02*
X81009154Y-58618380D01*
X81247250Y-57951714D02*
X81009154Y-58618380D01*
X80913916Y-58856476D01*
X80866297Y-58904095D01*
X80771059Y-58951714D01*
X82390107Y-57951714D02*
X82390107Y-58808857D01*
X82342488Y-58904095D01*
X82247250Y-58951714D01*
X82199630Y-58951714D01*
X82390107Y-57618380D02*
X82342488Y-57666000D01*
X82390107Y-57713619D01*
X82437726Y-57666000D01*
X82390107Y-57618380D01*
X82390107Y-57713619D01*
X83294869Y-58618380D02*
X83294869Y-58094571D01*
X83247250Y-57999333D01*
X83152011Y-57951714D01*
X82961535Y-57951714D01*
X82866297Y-57999333D01*
X83294869Y-58570761D02*
X83199630Y-58618380D01*
X82961535Y-58618380D01*
X82866297Y-58570761D01*
X82818678Y-58475523D01*
X82818678Y-58380285D01*
X82866297Y-58285047D01*
X82961535Y-58237428D01*
X83199630Y-58237428D01*
X83294869Y-58189809D01*
X83771059Y-57951714D02*
X83771059Y-58618380D01*
X83771059Y-58046952D02*
X83818678Y-57999333D01*
X83913916Y-57951714D01*
X84056773Y-57951714D01*
X84152011Y-57999333D01*
X84199630Y-58094571D01*
X84199630Y-58618380D01*
X84675821Y-57951714D02*
X84675821Y-58618380D01*
X84675821Y-58046952D02*
X84723440Y-57999333D01*
X84818678Y-57951714D01*
X84961535Y-57951714D01*
X85056773Y-57999333D01*
X85104392Y-58094571D01*
X85104392Y-58618380D01*
X85580583Y-58618380D02*
X85580583Y-57951714D01*
X85580583Y-57618380D02*
X85532964Y-57666000D01*
X85580583Y-57713619D01*
X85628202Y-57666000D01*
X85580583Y-57618380D01*
X85580583Y-57713619D01*
X86056773Y-58618380D02*
X86056773Y-57618380D01*
X86152011Y-58237428D02*
X86437726Y-58618380D01*
X86437726Y-57951714D02*
X86056773Y-58332666D01*
X86771059Y-57951714D02*
X86961535Y-58618380D01*
X87152011Y-58142190D01*
X87342488Y-58618380D01*
X87532964Y-57951714D01*
X87913916Y-58618380D02*
X87913916Y-57951714D01*
X87913916Y-57618380D02*
X87866297Y-57666000D01*
X87913916Y-57713619D01*
X87961535Y-57666000D01*
X87913916Y-57618380D01*
X87913916Y-57713619D01*
X88390107Y-58618380D02*
X88390107Y-57618380D01*
X88390107Y-57999333D02*
X88485345Y-57951714D01*
X88675821Y-57951714D01*
X88771059Y-57999333D01*
X88818678Y-58046952D01*
X88866297Y-58142190D01*
X88866297Y-58427904D01*
X88818678Y-58523142D01*
X88771059Y-58570761D01*
X88675821Y-58618380D01*
X88485345Y-58618380D01*
X88390107Y-58570761D01*
X89294869Y-58618380D02*
X89294869Y-57618380D01*
X89390107Y-58237428D02*
X89675821Y-58618380D01*
X89675821Y-57951714D02*
X89294869Y-58332666D01*
X90485345Y-58570761D02*
X90390107Y-58618380D01*
X90199630Y-58618380D01*
X90104392Y-58570761D01*
X90056773Y-58475523D01*
X90056773Y-58094571D01*
X90104392Y-57999333D01*
X90199630Y-57951714D01*
X90390107Y-57951714D01*
X90485345Y-57999333D01*
X90532964Y-58094571D01*
X90532964Y-58189809D01*
X90056773Y-58285047D01*
X90961535Y-58618380D02*
X90961535Y-57951714D01*
X90961535Y-58142190D02*
X91009154Y-58046952D01*
X91056773Y-57999333D01*
X91152011Y-57951714D01*
X91247249Y-57951714D01*
X212580416Y-58734761D02*
X212485178Y-58782380D01*
X212294702Y-58782380D01*
X212199464Y-58734761D01*
X212151845Y-58687142D01*
X212104226Y-58591904D01*
X212104226Y-58306190D01*
X212151845Y-58210952D01*
X212199464Y-58163333D01*
X212294702Y-58115714D01*
X212485178Y-58115714D01*
X212580416Y-58163333D01*
X213151845Y-58782380D02*
X213056607Y-58734761D01*
X213008988Y-58687142D01*
X212961369Y-58591904D01*
X212961369Y-58306190D01*
X213008988Y-58210952D01*
X213056607Y-58163333D01*
X213151845Y-58115714D01*
X213294702Y-58115714D01*
X213389940Y-58163333D01*
X213437559Y-58210952D01*
X213485178Y-58306190D01*
X213485178Y-58591904D01*
X213437559Y-58687142D01*
X213389940Y-58734761D01*
X213294702Y-58782380D01*
X213151845Y-58782380D01*
X213913750Y-58782380D02*
X213913750Y-58115714D01*
X213913750Y-58306190D02*
X213961369Y-58210952D01*
X214008988Y-58163333D01*
X214104226Y-58115714D01*
X214199464Y-58115714D01*
X214532797Y-58115714D02*
X214532797Y-58782380D01*
X214532797Y-58210952D02*
X214580416Y-58163333D01*
X214675654Y-58115714D01*
X214818511Y-58115714D01*
X214913750Y-58163333D01*
X214961369Y-58258571D01*
X214961369Y-58782380D01*
X215818511Y-58734761D02*
X215723273Y-58782380D01*
X215532797Y-58782380D01*
X215437559Y-58734761D01*
X215389940Y-58639523D01*
X215389940Y-58258571D01*
X215437559Y-58163333D01*
X215532797Y-58115714D01*
X215723273Y-58115714D01*
X215818511Y-58163333D01*
X215866130Y-58258571D01*
X215866130Y-58353809D01*
X215389940Y-58449047D01*
X216151845Y-58115714D02*
X216532797Y-58115714D01*
X216294702Y-57782380D02*
X216294702Y-58639523D01*
X216342321Y-58734761D01*
X216437559Y-58782380D01*
X216532797Y-58782380D01*
X216866130Y-58782380D02*
X216866130Y-58115714D01*
X216866130Y-58306190D02*
X216913750Y-58210952D01*
X216961369Y-58163333D01*
X217056607Y-58115714D01*
X217151845Y-58115714D01*
X217913750Y-58782380D02*
X217913750Y-58258571D01*
X217866130Y-58163333D01*
X217770892Y-58115714D01*
X217580416Y-58115714D01*
X217485178Y-58163333D01*
X217913750Y-58734761D02*
X217818511Y-58782380D01*
X217580416Y-58782380D01*
X217485178Y-58734761D01*
X217437559Y-58639523D01*
X217437559Y-58544285D01*
X217485178Y-58449047D01*
X217580416Y-58401428D01*
X217818511Y-58401428D01*
X217913750Y-58353809D01*
X218818511Y-58734761D02*
X218723273Y-58782380D01*
X218532797Y-58782380D01*
X218437559Y-58734761D01*
X218389940Y-58687142D01*
X218342321Y-58591904D01*
X218342321Y-58306190D01*
X218389940Y-58210952D01*
X218437559Y-58163333D01*
X218532797Y-58115714D01*
X218723273Y-58115714D01*
X218818511Y-58163333D01*
X219247083Y-58782380D02*
X219247083Y-57782380D01*
X219342321Y-58401428D02*
X219628035Y-58782380D01*
X219628035Y-58115714D02*
X219247083Y-58496666D01*
X220818511Y-58115714D02*
X220818511Y-59115714D01*
X220818511Y-58163333D02*
X220913750Y-58115714D01*
X221104226Y-58115714D01*
X221199464Y-58163333D01*
X221247083Y-58210952D01*
X221294702Y-58306190D01*
X221294702Y-58591904D01*
X221247083Y-58687142D01*
X221199464Y-58734761D01*
X221104226Y-58782380D01*
X220913750Y-58782380D01*
X220818511Y-58734761D01*
X222151845Y-58734761D02*
X222056607Y-58782380D01*
X221866130Y-58782380D01*
X221770892Y-58734761D01*
X221723273Y-58687142D01*
X221675654Y-58591904D01*
X221675654Y-58306190D01*
X221723273Y-58210952D01*
X221770892Y-58163333D01*
X221866130Y-58115714D01*
X222056607Y-58115714D01*
X222151845Y-58163333D01*
X222580416Y-58782380D02*
X222580416Y-57782380D01*
X222580416Y-58163333D02*
X222675654Y-58115714D01*
X222866130Y-58115714D01*
X222961369Y-58163333D01*
X223008988Y-58210952D01*
X223056607Y-58306190D01*
X223056607Y-58591904D01*
X223008988Y-58687142D01*
X222961369Y-58734761D01*
X222866130Y-58782380D01*
X222675654Y-58782380D01*
X222580416Y-58734761D01*
X224247083Y-58401428D02*
X225008988Y-58401428D01*
X226675654Y-58782380D02*
X226675654Y-57782380D01*
X226675654Y-58734761D02*
X226580416Y-58782380D01*
X226389940Y-58782380D01*
X226294702Y-58734761D01*
X226247083Y-58687142D01*
X226199464Y-58591904D01*
X226199464Y-58306190D01*
X226247083Y-58210952D01*
X226294702Y-58163333D01*
X226389940Y-58115714D01*
X226580416Y-58115714D01*
X226675654Y-58163333D01*
X227532797Y-58734761D02*
X227437559Y-58782380D01*
X227247083Y-58782380D01*
X227151845Y-58734761D01*
X227104226Y-58639523D01*
X227104226Y-58258571D01*
X227151845Y-58163333D01*
X227247083Y-58115714D01*
X227437559Y-58115714D01*
X227532797Y-58163333D01*
X227580416Y-58258571D01*
X227580416Y-58353809D01*
X227104226Y-58449047D01*
X227961369Y-58734761D02*
X228056607Y-58782380D01*
X228247083Y-58782380D01*
X228342321Y-58734761D01*
X228389940Y-58639523D01*
X228389940Y-58591904D01*
X228342321Y-58496666D01*
X228247083Y-58449047D01*
X228104226Y-58449047D01*
X228008988Y-58401428D01*
X227961369Y-58306190D01*
X227961369Y-58258571D01*
X228008988Y-58163333D01*
X228104226Y-58115714D01*
X228247083Y-58115714D01*
X228342321Y-58163333D01*
X228818511Y-58782380D02*
X228818511Y-58115714D01*
X228818511Y-57782380D02*
X228770892Y-57830000D01*
X228818511Y-57877619D01*
X228866130Y-57830000D01*
X228818511Y-57782380D01*
X228818511Y-57877619D01*
X229723273Y-58115714D02*
X229723273Y-58925238D01*
X229675654Y-59020476D01*
X229628035Y-59068095D01*
X229532797Y-59115714D01*
X229389940Y-59115714D01*
X229294702Y-59068095D01*
X229723273Y-58734761D02*
X229628035Y-58782380D01*
X229437559Y-58782380D01*
X229342321Y-58734761D01*
X229294702Y-58687142D01*
X229247083Y-58591904D01*
X229247083Y-58306190D01*
X229294702Y-58210952D01*
X229342321Y-58163333D01*
X229437559Y-58115714D01*
X229628035Y-58115714D01*
X229723273Y-58163333D01*
X230199464Y-58115714D02*
X230199464Y-58782380D01*
X230199464Y-58210952D02*
X230247083Y-58163333D01*
X230342321Y-58115714D01*
X230485178Y-58115714D01*
X230580416Y-58163333D01*
X230628035Y-58258571D01*
X230628035Y-58782380D01*
X231485178Y-58734761D02*
X231389940Y-58782380D01*
X231199464Y-58782380D01*
X231104226Y-58734761D01*
X231056607Y-58639523D01*
X231056607Y-58258571D01*
X231104226Y-58163333D01*
X231199464Y-58115714D01*
X231389940Y-58115714D01*
X231485178Y-58163333D01*
X231532797Y-58258571D01*
X231532797Y-58353809D01*
X231056607Y-58449047D01*
X232389940Y-58782380D02*
X232389940Y-57782380D01*
X232389940Y-58734761D02*
X232294702Y-58782380D01*
X232104226Y-58782380D01*
X232008988Y-58734761D01*
X231961369Y-58687142D01*
X231913750Y-58591904D01*
X231913750Y-58306190D01*
X231961369Y-58210952D01*
X232008988Y-58163333D01*
X232104226Y-58115714D01*
X232294702Y-58115714D01*
X232389940Y-58163333D01*
X233628035Y-58782380D02*
X233628035Y-57782380D01*
X233628035Y-58163333D02*
X233723273Y-58115714D01*
X233913750Y-58115714D01*
X234008988Y-58163333D01*
X234056607Y-58210952D01*
X234104226Y-58306190D01*
X234104226Y-58591904D01*
X234056607Y-58687142D01*
X234008988Y-58734761D01*
X233913750Y-58782380D01*
X233723273Y-58782380D01*
X233628035Y-58734761D01*
X234437559Y-58115714D02*
X234675654Y-58782380D01*
X234913750Y-58115714D02*
X234675654Y-58782380D01*
X234580416Y-59020476D01*
X234532797Y-59068095D01*
X234437559Y-59115714D01*
X236056607Y-58115714D02*
X236056607Y-58972857D01*
X236008988Y-59068095D01*
X235913750Y-59115714D01*
X235866130Y-59115714D01*
X236056607Y-57782380D02*
X236008988Y-57830000D01*
X236056607Y-57877619D01*
X236104226Y-57830000D01*
X236056607Y-57782380D01*
X236056607Y-57877619D01*
X236961369Y-58782380D02*
X236961369Y-58258571D01*
X236913750Y-58163333D01*
X236818511Y-58115714D01*
X236628035Y-58115714D01*
X236532797Y-58163333D01*
X236961369Y-58734761D02*
X236866130Y-58782380D01*
X236628035Y-58782380D01*
X236532797Y-58734761D01*
X236485178Y-58639523D01*
X236485178Y-58544285D01*
X236532797Y-58449047D01*
X236628035Y-58401428D01*
X236866130Y-58401428D01*
X236961369Y-58353809D01*
X237437559Y-58115714D02*
X237437559Y-58782380D01*
X237437559Y-58210952D02*
X237485178Y-58163333D01*
X237580416Y-58115714D01*
X237723273Y-58115714D01*
X237818511Y-58163333D01*
X237866130Y-58258571D01*
X237866130Y-58782380D01*
X238342321Y-58115714D02*
X238342321Y-58782380D01*
X238342321Y-58210952D02*
X238389940Y-58163333D01*
X238485178Y-58115714D01*
X238628035Y-58115714D01*
X238723273Y-58163333D01*
X238770892Y-58258571D01*
X238770892Y-58782380D01*
X239247083Y-58782380D02*
X239247083Y-58115714D01*
X239247083Y-57782380D02*
X239199464Y-57830000D01*
X239247083Y-57877619D01*
X239294702Y-57830000D01*
X239247083Y-57782380D01*
X239247083Y-57877619D01*
X239723273Y-58782380D02*
X239723273Y-57782380D01*
X239818511Y-58401428D02*
X240104226Y-58782380D01*
X240104226Y-58115714D02*
X239723273Y-58496666D01*
X240437559Y-58115714D02*
X240628035Y-58782380D01*
X240818511Y-58306190D01*
X241008988Y-58782380D01*
X241199464Y-58115714D01*
X241580416Y-58782380D02*
X241580416Y-58115714D01*
X241580416Y-57782380D02*
X241532797Y-57830000D01*
X241580416Y-57877619D01*
X241628035Y-57830000D01*
X241580416Y-57782380D01*
X241580416Y-57877619D01*
X242056607Y-58782380D02*
X242056607Y-57782380D01*
X242056607Y-58163333D02*
X242151845Y-58115714D01*
X242342321Y-58115714D01*
X242437559Y-58163333D01*
X242485178Y-58210952D01*
X242532797Y-58306190D01*
X242532797Y-58591904D01*
X242485178Y-58687142D01*
X242437559Y-58734761D01*
X242342321Y-58782380D01*
X242151845Y-58782380D01*
X242056607Y-58734761D01*
X242961369Y-58782380D02*
X242961369Y-57782380D01*
X243056607Y-58401428D02*
X243342321Y-58782380D01*
X243342321Y-58115714D02*
X242961369Y-58496666D01*
X244151845Y-58734761D02*
X244056607Y-58782380D01*
X243866130Y-58782380D01*
X243770892Y-58734761D01*
X243723273Y-58639523D01*
X243723273Y-58258571D01*
X243770892Y-58163333D01*
X243866130Y-58115714D01*
X244056607Y-58115714D01*
X244151845Y-58163333D01*
X244199464Y-58258571D01*
X244199464Y-58353809D01*
X243723273Y-58449047D01*
X244628035Y-58782380D02*
X244628035Y-58115714D01*
X244628035Y-58306190D02*
X244675654Y-58210952D01*
X244723273Y-58163333D01*
X244818511Y-58115714D01*
X244913750Y-58115714D01*
D12*
%TO.C,G\u002A\u002A\u002A*%
G36*
X234337049Y-79815988D02*
G01*
X234451748Y-79842102D01*
X234672850Y-79932639D01*
X234864293Y-80059036D01*
X235021222Y-80216988D01*
X235138782Y-80402188D01*
X235173437Y-80482254D01*
X235207464Y-80575731D01*
X235219083Y-80634761D01*
X235201798Y-80667261D01*
X235149112Y-80681149D01*
X235054529Y-80684343D01*
X235007569Y-80684400D01*
X234793639Y-80684399D01*
X234762733Y-80590754D01*
X234696143Y-80464894D01*
X234589638Y-80353503D01*
X234453463Y-80263012D01*
X234297864Y-80199854D01*
X234133085Y-80170461D01*
X234091199Y-80169142D01*
X233908869Y-80191910D01*
X233738565Y-80256221D01*
X233589016Y-80356089D01*
X233468953Y-80485526D01*
X233387105Y-80638547D01*
X233380907Y-80656267D01*
X233347356Y-80814924D01*
X233341573Y-80990402D01*
X233362259Y-81164327D01*
X233408113Y-81318322D01*
X233431175Y-81366531D01*
X233536904Y-81517138D01*
X233671779Y-81629303D01*
X233819102Y-81700915D01*
X233997789Y-81743926D01*
X234177259Y-81743773D01*
X234349072Y-81703785D01*
X234504790Y-81627291D01*
X234635974Y-81517622D01*
X234734184Y-81378106D01*
X234755767Y-81331389D01*
X234802400Y-81217990D01*
X235011950Y-81217895D01*
X235114668Y-81218561D01*
X235176784Y-81222620D01*
X235208495Y-81232992D01*
X235219997Y-81252594D01*
X235221500Y-81277887D01*
X235205975Y-81352902D01*
X235164424Y-81452781D01*
X235104378Y-81564252D01*
X235033369Y-81674041D01*
X234958929Y-81768876D01*
X234920038Y-81809119D01*
X234740264Y-81944131D01*
X234531407Y-82044811D01*
X234304560Y-82107913D01*
X234070818Y-82130194D01*
X233875300Y-82114664D01*
X233682087Y-82063943D01*
X233494451Y-81980877D01*
X233324760Y-81872860D01*
X233185383Y-81747289D01*
X233118489Y-81662165D01*
X233037160Y-81527841D01*
X232981270Y-81402887D01*
X232946691Y-81272138D01*
X232929293Y-81120430D01*
X232924914Y-80951100D01*
X232926419Y-80810194D01*
X232932121Y-80706188D01*
X232943798Y-80625236D01*
X232963230Y-80553494D01*
X232982851Y-80500197D01*
X233088497Y-80300543D01*
X233234762Y-80124026D01*
X233413876Y-79978316D01*
X233618069Y-79871085D01*
X233621300Y-79869802D01*
X233777283Y-79825914D01*
X233961255Y-79801892D01*
X234154187Y-79798372D01*
X234337049Y-79815988D01*
G37*
X234337049Y-79815988D02*
X234451748Y-79842102D01*
X234672850Y-79932639D01*
X234864293Y-80059036D01*
X235021222Y-80216988D01*
X235138782Y-80402188D01*
X235173437Y-80482254D01*
X235207464Y-80575731D01*
X235219083Y-80634761D01*
X235201798Y-80667261D01*
X235149112Y-80681149D01*
X235054529Y-80684343D01*
X235007569Y-80684400D01*
X234793639Y-80684399D01*
X234762733Y-80590754D01*
X234696143Y-80464894D01*
X234589638Y-80353503D01*
X234453463Y-80263012D01*
X234297864Y-80199854D01*
X234133085Y-80170461D01*
X234091199Y-80169142D01*
X233908869Y-80191910D01*
X233738565Y-80256221D01*
X233589016Y-80356089D01*
X233468953Y-80485526D01*
X233387105Y-80638547D01*
X233380907Y-80656267D01*
X233347356Y-80814924D01*
X233341573Y-80990402D01*
X233362259Y-81164327D01*
X233408113Y-81318322D01*
X233431175Y-81366531D01*
X233536904Y-81517138D01*
X233671779Y-81629303D01*
X233819102Y-81700915D01*
X233997789Y-81743926D01*
X234177259Y-81743773D01*
X234349072Y-81703785D01*
X234504790Y-81627291D01*
X234635974Y-81517622D01*
X234734184Y-81378106D01*
X234755767Y-81331389D01*
X234802400Y-81217990D01*
X235011950Y-81217895D01*
X235114668Y-81218561D01*
X235176784Y-81222620D01*
X235208495Y-81232992D01*
X235219997Y-81252594D01*
X235221500Y-81277887D01*
X235205975Y-81352902D01*
X235164424Y-81452781D01*
X235104378Y-81564252D01*
X235033369Y-81674041D01*
X234958929Y-81768876D01*
X234920038Y-81809119D01*
X234740264Y-81944131D01*
X234531407Y-82044811D01*
X234304560Y-82107913D01*
X234070818Y-82130194D01*
X233875300Y-82114664D01*
X233682087Y-82063943D01*
X233494451Y-81980877D01*
X233324760Y-81872860D01*
X233185383Y-81747289D01*
X233118489Y-81662165D01*
X233037160Y-81527841D01*
X232981270Y-81402887D01*
X232946691Y-81272138D01*
X232929293Y-81120430D01*
X232924914Y-80951100D01*
X232926419Y-80810194D01*
X232932121Y-80706188D01*
X232943798Y-80625236D01*
X232963230Y-80553494D01*
X232982851Y-80500197D01*
X233088497Y-80300543D01*
X233234762Y-80124026D01*
X233413876Y-79978316D01*
X233618069Y-79871085D01*
X233621300Y-79869802D01*
X233777283Y-79825914D01*
X233961255Y-79801892D01*
X234154187Y-79798372D01*
X234337049Y-79815988D01*
G36*
X236719986Y-79801840D02*
G01*
X236973440Y-79837111D01*
X237201525Y-79913807D01*
X237401175Y-80029865D01*
X237569325Y-80183222D01*
X237702908Y-80371816D01*
X237767456Y-80506600D01*
X237799018Y-80620705D01*
X237819285Y-80768371D01*
X237828030Y-80933580D01*
X237825025Y-81100313D01*
X237810043Y-81252551D01*
X237782856Y-81374275D01*
X237779905Y-81382900D01*
X237683519Y-81580172D01*
X237544275Y-81756574D01*
X237367679Y-81906769D01*
X237159241Y-82025421D01*
X237084340Y-82056770D01*
X236952321Y-82093019D01*
X236789335Y-82116467D01*
X236613781Y-82126287D01*
X236444060Y-82121650D01*
X236298574Y-82101729D01*
X236265753Y-82093599D01*
X236051853Y-82011401D01*
X235857121Y-81893093D01*
X235690155Y-81745635D01*
X235559556Y-81575986D01*
X235508682Y-81480895D01*
X235470337Y-81378102D01*
X235436151Y-81253876D01*
X235416099Y-81150628D01*
X235408748Y-81009224D01*
X235833074Y-81009224D01*
X235847409Y-81156866D01*
X235867541Y-81238207D01*
X235920794Y-81350941D01*
X236001195Y-81466333D01*
X236095178Y-81567702D01*
X236189174Y-81638365D01*
X236195958Y-81642020D01*
X236392698Y-81718118D01*
X236597689Y-81748463D01*
X236801104Y-81732243D01*
X236913664Y-81701468D01*
X237090944Y-81614347D01*
X237235410Y-81490677D01*
X237342587Y-81334341D01*
X237347020Y-81325466D01*
X237400010Y-81169401D01*
X237421993Y-80992298D01*
X237412639Y-80813017D01*
X237371621Y-80650421D01*
X237359289Y-80620900D01*
X237261958Y-80461906D01*
X237134261Y-80337092D01*
X236983564Y-80246623D01*
X236817236Y-80190666D01*
X236642642Y-80169386D01*
X236467149Y-80182949D01*
X236298124Y-80231522D01*
X236142934Y-80315270D01*
X236008945Y-80434360D01*
X235903965Y-80588101D01*
X235862419Y-80705807D01*
X235838433Y-80852526D01*
X235833074Y-81009224D01*
X235408748Y-81009224D01*
X235403238Y-80903236D01*
X235435650Y-80668693D01*
X235510850Y-80452052D01*
X235626357Y-80258365D01*
X235779687Y-80092687D01*
X235968360Y-79960069D01*
X236012419Y-79936803D01*
X236186705Y-79862053D01*
X236358030Y-79817281D01*
X236543905Y-79799147D01*
X236719986Y-79801840D01*
G37*
X236719986Y-79801840D02*
X236973440Y-79837111D01*
X237201525Y-79913807D01*
X237401175Y-80029865D01*
X237569325Y-80183222D01*
X237702908Y-80371816D01*
X237767456Y-80506600D01*
X237799018Y-80620705D01*
X237819285Y-80768371D01*
X237828030Y-80933580D01*
X237825025Y-81100313D01*
X237810043Y-81252551D01*
X237782856Y-81374275D01*
X237779905Y-81382900D01*
X237683519Y-81580172D01*
X237544275Y-81756574D01*
X237367679Y-81906769D01*
X237159241Y-82025421D01*
X237084340Y-82056770D01*
X236952321Y-82093019D01*
X236789335Y-82116467D01*
X236613781Y-82126287D01*
X236444060Y-82121650D01*
X236298574Y-82101729D01*
X236265753Y-82093599D01*
X236051853Y-82011401D01*
X235857121Y-81893093D01*
X235690155Y-81745635D01*
X235559556Y-81575986D01*
X235508682Y-81480895D01*
X235470337Y-81378102D01*
X235436151Y-81253876D01*
X235416099Y-81150628D01*
X235408748Y-81009224D01*
X235833074Y-81009224D01*
X235847409Y-81156866D01*
X235867541Y-81238207D01*
X235920794Y-81350941D01*
X236001195Y-81466333D01*
X236095178Y-81567702D01*
X236189174Y-81638365D01*
X236195958Y-81642020D01*
X236392698Y-81718118D01*
X236597689Y-81748463D01*
X236801104Y-81732243D01*
X236913664Y-81701468D01*
X237090944Y-81614347D01*
X237235410Y-81490677D01*
X237342587Y-81334341D01*
X237347020Y-81325466D01*
X237400010Y-81169401D01*
X237421993Y-80992298D01*
X237412639Y-80813017D01*
X237371621Y-80650421D01*
X237359289Y-80620900D01*
X237261958Y-80461906D01*
X237134261Y-80337092D01*
X236983564Y-80246623D01*
X236817236Y-80190666D01*
X236642642Y-80169386D01*
X236467149Y-80182949D01*
X236298124Y-80231522D01*
X236142934Y-80315270D01*
X236008945Y-80434360D01*
X235903965Y-80588101D01*
X235862419Y-80705807D01*
X235838433Y-80852526D01*
X235833074Y-81009224D01*
X235408748Y-81009224D01*
X235403238Y-80903236D01*
X235435650Y-80668693D01*
X235510850Y-80452052D01*
X235626357Y-80258365D01*
X235779687Y-80092687D01*
X235968360Y-79960069D01*
X236012419Y-79936803D01*
X236186705Y-79862053D01*
X236358030Y-79817281D01*
X236543905Y-79799147D01*
X236719986Y-79801840D01*
G36*
X243511530Y-79818406D02*
G01*
X243733894Y-79884705D01*
X243932133Y-79990213D01*
X244102079Y-80130847D01*
X244239559Y-80302524D01*
X244340404Y-80501162D01*
X244400443Y-80722678D01*
X244416300Y-80918336D01*
X244416300Y-81065400D01*
X242511300Y-81065400D01*
X242511300Y-81138498D01*
X242534217Y-81261649D01*
X242597655Y-81389172D01*
X242693643Y-81510298D01*
X242814211Y-81614256D01*
X242903388Y-81668239D01*
X243039242Y-81719647D01*
X243199904Y-81744683D01*
X243212872Y-81745596D01*
X243395129Y-81743127D01*
X243548803Y-81706329D01*
X243686495Y-81630614D01*
X243801193Y-81531419D01*
X243937013Y-81395600D01*
X244140268Y-81395600D01*
X244240811Y-81396246D01*
X244300033Y-81400122D01*
X244327410Y-81410133D01*
X244332419Y-81429182D01*
X244326730Y-81452750D01*
X244288417Y-81538398D01*
X244223499Y-81641086D01*
X244143774Y-81744606D01*
X244061044Y-81832746D01*
X244030857Y-81859173D01*
X243831990Y-81988773D01*
X243609302Y-82078237D01*
X243372596Y-82125509D01*
X243131673Y-82128535D01*
X242920357Y-82092004D01*
X242699245Y-82007879D01*
X242504425Y-81884023D01*
X242340825Y-81725554D01*
X242213374Y-81537590D01*
X242127001Y-81325249D01*
X242107844Y-81248299D01*
X242077308Y-80998242D01*
X242091041Y-80758661D01*
X242103222Y-80709800D01*
X242512557Y-80709800D01*
X243235828Y-80709800D01*
X243448414Y-80709528D01*
X243615499Y-80708521D01*
X243742379Y-80706494D01*
X243834351Y-80703158D01*
X243896712Y-80698229D01*
X243934759Y-80691420D01*
X243953788Y-80682444D01*
X243959097Y-80671014D01*
X243959100Y-80670688D01*
X243938723Y-80588758D01*
X243884025Y-80493173D01*
X243804652Y-80395722D01*
X243710248Y-80308195D01*
X243610461Y-80242383D01*
X243607403Y-80240826D01*
X243468347Y-80193277D01*
X243304233Y-80172014D01*
X243133428Y-80176960D01*
X242974298Y-80208039D01*
X242882560Y-80243844D01*
X242736026Y-80345486D01*
X242617149Y-80486797D01*
X242536765Y-80646127D01*
X242512557Y-80709800D01*
X242103222Y-80709800D01*
X242146867Y-80534735D01*
X242242606Y-80331643D01*
X242376079Y-80154563D01*
X242545108Y-80008672D01*
X242657999Y-79940689D01*
X242852603Y-79856746D01*
X243049926Y-79809901D01*
X243269213Y-79795400D01*
X243511530Y-79818406D01*
G37*
X243511530Y-79818406D02*
X243733894Y-79884705D01*
X243932133Y-79990213D01*
X244102079Y-80130847D01*
X244239559Y-80302524D01*
X244340404Y-80501162D01*
X244400443Y-80722678D01*
X244416300Y-80918336D01*
X244416300Y-81065400D01*
X242511300Y-81065400D01*
X242511300Y-81138498D01*
X242534217Y-81261649D01*
X242597655Y-81389172D01*
X242693643Y-81510298D01*
X242814211Y-81614256D01*
X242903388Y-81668239D01*
X243039242Y-81719647D01*
X243199904Y-81744683D01*
X243212872Y-81745596D01*
X243395129Y-81743127D01*
X243548803Y-81706329D01*
X243686495Y-81630614D01*
X243801193Y-81531419D01*
X243937013Y-81395600D01*
X244140268Y-81395600D01*
X244240811Y-81396246D01*
X244300033Y-81400122D01*
X244327410Y-81410133D01*
X244332419Y-81429182D01*
X244326730Y-81452750D01*
X244288417Y-81538398D01*
X244223499Y-81641086D01*
X244143774Y-81744606D01*
X244061044Y-81832746D01*
X244030857Y-81859173D01*
X243831990Y-81988773D01*
X243609302Y-82078237D01*
X243372596Y-82125509D01*
X243131673Y-82128535D01*
X242920357Y-82092004D01*
X242699245Y-82007879D01*
X242504425Y-81884023D01*
X242340825Y-81725554D01*
X242213374Y-81537590D01*
X242127001Y-81325249D01*
X242107844Y-81248299D01*
X242077308Y-80998242D01*
X242091041Y-80758661D01*
X242103222Y-80709800D01*
X242512557Y-80709800D01*
X243235828Y-80709800D01*
X243448414Y-80709528D01*
X243615499Y-80708521D01*
X243742379Y-80706494D01*
X243834351Y-80703158D01*
X243896712Y-80698229D01*
X243934759Y-80691420D01*
X243953788Y-80682444D01*
X243959097Y-80671014D01*
X243959100Y-80670688D01*
X243938723Y-80588758D01*
X243884025Y-80493173D01*
X243804652Y-80395722D01*
X243710248Y-80308195D01*
X243610461Y-80242383D01*
X243607403Y-80240826D01*
X243468347Y-80193277D01*
X243304233Y-80172014D01*
X243133428Y-80176960D01*
X242974298Y-80208039D01*
X242882560Y-80243844D01*
X242736026Y-80345486D01*
X242617149Y-80486797D01*
X242536765Y-80646127D01*
X242512557Y-80709800D01*
X242103222Y-80709800D01*
X242146867Y-80534735D01*
X242242606Y-80331643D01*
X242376079Y-80154563D01*
X242545108Y-80008672D01*
X242657999Y-79940689D01*
X242852603Y-79856746D01*
X243049926Y-79809901D01*
X243269213Y-79795400D01*
X243511530Y-79818406D01*
G36*
X239317237Y-79785436D02*
G01*
X239463300Y-79801961D01*
X239463300Y-80172729D01*
X239329950Y-80159068D01*
X239145851Y-80164139D01*
X238976452Y-80215922D01*
X238827881Y-80311056D01*
X238706266Y-80446179D01*
X238657389Y-80527869D01*
X238574300Y-80688838D01*
X238574300Y-82081400D01*
X238142500Y-82081400D01*
X238142500Y-79818745D01*
X238352050Y-79826122D01*
X238561600Y-79833500D01*
X238587000Y-80055358D01*
X238637769Y-79998946D01*
X238755946Y-79902357D01*
X238907798Y-79831267D01*
X239081042Y-79789536D01*
X239263390Y-79781025D01*
X239317237Y-79785436D01*
G37*
X239317237Y-79785436D02*
X239463300Y-79801961D01*
X239463300Y-80172729D01*
X239329950Y-80159068D01*
X239145851Y-80164139D01*
X238976452Y-80215922D01*
X238827881Y-80311056D01*
X238706266Y-80446179D01*
X238657389Y-80527869D01*
X238574300Y-80688838D01*
X238574300Y-82081400D01*
X238142500Y-82081400D01*
X238142500Y-79818745D01*
X238352050Y-79826122D01*
X238561600Y-79833500D01*
X238587000Y-80055358D01*
X238637769Y-79998946D01*
X238755946Y-79902357D01*
X238907798Y-79831267D01*
X239081042Y-79789536D01*
X239263390Y-79781025D01*
X239317237Y-79785436D01*
G36*
X240979491Y-79808791D02*
G01*
X241073575Y-79812451D01*
X241143990Y-79821455D01*
X241204301Y-79838181D01*
X241268070Y-79865005D01*
X241322251Y-79891171D01*
X241493298Y-79999513D01*
X241626548Y-80138673D01*
X241723879Y-80311378D01*
X241787168Y-80520354D01*
X241798575Y-80582800D01*
X241805864Y-80653770D01*
X241812403Y-80766525D01*
X241817903Y-80912049D01*
X241822074Y-81081330D01*
X241824627Y-81265353D01*
X241825308Y-81414650D01*
X241825500Y-82081400D01*
X241393700Y-82081400D01*
X241393700Y-81362110D01*
X241393093Y-81133457D01*
X241391100Y-80949758D01*
X241387463Y-80805177D01*
X241381922Y-80693882D01*
X241374219Y-80610037D01*
X241364095Y-80547809D01*
X241356197Y-80516534D01*
X241291437Y-80378307D01*
X241190530Y-80275106D01*
X241055103Y-80207984D01*
X240886780Y-80177999D01*
X240832312Y-80176400D01*
X240669841Y-80186817D01*
X240539862Y-80221694D01*
X240427764Y-80286472D01*
X240347860Y-80356726D01*
X240293673Y-80413731D01*
X240250291Y-80469501D01*
X240216523Y-80530365D01*
X240191179Y-80602652D01*
X240173067Y-80692689D01*
X240160996Y-80806805D01*
X240153777Y-80951327D01*
X240150217Y-81132585D01*
X240149126Y-81356907D01*
X240149100Y-81412910D01*
X240149100Y-82081400D01*
X239717300Y-82081400D01*
X239717300Y-79820800D01*
X240149100Y-79820800D01*
X240149100Y-80078707D01*
X240231364Y-79996442D01*
X240317752Y-79920836D01*
X240408455Y-79867569D01*
X240514478Y-79833282D01*
X240646824Y-79814616D01*
X240816495Y-79808211D01*
X240848174Y-79808100D01*
X240979491Y-79808791D01*
G37*
X240979491Y-79808791D02*
X241073575Y-79812451D01*
X241143990Y-79821455D01*
X241204301Y-79838181D01*
X241268070Y-79865005D01*
X241322251Y-79891171D01*
X241493298Y-79999513D01*
X241626548Y-80138673D01*
X241723879Y-80311378D01*
X241787168Y-80520354D01*
X241798575Y-80582800D01*
X241805864Y-80653770D01*
X241812403Y-80766525D01*
X241817903Y-80912049D01*
X241822074Y-81081330D01*
X241824627Y-81265353D01*
X241825308Y-81414650D01*
X241825500Y-82081400D01*
X241393700Y-82081400D01*
X241393700Y-81362110D01*
X241393093Y-81133457D01*
X241391100Y-80949758D01*
X241387463Y-80805177D01*
X241381922Y-80693882D01*
X241374219Y-80610037D01*
X241364095Y-80547809D01*
X241356197Y-80516534D01*
X241291437Y-80378307D01*
X241190530Y-80275106D01*
X241055103Y-80207984D01*
X240886780Y-80177999D01*
X240832312Y-80176400D01*
X240669841Y-80186817D01*
X240539862Y-80221694D01*
X240427764Y-80286472D01*
X240347860Y-80356726D01*
X240293673Y-80413731D01*
X240250291Y-80469501D01*
X240216523Y-80530365D01*
X240191179Y-80602652D01*
X240173067Y-80692689D01*
X240160996Y-80806805D01*
X240153777Y-80951327D01*
X240150217Y-81132585D01*
X240149126Y-81356907D01*
X240149100Y-81412910D01*
X240149100Y-82081400D01*
X239717300Y-82081400D01*
X239717300Y-79820800D01*
X240149100Y-79820800D01*
X240149100Y-80078707D01*
X240231364Y-79996442D01*
X240317752Y-79920836D01*
X240408455Y-79867569D01*
X240514478Y-79833282D01*
X240646824Y-79814616D01*
X240816495Y-79808211D01*
X240848174Y-79808100D01*
X240979491Y-79808791D01*
G36*
X53827049Y-79665988D02*
G01*
X53941748Y-79692102D01*
X54162850Y-79782639D01*
X54354293Y-79909036D01*
X54511222Y-80066988D01*
X54628782Y-80252188D01*
X54663437Y-80332254D01*
X54697464Y-80425731D01*
X54709083Y-80484761D01*
X54691798Y-80517261D01*
X54639112Y-80531149D01*
X54544529Y-80534343D01*
X54497569Y-80534400D01*
X54283639Y-80534399D01*
X54252733Y-80440754D01*
X54186143Y-80314894D01*
X54079638Y-80203503D01*
X53943463Y-80113012D01*
X53787864Y-80049854D01*
X53623085Y-80020461D01*
X53581199Y-80019142D01*
X53398869Y-80041910D01*
X53228565Y-80106221D01*
X53079016Y-80206089D01*
X52958953Y-80335526D01*
X52877105Y-80488547D01*
X52870907Y-80506267D01*
X52837356Y-80664924D01*
X52831573Y-80840402D01*
X52852259Y-81014327D01*
X52898113Y-81168322D01*
X52921175Y-81216531D01*
X53026904Y-81367138D01*
X53161779Y-81479303D01*
X53309102Y-81550915D01*
X53487789Y-81593926D01*
X53667259Y-81593773D01*
X53839072Y-81553785D01*
X53994790Y-81477291D01*
X54125974Y-81367622D01*
X54224184Y-81228106D01*
X54245767Y-81181389D01*
X54292400Y-81067990D01*
X54501950Y-81067895D01*
X54604668Y-81068561D01*
X54666784Y-81072620D01*
X54698495Y-81082992D01*
X54709997Y-81102594D01*
X54711500Y-81127887D01*
X54695975Y-81202902D01*
X54654424Y-81302781D01*
X54594378Y-81414252D01*
X54523369Y-81524041D01*
X54448929Y-81618876D01*
X54410038Y-81659119D01*
X54230264Y-81794131D01*
X54021407Y-81894811D01*
X53794560Y-81957913D01*
X53560818Y-81980194D01*
X53365300Y-81964664D01*
X53172087Y-81913943D01*
X52984451Y-81830877D01*
X52814760Y-81722860D01*
X52675383Y-81597289D01*
X52608489Y-81512165D01*
X52527160Y-81377841D01*
X52471270Y-81252887D01*
X52436691Y-81122138D01*
X52419293Y-80970430D01*
X52414914Y-80801100D01*
X52416419Y-80660194D01*
X52422121Y-80556188D01*
X52433798Y-80475236D01*
X52453230Y-80403494D01*
X52472851Y-80350197D01*
X52578497Y-80150543D01*
X52724762Y-79974026D01*
X52903876Y-79828316D01*
X53108069Y-79721085D01*
X53111300Y-79719802D01*
X53267283Y-79675914D01*
X53451255Y-79651892D01*
X53644187Y-79648372D01*
X53827049Y-79665988D01*
G37*
X53827049Y-79665988D02*
X53941748Y-79692102D01*
X54162850Y-79782639D01*
X54354293Y-79909036D01*
X54511222Y-80066988D01*
X54628782Y-80252188D01*
X54663437Y-80332254D01*
X54697464Y-80425731D01*
X54709083Y-80484761D01*
X54691798Y-80517261D01*
X54639112Y-80531149D01*
X54544529Y-80534343D01*
X54497569Y-80534400D01*
X54283639Y-80534399D01*
X54252733Y-80440754D01*
X54186143Y-80314894D01*
X54079638Y-80203503D01*
X53943463Y-80113012D01*
X53787864Y-80049854D01*
X53623085Y-80020461D01*
X53581199Y-80019142D01*
X53398869Y-80041910D01*
X53228565Y-80106221D01*
X53079016Y-80206089D01*
X52958953Y-80335526D01*
X52877105Y-80488547D01*
X52870907Y-80506267D01*
X52837356Y-80664924D01*
X52831573Y-80840402D01*
X52852259Y-81014327D01*
X52898113Y-81168322D01*
X52921175Y-81216531D01*
X53026904Y-81367138D01*
X53161779Y-81479303D01*
X53309102Y-81550915D01*
X53487789Y-81593926D01*
X53667259Y-81593773D01*
X53839072Y-81553785D01*
X53994790Y-81477291D01*
X54125974Y-81367622D01*
X54224184Y-81228106D01*
X54245767Y-81181389D01*
X54292400Y-81067990D01*
X54501950Y-81067895D01*
X54604668Y-81068561D01*
X54666784Y-81072620D01*
X54698495Y-81082992D01*
X54709997Y-81102594D01*
X54711500Y-81127887D01*
X54695975Y-81202902D01*
X54654424Y-81302781D01*
X54594378Y-81414252D01*
X54523369Y-81524041D01*
X54448929Y-81618876D01*
X54410038Y-81659119D01*
X54230264Y-81794131D01*
X54021407Y-81894811D01*
X53794560Y-81957913D01*
X53560818Y-81980194D01*
X53365300Y-81964664D01*
X53172087Y-81913943D01*
X52984451Y-81830877D01*
X52814760Y-81722860D01*
X52675383Y-81597289D01*
X52608489Y-81512165D01*
X52527160Y-81377841D01*
X52471270Y-81252887D01*
X52436691Y-81122138D01*
X52419293Y-80970430D01*
X52414914Y-80801100D01*
X52416419Y-80660194D01*
X52422121Y-80556188D01*
X52433798Y-80475236D01*
X52453230Y-80403494D01*
X52472851Y-80350197D01*
X52578497Y-80150543D01*
X52724762Y-79974026D01*
X52903876Y-79828316D01*
X53108069Y-79721085D01*
X53111300Y-79719802D01*
X53267283Y-79675914D01*
X53451255Y-79651892D01*
X53644187Y-79648372D01*
X53827049Y-79665988D01*
G36*
X56209986Y-79651840D02*
G01*
X56463440Y-79687111D01*
X56691525Y-79763807D01*
X56891175Y-79879865D01*
X57059325Y-80033222D01*
X57192908Y-80221816D01*
X57257456Y-80356600D01*
X57289018Y-80470705D01*
X57309285Y-80618371D01*
X57318030Y-80783580D01*
X57315025Y-80950313D01*
X57300043Y-81102551D01*
X57272856Y-81224275D01*
X57269905Y-81232900D01*
X57173519Y-81430172D01*
X57034275Y-81606574D01*
X56857679Y-81756769D01*
X56649241Y-81875421D01*
X56574340Y-81906770D01*
X56442321Y-81943019D01*
X56279335Y-81966467D01*
X56103781Y-81976287D01*
X55934060Y-81971650D01*
X55788574Y-81951729D01*
X55755753Y-81943599D01*
X55541853Y-81861401D01*
X55347121Y-81743093D01*
X55180155Y-81595635D01*
X55049556Y-81425986D01*
X54998682Y-81330895D01*
X54960337Y-81228102D01*
X54926151Y-81103876D01*
X54906099Y-81000628D01*
X54898748Y-80859224D01*
X55323074Y-80859224D01*
X55337409Y-81006866D01*
X55357541Y-81088207D01*
X55410794Y-81200941D01*
X55491195Y-81316333D01*
X55585178Y-81417702D01*
X55679174Y-81488365D01*
X55685958Y-81492020D01*
X55882698Y-81568118D01*
X56087689Y-81598463D01*
X56291104Y-81582243D01*
X56403664Y-81551468D01*
X56580944Y-81464347D01*
X56725410Y-81340677D01*
X56832587Y-81184341D01*
X56837020Y-81175466D01*
X56890010Y-81019401D01*
X56911993Y-80842298D01*
X56902639Y-80663017D01*
X56861621Y-80500421D01*
X56849289Y-80470900D01*
X56751958Y-80311906D01*
X56624261Y-80187092D01*
X56473564Y-80096623D01*
X56307236Y-80040666D01*
X56132642Y-80019386D01*
X55957149Y-80032949D01*
X55788124Y-80081522D01*
X55632934Y-80165270D01*
X55498945Y-80284360D01*
X55393965Y-80438101D01*
X55352419Y-80555807D01*
X55328433Y-80702526D01*
X55323074Y-80859224D01*
X54898748Y-80859224D01*
X54893238Y-80753236D01*
X54925650Y-80518693D01*
X55000850Y-80302052D01*
X55116357Y-80108365D01*
X55269687Y-79942687D01*
X55458360Y-79810069D01*
X55502419Y-79786803D01*
X55676705Y-79712053D01*
X55848030Y-79667281D01*
X56033905Y-79649147D01*
X56209986Y-79651840D01*
G37*
X56209986Y-79651840D02*
X56463440Y-79687111D01*
X56691525Y-79763807D01*
X56891175Y-79879865D01*
X57059325Y-80033222D01*
X57192908Y-80221816D01*
X57257456Y-80356600D01*
X57289018Y-80470705D01*
X57309285Y-80618371D01*
X57318030Y-80783580D01*
X57315025Y-80950313D01*
X57300043Y-81102551D01*
X57272856Y-81224275D01*
X57269905Y-81232900D01*
X57173519Y-81430172D01*
X57034275Y-81606574D01*
X56857679Y-81756769D01*
X56649241Y-81875421D01*
X56574340Y-81906770D01*
X56442321Y-81943019D01*
X56279335Y-81966467D01*
X56103781Y-81976287D01*
X55934060Y-81971650D01*
X55788574Y-81951729D01*
X55755753Y-81943599D01*
X55541853Y-81861401D01*
X55347121Y-81743093D01*
X55180155Y-81595635D01*
X55049556Y-81425986D01*
X54998682Y-81330895D01*
X54960337Y-81228102D01*
X54926151Y-81103876D01*
X54906099Y-81000628D01*
X54898748Y-80859224D01*
X55323074Y-80859224D01*
X55337409Y-81006866D01*
X55357541Y-81088207D01*
X55410794Y-81200941D01*
X55491195Y-81316333D01*
X55585178Y-81417702D01*
X55679174Y-81488365D01*
X55685958Y-81492020D01*
X55882698Y-81568118D01*
X56087689Y-81598463D01*
X56291104Y-81582243D01*
X56403664Y-81551468D01*
X56580944Y-81464347D01*
X56725410Y-81340677D01*
X56832587Y-81184341D01*
X56837020Y-81175466D01*
X56890010Y-81019401D01*
X56911993Y-80842298D01*
X56902639Y-80663017D01*
X56861621Y-80500421D01*
X56849289Y-80470900D01*
X56751958Y-80311906D01*
X56624261Y-80187092D01*
X56473564Y-80096623D01*
X56307236Y-80040666D01*
X56132642Y-80019386D01*
X55957149Y-80032949D01*
X55788124Y-80081522D01*
X55632934Y-80165270D01*
X55498945Y-80284360D01*
X55393965Y-80438101D01*
X55352419Y-80555807D01*
X55328433Y-80702526D01*
X55323074Y-80859224D01*
X54898748Y-80859224D01*
X54893238Y-80753236D01*
X54925650Y-80518693D01*
X55000850Y-80302052D01*
X55116357Y-80108365D01*
X55269687Y-79942687D01*
X55458360Y-79810069D01*
X55502419Y-79786803D01*
X55676705Y-79712053D01*
X55848030Y-79667281D01*
X56033905Y-79649147D01*
X56209986Y-79651840D01*
G36*
X63001530Y-79668406D02*
G01*
X63223894Y-79734705D01*
X63422133Y-79840213D01*
X63592079Y-79980847D01*
X63729559Y-80152524D01*
X63830404Y-80351162D01*
X63890443Y-80572678D01*
X63906300Y-80768336D01*
X63906300Y-80915400D01*
X62001300Y-80915400D01*
X62001300Y-80988498D01*
X62024217Y-81111649D01*
X62087655Y-81239172D01*
X62183643Y-81360298D01*
X62304211Y-81464256D01*
X62393388Y-81518239D01*
X62529242Y-81569647D01*
X62689904Y-81594683D01*
X62702872Y-81595596D01*
X62885129Y-81593127D01*
X63038803Y-81556329D01*
X63176495Y-81480614D01*
X63291193Y-81381419D01*
X63427013Y-81245600D01*
X63630268Y-81245600D01*
X63730811Y-81246246D01*
X63790033Y-81250122D01*
X63817410Y-81260133D01*
X63822419Y-81279182D01*
X63816730Y-81302750D01*
X63778417Y-81388398D01*
X63713499Y-81491086D01*
X63633774Y-81594606D01*
X63551044Y-81682746D01*
X63520857Y-81709173D01*
X63321990Y-81838773D01*
X63099302Y-81928237D01*
X62862596Y-81975509D01*
X62621673Y-81978535D01*
X62410357Y-81942004D01*
X62189245Y-81857879D01*
X61994425Y-81734023D01*
X61830825Y-81575554D01*
X61703374Y-81387590D01*
X61617001Y-81175249D01*
X61597844Y-81098299D01*
X61567308Y-80848242D01*
X61581041Y-80608661D01*
X61593222Y-80559800D01*
X62002557Y-80559800D01*
X62725828Y-80559800D01*
X62938414Y-80559528D01*
X63105499Y-80558521D01*
X63232379Y-80556494D01*
X63324351Y-80553158D01*
X63386712Y-80548229D01*
X63424759Y-80541420D01*
X63443788Y-80532444D01*
X63449097Y-80521014D01*
X63449100Y-80520688D01*
X63428723Y-80438758D01*
X63374025Y-80343173D01*
X63294652Y-80245722D01*
X63200248Y-80158195D01*
X63100461Y-80092383D01*
X63097403Y-80090826D01*
X62958347Y-80043277D01*
X62794233Y-80022014D01*
X62623428Y-80026960D01*
X62464298Y-80058039D01*
X62372560Y-80093844D01*
X62226026Y-80195486D01*
X62107149Y-80336797D01*
X62026765Y-80496127D01*
X62002557Y-80559800D01*
X61593222Y-80559800D01*
X61636867Y-80384735D01*
X61732606Y-80181643D01*
X61866079Y-80004563D01*
X62035108Y-79858672D01*
X62147999Y-79790689D01*
X62342603Y-79706746D01*
X62539926Y-79659901D01*
X62759213Y-79645400D01*
X63001530Y-79668406D01*
G37*
X63001530Y-79668406D02*
X63223894Y-79734705D01*
X63422133Y-79840213D01*
X63592079Y-79980847D01*
X63729559Y-80152524D01*
X63830404Y-80351162D01*
X63890443Y-80572678D01*
X63906300Y-80768336D01*
X63906300Y-80915400D01*
X62001300Y-80915400D01*
X62001300Y-80988498D01*
X62024217Y-81111649D01*
X62087655Y-81239172D01*
X62183643Y-81360298D01*
X62304211Y-81464256D01*
X62393388Y-81518239D01*
X62529242Y-81569647D01*
X62689904Y-81594683D01*
X62702872Y-81595596D01*
X62885129Y-81593127D01*
X63038803Y-81556329D01*
X63176495Y-81480614D01*
X63291193Y-81381419D01*
X63427013Y-81245600D01*
X63630268Y-81245600D01*
X63730811Y-81246246D01*
X63790033Y-81250122D01*
X63817410Y-81260133D01*
X63822419Y-81279182D01*
X63816730Y-81302750D01*
X63778417Y-81388398D01*
X63713499Y-81491086D01*
X63633774Y-81594606D01*
X63551044Y-81682746D01*
X63520857Y-81709173D01*
X63321990Y-81838773D01*
X63099302Y-81928237D01*
X62862596Y-81975509D01*
X62621673Y-81978535D01*
X62410357Y-81942004D01*
X62189245Y-81857879D01*
X61994425Y-81734023D01*
X61830825Y-81575554D01*
X61703374Y-81387590D01*
X61617001Y-81175249D01*
X61597844Y-81098299D01*
X61567308Y-80848242D01*
X61581041Y-80608661D01*
X61593222Y-80559800D01*
X62002557Y-80559800D01*
X62725828Y-80559800D01*
X62938414Y-80559528D01*
X63105499Y-80558521D01*
X63232379Y-80556494D01*
X63324351Y-80553158D01*
X63386712Y-80548229D01*
X63424759Y-80541420D01*
X63443788Y-80532444D01*
X63449097Y-80521014D01*
X63449100Y-80520688D01*
X63428723Y-80438758D01*
X63374025Y-80343173D01*
X63294652Y-80245722D01*
X63200248Y-80158195D01*
X63100461Y-80092383D01*
X63097403Y-80090826D01*
X62958347Y-80043277D01*
X62794233Y-80022014D01*
X62623428Y-80026960D01*
X62464298Y-80058039D01*
X62372560Y-80093844D01*
X62226026Y-80195486D01*
X62107149Y-80336797D01*
X62026765Y-80496127D01*
X62002557Y-80559800D01*
X61593222Y-80559800D01*
X61636867Y-80384735D01*
X61732606Y-80181643D01*
X61866079Y-80004563D01*
X62035108Y-79858672D01*
X62147999Y-79790689D01*
X62342603Y-79706746D01*
X62539926Y-79659901D01*
X62759213Y-79645400D01*
X63001530Y-79668406D01*
G36*
X58807237Y-79635436D02*
G01*
X58953300Y-79651961D01*
X58953300Y-80022729D01*
X58819950Y-80009068D01*
X58635851Y-80014139D01*
X58466452Y-80065922D01*
X58317881Y-80161056D01*
X58196266Y-80296179D01*
X58147389Y-80377869D01*
X58064300Y-80538838D01*
X58064300Y-81931400D01*
X57632500Y-81931400D01*
X57632500Y-79668745D01*
X57842050Y-79676122D01*
X58051600Y-79683500D01*
X58077000Y-79905358D01*
X58127769Y-79848946D01*
X58245946Y-79752357D01*
X58397798Y-79681267D01*
X58571042Y-79639536D01*
X58753390Y-79631025D01*
X58807237Y-79635436D01*
G37*
X58807237Y-79635436D02*
X58953300Y-79651961D01*
X58953300Y-80022729D01*
X58819950Y-80009068D01*
X58635851Y-80014139D01*
X58466452Y-80065922D01*
X58317881Y-80161056D01*
X58196266Y-80296179D01*
X58147389Y-80377869D01*
X58064300Y-80538838D01*
X58064300Y-81931400D01*
X57632500Y-81931400D01*
X57632500Y-79668745D01*
X57842050Y-79676122D01*
X58051600Y-79683500D01*
X58077000Y-79905358D01*
X58127769Y-79848946D01*
X58245946Y-79752357D01*
X58397798Y-79681267D01*
X58571042Y-79639536D01*
X58753390Y-79631025D01*
X58807237Y-79635436D01*
G36*
X60469491Y-79658791D02*
G01*
X60563575Y-79662451D01*
X60633990Y-79671455D01*
X60694301Y-79688181D01*
X60758070Y-79715005D01*
X60812251Y-79741171D01*
X60983298Y-79849513D01*
X61116548Y-79988673D01*
X61213879Y-80161378D01*
X61277168Y-80370354D01*
X61288575Y-80432800D01*
X61295864Y-80503770D01*
X61302403Y-80616525D01*
X61307903Y-80762049D01*
X61312074Y-80931330D01*
X61314627Y-81115353D01*
X61315308Y-81264650D01*
X61315500Y-81931400D01*
X60883700Y-81931400D01*
X60883700Y-81212110D01*
X60883093Y-80983457D01*
X60881100Y-80799758D01*
X60877463Y-80655177D01*
X60871922Y-80543882D01*
X60864219Y-80460037D01*
X60854095Y-80397809D01*
X60846197Y-80366534D01*
X60781437Y-80228307D01*
X60680530Y-80125106D01*
X60545103Y-80057984D01*
X60376780Y-80027999D01*
X60322312Y-80026400D01*
X60159841Y-80036817D01*
X60029862Y-80071694D01*
X59917764Y-80136472D01*
X59837860Y-80206726D01*
X59783673Y-80263731D01*
X59740291Y-80319501D01*
X59706523Y-80380365D01*
X59681179Y-80452652D01*
X59663067Y-80542689D01*
X59650996Y-80656805D01*
X59643777Y-80801327D01*
X59640217Y-80982585D01*
X59639126Y-81206907D01*
X59639100Y-81262910D01*
X59639100Y-81931400D01*
X59207300Y-81931400D01*
X59207300Y-79670800D01*
X59639100Y-79670800D01*
X59639100Y-79928707D01*
X59721364Y-79846442D01*
X59807752Y-79770836D01*
X59898455Y-79717569D01*
X60004478Y-79683282D01*
X60136824Y-79664616D01*
X60306495Y-79658211D01*
X60338174Y-79658100D01*
X60469491Y-79658791D01*
G37*
X60469491Y-79658791D02*
X60563575Y-79662451D01*
X60633990Y-79671455D01*
X60694301Y-79688181D01*
X60758070Y-79715005D01*
X60812251Y-79741171D01*
X60983298Y-79849513D01*
X61116548Y-79988673D01*
X61213879Y-80161378D01*
X61277168Y-80370354D01*
X61288575Y-80432800D01*
X61295864Y-80503770D01*
X61302403Y-80616525D01*
X61307903Y-80762049D01*
X61312074Y-80931330D01*
X61314627Y-81115353D01*
X61315308Y-81264650D01*
X61315500Y-81931400D01*
X60883700Y-81931400D01*
X60883700Y-81212110D01*
X60883093Y-80983457D01*
X60881100Y-80799758D01*
X60877463Y-80655177D01*
X60871922Y-80543882D01*
X60864219Y-80460037D01*
X60854095Y-80397809D01*
X60846197Y-80366534D01*
X60781437Y-80228307D01*
X60680530Y-80125106D01*
X60545103Y-80057984D01*
X60376780Y-80027999D01*
X60322312Y-80026400D01*
X60159841Y-80036817D01*
X60029862Y-80071694D01*
X59917764Y-80136472D01*
X59837860Y-80206726D01*
X59783673Y-80263731D01*
X59740291Y-80319501D01*
X59706523Y-80380365D01*
X59681179Y-80452652D01*
X59663067Y-80542689D01*
X59650996Y-80656805D01*
X59643777Y-80801327D01*
X59640217Y-80982585D01*
X59639126Y-81206907D01*
X59639100Y-81262910D01*
X59639100Y-81931400D01*
X59207300Y-81931400D01*
X59207300Y-79670800D01*
X59639100Y-79670800D01*
X59639100Y-79928707D01*
X59721364Y-79846442D01*
X59807752Y-79770836D01*
X59898455Y-79717569D01*
X60004478Y-79683282D01*
X60136824Y-79664616D01*
X60306495Y-79658211D01*
X60338174Y-79658100D01*
X60469491Y-79658791D01*
D10*
%TO.C,J3*%
X164437500Y-77170000D02*
X152687500Y-77170000D01*
X164437500Y-71370000D02*
X164437500Y-77170000D01*
X152687500Y-71370000D02*
X164437500Y-71370000D01*
X152687500Y-77170000D02*
X152687500Y-71370000D01*
%TO.C,J1*%
X132234500Y-71392000D02*
X143984500Y-71392000D01*
X132234500Y-77192000D02*
X132234500Y-71392000D01*
X143984500Y-77192000D02*
X132234500Y-77192000D01*
X143984500Y-71392000D02*
X143984500Y-77192000D01*
%TO.C,U1*%
X134662500Y-26020000D02*
X134962500Y-26020000D01*
X134562500Y-25870000D02*
X135062500Y-25870000D01*
X134462500Y-25720000D02*
X135162500Y-25720000D01*
X134812500Y-26220000D02*
X134312500Y-25570000D01*
X135312500Y-25570000D02*
X134812500Y-26220000D01*
X134312500Y-25570000D02*
X135312500Y-25570000D01*
X138562500Y-25220000D02*
X131062500Y-25220000D01*
X138562500Y-26520000D02*
X138562500Y-25220000D01*
X131062500Y-26520000D02*
X138562500Y-26520000D01*
X131062500Y-25220000D02*
X131062500Y-26520000D01*
X126062500Y-30820000D02*
X126062500Y-31670000D01*
X143562500Y-30820000D02*
X143562500Y-31670000D01*
X126062500Y-30820000D02*
X126912500Y-30820000D01*
X143562500Y-30820000D02*
X142762500Y-30820000D01*
X126062500Y-60120000D02*
X126062500Y-61020000D01*
X143562500Y-60170000D02*
X143562500Y-61020000D01*
X126062500Y-61020000D02*
X126912500Y-61020000D01*
X143562500Y-61020000D02*
X142702500Y-61020000D01*
%TO.C,U2*%
X161837500Y-25990000D02*
X162137500Y-25990000D01*
X161737500Y-25840000D02*
X162237500Y-25840000D01*
X161637500Y-25690000D02*
X162337500Y-25690000D01*
X161987500Y-26190000D02*
X161487500Y-25540000D01*
X162487500Y-25540000D02*
X161987500Y-26190000D01*
X161487500Y-25540000D02*
X162487500Y-25540000D01*
X165737500Y-25190000D02*
X158237500Y-25190000D01*
X165737500Y-26490000D02*
X165737500Y-25190000D01*
X158237500Y-26490000D02*
X165737500Y-26490000D01*
X158237500Y-25190000D02*
X158237500Y-26490000D01*
X153237500Y-30790000D02*
X153237500Y-31640000D01*
X170737500Y-30790000D02*
X170737500Y-31640000D01*
X153237500Y-30790000D02*
X154087500Y-30790000D01*
X170737500Y-30790000D02*
X169937500Y-30790000D01*
X153237500Y-60090000D02*
X153237500Y-60990000D01*
X170737500Y-60140000D02*
X170737500Y-60990000D01*
X153237500Y-60990000D02*
X154087500Y-60990000D01*
X170737500Y-60990000D02*
X169877500Y-60990000D01*
%TO.C,J4*%
X166934500Y-65895000D02*
X157034500Y-65895000D01*
X166934500Y-68195000D02*
X157034500Y-68195000D01*
X157034500Y-68195000D02*
X157034500Y-65895000D01*
X166934500Y-65895000D02*
X166934500Y-68195000D01*
%TO.C,J2*%
X129798500Y-68178000D02*
X139698500Y-68178000D01*
X129798500Y-65878000D02*
X139698500Y-65878000D01*
X139698500Y-65878000D02*
X139698500Y-68178000D01*
X129798500Y-68178000D02*
X129798500Y-65878000D01*
%TO.C,RSW2*%
X152704500Y-63672000D02*
X152704500Y-69372000D01*
X152704500Y-69372000D02*
X152954500Y-69372000D01*
X152704500Y-63672000D02*
X152954500Y-63672000D01*
X155904500Y-63672000D02*
X155654500Y-63672000D01*
X155904500Y-63672000D02*
X155904500Y-69372000D01*
X155904500Y-69372000D02*
X155654500Y-69372000D01*
%TO.C,RSW1*%
X140824500Y-63681000D02*
X140824500Y-69381000D01*
X140824500Y-69381000D02*
X141074500Y-69381000D01*
X140824500Y-63681000D02*
X141074500Y-63681000D01*
X144024500Y-63681000D02*
X143774500Y-63681000D01*
X144024500Y-63681000D02*
X144024500Y-69381000D01*
X144024500Y-69381000D02*
X143774500Y-69381000D01*
%TO.C,J3*%
X158439880Y-76781904D02*
X158439880Y-76210476D01*
X159439880Y-76496190D02*
X158439880Y-76496190D01*
X159439880Y-75305714D02*
X158963690Y-75639047D01*
X159439880Y-75877142D02*
X158439880Y-75877142D01*
X158439880Y-75496190D01*
X158487500Y-75400952D01*
X158535119Y-75353333D01*
X158630357Y-75305714D01*
X158773214Y-75305714D01*
X158868452Y-75353333D01*
X158916071Y-75400952D01*
X158963690Y-75496190D01*
X158963690Y-75877142D01*
X159439880Y-74305714D02*
X158963690Y-74639047D01*
X159439880Y-74877142D02*
X158439880Y-74877142D01*
X158439880Y-74496190D01*
X158487500Y-74400952D01*
X158535119Y-74353333D01*
X158630357Y-74305714D01*
X158773214Y-74305714D01*
X158868452Y-74353333D01*
X158916071Y-74400952D01*
X158963690Y-74496190D01*
X158963690Y-74877142D01*
X159392261Y-73924761D02*
X159439880Y-73781904D01*
X159439880Y-73543809D01*
X159392261Y-73448571D01*
X159344642Y-73400952D01*
X159249404Y-73353333D01*
X159154166Y-73353333D01*
X159058928Y-73400952D01*
X159011309Y-73448571D01*
X158963690Y-73543809D01*
X158916071Y-73734285D01*
X158868452Y-73829523D01*
X158820833Y-73877142D01*
X158725595Y-73924761D01*
X158630357Y-73924761D01*
X158535119Y-73877142D01*
X158487500Y-73829523D01*
X158439880Y-73734285D01*
X158439880Y-73496190D01*
X158487500Y-73353333D01*
%TO.C,J1*%
X137136880Y-75303904D02*
X137136880Y-74732476D01*
X138136880Y-75018190D02*
X137136880Y-75018190D01*
X138136880Y-73827714D02*
X137660690Y-74161047D01*
X138136880Y-74399142D02*
X137136880Y-74399142D01*
X137136880Y-74018190D01*
X137184500Y-73922952D01*
X137232119Y-73875333D01*
X137327357Y-73827714D01*
X137470214Y-73827714D01*
X137565452Y-73875333D01*
X137613071Y-73922952D01*
X137660690Y-74018190D01*
X137660690Y-74399142D01*
X138136880Y-72827714D02*
X137660690Y-73161047D01*
X138136880Y-73399142D02*
X137136880Y-73399142D01*
X137136880Y-73018190D01*
X137184500Y-72922952D01*
X137232119Y-72875333D01*
X137327357Y-72827714D01*
X137470214Y-72827714D01*
X137565452Y-72875333D01*
X137613071Y-72922952D01*
X137660690Y-73018190D01*
X137660690Y-73399142D01*
X138089261Y-72446761D02*
X138136880Y-72303904D01*
X138136880Y-72065809D01*
X138089261Y-71970571D01*
X138041642Y-71922952D01*
X137946404Y-71875333D01*
X137851166Y-71875333D01*
X137755928Y-71922952D01*
X137708309Y-71970571D01*
X137660690Y-72065809D01*
X137613071Y-72256285D01*
X137565452Y-72351523D01*
X137517833Y-72399142D01*
X137422595Y-72446761D01*
X137327357Y-72446761D01*
X137232119Y-72399142D01*
X137184500Y-72351523D01*
X137136880Y-72256285D01*
X137136880Y-72018190D01*
X137184500Y-71875333D01*
%TO.C,U1*%
D11*
X129456761Y-32343285D02*
X129290095Y-31986142D01*
X129171047Y-32343285D02*
X129171047Y-31593285D01*
X129361523Y-31593285D01*
X129409142Y-31629000D01*
X129432952Y-31664714D01*
X129456761Y-31736142D01*
X129456761Y-31843285D01*
X129432952Y-31914714D01*
X129409142Y-31950428D01*
X129361523Y-31986142D01*
X129171047Y-31986142D01*
X129647238Y-32129000D02*
X129885333Y-32129000D01*
X129599619Y-32343285D02*
X129766285Y-31593285D01*
X129932952Y-32343285D01*
X130052000Y-31593285D02*
X130171047Y-32343285D01*
X130266285Y-31807571D01*
X130361523Y-32343285D01*
X130480571Y-31593285D01*
X131052000Y-32057571D02*
X131432952Y-32057571D01*
X139257023Y-39145000D02*
X139193214Y-39109285D01*
X139097500Y-39109285D01*
X139001785Y-39145000D01*
X138937976Y-39216428D01*
X138906071Y-39287857D01*
X138874166Y-39430714D01*
X138874166Y-39537857D01*
X138906071Y-39680714D01*
X138937976Y-39752142D01*
X139001785Y-39823571D01*
X139097500Y-39859285D01*
X139161309Y-39859285D01*
X139257023Y-39823571D01*
X139288928Y-39787857D01*
X139288928Y-39537857D01*
X139161309Y-39537857D01*
X139576071Y-39859285D02*
X139576071Y-39109285D01*
X139958928Y-39859285D01*
X139958928Y-39109285D01*
X140277976Y-39859285D02*
X140277976Y-39109285D01*
X140437500Y-39109285D01*
X140533214Y-39145000D01*
X140597023Y-39216428D01*
X140628928Y-39287857D01*
X140660833Y-39430714D01*
X140660833Y-39537857D01*
X140628928Y-39680714D01*
X140597023Y-39752142D01*
X140533214Y-39823571D01*
X140437500Y-39859285D01*
X140277976Y-39859285D01*
X129403190Y-37424785D02*
X129236523Y-37067642D01*
X129117476Y-37424785D02*
X129117476Y-36674785D01*
X129307952Y-36674785D01*
X129355571Y-36710500D01*
X129379380Y-36746214D01*
X129403190Y-36817642D01*
X129403190Y-36924785D01*
X129379380Y-36996214D01*
X129355571Y-37031928D01*
X129307952Y-37067642D01*
X129117476Y-37067642D01*
X129593666Y-37389071D02*
X129665095Y-37424785D01*
X129784142Y-37424785D01*
X129831761Y-37389071D01*
X129855571Y-37353357D01*
X129879380Y-37281928D01*
X129879380Y-37210500D01*
X129855571Y-37139071D01*
X129831761Y-37103357D01*
X129784142Y-37067642D01*
X129688904Y-37031928D01*
X129641285Y-36996214D01*
X129617476Y-36960500D01*
X129593666Y-36889071D01*
X129593666Y-36817642D01*
X129617476Y-36746214D01*
X129641285Y-36710500D01*
X129688904Y-36674785D01*
X129807952Y-36674785D01*
X129879380Y-36710500D01*
X130022238Y-36674785D02*
X130307952Y-36674785D01*
X130165095Y-37424785D02*
X130165095Y-36674785D01*
X128970833Y-39094285D02*
X129137500Y-39844285D01*
X129304166Y-39094285D01*
X129756547Y-39772857D02*
X129732738Y-39808571D01*
X129661309Y-39844285D01*
X129613690Y-39844285D01*
X129542261Y-39808571D01*
X129494642Y-39737142D01*
X129470833Y-39665714D01*
X129447023Y-39522857D01*
X129447023Y-39415714D01*
X129470833Y-39272857D01*
X129494642Y-39201428D01*
X129542261Y-39130000D01*
X129613690Y-39094285D01*
X129661309Y-39094285D01*
X129732738Y-39130000D01*
X129756547Y-39165714D01*
X130256547Y-39772857D02*
X130232738Y-39808571D01*
X130161309Y-39844285D01*
X130113690Y-39844285D01*
X130042261Y-39808571D01*
X129994642Y-39737142D01*
X129970833Y-39665714D01*
X129947023Y-39522857D01*
X129947023Y-39415714D01*
X129970833Y-39272857D01*
X129994642Y-39201428D01*
X130042261Y-39130000D01*
X130113690Y-39094285D01*
X130161309Y-39094285D01*
X130232738Y-39130000D01*
X130256547Y-39165714D01*
X129020857Y-42295000D02*
X129339904Y-42295000D01*
X128957047Y-42509285D02*
X129180380Y-41759285D01*
X129403714Y-42509285D01*
X129563238Y-41759285D02*
X129978000Y-41759285D01*
X129754666Y-42045000D01*
X129850380Y-42045000D01*
X129914190Y-42080714D01*
X129946095Y-42116428D01*
X129978000Y-42187857D01*
X129978000Y-42366428D01*
X129946095Y-42437857D01*
X129914190Y-42473571D01*
X129850380Y-42509285D01*
X129658952Y-42509285D01*
X129595142Y-42473571D01*
X129563238Y-42437857D01*
X130743714Y-41723571D02*
X130169428Y-42687857D01*
X131190380Y-42116428D02*
X130967047Y-42116428D01*
X130967047Y-42509285D02*
X130967047Y-41759285D01*
X131286095Y-41759285D01*
X131828476Y-42009285D02*
X131828476Y-42509285D01*
X131668952Y-41723571D02*
X131509428Y-42259285D01*
X131924190Y-42259285D01*
X132977047Y-42473571D02*
X132913238Y-42509285D01*
X132785619Y-42509285D01*
X132721809Y-42473571D01*
X132689904Y-42437857D01*
X132658000Y-42366428D01*
X132658000Y-42152142D01*
X132689904Y-42080714D01*
X132721809Y-42045000D01*
X132785619Y-42009285D01*
X132913238Y-42009285D01*
X132977047Y-42045000D01*
X133391809Y-41759285D02*
X133455619Y-41759285D01*
X133519428Y-41795000D01*
X133551333Y-41830714D01*
X133583238Y-41902142D01*
X133615142Y-42045000D01*
X133615142Y-42223571D01*
X133583238Y-42366428D01*
X133551333Y-42437857D01*
X133519428Y-42473571D01*
X133455619Y-42509285D01*
X133391809Y-42509285D01*
X133328000Y-42473571D01*
X133296095Y-42437857D01*
X133264190Y-42366428D01*
X133232285Y-42223571D01*
X133232285Y-42045000D01*
X133264190Y-41902142D01*
X133296095Y-41830714D01*
X133328000Y-41795000D01*
X133391809Y-41759285D01*
X129020857Y-44795000D02*
X129339904Y-44795000D01*
X128957047Y-45009285D02*
X129180380Y-44259285D01*
X129403714Y-45009285D01*
X129595142Y-44330714D02*
X129627047Y-44295000D01*
X129690857Y-44259285D01*
X129850380Y-44259285D01*
X129914190Y-44295000D01*
X129946095Y-44330714D01*
X129978000Y-44402142D01*
X129978000Y-44473571D01*
X129946095Y-44580714D01*
X129563238Y-45009285D01*
X129978000Y-45009285D01*
X130743714Y-44223571D02*
X130169428Y-45187857D01*
X131190380Y-44616428D02*
X130967047Y-44616428D01*
X130967047Y-45009285D02*
X130967047Y-44259285D01*
X131286095Y-44259285D01*
X131860380Y-44259285D02*
X131541333Y-44259285D01*
X131509428Y-44616428D01*
X131541333Y-44580714D01*
X131605142Y-44545000D01*
X131764666Y-44545000D01*
X131828476Y-44580714D01*
X131860380Y-44616428D01*
X131892285Y-44687857D01*
X131892285Y-44866428D01*
X131860380Y-44937857D01*
X131828476Y-44973571D01*
X131764666Y-45009285D01*
X131605142Y-45009285D01*
X131541333Y-44973571D01*
X131509428Y-44937857D01*
X132977047Y-44973571D02*
X132913238Y-45009285D01*
X132785619Y-45009285D01*
X132721809Y-44973571D01*
X132689904Y-44937857D01*
X132658000Y-44866428D01*
X132658000Y-44652142D01*
X132689904Y-44580714D01*
X132721809Y-44545000D01*
X132785619Y-44509285D01*
X132913238Y-44509285D01*
X132977047Y-44545000D01*
X133615142Y-45009285D02*
X133232285Y-45009285D01*
X133423714Y-45009285D02*
X133423714Y-44259285D01*
X133359904Y-44366428D01*
X133296095Y-44437857D01*
X133232285Y-44473571D01*
X129020857Y-47295000D02*
X129339904Y-47295000D01*
X128957047Y-47509285D02*
X129180380Y-46759285D01*
X129403714Y-47509285D01*
X129978000Y-47509285D02*
X129595142Y-47509285D01*
X129786571Y-47509285D02*
X129786571Y-46759285D01*
X129722761Y-46866428D01*
X129658952Y-46937857D01*
X129595142Y-46973571D01*
X130743714Y-46723571D02*
X130169428Y-47687857D01*
X131190380Y-47116428D02*
X130967047Y-47116428D01*
X130967047Y-47509285D02*
X130967047Y-46759285D01*
X131286095Y-46759285D01*
X131828476Y-46759285D02*
X131700857Y-46759285D01*
X131637047Y-46795000D01*
X131605142Y-46830714D01*
X131541333Y-46937857D01*
X131509428Y-47080714D01*
X131509428Y-47366428D01*
X131541333Y-47437857D01*
X131573238Y-47473571D01*
X131637047Y-47509285D01*
X131764666Y-47509285D01*
X131828476Y-47473571D01*
X131860380Y-47437857D01*
X131892285Y-47366428D01*
X131892285Y-47187857D01*
X131860380Y-47116428D01*
X131828476Y-47080714D01*
X131764666Y-47045000D01*
X131637047Y-47045000D01*
X131573238Y-47080714D01*
X131541333Y-47116428D01*
X131509428Y-47187857D01*
X132977047Y-47473571D02*
X132913238Y-47509285D01*
X132785619Y-47509285D01*
X132721809Y-47473571D01*
X132689904Y-47437857D01*
X132658000Y-47366428D01*
X132658000Y-47152142D01*
X132689904Y-47080714D01*
X132721809Y-47045000D01*
X132785619Y-47009285D01*
X132913238Y-47009285D01*
X132977047Y-47045000D01*
X133232285Y-46830714D02*
X133264190Y-46795000D01*
X133328000Y-46759285D01*
X133487523Y-46759285D01*
X133551333Y-46795000D01*
X133583238Y-46830714D01*
X133615142Y-46902142D01*
X133615142Y-46973571D01*
X133583238Y-47080714D01*
X133200380Y-47509285D01*
X133615142Y-47509285D01*
X129020857Y-49845000D02*
X129339904Y-49845000D01*
X128957047Y-50059285D02*
X129180380Y-49309285D01*
X129403714Y-50059285D01*
X129754666Y-49309285D02*
X129818476Y-49309285D01*
X129882285Y-49345000D01*
X129914190Y-49380714D01*
X129946095Y-49452142D01*
X129978000Y-49595000D01*
X129978000Y-49773571D01*
X129946095Y-49916428D01*
X129914190Y-49987857D01*
X129882285Y-50023571D01*
X129818476Y-50059285D01*
X129754666Y-50059285D01*
X129690857Y-50023571D01*
X129658952Y-49987857D01*
X129627047Y-49916428D01*
X129595142Y-49773571D01*
X129595142Y-49595000D01*
X129627047Y-49452142D01*
X129658952Y-49380714D01*
X129690857Y-49345000D01*
X129754666Y-49309285D01*
X130743714Y-49273571D02*
X130169428Y-50237857D01*
X131190380Y-49666428D02*
X130967047Y-49666428D01*
X130967047Y-50059285D02*
X130967047Y-49309285D01*
X131286095Y-49309285D01*
X131477523Y-49309285D02*
X131924190Y-49309285D01*
X131637047Y-50059285D01*
X132977047Y-50023571D02*
X132913238Y-50059285D01*
X132785619Y-50059285D01*
X132721809Y-50023571D01*
X132689904Y-49987857D01*
X132658000Y-49916428D01*
X132658000Y-49702142D01*
X132689904Y-49630714D01*
X132721809Y-49595000D01*
X132785619Y-49559285D01*
X132913238Y-49559285D01*
X132977047Y-49595000D01*
X133200380Y-49309285D02*
X133615142Y-49309285D01*
X133391809Y-49595000D01*
X133487523Y-49595000D01*
X133551333Y-49630714D01*
X133583238Y-49666428D01*
X133615142Y-49737857D01*
X133615142Y-49916428D01*
X133583238Y-49987857D01*
X133551333Y-50023571D01*
X133487523Y-50059285D01*
X133296095Y-50059285D01*
X133232285Y-50023571D01*
X133200380Y-49987857D01*
X129323952Y-52609285D02*
X128941095Y-52609285D01*
X129132523Y-52609285D02*
X129132523Y-51859285D01*
X129068714Y-51966428D01*
X129004904Y-52037857D01*
X128941095Y-52073571D01*
X129930142Y-51859285D02*
X129611095Y-51859285D01*
X129579190Y-52216428D01*
X129611095Y-52180714D01*
X129674904Y-52145000D01*
X129834428Y-52145000D01*
X129898238Y-52180714D01*
X129930142Y-52216428D01*
X129962047Y-52287857D01*
X129962047Y-52466428D01*
X129930142Y-52537857D01*
X129898238Y-52573571D01*
X129834428Y-52609285D01*
X129674904Y-52609285D01*
X129611095Y-52573571D01*
X129579190Y-52537857D01*
X130727761Y-51823571D02*
X130153476Y-52787857D01*
X131174428Y-52216428D02*
X131270142Y-52252142D01*
X131302047Y-52287857D01*
X131333952Y-52359285D01*
X131333952Y-52466428D01*
X131302047Y-52537857D01*
X131270142Y-52573571D01*
X131206333Y-52609285D01*
X130951095Y-52609285D01*
X130951095Y-51859285D01*
X131174428Y-51859285D01*
X131238238Y-51895000D01*
X131270142Y-51930714D01*
X131302047Y-52002142D01*
X131302047Y-52073571D01*
X131270142Y-52145000D01*
X131238238Y-52180714D01*
X131174428Y-52216428D01*
X130951095Y-52216428D01*
X131972047Y-52609285D02*
X131589190Y-52609285D01*
X131780619Y-52609285D02*
X131780619Y-51859285D01*
X131716809Y-51966428D01*
X131653000Y-52037857D01*
X131589190Y-52073571D01*
X133056809Y-52573571D02*
X132993000Y-52609285D01*
X132865380Y-52609285D01*
X132801571Y-52573571D01*
X132769666Y-52537857D01*
X132737761Y-52466428D01*
X132737761Y-52252142D01*
X132769666Y-52180714D01*
X132801571Y-52145000D01*
X132865380Y-52109285D01*
X132993000Y-52109285D01*
X133056809Y-52145000D01*
X133631095Y-52109285D02*
X133631095Y-52609285D01*
X133471571Y-51823571D02*
X133312047Y-52359285D01*
X133726809Y-52359285D01*
X129323952Y-55159285D02*
X128941095Y-55159285D01*
X129132523Y-55159285D02*
X129132523Y-54409285D01*
X129068714Y-54516428D01*
X129004904Y-54587857D01*
X128941095Y-54623571D01*
X129898238Y-54659285D02*
X129898238Y-55159285D01*
X129738714Y-54373571D02*
X129579190Y-54909285D01*
X129993952Y-54909285D01*
X130727761Y-54373571D02*
X130153476Y-55337857D01*
X131174428Y-54766428D02*
X131270142Y-54802142D01*
X131302047Y-54837857D01*
X131333952Y-54909285D01*
X131333952Y-55016428D01*
X131302047Y-55087857D01*
X131270142Y-55123571D01*
X131206333Y-55159285D01*
X130951095Y-55159285D01*
X130951095Y-54409285D01*
X131174428Y-54409285D01*
X131238238Y-54445000D01*
X131270142Y-54480714D01*
X131302047Y-54552142D01*
X131302047Y-54623571D01*
X131270142Y-54695000D01*
X131238238Y-54730714D01*
X131174428Y-54766428D01*
X130951095Y-54766428D01*
X131557285Y-54409285D02*
X131972047Y-54409285D01*
X131748714Y-54695000D01*
X131844428Y-54695000D01*
X131908238Y-54730714D01*
X131940142Y-54766428D01*
X131972047Y-54837857D01*
X131972047Y-55016428D01*
X131940142Y-55087857D01*
X131908238Y-55123571D01*
X131844428Y-55159285D01*
X131653000Y-55159285D01*
X131589190Y-55123571D01*
X131557285Y-55087857D01*
X133056809Y-55123571D02*
X132993000Y-55159285D01*
X132865380Y-55159285D01*
X132801571Y-55123571D01*
X132769666Y-55087857D01*
X132737761Y-55016428D01*
X132737761Y-54802142D01*
X132769666Y-54730714D01*
X132801571Y-54695000D01*
X132865380Y-54659285D01*
X132993000Y-54659285D01*
X133056809Y-54695000D01*
X133663000Y-54409285D02*
X133343952Y-54409285D01*
X133312047Y-54766428D01*
X133343952Y-54730714D01*
X133407761Y-54695000D01*
X133567285Y-54695000D01*
X133631095Y-54730714D01*
X133663000Y-54766428D01*
X133694904Y-54837857D01*
X133694904Y-55016428D01*
X133663000Y-55087857D01*
X133631095Y-55123571D01*
X133567285Y-55159285D01*
X133407761Y-55159285D01*
X133343952Y-55123571D01*
X133312047Y-55087857D01*
X129376880Y-60209285D02*
X128994023Y-60209285D01*
X129185452Y-60209285D02*
X129185452Y-59459285D01*
X129121642Y-59566428D01*
X129057833Y-59637857D01*
X128994023Y-59673571D01*
X129791642Y-59459285D02*
X129855452Y-59459285D01*
X129919261Y-59495000D01*
X129951166Y-59530714D01*
X129983071Y-59602142D01*
X130014976Y-59745000D01*
X130014976Y-59923571D01*
X129983071Y-60066428D01*
X129951166Y-60137857D01*
X129919261Y-60173571D01*
X129855452Y-60209285D01*
X129791642Y-60209285D01*
X129727833Y-60173571D01*
X129695928Y-60137857D01*
X129664023Y-60066428D01*
X129632119Y-59923571D01*
X129632119Y-59745000D01*
X129664023Y-59602142D01*
X129695928Y-59530714D01*
X129727833Y-59495000D01*
X129791642Y-59459285D01*
X130780690Y-59423571D02*
X130206404Y-60387857D01*
X131227357Y-59816428D02*
X131323071Y-59852142D01*
X131354976Y-59887857D01*
X131386880Y-59959285D01*
X131386880Y-60066428D01*
X131354976Y-60137857D01*
X131323071Y-60173571D01*
X131259261Y-60209285D01*
X131004023Y-60209285D01*
X131004023Y-59459285D01*
X131227357Y-59459285D01*
X131291166Y-59495000D01*
X131323071Y-59530714D01*
X131354976Y-59602142D01*
X131354976Y-59673571D01*
X131323071Y-59745000D01*
X131291166Y-59780714D01*
X131227357Y-59816428D01*
X131004023Y-59816428D01*
X131961166Y-59459285D02*
X131833547Y-59459285D01*
X131769738Y-59495000D01*
X131737833Y-59530714D01*
X131674023Y-59637857D01*
X131642119Y-59780714D01*
X131642119Y-60066428D01*
X131674023Y-60137857D01*
X131705928Y-60173571D01*
X131769738Y-60209285D01*
X131897357Y-60209285D01*
X131961166Y-60173571D01*
X131993071Y-60137857D01*
X132024976Y-60066428D01*
X132024976Y-59887857D01*
X131993071Y-59816428D01*
X131961166Y-59780714D01*
X131897357Y-59745000D01*
X131769738Y-59745000D01*
X131705928Y-59780714D01*
X131674023Y-59816428D01*
X131642119Y-59887857D01*
X132822595Y-59923571D02*
X133333071Y-59923571D01*
X129376880Y-57709285D02*
X128994023Y-57709285D01*
X129185452Y-57709285D02*
X129185452Y-56959285D01*
X129121642Y-57066428D01*
X129057833Y-57137857D01*
X128994023Y-57173571D01*
X129951166Y-56959285D02*
X129823547Y-56959285D01*
X129759738Y-56995000D01*
X129727833Y-57030714D01*
X129664023Y-57137857D01*
X129632119Y-57280714D01*
X129632119Y-57566428D01*
X129664023Y-57637857D01*
X129695928Y-57673571D01*
X129759738Y-57709285D01*
X129887357Y-57709285D01*
X129951166Y-57673571D01*
X129983071Y-57637857D01*
X130014976Y-57566428D01*
X130014976Y-57387857D01*
X129983071Y-57316428D01*
X129951166Y-57280714D01*
X129887357Y-57245000D01*
X129759738Y-57245000D01*
X129695928Y-57280714D01*
X129664023Y-57316428D01*
X129632119Y-57387857D01*
X130780690Y-56923571D02*
X130206404Y-57887857D01*
X131227357Y-57316428D02*
X131323071Y-57352142D01*
X131354976Y-57387857D01*
X131386880Y-57459285D01*
X131386880Y-57566428D01*
X131354976Y-57637857D01*
X131323071Y-57673571D01*
X131259261Y-57709285D01*
X131004023Y-57709285D01*
X131004023Y-56959285D01*
X131227357Y-56959285D01*
X131291166Y-56995000D01*
X131323071Y-57030714D01*
X131354976Y-57102142D01*
X131354976Y-57173571D01*
X131323071Y-57245000D01*
X131291166Y-57280714D01*
X131227357Y-57316428D01*
X131004023Y-57316428D01*
X131642119Y-57030714D02*
X131674023Y-56995000D01*
X131737833Y-56959285D01*
X131897357Y-56959285D01*
X131961166Y-56995000D01*
X131993071Y-57030714D01*
X132024976Y-57102142D01*
X132024976Y-57173571D01*
X131993071Y-57280714D01*
X131610214Y-57709285D01*
X132024976Y-57709285D01*
X132822595Y-57423571D02*
X133333071Y-57423571D01*
X136769714Y-54949285D02*
X136769714Y-54449285D01*
X136769714Y-54592142D02*
X136801619Y-54520714D01*
X136833523Y-54485000D01*
X136897333Y-54449285D01*
X136961142Y-54449285D01*
X137120666Y-54199285D02*
X137535428Y-54199285D01*
X137312095Y-54485000D01*
X137407809Y-54485000D01*
X137471619Y-54520714D01*
X137503523Y-54556428D01*
X137535428Y-54627857D01*
X137535428Y-54806428D01*
X137503523Y-54877857D01*
X137471619Y-54913571D01*
X137407809Y-54949285D01*
X137216380Y-54949285D01*
X137152571Y-54913571D01*
X137120666Y-54877857D01*
X138333047Y-54556428D02*
X138556380Y-54556428D01*
X138652095Y-54949285D02*
X138333047Y-54949285D01*
X138333047Y-54199285D01*
X138652095Y-54199285D01*
X139226380Y-54199285D02*
X139098761Y-54199285D01*
X139034952Y-54235000D01*
X139003047Y-54270714D01*
X138939238Y-54377857D01*
X138907333Y-54520714D01*
X138907333Y-54806428D01*
X138939238Y-54877857D01*
X138971142Y-54913571D01*
X139034952Y-54949285D01*
X139162571Y-54949285D01*
X139226380Y-54913571D01*
X139258285Y-54877857D01*
X139290190Y-54806428D01*
X139290190Y-54627857D01*
X139258285Y-54556428D01*
X139226380Y-54520714D01*
X139162571Y-54485000D01*
X139034952Y-54485000D01*
X138971142Y-54520714D01*
X138939238Y-54556428D01*
X138907333Y-54627857D01*
X140055904Y-54163571D02*
X139481619Y-55127857D01*
X140215428Y-54199285D02*
X140662095Y-54199285D01*
X140374952Y-54949285D01*
X136737809Y-52409285D02*
X136737809Y-51909285D01*
X136737809Y-52052142D02*
X136769714Y-51980714D01*
X136801619Y-51945000D01*
X136865428Y-51909285D01*
X136929238Y-51909285D01*
X137120666Y-51730714D02*
X137152571Y-51695000D01*
X137216380Y-51659285D01*
X137375904Y-51659285D01*
X137439714Y-51695000D01*
X137471619Y-51730714D01*
X137503523Y-51802142D01*
X137503523Y-51873571D01*
X137471619Y-51980714D01*
X137088761Y-52409285D01*
X137503523Y-52409285D01*
X138301142Y-52409285D02*
X138301142Y-51659285D01*
X138460666Y-51659285D01*
X138556380Y-51695000D01*
X138620190Y-51766428D01*
X138652095Y-51837857D01*
X138684000Y-51980714D01*
X138684000Y-52087857D01*
X138652095Y-52230714D01*
X138620190Y-52302142D01*
X138556380Y-52373571D01*
X138460666Y-52409285D01*
X138301142Y-52409285D01*
X138907333Y-51659285D02*
X139354000Y-51659285D01*
X139066857Y-52409285D01*
X140087809Y-51623571D02*
X139513523Y-52587857D01*
X140598285Y-51659285D02*
X140470666Y-51659285D01*
X140406857Y-51695000D01*
X140374952Y-51730714D01*
X140311142Y-51837857D01*
X140279238Y-51980714D01*
X140279238Y-52266428D01*
X140311142Y-52337857D01*
X140343047Y-52373571D01*
X140406857Y-52409285D01*
X140534476Y-52409285D01*
X140598285Y-52373571D01*
X140630190Y-52337857D01*
X140662095Y-52266428D01*
X140662095Y-52087857D01*
X140630190Y-52016428D01*
X140598285Y-51980714D01*
X140534476Y-51945000D01*
X140406857Y-51945000D01*
X140343047Y-51980714D01*
X140311142Y-52016428D01*
X140279238Y-52087857D01*
X139257023Y-36695000D02*
X139193214Y-36659285D01*
X139097500Y-36659285D01*
X139001785Y-36695000D01*
X138937976Y-36766428D01*
X138906071Y-36837857D01*
X138874166Y-36980714D01*
X138874166Y-37087857D01*
X138906071Y-37230714D01*
X138937976Y-37302142D01*
X139001785Y-37373571D01*
X139097500Y-37409285D01*
X139161309Y-37409285D01*
X139257023Y-37373571D01*
X139288928Y-37337857D01*
X139288928Y-37087857D01*
X139161309Y-37087857D01*
X139576071Y-37409285D02*
X139576071Y-36659285D01*
X139958928Y-37409285D01*
X139958928Y-36659285D01*
X140277976Y-37409285D02*
X140277976Y-36659285D01*
X140437500Y-36659285D01*
X140533214Y-36695000D01*
X140597023Y-36766428D01*
X140628928Y-36837857D01*
X140660833Y-36980714D01*
X140660833Y-37087857D01*
X140628928Y-37230714D01*
X140597023Y-37302142D01*
X140533214Y-37373571D01*
X140437500Y-37409285D01*
X140277976Y-37409285D01*
X139257023Y-39145000D02*
X139193214Y-39109285D01*
X139097500Y-39109285D01*
X139001785Y-39145000D01*
X138937976Y-39216428D01*
X138906071Y-39287857D01*
X138874166Y-39430714D01*
X138874166Y-39537857D01*
X138906071Y-39680714D01*
X138937976Y-39752142D01*
X139001785Y-39823571D01*
X139097500Y-39859285D01*
X139161309Y-39859285D01*
X139257023Y-39823571D01*
X139288928Y-39787857D01*
X139288928Y-39537857D01*
X139161309Y-39537857D01*
X139576071Y-39859285D02*
X139576071Y-39109285D01*
X139958928Y-39859285D01*
X139958928Y-39109285D01*
X140277976Y-39859285D02*
X140277976Y-39109285D01*
X140437500Y-39109285D01*
X140533214Y-39145000D01*
X140597023Y-39216428D01*
X140628928Y-39287857D01*
X140660833Y-39430714D01*
X140660833Y-39537857D01*
X140628928Y-39680714D01*
X140597023Y-39752142D01*
X140533214Y-39823571D01*
X140437500Y-39859285D01*
X140277976Y-39859285D01*
X135257952Y-32309285D02*
X135194142Y-32273571D01*
X135162238Y-32202142D01*
X135162238Y-31559285D01*
X135768428Y-32273571D02*
X135704619Y-32309285D01*
X135577000Y-32309285D01*
X135513190Y-32273571D01*
X135481285Y-32202142D01*
X135481285Y-31916428D01*
X135513190Y-31845000D01*
X135577000Y-31809285D01*
X135704619Y-31809285D01*
X135768428Y-31845000D01*
X135800333Y-31916428D01*
X135800333Y-31987857D01*
X135481285Y-32059285D01*
X136374619Y-32309285D02*
X136374619Y-31559285D01*
X136374619Y-32273571D02*
X136310809Y-32309285D01*
X136183190Y-32309285D01*
X136119380Y-32273571D01*
X136087476Y-32237857D01*
X136055571Y-32166428D01*
X136055571Y-31952142D01*
X136087476Y-31880714D01*
X136119380Y-31845000D01*
X136183190Y-31809285D01*
X136310809Y-31809285D01*
X136374619Y-31845000D01*
X137204142Y-32309285D02*
X137204142Y-31559285D01*
X137363666Y-31559285D01*
X137459380Y-31595000D01*
X137523190Y-31666428D01*
X137555095Y-31737857D01*
X137587000Y-31880714D01*
X137587000Y-31987857D01*
X137555095Y-32130714D01*
X137523190Y-32202142D01*
X137459380Y-32273571D01*
X137363666Y-32309285D01*
X137204142Y-32309285D01*
X137810333Y-31559285D02*
X138225095Y-31559285D01*
X138001761Y-31845000D01*
X138097476Y-31845000D01*
X138161285Y-31880714D01*
X138193190Y-31916428D01*
X138225095Y-31987857D01*
X138225095Y-32166428D01*
X138193190Y-32237857D01*
X138161285Y-32273571D01*
X138097476Y-32309285D01*
X137906047Y-32309285D01*
X137842238Y-32273571D01*
X137810333Y-32237857D01*
X138990809Y-31523571D02*
X138416523Y-32487857D01*
X139118428Y-31559285D02*
X139501285Y-31559285D01*
X139309857Y-32309285D02*
X139309857Y-31559285D01*
X139660809Y-31559285D02*
X140107476Y-32309285D01*
X140107476Y-31559285D02*
X139660809Y-32309285D01*
X140490333Y-31559285D02*
X140554142Y-31559285D01*
X140617952Y-31595000D01*
X140649857Y-31630714D01*
X140681761Y-31702142D01*
X140713666Y-31845000D01*
X140713666Y-32023571D01*
X140681761Y-32166428D01*
X140649857Y-32237857D01*
X140617952Y-32273571D01*
X140554142Y-32309285D01*
X140490333Y-32309285D01*
X140426523Y-32273571D01*
X140394619Y-32237857D01*
X140362714Y-32166428D01*
X140330809Y-32023571D01*
X140330809Y-31845000D01*
X140362714Y-31702142D01*
X140394619Y-31630714D01*
X140426523Y-31595000D01*
X140490333Y-31559285D01*
X136737809Y-47359285D02*
X136737809Y-46859285D01*
X136737809Y-47002142D02*
X136769714Y-46930714D01*
X136801619Y-46895000D01*
X136865428Y-46859285D01*
X136929238Y-46859285D01*
X137280190Y-46609285D02*
X137344000Y-46609285D01*
X137407809Y-46645000D01*
X137439714Y-46680714D01*
X137471619Y-46752142D01*
X137503523Y-46895000D01*
X137503523Y-47073571D01*
X137471619Y-47216428D01*
X137439714Y-47287857D01*
X137407809Y-47323571D01*
X137344000Y-47359285D01*
X137280190Y-47359285D01*
X137216380Y-47323571D01*
X137184476Y-47287857D01*
X137152571Y-47216428D01*
X137120666Y-47073571D01*
X137120666Y-46895000D01*
X137152571Y-46752142D01*
X137184476Y-46680714D01*
X137216380Y-46645000D01*
X137280190Y-46609285D01*
X138301142Y-47359285D02*
X138301142Y-46609285D01*
X138460666Y-46609285D01*
X138556380Y-46645000D01*
X138620190Y-46716428D01*
X138652095Y-46787857D01*
X138684000Y-46930714D01*
X138684000Y-47037857D01*
X138652095Y-47180714D01*
X138620190Y-47252142D01*
X138556380Y-47323571D01*
X138460666Y-47359285D01*
X138301142Y-47359285D01*
X139258285Y-46859285D02*
X139258285Y-47359285D01*
X139098761Y-46573571D02*
X138939238Y-47109285D01*
X139354000Y-47109285D01*
X140087809Y-46573571D02*
X139513523Y-47537857D01*
X140598285Y-46859285D02*
X140598285Y-47359285D01*
X140438761Y-46573571D02*
X140279238Y-47109285D01*
X140694000Y-47109285D01*
X135778928Y-42323571D02*
X135874642Y-42359285D01*
X136034166Y-42359285D01*
X136097976Y-42323571D01*
X136129880Y-42287857D01*
X136161785Y-42216428D01*
X136161785Y-42145000D01*
X136129880Y-42073571D01*
X136097976Y-42037857D01*
X136034166Y-42002142D01*
X135906547Y-41966428D01*
X135842738Y-41930714D01*
X135810833Y-41895000D01*
X135778928Y-41823571D01*
X135778928Y-41752142D01*
X135810833Y-41680714D01*
X135842738Y-41645000D01*
X135906547Y-41609285D01*
X136066071Y-41609285D01*
X136161785Y-41645000D01*
X136448928Y-42359285D02*
X136448928Y-41609285D01*
X136608452Y-41609285D01*
X136704166Y-41645000D01*
X136767976Y-41716428D01*
X136799880Y-41787857D01*
X136831785Y-41930714D01*
X136831785Y-42037857D01*
X136799880Y-42180714D01*
X136767976Y-42252142D01*
X136704166Y-42323571D01*
X136608452Y-42359285D01*
X136448928Y-42359285D01*
X137087023Y-42145000D02*
X137406071Y-42145000D01*
X137023214Y-42359285D02*
X137246547Y-41609285D01*
X137469880Y-42359285D01*
X138171785Y-41573571D02*
X137597500Y-42537857D01*
X138395119Y-42359285D02*
X138395119Y-41609285D01*
X138554642Y-41609285D01*
X138650357Y-41645000D01*
X138714166Y-41716428D01*
X138746071Y-41787857D01*
X138777976Y-41930714D01*
X138777976Y-42037857D01*
X138746071Y-42180714D01*
X138714166Y-42252142D01*
X138650357Y-42323571D01*
X138554642Y-42359285D01*
X138395119Y-42359285D01*
X139416071Y-42359285D02*
X139033214Y-42359285D01*
X139224642Y-42359285D02*
X139224642Y-41609285D01*
X139160833Y-41716428D01*
X139097023Y-41787857D01*
X139033214Y-41823571D01*
X140181785Y-41573571D02*
X139607500Y-42537857D01*
X140373214Y-41680714D02*
X140405119Y-41645000D01*
X140468928Y-41609285D01*
X140628452Y-41609285D01*
X140692261Y-41645000D01*
X140724166Y-41680714D01*
X140756071Y-41752142D01*
X140756071Y-41823571D01*
X140724166Y-41930714D01*
X140341309Y-42359285D01*
X140756071Y-42359285D01*
X135794880Y-44823571D02*
X135890595Y-44859285D01*
X136050119Y-44859285D01*
X136113928Y-44823571D01*
X136145833Y-44787857D01*
X136177738Y-44716428D01*
X136177738Y-44645000D01*
X136145833Y-44573571D01*
X136113928Y-44537857D01*
X136050119Y-44502142D01*
X135922500Y-44466428D01*
X135858690Y-44430714D01*
X135826785Y-44395000D01*
X135794880Y-44323571D01*
X135794880Y-44252142D01*
X135826785Y-44180714D01*
X135858690Y-44145000D01*
X135922500Y-44109285D01*
X136082023Y-44109285D01*
X136177738Y-44145000D01*
X136847738Y-44787857D02*
X136815833Y-44823571D01*
X136720119Y-44859285D01*
X136656309Y-44859285D01*
X136560595Y-44823571D01*
X136496785Y-44752142D01*
X136464880Y-44680714D01*
X136432976Y-44537857D01*
X136432976Y-44430714D01*
X136464880Y-44287857D01*
X136496785Y-44216428D01*
X136560595Y-44145000D01*
X136656309Y-44109285D01*
X136720119Y-44109285D01*
X136815833Y-44145000D01*
X136847738Y-44180714D01*
X137453928Y-44859285D02*
X137134880Y-44859285D01*
X137134880Y-44109285D01*
X138155833Y-44073571D02*
X137581547Y-45037857D01*
X138379166Y-44859285D02*
X138379166Y-44109285D01*
X138538690Y-44109285D01*
X138634404Y-44145000D01*
X138698214Y-44216428D01*
X138730119Y-44287857D01*
X138762023Y-44430714D01*
X138762023Y-44537857D01*
X138730119Y-44680714D01*
X138698214Y-44752142D01*
X138634404Y-44823571D01*
X138538690Y-44859285D01*
X138379166Y-44859285D01*
X139176785Y-44109285D02*
X139240595Y-44109285D01*
X139304404Y-44145000D01*
X139336309Y-44180714D01*
X139368214Y-44252142D01*
X139400119Y-44395000D01*
X139400119Y-44573571D01*
X139368214Y-44716428D01*
X139336309Y-44787857D01*
X139304404Y-44823571D01*
X139240595Y-44859285D01*
X139176785Y-44859285D01*
X139112976Y-44823571D01*
X139081071Y-44787857D01*
X139049166Y-44716428D01*
X139017261Y-44573571D01*
X139017261Y-44395000D01*
X139049166Y-44252142D01*
X139081071Y-44180714D01*
X139112976Y-44145000D01*
X139176785Y-44109285D01*
X140165833Y-44073571D02*
X139591547Y-45037857D01*
X140325357Y-44109285D02*
X140740119Y-44109285D01*
X140516785Y-44395000D01*
X140612500Y-44395000D01*
X140676309Y-44430714D01*
X140708214Y-44466428D01*
X140740119Y-44537857D01*
X140740119Y-44716428D01*
X140708214Y-44787857D01*
X140676309Y-44823571D01*
X140612500Y-44859285D01*
X140421071Y-44859285D01*
X140357261Y-44823571D01*
X140325357Y-44787857D01*
X136737809Y-49909285D02*
X136737809Y-49409285D01*
X136737809Y-49552142D02*
X136769714Y-49480714D01*
X136801619Y-49445000D01*
X136865428Y-49409285D01*
X136929238Y-49409285D01*
X137503523Y-49909285D02*
X137120666Y-49909285D01*
X137312095Y-49909285D02*
X137312095Y-49159285D01*
X137248285Y-49266428D01*
X137184476Y-49337857D01*
X137120666Y-49373571D01*
X138684000Y-49837857D02*
X138652095Y-49873571D01*
X138556380Y-49909285D01*
X138492571Y-49909285D01*
X138396857Y-49873571D01*
X138333047Y-49802142D01*
X138301142Y-49730714D01*
X138269238Y-49587857D01*
X138269238Y-49480714D01*
X138301142Y-49337857D01*
X138333047Y-49266428D01*
X138396857Y-49195000D01*
X138492571Y-49159285D01*
X138556380Y-49159285D01*
X138652095Y-49195000D01*
X138684000Y-49230714D01*
X139258285Y-49159285D02*
X139130666Y-49159285D01*
X139066857Y-49195000D01*
X139034952Y-49230714D01*
X138971142Y-49337857D01*
X138939238Y-49480714D01*
X138939238Y-49766428D01*
X138971142Y-49837857D01*
X139003047Y-49873571D01*
X139066857Y-49909285D01*
X139194476Y-49909285D01*
X139258285Y-49873571D01*
X139290190Y-49837857D01*
X139322095Y-49766428D01*
X139322095Y-49587857D01*
X139290190Y-49516428D01*
X139258285Y-49480714D01*
X139194476Y-49445000D01*
X139066857Y-49445000D01*
X139003047Y-49480714D01*
X138971142Y-49516428D01*
X138939238Y-49587857D01*
X140087809Y-49123571D02*
X139513523Y-50087857D01*
X140630190Y-49159285D02*
X140311142Y-49159285D01*
X140279238Y-49516428D01*
X140311142Y-49480714D01*
X140374952Y-49445000D01*
X140534476Y-49445000D01*
X140598285Y-49480714D01*
X140630190Y-49516428D01*
X140662095Y-49587857D01*
X140662095Y-49766428D01*
X140630190Y-49837857D01*
X140598285Y-49873571D01*
X140534476Y-49909285D01*
X140374952Y-49909285D01*
X140311142Y-49873571D01*
X140279238Y-49837857D01*
X136920976Y-59773571D02*
X137431452Y-59773571D01*
X138484309Y-59666428D02*
X138580023Y-59702142D01*
X138611928Y-59737857D01*
X138643833Y-59809285D01*
X138643833Y-59916428D01*
X138611928Y-59987857D01*
X138580023Y-60023571D01*
X138516214Y-60059285D01*
X138260976Y-60059285D01*
X138260976Y-59309285D01*
X138484309Y-59309285D01*
X138548119Y-59345000D01*
X138580023Y-59380714D01*
X138611928Y-59452142D01*
X138611928Y-59523571D01*
X138580023Y-59595000D01*
X138548119Y-59630714D01*
X138484309Y-59666428D01*
X138260976Y-59666428D01*
X139250023Y-59309285D02*
X138930976Y-59309285D01*
X138899071Y-59666428D01*
X138930976Y-59630714D01*
X138994785Y-59595000D01*
X139154309Y-59595000D01*
X139218119Y-59630714D01*
X139250023Y-59666428D01*
X139281928Y-59737857D01*
X139281928Y-59916428D01*
X139250023Y-59987857D01*
X139218119Y-60023571D01*
X139154309Y-60059285D01*
X138994785Y-60059285D01*
X138930976Y-60023571D01*
X138899071Y-59987857D01*
X140047642Y-59273571D02*
X139473357Y-60237857D01*
X140302880Y-60059285D02*
X140430500Y-60059285D01*
X140494309Y-60023571D01*
X140526214Y-59987857D01*
X140590023Y-59880714D01*
X140621928Y-59737857D01*
X140621928Y-59452142D01*
X140590023Y-59380714D01*
X140558119Y-59345000D01*
X140494309Y-59309285D01*
X140366690Y-59309285D01*
X140302880Y-59345000D01*
X140270976Y-59380714D01*
X140239071Y-59452142D01*
X140239071Y-59630714D01*
X140270976Y-59702142D01*
X140302880Y-59737857D01*
X140366690Y-59773571D01*
X140494309Y-59773571D01*
X140558119Y-59737857D01*
X140590023Y-59702142D01*
X140621928Y-59630714D01*
X137148928Y-34859285D02*
X137148928Y-34109285D01*
X137308452Y-34109285D01*
X137404166Y-34145000D01*
X137467976Y-34216428D01*
X137499880Y-34287857D01*
X137531785Y-34430714D01*
X137531785Y-34537857D01*
X137499880Y-34680714D01*
X137467976Y-34752142D01*
X137404166Y-34823571D01*
X137308452Y-34859285D01*
X137148928Y-34859285D01*
X137787023Y-34180714D02*
X137818928Y-34145000D01*
X137882738Y-34109285D01*
X138042261Y-34109285D01*
X138106071Y-34145000D01*
X138137976Y-34180714D01*
X138169880Y-34252142D01*
X138169880Y-34323571D01*
X138137976Y-34430714D01*
X137755119Y-34859285D01*
X138169880Y-34859285D01*
X138935595Y-34073571D02*
X138361309Y-35037857D01*
X139541785Y-34859285D02*
X139318452Y-34502142D01*
X139158928Y-34859285D02*
X139158928Y-34109285D01*
X139414166Y-34109285D01*
X139477976Y-34145000D01*
X139509880Y-34180714D01*
X139541785Y-34252142D01*
X139541785Y-34359285D01*
X139509880Y-34430714D01*
X139477976Y-34466428D01*
X139414166Y-34502142D01*
X139158928Y-34502142D01*
X139765119Y-34109285D02*
X140211785Y-34859285D01*
X140211785Y-34109285D02*
X139765119Y-34859285D01*
X140817976Y-34859285D02*
X140435119Y-34859285D01*
X140626547Y-34859285D02*
X140626547Y-34109285D01*
X140562738Y-34216428D01*
X140498928Y-34287857D01*
X140435119Y-34323571D01*
X136920976Y-57273571D02*
X137431452Y-57273571D01*
X138484309Y-57166428D02*
X138580023Y-57202142D01*
X138611928Y-57237857D01*
X138643833Y-57309285D01*
X138643833Y-57416428D01*
X138611928Y-57487857D01*
X138580023Y-57523571D01*
X138516214Y-57559285D01*
X138260976Y-57559285D01*
X138260976Y-56809285D01*
X138484309Y-56809285D01*
X138548119Y-56845000D01*
X138580023Y-56880714D01*
X138611928Y-56952142D01*
X138611928Y-57023571D01*
X138580023Y-57095000D01*
X138548119Y-57130714D01*
X138484309Y-57166428D01*
X138260976Y-57166428D01*
X139218119Y-57059285D02*
X139218119Y-57559285D01*
X139058595Y-56773571D02*
X138899071Y-57309285D01*
X139313833Y-57309285D01*
X140047642Y-56773571D02*
X139473357Y-57737857D01*
X140366690Y-57130714D02*
X140302880Y-57095000D01*
X140270976Y-57059285D01*
X140239071Y-56987857D01*
X140239071Y-56952142D01*
X140270976Y-56880714D01*
X140302880Y-56845000D01*
X140366690Y-56809285D01*
X140494309Y-56809285D01*
X140558119Y-56845000D01*
X140590023Y-56880714D01*
X140621928Y-56952142D01*
X140621928Y-56987857D01*
X140590023Y-57059285D01*
X140558119Y-57095000D01*
X140494309Y-57130714D01*
X140366690Y-57130714D01*
X140302880Y-57166428D01*
X140270976Y-57202142D01*
X140239071Y-57273571D01*
X140239071Y-57416428D01*
X140270976Y-57487857D01*
X140302880Y-57523571D01*
X140366690Y-57559285D01*
X140494309Y-57559285D01*
X140558119Y-57523571D01*
X140590023Y-57487857D01*
X140621928Y-57416428D01*
X140621928Y-57273571D01*
X140590023Y-57202142D01*
X140558119Y-57166428D01*
X140494309Y-57130714D01*
D13*
X132316071Y-27809285D02*
X132316071Y-27059285D01*
X132566071Y-27595000D01*
X132816071Y-27059285D01*
X132816071Y-27809285D01*
X133173214Y-27809285D02*
X133173214Y-27309285D01*
X133173214Y-27059285D02*
X133137500Y-27095000D01*
X133173214Y-27130714D01*
X133208928Y-27095000D01*
X133173214Y-27059285D01*
X133173214Y-27130714D01*
X133851785Y-27773571D02*
X133780357Y-27809285D01*
X133637500Y-27809285D01*
X133566071Y-27773571D01*
X133530357Y-27737857D01*
X133494642Y-27666428D01*
X133494642Y-27452142D01*
X133530357Y-27380714D01*
X133566071Y-27345000D01*
X133637500Y-27309285D01*
X133780357Y-27309285D01*
X133851785Y-27345000D01*
X134173214Y-27809285D02*
X134173214Y-27309285D01*
X134173214Y-27452142D02*
X134208928Y-27380714D01*
X134244642Y-27345000D01*
X134316071Y-27309285D01*
X134387500Y-27309285D01*
X134744642Y-27809285D02*
X134673214Y-27773571D01*
X134637500Y-27737857D01*
X134601785Y-27666428D01*
X134601785Y-27452142D01*
X134637500Y-27380714D01*
X134673214Y-27345000D01*
X134744642Y-27309285D01*
X134851785Y-27309285D01*
X134923214Y-27345000D01*
X134958928Y-27380714D01*
X134994642Y-27452142D01*
X134994642Y-27666428D01*
X134958928Y-27737857D01*
X134923214Y-27773571D01*
X134851785Y-27809285D01*
X134744642Y-27809285D01*
X135316071Y-27059285D02*
X135316071Y-27666428D01*
X135351785Y-27737857D01*
X135387500Y-27773571D01*
X135458928Y-27809285D01*
X135601785Y-27809285D01*
X135673214Y-27773571D01*
X135708928Y-27737857D01*
X135744642Y-27666428D01*
X135744642Y-27059285D01*
X136066071Y-27773571D02*
X136173214Y-27809285D01*
X136351785Y-27809285D01*
X136423214Y-27773571D01*
X136458928Y-27737857D01*
X136494642Y-27666428D01*
X136494642Y-27595000D01*
X136458928Y-27523571D01*
X136423214Y-27487857D01*
X136351785Y-27452142D01*
X136208928Y-27416428D01*
X136137500Y-27380714D01*
X136101785Y-27345000D01*
X136066071Y-27273571D01*
X136066071Y-27202142D01*
X136101785Y-27130714D01*
X136137500Y-27095000D01*
X136208928Y-27059285D01*
X136387500Y-27059285D01*
X136494642Y-27095000D01*
X137066071Y-27416428D02*
X137173214Y-27452142D01*
X137208928Y-27487857D01*
X137244642Y-27559285D01*
X137244642Y-27666428D01*
X137208928Y-27737857D01*
X137173214Y-27773571D01*
X137101785Y-27809285D01*
X136816071Y-27809285D01*
X136816071Y-27059285D01*
X137066071Y-27059285D01*
X137137500Y-27095000D01*
X137173214Y-27130714D01*
X137208928Y-27202142D01*
X137208928Y-27273571D01*
X137173214Y-27345000D01*
X137137500Y-27380714D01*
X137066071Y-27416428D01*
X136816071Y-27416428D01*
X132316071Y-27809285D02*
X132316071Y-27059285D01*
X132566071Y-27595000D01*
X132816071Y-27059285D01*
X132816071Y-27809285D01*
X133173214Y-27809285D02*
X133173214Y-27309285D01*
X133173214Y-27059285D02*
X133137500Y-27095000D01*
X133173214Y-27130714D01*
X133208928Y-27095000D01*
X133173214Y-27059285D01*
X133173214Y-27130714D01*
X133851785Y-27773571D02*
X133780357Y-27809285D01*
X133637500Y-27809285D01*
X133566071Y-27773571D01*
X133530357Y-27737857D01*
X133494642Y-27666428D01*
X133494642Y-27452142D01*
X133530357Y-27380714D01*
X133566071Y-27345000D01*
X133637500Y-27309285D01*
X133780357Y-27309285D01*
X133851785Y-27345000D01*
X134173214Y-27809285D02*
X134173214Y-27309285D01*
X134173214Y-27452142D02*
X134208928Y-27380714D01*
X134244642Y-27345000D01*
X134316071Y-27309285D01*
X134387500Y-27309285D01*
X134744642Y-27809285D02*
X134673214Y-27773571D01*
X134637500Y-27737857D01*
X134601785Y-27666428D01*
X134601785Y-27452142D01*
X134637500Y-27380714D01*
X134673214Y-27345000D01*
X134744642Y-27309285D01*
X134851785Y-27309285D01*
X134923214Y-27345000D01*
X134958928Y-27380714D01*
X134994642Y-27452142D01*
X134994642Y-27666428D01*
X134958928Y-27737857D01*
X134923214Y-27773571D01*
X134851785Y-27809285D01*
X134744642Y-27809285D01*
X135316071Y-27059285D02*
X135316071Y-27666428D01*
X135351785Y-27737857D01*
X135387500Y-27773571D01*
X135458928Y-27809285D01*
X135601785Y-27809285D01*
X135673214Y-27773571D01*
X135708928Y-27737857D01*
X135744642Y-27666428D01*
X135744642Y-27059285D01*
X136066071Y-27773571D02*
X136173214Y-27809285D01*
X136351785Y-27809285D01*
X136423214Y-27773571D01*
X136458928Y-27737857D01*
X136494642Y-27666428D01*
X136494642Y-27595000D01*
X136458928Y-27523571D01*
X136423214Y-27487857D01*
X136351785Y-27452142D01*
X136208928Y-27416428D01*
X136137500Y-27380714D01*
X136101785Y-27345000D01*
X136066071Y-27273571D01*
X136066071Y-27202142D01*
X136101785Y-27130714D01*
X136137500Y-27095000D01*
X136208928Y-27059285D01*
X136387500Y-27059285D01*
X136494642Y-27095000D01*
X137066071Y-27416428D02*
X137173214Y-27452142D01*
X137208928Y-27487857D01*
X137244642Y-27559285D01*
X137244642Y-27666428D01*
X137208928Y-27737857D01*
X137173214Y-27773571D01*
X137101785Y-27809285D01*
X136816071Y-27809285D01*
X136816071Y-27059285D01*
X137066071Y-27059285D01*
X137137500Y-27095000D01*
X137173214Y-27130714D01*
X137208928Y-27202142D01*
X137208928Y-27273571D01*
X137173214Y-27345000D01*
X137137500Y-27380714D01*
X137066071Y-27416428D01*
X136816071Y-27416428D01*
%TO.C,U2*%
D10*
D11*
X156126761Y-32451285D02*
X155960095Y-32094142D01*
X155841047Y-32451285D02*
X155841047Y-31701285D01*
X156031523Y-31701285D01*
X156079142Y-31737000D01*
X156102952Y-31772714D01*
X156126761Y-31844142D01*
X156126761Y-31951285D01*
X156102952Y-32022714D01*
X156079142Y-32058428D01*
X156031523Y-32094142D01*
X155841047Y-32094142D01*
X156317238Y-32237000D02*
X156555333Y-32237000D01*
X156269619Y-32451285D02*
X156436285Y-31701285D01*
X156602952Y-32451285D01*
X156722000Y-31701285D02*
X156841047Y-32451285D01*
X156936285Y-31915571D01*
X157031523Y-32451285D01*
X157150571Y-31701285D01*
X157722000Y-32165571D02*
X158102952Y-32165571D01*
X166432023Y-39115000D02*
X166368214Y-39079285D01*
X166272500Y-39079285D01*
X166176785Y-39115000D01*
X166112976Y-39186428D01*
X166081071Y-39257857D01*
X166049166Y-39400714D01*
X166049166Y-39507857D01*
X166081071Y-39650714D01*
X166112976Y-39722142D01*
X166176785Y-39793571D01*
X166272500Y-39829285D01*
X166336309Y-39829285D01*
X166432023Y-39793571D01*
X166463928Y-39757857D01*
X166463928Y-39507857D01*
X166336309Y-39507857D01*
X166751071Y-39829285D02*
X166751071Y-39079285D01*
X167133928Y-39829285D01*
X167133928Y-39079285D01*
X167452976Y-39829285D02*
X167452976Y-39079285D01*
X167612500Y-39079285D01*
X167708214Y-39115000D01*
X167772023Y-39186428D01*
X167803928Y-39257857D01*
X167835833Y-39400714D01*
X167835833Y-39507857D01*
X167803928Y-39650714D01*
X167772023Y-39722142D01*
X167708214Y-39793571D01*
X167612500Y-39829285D01*
X167452976Y-39829285D01*
X156378190Y-37594785D02*
X156211523Y-37237642D01*
X156092476Y-37594785D02*
X156092476Y-36844785D01*
X156282952Y-36844785D01*
X156330571Y-36880500D01*
X156354380Y-36916214D01*
X156378190Y-36987642D01*
X156378190Y-37094785D01*
X156354380Y-37166214D01*
X156330571Y-37201928D01*
X156282952Y-37237642D01*
X156092476Y-37237642D01*
X156568666Y-37559071D02*
X156640095Y-37594785D01*
X156759142Y-37594785D01*
X156806761Y-37559071D01*
X156830571Y-37523357D01*
X156854380Y-37451928D01*
X156854380Y-37380500D01*
X156830571Y-37309071D01*
X156806761Y-37273357D01*
X156759142Y-37237642D01*
X156663904Y-37201928D01*
X156616285Y-37166214D01*
X156592476Y-37130500D01*
X156568666Y-37059071D01*
X156568666Y-36987642D01*
X156592476Y-36916214D01*
X156616285Y-36880500D01*
X156663904Y-36844785D01*
X156782952Y-36844785D01*
X156854380Y-36880500D01*
X156997238Y-36844785D02*
X157282952Y-36844785D01*
X157140095Y-37594785D02*
X157140095Y-36844785D01*
X155985333Y-39321285D02*
X156152000Y-40071285D01*
X156318666Y-39321285D01*
X156771047Y-39999857D02*
X156747238Y-40035571D01*
X156675809Y-40071285D01*
X156628190Y-40071285D01*
X156556761Y-40035571D01*
X156509142Y-39964142D01*
X156485333Y-39892714D01*
X156461523Y-39749857D01*
X156461523Y-39642714D01*
X156485333Y-39499857D01*
X156509142Y-39428428D01*
X156556761Y-39357000D01*
X156628190Y-39321285D01*
X156675809Y-39321285D01*
X156747238Y-39357000D01*
X156771047Y-39392714D01*
X157271047Y-39999857D02*
X157247238Y-40035571D01*
X157175809Y-40071285D01*
X157128190Y-40071285D01*
X157056761Y-40035571D01*
X157009142Y-39964142D01*
X156985333Y-39892714D01*
X156961523Y-39749857D01*
X156961523Y-39642714D01*
X156985333Y-39499857D01*
X157009142Y-39428428D01*
X157056761Y-39357000D01*
X157128190Y-39321285D01*
X157175809Y-39321285D01*
X157247238Y-39357000D01*
X157271047Y-39392714D01*
X156198857Y-42289000D02*
X156517904Y-42289000D01*
X156135047Y-42503285D02*
X156358380Y-41753285D01*
X156581714Y-42503285D01*
X156741238Y-41753285D02*
X157156000Y-41753285D01*
X156932666Y-42039000D01*
X157028380Y-42039000D01*
X157092190Y-42074714D01*
X157124095Y-42110428D01*
X157156000Y-42181857D01*
X157156000Y-42360428D01*
X157124095Y-42431857D01*
X157092190Y-42467571D01*
X157028380Y-42503285D01*
X156836952Y-42503285D01*
X156773142Y-42467571D01*
X156741238Y-42431857D01*
X157921714Y-41717571D02*
X157347428Y-42681857D01*
X158368380Y-42110428D02*
X158145047Y-42110428D01*
X158145047Y-42503285D02*
X158145047Y-41753285D01*
X158464095Y-41753285D01*
X159006476Y-42003285D02*
X159006476Y-42503285D01*
X158846952Y-41717571D02*
X158687428Y-42253285D01*
X159102190Y-42253285D01*
X160155047Y-42467571D02*
X160091238Y-42503285D01*
X159963619Y-42503285D01*
X159899809Y-42467571D01*
X159867904Y-42431857D01*
X159836000Y-42360428D01*
X159836000Y-42146142D01*
X159867904Y-42074714D01*
X159899809Y-42039000D01*
X159963619Y-42003285D01*
X160091238Y-42003285D01*
X160155047Y-42039000D01*
X160569809Y-41753285D02*
X160633619Y-41753285D01*
X160697428Y-41789000D01*
X160729333Y-41824714D01*
X160761238Y-41896142D01*
X160793142Y-42039000D01*
X160793142Y-42217571D01*
X160761238Y-42360428D01*
X160729333Y-42431857D01*
X160697428Y-42467571D01*
X160633619Y-42503285D01*
X160569809Y-42503285D01*
X160506000Y-42467571D01*
X160474095Y-42431857D01*
X160442190Y-42360428D01*
X160410285Y-42217571D01*
X160410285Y-42039000D01*
X160442190Y-41896142D01*
X160474095Y-41824714D01*
X160506000Y-41789000D01*
X160569809Y-41753285D01*
X156311357Y-44765000D02*
X156630404Y-44765000D01*
X156247547Y-44979285D02*
X156470880Y-44229285D01*
X156694214Y-44979285D01*
X156885642Y-44300714D02*
X156917547Y-44265000D01*
X156981357Y-44229285D01*
X157140880Y-44229285D01*
X157204690Y-44265000D01*
X157236595Y-44300714D01*
X157268500Y-44372142D01*
X157268500Y-44443571D01*
X157236595Y-44550714D01*
X156853738Y-44979285D01*
X157268500Y-44979285D01*
X158034214Y-44193571D02*
X157459928Y-45157857D01*
X158480880Y-44586428D02*
X158257547Y-44586428D01*
X158257547Y-44979285D02*
X158257547Y-44229285D01*
X158576595Y-44229285D01*
X159150880Y-44229285D02*
X158831833Y-44229285D01*
X158799928Y-44586428D01*
X158831833Y-44550714D01*
X158895642Y-44515000D01*
X159055166Y-44515000D01*
X159118976Y-44550714D01*
X159150880Y-44586428D01*
X159182785Y-44657857D01*
X159182785Y-44836428D01*
X159150880Y-44907857D01*
X159118976Y-44943571D01*
X159055166Y-44979285D01*
X158895642Y-44979285D01*
X158831833Y-44943571D01*
X158799928Y-44907857D01*
X160267547Y-44943571D02*
X160203738Y-44979285D01*
X160076119Y-44979285D01*
X160012309Y-44943571D01*
X159980404Y-44907857D01*
X159948500Y-44836428D01*
X159948500Y-44622142D01*
X159980404Y-44550714D01*
X160012309Y-44515000D01*
X160076119Y-44479285D01*
X160203738Y-44479285D01*
X160267547Y-44515000D01*
X160905642Y-44979285D02*
X160522785Y-44979285D01*
X160714214Y-44979285D02*
X160714214Y-44229285D01*
X160650404Y-44336428D01*
X160586595Y-44407857D01*
X160522785Y-44443571D01*
X156311357Y-47265000D02*
X156630404Y-47265000D01*
X156247547Y-47479285D02*
X156470880Y-46729285D01*
X156694214Y-47479285D01*
X157268500Y-47479285D02*
X156885642Y-47479285D01*
X157077071Y-47479285D02*
X157077071Y-46729285D01*
X157013261Y-46836428D01*
X156949452Y-46907857D01*
X156885642Y-46943571D01*
X158034214Y-46693571D02*
X157459928Y-47657857D01*
X158480880Y-47086428D02*
X158257547Y-47086428D01*
X158257547Y-47479285D02*
X158257547Y-46729285D01*
X158576595Y-46729285D01*
X159118976Y-46729285D02*
X158991357Y-46729285D01*
X158927547Y-46765000D01*
X158895642Y-46800714D01*
X158831833Y-46907857D01*
X158799928Y-47050714D01*
X158799928Y-47336428D01*
X158831833Y-47407857D01*
X158863738Y-47443571D01*
X158927547Y-47479285D01*
X159055166Y-47479285D01*
X159118976Y-47443571D01*
X159150880Y-47407857D01*
X159182785Y-47336428D01*
X159182785Y-47157857D01*
X159150880Y-47086428D01*
X159118976Y-47050714D01*
X159055166Y-47015000D01*
X158927547Y-47015000D01*
X158863738Y-47050714D01*
X158831833Y-47086428D01*
X158799928Y-47157857D01*
X160267547Y-47443571D02*
X160203738Y-47479285D01*
X160076119Y-47479285D01*
X160012309Y-47443571D01*
X159980404Y-47407857D01*
X159948500Y-47336428D01*
X159948500Y-47122142D01*
X159980404Y-47050714D01*
X160012309Y-47015000D01*
X160076119Y-46979285D01*
X160203738Y-46979285D01*
X160267547Y-47015000D01*
X160522785Y-46800714D02*
X160554690Y-46765000D01*
X160618500Y-46729285D01*
X160778023Y-46729285D01*
X160841833Y-46765000D01*
X160873738Y-46800714D01*
X160905642Y-46872142D01*
X160905642Y-46943571D01*
X160873738Y-47050714D01*
X160490880Y-47479285D01*
X160905642Y-47479285D01*
X156311357Y-49815000D02*
X156630404Y-49815000D01*
X156247547Y-50029285D02*
X156470880Y-49279285D01*
X156694214Y-50029285D01*
X157045166Y-49279285D02*
X157108976Y-49279285D01*
X157172785Y-49315000D01*
X157204690Y-49350714D01*
X157236595Y-49422142D01*
X157268500Y-49565000D01*
X157268500Y-49743571D01*
X157236595Y-49886428D01*
X157204690Y-49957857D01*
X157172785Y-49993571D01*
X157108976Y-50029285D01*
X157045166Y-50029285D01*
X156981357Y-49993571D01*
X156949452Y-49957857D01*
X156917547Y-49886428D01*
X156885642Y-49743571D01*
X156885642Y-49565000D01*
X156917547Y-49422142D01*
X156949452Y-49350714D01*
X156981357Y-49315000D01*
X157045166Y-49279285D01*
X158034214Y-49243571D02*
X157459928Y-50207857D01*
X158480880Y-49636428D02*
X158257547Y-49636428D01*
X158257547Y-50029285D02*
X158257547Y-49279285D01*
X158576595Y-49279285D01*
X158768023Y-49279285D02*
X159214690Y-49279285D01*
X158927547Y-50029285D01*
X160267547Y-49993571D02*
X160203738Y-50029285D01*
X160076119Y-50029285D01*
X160012309Y-49993571D01*
X159980404Y-49957857D01*
X159948500Y-49886428D01*
X159948500Y-49672142D01*
X159980404Y-49600714D01*
X160012309Y-49565000D01*
X160076119Y-49529285D01*
X160203738Y-49529285D01*
X160267547Y-49565000D01*
X160490880Y-49279285D02*
X160905642Y-49279285D01*
X160682309Y-49565000D01*
X160778023Y-49565000D01*
X160841833Y-49600714D01*
X160873738Y-49636428D01*
X160905642Y-49707857D01*
X160905642Y-49886428D01*
X160873738Y-49957857D01*
X160841833Y-49993571D01*
X160778023Y-50029285D01*
X160586595Y-50029285D01*
X160522785Y-49993571D01*
X160490880Y-49957857D01*
X156614452Y-52579285D02*
X156231595Y-52579285D01*
X156423023Y-52579285D02*
X156423023Y-51829285D01*
X156359214Y-51936428D01*
X156295404Y-52007857D01*
X156231595Y-52043571D01*
X157220642Y-51829285D02*
X156901595Y-51829285D01*
X156869690Y-52186428D01*
X156901595Y-52150714D01*
X156965404Y-52115000D01*
X157124928Y-52115000D01*
X157188738Y-52150714D01*
X157220642Y-52186428D01*
X157252547Y-52257857D01*
X157252547Y-52436428D01*
X157220642Y-52507857D01*
X157188738Y-52543571D01*
X157124928Y-52579285D01*
X156965404Y-52579285D01*
X156901595Y-52543571D01*
X156869690Y-52507857D01*
X158018261Y-51793571D02*
X157443976Y-52757857D01*
X158464928Y-52186428D02*
X158560642Y-52222142D01*
X158592547Y-52257857D01*
X158624452Y-52329285D01*
X158624452Y-52436428D01*
X158592547Y-52507857D01*
X158560642Y-52543571D01*
X158496833Y-52579285D01*
X158241595Y-52579285D01*
X158241595Y-51829285D01*
X158464928Y-51829285D01*
X158528738Y-51865000D01*
X158560642Y-51900714D01*
X158592547Y-51972142D01*
X158592547Y-52043571D01*
X158560642Y-52115000D01*
X158528738Y-52150714D01*
X158464928Y-52186428D01*
X158241595Y-52186428D01*
X159262547Y-52579285D02*
X158879690Y-52579285D01*
X159071119Y-52579285D02*
X159071119Y-51829285D01*
X159007309Y-51936428D01*
X158943500Y-52007857D01*
X158879690Y-52043571D01*
X160347309Y-52543571D02*
X160283500Y-52579285D01*
X160155880Y-52579285D01*
X160092071Y-52543571D01*
X160060166Y-52507857D01*
X160028261Y-52436428D01*
X160028261Y-52222142D01*
X160060166Y-52150714D01*
X160092071Y-52115000D01*
X160155880Y-52079285D01*
X160283500Y-52079285D01*
X160347309Y-52115000D01*
X160921595Y-52079285D02*
X160921595Y-52579285D01*
X160762071Y-51793571D02*
X160602547Y-52329285D01*
X161017309Y-52329285D01*
X156501952Y-55129285D02*
X156119095Y-55129285D01*
X156310523Y-55129285D02*
X156310523Y-54379285D01*
X156246714Y-54486428D01*
X156182904Y-54557857D01*
X156119095Y-54593571D01*
X157076238Y-54629285D02*
X157076238Y-55129285D01*
X156916714Y-54343571D02*
X156757190Y-54879285D01*
X157171952Y-54879285D01*
X157905761Y-54343571D02*
X157331476Y-55307857D01*
X158352428Y-54736428D02*
X158448142Y-54772142D01*
X158480047Y-54807857D01*
X158511952Y-54879285D01*
X158511952Y-54986428D01*
X158480047Y-55057857D01*
X158448142Y-55093571D01*
X158384333Y-55129285D01*
X158129095Y-55129285D01*
X158129095Y-54379285D01*
X158352428Y-54379285D01*
X158416238Y-54415000D01*
X158448142Y-54450714D01*
X158480047Y-54522142D01*
X158480047Y-54593571D01*
X158448142Y-54665000D01*
X158416238Y-54700714D01*
X158352428Y-54736428D01*
X158129095Y-54736428D01*
X158735285Y-54379285D02*
X159150047Y-54379285D01*
X158926714Y-54665000D01*
X159022428Y-54665000D01*
X159086238Y-54700714D01*
X159118142Y-54736428D01*
X159150047Y-54807857D01*
X159150047Y-54986428D01*
X159118142Y-55057857D01*
X159086238Y-55093571D01*
X159022428Y-55129285D01*
X158831000Y-55129285D01*
X158767190Y-55093571D01*
X158735285Y-55057857D01*
X160234809Y-55093571D02*
X160171000Y-55129285D01*
X160043380Y-55129285D01*
X159979571Y-55093571D01*
X159947666Y-55057857D01*
X159915761Y-54986428D01*
X159915761Y-54772142D01*
X159947666Y-54700714D01*
X159979571Y-54665000D01*
X160043380Y-54629285D01*
X160171000Y-54629285D01*
X160234809Y-54665000D01*
X160841000Y-54379285D02*
X160521952Y-54379285D01*
X160490047Y-54736428D01*
X160521952Y-54700714D01*
X160585761Y-54665000D01*
X160745285Y-54665000D01*
X160809095Y-54700714D01*
X160841000Y-54736428D01*
X160872904Y-54807857D01*
X160872904Y-54986428D01*
X160841000Y-55057857D01*
X160809095Y-55093571D01*
X160745285Y-55129285D01*
X160585761Y-55129285D01*
X160521952Y-55093571D01*
X160490047Y-55057857D01*
X156551880Y-60179285D02*
X156169023Y-60179285D01*
X156360452Y-60179285D02*
X156360452Y-59429285D01*
X156296642Y-59536428D01*
X156232833Y-59607857D01*
X156169023Y-59643571D01*
X156966642Y-59429285D02*
X157030452Y-59429285D01*
X157094261Y-59465000D01*
X157126166Y-59500714D01*
X157158071Y-59572142D01*
X157189976Y-59715000D01*
X157189976Y-59893571D01*
X157158071Y-60036428D01*
X157126166Y-60107857D01*
X157094261Y-60143571D01*
X157030452Y-60179285D01*
X156966642Y-60179285D01*
X156902833Y-60143571D01*
X156870928Y-60107857D01*
X156839023Y-60036428D01*
X156807119Y-59893571D01*
X156807119Y-59715000D01*
X156839023Y-59572142D01*
X156870928Y-59500714D01*
X156902833Y-59465000D01*
X156966642Y-59429285D01*
X157955690Y-59393571D02*
X157381404Y-60357857D01*
X158402357Y-59786428D02*
X158498071Y-59822142D01*
X158529976Y-59857857D01*
X158561880Y-59929285D01*
X158561880Y-60036428D01*
X158529976Y-60107857D01*
X158498071Y-60143571D01*
X158434261Y-60179285D01*
X158179023Y-60179285D01*
X158179023Y-59429285D01*
X158402357Y-59429285D01*
X158466166Y-59465000D01*
X158498071Y-59500714D01*
X158529976Y-59572142D01*
X158529976Y-59643571D01*
X158498071Y-59715000D01*
X158466166Y-59750714D01*
X158402357Y-59786428D01*
X158179023Y-59786428D01*
X159136166Y-59429285D02*
X159008547Y-59429285D01*
X158944738Y-59465000D01*
X158912833Y-59500714D01*
X158849023Y-59607857D01*
X158817119Y-59750714D01*
X158817119Y-60036428D01*
X158849023Y-60107857D01*
X158880928Y-60143571D01*
X158944738Y-60179285D01*
X159072357Y-60179285D01*
X159136166Y-60143571D01*
X159168071Y-60107857D01*
X159199976Y-60036428D01*
X159199976Y-59857857D01*
X159168071Y-59786428D01*
X159136166Y-59750714D01*
X159072357Y-59715000D01*
X158944738Y-59715000D01*
X158880928Y-59750714D01*
X158849023Y-59786428D01*
X158817119Y-59857857D01*
X159997595Y-59893571D02*
X160508071Y-59893571D01*
X156551880Y-57679285D02*
X156169023Y-57679285D01*
X156360452Y-57679285D02*
X156360452Y-56929285D01*
X156296642Y-57036428D01*
X156232833Y-57107857D01*
X156169023Y-57143571D01*
X157126166Y-56929285D02*
X156998547Y-56929285D01*
X156934738Y-56965000D01*
X156902833Y-57000714D01*
X156839023Y-57107857D01*
X156807119Y-57250714D01*
X156807119Y-57536428D01*
X156839023Y-57607857D01*
X156870928Y-57643571D01*
X156934738Y-57679285D01*
X157062357Y-57679285D01*
X157126166Y-57643571D01*
X157158071Y-57607857D01*
X157189976Y-57536428D01*
X157189976Y-57357857D01*
X157158071Y-57286428D01*
X157126166Y-57250714D01*
X157062357Y-57215000D01*
X156934738Y-57215000D01*
X156870928Y-57250714D01*
X156839023Y-57286428D01*
X156807119Y-57357857D01*
X157955690Y-56893571D02*
X157381404Y-57857857D01*
X158402357Y-57286428D02*
X158498071Y-57322142D01*
X158529976Y-57357857D01*
X158561880Y-57429285D01*
X158561880Y-57536428D01*
X158529976Y-57607857D01*
X158498071Y-57643571D01*
X158434261Y-57679285D01*
X158179023Y-57679285D01*
X158179023Y-56929285D01*
X158402357Y-56929285D01*
X158466166Y-56965000D01*
X158498071Y-57000714D01*
X158529976Y-57072142D01*
X158529976Y-57143571D01*
X158498071Y-57215000D01*
X158466166Y-57250714D01*
X158402357Y-57286428D01*
X158179023Y-57286428D01*
X158817119Y-57000714D02*
X158849023Y-56965000D01*
X158912833Y-56929285D01*
X159072357Y-56929285D01*
X159136166Y-56965000D01*
X159168071Y-57000714D01*
X159199976Y-57072142D01*
X159199976Y-57143571D01*
X159168071Y-57250714D01*
X158785214Y-57679285D01*
X159199976Y-57679285D01*
X159997595Y-57393571D02*
X160508071Y-57393571D01*
X163947714Y-54949285D02*
X163947714Y-54449285D01*
X163947714Y-54592142D02*
X163979619Y-54520714D01*
X164011523Y-54485000D01*
X164075333Y-54449285D01*
X164139142Y-54449285D01*
X164298666Y-54199285D02*
X164713428Y-54199285D01*
X164490095Y-54485000D01*
X164585809Y-54485000D01*
X164649619Y-54520714D01*
X164681523Y-54556428D01*
X164713428Y-54627857D01*
X164713428Y-54806428D01*
X164681523Y-54877857D01*
X164649619Y-54913571D01*
X164585809Y-54949285D01*
X164394380Y-54949285D01*
X164330571Y-54913571D01*
X164298666Y-54877857D01*
X165511047Y-54556428D02*
X165734380Y-54556428D01*
X165830095Y-54949285D02*
X165511047Y-54949285D01*
X165511047Y-54199285D01*
X165830095Y-54199285D01*
X166404380Y-54199285D02*
X166276761Y-54199285D01*
X166212952Y-54235000D01*
X166181047Y-54270714D01*
X166117238Y-54377857D01*
X166085333Y-54520714D01*
X166085333Y-54806428D01*
X166117238Y-54877857D01*
X166149142Y-54913571D01*
X166212952Y-54949285D01*
X166340571Y-54949285D01*
X166404380Y-54913571D01*
X166436285Y-54877857D01*
X166468190Y-54806428D01*
X166468190Y-54627857D01*
X166436285Y-54556428D01*
X166404380Y-54520714D01*
X166340571Y-54485000D01*
X166212952Y-54485000D01*
X166149142Y-54520714D01*
X166117238Y-54556428D01*
X166085333Y-54627857D01*
X167233904Y-54163571D02*
X166659619Y-55127857D01*
X167393428Y-54199285D02*
X167840095Y-54199285D01*
X167552952Y-54949285D01*
X163984309Y-52429285D02*
X163984309Y-51929285D01*
X163984309Y-52072142D02*
X164016214Y-52000714D01*
X164048119Y-51965000D01*
X164111928Y-51929285D01*
X164175738Y-51929285D01*
X164367166Y-51750714D02*
X164399071Y-51715000D01*
X164462880Y-51679285D01*
X164622404Y-51679285D01*
X164686214Y-51715000D01*
X164718119Y-51750714D01*
X164750023Y-51822142D01*
X164750023Y-51893571D01*
X164718119Y-52000714D01*
X164335261Y-52429285D01*
X164750023Y-52429285D01*
X165547642Y-52429285D02*
X165547642Y-51679285D01*
X165707166Y-51679285D01*
X165802880Y-51715000D01*
X165866690Y-51786428D01*
X165898595Y-51857857D01*
X165930500Y-52000714D01*
X165930500Y-52107857D01*
X165898595Y-52250714D01*
X165866690Y-52322142D01*
X165802880Y-52393571D01*
X165707166Y-52429285D01*
X165547642Y-52429285D01*
X166153833Y-51679285D02*
X166600500Y-51679285D01*
X166313357Y-52429285D01*
X167334309Y-51643571D02*
X166760023Y-52607857D01*
X167844785Y-51679285D02*
X167717166Y-51679285D01*
X167653357Y-51715000D01*
X167621452Y-51750714D01*
X167557642Y-51857857D01*
X167525738Y-52000714D01*
X167525738Y-52286428D01*
X167557642Y-52357857D01*
X167589547Y-52393571D01*
X167653357Y-52429285D01*
X167780976Y-52429285D01*
X167844785Y-52393571D01*
X167876690Y-52357857D01*
X167908595Y-52286428D01*
X167908595Y-52107857D01*
X167876690Y-52036428D01*
X167844785Y-52000714D01*
X167780976Y-51965000D01*
X167653357Y-51965000D01*
X167589547Y-52000714D01*
X167557642Y-52036428D01*
X167525738Y-52107857D01*
X166432023Y-36665000D02*
X166368214Y-36629285D01*
X166272500Y-36629285D01*
X166176785Y-36665000D01*
X166112976Y-36736428D01*
X166081071Y-36807857D01*
X166049166Y-36950714D01*
X166049166Y-37057857D01*
X166081071Y-37200714D01*
X166112976Y-37272142D01*
X166176785Y-37343571D01*
X166272500Y-37379285D01*
X166336309Y-37379285D01*
X166432023Y-37343571D01*
X166463928Y-37307857D01*
X166463928Y-37057857D01*
X166336309Y-37057857D01*
X166751071Y-37379285D02*
X166751071Y-36629285D01*
X167133928Y-37379285D01*
X167133928Y-36629285D01*
X167452976Y-37379285D02*
X167452976Y-36629285D01*
X167612500Y-36629285D01*
X167708214Y-36665000D01*
X167772023Y-36736428D01*
X167803928Y-36807857D01*
X167835833Y-36950714D01*
X167835833Y-37057857D01*
X167803928Y-37200714D01*
X167772023Y-37272142D01*
X167708214Y-37343571D01*
X167612500Y-37379285D01*
X167452976Y-37379285D01*
X166432023Y-39115000D02*
X166368214Y-39079285D01*
X166272500Y-39079285D01*
X166176785Y-39115000D01*
X166112976Y-39186428D01*
X166081071Y-39257857D01*
X166049166Y-39400714D01*
X166049166Y-39507857D01*
X166081071Y-39650714D01*
X166112976Y-39722142D01*
X166176785Y-39793571D01*
X166272500Y-39829285D01*
X166336309Y-39829285D01*
X166432023Y-39793571D01*
X166463928Y-39757857D01*
X166463928Y-39507857D01*
X166336309Y-39507857D01*
X166751071Y-39829285D02*
X166751071Y-39079285D01*
X167133928Y-39829285D01*
X167133928Y-39079285D01*
X167452976Y-39829285D02*
X167452976Y-39079285D01*
X167612500Y-39079285D01*
X167708214Y-39115000D01*
X167772023Y-39186428D01*
X167803928Y-39257857D01*
X167835833Y-39400714D01*
X167835833Y-39507857D01*
X167803928Y-39650714D01*
X167772023Y-39722142D01*
X167708214Y-39793571D01*
X167612500Y-39829285D01*
X167452976Y-39829285D01*
X162689952Y-32279285D02*
X162626142Y-32243571D01*
X162594238Y-32172142D01*
X162594238Y-31529285D01*
X163200428Y-32243571D02*
X163136619Y-32279285D01*
X163009000Y-32279285D01*
X162945190Y-32243571D01*
X162913285Y-32172142D01*
X162913285Y-31886428D01*
X162945190Y-31815000D01*
X163009000Y-31779285D01*
X163136619Y-31779285D01*
X163200428Y-31815000D01*
X163232333Y-31886428D01*
X163232333Y-31957857D01*
X162913285Y-32029285D01*
X163806619Y-32279285D02*
X163806619Y-31529285D01*
X163806619Y-32243571D02*
X163742809Y-32279285D01*
X163615190Y-32279285D01*
X163551380Y-32243571D01*
X163519476Y-32207857D01*
X163487571Y-32136428D01*
X163487571Y-31922142D01*
X163519476Y-31850714D01*
X163551380Y-31815000D01*
X163615190Y-31779285D01*
X163742809Y-31779285D01*
X163806619Y-31815000D01*
X164636142Y-32279285D02*
X164636142Y-31529285D01*
X164795666Y-31529285D01*
X164891380Y-31565000D01*
X164955190Y-31636428D01*
X164987095Y-31707857D01*
X165019000Y-31850714D01*
X165019000Y-31957857D01*
X164987095Y-32100714D01*
X164955190Y-32172142D01*
X164891380Y-32243571D01*
X164795666Y-32279285D01*
X164636142Y-32279285D01*
X165242333Y-31529285D02*
X165657095Y-31529285D01*
X165433761Y-31815000D01*
X165529476Y-31815000D01*
X165593285Y-31850714D01*
X165625190Y-31886428D01*
X165657095Y-31957857D01*
X165657095Y-32136428D01*
X165625190Y-32207857D01*
X165593285Y-32243571D01*
X165529476Y-32279285D01*
X165338047Y-32279285D01*
X165274238Y-32243571D01*
X165242333Y-32207857D01*
X166422809Y-31493571D02*
X165848523Y-32457857D01*
X166550428Y-31529285D02*
X166933285Y-31529285D01*
X166741857Y-32279285D02*
X166741857Y-31529285D01*
X167092809Y-31529285D02*
X167539476Y-32279285D01*
X167539476Y-31529285D02*
X167092809Y-32279285D01*
X167922333Y-31529285D02*
X167986142Y-31529285D01*
X168049952Y-31565000D01*
X168081857Y-31600714D01*
X168113761Y-31672142D01*
X168145666Y-31815000D01*
X168145666Y-31993571D01*
X168113761Y-32136428D01*
X168081857Y-32207857D01*
X168049952Y-32243571D01*
X167986142Y-32279285D01*
X167922333Y-32279285D01*
X167858523Y-32243571D01*
X167826619Y-32207857D01*
X167794714Y-32136428D01*
X167762809Y-31993571D01*
X167762809Y-31815000D01*
X167794714Y-31672142D01*
X167826619Y-31600714D01*
X167858523Y-31565000D01*
X167922333Y-31529285D01*
X163915809Y-47329285D02*
X163915809Y-46829285D01*
X163915809Y-46972142D02*
X163947714Y-46900714D01*
X163979619Y-46865000D01*
X164043428Y-46829285D01*
X164107238Y-46829285D01*
X164458190Y-46579285D02*
X164522000Y-46579285D01*
X164585809Y-46615000D01*
X164617714Y-46650714D01*
X164649619Y-46722142D01*
X164681523Y-46865000D01*
X164681523Y-47043571D01*
X164649619Y-47186428D01*
X164617714Y-47257857D01*
X164585809Y-47293571D01*
X164522000Y-47329285D01*
X164458190Y-47329285D01*
X164394380Y-47293571D01*
X164362476Y-47257857D01*
X164330571Y-47186428D01*
X164298666Y-47043571D01*
X164298666Y-46865000D01*
X164330571Y-46722142D01*
X164362476Y-46650714D01*
X164394380Y-46615000D01*
X164458190Y-46579285D01*
X165479142Y-47329285D02*
X165479142Y-46579285D01*
X165638666Y-46579285D01*
X165734380Y-46615000D01*
X165798190Y-46686428D01*
X165830095Y-46757857D01*
X165862000Y-46900714D01*
X165862000Y-47007857D01*
X165830095Y-47150714D01*
X165798190Y-47222142D01*
X165734380Y-47293571D01*
X165638666Y-47329285D01*
X165479142Y-47329285D01*
X166436285Y-46829285D02*
X166436285Y-47329285D01*
X166276761Y-46543571D02*
X166117238Y-47079285D01*
X166532000Y-47079285D01*
X167265809Y-46543571D02*
X166691523Y-47507857D01*
X167776285Y-46829285D02*
X167776285Y-47329285D01*
X167616761Y-46543571D02*
X167457238Y-47079285D01*
X167872000Y-47079285D01*
X162953928Y-42293571D02*
X163049642Y-42329285D01*
X163209166Y-42329285D01*
X163272976Y-42293571D01*
X163304880Y-42257857D01*
X163336785Y-42186428D01*
X163336785Y-42115000D01*
X163304880Y-42043571D01*
X163272976Y-42007857D01*
X163209166Y-41972142D01*
X163081547Y-41936428D01*
X163017738Y-41900714D01*
X162985833Y-41865000D01*
X162953928Y-41793571D01*
X162953928Y-41722142D01*
X162985833Y-41650714D01*
X163017738Y-41615000D01*
X163081547Y-41579285D01*
X163241071Y-41579285D01*
X163336785Y-41615000D01*
X163623928Y-42329285D02*
X163623928Y-41579285D01*
X163783452Y-41579285D01*
X163879166Y-41615000D01*
X163942976Y-41686428D01*
X163974880Y-41757857D01*
X164006785Y-41900714D01*
X164006785Y-42007857D01*
X163974880Y-42150714D01*
X163942976Y-42222142D01*
X163879166Y-42293571D01*
X163783452Y-42329285D01*
X163623928Y-42329285D01*
X164262023Y-42115000D02*
X164581071Y-42115000D01*
X164198214Y-42329285D02*
X164421547Y-41579285D01*
X164644880Y-42329285D01*
X165346785Y-41543571D02*
X164772500Y-42507857D01*
X165570119Y-42329285D02*
X165570119Y-41579285D01*
X165729642Y-41579285D01*
X165825357Y-41615000D01*
X165889166Y-41686428D01*
X165921071Y-41757857D01*
X165952976Y-41900714D01*
X165952976Y-42007857D01*
X165921071Y-42150714D01*
X165889166Y-42222142D01*
X165825357Y-42293571D01*
X165729642Y-42329285D01*
X165570119Y-42329285D01*
X166591071Y-42329285D02*
X166208214Y-42329285D01*
X166399642Y-42329285D02*
X166399642Y-41579285D01*
X166335833Y-41686428D01*
X166272023Y-41757857D01*
X166208214Y-41793571D01*
X167356785Y-41543571D02*
X166782500Y-42507857D01*
X167548214Y-41650714D02*
X167580119Y-41615000D01*
X167643928Y-41579285D01*
X167803452Y-41579285D01*
X167867261Y-41615000D01*
X167899166Y-41650714D01*
X167931071Y-41722142D01*
X167931071Y-41793571D01*
X167899166Y-41900714D01*
X167516309Y-42329285D01*
X167931071Y-42329285D01*
X162969880Y-44793571D02*
X163065595Y-44829285D01*
X163225119Y-44829285D01*
X163288928Y-44793571D01*
X163320833Y-44757857D01*
X163352738Y-44686428D01*
X163352738Y-44615000D01*
X163320833Y-44543571D01*
X163288928Y-44507857D01*
X163225119Y-44472142D01*
X163097500Y-44436428D01*
X163033690Y-44400714D01*
X163001785Y-44365000D01*
X162969880Y-44293571D01*
X162969880Y-44222142D01*
X163001785Y-44150714D01*
X163033690Y-44115000D01*
X163097500Y-44079285D01*
X163257023Y-44079285D01*
X163352738Y-44115000D01*
X164022738Y-44757857D02*
X163990833Y-44793571D01*
X163895119Y-44829285D01*
X163831309Y-44829285D01*
X163735595Y-44793571D01*
X163671785Y-44722142D01*
X163639880Y-44650714D01*
X163607976Y-44507857D01*
X163607976Y-44400714D01*
X163639880Y-44257857D01*
X163671785Y-44186428D01*
X163735595Y-44115000D01*
X163831309Y-44079285D01*
X163895119Y-44079285D01*
X163990833Y-44115000D01*
X164022738Y-44150714D01*
X164628928Y-44829285D02*
X164309880Y-44829285D01*
X164309880Y-44079285D01*
X165330833Y-44043571D02*
X164756547Y-45007857D01*
X165554166Y-44829285D02*
X165554166Y-44079285D01*
X165713690Y-44079285D01*
X165809404Y-44115000D01*
X165873214Y-44186428D01*
X165905119Y-44257857D01*
X165937023Y-44400714D01*
X165937023Y-44507857D01*
X165905119Y-44650714D01*
X165873214Y-44722142D01*
X165809404Y-44793571D01*
X165713690Y-44829285D01*
X165554166Y-44829285D01*
X166351785Y-44079285D02*
X166415595Y-44079285D01*
X166479404Y-44115000D01*
X166511309Y-44150714D01*
X166543214Y-44222142D01*
X166575119Y-44365000D01*
X166575119Y-44543571D01*
X166543214Y-44686428D01*
X166511309Y-44757857D01*
X166479404Y-44793571D01*
X166415595Y-44829285D01*
X166351785Y-44829285D01*
X166287976Y-44793571D01*
X166256071Y-44757857D01*
X166224166Y-44686428D01*
X166192261Y-44543571D01*
X166192261Y-44365000D01*
X166224166Y-44222142D01*
X166256071Y-44150714D01*
X166287976Y-44115000D01*
X166351785Y-44079285D01*
X167340833Y-44043571D02*
X166766547Y-45007857D01*
X167500357Y-44079285D02*
X167915119Y-44079285D01*
X167691785Y-44365000D01*
X167787500Y-44365000D01*
X167851309Y-44400714D01*
X167883214Y-44436428D01*
X167915119Y-44507857D01*
X167915119Y-44686428D01*
X167883214Y-44757857D01*
X167851309Y-44793571D01*
X167787500Y-44829285D01*
X167596071Y-44829285D01*
X167532261Y-44793571D01*
X167500357Y-44757857D01*
X163984309Y-49879285D02*
X163984309Y-49379285D01*
X163984309Y-49522142D02*
X164016214Y-49450714D01*
X164048119Y-49415000D01*
X164111928Y-49379285D01*
X164175738Y-49379285D01*
X164750023Y-49879285D02*
X164367166Y-49879285D01*
X164558595Y-49879285D02*
X164558595Y-49129285D01*
X164494785Y-49236428D01*
X164430976Y-49307857D01*
X164367166Y-49343571D01*
X165930500Y-49807857D02*
X165898595Y-49843571D01*
X165802880Y-49879285D01*
X165739071Y-49879285D01*
X165643357Y-49843571D01*
X165579547Y-49772142D01*
X165547642Y-49700714D01*
X165515738Y-49557857D01*
X165515738Y-49450714D01*
X165547642Y-49307857D01*
X165579547Y-49236428D01*
X165643357Y-49165000D01*
X165739071Y-49129285D01*
X165802880Y-49129285D01*
X165898595Y-49165000D01*
X165930500Y-49200714D01*
X166504785Y-49129285D02*
X166377166Y-49129285D01*
X166313357Y-49165000D01*
X166281452Y-49200714D01*
X166217642Y-49307857D01*
X166185738Y-49450714D01*
X166185738Y-49736428D01*
X166217642Y-49807857D01*
X166249547Y-49843571D01*
X166313357Y-49879285D01*
X166440976Y-49879285D01*
X166504785Y-49843571D01*
X166536690Y-49807857D01*
X166568595Y-49736428D01*
X166568595Y-49557857D01*
X166536690Y-49486428D01*
X166504785Y-49450714D01*
X166440976Y-49415000D01*
X166313357Y-49415000D01*
X166249547Y-49450714D01*
X166217642Y-49486428D01*
X166185738Y-49557857D01*
X167334309Y-49093571D02*
X166760023Y-50057857D01*
X167876690Y-49129285D02*
X167557642Y-49129285D01*
X167525738Y-49486428D01*
X167557642Y-49450714D01*
X167621452Y-49415000D01*
X167780976Y-49415000D01*
X167844785Y-49450714D01*
X167876690Y-49486428D01*
X167908595Y-49557857D01*
X167908595Y-49736428D01*
X167876690Y-49807857D01*
X167844785Y-49843571D01*
X167780976Y-49879285D01*
X167621452Y-49879285D01*
X167557642Y-49843571D01*
X167525738Y-49807857D01*
X164095976Y-59743571D02*
X164606452Y-59743571D01*
X165659309Y-59636428D02*
X165755023Y-59672142D01*
X165786928Y-59707857D01*
X165818833Y-59779285D01*
X165818833Y-59886428D01*
X165786928Y-59957857D01*
X165755023Y-59993571D01*
X165691214Y-60029285D01*
X165435976Y-60029285D01*
X165435976Y-59279285D01*
X165659309Y-59279285D01*
X165723119Y-59315000D01*
X165755023Y-59350714D01*
X165786928Y-59422142D01*
X165786928Y-59493571D01*
X165755023Y-59565000D01*
X165723119Y-59600714D01*
X165659309Y-59636428D01*
X165435976Y-59636428D01*
X166425023Y-59279285D02*
X166105976Y-59279285D01*
X166074071Y-59636428D01*
X166105976Y-59600714D01*
X166169785Y-59565000D01*
X166329309Y-59565000D01*
X166393119Y-59600714D01*
X166425023Y-59636428D01*
X166456928Y-59707857D01*
X166456928Y-59886428D01*
X166425023Y-59957857D01*
X166393119Y-59993571D01*
X166329309Y-60029285D01*
X166169785Y-60029285D01*
X166105976Y-59993571D01*
X166074071Y-59957857D01*
X167222642Y-59243571D02*
X166648357Y-60207857D01*
X167477880Y-60029285D02*
X167605500Y-60029285D01*
X167669309Y-59993571D01*
X167701214Y-59957857D01*
X167765023Y-59850714D01*
X167796928Y-59707857D01*
X167796928Y-59422142D01*
X167765023Y-59350714D01*
X167733119Y-59315000D01*
X167669309Y-59279285D01*
X167541690Y-59279285D01*
X167477880Y-59315000D01*
X167445976Y-59350714D01*
X167414071Y-59422142D01*
X167414071Y-59600714D01*
X167445976Y-59672142D01*
X167477880Y-59707857D01*
X167541690Y-59743571D01*
X167669309Y-59743571D01*
X167733119Y-59707857D01*
X167765023Y-59672142D01*
X167796928Y-59600714D01*
X164323928Y-34829285D02*
X164323928Y-34079285D01*
X164483452Y-34079285D01*
X164579166Y-34115000D01*
X164642976Y-34186428D01*
X164674880Y-34257857D01*
X164706785Y-34400714D01*
X164706785Y-34507857D01*
X164674880Y-34650714D01*
X164642976Y-34722142D01*
X164579166Y-34793571D01*
X164483452Y-34829285D01*
X164323928Y-34829285D01*
X164962023Y-34150714D02*
X164993928Y-34115000D01*
X165057738Y-34079285D01*
X165217261Y-34079285D01*
X165281071Y-34115000D01*
X165312976Y-34150714D01*
X165344880Y-34222142D01*
X165344880Y-34293571D01*
X165312976Y-34400714D01*
X164930119Y-34829285D01*
X165344880Y-34829285D01*
X166110595Y-34043571D02*
X165536309Y-35007857D01*
X166716785Y-34829285D02*
X166493452Y-34472142D01*
X166333928Y-34829285D02*
X166333928Y-34079285D01*
X166589166Y-34079285D01*
X166652976Y-34115000D01*
X166684880Y-34150714D01*
X166716785Y-34222142D01*
X166716785Y-34329285D01*
X166684880Y-34400714D01*
X166652976Y-34436428D01*
X166589166Y-34472142D01*
X166333928Y-34472142D01*
X166940119Y-34079285D02*
X167386785Y-34829285D01*
X167386785Y-34079285D02*
X166940119Y-34829285D01*
X167992976Y-34829285D02*
X167610119Y-34829285D01*
X167801547Y-34829285D02*
X167801547Y-34079285D01*
X167737738Y-34186428D01*
X167673928Y-34257857D01*
X167610119Y-34293571D01*
X164095976Y-57243571D02*
X164606452Y-57243571D01*
X165659309Y-57136428D02*
X165755023Y-57172142D01*
X165786928Y-57207857D01*
X165818833Y-57279285D01*
X165818833Y-57386428D01*
X165786928Y-57457857D01*
X165755023Y-57493571D01*
X165691214Y-57529285D01*
X165435976Y-57529285D01*
X165435976Y-56779285D01*
X165659309Y-56779285D01*
X165723119Y-56815000D01*
X165755023Y-56850714D01*
X165786928Y-56922142D01*
X165786928Y-56993571D01*
X165755023Y-57065000D01*
X165723119Y-57100714D01*
X165659309Y-57136428D01*
X165435976Y-57136428D01*
X166393119Y-57029285D02*
X166393119Y-57529285D01*
X166233595Y-56743571D02*
X166074071Y-57279285D01*
X166488833Y-57279285D01*
X167222642Y-56743571D02*
X166648357Y-57707857D01*
X167541690Y-57100714D02*
X167477880Y-57065000D01*
X167445976Y-57029285D01*
X167414071Y-56957857D01*
X167414071Y-56922142D01*
X167445976Y-56850714D01*
X167477880Y-56815000D01*
X167541690Y-56779285D01*
X167669309Y-56779285D01*
X167733119Y-56815000D01*
X167765023Y-56850714D01*
X167796928Y-56922142D01*
X167796928Y-56957857D01*
X167765023Y-57029285D01*
X167733119Y-57065000D01*
X167669309Y-57100714D01*
X167541690Y-57100714D01*
X167477880Y-57136428D01*
X167445976Y-57172142D01*
X167414071Y-57243571D01*
X167414071Y-57386428D01*
X167445976Y-57457857D01*
X167477880Y-57493571D01*
X167541690Y-57529285D01*
X167669309Y-57529285D01*
X167733119Y-57493571D01*
X167765023Y-57457857D01*
X167796928Y-57386428D01*
X167796928Y-57243571D01*
X167765023Y-57172142D01*
X167733119Y-57136428D01*
X167669309Y-57100714D01*
D13*
X159491071Y-27779285D02*
X159491071Y-27029285D01*
X159741071Y-27565000D01*
X159991071Y-27029285D01*
X159991071Y-27779285D01*
X160348214Y-27779285D02*
X160348214Y-27279285D01*
X160348214Y-27029285D02*
X160312500Y-27065000D01*
X160348214Y-27100714D01*
X160383928Y-27065000D01*
X160348214Y-27029285D01*
X160348214Y-27100714D01*
X161026785Y-27743571D02*
X160955357Y-27779285D01*
X160812500Y-27779285D01*
X160741071Y-27743571D01*
X160705357Y-27707857D01*
X160669642Y-27636428D01*
X160669642Y-27422142D01*
X160705357Y-27350714D01*
X160741071Y-27315000D01*
X160812500Y-27279285D01*
X160955357Y-27279285D01*
X161026785Y-27315000D01*
X161348214Y-27779285D02*
X161348214Y-27279285D01*
X161348214Y-27422142D02*
X161383928Y-27350714D01*
X161419642Y-27315000D01*
X161491071Y-27279285D01*
X161562500Y-27279285D01*
X161919642Y-27779285D02*
X161848214Y-27743571D01*
X161812500Y-27707857D01*
X161776785Y-27636428D01*
X161776785Y-27422142D01*
X161812500Y-27350714D01*
X161848214Y-27315000D01*
X161919642Y-27279285D01*
X162026785Y-27279285D01*
X162098214Y-27315000D01*
X162133928Y-27350714D01*
X162169642Y-27422142D01*
X162169642Y-27636428D01*
X162133928Y-27707857D01*
X162098214Y-27743571D01*
X162026785Y-27779285D01*
X161919642Y-27779285D01*
X162491071Y-27029285D02*
X162491071Y-27636428D01*
X162526785Y-27707857D01*
X162562500Y-27743571D01*
X162633928Y-27779285D01*
X162776785Y-27779285D01*
X162848214Y-27743571D01*
X162883928Y-27707857D01*
X162919642Y-27636428D01*
X162919642Y-27029285D01*
X163241071Y-27743571D02*
X163348214Y-27779285D01*
X163526785Y-27779285D01*
X163598214Y-27743571D01*
X163633928Y-27707857D01*
X163669642Y-27636428D01*
X163669642Y-27565000D01*
X163633928Y-27493571D01*
X163598214Y-27457857D01*
X163526785Y-27422142D01*
X163383928Y-27386428D01*
X163312500Y-27350714D01*
X163276785Y-27315000D01*
X163241071Y-27243571D01*
X163241071Y-27172142D01*
X163276785Y-27100714D01*
X163312500Y-27065000D01*
X163383928Y-27029285D01*
X163562500Y-27029285D01*
X163669642Y-27065000D01*
X164241071Y-27386428D02*
X164348214Y-27422142D01*
X164383928Y-27457857D01*
X164419642Y-27529285D01*
X164419642Y-27636428D01*
X164383928Y-27707857D01*
X164348214Y-27743571D01*
X164276785Y-27779285D01*
X163991071Y-27779285D01*
X163991071Y-27029285D01*
X164241071Y-27029285D01*
X164312500Y-27065000D01*
X164348214Y-27100714D01*
X164383928Y-27172142D01*
X164383928Y-27243571D01*
X164348214Y-27315000D01*
X164312500Y-27350714D01*
X164241071Y-27386428D01*
X163991071Y-27386428D01*
X159491071Y-27779285D02*
X159491071Y-27029285D01*
X159741071Y-27565000D01*
X159991071Y-27029285D01*
X159991071Y-27779285D01*
X160348214Y-27779285D02*
X160348214Y-27279285D01*
X160348214Y-27029285D02*
X160312500Y-27065000D01*
X160348214Y-27100714D01*
X160383928Y-27065000D01*
X160348214Y-27029285D01*
X160348214Y-27100714D01*
X161026785Y-27743571D02*
X160955357Y-27779285D01*
X160812500Y-27779285D01*
X160741071Y-27743571D01*
X160705357Y-27707857D01*
X160669642Y-27636428D01*
X160669642Y-27422142D01*
X160705357Y-27350714D01*
X160741071Y-27315000D01*
X160812500Y-27279285D01*
X160955357Y-27279285D01*
X161026785Y-27315000D01*
X161348214Y-27779285D02*
X161348214Y-27279285D01*
X161348214Y-27422142D02*
X161383928Y-27350714D01*
X161419642Y-27315000D01*
X161491071Y-27279285D01*
X161562500Y-27279285D01*
X161919642Y-27779285D02*
X161848214Y-27743571D01*
X161812500Y-27707857D01*
X161776785Y-27636428D01*
X161776785Y-27422142D01*
X161812500Y-27350714D01*
X161848214Y-27315000D01*
X161919642Y-27279285D01*
X162026785Y-27279285D01*
X162098214Y-27315000D01*
X162133928Y-27350714D01*
X162169642Y-27422142D01*
X162169642Y-27636428D01*
X162133928Y-27707857D01*
X162098214Y-27743571D01*
X162026785Y-27779285D01*
X161919642Y-27779285D01*
X162491071Y-27029285D02*
X162491071Y-27636428D01*
X162526785Y-27707857D01*
X162562500Y-27743571D01*
X162633928Y-27779285D01*
X162776785Y-27779285D01*
X162848214Y-27743571D01*
X162883928Y-27707857D01*
X162919642Y-27636428D01*
X162919642Y-27029285D01*
X163241071Y-27743571D02*
X163348214Y-27779285D01*
X163526785Y-27779285D01*
X163598214Y-27743571D01*
X163633928Y-27707857D01*
X163669642Y-27636428D01*
X163669642Y-27565000D01*
X163633928Y-27493571D01*
X163598214Y-27457857D01*
X163526785Y-27422142D01*
X163383928Y-27386428D01*
X163312500Y-27350714D01*
X163276785Y-27315000D01*
X163241071Y-27243571D01*
X163241071Y-27172142D01*
X163276785Y-27100714D01*
X163312500Y-27065000D01*
X163383928Y-27029285D01*
X163562500Y-27029285D01*
X163669642Y-27065000D01*
X164241071Y-27386428D02*
X164348214Y-27422142D01*
X164383928Y-27457857D01*
X164419642Y-27529285D01*
X164419642Y-27636428D01*
X164383928Y-27707857D01*
X164348214Y-27743571D01*
X164276785Y-27779285D01*
X163991071Y-27779285D01*
X163991071Y-27029285D01*
X164241071Y-27029285D01*
X164312500Y-27065000D01*
X164348214Y-27100714D01*
X164383928Y-27172142D01*
X164383928Y-27243571D01*
X164348214Y-27315000D01*
X164312500Y-27350714D01*
X164241071Y-27386428D01*
X163991071Y-27386428D01*
%TO.C,J4*%
D10*
X160507119Y-64367380D02*
X160697595Y-64367380D01*
X160792833Y-64415000D01*
X160888071Y-64510238D01*
X160935690Y-64700714D01*
X160935690Y-65034047D01*
X160888071Y-65224523D01*
X160792833Y-65319761D01*
X160697595Y-65367380D01*
X160507119Y-65367380D01*
X160411880Y-65319761D01*
X160316642Y-65224523D01*
X160269023Y-65034047D01*
X160269023Y-64700714D01*
X160316642Y-64510238D01*
X160411880Y-64415000D01*
X160507119Y-64367380D01*
X161840452Y-65367380D02*
X161364261Y-65367380D01*
X161364261Y-64367380D01*
X162173785Y-64843571D02*
X162507119Y-64843571D01*
X162649976Y-65367380D02*
X162173785Y-65367380D01*
X162173785Y-64367380D01*
X162649976Y-64367380D01*
X163078547Y-65367380D02*
X163078547Y-64367380D01*
X163316642Y-64367380D01*
X163459500Y-64415000D01*
X163554738Y-64510238D01*
X163602357Y-64605476D01*
X163649976Y-64795952D01*
X163649976Y-64938809D01*
X163602357Y-65129285D01*
X163554738Y-65224523D01*
X163459500Y-65319761D01*
X163316642Y-65367380D01*
X163078547Y-65367380D01*
%TO.C,J2*%
X133402119Y-64196380D02*
X133592595Y-64196380D01*
X133687833Y-64244000D01*
X133783071Y-64339238D01*
X133830690Y-64529714D01*
X133830690Y-64863047D01*
X133783071Y-65053523D01*
X133687833Y-65148761D01*
X133592595Y-65196380D01*
X133402119Y-65196380D01*
X133306880Y-65148761D01*
X133211642Y-65053523D01*
X133164023Y-64863047D01*
X133164023Y-64529714D01*
X133211642Y-64339238D01*
X133306880Y-64244000D01*
X133402119Y-64196380D01*
X134735452Y-65196380D02*
X134259261Y-65196380D01*
X134259261Y-64196380D01*
X135068785Y-64672571D02*
X135402119Y-64672571D01*
X135544976Y-65196380D02*
X135068785Y-65196380D01*
X135068785Y-64196380D01*
X135544976Y-64196380D01*
X135973547Y-65196380D02*
X135973547Y-64196380D01*
X136211642Y-64196380D01*
X136354500Y-64244000D01*
X136449738Y-64339238D01*
X136497357Y-64434476D01*
X136544976Y-64624952D01*
X136544976Y-64767809D01*
X136497357Y-64958285D01*
X136449738Y-65053523D01*
X136354500Y-65148761D01*
X136211642Y-65196380D01*
X135973547Y-65196380D01*
%TO.C,RSW2*%
X154756880Y-67974380D02*
X154280690Y-68307714D01*
X154756880Y-68545809D02*
X153756880Y-68545809D01*
X153756880Y-68164857D01*
X153804500Y-68069619D01*
X153852119Y-68022000D01*
X153947357Y-67974380D01*
X154090214Y-67974380D01*
X154185452Y-68022000D01*
X154233071Y-68069619D01*
X154280690Y-68164857D01*
X154280690Y-68545809D01*
X154233071Y-67545809D02*
X154233071Y-67212476D01*
X154756880Y-67069619D02*
X154756880Y-67545809D01*
X153756880Y-67545809D01*
X153756880Y-67069619D01*
X154709261Y-66688666D02*
X154756880Y-66545809D01*
X154756880Y-66307714D01*
X154709261Y-66212476D01*
X154661642Y-66164857D01*
X154566404Y-66117238D01*
X154471166Y-66117238D01*
X154375928Y-66164857D01*
X154328309Y-66212476D01*
X154280690Y-66307714D01*
X154233071Y-66498190D01*
X154185452Y-66593428D01*
X154137833Y-66641047D01*
X154042595Y-66688666D01*
X153947357Y-66688666D01*
X153852119Y-66641047D01*
X153804500Y-66593428D01*
X153756880Y-66498190D01*
X153756880Y-66260095D01*
X153804500Y-66117238D01*
X154233071Y-65688666D02*
X154233071Y-65355333D01*
X154756880Y-65212476D02*
X154756880Y-65688666D01*
X153756880Y-65688666D01*
X153756880Y-65212476D01*
X153756880Y-64926761D02*
X153756880Y-64355333D01*
X154756880Y-64641047D02*
X153756880Y-64641047D01*
%TO.C,RSW1*%
X142876880Y-67983380D02*
X142400690Y-68316714D01*
X142876880Y-68554809D02*
X141876880Y-68554809D01*
X141876880Y-68173857D01*
X141924500Y-68078619D01*
X141972119Y-68031000D01*
X142067357Y-67983380D01*
X142210214Y-67983380D01*
X142305452Y-68031000D01*
X142353071Y-68078619D01*
X142400690Y-68173857D01*
X142400690Y-68554809D01*
X142353071Y-67554809D02*
X142353071Y-67221476D01*
X142876880Y-67078619D02*
X142876880Y-67554809D01*
X141876880Y-67554809D01*
X141876880Y-67078619D01*
X142829261Y-66697666D02*
X142876880Y-66554809D01*
X142876880Y-66316714D01*
X142829261Y-66221476D01*
X142781642Y-66173857D01*
X142686404Y-66126238D01*
X142591166Y-66126238D01*
X142495928Y-66173857D01*
X142448309Y-66221476D01*
X142400690Y-66316714D01*
X142353071Y-66507190D01*
X142305452Y-66602428D01*
X142257833Y-66650047D01*
X142162595Y-66697666D01*
X142067357Y-66697666D01*
X141972119Y-66650047D01*
X141924500Y-66602428D01*
X141876880Y-66507190D01*
X141876880Y-66269095D01*
X141924500Y-66126238D01*
X142353071Y-65697666D02*
X142353071Y-65364333D01*
X142876880Y-65221476D02*
X142876880Y-65697666D01*
X141876880Y-65697666D01*
X141876880Y-65221476D01*
X141876880Y-64935761D02*
X141876880Y-64364333D01*
X142876880Y-64650047D02*
X141876880Y-64650047D01*
%TD*%
M02*
